<svg id="Layer_1" data-name="Layer 1" xmlns="http://www.w3.org/2000/svg" viewBox="0 0 390.7 310.8"><defs><style>.cls-1{fill:#e9ecf1;}.cls-2{fill:#fff;}.cls-3{fill:#0d436b;}.cls-4{fill:#ffa400;}.cls-5{fill:#7fbfe9;}.cls-6{fill:#ffc82f;}</style></defs><title>Simple Illustration of Rick Assist</title><polygon class="cls-1" points="2.5 308.3 0 308.3 0 0 390.7 0 390.7 310.8 0 310.8 0 308.3 2.5 308.3 2.5 305.8 385.7 305.8 385.7 5 5 5 5 308.3 2.5 308.3 2.5 305.8 2.5 308.3"/><polygon class="cls-2" points="17.9 99.3 17.9 289.1 385.4 289.1 385.4 99.3 17.9 99.3"/><polyline class="cls-3" points="44.6 267.5 346.6 267.5 346.6 267.3 44.6 267.3"/><polyline class="cls-3" points="44.6 249.9 346.6 249.9 346.6 249.7 44.6 249.7"/><polyline class="cls-3" points="44.6 232.2 346.6 232.2 346.6 232 44.6 232"/><polyline class="cls-3" points="44.6 214.6 346.6 214.6 346.6 214.4 44.6 214.4"/><polyline class="cls-3" points="44.6 196.9 346.6 196.9 346.6 196.8 44.6 196.8"/><polyline class="cls-3" points="44.6 179.3 346.6 179.3 346.6 179.1 44.6 179.1"/><polyline class="cls-3" points="44.6 161.7 346.6 161.7 346.6 161.5 44.6 161.5"/><polyline class="cls-3" points="44.6 144 346.6 144 346.6 143.8 44.6 143.8"/><polyline class="cls-3" points="44.6 126.4 346.6 126.4 346.6 126.2 44.6 126.2"/><polygon class="cls-2" points="194.7 97.1 194.7 50.7 385.4 50.7 385.4 97.1 194.7 97.1"/><polygon class="cls-2" points="17.9 97.1 17.9 50.7 192.3 50.7 192.3 97.1 17.9 97.1"/><path class="cls-3" d="M180.4,325.1h1.9a2.53,2.53,0,0,1,2.7,2.5h0a2.53,2.53,0,0,1-2.7,2.5h-1.9v-5h0Zm1.1,1v3h0.8a1.42,1.42,0,0,0,1.5-1.5h0a1.42,1.42,0,0,0-1.5-1.5h-0.8Z" transform="translate(-101.9 -266)"/><polygon class="cls-3" points="84.1 59.1 85.2 59.1 85.2 64.1 84.1 64.1 84.1 59.1"/><path class="cls-3" d="M190.1,325.1h1l2.1,5h-1.1l-0.5-1.1h-2.1l-0.5,1.1h-1l2.1-5h0Zm1.2,2.9-0.7-1.6L190,328h1.3Z" transform="translate(-101.9 -266)"/><path class="cls-3" d="M193.9,327.6h0a2.58,2.58,0,0,1,2.6-2.6,2.72,2.72,0,0,1,2,.7l-0.7.8a1.9,1.9,0,0,0-1.3-.5,1.48,1.48,0,0,0-1.4,1.6h0a1.57,1.57,0,0,0,2.5,1.3v-0.7h-1.1v-0.9h2.2v2.2a3.34,3.34,0,0,1-2.1.8,2.69,2.69,0,0,1-2.7-2.7h0Z" transform="translate(-101.9 -266)"/><path class="cls-3" d="M199.8,325.1h2.3a2.46,2.46,0,0,1,1.5.5,1.5,1.5,0,0,1,.4,1.1h0a1.43,1.43,0,0,1-1.1,1.5l1.2,1.8h-1.3l-1.1-1.6h-0.9V330h-1.1v-4.9h0.1Zm2.2,2.4a0.71,0.71,0,0,0,.8-0.7h0c0-.5-0.3-0.7-0.9-0.7h-1.1v1.4H202Z" transform="translate(-101.9 -266)"/><path class="cls-3" d="M206.7,325.1h1l2.1,5h-1.1l-0.5-1.1h-2.1l-0.5,1.1h-1.1l2.2-5h0Zm1.1,2.9-0.7-1.6-0.7,1.6h1.4Z" transform="translate(-101.9 -266)"/><polygon class="cls-3" points="108.7 59.1 109.9 59.1 111.2 61.2 112.5 59.1 113.7 59.1 113.7 64.1 112.6 64.1 112.6 60.9 111.2 63 111.2 63 109.8 60.9 109.8 64.1 108.7 64.1 108.7 59.1"/><polygon class="cls-3" points="117.2 59.1 118.3 59.1 118.3 61.3 120.3 59.1 121.6 59.1 119.6 61.2 121.7 64.1 120.4 64.1 118.8 62 118.3 62.6 118.3 64.1 117.2 64.1 117.2 59.1"/><polygon class="cls-3" points="122.4 59.1 126.2 59.1 126.2 60.1 123.5 60.1 123.5 61.1 125.9 61.1 125.9 62.1 123.5 62.1 123.5 63.1 126.2 63.1 126.2 64.1 122.4 64.1 122.4 59.1"/><polygon class="cls-3" points="128.7 62.1 126.7 59.1 128 59.1 129.2 61.1 130.4 59.1 131.7 59.1 129.8 62.1 129.8 64.1 128.7 64.1 128.7 62.1"/><path class="cls-3" d="M223.6,337.9h1.9a1.67,1.67,0,0,1,1.9,1.6h0c0,1.1-.9,1.6-2,1.6h-1.2v1.8h-0.6v-5h0Zm1.8,2.7a1.2,1.2,0,0,0,1.4-1.1h0a1.11,1.11,0,0,0-1.3-1.1h-1.3v2.2h1.2Z" transform="translate(-101.9 -266)"/><path class="cls-3" d="M228.1,341h0a1.84,1.84,0,0,1,1.9-1.9,1.9,1.9,0,0,1,1.9,1.9h0a1.9,1.9,0,0,1-1.9,1.9,1.84,1.84,0,0,1-1.9-1.9h0Zm3.3,0h0a1.45,1.45,0,0,0-1.4-1.5,1.29,1.29,0,0,0-1.3,1.4h0a1.37,1.37,0,0,0,1.4,1.4,1.16,1.16,0,0,0,1.3-1.3h0Z" transform="translate(-101.9 -266)"/><path class="cls-3" d="M233,339.2h0.5v1a1.5,1.5,0,0,1,1.5-1v0.6h0a1.53,1.53,0,0,0-1.5,1.7V343H233v-3.8h0Z" transform="translate(-101.9 -266)"/><path class="cls-3" d="M236.2,341.9v-2.2h-0.5v-0.5h0.5V338h0.5v1.1h1.2v0.5h-1.2v2.2a0.5,0.5,0,0,0,.6.6,0.9,0.9,0,0,0,.5-0.1v0.5a1.45,1.45,0,0,1-.7.2,1,1,0,0,1-.9-1.1h0Z" transform="translate(-101.9 -266)"/><path class="cls-3" d="M239.1,339.6h-0.5v-0.5h0.5v-0.3a1.22,1.22,0,0,1,.3-0.9,1.14,1.14,0,0,1,.8-0.3,1.08,1.08,0,0,1,.6.1v0.5a0.9,0.9,0,0,0-.5-0.1,0.65,0.65,0,0,0-.6.8v0.3h1.2v0.5h-1.2v3.2h-0.6v-3.3h0Z" transform="translate(-101.9 -266)"/><path class="cls-3" d="M241.3,341h0a1.84,1.84,0,0,1,1.9-1.9,1.9,1.9,0,0,1,1.9,1.9h0a1.9,1.9,0,0,1-1.9,1.9,1.84,1.84,0,0,1-1.9-1.9h0Zm3.3,0h0a1.45,1.45,0,0,0-1.4-1.5,1.29,1.29,0,0,0-1.3,1.4h0a1.37,1.37,0,0,0,1.4,1.4,1.16,1.16,0,0,0,1.3-1.3h0Z" transform="translate(-101.9 -266)"/><polygon class="cls-3" points="144.4 71.6 144.9 71.6 144.9 76.8 144.4 76.8 144.4 71.6"/><path class="cls-3" d="M248.2,337.7h0.6v0.6h-0.6v-0.6h0Zm0,1.5h0.5v3.7h-0.5v-3.7h0Z" transform="translate(-101.9 -266)"/><path class="cls-3" d="M249.8,341h0a1.84,1.84,0,0,1,1.9-1.9,1.9,1.9,0,0,1,1.9,1.9h0a1.9,1.9,0,0,1-1.9,1.9,1.84,1.84,0,0,1-1.9-1.9h0Zm3.3,0h0a1.45,1.45,0,0,0-1.4-1.5,1.29,1.29,0,0,0-1.3,1.4h0a1.37,1.37,0,0,0,1.4,1.4,1.16,1.16,0,0,0,1.3-1.3h0Z" transform="translate(-101.9 -266)"/><polygon class="cls-3" points="122.7 81.6 123.3 81.6 124.2 84.6 125.2 81.6 125.7 81.6 126.7 84.6 127.7 81.6 128.2 81.6 126.9 85.3 126.5 85.3 125.5 82.4 124.5 85.3 124 85.3 122.7 81.6"/><polygon class="cls-3" points="131.7 79.6 132.2 79.6 128.9 86.2 128.4 86.2 131.7 79.6"/><path class="cls-3" d="M237,346.3h2.1a2,2,0,0,1,1.4.5,1.53,1.53,0,0,1,.4,1h0a1.6,1.6,0,0,1-1.4,1.5l1.5,2h-0.7l-1.4-1.9h-1.4v1.9H237v-5h0Zm2.1,2.6a1.16,1.16,0,0,0,1.3-1h0a1.1,1.1,0,0,0-1.3-1h-1.5v2h1.5Z" transform="translate(-101.9 -266)"/><path class="cls-3" d="M242.2,346.2h0.6v0.6h-0.6v-0.6h0Zm0,1.4h0.5v3.7h-0.5v-3.7h0Z" transform="translate(-101.9 -266)"/><path class="cls-3" d="M243.8,350.8l0.3-.4a2.11,2.11,0,0,0,1.3.5,0.7,0.7,0,0,0,.8-0.6h0c0-.4-0.4-0.5-0.9-0.6s-1.2-.4-1.2-1h0a1.17,1.17,0,0,1,1.3-1.1,3.26,3.26,0,0,1,1.3.4l-0.2.4a2.1,2.1,0,0,0-1.1-.4,0.6,0.6,0,0,0-.7.5h0a1.06,1.06,0,0,0,.9.6,1.28,1.28,0,0,1,1.2,1.1h0a1.16,1.16,0,0,1-1.3,1.1,2,2,0,0,1-1.7-.5h0Z" transform="translate(-101.9 -266)"/><polygon class="cls-3" points="145.8 80.1 146.3 80.1 146.3 83.7 148.3 81.6 149 81.6 147.5 83.2 149.1 85.3 148.4 85.3 147.1 83.6 146.3 84.4 146.3 85.3 145.8 85.3 145.8 80.1"/><path class="cls-3" d="M255.9,346.3h0.5l2.3,5h-0.6l-0.6-1.3h-2.7l-0.6,1.3h-0.6l2.3-5h0Zm1.4,3.2-1.1-2.5-1.1,2.5h2.2Z" transform="translate(-101.9 -266)"/><path class="cls-3" d="M259.4,350.8l0.3-.4a2.11,2.11,0,0,0,1.3.5,0.7,0.7,0,0,0,.8-0.6h0c0-.4-0.4-0.5-0.9-0.6s-1.2-.4-1.2-1h0a1.17,1.17,0,0,1,1.3-1.1,3.26,3.26,0,0,1,1.3.4l-0.2.4a2.1,2.1,0,0,0-1.1-.4,0.6,0.6,0,0,0-.7.5h0a1.06,1.06,0,0,0,.9.6,1.28,1.28,0,0,1,1.2,1.1h0a1.16,1.16,0,0,1-1.3,1.1,2,2,0,0,1-1.7-.5h0Z" transform="translate(-101.9 -266)"/><path class="cls-3" d="M263,350.8l0.3-.4a2.11,2.11,0,0,0,1.3.5,0.7,0.7,0,0,0,.8-0.6h0c0-.4-0.4-0.5-0.9-0.6s-1.2-.4-1.2-1h0a1.17,1.17,0,0,1,1.3-1.1,3.26,3.26,0,0,1,1.3.4l-0.2.4a2.1,2.1,0,0,0-1.1-.4,0.6,0.6,0,0,0-.7.5h0a1.06,1.06,0,0,0,.9.6,1.28,1.28,0,0,1,1.2,1.1h0a1.16,1.16,0,0,1-1.3,1.1,2,2,0,0,1-1.7-.5h0Z" transform="translate(-101.9 -266)"/><path class="cls-3" d="M266.9,346.2h0.6v0.6h-0.6v-0.6h0Zm0,1.4h0.5v3.7h-0.5v-3.7h0Z" transform="translate(-101.9 -266)"/><path class="cls-3" d="M268.5,350.8l0.3-.4a2.11,2.11,0,0,0,1.3.5,0.7,0.7,0,0,0,.8-0.6h0c0-.4-0.4-0.5-0.9-0.6s-1.2-.4-1.2-1h0a1.17,1.17,0,0,1,1.3-1.1,3.26,3.26,0,0,1,1.3.4l-0.2.4a2.1,2.1,0,0,0-1.1-.4,0.6,0.6,0,0,0-.7.5h0a1.06,1.06,0,0,0,.9.6,1.28,1.28,0,0,1,1.2,1.1h0a1.16,1.16,0,0,1-1.3,1.1,2,2,0,0,1-1.7-.5h0Z" transform="translate(-101.9 -266)"/><path class="cls-3" d="M272.6,350.3v-2.2h-0.5v-0.5h0.5v-1.1h0.5v1.1h1.2v0.5h-1.2v2.2a0.53,0.53,0,0,0,.6.6,0.9,0.9,0,0,0,.5-0.1v0.5a1.45,1.45,0,0,1-.7.2,1.06,1.06,0,0,1-.9-1.2h0Z" transform="translate(-101.9 -266)"/><path class="cls-3" d="M274.9,347.5h0a1.24,1.24,0,0,1,1.2-1.3,1.22,1.22,0,0,1,1.2,1.2h0a1.16,1.16,0,0,1-1.2,1.2,1,1,0,0,1-1.2-1.1h0Zm2.3,0h0a1.1,1.1,0,0,0-2.2,0h0a1.11,1.11,0,0,0,1.1,1.1,1,1,0,0,0,1.1-1.1h0Zm-1.5-.7h0.6a0.4,0.4,0,0,1,.5.4,0.42,0.42,0,0,1-.3.4l0.3,0.5h-0.3l-0.3-.4h-0.3v0.4h-0.2v-1.3h0Zm0.5,0.7a0.22,0.22,0,1,0,0-.4h-0.3v0.4h0.3Z" transform="translate(-101.9 -266)"/><path class="cls-3" d="M204.9,342.1h10.2a2,2,0,0,0,0-4H204.9a2,2,0,0,0,0,4" transform="translate(-101.9 -266)"/><path class="cls-3" d="M157.3,337.7h1.9a1.67,1.67,0,0,1,1.9,1.6h0c0,1.1-.9,1.6-2,1.6h-1.2v1.8h-0.6v-5h0Zm1.8,2.7a1.2,1.2,0,0,0,1.4-1.1h0a1.11,1.11,0,0,0-1.3-1.1h-1.3v2.2h1.2Z" transform="translate(-101.9 -266)"/><path class="cls-3" d="M161.8,340.8h0a1.84,1.84,0,0,1,1.9-1.9,1.9,1.9,0,0,1,1.9,1.9h0a1.9,1.9,0,0,1-1.9,1.9,1.78,1.78,0,0,1-1.9-1.9h0Zm3.2,0h0a1.45,1.45,0,0,0-1.4-1.5,1.29,1.29,0,0,0-1.3,1.4h0a1.37,1.37,0,0,0,1.4,1.4,1.12,1.12,0,0,0,1.3-1.3h0Z" transform="translate(-101.9 -266)"/><path class="cls-3" d="M166.6,339h0.5v1a1.5,1.5,0,0,1,1.5-1v0.6h0a1.53,1.53,0,0,0-1.5,1.7v1.5h-0.5V339h0Z" transform="translate(-101.9 -266)"/><path class="cls-3" d="M169.8,341.7v-2.2h-0.5V339h0.5v-1.1h0.5V339h1.2v0.5h-1.2v2.2a0.53,0.53,0,0,0,.6.6,0.9,0.9,0,0,0,.5-0.1v0.5a1.45,1.45,0,0,1-.7.2,1.2,1.2,0,0,1-.9-1.2h0Z" transform="translate(-101.9 -266)"/><path class="cls-3" d="M172.7,339.5h-0.5V339h0.5v-0.3a1.22,1.22,0,0,1,.3-0.9,1.14,1.14,0,0,1,.8-0.3,1.08,1.08,0,0,1,.6.1v0.5a0.9,0.9,0,0,0-.5-0.1,0.65,0.65,0,0,0-.6.8v0.3h1.2v0.5h-1.2v3.2h-0.5v-3.3h-0.1Z" transform="translate(-101.9 -266)"/><path class="cls-3" d="M174.9,340.8h0a1.84,1.84,0,0,1,1.9-1.9,1.9,1.9,0,0,1,1.9,1.9h0a1.9,1.9,0,0,1-1.9,1.9,1.84,1.84,0,0,1-1.9-1.9h0Zm3.3,0h0a1.45,1.45,0,0,0-1.4-1.5,1.29,1.29,0,0,0-1.3,1.4h0a1.37,1.37,0,0,0,1.4,1.4,1.12,1.12,0,0,0,1.3-1.3h0Z" transform="translate(-101.9 -266)"/><polygon class="cls-3" points="78 71.5 78.5 71.5 78.5 76.7 78 76.7 78 71.5"/><path class="cls-3" d="M181.8,337.6h0.6v0.6h-0.6v-0.6h0Zm0,1.4h0.5v3.7h-0.5V339h0Z" transform="translate(-101.9 -266)"/><path class="cls-3" d="M183.5,340.8h0a1.84,1.84,0,0,1,1.9-1.9,1.9,1.9,0,0,1,1.9,1.9h0a1.9,1.9,0,0,1-1.9,1.9,1.78,1.78,0,0,1-1.9-1.9h0Zm3.2,0h0a1.45,1.45,0,0,0-1.4-1.5,1.29,1.29,0,0,0-1.3,1.4h0a1.37,1.37,0,0,0,1.4,1.4,1.12,1.12,0,0,0,1.3-1.3h0Z" transform="translate(-101.9 -266)"/><path class="cls-4" d="M138.5,341.5h10.2a2,2,0,0,0,0-4H138.5a2,2,0,0,0,0,4" transform="translate(-101.9 -266)"/><path class="cls-3" d="M325.2,341.3a3.7,3.7,0,1,1-3.7-3.7,3.76,3.76,0,0,1,3.7,3.7" transform="translate(-101.9 -266)"/><polygon class="cls-3" points="229.1 73 232.7 73 232.7 73.5 229.7 73.5 229.7 75.2 232.4 75.2 232.4 75.7 229.7 75.7 229.7 77.5 232.8 77.5 232.8 78 229.1 78 229.1 73"/><path class="cls-3" d="M340.4,344.2l-0.7-.6a2.77,2.77,0,0,1-1.6.5,2.5,2.5,0,0,1-2.5-2.6h0a2.55,2.55,0,1,1,5.1,0h0a2.72,2.72,0,0,1-.6,1.7l0.7,0.6-0.4.4h0Zm-1.1-1-0.9-.8,0.4-.4,0.9,0.8a2,2,0,0,0,.4-1.3h0a2,2,0,0,0-2-2.1,2,2,0,0,0-2,2h0a2,2,0,0,0,2,2.1,1.56,1.56,0,0,0,1.2-.3h0Z" transform="translate(-101.9 -266)"/><path class="cls-3" d="M341.9,341.9V339h0.6v2.9a1.48,1.48,0,0,0,1.5,1.7,1.45,1.45,0,0,0,1.5-1.6v-3h0.6v2.9a1.93,1.93,0,0,1-2.1,2.2,2,2,0,0,1-2.1-2.2h0Z" transform="translate(-101.9 -266)"/><polygon class="cls-3" points="245.6 73 246.1 73 246.1 78 245.6 78 245.6 73"/><polygon class="cls-3" points="249 73.5 247.3 73.5 247.3 73 251.2 73 251.2 73.5 249.5 73.5 249.5 78 249 78 249 73.5"/><polygon class="cls-3" points="252.4 73 252.9 73 252.9 78 252.4 78 252.4 73"/><polygon class="cls-3" points="254.4 73 258 73 258 73.5 255 73.5 255 75.2 257.7 75.2 257.7 75.7 255 75.7 255 77.5 258.1 77.5 258.1 78 254.4 78 254.4 73"/><path class="cls-3" d="M360.8,343.3l0.3-.4a2.19,2.19,0,0,0,1.7.7,1,1,0,0,0,1.1-.8h0c0-.5-0.2-0.7-1.3-0.9s-1.7-.6-1.7-1.4h0a1.48,1.48,0,0,1,1.6-1.4,3,3,0,0,1,1.8.6l-0.3.4a2,2,0,0,0-1.4-.5,1,1,0,0,0-1.1.8h0c0,0.5.3,0.7,1.4,1s1.6,0.6,1.6,1.4h0a1.46,1.46,0,0,1-1.7,1.4,4,4,0,0,1-2-.9h0Z" transform="translate(-101.9 -266)"/><path class="cls-3" d="M331.2,350.8a3.57,3.57,0,0,1,2-3.1l0.2,0.4a3.06,3.06,0,0,0-1.7,2.7,3.17,3.17,0,0,0,1.7,2.7l-0.2.4a3.57,3.57,0,0,1-2-3.1h0Z" transform="translate(-101.9 -266)"/><path class="cls-3" d="M334.5,349.2H335v0.6a1.38,1.38,0,0,1,2.4,0,1.56,1.56,0,0,1,1.3-.7,1.39,1.39,0,0,1,1.4,1.5v2.3h-0.6v-2.2a1,1,0,1,0-2,0v2.1H337v-2.2a1,1,0,0,0-.9-1.1,1.06,1.06,0,0,0-1,1.2v2.1h-0.5v-3.6h-0.1Z" transform="translate(-101.9 -266)"/><path class="cls-3" d="M341.1,351h0a1.84,1.84,0,0,1,1.9-1.9,1.9,1.9,0,0,1,1.9,1.9h0a1.9,1.9,0,0,1-1.9,1.9,1.84,1.84,0,0,1-1.9-1.9h0Zm3.3,0h0a1.45,1.45,0,0,0-1.4-1.5,1.29,1.29,0,0,0-1.3,1.4h0a1.37,1.37,0,0,0,1.4,1.4,1.16,1.16,0,0,0,1.3-1.3h0Z" transform="translate(-101.9 -266)"/><path class="cls-3" d="M346,349.2h0.5v1a1.5,1.5,0,0,1,1.5-1v0.6h0a1.53,1.53,0,0,0-1.5,1.7V353H346v-3.8h0Z" transform="translate(-101.9 -266)"/><path class="cls-3" d="M348.7,351h0a1.76,1.76,0,0,1,1.8-1.9,1.74,1.74,0,0,1,1.7,1.9v0.2h-2.9a1.23,1.23,0,0,0,1.3,1.2,1.66,1.66,0,0,0,1.2-.5l0.3,0.3a2,2,0,0,1-1.5.7,1.78,1.78,0,0,1-1.9-1.9h0Zm2.9-.2a1.24,1.24,0,0,0-1.2-1.3,1.31,1.31,0,0,0-1.2,1.3h2.4Z" transform="translate(-101.9 -266)"/><path class="cls-3" d="M355.4,349.2h0.5v1a1.5,1.5,0,0,1,1.5-1v0.6h0a1.53,1.53,0,0,0-1.5,1.7V353h-0.5v-3.8h0Z" transform="translate(-101.9 -266)"/><path class="cls-3" d="M358.3,347.8h0.6v0.6h-0.6v-0.6h0Zm0.1,1.4h0.5v3.7h-0.5v-3.7h0Z" transform="translate(-101.9 -266)"/><path class="cls-3" d="M360,352.4l0.3-.4a2.11,2.11,0,0,0,1.3.5,0.7,0.7,0,0,0,.8-0.6h0c0-.4-0.4-0.5-0.9-0.6s-1.2-.4-1.2-1h0a1.17,1.17,0,0,1,1.3-1.1,2.84,2.84,0,0,1,1.3.4l-0.2.4a2.1,2.1,0,0,0-1.1-.4,0.6,0.6,0,0,0-.7.5h0a1.06,1.06,0,0,0,.9.6,1.28,1.28,0,0,1,1.2,1.1h0a1.16,1.16,0,0,1-1.3,1.1,2.65,2.65,0,0,1-1.7-.5h0Z" transform="translate(-101.9 -266)"/><polygon class="cls-3" points="262 81.7 262.5 81.7 262.5 85.2 264.5 83.2 265.2 83.2 263.6 84.8 265.2 86.9 264.6 86.9 263.3 85.1 262.5 85.9 262.5 86.9 262 86.9 262 81.7"/><path class="cls-3" d="M370.7,349.2h0.6l-1.5,3.8a1.21,1.21,0,0,1-1.2,1,2.35,2.35,0,0,1-.8-0.2l0.2-.4a1.08,1.08,0,0,0,.6.1,1,1,0,0,0,.8-0.7l-1.7-3.7h0.6l1.3,3.1,1.1-3h0Z" transform="translate(-101.9 -266)"/><path class="cls-3" d="M372,353.5a3.06,3.06,0,0,0,1.7-2.7,3.17,3.17,0,0,0-1.7-2.7l0.2-.4a3.36,3.36,0,0,1,2,3.1,3.57,3.57,0,0,1-2,3.1l-0.2-.4h0Z" transform="translate(-101.9 -266)"/><path class="cls-5" d="M400.4,341.3a3.7,3.7,0,1,1-3.7-3.7,3.76,3.76,0,0,1,3.7,3.7" transform="translate(-101.9 -266)"/><polygon class="cls-3" points="304.3 72.5 307.9 72.5 307.9 73.1 304.9 73.1 304.9 74.8 307.6 74.8 307.6 75.4 304.9 75.4 304.9 77.5 304.3 77.5 304.3 72.5"/><polygon class="cls-3" points="309.1 72.5 309.7 72.5 309.7 77.5 309.1 77.5 309.1 72.5"/><polygon class="cls-3" points="315.3 72.5 313.4 75 315.3 77.5 314.7 77.5 313.1 75.4 311.5 77.5 310.8 77.5 312.7 75 310.9 72.5 311.6 72.5 313.1 74.6 314.6 72.5 315.3 72.5"/><polygon class="cls-3" points="316.4 72.5 320 72.5 320 73.1 317 73.1 317 74.8 319.7 74.8 319.7 75.3 317 75.3 317 77 320.1 77 320.1 77.5 316.4 77.5 316.4 72.5"/><path class="cls-3" d="M423.1,338.5h1.7a2.53,2.53,0,0,1,2.7,2.5h0a2.53,2.53,0,0,1-2.7,2.5h-1.7v-5h0Zm0.6,0.6V343h1.2a2,2,0,0,0,2.1-2h0a2,2,0,0,0-2.1-2h-1.2v0.1Z" transform="translate(-101.9 -266)"/><polygon class="cls-3" points="326.6 75.1 328.6 75.1 328.6 75.7 326.6 75.7 326.6 75.1"/><polygon class="cls-3" points="329.9 72.5 330.4 72.5 330.4 77.5 329.9 77.5 329.9 72.5"/><polygon class="cls-3" points="332 72.5 332.5 72.5 335.6 76.5 335.6 72.5 336.2 72.5 336.2 77.5 335.7 77.5 332.5 73.4 332.5 77.5 332 77.5 332 72.5"/><path class="cls-3" d="M439.3,341.1h0a2.56,2.56,0,0,1,2.5-2.6,2.41,2.41,0,0,1,1.9.8l-0.4.4a2.18,2.18,0,0,0-1.6-.7,1.92,1.92,0,0,0-1.9,2h0a2,2,0,0,0,1.9,2.1,2.36,2.36,0,0,0,1.6-.7l0.4,0.4a2.69,2.69,0,0,1-2,.9,2.62,2.62,0,0,1-2.4-2.6h0Z" transform="translate(-101.9 -266)"/><path class="cls-3" d="M444.6,341.1h0a2.52,2.52,0,0,1,2.6-2.6,2.44,2.44,0,0,1,2.5,2.6h0a2.52,2.52,0,0,1-2.6,2.6,2.49,2.49,0,0,1-2.5-2.6h0Zm4.5,0h0a2,2,0,0,0-2-2.1,2,2,0,0,0-2,2h0a2,2,0,0,0,2,2.1,1.94,1.94,0,0,0,2-2h0Z" transform="translate(-101.9 -266)"/><polygon class="cls-3" points="349.1 72.5 349.6 72.5 351.4 75.3 353.3 72.5 353.8 72.5 353.8 77.5 353.3 77.5 353.3 73.5 351.5 76.2 351.4 76.2 349.6 73.5 349.6 77.5 349.1 77.5 349.1 72.5"/><polygon class="cls-3" points="355.3 72.5 358.9 72.5 358.9 73.1 355.9 73.1 355.9 74.8 358.6 74.8 358.6 75.3 355.9 75.3 355.9 77 358.9 77 358.9 77.5 355.3 77.5 355.3 72.5"/><path class="cls-3" d="M406.2,351.1a3.32,3.32,0,0,1,2-3l0.2,0.4a3.06,3.06,0,0,0-1.7,2.7,3.17,3.17,0,0,0,1.7,2.7l-0.2.4a3.84,3.84,0,0,1-2-3.2h0Z" transform="translate(-101.9 -266)"/><polygon class="cls-3" points="307.7 81.9 308.2 81.9 308.2 87.1 307.7 87.1 307.7 81.9"/><path class="cls-3" d="M411.2,351.3h0a1.76,1.76,0,0,1,1.8-1.9,1.74,1.74,0,0,1,1.7,1.9v0.2h-2.9a1.23,1.23,0,0,0,1.3,1.2,1.66,1.66,0,0,0,1.2-.5l0.3,0.3a2,2,0,0,1-1.5.7,1.78,1.78,0,0,1-1.9-1.9h0Zm2.9-.2a1.24,1.24,0,0,0-1.2-1.3,1.31,1.31,0,0,0-1.2,1.3h2.4Z" transform="translate(-101.9 -266)"/><path class="cls-3" d="M415.4,352.7l0.3-.4a2.11,2.11,0,0,0,1.3.5,0.7,0.7,0,0,0,.8-0.6h0c0-.4-0.4-0.5-0.9-0.6s-1.2-.4-1.2-1h0a1.17,1.17,0,0,1,1.3-1.1,3.26,3.26,0,0,1,1.3.4l-0.2.4a2.1,2.1,0,0,0-1.1-.4,0.6,0.6,0,0,0-.7.5h0a1.06,1.06,0,0,0,.9.6,1.28,1.28,0,0,1,1.2,1.1h0a1.16,1.16,0,0,1-1.3,1.1,2.86,2.86,0,0,1-1.7-.5h0Z" transform="translate(-101.9 -266)"/><path class="cls-3" d="M419,352.7l0.3-.4a2.11,2.11,0,0,0,1.3.5,0.7,0.7,0,0,0,.8-0.6h0c0-.4-0.4-0.5-0.9-0.6s-1.2-.4-1.2-1h0a1.17,1.17,0,0,1,1.3-1.1,3.26,3.26,0,0,1,1.3.4l-0.2.4a2.1,2.1,0,0,0-1.1-.4,0.6,0.6,0,0,0-.7.5h0a1.06,1.06,0,0,0,.9.6,1.28,1.28,0,0,1,1.2,1.1h0a1.16,1.16,0,0,1-1.3,1.1,2.86,2.86,0,0,1-1.7-.5h0Z" transform="translate(-101.9 -266)"/><path class="cls-3" d="M425.1,349.5h0.5v1a1.5,1.5,0,0,1,1.5-1v0.6h0a1.53,1.53,0,0,0-1.5,1.7v1.5h-0.5v-3.8h0Z" transform="translate(-101.9 -266)"/><path class="cls-3" d="M428.1,348h0.6v0.6h-0.6V348h0Zm0,1.5h0.5v3.7h-0.5v-3.7h0Z" transform="translate(-101.9 -266)"/><path class="cls-3" d="M429.7,352.7l0.3-.4a2.11,2.11,0,0,0,1.3.5,0.7,0.7,0,0,0,.8-0.6h0c0-.4-0.4-0.5-0.9-0.6s-1.2-.4-1.2-1h0a1.17,1.17,0,0,1,1.3-1.1,2.84,2.84,0,0,1,1.3.4l-0.2.4a2.1,2.1,0,0,0-1.1-.4,0.6,0.6,0,0,0-.7.5h0a1.06,1.06,0,0,0,.9.6,1.28,1.28,0,0,1,1.2,1.1h0a1.16,1.16,0,0,1-1.3,1.1,2.86,2.86,0,0,1-1.7-.5h0Z" transform="translate(-101.9 -266)"/><polygon class="cls-3" points="331.7 81.9 332.2 81.9 332.2 85.5 334.2 83.5 334.9 83.5 333.3 85 334.9 87.1 334.3 87.1 333 85.4 332.2 86.2 332.2 87.1 331.7 87.1 331.7 81.9"/><path class="cls-3" d="M440.4,349.5H441l-1.5,3.8a1.21,1.21,0,0,1-1.2,1,2.35,2.35,0,0,1-.8-0.2l0.2-.4a1.08,1.08,0,0,0,.6.1,1,1,0,0,0,.8-0.7l-1.7-3.7H438l1.3,3.1,1.1-3h0Z" transform="translate(-101.9 -266)"/><path class="cls-3" d="M441.7,353.8a3.06,3.06,0,0,0,1.7-2.7,3.17,3.17,0,0,0-1.7-2.7l0.2-.4a3.32,3.32,0,0,1,2,3,3.57,3.57,0,0,1-2,3.1l-0.2-.3h0Z" transform="translate(-101.9 -266)"/><path class="cls-3" d="M340.6,325.1h2a1.69,1.69,0,0,1,1.9,1.7h0a1.79,1.79,0,0,1-2,1.8h-0.8v1.5h-1.1v-5h0Zm1.9,2.5a0.82,0.82,0,0,0,.9-0.8h0a0.77,0.77,0,0,0-.9-0.8h-0.8v1.5h0.8v0.1Z" transform="translate(-101.9 -266)"/><path class="cls-3" d="M345.1,327.6h0a2.61,2.61,0,0,1,2.7-2.6,2.52,2.52,0,0,1,2.6,2.6h0a2.61,2.61,0,0,1-2.7,2.6,2.65,2.65,0,0,1-2.6-2.6h0Zm4.2,0h0a1.5,1.5,0,1,0-3,0h0a1.5,1.5,0,1,0,3,0h0Z" transform="translate(-101.9 -266)"/><path class="cls-3" d="M351.5,325.1h2.3a2.46,2.46,0,0,1,1.5.5,1.5,1.5,0,0,1,.4,1.1h0a1.43,1.43,0,0,1-1.1,1.5l1.2,1.8h-1.3l-1.1-1.6h-0.9V330h-1.1v-4.9h0.1Zm2.2,2.4a0.71,0.71,0,0,0,.8-0.7h0c0-.5-0.3-0.7-0.9-0.7h-1.1v1.4h1.2Z" transform="translate(-101.9 -266)"/><polygon class="cls-3" points="255.9 60.1 254.4 60.1 254.4 59.1 258.6 59.1 258.6 60.1 257 60.1 257 64.1 255.9 64.1 255.9 60.1"/><polygon class="cls-3" points="259.5 59.1 263.3 59.1 263.3 60.1 260.6 60.1 260.6 61.2 262.9 61.2 262.9 62.2 260.6 62.2 260.6 64.1 259.5 64.1 259.5 59.1"/><path class="cls-3" d="M365.9,327.6h0a2.61,2.61,0,0,1,2.7-2.6,2.52,2.52,0,0,1,2.6,2.6h0a2.65,2.65,0,0,1-5.3,0h0Zm4.1,0h0a1.5,1.5,0,1,0-3,0h0a1.5,1.5,0,1,0,3,0h0Z" transform="translate(-101.9 -266)"/><polygon class="cls-3" points="270.3 59.1 271.4 59.1 271.4 63.1 273.9 63.1 273.9 64.1 270.3 64.1 270.3 59.1"/><polygon class="cls-3" points="274.8 59.1 275.9 59.1 275.9 64.1 274.8 64.1 274.8 59.1"/><path class="cls-3" d="M378.9,327.6h0a2.61,2.61,0,0,1,2.7-2.6,2.52,2.52,0,0,1,2.6,2.6h0a2.65,2.65,0,0,1-5.3,0h0Zm4.1,0h0a1.5,1.5,0,1,0-3,0h0a1.5,1.5,0,1,0,3,0h0Z" transform="translate(-101.9 -266)"/><path class="cls-3" d="M389.1,325.1h1l2.1,5h-1.1l-0.5-1.1h-2.1l-0.5,1.1h-1l2.1-5h0Zm1.2,2.9-0.7-1.6-0.7,1.6h1.4Z" transform="translate(-101.9 -266)"/><path class="cls-3" d="M393.1,325.1H395a2.53,2.53,0,0,1,2.7,2.5h0a2.53,2.53,0,0,1-2.7,2.5h-1.9v-5h0Zm1.1,1v3H395a1.42,1.42,0,0,0,1.5-1.5h0a1.42,1.42,0,0,0-1.5-1.5h-0.8Z" transform="translate(-101.9 -266)"/><path class="cls-3" d="M398.2,329.4l0.7-.8a1.38,1.38,0,0,0,.9.5,0.67,0.67,0,0,0,.7-0.8v-3.2h1.1v3.3a1.73,1.73,0,0,1-.5,1.3,1.9,1.9,0,0,1-1.3.5,2.26,2.26,0,0,1-1.6-.8h0Z" transform="translate(-101.9 -266)"/><path class="cls-3" d="M402.7,328v-2.9h1.1v2.8a1.1,1.1,0,1,0,2.2,0V325h1.1v2.8a2,2,0,0,1-2.2,2.3,1.89,1.89,0,0,1-2.2-2.1h0Z" transform="translate(-101.9 -266)"/><path class="cls-3" d="M407.9,329.4l0.6-.8a2,2,0,0,0,1.5.6,0.6,0.6,0,0,0,.7-0.5h0c0-.3-0.2-0.4-1-0.6-1-.3-1.7-0.5-1.7-1.5h0a1.53,1.53,0,0,1,1.7-1.5,3.29,3.29,0,0,1,1.9.6l-0.6.8a2.35,2.35,0,0,0-1.3-.5,0.5,0.5,0,0,0-.6.4h0c0,0.3.2,0.4,1.1,0.7s1.6,0.6,1.6,1.5h0a1.56,1.56,0,0,1-1.8,1.5,2.7,2.7,0,0,1-2.1-.7h0Z" transform="translate(-101.9 -266)"/><polygon class="cls-3" points="312.1 60.1 310.6 60.1 310.6 59.1 314.7 59.1 314.7 60.1 313.2 60.1 313.2 64.1 312.1 64.1 312.1 60.1"/><polygon class="cls-3" points="315.6 59.1 316.8 59.1 318.1 61.2 319.4 59.1 320.6 59.1 320.6 64.1 319.5 64.1 319.5 60.9 318.1 63 318.1 63 316.7 60.9 316.7 64.1 315.6 64.1 315.6 59.1"/><polygon class="cls-3" points="321.9 59.1 325.6 59.1 325.6 60.1 322.9 60.1 322.9 61.1 325.3 61.1 325.3 62.1 322.9 62.1 322.9 63.1 325.7 63.1 325.7 64.1 321.9 64.1 321.9 59.1"/><polygon class="cls-3" points="326.7 59.1 327.7 59.1 330 62.2 330 59.1 331.1 59.1 331.1 64.1 330.2 64.1 327.8 60.9 327.8 64.1 326.7 64.1 326.7 59.1"/><polygon class="cls-3" points="333.5 60.1 332 60.1 332 59.1 336.1 59.1 336.1 60.1 334.6 60.1 334.6 64.1 333.5 64.1 333.5 60.1"/><path class="cls-6" d="M305.2,437.2c-3.5-4-7.7-8.7-12.9-14.5a25.52,25.52,0,0,0-7.9-6.1,19.4,19.4,0,0,0-8.4-1.9c-5.5,0-10.9,2.2-16.1,5.3-7.8,4.7-15.3,11.6-22.1,17.3a81.84,81.84,0,0,1-9.4,7.2,26,26,0,0,1-4,2.1,8.52,8.52,0,0,1-3.3.7,14.65,14.65,0,0,1-8.1-2.5,38.93,38.93,0,0,1-5.3-4.2,58,58,0,0,0-8.8-7.1,24,24,0,0,0-12.9-3.6,17.39,17.39,0,0,0-6.1,1.1,24.48,24.48,0,0,0-8.5,5.7c-3.7,3.6-7,7.7-10.8,10.9a23.39,23.39,0,0,1-6.1,3.9A17.61,17.61,0,0,1,147,453h-0.3v3.2H147a22.42,22.42,0,0,0,12.6-3.9,40.32,40.32,0,0,0,7-6c3.2-3.3,6-6.7,9.1-9.2a20.25,20.25,0,0,1,4.8-3A14.2,14.2,0,0,1,186,433a21.06,21.06,0,0,1,10.2,2.5c4.2,2.3,7.5,5.8,11.2,9a27.69,27.69,0,0,0,6,4.1,17.14,17.14,0,0,0,7.7,1.8,13.47,13.47,0,0,0,6-1.6,64.49,64.49,0,0,0,11.2-7.7c5.9-4.9,12.2-10.8,18.7-15.4a54.47,54.47,0,0,1,9.7-5.7,23.41,23.41,0,0,1,9.4-2.2,15.9,15.9,0,0,1,7,1.6,22.81,22.81,0,0,1,6.9,5.3c5.2,5.8,9.4,10.4,12.9,14.5a1.52,1.52,0,0,0,2.3.1c0.6-.3.6-1.4,0-2.1h0Z" transform="translate(-101.9 -266)"/><path class="cls-6" d="M426.6,450.7c-6.3,14.1-13.7,28.7-21.8,40.9s-16.8,22.2-25.7,27.2a20.28,20.28,0,0,1-10.1,2.9,21.1,21.1,0,0,1-11-3.4c-6.3-3.9-12.5-10.9-18.4-19.4-8.8-12.9-16.9-29.2-24.5-43.7-3-5.6-5.8-10.9-8.7-15.7l-3,1.4c3.2,5.3,6.5,11.4,9.9,17.9,7.7,14.6,15.9,31,24.9,43.8,4.5,6.4,9.3,12,14.4,15.9s10.6,6.4,16.4,6.4a24.21,24.21,0,0,0,11.7-3.3A59.51,59.51,0,0,0,395,509.7c8-8.8,15.6-20.4,22.4-33,13.1-24.2,24.4-53.4,30.7-71.1v-9.9c-3.7,11.1-11.9,33.7-21.5,55h0Z" transform="translate(-101.9 -266)"/><path class="cls-3" d="M341.5,481.5l-3.3-3a1,1,0,1,1,1.4-1.4c1.1,1,2.1,2,3.2,3a1,1,0,0,1,.1,1.4,1.14,1.14,0,0,1-.8.3,0.86,0.86,0,0,1-.6-0.3h0Z" transform="translate(-101.9 -266)"/><path class="cls-5" d="M397,481.1a1,1,0,0,1,0-1.4c1-1,2.1-2,3.1-3.1a1,1,0,0,1,1.4,1.4c-1.1,1.1-2.1,2.2-3.2,3.2a0.91,0.91,0,0,1-.7.3,2.09,2.09,0,0,1-.6-0.4h0Z" transform="translate(-101.9 -266)"/><path class="cls-3" d="M429.1,436.2a1.17,1.17,0,1,0,2,1.2A312.35,312.35,0,0,0,448.2,402v-6.2a316.06,316.06,0,0,1-19.1,40.4h0Z" transform="translate(-101.9 -266)"/><path class="cls-5" d="M420.5,454.3a1.85,1.85,0,0,1-.7-0.2,1.28,1.28,0,0,1-.4-1.7l0.7-1a1.23,1.23,0,0,1,2.1,1.3l-0.7,1a1.1,1.1,0,0,1-1,.6h0Z" transform="translate(-101.9 -266)"/><path class="cls-3" d="M423.3,449.9a1.42,1.42,0,0,1-.6-0.2,1.17,1.17,0,0,1-.4-1.7c0.5-.8,1-1.7,1.5-2.5a1.17,1.17,0,0,1,1.7-.4,1.19,1.19,0,0,1,.4,1.7c-0.5.8-1,1.7-1.5,2.6a2.22,2.22,0,0,1-1.1.5h0Z" transform="translate(-101.9 -266)"/><path class="cls-5" d="M426.8,443.9a1.42,1.42,0,0,1-.6-0.2,1.28,1.28,0,0,1-.5-1.7l0.6-1.1a1.25,1.25,0,1,1,2.2,1.2l-0.6,1.1a1.08,1.08,0,0,1-1.1.7h0Z" transform="translate(-101.9 -266)"/><path class="cls-5" d="M408.4,470.5a1.42,1.42,0,0,1-.6-0.2,1.25,1.25,0,0,1-.2-1.7l0.8-1a1.21,1.21,0,0,1,1.9,1.5l-0.8,1a2.1,2.1,0,0,1-1.1.4h0Z" transform="translate(-101.9 -266)"/><path class="cls-3" d="M411.6,466.4a1.42,1.42,0,0,1-.6-0.2,1.16,1.16,0,0,1-.2-1.7l1.8-2.4a1.22,1.22,0,1,1,2,1.4l-1.8,2.4a2.08,2.08,0,0,1-1.2.5h0Z" transform="translate(-101.9 -266)"/><path class="cls-5" d="M415.7,460.7a1.42,1.42,0,0,1-.6-0.2,1.25,1.25,0,0,1-.3-1.7l0.7-1a1.25,1.25,0,0,1,1.7-.3,1.17,1.17,0,0,1,.3,1.7l-0.7,1a1.07,1.07,0,0,1-1.1.5h0Z" transform="translate(-101.9 -266)"/><path class="cls-3" d="M407.1,472.3a1.14,1.14,0,0,1-.8-0.3,1.15,1.15,0,0,1-.1-1.7c0.3-.3.5-0.6,0.8-0.9a1.2,1.2,0,0,1,1.8,1.6,8.74,8.74,0,0,0-.8,1,1.22,1.22,0,0,1-.9.3h0Z" transform="translate(-101.9 -266)"/><path class="cls-3" d="M399.5,472.6a5.3,5.3,0,1,0,5.3-5.3,5.27,5.27,0,0,0-5.3,5.3" transform="translate(-101.9 -266)"/><path class="cls-5" d="M399.2,472.6a5.6,5.6,0,1,0,5.6-5.6,5.59,5.59,0,0,0-5.6,5.6h0.5a4.91,4.91,0,0,1,1.5-3.5,5.07,5.07,0,0,1,7.2,0,5.09,5.09,0,0,1,1.5,3.5,5.33,5.33,0,0,1-1.5,3.6,5.1,5.1,0,0,1-8.7-3.6h-0.5Z" transform="translate(-101.9 -266)"/><path class="cls-5" d="M398.7,472.6a6,6,0,0,0,6.1,6,6.1,6.1,0,0,0,6.1-6,6,6,0,0,0-6.1-6,6,6,0,0,0-6.1,6,0.7,0.7,0,0,0,1.4,0,4.45,4.45,0,0,1,1.3-3.2,4.69,4.69,0,0,1,3.3-1.3,4.87,4.87,0,0,1,3.3,1.3,4.63,4.63,0,0,1,1.3,3.2,4.45,4.45,0,0,1-1.3,3.2,4.69,4.69,0,0,1-3.3,1.3,4.87,4.87,0,0,1-3.3-1.3,4.63,4.63,0,0,1-1.3-3.2,0.7,0.7,0,1,0-1.4,0h0Z" transform="translate(-101.9 -266)"/><path class="cls-3" d="M306.5,437.6c-3.6-3.7-7.8-7.9-13.1-13.2a26.32,26.32,0,0,0-7.9-5.5,19.78,19.78,0,0,0-8.2-1.7c-5.4,0-10.8,1.9-16,4.8-7.8,4.3-15.4,10.5-22.2,15.7a87.68,87.68,0,0,1-9.6,6.6,16.28,16.28,0,0,1-7.7,2.6,16.56,16.56,0,0,1-8.5-2.3c-3.7-2.1-7-5.4-11-8.3a26.33,26.33,0,0,0-16-5.2,19.2,19.2,0,0,0-11,3.5c-4.7,3.1-8.4,7.6-12.6,11.2a31.93,31.93,0,0,1-6.9,4.6,21.55,21.55,0,0,1-8.8,1.8,0.37,0.37,0,0,0-.3.1v2.2c0.1,0,.2.1,0.3,0.1a23.19,23.19,0,0,0,12.4-3.5c5.2-3.1,9-7.6,13.1-11.3a33.77,33.77,0,0,1,6.3-4.6,16.6,16.6,0,0,1,7.5-1.8,23.29,23.29,0,0,1,10.5,2.3c4.4,2.1,7.7,5.4,11.4,8.2a30.19,30.19,0,0,0,6,3.7,18,18,0,0,0,7.5,1.6,14.08,14.08,0,0,0,5.8-1.4,57.66,57.66,0,0,0,11.2-7c5.9-4.4,12.3-9.8,18.9-14s13.3-7.3,19.6-7.3a18.7,18.7,0,0,1,7.3,1.5,21.05,21.05,0,0,1,7.1,5c5.3,5.3,9.5,9.5,13,13.2a1,1,0,0,0,1.6,0,1,1,0,0,0,.3-1.6h0Z" transform="translate(-101.9 -266)"/><path class="cls-5" d="M326.3,464.9a1,1,0,0,1-.9-0.4l-1.8-2.2a1.21,1.21,0,1,1,1.9-1.5l1.8,2.2a1.25,1.25,0,0,1-.2,1.7,1.08,1.08,0,0,1-.8.2h0Z" transform="translate(-101.9 -266)"/><path class="cls-3" d="M331.3,470.7a1.49,1.49,0,0,1-.9-0.4l-2.3-2.8a1.16,1.16,0,0,1,.2-1.7,1.25,1.25,0,0,1,1.7.2l2.3,2.8a1.16,1.16,0,0,1-.2,1.7,2.35,2.35,0,0,1-.8.2h0Z" transform="translate(-101.9 -266)"/><path class="cls-3" d="M316.1,452.3a1.49,1.49,0,0,1-.9-0.4c-0.6-.8-1.3-1.6-1.9-2.3a1.21,1.21,0,0,1,1.9-1.5c0.7,0.8,1.3,1.6,2,2.3a1.16,1.16,0,0,1-.2,1.7,3.71,3.71,0,0,1-.9.2h0Z" transform="translate(-101.9 -266)"/><path class="cls-5" d="M311.2,446.5a1.09,1.09,0,0,1-.9-0.4c-0.6-.8-1.3-1.5-2-2.3a1.2,1.2,0,0,1,1.8-1.6c0.7,0.8,1.3,1.6,2,2.3a1.24,1.24,0,0,1-.1,1.7,1.14,1.14,0,0,1-.8.3h0Z" transform="translate(-101.9 -266)"/><path class="cls-5" d="M323.3,453.3a3.68,3.68,0,1,0,0,5.2,3.57,3.57,0,0,0,0-5.2h0Z" transform="translate(-101.9 -266)"/><path class="cls-3" d="M323.3,453.3l0.4-.4a4.2,4.2,0,0,0-7.2,3,4.41,4.41,0,0,0,1.2,3,4.24,4.24,0,0,0,6-6l-0.4.4-0.4.4a3.14,3.14,0,0,1,0,4.4,3.17,3.17,0,0,1-2.3.9,3.52,3.52,0,0,1-2.3-.9,3.14,3.14,0,0,1,0-4.4,3.17,3.17,0,0,1,2.3-.9,3.52,3.52,0,0,1,2.3.9l0.4-.4h0Z" transform="translate(-101.9 -266)"/><path class="cls-3" d="M421,453.3a3.68,3.68,0,1,0,0,5.2,3.57,3.57,0,0,0,0-5.2h0Z" transform="translate(-101.9 -266)"/><path class="cls-5" d="M421,453.3l0.2-.2a3.84,3.84,0,0,0-2.8-1.1,4.3,4.3,0,0,0-2.8,1.1,4,4,0,1,0,5.6,0l-0.2.2-0.2.2a3.4,3.4,0,0,1-2.4,5.8,3.1,3.1,0,0,1-2.4-1,3.25,3.25,0,0,1-1-2.4,3.1,3.1,0,0,1,1-2.4,3.25,3.25,0,0,1,2.4-1,3.1,3.1,0,0,1,2.4,1l0.2-.2h0Z" transform="translate(-101.9 -266)"/><path class="cls-5" d="M421,453.3l0.4-.4a4.2,4.2,0,0,0-7.2,3,4.41,4.41,0,0,0,1.2,3,4.24,4.24,0,0,0,6-6l-0.4.4-0.4.4a3.14,3.14,0,0,1,0,4.4,3.17,3.17,0,0,1-2.3.9,3.52,3.52,0,0,1-2.3-.9,3.14,3.14,0,0,1,0-4.4,3.17,3.17,0,0,1,2.3-.9,3.34,3.34,0,0,1,2.3.9l0.4-.4h0Z" transform="translate(-101.9 -266)"/><path class="cls-5" d="M307.7,436.1a3.68,3.68,0,1,0,0,5.2,3.74,3.74,0,0,0,0-5.2h0Z" transform="translate(-101.9 -266)"/><path class="cls-3" d="M307.7,436.1l0.4-.4a4.35,4.35,0,1,0,1.2,3,4.23,4.23,0,0,0-1.2-3l-0.4.4-0.4.4a3.14,3.14,0,0,1,0,4.4,3.17,3.17,0,0,1-2.3.9,3.52,3.52,0,0,1-2.3-.9,3.14,3.14,0,0,1,0-4.4,3.17,3.17,0,0,1,2.3-.9,3.52,3.52,0,0,1,2.3.9l0.4-.4h0Z" transform="translate(-101.9 -266)"/><path class="cls-3" d="M431.4,436.1a3.68,3.68,0,1,0,0,5.2,3.57,3.57,0,0,0,0-5.2h0Z" transform="translate(-101.9 -266)"/><path class="cls-5" d="M431.4,436.1l0.2-.2a3.48,3.48,0,0,0-2.8-1.1,4.3,4.3,0,0,0-2.8,1.1,4,4,0,1,0,5.6,0l-0.2.2-0.2.2a3.4,3.4,0,0,1-2.4,5.8,3.1,3.1,0,0,1-2.4-1,3.25,3.25,0,0,1-1-2.4,3.1,3.1,0,0,1,1-2.4,3.25,3.25,0,0,1,2.4-1,3.1,3.1,0,0,1,2.4,1l0.2-.2h0Z" transform="translate(-101.9 -266)"/><path class="cls-5" d="M431.5,436.1l0.4-.4a4.35,4.35,0,1,0,1.2,3,4.23,4.23,0,0,0-1.2-3l-0.4.4-0.4.4a3.14,3.14,0,0,1,0,4.4,3.17,3.17,0,0,1-2.3.9,3.52,3.52,0,0,1-2.3-.9,3.14,3.14,0,0,1,0-4.4,3.17,3.17,0,0,1,2.3-.9,3.52,3.52,0,0,1,2.3.9l0.4-.4h0Z" transform="translate(-101.9 -266)"/><path class="cls-5" d="M338.7,469.4a5.3,5.3,0,1,0,0,7.5,5.25,5.25,0,0,0,0-7.5h0Z" transform="translate(-101.9 -266)"/><path class="cls-3" d="M338.7,469.4l0.5-.5a6.1,6.1,0,0,0-10.4,4.3,6.15,6.15,0,0,0,1.8,4.3,6.1,6.1,0,0,0,10.4-4.3,6.15,6.15,0,0,0-1.8-4.3l-0.5.5-0.5.5a4.54,4.54,0,0,1,1.3,3.2,4.38,4.38,0,0,1-1.3,3.2,4.84,4.84,0,0,1-6.6,0,4.54,4.54,0,0,1-1.3-3.2,4.38,4.38,0,0,1,1.3-3.2,4.84,4.84,0,0,1,6.6,0l0.5-.5h0Z" transform="translate(-101.9 -266)"/><path class="cls-3" d="M313.1,490.7l22.7-17.5a0.43,0.43,0,0,0-.5-0.7L312.6,490a0.45,0.45,0,0,0-.1.6c0.2,0.2.5,0.3,0.6,0.1" transform="translate(-101.9 -266)"/><path class="cls-3" d="M141,474.8V474h-2.5v-1.2a1.52,1.52,0,0,0-1.6-1.8,1.57,1.57,0,0,0-1.6,1.8v2H141Zm-5-.7v-1c0-.6.1-1.2,0.9-1.2s0.9,0.6.9,1.2v1H136Zm5-3.9v-0.8h-2.5v-0.9L141,467v-1l-2.6,1.6a1.51,1.51,0,0,0-1.5-1.4,1.57,1.57,0,0,0-1.6,1.8v2H141v0.2Zm-5-.8v-1c0-.6.1-1.2,0.9-1.2s0.9,0.6.9,1.2v1H136Zm5-4.1v-0.8h-5.7v0.8H141Zm-4.9-6.8a2.52,2.52,0,0,0-.9,2,2.91,2.91,0,0,0,3.1,3,3,3,0,0,0,3-2.9,3,3,0,0,0-1-2.2l-0.5.7a1.64,1.64,0,0,1,.8,1.5,2.07,2.07,0,0,1-2.2,2.1,2.16,2.16,0,0,1-2.3-2.1,1.62,1.62,0,0,1,.7-1.4l-0.7-.7h0Zm4.9-1v-3.8h-0.7v3.1h-1.8V454h-0.7v2.7h-1.7v-2.9h-0.7v3.7H141Z" transform="translate(-101.9 -266)"/><path class="cls-3" d="M307.8,544.5h0.8v-4.8h1.8V539H306v0.7h1.8v4.8h0Zm3.3,0h0.8V539h-0.8v5.5h0Zm2,0h0.8V540h0l1.9,4.6h0.5l1.9-4.6h0v4.6H319V539h-1.1l-1.7,4.2h0l-1.8-4.2h-1.1v5.5h-0.2Zm7.2,0H324v-0.7h-3V542h2.6v-0.7H321v-1.7h2.8V539h-3.6v5.5h0.1Z" transform="translate(-101.9 -266)"/><path class="cls-2" d="M253.9,496.2a1.57,1.57,0,0,0-1.6,1.6v21.6a1.57,1.57,0,0,0,1.6,1.6h61.4a1.57,1.57,0,0,0,1.6-1.6V497.8a1.57,1.57,0,0,0-1.6-1.6H253.9Z" transform="translate(-101.9 -266)"/><path class="cls-3" d="M261.7,494.6h1l2.1,5h-1.1l-0.5-1.1h-2.1l-0.5,1.1h-1.1l2.2-5h0Zm1.1,3-0.7-1.6-0.7,1.6h1.4Z" transform="translate(-101.9 -266)"/><path class="cls-3" d="M265.6,494.7h1.9a2.48,2.48,0,0,1,2.6,2.4h0a2.5,2.5,0,0,1-2.6,2.5h-1.9v-4.9h0Zm1.1,1v3h0.8a1.42,1.42,0,0,0,1.5-1.5h0a1.42,1.42,0,0,0-1.5-1.5h-0.8Z" transform="translate(-101.9 -266)"/><path class="cls-3" d="M270.7,498.9l0.7-.8a1.38,1.38,0,0,0,.9.5,0.67,0.67,0,0,0,.7-0.8v-3.2h1.1v3.2a1.71,1.71,0,0,1-1.8,1.8,1.65,1.65,0,0,1-1.6-.7h0Z" transform="translate(-101.9 -266)"/><path class="cls-3" d="M275.1,497.5v-2.8h1.1v2.8a1.1,1.1,0,1,0,2.2,0v-2.8h1.1v2.8a2,2,0,0,1-2.2,2.2,2,2,0,0,1-2.2-2.2h0Z" transform="translate(-101.9 -266)"/><path class="cls-3" d="M280.2,498.9l0.6-.8a2,2,0,0,0,1.5.6,0.6,0.6,0,0,0,.7-0.5h0c0-.3-0.2-0.4-1-0.6-1-.3-1.6-0.5-1.6-1.5h0a1.53,1.53,0,0,1,1.7-1.5,2.79,2.79,0,0,1,1.8.6l-0.6.8a2.35,2.35,0,0,0-1.3-.5,0.5,0.5,0,0,0-.6.4h0c0,0.3.2,0.4,1.1,0.7s1.6,0.6,1.6,1.5h0c0,1-.7,1.5-1.8,1.5a2.83,2.83,0,0,1-2.1-.7h0Z" transform="translate(-101.9 -266)"/><polygon class="cls-3" points="184.4 229.7 182.9 229.7 182.9 228.7 187 228.7 187 229.7 185.5 229.7 185.5 233.6 184.4 233.6 184.4 229.7"/><polygon class="cls-3" points="187.8 228.7 189 228.7 190.3 230.8 191.6 228.7 192.8 228.7 192.8 233.6 191.7 233.6 191.7 230.4 190.3 232.5 190.3 232.5 188.9 230.4 188.9 233.6 187.8 233.6 187.8 228.7"/><polygon class="cls-3" points="194 228.7 197.7 228.7 197.7 229.6 195.1 229.6 195.1 230.6 197.4 230.6 197.4 231.6 195.1 231.6 195.1 232.7 197.8 232.7 197.8 233.6 194 233.6 194 228.7"/><polygon class="cls-3" points="198.8 228.7 199.8 228.7 202.1 231.7 202.1 228.7 203.2 228.7 203.2 233.6 202.2 233.6 199.9 230.5 199.9 233.6 198.8 233.6 198.8 228.7"/><polygon class="cls-3" points="205.5 229.7 204 229.7 204 228.7 208.1 228.7 208.1 229.7 206.6 229.7 206.6 233.6 205.5 233.6 205.5 229.7"/><path class="cls-3" d="M253.9,503h0.5v0.6a1.38,1.38,0,0,1,2.4,0,1.43,1.43,0,0,1,1.3-.7,1.39,1.39,0,0,1,1.4,1.5v2.2H259v-2.1a1,1,0,0,0-.9-1.1,1,1,0,0,0-1,1.1v2.1h-0.5v-2.1a1,1,0,0,0-.9-1.1,1,1,0,0,0-1,1.1v2.1h-0.5V503h-0.3Z" transform="translate(-101.9 -266)"/><path class="cls-3" d="M260.5,504.9h0a1.9,1.9,0,1,1,3.8,0h0a1.9,1.9,0,0,1-1.9,1.9,2,2,0,0,1-1.9-1.9h0Zm3.2,0h0a1.37,1.37,0,0,0-1.4-1.4,1.29,1.29,0,0,0-1.3,1.4h0a1.35,1.35,0,0,0,1.3,1.4,1.36,1.36,0,0,0,1.4-1.4h0Z" transform="translate(-101.9 -266)"/><path class="cls-3" d="M265.3,503h0.5v1a1.64,1.64,0,0,1,1.5-1v0.6h0a1.46,1.46,0,0,0-1.4,1.7v1.5h-0.5V503h-0.1Z" transform="translate(-101.9 -266)"/><path class="cls-3" d="M268,504.8h0a1.71,1.71,0,1,1,3.4,0V505h-2.9a1.23,1.23,0,0,0,1.3,1.2,1.29,1.29,0,0,0,1.1-.5l0.3,0.3a2,2,0,0,1-1.5.7,1.74,1.74,0,0,1-1.7-1.9h0Zm2.9-.2a1.16,1.16,0,0,0-1.2-1.2,1.29,1.29,0,0,0-1.2,1.2h2.4Z" transform="translate(-101.9 -266)"/><path class="cls-3" d="M274.4,504.8h0a1.71,1.71,0,1,1,3.4,0V505h-2.9a1.23,1.23,0,0,0,1.3,1.2,1.29,1.29,0,0,0,1.1-.5l0.3,0.3a2,2,0,0,1-1.5.7,1.74,1.74,0,0,1-1.7-1.9h0Zm2.9-.2a1.16,1.16,0,0,0-1.2-1.2,1.29,1.29,0,0,0-1.2,1.2h2.4Z" transform="translate(-101.9 -266)"/><polygon class="cls-3" points="178.3 238.4 179.4 237 180 237 178.6 238.8 180.1 240.7 179.4 240.7 178.3 239.2 177.2 240.7 176.6 240.7 178 238.8 176.6 237 177.3 237 178.3 238.4"/><path class="cls-3" d="M282.9,503h0.5v0.7a1.68,1.68,0,0,1,1.4-.8,1.74,1.74,0,0,1,1.7,1.9h0a1.8,1.8,0,0,1-1.7,1.9,1.68,1.68,0,0,1-1.4-.8v1.8h-0.5V503h0Zm3.1,1.8h0a1.29,1.29,0,0,0-1.3-1.4,1.35,1.35,0,0,0-1.3,1.4h0a1.35,1.35,0,0,0,1.3,1.4,1.29,1.29,0,0,0,1.3-1.4h0Z" transform="translate(-101.9 -266)"/><path class="cls-3" d="M287.4,504.9h0a1.9,1.9,0,0,1,3.8,0h0a1.9,1.9,0,0,1-1.9,1.9,2,2,0,0,1-1.9-1.9h0Zm3.3,0h0a1.37,1.37,0,0,0-1.4-1.4,1.29,1.29,0,0,0-1.3,1.4h0a1.35,1.35,0,0,0,1.3,1.4,1.43,1.43,0,0,0,1.4-1.4h0Z" transform="translate(-101.9 -266)"/><path class="cls-3" d="M291.9,506.2l0.3-.4a2.11,2.11,0,0,0,1.3.5,0.7,0.7,0,0,0,.8-0.6h0c0-.4-0.4-0.5-0.9-0.6s-1.2-.4-1.2-1h0a1.06,1.06,0,0,1,1.2-1,3.26,3.26,0,0,1,1.3.4l-0.2.4a2,2,0,0,0-1.1-.3,0.6,0.6,0,0,0-.7.5h0a0.91,0.91,0,0,0,.9.6c0.6,0.2,1.2.4,1.2,1h0a1.16,1.16,0,0,1-1.3,1.1,3.82,3.82,0,0,1-1.6-.6h0Z" transform="translate(-101.9 -266)"/><path class="cls-3" d="M295.7,505.3V503h0.5v2.1a1,1,0,0,0,1,1.1,1.11,1.11,0,0,0,1.1-1.1V503h0.5v3.6h-0.5V506a1.27,1.27,0,0,1-1.2.7,1.31,1.31,0,0,1-1.4-1.4h0Z" transform="translate(-101.9 -266)"/><path class="cls-3" d="M300.2,503h0.5v1a1.64,1.64,0,0,1,1.5-1v0.6h0a1.46,1.46,0,0,0-1.4,1.7v1.5h-0.5V503h-0.1Z" transform="translate(-101.9 -266)"/><path class="cls-3" d="M302.9,504.8h0a1.71,1.71,0,1,1,3.4,0V505h-2.9a1.23,1.23,0,0,0,1.3,1.2,1.29,1.29,0,0,0,1.1-.5l0.3,0.3a2,2,0,0,1-1.5.7,1.74,1.74,0,0,1-1.7-1.9h0Zm2.9-.2a1.16,1.16,0,0,0-1.2-1.2,1.29,1.29,0,0,0-1.2,1.2h2.4Z" transform="translate(-101.9 -266)"/><path class="cls-3" d="M309.7,505.7v-2.2h-0.5V503h0.5v-1.1h0.5V503h1.2v0.5h-1.2v2.1a0.5,0.5,0,0,0,.6.6,0.9,0.9,0,0,0,.5-0.1v0.5a1.45,1.45,0,0,1-.7.2,1,1,0,0,1-.9-1.1h0Z" transform="translate(-101.9 -266)"/><path class="cls-3" d="M312.2,504.9h0a1.9,1.9,0,0,1,3.8,0h0a1.9,1.9,0,0,1-3.8,0h0Zm3.2,0h0a1.37,1.37,0,0,0-1.4-1.4,1.29,1.29,0,0,0-1.3,1.4h0a1.35,1.35,0,0,0,1.3,1.4,1.43,1.43,0,0,0,1.4-1.4h0Z" transform="translate(-101.9 -266)"/><path class="cls-3" d="M261.5,510.6H261v-0.5h0.5v-0.3a1.22,1.22,0,0,1,.3-0.9,1.14,1.14,0,0,1,.8-0.3,1.08,1.08,0,0,1,.6.1v0.5c-0.2,0-.3-0.1-0.5-0.1-0.4,0-.6.2-0.6,0.8v0.3h1.2v0.5h-1.1v3.2h-0.5v-3.3h-0.2Z" transform="translate(-101.9 -266)"/><path class="cls-3" d="M264,508.7h0.6v0.6H264v-0.6h0Zm0,1.4h0.5v3.6H264v-3.6h0Z" transform="translate(-101.9 -266)"/><polygon class="cls-3" points="165.4 245.5 166.5 244.1 167.1 244.1 165.7 245.8 167.1 247.7 166.5 247.7 165.4 246.2 164.3 247.7 163.6 247.7 165.1 245.9 163.7 244.1 164.3 244.1 165.4 245.5"/><path class="cls-3" d="M269.7,511.9h0a1.71,1.71,0,1,1,3.4,0v0.2h-2.9a1.23,1.23,0,0,0,1.3,1.2,1.29,1.29,0,0,0,1.1-.5l0.3,0.3a2,2,0,0,1-1.5.7,1.87,1.87,0,0,1-1.7-1.9h0Zm2.9-.2a1.16,1.16,0,0,0-1.2-1.2,1.29,1.29,0,0,0-1.2,1.2h2.4Z" transform="translate(-101.9 -266)"/><path class="cls-3" d="M274,511.9h0a1.8,1.8,0,0,1,1.7-1.9,1.68,1.68,0,0,1,1.4.8v-2.2h0.5v5.1h-0.5V513a1.68,1.68,0,0,1-1.4.8,1.8,1.8,0,0,1-1.7-1.9h0Zm3.1,0h0a1.35,1.35,0,0,0-1.3-1.4,1.29,1.29,0,0,0-1.3,1.4h0a1.29,1.29,0,0,0,1.3,1.4,1.35,1.35,0,0,0,1.3-1.4h0Z" transform="translate(-101.9 -266)"/><polygon class="cls-3" points="176.9 245.3 178.8 245.3 178.8 245.9 176.9 245.9 176.9 245.3"/><path class="cls-3" d="M281.9,508.7h0.6v0.6h-0.6v-0.6h0Zm0,1.4h0.5v3.6h-0.5v-3.6h0Z" transform="translate(-101.9 -266)"/><path class="cls-3" d="M283.8,510.1h0.5v0.6a1.27,1.27,0,0,1,1.2-.7,1.34,1.34,0,0,1,1.4,1.5v2.3h-0.5v-2.1a1,1,0,0,0-1-1.1,1.11,1.11,0,0,0-1.1,1.1v2.1h-0.5v-3.7h0Z" transform="translate(-101.9 -266)"/><path class="cls-3" d="M287.9,511.9h0a1.9,1.9,0,0,1,1.9-1.9,2.29,2.29,0,0,1,1.5.6l-0.4.4a1.52,1.52,0,0,0-1.1-.6,1.35,1.35,0,0,0-1.3,1.4h0a1.35,1.35,0,0,0,1.3,1.4,1.43,1.43,0,0,0,1.1-.5l0.3,0.3a2,2,0,0,1-1.5.7,1.73,1.73,0,0,1-1.8-1.8h0Z" transform="translate(-101.9 -266)"/><path class="cls-3" d="M292,511.9h0a1.9,1.9,0,1,1,3.8,0h0a1.9,1.9,0,1,1-3.8,0h0Zm3.2,0h0a1.37,1.37,0,0,0-1.4-1.4,1.29,1.29,0,0,0-1.3,1.4h0a1.35,1.35,0,0,0,1.3,1.4,1.31,1.31,0,0,0,1.4-1.4h0Z" transform="translate(-101.9 -266)"/><path class="cls-3" d="M296.8,510.1h0.5v0.6a1.38,1.38,0,0,1,2.4,0,1.43,1.43,0,0,1,1.3-.7,1.39,1.39,0,0,1,1.4,1.5v2.2h-0.5v-2.1a1,1,0,0,0-.9-1.1,1,1,0,0,0-1,1.1v2.1h-0.5v-2.1a1,1,0,0,0-.9-1.1,1.1,1.1,0,0,0-1,1.1v2.1h-0.5v-3.6h-0.3Z" transform="translate(-101.9 -266)"/><path class="cls-3" d="M303.4,511.9h0a1.71,1.71,0,1,1,3.4,0v0.2h-2.9a1.23,1.23,0,0,0,1.3,1.2,1.29,1.29,0,0,0,1.1-.5l0.3,0.3a2,2,0,0,1-1.5.7,1.8,1.8,0,0,1-1.7-1.9h0Zm2.8-.2a1.16,1.16,0,0,0-1.2-1.2,1.29,1.29,0,0,0-1.2,1.2h2.4Z" transform="translate(-101.9 -266)"/><path class="cls-3" d="M307.5,514.3a0.55,0.55,0,0,0,.5-0.6h-0.3V513h0.6v0.6a0.89,0.89,0,0,1-.8,1v-0.3h0Z" transform="translate(-101.9 -266)"/><polygon class="cls-3" points="164.7 249.6 165.3 249.6 165.3 254.8 164.7 254.8 164.7 249.6"/><path class="cls-3" d="M268.3,518.9h0a1.71,1.71,0,1,1,3.4,0v0.2h-2.9a1.23,1.23,0,0,0,1.3,1.2,1.29,1.29,0,0,0,1.1-.5l0.3,0.3a2,2,0,0,1-1.5.7,1.74,1.74,0,0,1-1.7-1.9h0Zm2.8-.2a1.16,1.16,0,0,0-1.2-1.2,1.29,1.29,0,0,0-1.2,1.2h2.4Z" transform="translate(-101.9 -266)"/><path class="cls-3" d="M272.4,520.3l0.3-.4a2.11,2.11,0,0,0,1.3.5,0.7,0.7,0,0,0,.8-0.6h0c0-.4-0.4-0.5-0.9-0.6s-1.2-.4-1.2-1h0a1.06,1.06,0,0,1,1.2-1,3.26,3.26,0,0,1,1.3.4l-0.2.4a2.1,2.1,0,0,0-1.1-.4,0.6,0.6,0,0,0-.7.5h0a1.06,1.06,0,0,0,.9.6c0.6,0.2,1.2.4,1.2,1h0a1.16,1.16,0,0,1-1.3,1.1,2.77,2.77,0,0,1-1.6-.5h0Z" transform="translate(-101.9 -266)"/><path class="cls-3" d="M276,520.3l0.3-.4a2.11,2.11,0,0,0,1.3.5,0.7,0.7,0,0,0,.8-0.6h0c0-.4-0.4-0.5-0.9-0.6s-1.2-.4-1.2-1h0a1.06,1.06,0,0,1,1.2-1,3.26,3.26,0,0,1,1.3.4l-0.2.4a2.1,2.1,0,0,0-1.1-.4,0.6,0.6,0,0,0-.7.5h0a1.06,1.06,0,0,0,.9.6c0.6,0.2,1.2.4,1.2,1h0a1.16,1.16,0,0,1-1.3,1.1,2.54,2.54,0,0,1-1.6-.5h0Z" transform="translate(-101.9 -266)"/><path class="cls-3" d="M281.8,518.9h0a1.71,1.71,0,1,1,3.4,0v0.2h-2.9a1.23,1.23,0,0,0,1.3,1.2,1.29,1.29,0,0,0,1.1-.5l0.3,0.3a2,2,0,0,1-1.5.7,1.74,1.74,0,0,1-1.7-1.9h0Zm2.9-.2a1.16,1.16,0,0,0-1.2-1.2,1.29,1.29,0,0,0-1.2,1.2h2.4Z" transform="translate(-101.9 -266)"/><path class="cls-3" d="M289.1,520a1.68,1.68,0,0,1-1.4.8,1.74,1.74,0,0,1-1.7-1.9h0a1.8,1.8,0,0,1,1.7-1.9,1.68,1.68,0,0,1,1.4.8v-0.7h0.5v4.8h-0.5V520h0Zm0.1-1.1h0a1.35,1.35,0,0,0-1.3-1.4,1.29,1.29,0,0,0-1.3,1.4h0a1.3,1.3,0,1,0,2.6,0h0Z" transform="translate(-101.9 -266)"/><path class="cls-3" d="M290.9,519.4v-2.3h0.5v2.1a1,1,0,0,0,1,1.1,1,1,0,0,0,1.1-1.1v-2.1H294v3.6h-0.5v-0.6a1.27,1.27,0,0,1-1.2.7,1.31,1.31,0,0,1-1.4-1.4h0Z" transform="translate(-101.9 -266)"/><path class="cls-3" d="M295.3,515.7h0.6v0.6h-0.6v-0.6h0Zm0.1,1.4h0.5v3.6h-0.5v-3.6h0Z" transform="translate(-101.9 -266)"/><path class="cls-3" d="M297.4,519.8v-2.2h-0.5v-0.5h0.5V516h0.5v1.1h1.2v0.5H298v2.1a0.5,0.5,0,0,0,.6.6,0.9,0.9,0,0,0,.5-0.1v0.5a1.48,1.48,0,0,1-.7.1,0.94,0.94,0,0,1-1-1h0Z" transform="translate(-101.9 -266)"/><path class="cls-3" d="M302.9,517.1h0.6l-1.5,3.8a1.21,1.21,0,0,1-1.2,1,2.35,2.35,0,0,1-.8-0.2l0.2-.4a1.08,1.08,0,0,0,.6.1,0.82,0.82,0,0,0,.7-0.7l-1.7-3.6h0.6l1.3,3,1.2-3h0Z" transform="translate(-101.9 -266)"/><path class="cls-2" d="M414.2,494.9a1.57,1.57,0,0,0-1.6,1.6v18.4a1.57,1.57,0,0,0,1.6,1.6h61.4a1.57,1.57,0,0,0,1.6-1.6V496.5a1.57,1.57,0,0,0-1.6-1.6H414.2Z" transform="translate(-101.9 -266)"/><path class="cls-3" d="M421.4,494.6h1l2.1,5h-1.1l-0.5-1.1h-2.1l-0.5,1.1h-1.1l2.2-5h0Zm1.1,3-0.7-1.6-0.7,1.6h1.4Z" transform="translate(-101.9 -266)"/><path class="cls-3" d="M425.3,494.7h1.9a2.48,2.48,0,0,1,2.6,2.4h0a2.5,2.5,0,0,1-2.6,2.5h-1.9v-4.9h0Zm1.1,1v3h0.8a1.42,1.42,0,0,0,1.5-1.5h0a1.42,1.42,0,0,0-1.5-1.5h-0.8Z" transform="translate(-101.9 -266)"/><path class="cls-3" d="M430.4,498.9l0.7-.8a1.38,1.38,0,0,0,.9.5,0.67,0.67,0,0,0,.7-0.8v-3.2h1.1v3.2a1.71,1.71,0,0,1-1.8,1.8,1.65,1.65,0,0,1-1.6-.7h0Z" transform="translate(-101.9 -266)"/><path class="cls-3" d="M434.8,497.5v-2.8h1.1v2.8a1.1,1.1,0,1,0,2.2,0v-2.8h1.1v2.8a2,2,0,0,1-2.2,2.2,2,2,0,0,1-2.2-2.2h0Z" transform="translate(-101.9 -266)"/><path class="cls-3" d="M439.9,498.9l0.6-.8a2,2,0,0,0,1.5.6,0.6,0.6,0,0,0,.7-0.5h0c0-.3-0.2-0.4-1-0.6-1-.3-1.6-0.5-1.6-1.5h0a1.53,1.53,0,0,1,1.7-1.5,2.79,2.79,0,0,1,1.8.6l-0.6.8a2.35,2.35,0,0,0-1.3-.5,0.5,0.5,0,0,0-.6.4h0c0,0.3.2,0.4,1.1,0.7s1.6,0.6,1.6,1.5h0c0,1-.7,1.5-1.8,1.5a2.83,2.83,0,0,1-2.1-.7h0Z" transform="translate(-101.9 -266)"/><polygon class="cls-3" points="344.1 229.7 342.6 229.7 342.6 228.7 346.7 228.7 346.7 229.7 345.2 229.7 345.2 233.6 344.1 233.6 344.1 229.7"/><polygon class="cls-3" points="347.5 228.7 348.7 228.7 350 230.8 351.3 228.7 352.5 228.7 352.5 233.6 351.4 233.6 351.4 230.4 350 232.5 350 232.5 348.6 230.4 348.6 233.6 347.5 233.6 347.5 228.7"/><polygon class="cls-3" points="353.7 228.7 357.4 228.7 357.4 229.6 354.8 229.6 354.8 230.6 357.1 230.6 357.1 231.6 354.8 231.6 354.8 232.7 357.5 232.7 357.5 233.6 353.7 233.6 353.7 228.7"/><polygon class="cls-3" points="358.5 228.7 359.5 228.7 361.8 231.7 361.8 228.7 362.9 228.7 362.9 233.6 361.9 233.6 359.6 230.5 359.6 233.6 358.5 233.6 358.5 228.7"/><polygon class="cls-3" points="365.3 229.7 363.8 229.7 363.8 228.7 367.8 228.7 367.8 229.7 366.3 229.7 366.3 233.6 365.3 233.6 365.3 229.7"/><polygon class="cls-3" points="314.4 235.5 315 235.5 315 240.7 314.4 240.7 314.4 235.5"/><path class="cls-3" d="M417.9,504.8h0a1.71,1.71,0,1,1,3.4,0V505h-2.9a1.23,1.23,0,0,0,1.3,1.2,1.29,1.29,0,0,0,1.1-.5l0.3,0.3a2,2,0,0,1-1.5.7,1.8,1.8,0,0,1-1.7-1.9h0Zm2.9-.2a1.16,1.16,0,0,0-1.2-1.2,1.29,1.29,0,0,0-1.2,1.2h2.4Z" transform="translate(-101.9 -266)"/><path class="cls-3" d="M422.1,506.2l0.3-.4a2.11,2.11,0,0,0,1.3.5,0.7,0.7,0,0,0,.8-0.6h0c0-.4-0.4-0.5-0.9-0.6s-1.2-.4-1.2-1h0a1.06,1.06,0,0,1,1.2-1,3.26,3.26,0,0,1,1.3.4l-0.2.4a2,2,0,0,0-1.1-.3,0.6,0.6,0,0,0-.7.5h0a0.91,0.91,0,0,0,.9.6c0.6,0.2,1.2.4,1.2,1h0a1.16,1.16,0,0,1-1.3,1.1,3.82,3.82,0,0,1-1.6-.6h0Z" transform="translate(-101.9 -266)"/><path class="cls-3" d="M425.6,506.2l0.3-.4a2.11,2.11,0,0,0,1.3.5,0.7,0.7,0,0,0,.8-0.6h0c0-.4-0.4-0.5-0.9-0.6s-1.2-.4-1.2-1h0a1.06,1.06,0,0,1,1.2-1,3.26,3.26,0,0,1,1.3.4l-0.2.4a2,2,0,0,0-1.1-.3,0.6,0.6,0,0,0-.7.5h0a0.91,0.91,0,0,0,.9.6c0.6,0.2,1.2.4,1.2,1h0a1.16,1.16,0,0,1-1.3,1.1,4.42,4.42,0,0,1-1.6-.6h0Z" transform="translate(-101.9 -266)"/><path class="cls-3" d="M431.5,504.8h0a1.71,1.71,0,1,1,3.4,0V505H432a1.23,1.23,0,0,0,1.3,1.2,1.29,1.29,0,0,0,1.1-.5l0.3,0.3a2,2,0,0,1-1.5.7,1.74,1.74,0,0,1-1.7-1.9h0Zm2.8-.2a1.16,1.16,0,0,0-1.2-1.2,1.29,1.29,0,0,0-1.2,1.2h2.4Z" transform="translate(-101.9 -266)"/><polygon class="cls-3" points="335.4 238.4 336.5 237 337.1 237 335.7 238.8 337.2 240.7 336.5 240.7 335.4 239.2 334.3 240.7 333.7 240.7 335.1 238.8 333.7 237 334.3 237 335.4 238.4"/><path class="cls-3" d="M440,503h0.5v0.7a1.68,1.68,0,0,1,1.4-.8,1.74,1.74,0,0,1,1.7,1.9h0a1.8,1.8,0,0,1-1.7,1.9,1.68,1.68,0,0,1-1.4-.8v1.8H440V503h0Zm3.1,1.8h0a1.29,1.29,0,0,0-1.3-1.4,1.35,1.35,0,0,0-1.3,1.4h0a1.35,1.35,0,0,0,1.3,1.4,1.29,1.29,0,0,0,1.3-1.4h0Z" transform="translate(-101.9 -266)"/><path class="cls-3" d="M444.5,504.9h0a1.9,1.9,0,1,1,3.8,0h0a1.9,1.9,0,0,1-1.9,1.9,2,2,0,0,1-1.9-1.9h0Zm3.2,0h0a1.37,1.37,0,0,0-1.4-1.4,1.29,1.29,0,0,0-1.3,1.4h0a1.35,1.35,0,0,0,1.3,1.4,1.36,1.36,0,0,0,1.4-1.4h0Z" transform="translate(-101.9 -266)"/><path class="cls-3" d="M449,506.2l0.3-.4a2.11,2.11,0,0,0,1.3.5,0.7,0.7,0,0,0,.8-0.6h0c0-.4-0.4-0.5-0.9-0.6s-1.2-.4-1.2-1h0a1.06,1.06,0,0,1,1.2-1,3.26,3.26,0,0,1,1.3.4l-0.2.4a2,2,0,0,0-1.1-.3,0.6,0.6,0,0,0-.7.5h0a0.91,0.91,0,0,0,.9.6c0.6,0.2,1.2.4,1.2,1h0a1.16,1.16,0,0,1-1.3,1.1,3.82,3.82,0,0,1-1.6-.6h0Z" transform="translate(-101.9 -266)"/><path class="cls-3" d="M452.8,505.3V503h0.5v2.1a1,1,0,0,0,1,1.1,1.11,1.11,0,0,0,1.1-1.1V503h0.5v3.6h-0.5V506a1.39,1.39,0,0,1-2.6-.7h0Z" transform="translate(-101.9 -266)"/><path class="cls-3" d="M457.3,503h0.5v1a1.64,1.64,0,0,1,1.5-1v0.6h0a1.46,1.46,0,0,0-1.4,1.7v1.5h-0.5V503h-0.1Z" transform="translate(-101.9 -266)"/><path class="cls-3" d="M460,504.8h0a1.71,1.71,0,1,1,3.4,0V505h-2.9a1.23,1.23,0,0,0,1.3,1.2,1.29,1.29,0,0,0,1.1-.5l0.3,0.3a2,2,0,0,1-1.5.7,1.74,1.74,0,0,1-1.7-1.9h0Zm2.9-.2a1.16,1.16,0,0,0-1.2-1.2,1.29,1.29,0,0,0-1.2,1.2h2.4Z" transform="translate(-101.9 -266)"/><path class="cls-3" d="M466.8,505.7v-2.2h-0.5V503h0.5v-1.1h0.5V503h1.2v0.5h-1.2v2.1a0.5,0.5,0,0,0,.6.6,0.9,0.9,0,0,0,.5-0.1v0.5a1.45,1.45,0,0,1-.7.2,1,1,0,0,1-.9-1.1h0Z" transform="translate(-101.9 -266)"/><path class="cls-3" d="M469.2,504.9h0a1.9,1.9,0,0,1,3.8,0h0a1.9,1.9,0,0,1-1.9,1.9,2,2,0,0,1-1.9-1.9h0Zm3.3,0h0a1.37,1.37,0,0,0-1.4-1.4,1.29,1.29,0,0,0-1.3,1.4h0a1.35,1.35,0,0,0,1.3,1.4,1.43,1.43,0,0,0,1.4-1.4h0Z" transform="translate(-101.9 -266)"/><path class="cls-3" d="M422.1,510.6h-0.5v-0.5h0.5v-0.3a1.22,1.22,0,0,1,.3-0.9,1.14,1.14,0,0,1,.8-0.3,1.08,1.08,0,0,1,.6.1v0.5c-0.2,0-.3-0.1-0.5-0.1-0.4,0-.6.2-0.6,0.8v0.3h1.2v0.5h-1.1v3.2h-0.5v-3.3h-0.2Z" transform="translate(-101.9 -266)"/><path class="cls-3" d="M424.6,508.7h0.6v0.6h-0.6v-0.6h0Zm0,1.4h0.5v3.6h-0.5v-3.6h0Z" transform="translate(-101.9 -266)"/><polygon class="cls-3" points="326 245.5 327.1 244.1 327.7 244.1 326.3 245.8 327.7 247.7 327.1 247.7 326 246.2 324.9 247.7 324.2 247.7 325.7 245.9 324.3 244.1 324.9 244.1 326 245.5"/><path class="cls-3" d="M430.3,511.9h0a1.71,1.71,0,1,1,3.4,0v0.2h-2.9a1.23,1.23,0,0,0,1.3,1.2,1.29,1.29,0,0,0,1.1-.5l0.3,0.3a2,2,0,0,1-1.5.7,1.87,1.87,0,0,1-1.7-1.9h0Zm2.9-.2a1.16,1.16,0,0,0-1.2-1.2,1.29,1.29,0,0,0-1.2,1.2h2.4Z" transform="translate(-101.9 -266)"/><path class="cls-3" d="M434.6,511.9h0a1.8,1.8,0,0,1,1.7-1.9,1.68,1.68,0,0,1,1.4.8v-2.2h0.5v5.1h-0.5V513a1.68,1.68,0,0,1-1.4.8,1.8,1.8,0,0,1-1.7-1.9h0Zm3.1,0h0a1.35,1.35,0,0,0-1.3-1.4,1.29,1.29,0,0,0-1.3,1.4h0a1.29,1.29,0,0,0,1.3,1.4,1.35,1.35,0,0,0,1.3-1.4h0Z" transform="translate(-101.9 -266)"/><polygon class="cls-3" points="337.5 245.3 339.4 245.3 339.4 245.9 337.5 245.9 337.5 245.3"/><path class="cls-3" d="M442.5,508.7h0.6v0.6h-0.6v-0.6h0Zm0,1.4H443v3.6h-0.5v-3.6h0Z" transform="translate(-101.9 -266)"/><path class="cls-3" d="M444.4,510.1h0.5v0.6a1.27,1.27,0,0,1,1.2-.7,1.34,1.34,0,0,1,1.4,1.5v2.3H447v-2.1a1,1,0,0,0-1-1.1,1.11,1.11,0,0,0-1.1,1.1v2.1h-0.5v-3.7h0Z" transform="translate(-101.9 -266)"/><path class="cls-3" d="M448.5,511.9h0a1.9,1.9,0,0,1,1.9-1.9,2.29,2.29,0,0,1,1.5.6l-0.4.4a1.52,1.52,0,0,0-1.1-.6,1.35,1.35,0,0,0-1.3,1.4h0a1.35,1.35,0,0,0,1.3,1.4,1.43,1.43,0,0,0,1.1-.5l0.3,0.3a2,2,0,0,1-1.5.7,1.73,1.73,0,0,1-1.8-1.8h0Z" transform="translate(-101.9 -266)"/><path class="cls-3" d="M452.6,511.9h0a1.9,1.9,0,0,1,3.8,0h0a1.9,1.9,0,0,1-3.8,0h0Zm3.2,0h0a1.37,1.37,0,0,0-1.4-1.4,1.29,1.29,0,0,0-1.3,1.4h0a1.35,1.35,0,0,0,1.3,1.4,1.31,1.31,0,0,0,1.4-1.4h0Z" transform="translate(-101.9 -266)"/><path class="cls-3" d="M457.4,510.1h0.5v0.6a1.38,1.38,0,0,1,2.4,0,1.43,1.43,0,0,1,1.3-.7,1.39,1.39,0,0,1,1.4,1.5v2.2h-0.5v-2.1a1,1,0,0,0-.9-1.1,1,1,0,0,0-1,1.1v2.1h-0.5v-2.1a1,1,0,0,0-.9-1.1,1,1,0,0,0-1,1.1v2.1h-0.5v-3.6h-0.3Z" transform="translate(-101.9 -266)"/><path class="cls-3" d="M464,511.9h0a1.71,1.71,0,1,1,3.4,0v0.2h-2.9a1.23,1.23,0,0,0,1.3,1.2,1.29,1.29,0,0,0,1.1-.5l0.3,0.3a2,2,0,0,1-1.5.7,1.8,1.8,0,0,1-1.7-1.9h0Zm2.8-.2a1.16,1.16,0,0,0-1.2-1.2,1.29,1.29,0,0,0-1.2,1.2h2.4Z" transform="translate(-101.9 -266)"/><path class="cls-3" d="M371.7,493.7a1.17,1.17,0,0,1,.9-1.1,30.67,30.67,0,0,0,4.2-.7,1,1,0,1,1,.5,1.9,23.38,23.38,0,0,1-4.5.7h-0.1a0.85,0.85,0,0,1-1-.8h0Z" transform="translate(-101.9 -266)"/><path class="cls-5" d="M367.4,494.6a23.63,23.63,0,0,1-4.5-.8,1,1,0,0,1,.5-1.9,20.48,20.48,0,0,0,4.2.7,1,1,0,0,1,.9,1.1,1.09,1.09,0,0,1-1.1.9h0Z" transform="translate(-101.9 -266)"/><path class="cls-5" d="M381,491.7a1,1,0,0,1,.5-1.3,34.92,34.92,0,0,0,3.9-1.9,1,1,0,1,1,1,1.8,38.62,38.62,0,0,1-4.1,2,0.6,0.6,0,0,1-.4.1,1.5,1.5,0,0,1-.9-0.7h0Z" transform="translate(-101.9 -266)"/><path class="cls-3" d="M357.8,492.1c-1.4-.6-2.7-1.2-4.1-1.9a0.92,0.92,0,0,1-.4-1.3,1,1,0,0,1,1.4-.4c1.3,0.7,2.6,1.3,3.9,1.9a0.92,0.92,0,0,1,.5,1.3,1,1,0,0,1-.9.6,1.47,1.47,0,0,0-.4-0.2h0Z" transform="translate(-101.9 -266)"/><path class="cls-5" d="M349.2,487.5c-1.2-.8-2.5-1.7-3.7-2.6a1,1,0,0,1,1.2-1.6c1.2,0.9,2.4,1.7,3.6,2.5a1,1,0,0,1,.3,1.4,0.91,0.91,0,0,1-.8.4,1.27,1.27,0,0,1-.6-0.1h0Z" transform="translate(-101.9 -266)"/><path class="cls-3" d="M389.5,487.2a1.06,1.06,0,0,1,.2-1.4c1.1-.8,2.3-1.7,3.5-2.6a1,1,0,0,1,1.3,1.5,42.2,42.2,0,0,1-3.6,2.7,1.42,1.42,0,0,1-.6.2,1.23,1.23,0,0,1-.8-0.4h0Z" transform="translate(-101.9 -266)"/><path class="cls-3" d="M146,383.5V534a0.35,0.35,0,0,0,.4.4H450.3a0.4,0.4,0,0,0,0-.8H146.7V383.5a0.43,0.43,0,0,0-.4-0.4,0.45,0.45,0,0,0-.3.4h0Z" transform="translate(-101.9 -266)"/><path class="cls-3" d="M427.6,490.1l-22.7-17.5a0.47,0.47,0,0,0-.6.1c-0.2.2-.1,0.4,0.1,0.6l22.7,17.5a0.47,0.47,0,0,0,.6-0.1,0.45,0.45,0,0,0-.1-0.6" transform="translate(-101.9 -266)"/><path class="cls-3" d="M132.5,298.7l0.9-1a5.66,5.66,0,0,0,4.2,1.7c1.6,0,2.7-.9,2.7-2.1h0c0-1.1-.6-1.8-3.2-2.3-2.8-.6-4.1-1.5-4.1-3.5h0c0-1.9,1.7-3.3,4-3.3a6.26,6.26,0,0,1,4.3,1.5l-0.8,1.1a5.44,5.44,0,0,0-3.5-1.3c-1.6,0-2.6.9-2.6,2h0c0,1.2.6,1.8,3.3,2.4s4,1.6,4,3.5h0c0,2.1-1.7,3.5-4.2,3.5a8.2,8.2,0,0,1-5-2.2h0Z" transform="translate(-101.9 -266)"/><path class="cls-3" d="M144.2,288h1.5v1.5h-1.5V288h0Zm0.1,3.5h1.3v9h-1.3v-9h0Z" transform="translate(-101.9 -266)"/><path class="cls-3" d="M148.8,291.5h1.3V293a3.28,3.28,0,0,1,2.9-1.7,3.07,3.07,0,0,1,2.9,1.8,3.54,3.54,0,0,1,3.2-1.8c2.1,0,3.3,1.4,3.3,3.6v5.6h-1.3v-5.3c0-1.7-.9-2.7-2.3-2.7a2.51,2.51,0,0,0-2.5,2.8v5.2H155v-5.3c0-1.7-.9-2.7-2.3-2.7a2.62,2.62,0,0,0-2.5,2.8v5.1h-1.3v-8.9h-0.1Z" transform="translate(-101.9 -266)"/><path class="cls-3" d="M165.4,291.5h1.3v1.8a4,4,0,0,1,3.5-2,4.37,4.37,0,0,1,4.3,4.7h0a4.43,4.43,0,0,1-4.3,4.7,4.13,4.13,0,0,1-3.5-1.9v4.5h-1.3V291.5h0Zm7.7,4.5h0a3.24,3.24,0,0,0-3.2-3.5,3.38,3.38,0,0,0-3.3,3.5h0a3.38,3.38,0,0,0,3.3,3.5,3.19,3.19,0,0,0,3.2-3.5h0Z" transform="translate(-101.9 -266)"/><polygon class="cls-3" points="75.2 21.7 76.5 21.7 76.5 34.5 75.2 34.5 75.2 21.7"/><path class="cls-3" d="M181,296h0a4.43,4.43,0,0,1,4.3-4.7c2.7,0,4.2,2.1,4.2,4.8v0.4h-7.1a3.19,3.19,0,0,0,3.2,3.1,3.57,3.57,0,0,0,2.8-1.3l0.8,0.8a4.67,4.67,0,0,1-3.7,1.7A4.62,4.62,0,0,1,181,296h0Zm7.1-.5a2.91,2.91,0,1,0-5.8,0h5.8Z" transform="translate(-101.9 -266)"/><polygon class="cls-3" points="95.5 22.3 96.9 22.3 96.9 34.5 95.5 34.5 95.5 22.3"/><polygon class="cls-3" points="100.4 21.7 101.7 21.7 101.7 34.5 100.4 34.5 100.4 21.7"/><polygon class="cls-3" points="105 21.7 106.3 21.7 106.3 34.5 105 34.5 105 21.7"/><path class="cls-3" d="M211.2,297.1v-5.6h1.3v5.3c0,1.7.9,2.7,2.5,2.7a2.65,2.65,0,0,0,2.7-2.8v-5.2H219v9h-1.3v-1.6a3.37,3.37,0,0,1-3.1,1.8,3.31,3.31,0,0,1-3.4-3.6h0Z" transform="translate(-101.9 -266)"/><path class="cls-3" d="M221.3,299.3l0.7-1a5.75,5.75,0,0,0,3.1,1.2,1.66,1.66,0,0,0,1.9-1.4h0c0-.9-1.1-1.3-2.2-1.6-1.4-.4-3-0.9-3-2.5h0c0-1.6,1.3-2.6,3.1-2.6a6,6,0,0,1,3.2,1l-0.6,1a5.43,5.43,0,0,0-2.7-.9,1.46,1.46,0,0,0-1.7,1.3h0c0,0.9,1.1,1.2,2.3,1.6,1.4,0.4,2.9,1,2.9,2.6h0c0,1.7-1.4,2.7-3.2,2.7a5.94,5.94,0,0,1-3.8-1.4h0Z" transform="translate(-101.9 -266)"/><path class="cls-3" d="M231.2,298.1v-5.4H230v-1.2h1.3v-2.7h1.3v2.7h2.9v1.2h-2.9V298a1.32,1.32,0,0,0,1.5,1.5,3.08,3.08,0,0,0,1.3-.3v1.2a4.19,4.19,0,0,1-1.6.4c-1.5-.2-2.6-0.9-2.6-2.7h0Z" transform="translate(-101.9 -266)"/><path class="cls-3" d="M237.8,291.5h1.3v2.4a3.88,3.88,0,0,1,3.7-2.5v1.4h-0.1c-2,0-3.6,1.4-3.6,4.1v3.6h-1.3v-9h0Z" transform="translate(-101.9 -266)"/><path class="cls-3" d="M243.6,297.9h0c0-1.9,1.6-2.9,3.9-2.9a10.43,10.43,0,0,1,2.8.4V295c0-1.6-1-2.5-2.7-2.5a5.68,5.68,0,0,0-2.7.7l-0.4-1.1a7,7,0,0,1,3.3-.8,3.8,3.8,0,0,1,2.9,1,3.57,3.57,0,0,1,.9,2.6v5.5h-1.3V299a4.05,4.05,0,0,1-3.3,1.6c-1.7.1-3.4-.9-3.4-2.7h0Zm6.6-.7v-0.9a9.63,9.63,0,0,0-2.7-.4c-1.7,0-2.6.7-2.6,1.9h0c0,1.1,1,1.8,2.3,1.8,1.7,0,3-1,3-2.4h0Z" transform="translate(-101.9 -266)"/><path class="cls-3" d="M254.8,298.1v-5.4h-1.3v-1.2h1.3v-2.7h1.3v2.7H259v1.2h-2.9V298a1.32,1.32,0,0,0,1.5,1.5,3.08,3.08,0,0,0,1.3-.3v1.2a4.19,4.19,0,0,1-1.6.4,2.53,2.53,0,0,1-2.5-2.7h0Z" transform="translate(-101.9 -266)"/><path class="cls-3" d="M261.5,288H263v1.5h-1.5V288h0Zm0,3.5h1.3v9h-1.3v-9h0Z" transform="translate(-101.9 -266)"/><path class="cls-3" d="M265.4,296h0a4.7,4.7,0,0,1,9.4,0h0a4.69,4.69,0,0,1-4.7,4.7,4.63,4.63,0,0,1-4.7-4.7h0Zm8.1,0h0a3.4,3.4,0,0,0-3.3-3.6,3.31,3.31,0,0,0-3.3,3.5h0a3.38,3.38,0,0,0,3.3,3.5,3.23,3.23,0,0,0,3.3-3.4h0Z" transform="translate(-101.9 -266)"/><path class="cls-3" d="M277.3,291.5h1.3v1.6a3.37,3.37,0,0,1,3.1-1.8,3.33,3.33,0,0,1,3.5,3.6v5.6h-1.3v-5.3c0-1.7-.9-2.7-2.5-2.7a2.6,2.6,0,0,0-2.7,2.8v5.2h-1.3v-9h-0.1Z" transform="translate(-101.9 -266)"/><path class="cls-3" d="M292.7,296h0a4.7,4.7,0,0,1,9.4,0h0a4.69,4.69,0,0,1-4.7,4.7,4.63,4.63,0,0,1-4.7-4.7h0Zm8,0h0a3.4,3.4,0,0,0-3.3-3.6,3.31,3.31,0,0,0-3.3,3.5h0a3.38,3.38,0,0,0,3.3,3.5,3.18,3.18,0,0,0,3.3-3.4h0Z" transform="translate(-101.9 -266)"/><path class="cls-3" d="M305,292.7h-1.2v-1.2H305v-0.8a3.2,3.2,0,0,1,.8-2.3,2.49,2.49,0,0,1,1.9-.7,6.8,6.8,0,0,1,1.5.2v1.2a6.88,6.88,0,0,0-1.3-.2c-1,0-1.6.6-1.6,1.9v0.7h2.9v1.2h-2.8v7.8H305v-7.8h0Z" transform="translate(-101.9 -266)"/><path class="cls-3" d="M316.4,288.3h5.2a5.26,5.26,0,0,1,3.5,1.2,3.24,3.24,0,0,1,.9,2.4h0c0,2-1.4,3.2-3.3,3.6l3.8,5h-1.7l-3.5-4.7h-3.5v4.7h-1.4V288.3h0Zm5.1,6.2c1.8,0,3.1-.9,3.1-2.5h0c0-1.5-1.2-2.4-3.1-2.4h-3.8v5h3.8v-0.1Z" transform="translate(-101.9 -266)"/><path class="cls-3" d="M328.8,288h1.5v1.5h-1.5V288h0Zm0.1,3.5h1.3v9h-1.3v-9h0Z" transform="translate(-101.9 -266)"/><path class="cls-3" d="M332.6,299.3l0.7-1a5.75,5.75,0,0,0,3.1,1.2,1.66,1.66,0,0,0,1.9-1.4h0c0-.9-1.1-1.3-2.2-1.6-1.4-.4-3-0.9-3-2.5h0c0-1.6,1.3-2.6,3.1-2.6a6,6,0,0,1,3.2,1l-0.6,1a5.43,5.43,0,0,0-2.7-.9,1.46,1.46,0,0,0-1.7,1.3h0c0,0.9,1.1,1.2,2.3,1.6,1.4,0.4,2.9,1,2.9,2.6h0c0,1.7-1.4,2.7-3.2,2.7a5.75,5.75,0,0,1-3.8-1.4h0Z" transform="translate(-101.9 -266)"/><polygon class="cls-3" points="240.1 21.7 241.5 21.7 241.5 30.5 246.3 25.5 248 25.5 244.2 29.3 248.1 34.5 246.5 34.5 243.3 30.3 241.5 32.1 241.5 34.5 240.1 34.5 240.1 21.7"/><path class="cls-3" d="M361.9,288.2h1.3l5.6,12.3h-1.5l-1.4-3.2h-6.6l-1.4,3.2h-1.4l5.4-12.3h0Zm3.4,7.8-2.8-6.2-2.8,6.2h5.6Z" transform="translate(-101.9 -266)"/><path class="cls-3" d="M370.2,299.3l0.7-1a5.75,5.75,0,0,0,3.1,1.2,1.66,1.66,0,0,0,1.9-1.4h0c0-.9-1.1-1.3-2.2-1.6-1.4-.4-3-0.9-3-2.5h0c0-1.6,1.3-2.6,3.1-2.6a6,6,0,0,1,3.2,1l-0.6,1a5.43,5.43,0,0,0-2.7-.9,1.46,1.46,0,0,0-1.7,1.3h0c0,0.9,1.1,1.2,2.3,1.6,1.4,0.4,2.9,1,2.9,2.6h0c0,1.7-1.4,2.7-3.2,2.7a5.94,5.94,0,0,1-3.8-1.4h0Z" transform="translate(-101.9 -266)"/><path class="cls-3" d="M378.9,299.3l0.7-1a5.75,5.75,0,0,0,3.1,1.2,1.66,1.66,0,0,0,1.9-1.4h0c0-.9-1.1-1.3-2.2-1.6-1.4-.4-3-0.9-3-2.5h0c0-1.6,1.3-2.6,3.1-2.6a6,6,0,0,1,3.2,1l-0.6,1a5.43,5.43,0,0,0-2.7-.9,1.46,1.46,0,0,0-1.7,1.3h0c0,0.9,1.1,1.2,2.3,1.6,1.4,0.4,2.9,1,2.9,2.6h0c0,1.7-1.4,2.7-3.2,2.7a5.75,5.75,0,0,1-3.8-1.4h0Z" transform="translate(-101.9 -266)"/><path class="cls-3" d="M388.4,288h1.5v1.5h-1.5V288h0Zm0.1,3.5h1.3v9h-1.3v-9h0Z" transform="translate(-101.9 -266)"/><path class="cls-3" d="M392.2,299.3l0.7-1a5.75,5.75,0,0,0,3.1,1.2,1.66,1.66,0,0,0,1.9-1.4h0c0-.9-1.1-1.3-2.2-1.6-1.4-.4-3-0.9-3-2.5h0c0-1.6,1.3-2.6,3.1-2.6a6,6,0,0,1,3.2,1l-0.6,1a5.43,5.43,0,0,0-2.7-.9,1.46,1.46,0,0,0-1.7,1.3h0c0,0.9,1.1,1.2,2.3,1.6,1.4,0.4,2.9,1,2.9,2.6h0c0,1.7-1.4,2.7-3.2,2.7a5.75,5.75,0,0,1-3.8-1.4h0Z" transform="translate(-101.9 -266)"/><path class="cls-3" d="M402.1,298.1v-5.4h-1.3v-1.2h1.3v-2.7h1.3v2.7h2.9v1.2h-2.9V298a1.32,1.32,0,0,0,1.5,1.5,3.08,3.08,0,0,0,1.3-.3v1.2a4.19,4.19,0,0,1-1.6.4,2.53,2.53,0,0,1-2.5-2.7h0Z" transform="translate(-101.9 -266)"/><path class="cls-3" d="M407.6,291.2h0a3,3,0,1,1,6-.1h0a3,3,0,0,1-3,3.1,3.08,3.08,0,0,1-3-3h0Zm5.8,0h0a2.7,2.7,0,0,0-5.4,0h0a2.69,2.69,0,0,0,2.7,2.7,2.75,2.75,0,0,0,2.7-2.7h0Zm-3.9-1.7h1.4a1,1,0,0,1,1.2,1,0.88,0.88,0,0,1-.7.9l0.8,1.2h-0.7l-0.7-1.1h-0.6v1.1h-0.6v-3.1h-0.1Zm1.3,1.6a0.51,0.51,0,1,0,0-1H410v1h0.8Z" transform="translate(-101.9 -266)"/></svg>