<?xml version="1.0" encoding="utf-8"?>
<!-- Generator: Adobe Illustrator 19.0.0, SVG Export Plug-In . SVG Version: 6.00 Build 0)  -->
<svg version="1.1" id="Layer_1" xmlns="http://www.w3.org/2000/svg" xmlns:xlink="http://www.w3.org/1999/xlink" x="0px" y="0px"
	 viewBox="-79.7 437.5 256.3 317.1" style="enable-background:new -79.7 437.5 256.3 317.1;" xml:space="preserve">
<style type="text/css">
	.st0{fill:#333E48;}
	.st1{fill:#58832F;}
	.st2{fill:#969300;}
	.st3{fill:#646464;}
	.st4{fill:#152557;}
	.st5{fill:#001E61;}
	.st6{fill:#4A7DBB;}
	.st7{fill:#FFFFFF;}
</style>
<g>
	<path class="st0" d="M-62.5,717.4v-9.3h2v7.1h3.3v-6.3h2v6.3h3.4V708h2v9.4H-62.5z"/>
	<path class="st0" d="M-49.5,694l-1.4,1.5c0.7,1.1,1.2,2.4,1.2,3.8c0,3.9-2.9,6.6-6.5,6.6l0,0c-3.5,0-6.5-2.7-6.5-6.6
		s2.9-6.6,6.5-6.6l0,0c1.4,0,2.8,0.5,3.9,1.3l1.2-1.4L-49.5,694z M-52.3,697.1l-1.9,2.2l-1.6-1.4l2-2.2c-0.7-0.4-1.5-0.6-2.4-0.6
		l0,0c-2.4,0-4.5,1.8-4.5,4.3s2,4.2,4.4,4.2l0,0c2.4,0,4.5-1.8,4.5-4.3C-51.8,698.5-52,697.7-52.3,697.1z"/>
	<path class="st0" d="M-62.5,690v-9.4h2v7.2h3.4v-6.4h2v6.4h5.1v2.2H-62.5z"/>
	<path class="st0" d="M-62.5,672.8v-9.4h2v7.2h3.4v-6.4h2v6.4h5.1v2.2L-62.5,672.8L-62.5,672.8z"/>
	<path class="st0" d="M-59.4,661.3v-2.2h2.1c-1.4-0.6-2.4-1.7-2.3-3.4h2.3v0.1c0,1.9,1.2,3.2,3.8,3.2h3.6v2.2L-59.4,661.3
		L-59.4,661.3z"/>
</g>
<g>
	<path class="st0" d="M-52.7,654.9L-52.7,654.9c-2.1,0-3.1-1.6-3.1-3.9c0-1.1,0.2-1.8,0.4-2.6h-0.2c-1.4,0-2.1,0.8-2.1,2.4
		c0,1.1,0.2,1.9,0.6,2.7l-1.7,0.6c-0.5-1-0.8-2.1-0.8-3.6c0-1.4,0.4-2.5,1.1-3.2c0.7-0.7,1.7-1,2.9-1h5.6v2.1h-1.2
		c0.8,0.6,1.4,1.6,1.4,3.1C-49.7,653.3-50.7,654.9-52.7,654.9z M-53.3,648.4H-54c-0.2,0.6-0.4,1.3-0.4,2.2c0,1.4,0.6,2.2,1.6,2.2
		l0,0c0.9,0,1.4-0.8,1.4-1.9C-51.3,649.5-52.1,648.4-53.3,648.4z"/>
	<path class="st0" d="M-59.4,643.7v-2.2h1.4c-0.8-0.6-1.6-1.4-1.6-2.9c0-1.4,0.7-2.3,1.7-2.8c-1-0.8-1.7-1.8-1.7-3.2
		c0-2.1,1.3-3.3,3.6-3.3h6.1v2.2h-5.4c-1.5,0-2.3,0.7-2.3,1.9c0,1.2,0.8,2,2.4,2h5.4v2.2h-5.4c-1.5,0-2.3,0.7-2.3,1.9
		c0,1.2,0.9,2,2.4,2h5.4v2.2L-59.4,643.7L-59.4,643.7z"/>
</g>
<g>
	<path class="st0" d="M-54.6,627.2L-54.6,627.2c-2.8,0-5-1.9-5-4.6c0-3,2.4-4.6,5.1-4.6c0.2,0,0.4,0,0.6,0v7
		c1.5-0.2,2.4-1.3,2.4-2.7c0-1.1-0.4-1.8-1.1-2.6l1.1-1.3c1.1,0.9,1.8,2.1,1.8,3.9C-49.7,625-51.7,627.2-54.6,627.2z M-55.3,620.1
		c-1.4,0.1-2.5,1-2.5,2.4c0,1.3,1,2.3,2.5,2.5V620.1z"/>
	<path class="st0" d="M-59.4,617v-2.2l6.5-1.9l-6.6-2.1v-1.9l6.6-2.1l-6.5-1.9v-2.3l9.6,3.1v2l-6.5,2.1l6.5,2.1v1.9L-59.4,617z"/>
</g>
<g>
	<path class="st0" d="M-54.6,601.7L-54.6,601.7c-2.8,0-5-2.2-5-5.1s2.2-5.1,4.9-5.1l0,0c2.7,0,5,2.2,5,5.1S-51.9,601.7-54.6,601.7z
		 M-54.6,593.7L-54.6,593.7c-1.7,0-3.1,1.2-3.1,2.9c0,1.7,1.4,2.9,3,2.9l0,0c1.7,0,3-1.2,3-2.9C-51.6,594.8-53,593.7-54.6,593.7z"/>
	<path class="st0" d="M-59.4,589.3v-2.2h2.1c-1.4-0.6-2.4-1.7-2.3-3.4h2.3v0.1c0,1.9,1.2,3.2,3.8,3.2h3.6v2.2L-59.4,589.3
		L-59.4,589.3z"/>
	<path class="st0" d="M-63.1,581.9v-2.2h7.8l-4.2-3.9v-2.6l3.9,3.8l5.6-3.9v2.6l-4.1,2.8l1.4,1.4h2.7v2.2h-13.1V581.9z"/>
</g>
<polyline class="st1" points="-2.7,667.8 36.8,654.9 41.4,699.8 -2.7,667.8 "/>
<polyline class="st2" points="140.8,667.8 -2.7,667.8 -2.7,727.6 140.8,727.6 140.8,667.8 "/>
<g>
	<g>
		<defs>
			<polyline id="SVGID_1_" points="140.8,727.6 -2.7,727.6 -2.7,705.5 140.8,705.5 140.8,727.6 			"/>
		</defs>
		<clipPath id="SVGID_2_">
			<use xlink:href="#SVGID_1_"  style="overflow:visible;"/>
		</clipPath>
	</g>
</g>
<polyline class="st0" points="-2.6,599.3 36.9,586.4 41.5,640.3 -2.6,599.3 "/>
<polyline class="st3" points="140.8,661.8 -2.6,661.8 -2.6,599.7 140.8,599.7 140.8,661.8 "/>
<g>
	<g>
		<defs>
			<polyline id="SVGID_3_" points="140.8,661.8 37.5,661.8 15.6,661.8 -2.6,661.8 -2.6,639.4 140.8,639.4 140.8,661.8 			"/>
		</defs>
		<clipPath id="SVGID_4_">
			<use xlink:href="#SVGID_3_"  style="overflow:visible;"/>
		</clipPath>
	</g>
</g>
<polyline class="st4" points="-2.7,533.8 36.8,520.9 41.4,565.8 -2.7,533.8 "/>
<polyline class="st5" points="140.8,533.8 -2.7,533.8 -2.7,593.6 140.8,593.6 140.8,533.8 "/>
<g>
	<g>
		<defs>
			<polyline id="SVGID_5_" points="140.8,593.6 37.5,593.6 14.9,593.6 -2.7,593.6 -2.7,567.2 140.8,567.2 140.8,593.6 			"/>
		</defs>
		<clipPath id="SVGID_6_">
			<use xlink:href="#SVGID_5_"  style="overflow:visible;"/>
		</clipPath>
	</g>
</g>
<polyline class="st6" points="140.8,526.8 -2.5,526.8 -2.5,467 140.8,467 140.8,526.8 "/>
<g>
	<g>
		<defs>
			<polyline id="SVGID_7_" points="140.8,526.8 37.4,526.8 18.7,526.8 -2.5,526.8 -2.5,505.4 140.8,505.4 140.8,526.8 			"/>
		</defs>
		<clipPath id="SVGID_8_">
			<use xlink:href="#SVGID_7_"  style="overflow:visible;"/>
		</clipPath>
	</g>
</g>
<polygon class="st6" points="23.6,489.4 21.7,489.4 21.7,539.7 16,539.7 22.6,551.1 29.2,539.7 23.6,539.7 "/>
<polygon class="st3" points="23.6,622.1 21.7,622.1 21.7,675 16,675 22.6,686.5 29.2,675 23.6,675 "/>
<polygon class="st5" points="23.6,552.5 21.7,552.5 21.7,604.6 16,604.6 22.6,616.1 29.2,604.6 23.6,604.6 "/>
<path class="st7" d="M10,501.4h2.6l1.2-3h5.7l1.2,3h2.7l-5.7-13.3h-2L10,501.4L10,501.4z M14.7,496.3l2.1-5.4l2,5.4H14.7L14.7,496.3
	z M25,501.4h2.2v-14.2H25V501.4L25,501.4z M29.8,501.4H32v-14.2h-2.2V501.4L29.8,501.4z M34.2,496.9c0,2.8,2.2,4.7,4.9,4.7
	s4.9-1.9,4.9-4.7c0-2.8-2.2-4.7-4.9-4.7S34.2,494,34.2,496.9L34.2,496.9z M36.4,496.9c0-1.4,1-2.7,2.6-2.7s2.6,1.3,2.6,2.7
	c0,1.4-1,2.7-2.6,2.7S36.4,498.3,36.4,496.9L36.4,496.9z M53.7,493.5c-0.9-1-2.1-1.4-3.3-1.4c-2.7,0-4.9,1.9-4.9,4.7
	c0,2.8,2.2,4.7,4.9,4.7c0.8,0,2.3-0.3,3.2-1.3l-1.5-1.6c-0.4,0.5-1,0.8-1.7,0.8c-1.6,0-2.6-1.3-2.6-2.7c0-1.4,1-2.7,2.6-2.7
	c0.6,0,1.2,0.4,1.7,0.9L53.7,493.5L53.7,493.5z M60.9,501.4h2v-5.2c0-1.3,0-4-3.8-4c-1.4,0-2.8,0.4-3.8,1.4l1.2,1.2
	c0.6-0.6,1.5-0.9,2.4-0.9c1.2,0,2.1,0.6,2.1,1.7v0.2h-0.6c-2.2,0-5.7,0.2-5.7,3.1c0,1.8,1.6,2.7,3.3,2.7c1.2,0,2.2-0.4,2.9-1.5H61
	L60.9,501.4L60.9,501.4z M60.8,497.8c0,1.3-0.7,2.1-2.3,2.1c-0.7,0-1.6-0.4-1.6-1.2c0-1.3,2.1-1.4,3.4-1.4h0.5L60.8,497.8
	L60.8,497.8z M66.2,494.3v4.1c0,2.1,0.6,3.2,2.9,3.2c0.5,0,1.3-0.1,1.8-0.3v-1.9c-0.3,0.2-0.8,0.3-1.2,0.3c-1,0-1.3-0.6-1.3-1.5
	v-3.9h2.5v-1.9h-2.5v-2.6h-2.2v2.6h-1.9v1.9L66.2,494.3L66.2,494.3z M72.7,501.4h2.2v-9h-2.2V501.4L72.7,501.4z M72.4,489.3
	c0,0.7,0.6,1.3,1.4,1.3c0.8,0,1.5-0.6,1.5-1.3c0-0.8-0.6-1.3-1.5-1.3C73,488,72.4,488.6,72.4,489.3L72.4,489.3z M77,496.9
	c0,2.8,2.2,4.7,4.9,4.7s4.9-1.9,4.9-4.7c0-2.8-2.2-4.7-4.9-4.7C79.2,492.2,77,494,77,496.9L77,496.9z M79.2,496.9
	c0-1.4,1-2.7,2.6-2.7s2.6,1.3,2.6,2.7c0,1.4-1,2.7-2.6,2.7S79.2,498.3,79.2,496.9L79.2,496.9z M88.9,501.4h2.2v-4.9
	c0-1.2,0.6-2.3,2.1-2.3c1.6,0,1.6,1.6,1.6,2.6v4.6H97v-5.7c0-1.8-0.9-3.5-3.3-3.5c-1.5,0-2.3,0.8-2.8,1.7l0,0v-1.4h-2.1v8.9H88.9z"
	/>
<path class="st7" d="M19.7,558.7c-1-1-2.4-1.4-3.8-1.4c-2.5,0-4.9,1.3-4.9,4c0,4.7,6.3,3.1,6.3,6c0,1.2-1.2,1.8-2.3,1.8
	c-1,0-2-0.5-2.6-1.4l-1.8,1.7c1.1,1.3,2.7,1.8,4.3,1.8c2.6,0,4.8-1.4,4.8-4.2c0-4.7-6.3-3.2-6.3-5.9c0-1.2,1.1-1.7,2.2-1.7
	c0.9,0,1.8,0.3,2.3,1L19.7,558.7L19.7,558.7z M30.6,567.2v-0.6c0-3.1-1.7-4.9-4.2-4.9c-2.7,0-4.9,1.9-4.9,4.7c0,2.8,2.2,4.7,4.9,4.7
	c1.4,0,2.8-0.5,3.8-1.8l-1.6-1.2c-0.6,0.7-1.3,1.2-2.4,1.2c-1.3,0-2.3-0.8-2.4-2.1L30.6,567.2L30.6,567.2z M23.7,565.5
	c0.2-1.3,1-2.1,2.3-2.1c1.4,0,2.3,0.8,2.3,2.1H23.7L23.7,565.5z M32.7,570.9h2.2v-14.2h-2.2V570.9L32.7,570.9z M46.2,567.2v-0.6
	c0-3.1-1.7-4.9-4.2-4.9c-2.7,0-4.9,1.9-4.9,4.7c0,2.8,2.2,4.7,4.9,4.7c1.4,0,2.8-0.5,3.8-1.8l-1.6-1.2c-0.6,0.7-1.3,1.2-2.4,1.2
	c-1.3,0-2.3-0.8-2.4-2.1L46.2,567.2L46.2,567.2z M39.3,565.5c0.2-1.3,1-2.1,2.3-2.1c1.4,0,2.3,0.8,2.3,2.1H39.3L39.3,565.5z
	 M55.9,563.1c-0.9-1-2.1-1.4-3.3-1.4c-2.7,0-4.9,1.9-4.9,4.7c0,2.8,2.2,4.7,4.9,4.7c0.8,0,2.3-0.3,3.2-1.3l-1.5-1.6
	c-0.4,0.5-1,0.8-1.7,0.8c-1.6,0-2.6-1.3-2.6-2.7c0-1.4,1-2.7,2.6-2.7c0.6,0,1.2,0.4,1.7,0.9L55.9,563.1L55.9,563.1z M58.7,563.9v4.1
	c0,2.1,0.6,3.2,2.9,3.2c0.5,0,1.3-0.1,1.8-0.3V569c-0.3,0.2-0.8,0.3-1.2,0.3c-1,0-1.3-0.6-1.3-1.5v-3.9h2.5V562h-2.5v-2.6h-2.2v2.6
	h-1.9v1.9L58.7,563.9L58.7,563.9z M65.2,570.9h2.2v-9h-2.2V570.9L65.2,570.9z M64.9,558.9c0,0.7,0.6,1.3,1.4,1.3
	c0.8,0,1.5-0.6,1.5-1.3c0-0.8-0.6-1.3-1.5-1.3C65.5,557.6,64.9,558.2,64.9,558.9L64.9,558.9z M69.5,566.4c0,2.8,2.2,4.7,4.9,4.7
	s4.9-1.9,4.9-4.7s-2.2-4.7-4.9-4.7C71.6,561.7,69.5,563.6,69.5,566.4L69.5,566.4z M71.7,566.4c0-1.4,1-2.7,2.6-2.7s2.6,1.3,2.6,2.7
	c0,1.4-1,2.7-2.6,2.7S71.7,567.8,71.7,566.4L71.7,566.4z M81.3,570.9h2.2V566c0-1.2,0.6-2.3,2.1-2.3c1.6,0,1.6,1.6,1.6,2.6v4.5h2.2
	v-5.7c0-1.8-0.9-3.5-3.3-3.5c-1.5,0-2.3,0.8-2.8,1.7l0,0v-1.4h-2.1v9H81.3z"/>
<path class="st7" d="M22.5,626.8c-1.3-1.5-2.8-2.1-4.6-2.1c-4.1,0-7,2.8-7,7c0,4.1,2.9,6.9,7,6.9c1.9,0,3.7-0.7,4.9-2.4l-1.9-1.4
	c-0.9,1.1-1.9,1.6-3,1.6c-2.7,0-4.5-2.1-4.5-4.9c0-2.6,1.8-4.7,4.5-4.7c0.9,0,1.8,0.3,2.8,1.3L22.5,626.8L22.5,626.8z M23.7,633.8
	c0,2.8,2.2,4.7,4.9,4.7s4.9-1.9,4.9-4.7s-2.2-4.7-4.9-4.7S23.7,631,23.7,633.8L23.7,633.8z M26,633.8c0-1.4,1-2.7,2.6-2.7
	s2.6,1.3,2.6,2.7c0,1.4-1,2.7-2.6,2.7S26,635.2,26,633.8L26,633.8z M35.6,638.3h2.2v-4.9c0-1.2,0.6-2.3,2.1-2.3
	c1.6,0,1.6,1.6,1.6,2.6v4.5h2.2v-5.6c0-1.8-0.9-3.5-3.3-3.5c-1.5,0-2.3,0.8-2.8,1.7l0,0v-1.4h-2.1v8.9H35.6z M52.7,630.5
	c-0.7-1-2-1.4-3.2-1.4c-1.8,0-3.6,0.9-3.6,2.9c0,3.4,4.9,2,4.9,3.8c0,0.7-0.8,1-1.5,1c-1,0-1.6-0.5-2.1-1.1l-1.5,1.4
	c0.9,1,2.1,1.4,3.5,1.4c1.8,0,3.9-0.7,3.9-2.9c0-3.5-4.8-2.2-4.8-3.8c0-0.7,0.7-1,1.3-1c0.8,0,1.3,0.3,1.8,0.9L52.7,630.5
	L52.7,630.5z M55.8,631.2v4.1c0,2.1,0.6,3.2,2.9,3.2c0.5,0,1.3-0.1,1.8-0.3v-1.9c-0.3,0.2-0.8,0.3-1.2,0.3c-1,0-1.3-0.6-1.3-1.5
	v-3.9h2.5v-1.9H58v-2.6h-2.2v2.6H54v1.9L55.8,631.2L55.8,631.2z M62.4,638.3h2.2v-4.8c0-0.5,0.3-2.3,2.4-2.3c0.4,0,0.7,0.1,1.1,0.2
	v-2.2c-0.3-0.1-0.5-0.1-0.8-0.1c-1.2,0-2.2,0.6-2.7,1.6l0,0v-1.4h-2.2V638.3L62.4,638.3z M77.9,629.3h-2.2v4.9
	c0,1.2-0.6,2.3-2.1,2.3c-1.6,0-1.6-1.6-1.6-2.6v-4.6h-2.2v5.7c0,1.8,0.9,3.5,3.3,3.5c1.5,0,2.3-0.8,2.8-1.7l0,0v1.4H78v-8.9H77.9z
	 M88.2,630.5c-0.9-1-2.1-1.4-3.3-1.4c-2.7,0-4.9,1.9-4.9,4.7s2.2,4.7,4.9,4.7c0.8,0,2.3-0.3,3.2-1.3l-1.5-1.6
	c-0.4,0.5-1,0.8-1.7,0.8c-1.6,0-2.6-1.3-2.6-2.7c0-1.4,1-2.7,2.6-2.7c0.6,0,1.2,0.4,1.7,0.9L88.2,630.5L88.2,630.5z M91,631.2v4.1
	c0,2.1,0.6,3.2,2.9,3.2c0.5,0,1.3-0.1,1.8-0.3v-1.9c-0.3,0.2-0.8,0.3-1.2,0.3c-1,0-1.3-0.6-1.3-1.5v-3.9h2.5v-1.9h-2.5v-2.6H91v2.6
	h-1.9v1.9L91,631.2L91,631.2z M97.5,638.3h2.2v-9h-2.2V638.3L97.5,638.3z M97.1,626.3c0,0.7,0.6,1.3,1.4,1.3c0.8,0,1.5-0.6,1.5-1.3
	c0-0.8-0.6-1.3-1.5-1.3C97.7,624.9,97.1,625.6,97.1,626.3L97.1,626.3z M101.8,633.8c0,2.8,2.2,4.7,4.9,4.7s4.9-1.9,4.9-4.7
	s-2.2-4.7-4.9-4.7C103.9,629.1,101.8,631,101.8,633.8L101.8,633.8z M104,633.8c0-1.4,1-2.7,2.6-2.7s2.6,1.3,2.6,2.7
	c0,1.4-1,2.7-2.6,2.7S104,635.2,104,633.8L104,633.8z M113.6,638.3h2.2v-4.9c0-1.2,0.6-2.3,2.1-2.3c1.6,0,1.6,1.6,1.6,2.6v4.5h2.2
	v-5.6c0-1.8-0.9-3.5-3.3-3.5c-1.5,0-2.3,0.8-2.8,1.7l0,0v-1.4h-2.1v8.9H113.6z"/>
<path class="st7" d="M11.6,704.9h2.2v-11l0,0l4,11h1.6l4-11l0,0v11h2.2v-13.3H22l-3.6,9.3l-3.5-9.3h-3.6v13.3H11.6z M28.2,700.4
	c0,2.8,2.2,4.7,4.9,4.7s4.9-1.9,4.9-4.7s-2.2-4.7-4.9-4.7C30.3,695.7,28.2,697.6,28.2,700.4L28.2,700.4z M30.4,700.4
	c0-1.4,1-2.7,2.6-2.7s2.6,1.3,2.6,2.7s-1,2.7-2.6,2.7S30.4,701.8,30.4,700.4L30.4,700.4z M40,704.9h2.2V700c0-1.2,0.6-2.3,2.1-2.3
	c1.6,0,1.6,1.6,1.6,2.6v4.6h2.2v-5.7c0-1.8-0.9-3.5-3.3-3.5c-1.5,0-2.3,0.8-2.8,1.7l0,0V696h-2V704.9L40,704.9z M50.8,704.9H53v-9
	h-2.2V704.9L50.8,704.9z M50.5,692.8c0,0.7,0.6,1.3,1.4,1.3s1.5-0.6,1.5-1.3c0-0.8-0.6-1.3-1.5-1.3S50.5,692.1,50.5,692.8
	L50.5,692.8z M56.4,697.8v4.1c0,2.1,0.6,3.2,2.9,3.2c0.5,0,1.3-0.1,1.8-0.3v-1.9c-0.3,0.2-0.8,0.3-1.2,0.3c-1,0-1.3-0.6-1.3-1.5
	v-3.9h2.5v-1.9h-2.5v-2.6h-2.2v2.6h-1.9v1.9L56.4,697.8L56.4,697.8z M62.3,700.4c0,2.8,2.2,4.7,4.9,4.7s4.9-1.9,4.9-4.7
	s-2.2-4.7-4.9-4.7C64.4,695.7,62.3,697.6,62.3,700.4L62.3,700.4z M64.5,700.4c0-1.4,1-2.7,2.6-2.7s2.6,1.3,2.6,2.7s-1,2.7-2.6,2.7
	S64.5,701.8,64.5,700.4L64.5,700.4z M74.1,704.9h2.2v-4.8c0-0.5,0.3-2.3,2.4-2.3c0.4,0,0.7,0.1,1.1,0.2v-2.2
	c-0.3-0.1-0.5-0.1-0.8-0.1c-1.2,0-2.2,0.6-2.7,1.6l0,0v-1.4h-2.2V704.9L74.1,704.9z M81.4,704.9h2.2v-9h-2.2V704.9L81.4,704.9z
	 M81.1,692.8c0,0.7,0.6,1.3,1.4,1.3c0.8,0,1.5-0.6,1.5-1.3c0-0.8-0.6-1.3-1.5-1.3C81.7,691.5,81.1,692.1,81.1,692.8L81.1,692.8z
	 M86.3,704.9h2.2V700c0-1.2,0.6-2.3,2.1-2.3c1.6,0,1.6,1.6,1.6,2.6v4.6h2.2v-5.7c0-1.8-0.9-3.5-3.3-3.5c-1.5,0-2.3,0.8-2.8,1.7l0,0
	V696h-2.1v8.9H86.3z M104.1,695.9v1.3l0,0c-0.7-1.1-1.8-1.6-3.1-1.6c-2.8,0-4.4,2.1-4.4,4.7c0,2.5,1.8,4.6,4.5,4.6
	c1.1,0,2.3-0.4,2.9-1.3l0,0v0.7c0,1.8-0.7,3-2.8,3c-1.3,0-2.2-0.5-3.1-1.3l-1.3,1.8c1.3,1.1,2.8,1.5,4.5,1.5c3.5,0,5.1-2.1,5.1-5.3
	v-8.2L104.1,695.9L104.1,695.9z M101.5,697.7c1.6,0,2.7,1.1,2.7,2.6s-1,2.6-2.7,2.6c-1.5,0-2.6-1.2-2.6-2.6
	C98.8,698.8,99.9,697.7,101.5,697.7L101.5,697.7z"/>
<path class="st0" d="M-2.7,439v-1.5c-0.1,0-8.2,0-16.4,4.1c-4.1,2.1-8.3,5.2-11.4,9.9c-3.1,4.7-5.2,10.9-5.2,19v249.3
	c0,0.1,0,8.6,4.3,17.3c2.2,4.3,5.5,8.7,10.4,12s11.5,5.5,20.1,5.5h177.5V437.5H-2.7V439v1.5h176.3v311.1H-0.9c-8.1,0-14-2-18.4-5
	c-3.3-2.2-5.8-5-7.7-7.9c-2.8-4.4-4.3-9.2-5-12.8c-0.4-1.8-0.5-3.4-0.6-4.5c0-0.5-0.1-1-0.1-1.3c0-0.1,0-0.3,0-0.3v-0.1l0,0V470.5
	c0-7.6,1.9-13.2,4.7-17.4c2.1-3.1,4.7-5.5,7.4-7.2c4.1-2.7,8.6-4,12.1-4.7c1.7-0.3,3.2-0.5,4.2-0.6c0.5,0,0.9-0.1,1.2-0.1
	c0.1,0,0.2,0,0.3,0h0.1l0,0V439L-2.7,439z"/>
<path class="st7" d="M-52.7,559.6c14.9,0,27-12.1,27-27s-12.1-27-27-27s-27,12.1-27,27S-67.6,559.6-52.7,559.6L-52.7,559.6z"/>
<path class="st0" d="M-52.9,561c-15.5,0-28.2-12.7-28.2-28.2s12.7-28.2,28.2-28.2s28.2,12.7,28.2,28.2
	C-24.7,548.3-37.4,561-52.9,561L-52.9,561z M-52.9,509.7c-12.7,0-23.1,10.4-23.1,23.1s10.4,23.1,23.1,23.1s23.1-10.4,23.1-23.1
	C-29.8,520-40.2,509.7-52.9,509.7L-52.9,509.7z"/>
<polygon class="st0" points="-58.9,526.5 -52.5,515.4 -46.1,526.5 "/>
<path class="st0" d="M-52.5,543.1l-8-13.5h15.9L-52.5,543.1L-52.5,543.1z M-56.5,531.9l4,6.7l4-6.7H-56.5L-56.5,531.9z"/>
<polygon class="st0" points="-68.8,543.8 -62.4,532.7 -56,543.8 "/>
<polygon class="st0" points="-49,543.8 -42.6,532.7 -36.1,543.8 "/>
</svg>
