<svg id="Layer_1" data-name="Layer 1" xmlns="http://www.w3.org/2000/svg" viewBox="0 0 411.35 409.8"><defs><style>.cls-1{fill:#ffc92a;}.cls-2{fill:#f15a22;}.cls-3{fill:#bf202f;}.cls-4{fill:#084269;}.cls-5{fill:#28a8e0;}.cls-6{fill:#68cdeb;}.cls-7{fill:#fff;}.cls-8{fill:#2b3990;}</style></defs><title>I 4 step consulting</title><path class="cls-1" d="M417.8,204.9L240.4,102.5C278.1,37.2,342.5.1,417.8,0.1V204.9" transform="translate(-212.12)"/><path class="cls-2" d="M417.8,204.9L240.4,307.3c-37.7-65.3-37.7-139.6,0-204.9L417.8,204.9" transform="translate(-212.12)"/><path class="cls-3" d="M417.8,204.9V409.8c-75.4,0-139.8-37.2-177.4-102.4L417.8,204.9" transform="translate(-212.12)"/><path class="cls-4" d="M417.8,204.9L595.2,307.3c-37.7,65.3-102.1,102.4-177.4,102.4V204.9" transform="translate(-212.12)"/><path class="cls-5" d="M417.8,204.9L595.2,102.5c37.7,65.3,37.7,139.6,0,204.9L417.8,204.9" transform="translate(-212.12)"/><path class="cls-6" d="M417.8,204.9V0c75.4,0,139.8,37.2,177.4,102.4L417.8,204.9" transform="translate(-212.12)"/><path class="cls-7" d="M418.4,37.5V204.3H251.6A166.83,166.83,0,0,1,418.4,37.5m2.9-2.9h-2.9A169.69,169.69,0,0,0,248.7,204.28v2.82H421.2V34.6" transform="translate(-212.12)"/><path class="cls-7" d="M418.4,204.3V371.1A166.83,166.83,0,0,1,251.6,204.3H418.4m2.9-2.9H248.8v2.9A169.69,169.69,0,0,0,418.48,374h2.92V201.4" transform="translate(-212.12)"/><path class="cls-7" d="M585.2,204.3A166.83,166.83,0,0,1,418.4,371.1V204.3H585.2m2.9-2.9H415.6V373.9h2.8A169.69,169.69,0,0,0,588.1,204.22V201.4" transform="translate(-212.12)"/><path class="cls-7" d="M418.4,37.5A166.83,166.83,0,0,1,585.2,204.3H418.4V37.5m0-2.9h-2.8V207.1H588.1v-2.8A169.69,169.69,0,0,0,418.42,34.6h0" transform="translate(-212.12)"/><path class="cls-7" d="M418.4,252.9a45.3,45.3,0,1,0-45.3-45.3h0a45.32,45.32,0,0,0,45.3,45.3" transform="translate(-212.12)"/><polygon class="cls-8" points="176.88 204.3 176.88 189.6 180.47 189.6 180.47 204.3 176.88 204.3"/><path class="cls-8" d="M409.3,196.9a6.71,6.71,0,0,1-.7,3.3,7.1,7.1,0,0,1-1.9,2.3,9.05,9.05,0,0,1-2.6,1.3,10.32,10.32,0,0,1-3,.4h-5.5V189.5h5.3a11,11,0,0,1,3.1.4,6.6,6.6,0,0,1,2.7,1.2,6.74,6.74,0,0,1,1.9,2.2,8.27,8.27,0,0,1,.7,3.6h0Zm-3.7,0a4.64,4.64,0,0,0-.4-2.1,3.48,3.48,0,0,0-1.1-1.3,4.13,4.13,0,0,0-1.5-.7,11,11,0,0,0-1.8-.2H399v8.6h1.7a11,11,0,0,0,1.8-.2,4.59,4.59,0,0,0,1.6-.7,4.74,4.74,0,0,0,1.1-1.3,4.64,4.64,0,0,0,.4-2.1h0Z" transform="translate(-212.12)"/><polygon class="cls-8" points="199.57 204.3 199.57 189.6 209.38 189.6 209.38 192.6 202.97 192.6 202.97 195.4 209.07 195.4 209.07 198.2 202.97 198.2 202.97 201.3 209.78 201.3 209.78 204.3 199.57 204.3"/><path class="cls-8" d="M434.2,204.3l-1.1-2.9h-5.7l-1.1,2.9h-3.9l6.2-14.7H432l6.1,14.7h-3.9Zm-4-10.8-1.9,5H432l-1.8-5h0Z" transform="translate(-212.12)"/><polygon class="cls-8" points="227.18 204.3 227.18 189.6 230.78 189.6 230.78 201.2 236.47 201.2 236.47 204.3 227.18 204.3"/><path class="cls-7" d="M278.8,166.5v20.9c1.2,0.2,1.9.4,2.2,0.4a0.6,0.6,0,0,1,.4.7v1.6h-8.9v-1.6a0.66,0.66,0,0,1,.6-0.7l2.1-.4V166.5c-1.2-.2-1.9-0.4-2.2-0.4a0.6,0.6,0,0,1-.4-0.7v-1.6h8.9v1.6a0.66,0.66,0,0,1-.6.7l-2.1.4h0Z" transform="translate(-212.12)"/><path class="cls-7" d="M273.1,217.9v21c1.2,0.2,1.9.4,2.2,0.4a0.6,0.6,0,0,1,.4.7v1.6h-8.9V240a0.66,0.66,0,0,1,.6-0.7l2.1-.4v-21c-1.2-.2-1.9-0.4-2.2-0.4a0.6,0.6,0,0,1-.4-0.7v-1.6h8.9v1.6a0.66,0.66,0,0,1-.6.7l-2.1.4h0Z" transform="translate(-212.12)"/><path class="cls-7" d="M284.4,217.9v21c1.2,0.2,1.9.4,2.2,0.4a0.6,0.6,0,0,1,.4.7v1.6h-8.9V240a0.66,0.66,0,0,1,.6-0.7l2.1-.4v-21c-1.2-.2-1.9-0.4-2.2-0.4a0.6,0.6,0,0,1-.4-0.7v-1.6h8.9v1.6a0.66,0.66,0,0,1-.6.7l-2.1.4h0Z" transform="translate(-212.12)"/><path class="cls-7" d="M546,166.5v20.9c1.2,0.2,1.9.4,2.2,0.4s0.4,0.3.4,0.7v1.6h-8.9v-1.6a0.66,0.66,0,0,1,.6-0.7l2.1-.4V166.5c-1.2-.2-1.9-0.4-2.2-0.4a0.6,0.6,0,0,1-.4-0.7v-1.6h8.9v1.6a0.66,0.66,0,0,1-.6.7l-2.1.4h0Z" transform="translate(-212.12)"/><path class="cls-7" d="M557.2,166.5v20.9c1.2,0.2,1.9.4,2.2,0.4a0.6,0.6,0,0,1,.4.7v1.6h-8.9v-1.6a0.66,0.66,0,0,1,.6-0.7l2.1-.4V166.5c-1.2-.2-1.9-0.4-2.2-0.4a0.6,0.6,0,0,1-.4-0.7v-1.6h8.9v1.6a0.66,0.66,0,0,1-.6.7l-2.1.4h0Z" transform="translate(-212.12)"/><path class="cls-7" d="M568.4,166.5v20.9c1.2,0.2,1.9.4,2.2,0.4a0.6,0.6,0,0,1,.4.7v1.6h-8.9v-1.6a0.66,0.66,0,0,1,.6-0.7l2.1-.4V166.5c-1.2-.2-1.9-0.4-2.2-0.4a0.6,0.6,0,0,1-.4-0.7v-1.6h8.9v1.6a0.66,0.66,0,0,1-.6.7l-2.1.4h0Z" transform="translate(-212.12)"/><path class="cls-7" d="M542.9,217.9v21c1.2,0.2,1.9.4,2.2,0.4a0.6,0.6,0,0,1,.4.7v1.6h-8.9V240a0.67,0.67,0,0,1,.5-0.7l2.1-.4v-21c-1.2-.2-1.9-0.4-2.2-0.4a0.6,0.6,0,0,1-.4-0.7v-1.6h8.9v1.6a0.66,0.66,0,0,1-.6.7l-2,.4h0Z" transform="translate(-212.12)"/><path class="cls-7" d="M574.6,215.3v1.6a0.66,0.66,0,0,1-.6.7l-1.8.4-9.6,23.6h-3.2L549.8,218c-1-.2-1.6-0.4-1.9-0.4a0.66,0.66,0,0,1-.6-0.7v-1.6H556v1.6a0.68,0.68,0,0,1-.66.7h0c-0.5.1-1.1,0.2-1.9,0.4l6.7,16.7a14.45,14.45,0,0,1,.9,2.9,22.37,22.37,0,0,1,.8-2.9l6.7-16.7c-1.2-.2-1.9-0.4-2.1-0.4a0.66,0.66,0,0,1-.6-0.7v-1.6h8.8Z" transform="translate(-212.12)"/><path class="cls-8" d="M394,226.8a8.84,8.84,0,0,1-3.3.7,7.79,7.79,0,0,1-3.1-.6,7.16,7.16,0,0,1-2.5-1.6,7.39,7.39,0,0,1-1.7-2.5,8.15,8.15,0,0,1-.6-3.1,8.29,8.29,0,0,1,.6-3.2,6.14,6.14,0,0,1,1.7-2.4,6.44,6.44,0,0,1,2.5-1.5,8.08,8.08,0,0,1,3.1-.5,11.15,11.15,0,0,1,3.1.5,6,6,0,0,1,2.4,1.6l-2.4,2.4a2.56,2.56,0,0,0-1.3-1,5,5,0,0,0-3.4,0,3,3,0,0,0-1.3.9,4.19,4.19,0,0,0-.9,1.4,5.55,5.55,0,0,0,0,3.6,3.39,3.39,0,0,0,.9,1.4,3.81,3.81,0,0,0,1.3.9,4.67,4.67,0,0,0,1.7.3,3.42,3.42,0,0,0,1.8-.4,4.49,4.49,0,0,0,1.3-1.1l2.5,2.3a6.54,6.54,0,0,1-2.4,1.9h0Z" transform="translate(-212.12)"/><polygon class="cls-8" points="185.78 227 185.78 212.3 189.38 212.3 189.38 223.9 195.07 223.9 195.07 227 185.78 227"/><polygon class="cls-8" points="196.68 227 196.68 212.3 200.28 212.3 200.28 227 196.68 227"/><polygon class="cls-8" points="203.28 227 203.28 212.3 213.18 212.3 213.18 215.3 206.68 215.3 206.68 218.1 212.78 218.1 212.78 220.9 206.68 220.9 206.68 224 213.47 224 213.47 227 203.28 227"/><polygon class="cls-8" points="225.18 227 219.28 217.4 219.18 217.4 219.28 227 215.88 227 215.88 212.3 219.88 212.3 225.78 221.9 225.88 221.9 225.78 212.3 229.18 212.3 229.18 227 225.18 227"/><polygon class="cls-8" points="238.47 215.4 238.47 227 234.97 227 234.97 215.4 230.78 215.4 230.78 212.3 242.68 212.3 242.68 215.4 238.47 215.4"/><path class="cls-7" d="M315.6,265.1a3.59,3.59,0,0,0-1-.7,3.42,3.42,0,0,0-2.8,0,2.84,2.84,0,0,0-1.1.8,4.13,4.13,0,0,0-.7,1.1,3.18,3.18,0,0,0-.2,1.4,6.75,6.75,0,0,0,.2,1.4,4.13,4.13,0,0,0,.7,1.1,4.44,4.44,0,0,0,1.1.8,3.19,3.19,0,0,0,1.4.3,4.87,4.87,0,0,0,1.2-.1,4.65,4.65,0,0,0,.9-0.3v-2.5h-2v-1h3.2v4.3l-1.5.6a11,11,0,0,1-1.8.2,5.82,5.82,0,0,1-1.9-.3,4,4,0,0,1-1.5-1,5.6,5.6,0,0,1-1-1.5,5.85,5.85,0,0,1-.4-1.9,4.06,4.06,0,0,1,.4-1.9,4,4,0,0,1,1-1.5,3.77,3.77,0,0,1,1.5-.9,6.17,6.17,0,0,1,3.8,0,3.39,3.39,0,0,1,1.4.9l-0.9.7h0Z" transform="translate(-212.12)"/><path class="cls-7" d="M324.6,269.2a5.07,5.07,0,0,1-.2,1.3,3.59,3.59,0,0,1-.7,1,2.08,2.08,0,0,1-1,.6,2.74,2.74,0,0,1-1.3.2,5.07,5.07,0,0,1-1.3-.2,3.33,3.33,0,0,1-1-.6,3.59,3.59,0,0,1-.7-1,2.74,2.74,0,0,1-.2-1.3,5.07,5.07,0,0,1,.2-1.3,3.51,3.51,0,0,1,1.7-1.7,2.74,2.74,0,0,1,1.3-.2,5.07,5.07,0,0,1,1.3.2,3.51,3.51,0,0,1,1.7,1.7,2.74,2.74,0,0,1,.2,1.3h0Zm-1.2,0a2,2,0,0,0-.1-0.8,1.61,1.61,0,0,0-.4-0.7,2.65,2.65,0,0,0-.6-0.5,2,2,0,0,0-.9-0.2,1.88,1.88,0,0,0-.8.2,1.47,1.47,0,0,0-.6.5,1.61,1.61,0,0,0-.4.7,2.2,2.2,0,0,0-.1.8,2,2,0,0,0,.1.8,1.61,1.61,0,0,0,.4.7,2.65,2.65,0,0,0,.6.5,1.88,1.88,0,0,0,.8.2,2.92,2.92,0,0,0,.9-0.2,1.47,1.47,0,0,0,.6-0.5,1.61,1.61,0,0,0,.4-0.7,2.2,2.2,0,0,0,.1-0.8h0Z" transform="translate(-212.12)"/><path class="cls-7" d="M330,268.3a1.16,1.16,0,0,0-.4-1,1.8,1.8,0,0,0-1.1-.3,2.39,2.39,0,0,0-.9.2,1.79,1.79,0,0,0-.7.5l-0.6-.8a4.13,4.13,0,0,1,1.1-.7,3.18,3.18,0,0,1,1.4-.2,3.59,3.59,0,0,1,1.1.2,2.18,2.18,0,0,1,.8.5,3,3,0,0,1,.5.7,2.92,2.92,0,0,1,.2.9v3.2a0.75,0.75,0,0,0,.1.5h-1.1a2.48,2.48,0,0,1-.1-0.8h0a1.78,1.78,0,0,1-.8.7,2.13,2.13,0,0,1-1.2.3,1.7,1.7,0,0,1-.7-0.1,4.88,4.88,0,0,1-.7-0.3,1,1,0,0,1-.5-0.6,2,2,0,0,1-.2-0.9,1.5,1.5,0,0,1,.4-1.1,1.7,1.7,0,0,1,1-.6c0.4-.1.8-0.2,1.3-0.3a7.57,7.57,0,0,1,1.5-.1v0.1H330Zm-0.3,1h-0.9a2.92,2.92,0,0,0-.9.2,1.63,1.63,0,0,0-.6.3,0.86,0.86,0,0,0-.3.6,0.48,0.48,0,0,0,.1.4l0.3,0.3a1.47,1.47,0,0,0,.4.2h0.4a1.73,1.73,0,0,0,1.3-.5,1.75,1.75,0,0,0,.4-1.2v-0.3h-0.2Z" transform="translate(-212.12)"/><polygon class="cls-7" points="122.17 272.2 120.97 272.2 120.97 262.7 122.17 262.7 122.17 272.2"/><polygon class="cls-7" points="126.67 269.6 123.78 269.6 123.78 268.6 126.67 268.6 126.67 269.6"/><path class="cls-7" d="M340.4,263.3h3.1a3.4,3.4,0,0,1,1,.1,3.55,3.55,0,0,1,.9.4,1.34,1.34,0,0,1,.6.7,1.82,1.82,0,0,1,.2,1.1,1.59,1.59,0,0,1-.4,1.2,2.59,2.59,0,0,1-1.1.7h0a2.35,2.35,0,0,1,.8.2,3.11,3.11,0,0,1,.6.4,1.61,1.61,0,0,1,.4.7,2.51,2.51,0,0,1-.2,1.9,2.7,2.7,0,0,1-.7.8,3.7,3.7,0,0,1-1.1.5,5.07,5.07,0,0,1-1.3.2h-2.9v-8.9h0.1Zm1.3,3.7h1.6a1.7,1.7,0,0,0,.7-0.1c0.2-.1.4-0.1,0.6-0.2a1.51,1.51,0,0,0,.4-0.4,1.27,1.27,0,0,0,.1-0.6,1.1,1.1,0,0,0-.5-1,2.9,2.9,0,0,0-1.4-.3h-1.4V267h-0.1Zm0,4.1h1.6a2.2,2.2,0,0,0,.8-0.1,6.37,6.37,0,0,0,.7-0.2,1.2,1.2,0,0,0,.5-0.5,1.45,1.45,0,0,0,.2-0.7,1.29,1.29,0,0,0-.5-1.1,3.41,3.41,0,0,0-1.6-.4h-1.7v3h0Z" transform="translate(-212.12)"/><path class="cls-7" d="M352.1,268.3a1.16,1.16,0,0,0-.4-1,1.8,1.8,0,0,0-1.1-.3,2.39,2.39,0,0,0-.9.2,1.79,1.79,0,0,0-.7.5l-0.7-.8a4.13,4.13,0,0,1,1.1-.7,3.18,3.18,0,0,1,1.4-.2,3.59,3.59,0,0,1,1.1.2,2.18,2.18,0,0,1,.8.5,3,3,0,0,1,.5.7,2.92,2.92,0,0,1,.2.9v3.2a0.75,0.75,0,0,0,.1.5h-1.2a2.48,2.48,0,0,1-.1-0.8h0a1.78,1.78,0,0,1-.8.7,2.13,2.13,0,0,1-1.2.3,1.7,1.7,0,0,1-.7-0.1,4.88,4.88,0,0,1-.7-0.3,1,1,0,0,1-.5-0.6,2,2,0,0,1-.2-0.9,1.5,1.5,0,0,1,.4-1.1,1.7,1.7,0,0,1,1-.6c0.4-.1.8-0.2,1.3-0.3a7.57,7.57,0,0,1,1.5-.1v0.1h-0.2Zm-0.3,1h-0.9a2.92,2.92,0,0,0-.9.2,1.63,1.63,0,0,0-.6.3,0.86,0.86,0,0,0-.3.6,0.48,0.48,0,0,0,.1.4l0.3,0.3a1.47,1.47,0,0,0,.4.2h0.4a1.73,1.73,0,0,0,1.3-.5,1.75,1.75,0,0,0,.4-1.2v-0.3h-0.2Z" transform="translate(-212.12)"/><path class="cls-7" d="M358.4,267.7a1,1,0,0,0-.6-0.5,1.88,1.88,0,0,0-.8-0.2h-0.4c-0.1,0-.3.1-0.4,0.1a0.53,0.53,0,0,0-.3.2,0.48,0.48,0,0,0-.1.4,0.86,0.86,0,0,0,.3.6,6.21,6.21,0,0,0,1,.3c0.3,0.1.5,0.1,0.8,0.2a3.33,3.33,0,0,1,.6.3,1,1,0,0,1,.4.5,1.45,1.45,0,0,1,.2.7,2,2,0,0,1-.2.9,2.65,2.65,0,0,1-.5.6,1.14,1.14,0,0,1-.8.3,3.34,3.34,0,0,1-2.2-.2,2.84,2.84,0,0,1-1.1-.8l0.8-.7a4.35,4.35,0,0,0,.7.6,1.49,1.49,0,0,0,.9.2h0.4a0.76,0.76,0,0,0,.4-0.2l0.3-.3a0.48,0.48,0,0,0,.1-0.4,0.55,0.55,0,0,0-.4-0.6,5.48,5.48,0,0,0-1.2-.4,1.42,1.42,0,0,1-.6-0.2l-0.6-.3a1,1,0,0,1-.4-0.5,1.45,1.45,0,0,1-.2-0.7,1.88,1.88,0,0,1,.2-0.8,2.65,2.65,0,0,1,.5-0.6,4.87,4.87,0,0,1,.7-0.3,2.2,2.2,0,0,1,.8-0.1,2.66,2.66,0,0,1,1.2.3,2.18,2.18,0,0,1,.9.7l-0.4.9h0Z" transform="translate(-212.12)"/><path class="cls-7" d="M366.3,269.1v0.4h-4.7a1.45,1.45,0,0,0,.2.7,1.84,1.84,0,0,0,1,1,2,2,0,0,0,1.7-.2,4.35,4.35,0,0,0,.7-0.6l0.8,0.7a3.13,3.13,0,0,1-1.1.9,3.19,3.19,0,0,1-1.4.3,5.07,5.07,0,0,1-1.3-.2,3.33,3.33,0,0,1-1-.6,3.59,3.59,0,0,1-.7-1,2.74,2.74,0,0,1-.2-1.3,5.07,5.07,0,0,1,.2-1.3,8.79,8.79,0,0,1,.6-1,3.59,3.59,0,0,1,1-.7,2.54,2.54,0,0,1,1.2-.2,5,5,0,0,1,1.2.2,2,2,0,0,1,.9.6,8.79,8.79,0,0,1,.6,1,2.08,2.08,0,0,1,.3,1.3h0Zm-1.2-.4a2,2,0,0,0-.1-0.7,1.73,1.73,0,0,0-.8-0.9,2.5,2.5,0,0,0-1.4,0,2.09,2.09,0,0,0-.6.4,1.76,1.76,0,0,0-.4.5,1.45,1.45,0,0,0-.2.7h3.5Z" transform="translate(-212.12)"/><path class="cls-7" d="M372.7,271.2a1.76,1.76,0,0,1-.9.8,2.66,2.66,0,0,1-1.2.3,3.73,3.73,0,0,1-1.2-.2,2.18,2.18,0,0,1-.9-0.7,2.08,2.08,0,0,1-.6-1,5,5,0,0,1-.2-1.2,4.3,4.3,0,0,1,.2-1.2,2.07,2.07,0,0,1,.6-1,5.5,5.5,0,0,1,.9-0.7,2.54,2.54,0,0,1,1.2-.2,2.77,2.77,0,0,1,1.3.3,7,7,0,0,1,.9.7h0v-4.4H374v9.5h-1.1l-0.2-1h0Zm-3.9-2a2.2,2.2,0,0,0,.1.8,1.61,1.61,0,0,0,.4.7,2.65,2.65,0,0,0,.6.5,2,2,0,0,0,.9.2,1.88,1.88,0,0,0,.8-0.2,1.47,1.47,0,0,0,.6-0.5,1.61,1.61,0,0,0,.4-0.7,2.2,2.2,0,0,0,.1-0.8,2,2,0,0,0-.1-0.8,1.61,1.61,0,0,0-.4-0.7,2.65,2.65,0,0,0-.6-0.5,1.88,1.88,0,0,0-.8-0.2,2.92,2.92,0,0,0-.9.2,2.65,2.65,0,0,0-.6.5,1.61,1.61,0,0,0-.4.7,2,2,0,0,0-.1.8h0Z" transform="translate(-212.12)"/><polygon class="cls-7" points="98.58 284.3 97.28 284.3 97.28 275.5 98.58 275.5 98.58 284.3"/><path class="cls-7" d="M313.9,278.4v1h0c0.1-.2.2-0.3,0.3-0.5l0.4-.4a1.42,1.42,0,0,1,.6-0.2,1.27,1.27,0,0,1,.6-0.1,3,3,0,0,1,1,.2,1.79,1.79,0,0,1,.7.5,2,2,0,0,1,.4.8,3.08,3.08,0,0,1,.1,1v3.7h-1.2v-3.3a1.48,1.48,0,0,0-.1-0.7,1.42,1.42,0,0,0-.2-0.6,0.78,0.78,0,0,0-.4-0.4,1.45,1.45,0,0,0-.7-0.2,1.29,1.29,0,0,0-1.1.5,2,2,0,0,0-.4,1.4v3.2h-1.2v-6h1.2v0.1h0Z" transform="translate(-212.12)"/><polygon class="cls-7" points="110.78 284.3 109.47 284.3 107.08 278.4 108.38 278.4 110.08 283.1 110.17 283.1 111.88 278.4 113.17 278.4 110.78 284.3"/><path class="cls-7" d="M332,281.3v0.4h-4.7a1.45,1.45,0,0,0,.2.7,1.84,1.84,0,0,0,1,1,2,2,0,0,0,1.7-.2,4.35,4.35,0,0,0,.7-0.6l0.8,0.7a3.13,3.13,0,0,1-1.1.9,3.19,3.19,0,0,1-1.4.3,5.07,5.07,0,0,1-1.3-.2,8.79,8.79,0,0,1-1-.6,2.55,2.55,0,0,1-.7-1,2.74,2.74,0,0,1-.2-1.3,5.07,5.07,0,0,1,.2-1.3,8.79,8.79,0,0,1,.6-1,2.08,2.08,0,0,1,1-.6,2.54,2.54,0,0,1,1.2-.2,5,5,0,0,1,1.2.2,1.46,1.46,0,0,1,.9.6,8.79,8.79,0,0,1,.6,1,2.13,2.13,0,0,1,.3,1.2h0Zm-1.2-.5a1.7,1.7,0,0,0-.1-0.7,1.73,1.73,0,0,0-.8-0.9,1.48,1.48,0,0,0-.7-0.1c-0.2,0-.5.1-0.7,0.1a2.09,2.09,0,0,0-.6.4,1.76,1.76,0,0,0-.4.5,1.45,1.45,0,0,0-.2.7h3.5Z" transform="translate(-212.12)"/><path class="cls-7" d="M336.8,279.9a1,1,0,0,0-.6-0.5,1.88,1.88,0,0,0-.8-0.2,0.6,0.6,0,0,0-.4.1c-0.1,0-.3.1-0.4,0.1a0.53,0.53,0,0,0-.3.2,0.48,0.48,0,0,0-.1.4,0.86,0.86,0,0,0,.3.6,6.21,6.21,0,0,0,1,.3c0.3,0.1.5,0.1,0.8,0.2a3.33,3.33,0,0,1,.6.3,1,1,0,0,1,.4.5,1.45,1.45,0,0,1,.2.7,2.92,2.92,0,0,1-.2.9,2.65,2.65,0,0,1-.5.6,1.91,1.91,0,0,1-.8.3,3.34,3.34,0,0,1-2.2-.2,2.84,2.84,0,0,1-1.1-.8l0.8-.7a4.35,4.35,0,0,0,.7.6,1.49,1.49,0,0,0,.9.2h0.4c0.1,0,.3-0.1.4-0.1l0.3-.3a0.48,0.48,0,0,0,.1-0.4,0.55,0.55,0,0,0-.4-0.6c-0.3-.1-0.7-0.2-1.2-0.4-0.2-.1-0.4-0.1-0.6-0.2l-0.6-.3a1,1,0,0,1-.4-0.5,1.45,1.45,0,0,1-.2-0.7,1.88,1.88,0,0,1,.2-0.8,2.65,2.65,0,0,1,.5-0.6,0.91,0.91,0,0,1,.7-0.3,2.2,2.2,0,0,1,.8-0.1,2.66,2.66,0,0,1,1.2.3,2.18,2.18,0,0,1,.9.7l-0.4.7h0Z" transform="translate(-212.12)"/><path class="cls-7" d="M342.1,279.3h-1.6v3.1a1.55,1.55,0,0,0,.2.8,0.56,0.56,0,0,0,.6.2h0.4c0.1,0,.2-0.1.3-0.1v1a0.75,0.75,0,0,1-.5.1c-0.2,0-.3.1-0.5,0.1a1.73,1.73,0,0,1-1.3-.5,2,2,0,0,1-.4-1.4v-3.2h-1.1v-1h1.1v-1.7h1.2v1.7h1.6v0.9h0Z" transform="translate(-212.12)"/><path class="cls-7" d="M345.2,278.6a2.13,2.13,0,0,1,1.2-.3,2,2,0,0,1,1.1.3,2.36,2.36,0,0,1,.8.9,2.36,2.36,0,0,1,.8-0.9,2.66,2.66,0,0,1,1.2-.3,3,3,0,0,1,1,.2,1.79,1.79,0,0,1,.7.5,2,2,0,0,1,.4.8,3.08,3.08,0,0,1,.1,1v3.7h-1.2v-3.3a1.48,1.48,0,0,0-.1-0.7,1.42,1.42,0,0,0-.2-0.6,0.78,0.78,0,0,0-.4-0.4,1.42,1.42,0,0,0-.6-0.2,1.45,1.45,0,0,0-.7.2,1.76,1.76,0,0,0-.5.4l-0.3.6a1.7,1.7,0,0,0-.1.7v3.2h-1.1v-3.5a1.08,1.08,0,0,0-.1-0.6,0.76,0.76,0,0,0-.2-0.5,0.62,0.62,0,0,0-.4-0.3,1.27,1.27,0,0,0-.6-0.1,1.61,1.61,0,0,0-1.1.5,2,2,0,0,0-.4,1.4v3.2h-1.2v-6h1.1v1h0a2.36,2.36,0,0,1,.8-0.9h0Z" transform="translate(-212.12)"/><path class="cls-7" d="M360,281.3v0.4h-4.7a1.45,1.45,0,0,0,.2.7,1.84,1.84,0,0,0,1,1,2,2,0,0,0,1.7-.2,4.35,4.35,0,0,0,.7-0.6l0.8,0.7a3.13,3.13,0,0,1-1.1.9,3.19,3.19,0,0,1-1.4.3,5.07,5.07,0,0,1-1.3-.2,3.33,3.33,0,0,1-1-.6,2.55,2.55,0,0,1-.7-1,2.74,2.74,0,0,1-.2-1.3,5.07,5.07,0,0,1,.2-1.3,8.79,8.79,0,0,1,.6-1,2.08,2.08,0,0,1,1-.6,2.54,2.54,0,0,1,1.2-.2,5,5,0,0,1,1.2.2,1.46,1.46,0,0,1,.9.6,8.79,8.79,0,0,1,.6,1,2.13,2.13,0,0,1,.3,1.2h0Zm-1.2-.5a1.7,1.7,0,0,0-.1-0.7,1.73,1.73,0,0,0-.8-0.9,1.48,1.48,0,0,0-.7-0.1c-0.3,0-.5.1-0.7,0.1a2.09,2.09,0,0,0-.6.4,1.76,1.76,0,0,0-.4.5,1.45,1.45,0,0,0-.2.7h3.5Z" transform="translate(-212.12)"/><path class="cls-7" d="M362.7,278.4v1h0c0.1-.2.2-0.3,0.3-0.5a1.51,1.51,0,0,1,.4-0.4,1.42,1.42,0,0,1,.6-0.2,1.27,1.27,0,0,1,.6-0.1,3,3,0,0,1,1,.2,1.79,1.79,0,0,1,.7.5,2,2,0,0,1,.4.8,3.08,3.08,0,0,1,.1,1v3.7h-1.2v-3.3a1.48,1.48,0,0,0-.1-0.7,1.42,1.42,0,0,0-.2-0.6,0.78,0.78,0,0,0-.4-0.4,1.45,1.45,0,0,0-.7-0.2,1.29,1.29,0,0,0-1.1.5,2,2,0,0,0-.4,1.4v3.2h-1.2v-6h1.2v0.1h0Z" transform="translate(-212.12)"/><path class="cls-7" d="M371.8,279.3h-1.5v3.1a1.55,1.55,0,0,0,.2.8,0.56,0.56,0,0,0,.6.2h0.4c0.1,0,.2-0.1.3-0.1v1a0.75,0.75,0,0,1-.5.1c-0.2,0-.3.1-0.5,0.1a1.73,1.73,0,0,1-1.3-.5,2,2,0,0,1-.4-1.4v-3.2H368v-1h1.1v-1.7h1.2v1.7h1.6v0.9h-0.1Z" transform="translate(-212.12)"/><polygon class="cls-7" points="96.58 294.5 96.58 294.5 99.17 287.6 101.17 287.6 101.17 296.5 99.88 296.5 99.88 289.1 99.88 289.1 96.88 296.5 96.17 296.5 93.17 289.1 93.17 289.1 93.17 296.5 91.97 296.5 91.97 287.6 93.88 287.6 96.58 294.5"/><path class="cls-7" d="M319.1,292.7a1.16,1.16,0,0,0-.4-1,1.8,1.8,0,0,0-1.1-.3,2.39,2.39,0,0,0-.9.2,1.79,1.79,0,0,0-.7.5l-0.6-.8a2.38,2.38,0,0,1,1.1-.6,3.18,3.18,0,0,1,1.4-.2,3.59,3.59,0,0,1,1.1.2,2.18,2.18,0,0,1,.8.5,3,3,0,0,1,.5.7,2.92,2.92,0,0,1,.2.9V296a0.75,0.75,0,0,0,.1.5h-1.1a2.77,2.77,0,0,1-.1-0.9h0a1.78,1.78,0,0,1-.8.7,2.13,2.13,0,0,1-1.2.3,1.7,1.7,0,0,1-.7-0.1,4.88,4.88,0,0,1-.7-0.3,1.47,1.47,0,0,1-.5-0.6,2,2,0,0,1-.2-0.9,1.37,1.37,0,0,1,.4-1.1,1.7,1.7,0,0,1,1-.6c0.4-.1.8-0.2,1.3-0.3a7.57,7.57,0,0,1,1.5-.1v0.1h-0.4Zm-0.3,1h-0.9c-0.3,0-.6.1-0.9,0.1a1.63,1.63,0,0,0-.6.3,0.6,0.6,0,0,0-.3.6,0.48,0.48,0,0,0,.1.4l0.3,0.3a1.47,1.47,0,0,0,.4.2h0.4a1.73,1.73,0,0,0,1.3-.5,1.59,1.59,0,0,0,.4-1.2v-0.3h-0.2v0.1h0Z" transform="translate(-212.12)"/><path class="cls-7" d="M323.2,290.6v1h0c0.1-.2.2-0.3,0.3-0.5l0.4-.4a1.42,1.42,0,0,1,.6-0.2c0.2,0,.4-0.1.6-0.1a3,3,0,0,1,1,.2,1.79,1.79,0,0,1,.7.5,2,2,0,0,1,.4.8,2.77,2.77,0,0,1,.1.9v3.7h-1v-3.3a1.7,1.7,0,0,0-.1-0.7,1.42,1.42,0,0,0-.2-0.6,0.78,0.78,0,0,0-.4-0.4,1.45,1.45,0,0,0-.7-0.2,1.29,1.29,0,0,0-1.1.5,2.12,2.12,0,0,0-.4,1.4v3.2h-1.2v-6h1v0.2h0Z" transform="translate(-212.12)"/><path class="cls-7" d="M333.2,292.7a1.16,1.16,0,0,0-.4-1,1.8,1.8,0,0,0-1.1-.3,2.39,2.39,0,0,0-.9.2,1.79,1.79,0,0,0-.7.5l-0.6-.8a2.38,2.38,0,0,1,1.1-.6,3.18,3.18,0,0,1,1.4-.2,3.59,3.59,0,0,1,1.1.2,2.18,2.18,0,0,1,.8.5,3,3,0,0,1,.5.7,2.92,2.92,0,0,1,.2.9V296a0.75,0.75,0,0,0,.1.5h-1.4a2.77,2.77,0,0,1-.1-0.9h0a1.78,1.78,0,0,1-.8.7,2.13,2.13,0,0,1-1.2.3,1.7,1.7,0,0,1-.7-0.1,4.88,4.88,0,0,1-.7-0.3,1.47,1.47,0,0,1-.5-0.6,2,2,0,0,1-.2-0.9,1.37,1.37,0,0,1,.4-1.1,1.7,1.7,0,0,1,1-.6c0.4-.1.8-0.2,1.3-0.3a7.57,7.57,0,0,1,1.5-.1v0.1h-0.1Zm-0.3,1H332c-0.3,0-.6.1-0.9,0.1a1.63,1.63,0,0,0-.6.3,0.6,0.6,0,0,0-.3.6,0.48,0.48,0,0,0,.1.4l0.3,0.3a1.47,1.47,0,0,0,.4.2h0.4a1.73,1.73,0,0,0,1.3-.5,1.59,1.59,0,0,0,.4-1.2v-0.3h-0.2v0.1h0Z" transform="translate(-212.12)"/><path class="cls-7" d="M336.7,297.5a3.59,3.59,0,0,0,1,.7,2.66,2.66,0,0,0,1.2.3,3,3,0,0,0,1-.2,1,1,0,0,0,.6-0.5,1.61,1.61,0,0,0,.4-0.7,2.77,2.77,0,0,0,.1-0.9v-0.8h0a2.36,2.36,0,0,1-.9.8,2.66,2.66,0,0,1-1.2.3,3.73,3.73,0,0,1-1.2-.2,2.18,2.18,0,0,1-.9-0.7,2.08,2.08,0,0,1-.6-1,3.7,3.7,0,0,1,0-2.4,2.07,2.07,0,0,1,.6-1,5.5,5.5,0,0,1,.9-0.7,2.54,2.54,0,0,1,1.2-.2,2.66,2.66,0,0,1,1.2.3,2.36,2.36,0,0,1,.9.8h0v-1h1.1v5.7a5,5,0,0,1-.2,1.2,2.07,2.07,0,0,1-.6,1,2.29,2.29,0,0,1-1,.7,3.51,3.51,0,0,1-1.6.3,5,5,0,0,1-1.6-.3,4.11,4.11,0,0,1-1.3-.8l0.9-.7h0Zm0.4-4a2.2,2.2,0,0,0,.1.8,1.61,1.61,0,0,0,.4.7c0.2,0.2.4,0.3,0.6,0.5a1.7,1.7,0,0,0,1.6,0,0.92,0.92,0,0,0,.6-0.4,1.61,1.61,0,0,0,.4-0.7,2,2,0,0,0,.1-0.8,2.2,2.2,0,0,0-.1-0.8,2.51,2.51,0,0,0-.4-0.7c-0.2-.2-0.4-0.3-0.6-0.5a1.7,1.7,0,0,0-1.6,0,1.47,1.47,0,0,0-.6.5,1.61,1.61,0,0,0-.4.7,1.29,1.29,0,0,0-.1.7h0Z" transform="translate(-212.12)"/><path class="cls-7" d="M349.8,293.5v0.4h-4.7a2.14,2.14,0,0,0,1.2,1.7,2,2,0,0,0,1.7-.2,4.35,4.35,0,0,0,.7-0.6l0.8,0.7a3.13,3.13,0,0,1-1.1.9,3.19,3.19,0,0,1-1.4.3,5.06,5.06,0,0,1-1.3-.2,8.8,8.8,0,0,1-1-.6,2.55,2.55,0,0,1-.7-1,2.74,2.74,0,0,1-.2-1.3,5.07,5.07,0,0,1,.2-1.3,8.79,8.79,0,0,1,.6-1,3.59,3.59,0,0,1,1-.7,2.54,2.54,0,0,1,1.2-.2,5,5,0,0,1,1.2.2,2,2,0,0,1,.9.6,8.79,8.79,0,0,1,.6,1,2.77,2.77,0,0,1,.3,1.3h0Zm-1.3-.5a1.7,1.7,0,0,0-.1-0.7,2.19,2.19,0,0,0-.3-0.5,0.85,0.85,0,0,0-.5-0.3,2.5,2.5,0,0,0-1.4,0l-0.6.3a1.76,1.76,0,0,0-.4.5,1.45,1.45,0,0,0-.2.7h3.5Z" transform="translate(-212.12)"/><path class="cls-7" d="M353.3,290.7a2.13,2.13,0,0,1,1.2-.3,2,2,0,0,1,1.1.3,2.36,2.36,0,0,1,.8.9,2.36,2.36,0,0,1,.8-0.9,2.66,2.66,0,0,1,1.2-.3,3,3,0,0,1,1,.2,1.79,1.79,0,0,1,.7.5,2,2,0,0,1,.4.8,2.77,2.77,0,0,1,.1.9v3.7h-1.3v-3.3a1.7,1.7,0,0,0-.1-0.7,1.42,1.42,0,0,0-.2-0.6,0.78,0.78,0,0,0-.4-0.4,1.42,1.42,0,0,0-.6-0.2,1.45,1.45,0,0,0-.7.2c-0.2.1-.3,0.3-0.5,0.4l-0.3.6a1.7,1.7,0,0,0-.1.7v3.2h-1.1v-3.5a1.08,1.08,0,0,0-.1-0.6,0.76,0.76,0,0,0-.2-0.5,1.38,1.38,0,0,0-.4-0.3,1.27,1.27,0,0,0-.6-0.1,1.61,1.61,0,0,0-1.1.5,2.12,2.12,0,0,0-.4,1.4v3.2h-1.2v-6h1.1v1h0a7.28,7.28,0,0,1,.9-0.8h0Z" transform="translate(-212.12)"/><path class="cls-7" d="M368.1,293.5v0.4h-4.8a2.14,2.14,0,0,0,1.2,1.7,2,2,0,0,0,1.7-.2,4.35,4.35,0,0,0,.7-0.6l0.8,0.7a3.13,3.13,0,0,1-1.1.9,3.19,3.19,0,0,1-1.4.3,5.06,5.06,0,0,1-1.3-.2,8.8,8.8,0,0,1-1-.6,3.59,3.59,0,0,1-.7-1,2.74,2.74,0,0,1-.2-1.3,5.07,5.07,0,0,1,.2-1.3,8.79,8.79,0,0,1,.6-1,3.59,3.59,0,0,1,1-.7,2.54,2.54,0,0,1,1.2-.2,5,5,0,0,1,1.2.2,2,2,0,0,1,.9.6,8.79,8.79,0,0,1,.6,1,2,2,0,0,1,.4,1.3h0Zm-1.2-.5a1.7,1.7,0,0,0-.1-0.7,2.19,2.19,0,0,0-.3-0.5,0.85,0.85,0,0,0-.5-0.3,2.5,2.5,0,0,0-1.4,0l-0.6.3a1.76,1.76,0,0,0-.4.5,1.45,1.45,0,0,0-.2.7h3.5Z" transform="translate(-212.12)"/><path class="cls-7" d="M370.8,290.6v1h0c0.1-.2.2-0.3,0.3-0.5l0.4-.4a1.42,1.42,0,0,1,.6-0.2c0.2,0,.4-0.1.6-0.1a3,3,0,0,1,1,.2,1.79,1.79,0,0,1,.7.5,2,2,0,0,1,.4.8,2.77,2.77,0,0,1,.1.9v3.7h-1.2v-3.3a1.7,1.7,0,0,0-.1-0.7,1.42,1.42,0,0,0-.2-0.6,0.78,0.78,0,0,0-.4-0.4,1.45,1.45,0,0,0-.7-0.2,1.29,1.29,0,0,0-1.1.5,2.12,2.12,0,0,0-.4,1.4v3.2h-1.2v-6h1.2v0.2h0Z" transform="translate(-212.12)"/><path class="cls-7" d="M379.9,291.5h-1.6v3.1a1.55,1.55,0,0,0,.2.8,0.56,0.56,0,0,0,.6.2h0.4c0.1,0,.2-0.1.3-0.1v1a4.34,4.34,0,0,1-.5.1h-0.5a1.73,1.73,0,0,1-1.3-.5,2,2,0,0,1-.4-1.4v-3.2H376v-1h1.1v-1.6h1.2v1.7h1.6v0.9h0Z" transform="translate(-212.12)"/><path class="cls-7" d="M481,118.5a4.07,4.07,0,0,1-1.4,1.2,4.21,4.21,0,0,1-2,.4,5.82,5.82,0,0,1-1.9-.3,4,4,0,0,1-1.5-1,5.6,5.6,0,0,1-1-1.5,5.85,5.85,0,0,1-.4-1.9,4.06,4.06,0,0,1,.4-1.9,4,4,0,0,1,1-1.5,3.77,3.77,0,0,1,1.5-.9,5.82,5.82,0,0,1,1.9-.3,2.77,2.77,0,0,1,.9.1,3.18,3.18,0,0,1,.9.3c0.3,0.1.5,0.3,0.8,0.4l0.6,0.6-1,.8a2.18,2.18,0,0,0-.9-0.7,2.77,2.77,0,0,0-1.3-.3,3.19,3.19,0,0,0-1.4.3,2.84,2.84,0,0,0-1.1.8,4.13,4.13,0,0,0-.7,1.1,3.18,3.18,0,0,0-.2,1.4,5.9,5.9,0,0,0,.2,1.4,4.13,4.13,0,0,0,.7,1.1,3.13,3.13,0,0,0,1.1.8,3.42,3.42,0,0,0,2.8,0,2.84,2.84,0,0,0,1-.9l1,0.5h0Z" transform="translate(-212.12)"/><polygon class="cls-7" points="271.27 119.9 270.07 119.9 270.07 110.4 271.27 110.4 271.27 119.9"/><path class="cls-7" d="M486.8,111.8a0.76,0.76,0,0,1-.2.5,1.07,1.07,0,0,1-.6.2,0.7,0.7,0,1,1,0-1.4h0a1.42,1.42,0,0,1,.6.2,0.76,0.76,0,0,1,.2.5h0Zm-0.2,8.1h-1.2v-6h1.2v6h0Z" transform="translate(-212.12)"/><path class="cls-7" d="M494.3,116.9v0.4h-4.7a2.14,2.14,0,0,0,1.2,1.7,2,2,0,0,0,1.7-.2,4.35,4.35,0,0,0,.7-0.6l0.8,0.7a3.13,3.13,0,0,1-1.1.9,3.19,3.19,0,0,1-1.4.3,5.07,5.07,0,0,1-1.3-.2,8.79,8.79,0,0,1-1-.6,3.59,3.59,0,0,1-.7-1,2.74,2.74,0,0,1-.2-1.3,5.06,5.06,0,0,1,.2-1.3,8.81,8.81,0,0,1,.6-1,2.07,2.07,0,0,1,1-.6,2.54,2.54,0,0,1,1.2-.2,5,5,0,0,1,1.2.2,1.46,1.46,0,0,1,.9.6,8.78,8.78,0,0,1,.6,1,1.92,1.92,0,0,1,.3,1.2h0Zm-1.2-.5a1.7,1.7,0,0,0-.1-0.7,2.19,2.19,0,0,0-.3-0.5,1,1,0,0,0-.5-0.4,2.5,2.5,0,0,0-1.4,0,2.09,2.09,0,0,0-.6.4,1.76,1.76,0,0,0-.4.5,1.45,1.45,0,0,0-.2.7h3.5Z" transform="translate(-212.12)"/><path class="cls-7" d="M497,113.9v1h0a1.38,1.38,0,0,1,.3-0.4l0.4-.4a1.42,1.42,0,0,1,.6-0.2,1.27,1.27,0,0,1,.6-0.1,3,3,0,0,1,1,.2,1.79,1.79,0,0,1,.7.5,2,2,0,0,1,.4.8,2.77,2.77,0,0,1,.1.9v3.7h-1.2v-3.3a1.7,1.7,0,0,0-.1-0.7,1.42,1.42,0,0,0-.2-0.6,0.78,0.78,0,0,0-.4-0.4,1.45,1.45,0,0,0-.7-0.2,1.29,1.29,0,0,0-1.1.5,2.12,2.12,0,0,0-.4,1.4v3.2h-1.2v-6H497v0.1h0Z" transform="translate(-212.12)"/><path class="cls-7" d="M506.1,114.9h-1.6V118a1.55,1.55,0,0,0,.2.8,0.56,0.56,0,0,0,.6.2h0.4c0.1,0,.2-0.1.3-0.1v1a4.34,4.34,0,0,1-.5.1H505a1.73,1.73,0,0,1-1.3-.5,2,2,0,0,1-.4-1.4v-3.2h-1.1v-1h1.1v-1.7h1.2v1.7h1.6v1h0Z" transform="translate(-212.12)"/><path class="cls-7" d="M457.8,132.1h-1.2v-8.9h2.8a4.87,4.87,0,0,1,1.2.1,3,3,0,0,1,1,.4,1.85,1.85,0,0,1,.7.8,2,2,0,0,1,.3,1.1,2.11,2.11,0,0,1-.6,1.6,2.72,2.72,0,0,1-1.6.8l2.5,4.1h-1.5l-2.3-4h-1.3v4h0Zm0-5h1.4a2,2,0,0,0,.8-0.1,6.37,6.37,0,0,0,.7-0.2,1.51,1.51,0,0,0,.4-0.4,1.32,1.32,0,0,0,0-1.4,1.51,1.51,0,0,0-.4-0.4,1.42,1.42,0,0,0-.6-0.2c-0.2,0-.5-0.1-0.8-0.1h-1.5v2.8h0Z" transform="translate(-212.12)"/><path class="cls-7" d="M469.6,129v0.4h-4.7a2.14,2.14,0,0,0,1.2,1.7,2,2,0,0,0,1.7-.2,4.35,4.35,0,0,0,.7-0.6l0.8,0.7a3.13,3.13,0,0,1-1.1.9,3.19,3.19,0,0,1-1.4.3,5.07,5.07,0,0,1-1.3-.2,8.79,8.79,0,0,1-1-.6,3.59,3.59,0,0,1-.7-1,2.74,2.74,0,0,1-.2-1.3,5.06,5.06,0,0,1,.2-1.3,8.81,8.81,0,0,1,.6-1,2.07,2.07,0,0,1,1-.6,2.54,2.54,0,0,1,1.2-.2,5,5,0,0,1,1.2.2,1.46,1.46,0,0,1,.9.6,8.78,8.78,0,0,1,.6,1,1.56,1.56,0,0,1,.3,1.2h0Zm-1.2-.5a1.7,1.7,0,0,0-.1-0.7,1.73,1.73,0,0,0-.8-0.9,2.5,2.5,0,0,0-1.4,0,2.09,2.09,0,0,0-.6.4,1.76,1.76,0,0,0-.4.5,1.45,1.45,0,0,0-.2.7h3.5Z" transform="translate(-212.12)"/><polygon class="cls-7" points="260.38 132.1 259.18 132.1 259.18 122.6 260.38 122.6 260.38 132.1"/><path class="cls-7" d="M478.2,128.2a1.16,1.16,0,0,0-.4-1,1.8,1.8,0,0,0-1.1-.3,2.92,2.92,0,0,0-.9.2,1.79,1.79,0,0,0-.7.5l-0.6-.8a4.13,4.13,0,0,1,1.1-.7,3.18,3.18,0,0,1,1.4-.2,3.59,3.59,0,0,1,1.1.2,2.18,2.18,0,0,1,.8.5,3,3,0,0,1,.5.7,2.92,2.92,0,0,1,.2.9v3.2a0.75,0.75,0,0,0,.1.5h-1.1a2.77,2.77,0,0,1-.1-0.9h0a1.78,1.78,0,0,1-.8.7,2.13,2.13,0,0,1-1.2.3,1.7,1.7,0,0,1-.7-0.1,4.88,4.88,0,0,1-.7-0.3,1,1,0,0,1-.5-0.6,2,2,0,0,1-.2-0.9,1.37,1.37,0,0,1,.4-1.1,1.7,1.7,0,0,1,1-.6c0.4-.1.8-0.2,1.3-0.3a7.57,7.57,0,0,1,1.5-.1v0.2h-0.4Zm-0.3,1H477a2.92,2.92,0,0,0-.9.2,1.63,1.63,0,0,0-.6.3,0.56,0.56,0,0,0-.2.6,0.48,0.48,0,0,0,.1.4l0.3,0.3a1.47,1.47,0,0,0,.4.2h0.4a1.73,1.73,0,0,0,1.3-.5,1.59,1.59,0,0,0,.4-1.2v-0.3h-0.3Z" transform="translate(-212.12)"/><path class="cls-7" d="M484.1,127.1h-1.6v3.1a1.55,1.55,0,0,0,.2.8,0.56,0.56,0,0,0,.6.2h0.4c0.1,0,.2-0.1.3-0.1v1a4.34,4.34,0,0,1-.5.1H483a1.73,1.73,0,0,1-1.3-.5,2,2,0,0,1-.4-1.4v-3.2h-1.1v-1h1.1v-1.7h1.2v1.7h1.6v1h0Z" transform="translate(-212.12)"/><path class="cls-7" d="M486.7,124a0.76,0.76,0,0,1-.2.5,1.07,1.07,0,0,1-.6.2,0.71,0.71,0,0,1-.5-1.2,1.06,1.06,0,0,1,.5-0.2,1.42,1.42,0,0,1,.6.2,0.59,0.59,0,0,1,.2.5h0Zm-0.2,8.1h-1.2v-5.9h1.2v5.9h0Z" transform="translate(-212.12)"/><path class="cls-7" d="M494.6,129.1a5.06,5.06,0,0,1-.2,1.3,3.51,3.51,0,0,1-1.7,1.7,2.74,2.74,0,0,1-1.3.2,5.07,5.07,0,0,1-1.3-.2,3.51,3.51,0,0,1-1.7-1.7,2.74,2.74,0,0,1-.2-1.3,5.06,5.06,0,0,1,.2-1.3,3.59,3.59,0,0,1,.7-1,2.07,2.07,0,0,1,1-.6,2.74,2.74,0,0,1,1.3-.2,5.07,5.07,0,0,1,1.3.2,8.79,8.79,0,0,1,1,.6,3.59,3.59,0,0,1,.7,1,5.06,5.06,0,0,1,.2,1.3h0Zm-1.2,0a2,2,0,0,0-.1-0.8,1.61,1.61,0,0,0-.4-0.7,2.65,2.65,0,0,0-.6-0.5,2,2,0,0,0-.9-0.2,2.92,2.92,0,0,0-.9.2,1.47,1.47,0,0,0-.6.5,1.61,1.61,0,0,0-.4.7,2.2,2.2,0,0,0-.1.8,2,2,0,0,0,.1.8,1.61,1.61,0,0,0,.4.7,2.65,2.65,0,0,0,.6.5,2,2,0,0,0,.9.2,2.92,2.92,0,0,0,.9-0.2,1.47,1.47,0,0,0,.6-0.5,1.61,1.61,0,0,0,.4-0.7c0-.3.1-0.5,0.1-0.8h0Z" transform="translate(-212.12)"/><path class="cls-7" d="M497.3,126.1v1h0a1.38,1.38,0,0,1,.3-0.4l0.4-.4a1.42,1.42,0,0,1,.6-0.2,1.27,1.27,0,0,1,.6-0.1,3,3,0,0,1,1,.2,1.79,1.79,0,0,1,.7.5,2,2,0,0,1,.4.8,2.77,2.77,0,0,1,.1.9v3.7h-1.1v-3.3a1.7,1.7,0,0,0-.1-0.7,1.42,1.42,0,0,0-.2-0.6,0.78,0.78,0,0,0-.4-0.4,1.45,1.45,0,0,0-.7-0.2,1.29,1.29,0,0,0-1.1.5,2.12,2.12,0,0,0-.4,1.4V132h-1.2v-6h1.1v0.1Z" transform="translate(-212.12)"/><path class="cls-7" d="M506.7,127.6a1,1,0,0,0-.6-0.5,1.88,1.88,0,0,0-.8-0.2h-0.4c-0.1,0-.3.1-0.4,0.1a0.53,0.53,0,0,0-.3.2,0.48,0.48,0,0,0-.1.4,0.71,0.71,0,0,0,.3.6,6.21,6.21,0,0,0,1,.3c0.3,0.1.5,0.1,0.8,0.2a3.33,3.33,0,0,1,.6.3,1,1,0,0,1,.4.5,1.45,1.45,0,0,1,.2.7,2.39,2.39,0,0,1-.2.9,2.65,2.65,0,0,1-.5.6,1.14,1.14,0,0,1-.8.3,3.34,3.34,0,0,1-2.2-.2,2.84,2.84,0,0,1-1.1-.8l0.8-.7a4.35,4.35,0,0,0,.7.6,1.49,1.49,0,0,0,.9.2h0.4c0.1,0,.3-0.1.4-0.1l0.3-.3a0.48,0.48,0,0,0,.1-0.4,0.55,0.55,0,0,0-.4-0.6,5.48,5.48,0,0,0-1.2-.4c-0.2-.1-0.4-0.1-0.6-0.2l-0.6-.3a1,1,0,0,1-.4-0.5,1.45,1.45,0,0,1-.2-0.7,1.88,1.88,0,0,1,.2-0.8,2.65,2.65,0,0,1,.5-0.6,1.49,1.49,0,0,1,.7-0.3,2.2,2.2,0,0,1,.8-0.1,2.66,2.66,0,0,1,1.2.3,2.18,2.18,0,0,1,.9.7l-0.4.8h0Z" transform="translate(-212.12)"/><path class="cls-7" d="M510.3,127a2.51,2.51,0,0,1,.7-0.8,2.13,2.13,0,0,1,1.2-.3,3,3,0,0,1,1,.2,1.79,1.79,0,0,1,.7.5,2,2,0,0,1,.4.8,2.77,2.77,0,0,1,.1.9V132h-1.2v-3.3a1.7,1.7,0,0,0-.1-0.7,1.42,1.42,0,0,0-.2-0.6,0.78,0.78,0,0,0-.4-0.4,1.45,1.45,0,0,0-.7-0.2,1.66,1.66,0,0,0-1.2.5,2.17,2.17,0,0,0-.5,1.4v3.2h-1.2v-9.5h1.2l0.2,4.6h0Z" transform="translate(-212.12)"/><path class="cls-7" d="M517.8,124a0.76,0.76,0,0,1-.2.5,1.07,1.07,0,0,1-.6.2,0.71,0.71,0,0,1-.5-1.2,1.06,1.06,0,0,1,.5-0.2,1.42,1.42,0,0,1,.6.2,0.59,0.59,0,0,1,.2.5h0Zm-0.2,8.1h-1.2v-5.9h1.2v5.9h0Z" transform="translate(-212.12)"/><path class="cls-7" d="M520.9,135.1h-1.2v-9h1.2V127h0a3,3,0,0,1,.8-0.8,2.77,2.77,0,0,1,1.3-.3,5,5,0,0,1,1.2.2,2.18,2.18,0,0,1,.9.7,2.07,2.07,0,0,1,.6,1,3.7,3.7,0,0,1,0,2.4,2.07,2.07,0,0,1-.6,1,5.49,5.49,0,0,1-.9.7,2.54,2.54,0,0,1-1.2.2,2.66,2.66,0,0,1-1.2-.3,1.76,1.76,0,0,1-.9-0.8h0v4.1h0Zm3.9-6a2.2,2.2,0,0,0-.1-0.8,1.61,1.61,0,0,0-.4-0.7,2.65,2.65,0,0,0-.6-0.5,2,2,0,0,0-.9-0.2,1.88,1.88,0,0,0-.8.2,1.47,1.47,0,0,0-.6.5,1.61,1.61,0,0,0-.4.7,2.2,2.2,0,0,0-.1.8,2,2,0,0,0,.1.8,1.61,1.61,0,0,0,.4.7,2.65,2.65,0,0,0,.6.5,1.88,1.88,0,0,0,.8.2,2.92,2.92,0,0,0,.9-0.2,1.47,1.47,0,0,0,.6-0.5,1.61,1.61,0,0,0,.4-0.7c0-.3.1-0.6,0.1-0.8h0Z" transform="translate(-212.12)"/><polygon class="cls-7" points="246.88 142.2 246.88 142.2 249.57 135.3 251.47 135.3 251.47 144.2 250.28 144.2 250.28 136.8 250.18 136.8 247.28 144.2 246.47 144.2 243.57 136.8 243.47 136.8 243.47 144.2 242.28 144.2 242.28 135.3 244.28 135.3 246.88 142.2"/><path class="cls-7" d="M469.4,140.4a1.16,1.16,0,0,0-.4-1,1.8,1.8,0,0,0-1.1-.3,2.39,2.39,0,0,0-.9.2,3,3,0,0,0-.7.5l-0.6-.8a4.13,4.13,0,0,1,1.1-.7,3.18,3.18,0,0,1,1.4-.2,3.59,3.59,0,0,1,1.1.2,2.18,2.18,0,0,1,.8.5,3,3,0,0,1,.5.7,2.92,2.92,0,0,1,.2.9v3.2a0.75,0.75,0,0,0,.1.5h-1.1a2.77,2.77,0,0,1-.1-0.9h0a1.78,1.78,0,0,1-.8.7,2.13,2.13,0,0,1-1.2.3,1.7,1.7,0,0,1-.7-0.1,4.88,4.88,0,0,1-.7-0.3,1,1,0,0,1-.5-0.6,2,2,0,0,1-.2-0.9,1.37,1.37,0,0,1,.4-1.1,1.7,1.7,0,0,1,1-.6c0.4-.1.8-0.2,1.3-0.3a7.57,7.57,0,0,1,1.5-.1v0.2h-0.4Zm-0.3,1h-0.9a2.92,2.92,0,0,0-.9.2,1.63,1.63,0,0,0-.6.3,0.86,0.86,0,0,0-.3.6,0.48,0.48,0,0,0,.1.4l0.3,0.3a1.47,1.47,0,0,0,.4.2h0.4a1.73,1.73,0,0,0,1.3-.5,1.59,1.59,0,0,0,.4-1.2v-0.3h-0.2Z" transform="translate(-212.12)"/><path class="cls-7" d="M473.6,138.3v1h0a1.38,1.38,0,0,1,.3-0.4l0.4-.4a1.42,1.42,0,0,1,.6-0.2,1.27,1.27,0,0,1,.6-0.1,3,3,0,0,1,1,.2,1.79,1.79,0,0,1,.7.5,2,2,0,0,1,.4.8,2.77,2.77,0,0,1,.1.9v3.7h-1.2v-3.4a1.7,1.7,0,0,0-.1-0.7,1.42,1.42,0,0,0-.2-0.6,0.78,0.78,0,0,0-.4-0.4,1.45,1.45,0,0,0-.7-0.2,1.29,1.29,0,0,0-1.1.5,2.12,2.12,0,0,0-.4,1.4v3.2h-1.2v-6h1.2v0.2h0Z" transform="translate(-212.12)"/><path class="cls-7" d="M483.5,140.4a1.16,1.16,0,0,0-.4-1,1.8,1.8,0,0,0-1.1-.3,2.39,2.39,0,0,0-.9.2,3,3,0,0,0-.7.5l-0.6-.8a4.13,4.13,0,0,1,1.1-.7,3.18,3.18,0,0,1,1.4-.2,3.59,3.59,0,0,1,1.1.2,2.18,2.18,0,0,1,.8.5,3,3,0,0,1,.5.7,2.92,2.92,0,0,1,.2.9v3.2a0.75,0.75,0,0,0,.1.5h-1.1a2.77,2.77,0,0,1-.1-0.9h0a1.78,1.78,0,0,1-.8.7,2.13,2.13,0,0,1-1.2.3,1.7,1.7,0,0,1-.7-0.1,4.88,4.88,0,0,1-.7-0.3,1,1,0,0,1-.5-0.6,2,2,0,0,1-.2-0.9,1.37,1.37,0,0,1,.4-1.1,1.7,1.7,0,0,1,1-.6c0.4-.1.8-0.2,1.3-0.3a7.57,7.57,0,0,1,1.5-.1v0.2h-0.4Zm-0.3,1h-0.9a2.92,2.92,0,0,0-.9.2,1.63,1.63,0,0,0-.6.3,0.73,0.73,0,0,0-.2.6,0.48,0.48,0,0,0,.1.4l0.3,0.3a1.47,1.47,0,0,0,.4.2h0.4a1.73,1.73,0,0,0,1.3-.5,1.59,1.59,0,0,0,.4-1.2v-0.3h-0.3Z" transform="translate(-212.12)"/><path class="cls-7" d="M487.1,145.2a3.59,3.59,0,0,0,1,.7,2.66,2.66,0,0,0,1.2.3,3,3,0,0,0,1-.2,1,1,0,0,0,.6-0.5,1.61,1.61,0,0,0,.4-0.7,2.77,2.77,0,0,0,.1-0.9v-0.8h0a2.36,2.36,0,0,1-.9.8,2.66,2.66,0,0,1-1.2.3,3.73,3.73,0,0,1-1.2-.2,2.18,2.18,0,0,1-.9-0.7,2.07,2.07,0,0,1-.6-1,3.7,3.7,0,0,1,0-2.4,2.07,2.07,0,0,1,.6-1,5.49,5.49,0,0,1,.9-0.7,2.54,2.54,0,0,1,1.2-.2,2.66,2.66,0,0,1,1.2.3,2.36,2.36,0,0,1,.9.8h0v-1h1.1v5.6a4.3,4.3,0,0,1-.2,1.2,3,3,0,0,1-.6,1.1,3.59,3.59,0,0,1-1,.7,3.51,3.51,0,0,1-1.6.3,5,5,0,0,1-1.6-.3,4.11,4.11,0,0,1-1.3-.8l0.9-.7h0Zm0.3-4a2.2,2.2,0,0,0,.1.8,1.61,1.61,0,0,0,.4.7c0.2,0.2.4,0.3,0.6,0.5a1.7,1.7,0,0,0,1.6,0,1.54,1.54,0,0,0,.6-0.4,1.61,1.61,0,0,0,.4-0.7,2.2,2.2,0,0,0,.1-0.8,2,2,0,0,0-.1-0.8,1.61,1.61,0,0,0-.4-0.7c-0.2-.2-0.4-0.3-0.6-0.5a1.7,1.7,0,0,0-1.6,0,1.47,1.47,0,0,0-.6.5,1.61,1.61,0,0,0-.4.7,5.65,5.65,0,0,0-.1.7h0Z" transform="translate(-212.12)"/><path class="cls-7" d="M500.1,141.2v0.4h-4.8a2.14,2.14,0,0,0,1.2,1.7,2,2,0,0,0,1.7-.2,4.35,4.35,0,0,0,.7-0.6l0.8,0.7a3.13,3.13,0,0,1-1.1.9,3.19,3.19,0,0,1-1.4.3,5.07,5.07,0,0,1-1.3-.2,8.79,8.79,0,0,1-1-.6,3.59,3.59,0,0,1-.7-1,2.74,2.74,0,0,1-.2-1.3,5.06,5.06,0,0,1,.2-1.3,8.81,8.81,0,0,1,.6-1,2.07,2.07,0,0,1,1-.6,2.54,2.54,0,0,1,1.2-.2,5,5,0,0,1,1.2.2,1.46,1.46,0,0,1,.9.6,8.78,8.78,0,0,1,.6,1,1.59,1.59,0,0,1,.4,1.2h0Zm-1.2-.5a1.7,1.7,0,0,0-.1-0.7,2.19,2.19,0,0,0-.3-0.5,1,1,0,0,0-.5-0.4,2.5,2.5,0,0,0-1.4,0,2.09,2.09,0,0,0-.6.4,1.76,1.76,0,0,0-.4.5,1.45,1.45,0,0,0-.2.7h3.5Z" transform="translate(-212.12)"/><path class="cls-7" d="M503.6,138.4a2.13,2.13,0,0,1,1.2-.3,2,2,0,0,1,1.1.3,0.81,0.81,0,1,0,1.6,0,2.66,2.66,0,0,1,1.2-.3,3,3,0,0,1,1,.2,1.79,1.79,0,0,1,.7.5,2,2,0,0,1,.4.8,2.77,2.77,0,0,1,.1.9v3.7h-1.2v-3.3a1.7,1.7,0,0,0-.1-0.7,1.42,1.42,0,0,0-.2-0.6,0.78,0.78,0,0,0-.4-0.4,1.42,1.42,0,0,0-.6-0.2,1.45,1.45,0,0,0-.7.2c-0.2.1-.3,0.3-0.5,0.4l-0.3.6a1.7,1.7,0,0,0-.1.7v3.2h-1.2v-3.5a1.27,1.27,0,0,0-.1-0.6,0.76,0.76,0,0,0-.2-0.5,1.38,1.38,0,0,0-.4-0.3,1.27,1.27,0,0,0-.6-0.1,1.61,1.61,0,0,0-1.1.5,2.12,2.12,0,0,0-.4,1.4v3.2h-1.2v-6h1.1v1h0c0.3-.3.6-0.5,0.9-0.8h0Z" transform="translate(-212.12)"/><path class="cls-7" d="M518.4,141.2v0.4h-4.7a2.14,2.14,0,0,0,1.2,1.7,2,2,0,0,0,1.7-.2,4.35,4.35,0,0,0,.7-0.6l0.8,0.7a3.13,3.13,0,0,1-1.1.9,3.19,3.19,0,0,1-1.4.3,5.07,5.07,0,0,1-1.3-.2,8.79,8.79,0,0,1-1-.6,3.59,3.59,0,0,1-.7-1,2.74,2.74,0,0,1-.2-1.3,5.06,5.06,0,0,1,.2-1.3,8.81,8.81,0,0,1,.6-1,2.07,2.07,0,0,1,1-.6,2.54,2.54,0,0,1,1.2-.2,5,5,0,0,1,1.2.2,1.46,1.46,0,0,1,.9.6,8.78,8.78,0,0,1,.6,1,2.13,2.13,0,0,1,.3,1.2h0Zm-1.2-.5a1.7,1.7,0,0,0-.1-0.7,2.19,2.19,0,0,0-.3-0.5,1,1,0,0,0-.5-0.4,2.5,2.5,0,0,0-1.4,0,2.09,2.09,0,0,0-.6.4,1.76,1.76,0,0,0-.4.5,1.45,1.45,0,0,0-.2.7h3.5Z" transform="translate(-212.12)"/><path class="cls-7" d="M521.1,138.3v1h0a1.38,1.38,0,0,1,.3-0.4l0.4-.4a1.42,1.42,0,0,1,.6-0.2,1.27,1.27,0,0,1,.6-0.1,3,3,0,0,1,1,.2,1.79,1.79,0,0,1,.7.5,2,2,0,0,1,.4.8,2.77,2.77,0,0,1,.1.9v3.7H524v-3.4a1.7,1.7,0,0,0-.1-0.7,1.42,1.42,0,0,0-.2-0.6,0.78,0.78,0,0,0-.4-0.4,1.45,1.45,0,0,0-.7-0.2,1.29,1.29,0,0,0-1.1.5,2.12,2.12,0,0,0-.4,1.4v3.2h-1.2v-6h1.2v0.2h0Z" transform="translate(-212.12)"/><path class="cls-7" d="M530.3,139.2h-1.6v3.1a1.55,1.55,0,0,0,.2.8,0.56,0.56,0,0,0,.6.2h0.4c0.1,0,.2-0.1.3-0.1v1a4.34,4.34,0,0,1-.5.1h-0.5a1.73,1.73,0,0,1-1.3-.5,2,2,0,0,1-.4-1.4v-3.2h-1.1v-1h1.1v-1.7h1.2v1.7h1.6v1h0Z" transform="translate(-212.12)"/><path class="cls-7" d="M450.6,274.8a4.07,4.07,0,0,1-1.4,1.2,4.21,4.21,0,0,1-2,.4,5.82,5.82,0,0,1-1.9-.3,4,4,0,0,1-1.5-1,5.6,5.6,0,0,1-1-1.5,5.85,5.85,0,0,1-.4-1.9,4.06,4.06,0,0,1,.4-1.9,4,4,0,0,1,1-1.5,3.77,3.77,0,0,1,1.5-.9,5.82,5.82,0,0,1,1.9-.3,2.77,2.77,0,0,1,.9.1,3.18,3.18,0,0,1,.9.3c0.3,0.1.5,0.3,0.8,0.4l0.6,0.6-1,.8a1.6,1.6,0,0,0-.9-0.7,2.77,2.77,0,0,0-1.3-.3,3.19,3.19,0,0,0-1.4.3,2.84,2.84,0,0,0-1.1.8,4.13,4.13,0,0,0-.7,1.1,3.18,3.18,0,0,0-.2,1.4,5.9,5.9,0,0,0,.2,1.4,4.13,4.13,0,0,0,.7,1.1,3.13,3.13,0,0,0,1.1.8,3.42,3.42,0,0,0,2.8,0,2.84,2.84,0,0,0,1-.9l1,0.5h0Z" transform="translate(-212.12)"/><polygon class="cls-7" points="240.88 276.2 239.68 276.2 239.68 266.7 240.88 266.7 240.88 276.2"/><path class="cls-7" d="M456.4,268.1a0.76,0.76,0,0,1-.2.5,1.07,1.07,0,0,1-.6.2,0.76,0.76,0,0,1-.5-0.2,0.48,0.48,0,0,1-.2-0.5,1.42,1.42,0,0,1,.2-0.6,0.48,0.48,0,0,1,.5-0.2,0.71,0.71,0,0,1,.8.8h0Zm-0.2,8.1H455v-6h1.2v6h0Z" transform="translate(-212.12)"/><path class="cls-7" d="M463.8,273.2v0.4h-4.7a1.45,1.45,0,0,0,.2.7,1.84,1.84,0,0,0,1,1,2,2,0,0,0,1.7-.2,4.35,4.35,0,0,0,.7-0.6l0.8,0.7a3.13,3.13,0,0,1-1.1.9,3.19,3.19,0,0,1-1.4.3,5.07,5.07,0,0,1-1.3-.2,3.33,3.33,0,0,1-1-.6,3.59,3.59,0,0,1-.7-1,2.74,2.74,0,0,1-.2-1.3,5.06,5.06,0,0,1,.2-1.3,8.81,8.81,0,0,1,.6-1,3.59,3.59,0,0,1,1-.7,2.54,2.54,0,0,1,1.2-.2,5,5,0,0,1,1.2.2,1.46,1.46,0,0,1,.9.6,8.78,8.78,0,0,1,.6,1,1.81,1.81,0,0,1,.3,1.3h0Zm-1.2-.5a1.7,1.7,0,0,0-.1-0.7,1.73,1.73,0,0,0-.8-0.9,2.5,2.5,0,0,0-1.4,0,2.09,2.09,0,0,0-.6.4,1.76,1.76,0,0,0-.4.5,1.45,1.45,0,0,0-.2.7h3.5Z" transform="translate(-212.12)"/><path class="cls-7" d="M466.5,270.2v1h0a1.38,1.38,0,0,1,.3-0.4l0.4-.4a1.42,1.42,0,0,1,.6-0.2,1.27,1.27,0,0,1,.6-0.1,3,3,0,0,1,1,.2,1.79,1.79,0,0,1,.7.5,2,2,0,0,1,.4.8,2.77,2.77,0,0,1,.1.9v3.7h-1.2v-3.3a1.7,1.7,0,0,0-.1-0.7,1.42,1.42,0,0,0-.2-0.6,0.78,0.78,0,0,0-.4-0.4,1.45,1.45,0,0,0-.7-0.2,1.29,1.29,0,0,0-1.1.5,2.12,2.12,0,0,0-.4,1.4v3.2h-1.2v-6h1.2v0.1Z" transform="translate(-212.12)"/><path class="cls-7" d="M475.7,271.2h-1.6v3.1a1.55,1.55,0,0,0,.2.8,0.56,0.56,0,0,0,.6.2h0.4a0.37,0.37,0,0,0,.3-0.1v1a0.75,0.75,0,0,1-.5.1h-0.5a1.73,1.73,0,0,1-1.3-.5,2,2,0,0,1-.4-1.4v-3.2h-1.1v-1h1.1v-1.7h1.2v1.7h1.6v1h0Z" transform="translate(-212.12)"/><path class="cls-7" d="M480.3,276.2h-1.4l3.9-8.9h1.1l3.8,8.9h-1.4l-0.9-2.2h-4.2l-0.9,2.2h0Zm1.3-3.3h3.3l-1.7-4.2-1.6,4.2h0Z" transform="translate(-212.12)"/><path class="cls-7" d="M492.9,271.7a1,1,0,0,0-.6-0.5,1.7,1.7,0,0,0-1.6,0,2.65,2.65,0,0,0-.6.5,1.61,1.61,0,0,0-.4.7,3.25,3.25,0,0,0,0,1.6,1.61,1.61,0,0,0,.4.7c0.2,0.2.4,0.3,0.6,0.5a1.7,1.7,0,0,0,1.6,0,2.65,2.65,0,0,0,.6-0.5l0.8,0.7a5.49,5.49,0,0,1-.9.7,2.74,2.74,0,0,1-1.3.2,5.07,5.07,0,0,1-1.3-.2,3.33,3.33,0,0,1-1-.6,3.59,3.59,0,0,1-.7-1,2.74,2.74,0,0,1-.2-1.3,5.06,5.06,0,0,1,.2-1.3,3.51,3.51,0,0,1,1.7-1.7,4,4,0,0,1,2.5,0,3.59,3.59,0,0,1,1,.7l-0.8.8h0Z" transform="translate(-212.12)"/><path class="cls-7" d="M499.7,275.3a2.36,2.36,0,0,1-.9.8,2.66,2.66,0,0,1-1.2.3,3.73,3.73,0,0,1-1.2-.2,2.18,2.18,0,0,1-.9-0.7,2.07,2.07,0,0,1-.6-1,3.7,3.7,0,0,1,0-2.4,2.07,2.07,0,0,1,.6-1,5.49,5.49,0,0,1,.9-0.7,2.54,2.54,0,0,1,1.2-.2,2.77,2.77,0,0,1,1.3.3,2.36,2.36,0,0,1,.9.8h0v-0.9h1.1v9h-1.2v-4.1h0Zm-3.9-2.1a2.2,2.2,0,0,0,.1.8,1.61,1.61,0,0,0,.4.7,2.65,2.65,0,0,0,.6.5,2,2,0,0,0,.9.2,1.88,1.88,0,0,0,.8-0.2,1.47,1.47,0,0,0,.6-0.5,1.61,1.61,0,0,0,.4-0.7,2.2,2.2,0,0,0,.1-0.8,2,2,0,0,0-.1-0.8,1.61,1.61,0,0,0-.4-0.7,2.65,2.65,0,0,0-.6-0.5,1.88,1.88,0,0,0-.8-0.2,2.92,2.92,0,0,0-.9.2,2.65,2.65,0,0,0-.6.5,1.61,1.61,0,0,0-.4.7,2,2,0,0,0-.1.8h0Z" transform="translate(-212.12)"/><path class="cls-7" d="M507.1,276.2v-1h0a2,2,0,0,1-.8.8,2.66,2.66,0,0,1-1.2.3,3,3,0,0,1-1-.2,1.79,1.79,0,0,1-.7-0.5,2,2,0,0,1-.4-0.8,2.77,2.77,0,0,1-.1-0.9v-3.7h1.2v3.3a1.7,1.7,0,0,0,.1.7,1.42,1.42,0,0,0,.2.6,0.78,0.78,0,0,0,.4.4,1.48,1.48,0,0,0,.7.1,1.66,1.66,0,0,0,1.2-.5,2.12,2.12,0,0,0,.4-1.4v-3.2h1.2v6h-1.2Z" transform="translate(-212.12)"/><path class="cls-7" d="M511.6,268.1a0.76,0.76,0,0,1-.2.5,1.07,1.07,0,0,1-.6.2,0.59,0.59,0,0,1-.5-0.2,0.76,0.76,0,0,1-.2-0.5,1.42,1.42,0,0,1,.2-0.6,0.55,0.55,0,0,1,.5-0.2,0.71,0.71,0,0,1,.8.8h0Zm-0.2,8.1h-1.2v-6h1.2v6h0Z" transform="translate(-212.12)"/><path class="cls-7" d="M516.7,271.7a1,1,0,0,0-.6-0.5,1.88,1.88,0,0,0-.8-0.2h-0.4c-0.1,0-.3.1-0.4,0.1a0.53,0.53,0,0,0-.3.2,0.48,0.48,0,0,0-.1.4,0.55,0.55,0,0,0,.3.5,6.21,6.21,0,0,0,1,.3c0.3,0.1.5,0.1,0.8,0.2a3.33,3.33,0,0,1,.6.3,1,1,0,0,1,.4.5,1.45,1.45,0,0,1,.2.7,2,2,0,0,1-.2.9,2.65,2.65,0,0,1-.5.6,1.14,1.14,0,0,1-.8.3,3.34,3.34,0,0,1-2.2-.2,2.84,2.84,0,0,1-1.1-.8l0.8-.7a4.35,4.35,0,0,0,.7.6,1.49,1.49,0,0,0,.9.2h0.4c0.1,0,.3-0.1.4-0.1a0.85,0.85,0,0,0,.3-0.3,0.48,0.48,0,0,0,.1-0.4,0.55,0.55,0,0,0-.4-0.6,8.34,8.34,0,0,0-1.2-.4c-0.2-.1-0.4-0.1-0.6-0.2l-0.6-.3a1,1,0,0,1-.4-0.5,1.45,1.45,0,0,1-.2-0.7,1.88,1.88,0,0,1,.2-0.8,2.65,2.65,0,0,1,.5-0.6,1.49,1.49,0,0,1,.7-0.3,2.2,2.2,0,0,1,.8-0.1,5,5,0,0,1,1.2.2,2.18,2.18,0,0,1,.9.7l-0.4,1h0Z" transform="translate(-212.12)"/><path class="cls-7" d="M520.4,268.1a0.76,0.76,0,0,1-.2.5,1.07,1.07,0,0,1-.6.2,0.76,0.76,0,0,1-.5-0.2,0.48,0.48,0,0,1-.2-0.5,1.42,1.42,0,0,1,.2-0.6,0.48,0.48,0,0,1,.5-0.2,0.71,0.71,0,0,1,.8.8h0Zm-0.2,8.1H519v-6h1.2v6h0Z" transform="translate(-212.12)"/><path class="cls-7" d="M525.2,271.2h-1.6v3.1a1.55,1.55,0,0,0,.2.8,0.56,0.56,0,0,0,.6.2h0.4a0.37,0.37,0,0,0,.3-0.1v1a0.75,0.75,0,0,1-.5.1h-0.5a1.73,1.73,0,0,1-1.3-.5,2,2,0,0,1-.4-1.4v-3.2h-1.1v-1h1.1v-1.7h1.2v1.7h1.6v1h0Z" transform="translate(-212.12)"/><path class="cls-7" d="M527.8,268.1a0.76,0.76,0,0,1-.2.5,1.07,1.07,0,0,1-.6.2,0.68,0.68,0,0,1-.7-0.66s0,0,0,0a1.42,1.42,0,0,1,.2-0.6,0.48,0.48,0,0,1,.5-0.2,0.71,0.71,0,0,1,.8.8h0Zm-0.2,8.1h-1.2v-6h1.2v6h0Z" transform="translate(-212.12)"/><path class="cls-7" d="M535.7,273.2a5.06,5.06,0,0,1-.2,1.3,3.59,3.59,0,0,1-.7,1,2.07,2.07,0,0,1-1,.6,2.74,2.74,0,0,1-1.3.2,5.07,5.07,0,0,1-1.3-.2,3.33,3.33,0,0,1-1-.6,3.59,3.59,0,0,1-.7-1,2.74,2.74,0,0,1-.2-1.3,5.06,5.06,0,0,1,.2-1.3,3.51,3.51,0,0,1,1.7-1.7,2.74,2.74,0,0,1,1.3-.2,5.07,5.07,0,0,1,1.3.2,3.51,3.51,0,0,1,1.7,1.7,5.07,5.07,0,0,1,.2,1.3h0Zm-1.3,0a2.2,2.2,0,0,0-.1-0.8,1.61,1.61,0,0,0-.4-0.7,2.65,2.65,0,0,0-.6-0.5,1.88,1.88,0,0,0-.8-0.2,2.92,2.92,0,0,0-.9.2,1.47,1.47,0,0,0-.6.5,1.61,1.61,0,0,0-.4.7,3.25,3.25,0,0,0,0,1.6,1.61,1.61,0,0,0,.4.7,2.65,2.65,0,0,0,.6.5,2,2,0,0,0,.9.2,1.88,1.88,0,0,0,.8-0.2,1.47,1.47,0,0,0,.6-0.5,1.61,1.61,0,0,0,.4-0.7,2.2,2.2,0,0,0,.1-0.8h0Z" transform="translate(-212.12)"/><path class="cls-7" d="M538.4,270.2v1h0a1.38,1.38,0,0,1,.3-0.4l0.4-.4a1.42,1.42,0,0,1,.6-0.2,1.27,1.27,0,0,1,.6-0.1,3,3,0,0,1,1,.2,1.79,1.79,0,0,1,.7.5,2,2,0,0,1,.4.8,2.77,2.77,0,0,1,.1.9v3.7h-1.2v-3.3a1.7,1.7,0,0,0-.1-0.7,1.42,1.42,0,0,0-.2-0.6,0.78,0.78,0,0,0-.4-0.4,1.45,1.45,0,0,0-.7-0.2,1.29,1.29,0,0,0-1.1.5,2.12,2.12,0,0,0-.4,1.4v3.2h-1.1v-6h1.1v0.1Z" transform="translate(-212.12)"/><path class="cls-7" d="M454.2,285.2a1.16,1.16,0,0,0-.4-1,1.8,1.8,0,0,0-1.1-.3,2.39,2.39,0,0,0-.9.2,1.79,1.79,0,0,0-.7.5l-0.6-.8a4.13,4.13,0,0,1,1.1-.7,3.18,3.18,0,0,1,1.4-.2,3.59,3.59,0,0,1,1.1.2,2.18,2.18,0,0,1,.8.5,3,3,0,0,1,.5.7,2.92,2.92,0,0,1,.2.9v3.2a0.75,0.75,0,0,0,.1.5h-1.4a2.49,2.49,0,0,1-.1-0.8h0a1.78,1.78,0,0,1-.8.7,2.13,2.13,0,0,1-1.2.3,1.7,1.7,0,0,1-.7-0.1,4.88,4.88,0,0,1-.7-0.3,1,1,0,0,1-.5-0.6,2,2,0,0,1-.2-0.9,1.5,1.5,0,0,1,.4-1.1,1.7,1.7,0,0,1,1-.6c0.4-.1.8-0.2,1.3-0.3a7.57,7.57,0,0,1,1.5-.1v0.1h-0.1Zm-0.3,1.1H453a2.92,2.92,0,0,0-.9.2,1.63,1.63,0,0,0-.6.3,0.86,0.86,0,0,0-.3.6,0.48,0.48,0,0,0,.1.4l0.3,0.3a1.47,1.47,0,0,0,.4.2h0.4a1.73,1.73,0,0,0,1.3-.5,1.75,1.75,0,0,0,.4-1.2v-0.3h-0.2Z" transform="translate(-212.12)"/><path class="cls-7" d="M458.4,283.1v1h0c0.1-.1.2-0.3,0.3-0.4l0.4-.4a1.42,1.42,0,0,1,.6-0.2,1.27,1.27,0,0,1,.6-0.1,3,3,0,0,1,1,.2,1.79,1.79,0,0,1,.7.5,2,2,0,0,1,.4.8,2.77,2.77,0,0,1,.1.9v3.7h-1.2v-3.3a1.7,1.7,0,0,0-.1-0.7,1.42,1.42,0,0,0-.2-0.6,0.78,0.78,0,0,0-.4-0.4,1.48,1.48,0,0,0-.7-0.1,1.43,1.43,0,0,0-1.1.5,2.12,2.12,0,0,0-.4,1.4v3.2h-1.1v-6h1.1Z" transform="translate(-212.12)"/><path class="cls-7" d="M469.3,288.2a1.76,1.76,0,0,1-.9.8,2.66,2.66,0,0,1-1.2.3,2.13,2.13,0,0,1-1.2-.3,2.18,2.18,0,0,1-.9-0.7,2.07,2.07,0,0,1-.6-1,3.7,3.7,0,0,1,0-2.4,2.07,2.07,0,0,1,.6-1,5.49,5.49,0,0,1,.9-0.7,2.54,2.54,0,0,1,1.2-.2,2.77,2.77,0,0,1,1.3.3,2.28,2.28,0,0,1,.9.8h0v-4.4h1.2v9.5h-1.1l-0.2-1h0Zm-3.9-2.1a2,2,0,0,0,.1.8,1.61,1.61,0,0,0,.4.7,2.65,2.65,0,0,0,.6.5,2,2,0,0,0,.9.2,1.88,1.88,0,0,0,.8-0.2,1.47,1.47,0,0,0,.6-0.5,1.61,1.61,0,0,0,.4-0.7,2.2,2.2,0,0,0,.1-0.8,2,2,0,0,0-.1-0.8,1.61,1.61,0,0,0-.4-0.7,2.65,2.65,0,0,0-.6-0.5,1.88,1.88,0,0,0-.8-0.2,2.92,2.92,0,0,0-.9.2,2.65,2.65,0,0,0-.6.5,1.61,1.61,0,0,0-.4.7c0,0.3-.1.5-0.1,0.8h0Z" transform="translate(-212.12)"/><polygon class="cls-7" points="268.18 287 268.27 287 270.88 280.2 272.77 280.2 272.77 289.1 271.57 289.1 271.57 281.7 271.57 281.7 268.57 289.1 267.77 289.1 264.88 281.7 264.88 281.7 264.88 289.1 263.68 289.1 263.68 280.2 265.57 280.2 268.18 287"/><path class="cls-7" d="M490.7,285.2a1.16,1.16,0,0,0-.4-1,1.8,1.8,0,0,0-1.1-.3,2.39,2.39,0,0,0-.9.2,1.79,1.79,0,0,0-.7.5l-0.6-.8a4.13,4.13,0,0,1,1.1-.7,3.18,3.18,0,0,1,1.4-.2,3.59,3.59,0,0,1,1.1.2,2.18,2.18,0,0,1,.8.5,3,3,0,0,1,.5.7,2.92,2.92,0,0,1,.2.9v3.2a0.75,0.75,0,0,0,.1.5h-1.1a2.49,2.49,0,0,1-.1-0.8h0a1.78,1.78,0,0,1-.8.7,2.13,2.13,0,0,1-1.2.3,1.7,1.7,0,0,1-.7-0.1,4.88,4.88,0,0,1-.7-0.3,1,1,0,0,1-.5-0.6,2,2,0,0,1-.2-0.9,1.5,1.5,0,0,1,.4-1.1,1.7,1.7,0,0,1,1-.6c0.4-.1.8-0.2,1.3-0.3a7.57,7.57,0,0,1,1.5-.1v0.1h-0.4Zm-0.3,1.1h-0.9a2.92,2.92,0,0,0-.9.2,1.63,1.63,0,0,0-.6.3,0.86,0.86,0,0,0-.3.6,0.48,0.48,0,0,0,.1.4l0.3,0.3a1.47,1.47,0,0,0,.4.2h0.4a1.73,1.73,0,0,0,1.3-.5,1.75,1.75,0,0,0,.4-1.2v-0.3h-0.2Z" transform="translate(-212.12)"/><path class="cls-7" d="M493.8,283.8v-0.7h1.1v1h0a2.7,2.7,0,0,1,.7-0.8,2,2,0,0,1,1.1-.3,0.9,0.9,0,0,1,.5.1l-0.1,1.1c-0.2,0-.3-0.1-0.5-0.1a0.84,0.84,0,0,0-.7.2,1,1,0,0,0-.5.4l-0.3.6a1.7,1.7,0,0,0-.1.7v3.1h-1.2v-5.3h0Z" transform="translate(-212.12)"/><polygon class="cls-7" points="287.48 285.7 287.48 285.7 289.98 283.1 291.57 283.1 288.77 285.8 291.77 289.1 290.18 289.1 287.48 286 287.48 286 287.48 289.1 286.27 289.1 286.27 279.6 287.48 279.6 287.48 285.7"/><path class="cls-7" d="M510.5,286.1v0.4h-4.7a1.45,1.45,0,0,0,.2.7,1.84,1.84,0,0,0,1,1,2,2,0,0,0,1.7-.2,4.35,4.35,0,0,0,.7-0.6l0.8,0.7a3.13,3.13,0,0,1-1.1.9,3.19,3.19,0,0,1-1.4.3,5.07,5.07,0,0,1-1.3-.2,3.33,3.33,0,0,1-1-.6,3.59,3.59,0,0,1-.7-1,2.74,2.74,0,0,1-.2-1.3,5.06,5.06,0,0,1,.2-1.3,8.81,8.81,0,0,1,.6-1,2.07,2.07,0,0,1,1-.6,2.54,2.54,0,0,1,1.2-.2,5,5,0,0,1,1.2.2,1.46,1.46,0,0,1,.9.6,8.78,8.78,0,0,1,.6,1,1.56,1.56,0,0,1,.3,1.2h0Zm-1.2-.5a1.7,1.7,0,0,0-.1-0.7,2.19,2.19,0,0,0-.3-0.5,1,1,0,0,0-.5-0.4,1.48,1.48,0,0,0-.7-0.1,1.7,1.7,0,0,0-.7.1,2.09,2.09,0,0,0-.6.4,1.76,1.76,0,0,0-.4.5,1.45,1.45,0,0,0-.2.7h3.5Z" transform="translate(-212.12)"/><path class="cls-7" d="M515.1,284.1h-1.6v3.1a1.55,1.55,0,0,0,.2.8,0.56,0.56,0,0,0,.6.2h0.3c0.1,0,.2-0.1.3-0.1v1a0.75,0.75,0,0,1-.5.1h-0.5a1.73,1.73,0,0,1-1.3-.5,2,2,0,0,1-.4-1.4v-3.2h-1.1v-1h1.1v-1.7h1.2v1.7H515v1h0.1Z" transform="translate(-212.12)"/><path class="cls-7" d="M517.7,281a0.76,0.76,0,0,1-.2.5,1.07,1.07,0,0,1-.6.2,0.71,0.71,0,0,1-.5-1.2,1.06,1.06,0,0,1,.5-0.2,1.42,1.42,0,0,1,.6.2,0.76,0.76,0,0,1,.2.5h0Zm-0.2,8.1h-1.2v-5.9h1.2v5.9h0Z" transform="translate(-212.12)"/><path class="cls-7" d="M520.6,283.1v1h0c0.1-.1.2-0.3,0.3-0.4l0.4-.4a1.42,1.42,0,0,1,.6-0.2,1.27,1.27,0,0,1,.6-0.1,3,3,0,0,1,1,.2,1.79,1.79,0,0,1,.7.5,2,2,0,0,1,.4.8,2.77,2.77,0,0,1,.1.9v3.7h-1.2v-3.3a1.7,1.7,0,0,0-.1-0.7,1.42,1.42,0,0,0-.2-0.6,0.78,0.78,0,0,0-.4-0.4,1.48,1.48,0,0,0-.7-0.1,1.43,1.43,0,0,0-1.1.5,2.12,2.12,0,0,0-.4,1.4v3.2h-1.2v-6h1.2Z" transform="translate(-212.12)"/><path class="cls-7" d="M527.3,290.1a3.59,3.59,0,0,0,1,.7,2.66,2.66,0,0,0,1.2.3,3,3,0,0,0,1-.2,1,1,0,0,0,.6-0.5,1.61,1.61,0,0,0,.4-0.7,2.77,2.77,0,0,0,.1-0.9V288h0a2.36,2.36,0,0,1-.9.8,2.66,2.66,0,0,1-1.2.3,3.73,3.73,0,0,1-1.2-.2,2.18,2.18,0,0,1-.9-0.7,2.07,2.07,0,0,1-.6-1,3.7,3.7,0,0,1,0-2.4,2.07,2.07,0,0,1,.6-1,5.49,5.49,0,0,1,.9-0.7,2.54,2.54,0,0,1,1.2-.2,2.66,2.66,0,0,1,1.2.3,2.36,2.36,0,0,1,.9.8h0v-1h1.1v5.6a6.88,6.88,0,0,1-.2,1.3,2.38,2.38,0,0,1-.6,1.1,3.59,3.59,0,0,1-1,.7,3.51,3.51,0,0,1-1.6.3,5,5,0,0,1-1.6-.3,4.11,4.11,0,0,1-1.3-.8l0.9-.8h0Zm0.4-4a2.2,2.2,0,0,0,.1.8,2.51,2.51,0,0,0,.4.7,2.65,2.65,0,0,0,.6.5,1.7,1.7,0,0,0,1.6,0,1.54,1.54,0,0,0,.6-0.4,1.61,1.61,0,0,0,.4-0.7,2.2,2.2,0,0,0,.1-0.8,2,2,0,0,0-.1-0.8,1.61,1.61,0,0,0-.4-0.7c-0.2-.2-0.4-0.3-0.6-0.5a1.7,1.7,0,0,0-1.6,0,1.47,1.47,0,0,0-.6.5,1.61,1.61,0,0,0-.4.7,1.29,1.29,0,0,0-.1.7h0Z" transform="translate(-212.12)"/><polygon class="cls-7" points="68.97 73.7 66.88 75.9 65.47 74.5 71.17 68.5 72.58 69.9 70.58 72.1 76.67 77.8 75.08 79.5 68.97 73.7"/><polygon class="cls-7" points="72.78 66.9 77.88 62 79.38 63.6 75.88 66.9 77.17 68.3 80.47 65.2 81.97 66.7 78.67 69.8 80.17 71.4 83.78 67.9 85.28 69.4 79.88 74.5 72.78 66.9"/><path class="cls-7" d="M299.3,57.6a1.64,1.64,0,0,0-1,.1,2.66,2.66,0,0,0-1,.6,3.92,3.92,0,0,0-.8,1,2.66,2.66,0,0,0-.3,1.2,5,5,0,0,0,.2,1.2,3.75,3.75,0,0,0,.7,1.2,4.06,4.06,0,0,0,1,.9,5.64,5.64,0,0,0,1.2.4,2.46,2.46,0,0,0,1.2-.1,2.07,2.07,0,0,0,1-.6,2.48,2.48,0,0,0,1-2.2l2.4-.1a3.61,3.61,0,0,1-.4,2.1,5.5,5.5,0,0,1-1.3,1.7,8.18,8.18,0,0,1-2,1.2,5.11,5.11,0,0,1-2.1.3,3.61,3.61,0,0,1-2-.6,5,5,0,0,1-1.8-1.5,5.64,5.64,0,0,1-1.1-2,5,5,0,0,1-.2-2.1,4.79,4.79,0,0,1,.7-2,8,8,0,0,1,1.5-1.7,2.18,2.18,0,0,1,.8-0.5,3.55,3.55,0,0,1,.9-0.4,3,3,0,0,1,1-.2,4.48,4.48,0,0,1,1.1.1l-0.7,2h0Z" transform="translate(-212.12)"/><polygon class="cls-7" points="88.88 52.8 90.67 51.4 92.97 54.5 96.58 51.9 94.28 48.7 96.17 47.4 102.38 55.8 100.47 57.1 97.78 53.5 94.17 56.2 96.88 59.8 95.08 61.1 88.88 52.8"/><polygon class="cls-7" points="98.78 45.5 101.47 43.8 109.08 47.6 109.08 47.5 105.28 41.4 107.17 40.2 112.78 49 110.28 50.6 102.38 46.8 102.38 46.8 106.38 53.1 104.47 54.3 98.78 45.5"/><path class="cls-7" d="M324.1,43.4a6.26,6.26,0,0,1-.7-2.2,5,5,0,0,1,.2-2.1,5.24,5.24,0,0,1,1-1.8,6.23,6.23,0,0,1,1.8-1.4,5.68,5.68,0,0,1,2.2-.7,4.89,4.89,0,0,1,2.1.1,5,5,0,0,1,1.9,1,6.53,6.53,0,0,1,2.1,4,5,5,0,0,1-.2,2.1,5.24,5.24,0,0,1-1,1.8,6.23,6.23,0,0,1-1.8,1.4,5.68,5.68,0,0,1-2.2.7,4.9,4.9,0,0,1-4-1.1,8.62,8.62,0,0,1-1.4-1.8h0Zm2.1-1.2a4.44,4.44,0,0,0,.8,1.1,2.38,2.38,0,0,0,1.1.6,2.46,2.46,0,0,0,1.2.1,3.26,3.26,0,0,0,1.3-.4,3.13,3.13,0,0,0,1.1-.9,2.38,2.38,0,0,0,.6-1.1,4.87,4.87,0,0,0,.1-1.2,6.47,6.47,0,0,0-.4-1.3,4.44,4.44,0,0,0-.8-1.1,2.38,2.38,0,0,0-1.1-.6,2.46,2.46,0,0,0-1.2-.1,3.26,3.26,0,0,0-1.3.4,3.13,3.13,0,0,0-1.1.9,2.38,2.38,0,0,0-.6,1.1,5.28,5.28,0,0,0-.1,1.3,2.84,2.84,0,0,0,.4,1.2h0Z" transform="translate(-212.12)"/><polygon class="cls-7" points="121.88 32.3 123.97 31.3 127.47 38.9 131.38 37.1 132.28 39 126.28 41.8 121.88 32.3"/><path class="cls-7" d="M343.5,33.7a6.2,6.2,0,0,1-.4-2.3,4.55,4.55,0,0,1,.5-2,5.15,5.15,0,0,1,1.3-1.7,5.61,5.61,0,0,1,2-1.2,6.31,6.31,0,0,1,2.2-.5,5.22,5.22,0,0,1,2.1.4,6.57,6.57,0,0,1,1.7,1.2,5.61,5.61,0,0,1,1.2,2,6.2,6.2,0,0,1,.4,2.3,4.55,4.55,0,0,1-.5,2,5.15,5.15,0,0,1-1.3,1.7,5.61,5.61,0,0,1-2,1.2,6.31,6.31,0,0,1-2.2.5,5.22,5.22,0,0,1-2.1-.4,6.57,6.57,0,0,1-1.7-1.2,6.66,6.66,0,0,1-1.2-2h0Zm2.2-.9a4.73,4.73,0,0,0,.7,1.2,3.92,3.92,0,0,0,1,.8,2.66,2.66,0,0,0,1.2.3,3.08,3.08,0,0,0,1.3-.3,4.73,4.73,0,0,0,1.2-.7,2.29,2.29,0,0,0,.7-1,2.54,2.54,0,0,0,.2-1.2,3.08,3.08,0,0,0-.3-1.3,7.46,7.46,0,0,0-.7-1.2,3.92,3.92,0,0,0-1-.8,2.66,2.66,0,0,0-1.2-.3,3.08,3.08,0,0,0-1.3.3,4.73,4.73,0,0,0-1.2.7,3.59,3.59,0,0,0-.7,1,2.54,2.54,0,0,0-.2,1.2,3.08,3.08,0,0,0,.3,1.3h0Z" transform="translate(-212.12)"/><path class="cls-7" d="M366.6,30.3a8.62,8.62,0,0,1-1.8,1.4,9.49,9.49,0,0,1-2.1.9,9.08,9.08,0,0,1-2.3.3,4.55,4.55,0,0,1-2-.5,4,4,0,0,1-1.6-1.3,6.44,6.44,0,0,1-1.1-2,9.69,9.69,0,0,1-.3-2.3,6.64,6.64,0,0,1,.6-2,5.21,5.21,0,0,1,1.4-1.6,7.5,7.5,0,0,1,2-1,10.11,10.11,0,0,1,2.3-.4,5.22,5.22,0,0,1,2.1.4l-1,2.2a5.64,5.64,0,0,0-1.2-.4,2.83,2.83,0,0,0-1.5.2,3.37,3.37,0,0,0-1.2.6,3.92,3.92,0,0,0-.8,1,2.66,2.66,0,0,0-.3,1.2,3,3,0,0,0,.2,1.3,3.37,3.37,0,0,0,.6,1.2,6.47,6.47,0,0,0,.9.8,5.64,5.64,0,0,0,1.2.4,3,3,0,0,0,1.3-.2,3.34,3.34,0,0,0,1.2-.5,2.17,2.17,0,0,0,.7-0.6l-0.5-1.6-1.8.6-0.6-2,3.9-1.2,1.7,5.1h0Z" transform="translate(-212.12)"/><polygon class="cls-7" points="158.47 25.5 153.28 20.6 155.97 19.9 159.07 23.2 160.47 18.8 163.07 18.2 160.68 24.9 161.78 29.2 159.57 29.8 158.47 25.5"/><path class="cls-7" d="M451.5,16.5l1.9,0.3,2.7,11.1-2.6-.4L453,25.2l-4-.7-1.2,2-2.5-.4,6.2-9.6h0Zm0.4,3.2-1.8,3,2.5,0.4-0.7-3.4h0Z" transform="translate(-212.12)"/><path class="cls-7" d="M466,22.3a2.7,2.7,0,0,0-.7-0.8,2.81,2.81,0,0,0-1.1-.5,2.44,2.44,0,0,0-1.2,0,2.22,2.22,0,0,0-1.1.5,3.82,3.82,0,0,0-.9.9,5,5,0,0,0-.5,1.3,6.6,6.6,0,0,0-.1,1.4,5.64,5.64,0,0,0,.4,1.2,1.76,1.76,0,0,0,.8.9,3.7,3.7,0,0,0,1.1.5,2.84,2.84,0,0,0,1.3,0,2.38,2.38,0,0,0,1.1-.6l1.5,1.8a3.67,3.67,0,0,1-2,.9,7.39,7.39,0,0,1-2.1,0,6.67,6.67,0,0,1-2.1-.9,5.36,5.36,0,0,1-1.5-1.5,4.35,4.35,0,0,1-.7-2,6,6,0,0,1,.1-2.3,6.67,6.67,0,0,1,.9-2.1,4,4,0,0,1,1.5-1.4,6.79,6.79,0,0,1,2-.7,9.06,9.06,0,0,1,2.3.1l0.9,0.3a4.06,4.06,0,0,1,.9.5,5,5,0,0,1,.8.7,7,7,0,0,1,.6.9l-2.2.9h0Z" transform="translate(-212.12)"/><path class="cls-7" d="M476.5,25.3a1.55,1.55,0,0,0-.6-0.8,3.13,3.13,0,0,0-1-.5,2.46,2.46,0,0,0-1.2-.1,3.58,3.58,0,0,0-1.1.4,6.47,6.47,0,0,0-.9.8,3.38,3.38,0,0,0-.6,1.2,6.75,6.75,0,0,0-.2,1.4,2.66,2.66,0,0,0,.3,1.2,2.18,2.18,0,0,0,.7.9,2.07,2.07,0,0,0,1,.6,3,3,0,0,0,1.3.1,3.7,3.7,0,0,0,1.1-.5l1.4,1.9a3.86,3.86,0,0,1-2,.8,5,5,0,0,1-2.1-.2,6.81,6.81,0,0,1-2.1-1,4.28,4.28,0,0,1-1.4-1.6,4.66,4.66,0,0,1-.6-2,6.17,6.17,0,0,1,.2-2.3,5.29,5.29,0,0,1,1.1-2.1,4.84,4.84,0,0,1,1.6-1.3,4.55,4.55,0,0,1,2-.5,6.34,6.34,0,0,1,2.3.3l0.9,0.3a2.18,2.18,0,0,1,.8.5,2.34,2.34,0,0,1,.7.7,4,4,0,0,1,.5.9l-2.1.9h0Z" transform="translate(-212.12)"/><path class="cls-7" d="M479.1,28.7a6.66,6.66,0,0,1,1.2-2,6.57,6.57,0,0,1,1.7-1.2,4.64,4.64,0,0,1,2.1-.4,5.7,5.7,0,0,1,2.2.4,9.46,9.46,0,0,1,2,1.1,4.31,4.31,0,0,1,1.3,1.7,4.55,4.55,0,0,1,.5,2,6.56,6.56,0,0,1-.4,2.3,6.66,6.66,0,0,1-1.2,2,6.57,6.57,0,0,1-1.7,1.2,4.64,4.64,0,0,1-2.1.4,5.38,5.38,0,0,1-2.2-.4,9.46,9.46,0,0,1-2-1.1,4.31,4.31,0,0,1-1.3-1.7,4.55,4.55,0,0,1-.5-2,6.56,6.56,0,0,1,.4-2.3h0Zm2.3,0.9a3.45,3.45,0,0,0-.3,1.3,5,5,0,0,0,.2,1.2,3.59,3.59,0,0,0,.7,1,3.46,3.46,0,0,0,1.2.7,3.18,3.18,0,0,0,1.3.2,2.66,2.66,0,0,0,1.2-.3,2.54,2.54,0,0,0,1-.8,4.54,4.54,0,0,0,1-2.5,4.3,4.3,0,0,0-.2-1.2,3.59,3.59,0,0,0-.7-1,3.46,3.46,0,0,0-1.2-.7,3.18,3.18,0,0,0-1.3-.2,2.66,2.66,0,0,0-1.2.3,2.54,2.54,0,0,0-1,.8,2.4,2.4,0,0,0-.7,1.2h0Z" transform="translate(-212.12)"/><path class="cls-7" d="M499.4,38.3a5,5,0,0,1-1,1.4,3.81,3.81,0,0,1-1.3.9,2.85,2.85,0,0,1-1.6.2,4.89,4.89,0,0,1-1.9-.5,5,5,0,0,1-1.6-1.1,4.19,4.19,0,0,1-.9-1.4,4.14,4.14,0,0,1-.2-1.6,3.69,3.69,0,0,1,.5-1.7l2.7-5.8,2.1,1-2.6,5.8a2.92,2.92,0,0,0-.2.9,2,2,0,0,0,.1.8,1.61,1.61,0,0,0,.4.7,1.79,1.79,0,0,0,.7.5,3.09,3.09,0,0,0,.8.2,1.2,1.2,0,0,0,.8-0.2,1.79,1.79,0,0,0,.7-0.5,2.18,2.18,0,0,0,.5-0.8l2.6-5.8,2.1,1-2.7,6h0Z" transform="translate(-212.12)"/><polygon class="cls-7" points="292.88 33.9 295.57 35.4 296.07 43.9 296.07 43.9 299.48 37.5 301.57 38.6 296.57 47.8 293.88 46.4 293.48 37.7 293.38 37.7 289.88 44.2 287.88 43.1 292.88 33.9"/><polygon class="cls-7" points="304.88 43.1 302.38 41.5 303.48 39.8 310.48 44.1 309.38 45.9 306.88 44.3 302.38 51.4 300.48 50.2 304.88 43.1"/><path class="cls-7" d="M531.4,50.4l1.5,1.1-2.6,11.1L528.2,61l0.6-2.3-3.2-2.4-2,1.2-2-1.5,9.8-5.6h0Zm-1.1,2.9-3,1.8,2,1.5,1-3.3h0Z" transform="translate(-212.12)"/><path class="cls-7" d="M538.2,55.6l2.6,2.3a6.9,6.9,0,0,1,1.6,1.8,7.22,7.22,0,0,1,.9,2,3.76,3.76,0,0,1-.1,2.1A6.91,6.91,0,0,1,542,66a7.34,7.34,0,0,1-1.8,1.4,4.77,4.77,0,0,1-2,.4,5.37,5.37,0,0,1-2.1-.5,7.61,7.61,0,0,1-1.9-1.2l-2.8-2.5,6.8-8h0Zm-3.7,7.8,0.9,0.8a8.34,8.34,0,0,0,1.2.8,5,5,0,0,0,1.3.4,2.54,2.54,0,0,0,1.2-.2,4.7,4.7,0,0,0,1.2-.9,3.75,3.75,0,0,0,.7-1.2,2.44,2.44,0,0,0,0-1.2,6.12,6.12,0,0,0-.5-1.2,9,9,0,0,0-.9-1l-1-.9-4.1,4.6h0Z" transform="translate(-212.12)"/><polygon class="cls-7" points="335.38 63.8 337.88 66.2 334.77 72.7 334.77 72.8 341.27 69.6 343.77 72.1 336.38 79.5 334.77 77.9 340.38 72.2 340.38 72.2 332.77 75.9 331.57 74.7 335.38 67.1 335.38 67.1 329.68 72.8 328.07 71.1 335.38 63.8"/><polygon class="cls-7" points="345.77 74.4 347.38 76.1 339.57 83.1 338.07 81.4 345.77 74.4"/><polygon class="cls-7" points="349.38 78.4 351.38 80.8 348.57 88.9 348.57 88.9 354.18 84.3 355.68 86.1 347.57 92.7 345.68 90.4 348.57 82.1 348.57 82.1 342.77 86.8 341.38 85 349.38 78.4"/><path class="cls-7" d="M597.1,154a6.17,6.17,0,0,1,2.3-.2,4.79,4.79,0,0,1,2,.7,5,5,0,0,1,1.5,1.4,6.67,6.67,0,0,1,.9,2.1,6,6,0,0,1,.2,2.3,6.64,6.64,0,0,1-.6,2,5.21,5.21,0,0,1-1.4,1.6,6.81,6.81,0,0,1-2.1,1,6.17,6.17,0,0,1-2.3.2,4.79,4.79,0,0,1-2-.7,5,5,0,0,1-1.5-1.4,6.67,6.67,0,0,1-.9-2.1,6,6,0,0,1-.2-2.3,6.64,6.64,0,0,1,.6-2A5.21,5.21,0,0,1,595,155a5.12,5.12,0,0,1,2.1-1h0Zm0.6,2.3a2.28,2.28,0,0,0-1.2.6,7.64,7.64,0,0,0-.9.9,2.45,2.45,0,0,0-.4,1.2,3.44,3.44,0,0,0,.1,1.4,2.28,2.28,0,0,0,.6,1.2,6.47,6.47,0,0,0,.9.8,5.64,5.64,0,0,0,1.2.4,7.08,7.08,0,0,0,1.4-.1,2.28,2.28,0,0,0,1.2-.6,7.64,7.64,0,0,0,.9-0.9,1.59,1.59,0,0,0,.4-1.2,3.44,3.44,0,0,0-.1-1.4,2.28,2.28,0,0,0-.6-1.2,6.47,6.47,0,0,0-.9-0.8,5.64,5.64,0,0,0-1.2-.4,3.33,3.33,0,0,0-1.4.1h0Z" transform="translate(-212.12)"/><path class="cls-7" d="M605.5,166.2l0.7,3.8a7.72,7.72,0,0,1,.2,1.5,2.77,2.77,0,0,1-.3,1.3,2.54,2.54,0,0,1-.8,1,3,3,0,0,1-1.5.6,4.29,4.29,0,0,1-1.6,0,2.38,2.38,0,0,1-1.1-.6,2.59,2.59,0,0,1-.7-1.1,5.42,5.42,0,0,1-.4-1.5l-0.3-1.7-4,.8-0.4-2.3,10.2-1.8h0Zm-3.9,3.1,0.3,1.5a1.42,1.42,0,0,0,.2.6c0.1,0.2.2,0.3,0.3,0.5a1,1,0,0,0,.4.3,0.64,0.64,0,0,0,.6,0,1.63,1.63,0,0,0,.6-0.3c0.1-.2.2-0.3,0.3-0.5a1.63,1.63,0,0,0,0-.7c0-.2-0.1-0.5-0.1-0.7l-0.2-1.2-2.4.5h0Z" transform="translate(-212.12)"/><polygon class="cls-7" points="395.27 176.4 396.27 183.4 394.18 183.7 393.57 179 391.57 179.2 392.27 183.7 390.18 184 389.48 179.5 387.38 179.8 388.07 184.8 385.98 185.1 384.98 177.8 395.27 176.4"/><path class="cls-7" d="M608.8,186.5l0.3,4V192a5,5,0,0,1-.4,1.3,2,2,0,0,1-.9.9,3.31,3.31,0,0,1-1.5.4,3,3,0,0,1-1.9-.4,2.73,2.73,0,0,1-1.1-1.6l-4.2,3-0.2-2.7,4-2.5-0.1-1.1-4.2.3-0.2-2.3,10.4-.8h0Zm-4.2,2.7,0.1,1.4a2,2,0,0,0,.1.7,1.42,1.42,0,0,0,.2.6,0.78,0.78,0,0,0,.4.4,0.82,0.82,0,0,0,.7.1,0.85,0.85,0,0,0,.6-0.2,1,1,0,0,0,.3-0.4,1.27,1.27,0,0,0,.1-0.6v-0.6l-0.1-1.5-2.4.1h0Z" transform="translate(-212.12)"/><path class="cls-7" d="M609.6,200.6v1.9l-10.4,4.7v-2.6l2.2-.9-0.1-4.1-2.2-.8v-2.5l10.5,4.3h0Zm-3,.9-3.3-1.2v2.6l3.3-1.4h0Z" transform="translate(-212.12)"/><polygon class="cls-7" points="395.48 209.7 395.57 206.7 397.57 206.8 397.27 215 395.27 214.9 395.38 212 386.98 211.7 387.07 209.4 395.48 209.7"/><polygon class="cls-7" points="397.18 217.1 396.98 219.3 386.57 218.6 386.68 216.3 397.18 217.1"/><path class="cls-7" d="M603.8,221.2a5.19,5.19,0,0,1,2.2.7,5.39,5.39,0,0,1,1.6,1.4,6.63,6.63,0,0,1,.9,1.9,5.86,5.86,0,0,1,.1,2.3,5.68,5.68,0,0,1-.7,2.2,5.09,5.09,0,0,1-1.3,1.6,5.73,5.73,0,0,1-1.9,1,5.86,5.86,0,0,1-2.3.1,5.19,5.19,0,0,1-2.2-.7,5.39,5.39,0,0,1-1.6-1.4,5.57,5.57,0,0,1-.9-1.9,5.86,5.86,0,0,1-.1-2.3,5.68,5.68,0,0,1,.7-2.2,5.09,5.09,0,0,1,1.3-1.6,5.73,5.73,0,0,1,1.9-1,8.48,8.48,0,0,1,2.3-.1h0Zm-0.3,2.4a3.33,3.33,0,0,0-1.4.1,3.7,3.7,0,0,0-1.1.5,2.36,2.36,0,0,0-.8.9,2.84,2.84,0,0,0-.4,1.3,3.33,3.33,0,0,0,.1,1.4,2.38,2.38,0,0,0,.6,1.1,3.91,3.91,0,0,0,1,.8,5,5,0,0,0,1.3.4,3.33,3.33,0,0,0,1.4-.1,3.7,3.7,0,0,0,1.1-.5,3.45,3.45,0,0,0,.8-0.9,2.84,2.84,0,0,0,.4-1.3,3.33,3.33,0,0,0-.1-1.4,2.38,2.38,0,0,0-.6-1.1,3.91,3.91,0,0,0-1-.8,5,5,0,0,0-1.3-.4h0Z" transform="translate(-212.12)"/><polygon class="cls-7" points="394.98 235.7 394.38 238.8 386.38 241.7 386.38 241.8 393.48 243.2 393.07 245.4 382.77 243.4 383.38 240.4 391.57 237.4 391.57 237.4 384.27 235.9 384.77 233.7 394.98 235.7"/><path class="cls-7" d="M600.6,252.9a1.34,1.34,0,0,0,.7-0.6,5.9,5.9,0,0,0,.4-0.8c0-.2.1-0.3,0.1-0.5a0.75,0.75,0,0,0-.1-0.5,1.06,1.06,0,0,0-.2-0.5c-0.1-.1-0.3-0.2-0.4-0.3a0.78,0.78,0,0,0-.8.2,2.76,2.76,0,0,0-.6.8c-0.2.3-.4,0.7-0.6,1a3.92,3.92,0,0,1-.8,1,2.38,2.38,0,0,1-1.1.6,3.75,3.75,0,0,1-1.5,0,3.09,3.09,0,0,1-1.4-.7,2.84,2.84,0,0,1-.8-1.1,3.19,3.19,0,0,1-.3-1.4,7.72,7.72,0,0,1,.2-1.5,5.83,5.83,0,0,1,.8-1.8,3.48,3.48,0,0,1,1.4-1.3l1.3,2a1.6,1.6,0,0,0-.9.7,1.91,1.91,0,0,0-.5,1c0,0.2-.1.4-0.1,0.6a0.75,0.75,0,0,0,.1.5,0.52,0.52,0,0,0,.2.4c0.1,0.1.3,0.2,0.4,0.3a0.78,0.78,0,0,0,.8-0.2,2.85,2.85,0,0,0,.7-0.8,6.07,6.07,0,0,1,.7-1,3.92,3.92,0,0,1,.8-1,4.13,4.13,0,0,1,1.1-.7,3.29,3.29,0,0,1,1.4,0,2.73,2.73,0,0,1,1.3.7,2.84,2.84,0,0,1,.8,1.1,3.19,3.19,0,0,1,.3,1.4,3.89,3.89,0,0,1-.2,1.5,7.74,7.74,0,0,1-.7,1.6,3.45,3.45,0,0,1-1.2,1.2l-1.3-1.9h0Z" transform="translate(-212.12)"/><polygon class="cls-7" points="361.18 312.6 362.88 310.1 364.57 311.3 359.88 318.1 358.18 316.9 359.88 314.5 352.98 309.7 354.27 307.8 361.18 312.6"/><polygon class="cls-7" points="358.68 319.7 357.27 321.6 348.88 315.3 350.27 313.5 358.68 319.7"/><polygon class="cls-7" points="355.48 324 353.27 326.7 346.48 324.2 346.48 324.2 350.18 330.4 347.98 333.1 339.88 326.5 341.38 324.7 347.57 329.8 347.57 329.8 343.18 322.5 344.27 321.2 352.07 324.3 352.18 324.3 345.98 319.1 347.48 317.4 355.48 324"/><polygon class="cls-7" points="345.68 335.6 340.77 340.7 339.27 339.2 342.57 335.8 341.18 334.4 338.07 337.7 336.48 336.2 339.57 333 338.07 331.5 334.57 335.2 333.07 333.7 338.07 328.4 345.68 335.6"/><polygon class="cls-7" points="334.77 346.6 332.18 348.9 325.88 345.3 325.88 345.4 328.57 352.1 325.98 354.4 319.07 346.5 320.77 345 326.07 351 326.07 351 322.88 343.2 324.18 342 331.48 346.3 331.48 346.3 326.18 340.2 327.98 338.7 334.77 346.6"/><path class="cls-7" d="M532.7,358.5l-1.5,1.1-9.9-5.6,2.1-1.6,2,1.2,3.2-2.4-0.6-2.3,2-1.5,2.7,11.1h0Zm-2.5-1.9-0.9-3.3-2,1.5,2.9,1.8h0Z" transform="translate(-212.12)"/><polygon class="cls-7" points="313.68 363.6 310.98 365.2 303.38 361.6 303.27 361.6 307.27 367.7 305.38 368.9 299.68 360.2 302.18 358.5 310.07 362.3 310.07 362.3 306.07 356 307.98 354.8 313.68 363.6"/><path class="cls-7" d="M511.6,372.3l-1.7.9-9-6.9,2.3-1.3,1.9,1.5,3.5-2-0.3-2.3,2.2-1.2,1.1,11.3h0Zm-2.2-2.3-0.5-3.4-2.2,1.2,2.7,2.2h0Z" transform="translate(-212.12)"/><path class="cls-7" d="M491.4,371.5a12.1,12.1,0,0,1,1.6-1.6,7.61,7.61,0,0,1,1.9-1.2,9,9,0,0,1,2.2-.6,5,5,0,0,1,2.1.2,4.18,4.18,0,0,1,1.8,1.1,5.33,5.33,0,0,1,1.3,1.9,6.61,6.61,0,0,1,.6,2.2,7.61,7.61,0,0,1-.3,2.1,6.27,6.27,0,0,1-1.2,1.8,5.33,5.33,0,0,1-1.9,1.3,7,7,0,0,1-2.2.7,3.8,3.8,0,0,1-2.1-.2l0.7-2.3a3.24,3.24,0,0,0,2.7-.2,4.44,4.44,0,0,0,1.1-.8,2.38,2.38,0,0,0,.6-1.1,2.46,2.46,0,0,0,.1-1.2,3.26,3.26,0,0,0-.4-1.3,4.44,4.44,0,0,0-.8-1.1,6.07,6.07,0,0,0-1-.7,2.54,2.54,0,0,0-1.2-.2,3.08,3.08,0,0,0-1.3.3,3,3,0,0,0-1.1.7,1.87,1.87,0,0,0-.6.7l0.7,1.5,1.7-.8,0.9,1.9-3.7,1.7-2.2-4.8h0Z" transform="translate(-212.12)"/><polygon class="cls-7" points="280.38 381.6 273.77 384.2 272.98 382.2 277.48 380.4 276.77 378.6 272.57 380.3 271.77 378.3 275.98 376.6 275.18 374.7 270.48 376.5 269.77 374.5 276.57 371.8 280.38 381.6"/><polygon class="cls-7" points="270.77 385.3 267.48 386.4 263.07 380.6 263.07 380.6 262.77 387.8 259.48 388.9 256.38 378.9 258.57 378.2 260.98 385.8 260.98 385.8 261.18 377.4 262.88 376.8 267.77 383.7 267.88 383.7 265.48 376.1 267.57 375.3 270.77 385.3"/><polygon class="cls-7" points="256.27 389.7 249.38 391.3 248.88 389.3 253.57 388.2 253.07 386.3 248.68 387.3 248.18 385.3 252.57 384.2 252.07 382.1 247.18 383.3 246.68 381.3 253.78 379.5 256.27 389.7"/><polygon class="cls-7" points="246.28 392.1 243.18 392.6 237.57 386.2 237.57 386.2 238.78 393.4 236.57 393.8 234.68 383.5 237.68 383 243.47 389.5 243.47 389.5 242.18 382.2 244.47 381.8 246.28 392.1"/><polygon class="cls-7" points="231.18 392.4 234.07 392.1 234.38 394.1 226.18 395.1 225.97 393.1 228.88 392.7 227.88 384.3 230.18 384.1 231.18 392.4"/><path class="cls-7" d="M353.8,382.9a1.34,1.34,0,0,0,.6.7,1.52,1.52,0,0,0,.8.4,0.9,0.9,0,0,0,.5.1h0.5a1.06,1.06,0,0,0,.5-0.2,1.38,1.38,0,0,0,.3-0.4,0.75,0.75,0,0,0-.1-0.8,4.62,4.62,0,0,0-.7-0.7,8.65,8.65,0,0,0-1-.7,2.58,2.58,0,0,1-.9-0.9,2.38,2.38,0,0,1-.6-1.1,2.66,2.66,0,0,1,.1-1.5,3,3,0,0,1,2-2,5.9,5.9,0,0,1,1.4-.2,4,4,0,0,1,1.5.3,5.56,5.56,0,0,1,1.7.9,4.43,4.43,0,0,1,1.2,1.5l-2.1,1.2a2.4,2.4,0,0,0-1.6-1.6,1.27,1.27,0,0,0-.6-0.1h-0.6a1.06,1.06,0,0,0-.5.2,1.38,1.38,0,0,0-.3.4,0.75,0.75,0,0,0,.1.8,2.34,2.34,0,0,0,.7.7,8.65,8.65,0,0,0,1,.7,9,9,0,0,1,1,.9,2.38,2.38,0,0,1,.6,1.1,2.29,2.29,0,0,1-.1,1.4,2.87,2.87,0,0,1-.8,1.3,2.4,2.4,0,0,1-1.2.7,5.9,5.9,0,0,1-1.4.2,4,4,0,0,1-1.5-.3,3.61,3.61,0,0,1-1.5-.8,3.48,3.48,0,0,1-1.1-1.3l2.1-.9h0Z" transform="translate(-212.12)"/><polygon class="cls-7" points="135.68 381.3 138.47 382.3 137.78 384.2 130.07 381.2 130.78 379.3 133.57 380.4 136.68 372.6 138.78 373.4 135.68 381.3"/><path class="cls-7" d="M338.3,379.5l-1.7-.8,0.2-11.4,2.4,1.1-0.1,2.4,3.7,1.7,1.7-1.7,2.3,1-8.5,7.7h0Zm0.5-3.2,2.5-2.4-2.3-1.1-0.2,3.5h0Z" transform="translate(-212.12)"/><polygon class="cls-7" points="118.38 375.8 112.17 372.5 113.17 370.6 117.38 372.8 118.38 370.9 114.47 368.9 115.47 367 119.38 369.1 121.28 365.5 123.28 366.6 118.38 375.8"/><polygon class="cls-7" points="109.88 371.1 103.78 367.5 104.88 365.7 108.97 368.1 110.08 366.3 106.28 364.1 107.38 362.2 111.17 364.5 113.28 361 115.17 362.2 109.88 371.1"/><polygon class="cls-7" points="101.67 366.1 99.78 364.9 105.47 356.1 107.38 357.4 101.67 366.1"/><polygon class="cls-7" points="97.17 363.2 94.67 361.3 95.38 352.8 95.38 352.8 91.08 358.7 89.17 357.3 95.38 348.9 97.78 350.7 97.08 359.4 97.08 359.4 101.47 353.4 103.38 354.8 97.17 363.2"/><path class="cls-7" d="M297.8,341.8a7.61,7.61,0,0,1,2.1.8,12.74,12.74,0,0,1,1.9,1.3,6.55,6.55,0,0,1,1.5,1.8,4.79,4.79,0,0,1,.7,2,5,5,0,0,1-.2,2.1,5.64,5.64,0,0,1-1.1,2,6.55,6.55,0,0,1-1.8,1.5,4.9,4.9,0,0,1-4.1.3,5.33,5.33,0,0,1-2-1.2,8.52,8.52,0,0,1-1.6-1.7,3.72,3.72,0,0,1-.7-2l2.4-.3a2.77,2.77,0,0,0,.3,1.3,2.59,2.59,0,0,0,1,1.1,7.46,7.46,0,0,0,1.2.7,2.46,2.46,0,0,0,1.2.1,3.2,3.2,0,0,0,2.2-1.3,3.75,3.75,0,0,0,.7-1.2,5,5,0,0,0,.2-1.2,2.66,2.66,0,0,0-.3-1.2,2.84,2.84,0,0,0-.9-1,4.89,4.89,0,0,0-1.1-.7,1.61,1.61,0,0,0-.9-0.3l-1.1,1.3,1.4,1.2-1.4,1.6-3.1-2.6,3.5-4.4h0Z" transform="translate(-212.12)"/><path class="cls-7" d="M234.8,251.6a3,3,0,0,0-.4,1,2.55,2.55,0,0,0,.1,1.2,2.38,2.38,0,0,0,.6,1.1,2.76,2.76,0,0,0,.9.7,2.66,2.66,0,0,0,1.2.3,3.64,3.64,0,0,0,1.4-.2,2.28,2.28,0,0,0,1.2-.6,7.64,7.64,0,0,0,.9-0.9,2.1,2.1,0,0,0,.4-1.1,2.46,2.46,0,0,0-.1-1.2,2,2,0,0,0-.6-1.1,2.08,2.08,0,0,0-1-.6l0.9-2.2a4.39,4.39,0,0,1,1.8,1.2,5,5,0,0,1,1,1.9,6.17,6.17,0,0,1,.2,2.3,4.66,4.66,0,0,1-.6,2,6.53,6.53,0,0,1-1.3,1.6,5.12,5.12,0,0,1-2.1,1,6.17,6.17,0,0,1-2.3.2,4.79,4.79,0,0,1-2-.7,5,5,0,0,1-1.5-1.4,6.81,6.81,0,0,1-1-2.1c-0.1-.3-0.1-0.6-0.2-0.9v-1a3.55,3.55,0,0,1,.2-1,4.05,4.05,0,0,1,.5-0.9l1.8,1.4h0Z" transform="translate(-212.12)"/><path class="cls-7" d="M236.3,247.6a6,6,0,0,1-2.3.1,4.06,4.06,0,0,1-1.9-.8,4,4,0,0,1-1.4-1.5,4.85,4.85,0,0,1-.8-2.1,6,6,0,0,1-.1-2.3,4.79,4.79,0,0,1,.7-2,5,5,0,0,1,1.4-1.5,6.67,6.67,0,0,1,2.1-.9,6,6,0,0,1,2.3-.1,4.06,4.06,0,0,1,1.9.8,4,4,0,0,1,1.4,1.5,4.85,4.85,0,0,1,.8,2.1,6,6,0,0,1,.1,2.3,4.79,4.79,0,0,1-.7,2,4.31,4.31,0,0,1-1.5,1.5,5.28,5.28,0,0,1-2,.9h0Zm-0.5-2.3a5,5,0,0,0,1.3-.5,2,2,0,0,0,.9-0.9,3.7,3.7,0,0,0,.5-1.1,3.29,3.29,0,0,0,0-1.4,3.34,3.34,0,0,0-.5-1.2,2.58,2.58,0,0,0-.9-0.9,4.23,4.23,0,0,0-1.2-.4,3.44,3.44,0,0,0-1.4.1,5,5,0,0,0-1.3.5,2,2,0,0,0-.9.9,3.34,3.34,0,0,0-.5,1.2,3.29,3.29,0,0,0,0,1.4,3.34,3.34,0,0,0,.5,1.2,3.82,3.82,0,0,0,.9.9,2.45,2.45,0,0,0,1.2.4c0.5-.1.9-0.1,1.4-0.2h0Z" transform="translate(-212.12)"/><polygon class="cls-7" points="16.18 235 15.78 231.5 22.18 228.2 22.18 228.2 15.07 226.7 14.68 223.3 24.98 221.9 25.27 224.2 17.38 225.2 17.38 225.3 25.68 226.9 25.88 228.7 18.27 232.3 18.38 232.4 26.27 231.3 26.57 233.6 16.18 235"/><path class="cls-7" d="M226.5,220l-0.2-3.9v-1.5a5,5,0,0,1,.4-1.3,2,2,0,0,1,.9-0.9,3.31,3.31,0,0,1,1.5-.4,3.42,3.42,0,0,1,1.5.2,2.55,2.55,0,0,1,1,.7,2.28,2.28,0,0,1,.6,1.2l0.3,1.5,0.1,1.7,4.1-.2,0.1,2.3-10.3.6h0Zm4.3-2.6-0.1-1.5a1.27,1.27,0,0,0-.1-0.6,2.57,2.57,0,0,0-.2-0.5,0.62,0.62,0,0,0-.4-0.3,1.27,1.27,0,0,0-.6-0.1,0.85,0.85,0,0,0-.6.2,0.55,0.55,0,0,0-.3.5,1.48,1.48,0,0,0-.1.7v0.7l0.1,1.2,2.3-.3h0Z" transform="translate(-212.12)"/><polygon class="cls-7" points="13.88 209.6 13.88 207.3 22.18 207.3 22.07 203 24.18 203 24.27 209.5 13.88 209.6"/><polygon class="cls-7" points="13.88 200.9 13.88 198.6 24.38 198.9 24.27 201.2 13.88 200.9"/><path class="cls-7" d="M226.4,192.2l0.1-1.9,10.8-3.7-0.2,2.6-2.3.7-0.3,4,2.1,1-0.2,2.5-10-5.2h0Zm3.1-.7,3.1,1.5,0.2-2.5-3.3,1h0Z" transform="translate(-212.12)"/><polygon class="cls-7" points="14.97 183.6 15.47 180.5 23.27 177.1 23.27 177.1 16.07 176.1 16.48 173.8 26.77 175.3 26.38 178.3 18.27 181.7 18.27 181.7 25.68 182.8 25.38 185.1 14.97 183.6"/><path class="cls-7" d="M233.2,164.5a2.7,2.7,0,0,0-.8.7,2.81,2.81,0,0,0-.5,1.1,2.44,2.44,0,0,0,0,1.2,2.22,2.22,0,0,0,.5,1.1,2.36,2.36,0,0,0,.9.8,5,5,0,0,0,1.3.5,6.6,6.6,0,0,0,1.4.1,5.64,5.64,0,0,0,1.2-.4,6.47,6.47,0,0,0,.9-0.8,3.7,3.7,0,0,0,.5-1.1,2.84,2.84,0,0,0,0-1.3,3,3,0,0,0-.6-1.1l1.8-1.6a5,5,0,0,1,1,1.9,7.39,7.39,0,0,1,0,2.1,10.23,10.23,0,0,1-.8,2.1,6.73,6.73,0,0,1-1.4,1.5,4.55,4.55,0,0,1-1.9.8,6,6,0,0,1-2.3-.1,6.67,6.67,0,0,1-2.1-.9,4,4,0,0,1-1.4-1.5,4.35,4.35,0,0,1-.7-2,6,6,0,0,1,.1-2.3l0.3-.9c0.1-.3.3-0.6,0.4-0.9a4.17,4.17,0,0,1,.6-0.8,7,7,0,0,1,.9-0.6l0.7,2.4h0Z" transform="translate(-212.12)"/><polygon class="cls-7" points="19.48 159.6 21.38 152.8 23.38 153.3 22.18 158 23.98 158.5 25.18 154.1 27.27 154.7 26.07 159 28.07 159.6 29.48 154.7 31.48 155.3 29.57 162.4 19.48 159.6"/><polygon class="cls-7" points="113.47 94.7 115.17 94.7 116.97 101.3 116.97 101.3 118.88 94.7 120.58 94.7 122.47 101.3 122.47 101.3 124.28 94.7 125.97 94.7 123.38 103.6 121.78 103.6 119.78 97 119.67 97 117.58 103.6 116.08 103.6 113.47 94.7"/><path class="cls-7" d="M344.3,100.7v0.4h-4.6a1.42,1.42,0,0,0,.2.6,1.76,1.76,0,0,0,.4.5c0.2,0.1.3,0.2,0.5,0.3a1.27,1.27,0,0,0,.6.1,3,3,0,0,0,1-.2,0.9,0.9,0,0,0,.6-0.6l1,0.8a3.09,3.09,0,0,1-2.6,1.2,5.07,5.07,0,0,1-1.3-.2,3.33,3.33,0,0,1-1-.6,3.59,3.59,0,0,1-.7-1,2.74,2.74,0,0,1-.2-1.3,5.07,5.07,0,0,1,.2-1.3,3.51,3.51,0,0,1,1.7-1.7,2.74,2.74,0,0,1,1.3-.2,5,5,0,0,1,1.2.2,1.46,1.46,0,0,1,.9.6,2.08,2.08,0,0,1,.6,1,3,3,0,0,1,.2,1.4h0Zm-1.5-.7a1.27,1.27,0,0,0-.1-0.6,1.33,1.33,0,0,0-.3-0.5c-0.1-.1-0.3-0.2-0.4-0.3a1.27,1.27,0,0,0-.6-0.1,1.37,1.37,0,0,0-1.1.4,1.39,1.39,0,0,0-.5,1h3V100Z" transform="translate(-212.12)"/><path class="cls-7" d="M349.5,102.9h0a1.85,1.85,0,0,1-.8.7,2,2,0,0,1-1.1.3,2.48,2.48,0,0,1-.8-0.1,4.88,4.88,0,0,1-.7-0.3,1.7,1.7,0,0,1-.6-0.6,2,2,0,0,1-.2-0.9,1.37,1.37,0,0,1,.4-1.1,2.08,2.08,0,0,1,1-.6c0.4-.1.8-0.2,1.3-0.3a7.09,7.09,0,0,1,1.4-.1V99.8A0.73,0.73,0,0,0,349,99a1.69,1.69,0,0,0-1-.3,2.92,2.92,0,0,0-.9.2,1.79,1.79,0,0,0-.7.5l-0.8-.9a2.4,2.4,0,0,1,1.2-.7,3.18,3.18,0,0,1,1.4-.2,4.44,4.44,0,0,1,1.3.2,2.41,2.41,0,0,1,.8.6,3,3,0,0,1,.4.8,2.77,2.77,0,0,1,.1.9v3.7h-1.4v-0.9h0.1Zm-0.1-2h-1.1c-0.3,0-.5.1-0.7,0.1l-0.6.3a0.48,0.48,0,0,0-.2.5,0.6,0.6,0,0,0,.1.4,0.38,0.38,0,0,0,.2.2,0.37,0.37,0,0,0,.3.1h0.4a1.59,1.59,0,0,0,1.2-.4,1.5,1.5,0,0,0,.4-1.1v-0.1h0Z" transform="translate(-212.12)"/><polygon class="cls-7" points="140.57 94.1 142.07 94.1 142.07 103.6 140.57 103.6 140.57 94.1"/><path class="cls-7" d="M355.1,98.8V97.6h1.1V95.9h1.5v1.7h1.5v1.2h-1.5v2.8a1.48,1.48,0,0,0,.1.7,0.6,0.6,0,0,0,.6.3h0.3c0.1,0,.2-0.1.3-0.1v1.2a0.75,0.75,0,0,1-.5.1H358a3,3,0,0,1-1-.2,1.47,1.47,0,0,1-.6-0.5,4.87,4.87,0,0,1-.3-0.7,2.2,2.2,0,0,1-.1-0.8V98.8h-0.9Z" transform="translate(-212.12)"/><path class="cls-7" d="M363.6,97.4a3,3,0,0,1,1,.2,1.79,1.79,0,0,1,.7.5,2,2,0,0,1,.4.8,2.77,2.77,0,0,1,.1.9v3.8h-1.5V99.8a0.76,0.76,0,0,0-.2-0.5,1.38,1.38,0,0,0-.3-0.4,0.85,0.85,0,0,0-.6-0.2,1.08,1.08,0,0,0-.6.1,0.78,0.78,0,0,0-.4.4c-0.1.2-.2,0.3-0.3,0.5a1.27,1.27,0,0,0-.1.6v3.3h-1.5V94.1h1.5v4.3h0a4,4,0,0,1,.3-0.4,1.38,1.38,0,0,1,.4-0.3,1.06,1.06,0,0,1,.5-0.2c0.2,0,.4-0.1.6-0.1h0Z" transform="translate(-212.12)"/><polygon class="cls-7" points="77.97 124.8 83.67 124.8 83.67 126.2 79.58 126.2 79.58 128.6 83.47 128.6 83.47 130 79.58 130 79.58 133.7 77.97 133.7 77.97 124.8"/><path class="cls-7" d="M296.8,125.6a0.71,0.71,0,0,1,.3-0.6,1,1,0,0,1,1.4,0,0.86,0.86,0,0,1,.3.6,0.6,0.6,0,0,1-.3.6,1,1,0,0,1-1.4,0,0.6,0.6,0,0,1-.3-0.6h0Zm0.2,2.1h1.5v6H297v-6h0Z" transform="translate(-212.12)"/><path class="cls-7" d="M300.4,127.7h1.4v1h0a1.78,1.78,0,0,1,.7-0.8,2.13,2.13,0,0,1,1.2-.3,3,3,0,0,1,1,.2,1.79,1.79,0,0,1,.7.5,2,2,0,0,1,.4.8,2.77,2.77,0,0,1,.1.9v3.8h-1.5v-3.9a0.76,0.76,0,0,0-.2-0.5,1.38,1.38,0,0,0-.3-0.4,0.85,0.85,0,0,0-.6-0.2,1.08,1.08,0,0,0-.6.1,0.78,0.78,0,0,0-.4.4,2.18,2.18,0,0,0-.3.5,1.27,1.27,0,0,0-.1.6v3.3h-1.5v-6h0Z" transform="translate(-212.12)"/><path class="cls-7" d="M311.4,132.9h0a1.85,1.85,0,0,1-.8.7,2,2,0,0,1-1.1.3,2.48,2.48,0,0,1-.8-0.1,4.88,4.88,0,0,1-.7-0.3,1.7,1.7,0,0,1-.6-0.6,2,2,0,0,1-.2-0.9,1.37,1.37,0,0,1,.4-1.1,2.08,2.08,0,0,1,1-.6c0.4-.1.8-0.2,1.3-0.3a7.09,7.09,0,0,1,1.4-.1v-0.2a0.73,0.73,0,0,0-.4-0.8,1.69,1.69,0,0,0-1-.3,2.92,2.92,0,0,0-.9.2,1.79,1.79,0,0,0-.7.5l-0.8-.9a2.4,2.4,0,0,1,1.2-.7,3.18,3.18,0,0,1,1.4-.2,4.44,4.44,0,0,1,1.3.2,1.56,1.56,0,0,1,.8.6,2,2,0,0,1,.4.8,2.77,2.77,0,0,1,.1.9v3.7h-1.4v-0.8h0.1Zm0-1.9h-1.1c-0.3,0-.5.1-0.7,0.1l-0.6.3a0.48,0.48,0,0,0-.2.5,0.6,0.6,0,0,0,.1.4,0.38,0.38,0,0,0,.2.2,0.37,0.37,0,0,0,.3.1h0.4a1.59,1.59,0,0,0,1.2-.4,1.5,1.5,0,0,0,.4-1.1V131h0Z" transform="translate(-212.12)"/><path class="cls-7" d="M314.6,127.7H316v1h0a1.78,1.78,0,0,1,.7-0.8,2.13,2.13,0,0,1,1.2-.3,3,3,0,0,1,1,.2,1.79,1.79,0,0,1,.7.5,2,2,0,0,1,.4.8,2.77,2.77,0,0,1,.1.9v3.8h-1.5v-3.9a0.76,0.76,0,0,0-.2-0.5,1.38,1.38,0,0,0-.3-0.4,0.85,0.85,0,0,0-.6-0.2,1.08,1.08,0,0,0-.6.1,0.78,0.78,0,0,0-.4.4,2.18,2.18,0,0,0-.3.5,1.27,1.27,0,0,0-.1.6v3.3h-1.5v-6h0Z" transform="translate(-212.12)"/><path class="cls-7" d="M326,129.4a1,1,0,0,0-.5-0.4,1.85,1.85,0,0,0-.7-0.2,1.45,1.45,0,0,0-.7.2,2.18,2.18,0,0,0-.5.4l-0.3.6a2.5,2.5,0,0,0,0,1.4l0.3,0.6a1,1,0,0,0,.5.4,1.85,1.85,0,0,0,.7.2,1.7,1.7,0,0,0,.7-0.1,2.09,2.09,0,0,0,.6-0.4l0.9,1a2.08,2.08,0,0,1-1,.6,5.07,5.07,0,0,1-1.3.2,5.85,5.85,0,0,1-1.3-.2,2.07,2.07,0,0,1-1-.6,3.59,3.59,0,0,1-.7-1,3,3,0,0,1,0-2.6,3.59,3.59,0,0,1,.7-1,2.08,2.08,0,0,1,1-.6,2.54,2.54,0,0,1,1.2-.2,3.08,3.08,0,0,1,1.3.3,3.59,3.59,0,0,1,1,.7l-0.9.7h0Z" transform="translate(-212.12)"/><path class="cls-7" d="M327.8,125.6a0.71,0.71,0,0,1,.3-0.6,1,1,0,0,1,1.4,0,0.86,0.86,0,0,1,.3.6,0.6,0.6,0,0,1-.3.6,1,1,0,0,1-1.4,0,0.6,0.6,0,0,1-.3-0.6h0Zm0.2,2.1h1.5v6H328v-6h0Z" transform="translate(-212.12)"/><path class="cls-7" d="M331.4,127.7h1.4v1h0a1.78,1.78,0,0,1,.7-0.8,2.13,2.13,0,0,1,1.2-.3,3,3,0,0,1,1,.2,1.79,1.79,0,0,1,.7.5,2,2,0,0,1,.4.8,2.77,2.77,0,0,1,.1.9v3.8h-1.5v-3.9a0.76,0.76,0,0,0-.2-0.5,1.38,1.38,0,0,0-.3-0.4,0.85,0.85,0,0,0-.6-0.2,0.92,0.92,0,0,0-.6.1,0.78,0.78,0,0,0-.4.4,2.18,2.18,0,0,0-.3.5,1.27,1.27,0,0,0-.1.6v3.3h-1.5v-6h0Z" transform="translate(-212.12)"/><path class="cls-7" d="M344.8,127.7v5.5a7.72,7.72,0,0,1-.2,1.5,2.38,2.38,0,0,1-.6,1.1,3,3,0,0,1-1.1.7,3.34,3.34,0,0,1-1.5.3,2.48,2.48,0,0,1-.8-0.1,2.35,2.35,0,0,1-.8-0.2c-0.3-.1-0.5-0.2-0.8-0.3a4.35,4.35,0,0,1-.7-0.4l0.9-1.2a2.08,2.08,0,0,0,1,.6,4.25,4.25,0,0,0,1.1.2,2,2,0,0,0,.9-0.2,2.09,2.09,0,0,0,.6-0.4,1.49,1.49,0,0,0,.3-0.7,2.2,2.2,0,0,0,.1-0.8v-0.4h0a2.7,2.7,0,0,1-.8.7,2,2,0,0,1-1.1.2,2.13,2.13,0,0,1-1.2-.3,2.18,2.18,0,0,1-.9-0.7,3.33,3.33,0,0,1-.6-1,3.7,3.7,0,0,1,0-2.4,2.07,2.07,0,0,1,.6-1,5.5,5.5,0,0,1,.9-0.7,2.55,2.55,0,0,1,2.4,0,1.76,1.76,0,0,1,.9.8h0v-0.9h1.4v0.1h0Zm-3.2,1a0.84,0.84,0,0,0-.7.2,1,1,0,0,0-.5.4,1.69,1.69,0,0,0-.3.6,2,2,0,0,0-.1.8,1.7,1.7,0,0,0,.1.7l0.3,0.6a1,1,0,0,0,.5.4,1.85,1.85,0,0,0,.7.2,1.45,1.45,0,0,0,.7-0.2,1.84,1.84,0,0,0,1-1,1.7,1.7,0,0,0,.1-0.7,1.48,1.48,0,0,0-.1-0.7,2.09,2.09,0,0,0-.4-0.6,1.27,1.27,0,0,0-.6-0.4,0.91,0.91,0,0,0-.7-0.3h0Z" transform="translate(-212.12)"/><path class="cls-7" d="M349.8,124.8h2.9a6.15,6.15,0,0,1,1.4.1,2.22,2.22,0,0,1,1.1.5,2.7,2.7,0,0,1,.7.8,2.17,2.17,0,0,1,.2,1.2,2.13,2.13,0,0,1-.3,1.2,2.7,2.7,0,0,1-.7.8,2.1,2.1,0,0,1-1.1.4,5.7,5.7,0,0,1-1.3.1h-1.2v3.7h-1.6v-8.8h-0.1Zm2.7,3.9a1.48,1.48,0,0,0,.7-0.1,1.42,1.42,0,0,0,.6-0.2,0.78,0.78,0,0,0,.4-0.4,1.45,1.45,0,0,0,.2-0.7,0.85,0.85,0,0,0-.2-0.6,1.51,1.51,0,0,0-.4-0.4,1.42,1.42,0,0,0-.6-0.2h-1.9v2.5h1.2v0.1h0Z" transform="translate(-212.12)"/><polygon class="cls-7" points="145.28 124.2 146.78 124.2 146.78 133.7 145.28 133.7 145.28 124.2"/><path class="cls-7" d="M364.5,132.9h0a1.85,1.85,0,0,1-.8.7,2,2,0,0,1-1.1.3,2.48,2.48,0,0,1-.8-0.1,4.88,4.88,0,0,1-.7-0.3,1.7,1.7,0,0,1-.6-0.6,2,2,0,0,1-.2-0.9,1.37,1.37,0,0,1,.4-1.1,2.08,2.08,0,0,1,1-.6c0.4-.1.8-0.2,1.3-0.3a7.09,7.09,0,0,1,1.4-.1v-0.2a0.73,0.73,0,0,0-.4-0.8,1.69,1.69,0,0,0-1-.3,2.92,2.92,0,0,0-.9.2,1.79,1.79,0,0,0-.7.5l-0.8-.9a2.4,2.4,0,0,1,1.2-.7,3.18,3.18,0,0,1,1.4-.2,4.44,4.44,0,0,1,1.3.2,1.56,1.56,0,0,1,.8.6,2,2,0,0,1,.4.8,2.77,2.77,0,0,1,.1.9v3.7h-1.4v-0.8h0.1Zm0-1.9h-1.1c-0.3,0-.5.1-0.7,0.1l-0.6.3a0.48,0.48,0,0,0-.2.5,0.6,0.6,0,0,0,.1.4,0.38,0.38,0,0,0,.2.2,0.37,0.37,0,0,0,.3.1h0.4a1.59,1.59,0,0,0,1.2-.4,1.5,1.5,0,0,0,.4-1.1V131h0Z" transform="translate(-212.12)"/><path class="cls-7" d="M367.7,127.7h1.4v1h0a1.78,1.78,0,0,1,.7-0.8,2.13,2.13,0,0,1,1.2-.3,3,3,0,0,1,1,.2,1.79,1.79,0,0,1,.7.5,2,2,0,0,1,.4.8,2.77,2.77,0,0,1,.1.9v3.8h-1.5v-3.9a0.76,0.76,0,0,0-.2-0.5,1.38,1.38,0,0,0-.3-0.4,0.85,0.85,0,0,0-.6-0.2,0.92,0.92,0,0,0-.6.1,0.78,0.78,0,0,0-.4.4,2.18,2.18,0,0,0-.3.5,1.27,1.27,0,0,0-.1.6v3.3h-1.5v-6h0Z" transform="translate(-212.12)"/><path class="cls-7" d="M375,127.7h1.4v1h0a1.78,1.78,0,0,1,.7-0.8,2.13,2.13,0,0,1,1.2-.3,3,3,0,0,1,1,.2,1.79,1.79,0,0,1,.7.5,2,2,0,0,1,.4.8,2.77,2.77,0,0,1,.1.9v3.8H379v-3.9a0.76,0.76,0,0,0-.2-0.5,1.38,1.38,0,0,0-.3-0.4,0.85,0.85,0,0,0-.6-0.2,1.08,1.08,0,0,0-.6.1,0.78,0.78,0,0,0-.4.4,2.18,2.18,0,0,0-.3.5,1.27,1.27,0,0,0-.1.6v3.3H375v-6h0Z" transform="translate(-212.12)"/><path class="cls-7" d="M382.1,125.6a0.71,0.71,0,0,1,.3-0.6,1,1,0,0,1,1.4,0,0.86,0.86,0,0,1,.3.6,0.6,0.6,0,0,1-.3.6,1,1,0,0,1-1.4,0,0.6,0.6,0,0,1-.3-0.6h0Zm0.2,2.1h1.5v6h-1.5v-6h0Z" transform="translate(-212.12)"/><path class="cls-7" d="M385.6,127.7H387v1h0a1.78,1.78,0,0,1,.7-0.8,2.13,2.13,0,0,1,1.2-.3,3,3,0,0,1,1,.2,1.79,1.79,0,0,1,.7.5,2,2,0,0,1,.4.8,2.77,2.77,0,0,1,.1.9v3.8h-1.5v-3.9a0.76,0.76,0,0,0-.2-0.5,1.38,1.38,0,0,0-.3-0.4,0.85,0.85,0,0,0-.6-0.2,1.08,1.08,0,0,0-.6.1,0.78,0.78,0,0,0-.4.4,2.18,2.18,0,0,0-.3.5,1.27,1.27,0,0,0-.1.6v3.3h-1.5v-6h0Z" transform="translate(-212.12)"/><path class="cls-7" d="M399.1,127.7v5.5a7.72,7.72,0,0,1-.2,1.5,2.38,2.38,0,0,1-.6,1.1,3,3,0,0,1-1.1.7,3.34,3.34,0,0,1-1.5.3,2.48,2.48,0,0,1-.8-0.1,2.35,2.35,0,0,1-.8-0.2c-0.3-.1-0.5-0.2-0.8-0.3a4.35,4.35,0,0,1-.7-0.4l0.9-1.2a2.08,2.08,0,0,0,1,.6,4.25,4.25,0,0,0,1.1.2,2,2,0,0,0,.9-0.2,2.09,2.09,0,0,0,.6-0.4,1.49,1.49,0,0,0,.3-0.7,2.2,2.2,0,0,0,.1-0.8v-0.4h0a2.7,2.7,0,0,1-.8.7,2,2,0,0,1-1.1.2,2.13,2.13,0,0,1-1.2-.3,2.18,2.18,0,0,1-.9-0.7,2.08,2.08,0,0,1-.6-1,3.7,3.7,0,0,1,0-2.4,2.07,2.07,0,0,1,.6-1,5.5,5.5,0,0,1,.9-0.7,2.55,2.55,0,0,1,2.4,0,1.76,1.76,0,0,1,.9.8h0v-0.9h1.4v0.1h0Zm-3.3,1a0.84,0.84,0,0,0-.7.2,1,1,0,0,0-.5.4,1.69,1.69,0,0,0-.3.6,2,2,0,0,0-.1.8,1.7,1.7,0,0,0,.1.7l0.3,0.6a1,1,0,0,0,.5.4,1.85,1.85,0,0,0,.7.2,1.45,1.45,0,0,0,.7-0.2,1.84,1.84,0,0,0,1-1,1.7,1.7,0,0,0,.1-0.7,1.48,1.48,0,0,0-.1-0.7,2.09,2.09,0,0,0-.4-0.6,1.27,1.27,0,0,0-.6-0.4,0.78,0.78,0,0,0-.7-0.3h0Z" transform="translate(-212.12)"/><polygon class="cls-7" points="101.17 143.5 102.67 143.5 102.67 152.4 101.17 152.4 101.17 143.5"/><path class="cls-7" d="M316.7,146.4h1.4v1h0a1.78,1.78,0,0,1,.7-0.8,2.13,2.13,0,0,1,1.2-.3,3,3,0,0,1,1,.2,1.79,1.79,0,0,1,.7.5,2,2,0,0,1,.4.8,2.77,2.77,0,0,1,.1.9v3.8h-1.5v-3.9a0.76,0.76,0,0,0-.2-0.5,1.38,1.38,0,0,0-.3-0.4,0.92,0.92,0,0,0-.6-0.1,1.08,1.08,0,0,0-.6.1,0.78,0.78,0,0,0-.4.4c-0.1.2-.2,0.3-0.3,0.5a1.27,1.27,0,0,0-.1.6v3.3h-1.5v-6.1h0Z" transform="translate(-212.12)"/><path class="cls-7" d="M324.3,147.6h-1.1v-1.2h1.1v-0.9a3.08,3.08,0,0,1,.1-1,3.55,3.55,0,0,1,.4-0.9,2,2,0,0,1,.7-0.6,3.73,3.73,0,0,1,1.2-.2h0.4a0.37,0.37,0,0,1,.3.1l-0.1,1.3a0.37,0.37,0,0,1-.3-0.1h-0.3a0.75,0.75,0,0,0-.5.1l-0.3.3a0.6,0.6,0,0,0-.1.4v1.5h1.4v1.2h-1.4v4.8h-1.5v-4.8h0Z" transform="translate(-212.12)"/><path class="cls-7" d="M327.7,149.3a2.77,2.77,0,0,1,.3-1.3,3.59,3.59,0,0,1,.7-1,2.08,2.08,0,0,1,1-.6,2.74,2.74,0,0,1,1.3-.2,5.07,5.07,0,0,1,1.3.2,3.33,3.33,0,0,1,1,.6,3.59,3.59,0,0,1,.7,1,3,3,0,0,1,0,2.6,3.51,3.51,0,0,1-1.7,1.7,2.74,2.74,0,0,1-1.3.2,5.07,5.07,0,0,1-1.3-.2,3.51,3.51,0,0,1-1.7-1.7,2.5,2.5,0,0,1-.3-1.3h0Zm1.6,0a1.7,1.7,0,0,0,.1.7l0.3,0.6a2.36,2.36,0,0,0,.5.5,1.7,1.7,0,0,0,1.6,0,1.2,1.2,0,0,0,.5-0.5l0.3-.6a2.5,2.5,0,0,0,0-1.4l-0.3-.6a1,1,0,0,0-.5-0.4,1.7,1.7,0,0,0-1.6,0,2.18,2.18,0,0,0-.5.4l-0.3.6a2,2,0,0,0-.1.7h0Z" transform="translate(-212.12)"/><path class="cls-7" d="M335.7,146.4h1.4v1h0a3.11,3.11,0,0,1,.7-0.9,2,2,0,0,1,1.1-.3h0.4v1.4h-0.5a1.88,1.88,0,0,0-.8.2,1.2,1.2,0,0,0-.5.5,1.69,1.69,0,0,0-.2.5,2.27,2.27,0,0,1-.1.4v3.2h-1.5v-6h0Z" transform="translate(-212.12)"/><path class="cls-7" d="M347.5,146.2a3,3,0,0,1,1,.2,1.79,1.79,0,0,1,.7.5,2,2,0,0,1,.4.8,2.77,2.77,0,0,1,.1.9v3.8h-1.5v-3.9a0.76,0.76,0,0,0-.2-0.5,1.38,1.38,0,0,0-.3-0.4,0.92,0.92,0,0,0-.6-0.1c-0.2,0-.4.1-0.6,0.1a0.78,0.78,0,0,0-.4.4,1.06,1.06,0,0,0-.2.5,1.27,1.27,0,0,0-.1.6v3.3h-1.5v-3.6a1.2,1.2,0,0,0-1.09-1.3h0a1.27,1.27,0,0,0-.6.1,0.78,0.78,0,0,0-.4.4,1.06,1.06,0,0,0-.2.5,1.27,1.27,0,0,0-.1.6v3.3h-1.6v-6h1.4v1h0a1.38,1.38,0,0,1,.3-0.4,1.51,1.51,0,0,1,.4-0.4c0.2-.1.3-0.2,0.5-0.3a1.48,1.48,0,0,1,.7-0.1,2.13,2.13,0,0,1,1.2.3,2.7,2.7,0,0,1,.7.8,1.55,1.55,0,0,1,.8-0.8,2.66,2.66,0,0,1,1.2-.3h0Z" transform="translate(-212.12)"/><path class="cls-7" d="M355.2,151.6h0a1.85,1.85,0,0,1-.8.7,2,2,0,0,1-1.1.3,2.48,2.48,0,0,1-.8-0.1,4.88,4.88,0,0,1-.7-0.3,1.7,1.7,0,0,1-.6-0.6,2,2,0,0,1-.2-0.9,1.37,1.37,0,0,1,.4-1.1,2.08,2.08,0,0,1,1-.6c0.4-.1.8-0.2,1.3-0.3a7.09,7.09,0,0,1,1.4-.1v-0.2a0.73,0.73,0,0,0-.4-0.8,1.69,1.69,0,0,0-1-.3,2.92,2.92,0,0,0-.9.2,1.79,1.79,0,0,0-.7.5l-0.8-.9a2.4,2.4,0,0,1,1.2-.7,3.18,3.18,0,0,1,1.4-.2,4.44,4.44,0,0,1,1.3.2,1.56,1.56,0,0,1,.8.6,2,2,0,0,1,.4.8,2.77,2.77,0,0,1,.1.9v3.7h-1.4v-0.8h0.1Zm0-2h-1.1c-0.3,0-.5.1-0.7,0.1l-0.6.3a0.76,0.76,0,0,0-.2.5,0.6,0.6,0,0,0,.1.4,0.38,0.38,0,0,0,.2.2,0.37,0.37,0,0,0,.3.1h0.4a1.59,1.59,0,0,0,1.2-.4,1.5,1.5,0,0,0,.4-1.1v-0.1h0Z" transform="translate(-212.12)"/><path class="cls-7" d="M357.4,147.6v-1.2h1.1v-1.7H360v1.7h1.5v1.2H360v2.8a1.48,1.48,0,0,0,.1.7,0.6,0.6,0,0,0,.6.3H361c0.1,0,.2-0.1.3-0.1l0.1,1.2a0.75,0.75,0,0,1-.5.1h-0.5a3,3,0,0,1-1-.2,1,1,0,0,1-.6-0.5,4.87,4.87,0,0,1-.3-0.7,2.2,2.2,0,0,1-.1-0.8v-2.8h-1Z" transform="translate(-212.12)"/><path class="cls-7" d="M362.3,144.3a0.71,0.71,0,0,1,.3-0.6,1,1,0,0,1,1.4,0,0.86,0.86,0,0,1,.3.6,0.6,0.6,0,0,1-.3.6,1,1,0,0,1-1.4,0,0.6,0.6,0,0,1-.3-0.6h0Zm0.3,2.1h1.5v6h-1.5v-6h0Z" transform="translate(-212.12)"/><path class="cls-7" d="M365.5,149.3a2.77,2.77,0,0,1,.3-1.3,3.59,3.59,0,0,1,.7-1,2.08,2.08,0,0,1,1-.6,2.74,2.74,0,0,1,1.3-.2,5.07,5.07,0,0,1,1.3.2,3.33,3.33,0,0,1,1,.6,3.59,3.59,0,0,1,.7,1,3,3,0,0,1,0,2.6,3.51,3.51,0,0,1-1.7,1.7,2.74,2.74,0,0,1-1.3.2,5.07,5.07,0,0,1-1.3-.2,3.51,3.51,0,0,1-1.7-1.7,2.5,2.5,0,0,1-.3-1.3h0Zm1.6,0a1.7,1.7,0,0,0,.1.7l0.3,0.6a2.36,2.36,0,0,0,.5.5,1.7,1.7,0,0,0,1.6,0,1.2,1.2,0,0,0,.5-0.5l0.3-.6a2.5,2.5,0,0,0,0-1.4l-0.3-.6a1,1,0,0,0-.5-0.4,1.7,1.7,0,0,0-1.6,0,2.18,2.18,0,0,0-.5.4l-0.3.6a2,2,0,0,0-.1.7h0Z" transform="translate(-212.12)"/><path class="cls-7" d="M373.5,146.4h1.4v1h0a1.78,1.78,0,0,1,.7-0.8,2.13,2.13,0,0,1,1.2-.3,3,3,0,0,1,1,.2,1.79,1.79,0,0,1,.7.5,2,2,0,0,1,.4.8,2.77,2.77,0,0,1,.1.9v3.8h-1.5v-3.9a0.76,0.76,0,0,0-.2-0.5,1.38,1.38,0,0,0-.3-0.4,0.92,0.92,0,0,0-.6-0.1,1.08,1.08,0,0,0-.6.1,0.78,0.78,0,0,0-.4.4c-0.1.2-.2,0.3-0.3,0.5a1.27,1.27,0,0,0-.1.6v3.3h-1.5v-6.1h0Z" transform="translate(-212.12)"/><polygon class="cls-7" points="96.08 154.9 98.58 154.9 100.88 161.2 100.88 161.2 103.17 154.9 105.67 154.9 105.67 163.8 104.08 163.8 104.08 156.7 104.08 156.7 101.38 163.8 100.28 163.8 97.67 156.7 97.58 156.7 97.58 163.8 96.08 163.8 96.08 154.9"/><path class="cls-7" d="M323.4,163h0a1.85,1.85,0,0,1-.8.7,2,2,0,0,1-1.1.3,2.48,2.48,0,0,1-.8-0.1,4.88,4.88,0,0,1-.7-0.3,1.7,1.7,0,0,1-.6-0.6,2,2,0,0,1-.2-0.9,1.37,1.37,0,0,1,.4-1.1,2.08,2.08,0,0,1,1-.6c0.4-.1.8-0.2,1.3-0.3a7.09,7.09,0,0,1,1.4-.1v-0.1a0.73,0.73,0,0,0-.4-0.8,1.69,1.69,0,0,0-1-.3,2.92,2.92,0,0,0-.9.2,1.79,1.79,0,0,0-.7.5l-0.8-.9a2.4,2.4,0,0,1,1.2-.7,3.18,3.18,0,0,1,1.4-.2,4.44,4.44,0,0,1,1.3.2,2.41,2.41,0,0,1,.8.6,2,2,0,0,1,.4.8,2.77,2.77,0,0,1,.1.9v3.7h-1.4V163h0.1Zm0-1.9h-1.1c-0.3,0-.5.1-0.7,0.1l-0.6.3a0.48,0.48,0,0,0-.2.5,0.6,0.6,0,0,0,.1.4,0.38,0.38,0,0,0,.2.2,0.37,0.37,0,0,0,.3.1h0.4a1.59,1.59,0,0,0,1.2-.4,1.5,1.5,0,0,0,.4-1.1v-0.1h0Z" transform="translate(-212.12)"/><path class="cls-7" d="M326.6,157.8H328v1h0a1.78,1.78,0,0,1,.7-0.8,2.13,2.13,0,0,1,1.2-.3,3,3,0,0,1,1,.2,1.79,1.79,0,0,1,.7.5,2,2,0,0,1,.4.8,2.77,2.77,0,0,1,.1.9v3.8h-1.5V160a0.76,0.76,0,0,0-.2-0.5,1.38,1.38,0,0,0-.3-0.4,0.85,0.85,0,0,0-.6-0.2,1.08,1.08,0,0,0-.6.1,0.78,0.78,0,0,0-.4.4c-0.1.2-.2,0.3-0.3,0.5a1.27,1.27,0,0,0-.1.6v3.3h-1.5v-6h0Z" transform="translate(-212.12)"/><path class="cls-7" d="M337.6,163h0a1.85,1.85,0,0,1-.8.7,2,2,0,0,1-1.1.3,2.48,2.48,0,0,1-.8-0.1,4.88,4.88,0,0,1-.7-0.3,1.7,1.7,0,0,1-.6-0.6,2,2,0,0,1-.2-0.9,1.37,1.37,0,0,1,.4-1.1,2.08,2.08,0,0,1,1-.6c0.4-.1.8-0.2,1.3-0.3a7.09,7.09,0,0,1,1.4-.1v-0.1a0.73,0.73,0,0,0-.4-0.8,1.69,1.69,0,0,0-1-.3,2.92,2.92,0,0,0-.9.2,1.79,1.79,0,0,0-.7.5l-0.8-.9a2.4,2.4,0,0,1,1.2-.7,3.18,3.18,0,0,1,1.4-.2,4.44,4.44,0,0,1,1.3.2,2.41,2.41,0,0,1,.8.6,2,2,0,0,1,.4.8,2.77,2.77,0,0,1,.1.9v3.7h-1.4V163h0.1Zm0-1.9h-1.1c-0.3,0-.5.1-0.7,0.1l-0.6.3a0.76,0.76,0,0,0-.2.5,0.6,0.6,0,0,0,.1.4,0.38,0.38,0,0,0,.2.2,0.37,0.37,0,0,0,.3.1H336a1.59,1.59,0,0,0,1.2-.4,1.5,1.5,0,0,0,.4-1.1v-0.1h0Z" transform="translate(-212.12)"/><path class="cls-7" d="M346.9,157.8v5.5a7.72,7.72,0,0,1-.2,1.5,2.38,2.38,0,0,1-.6,1.1,3,3,0,0,1-1.1.7,3.34,3.34,0,0,1-1.5.3,2.48,2.48,0,0,1-.8-0.1,2.35,2.35,0,0,1-.8-0.2c-0.3-.1-0.5-0.2-0.8-0.3a4.35,4.35,0,0,1-.7-0.4l0.9-1.2a2.08,2.08,0,0,0,1,.6,4.25,4.25,0,0,0,1.1.2,2,2,0,0,0,.9-0.2,2.09,2.09,0,0,0,.6-0.4,1.49,1.49,0,0,0,.3-0.7,2.2,2.2,0,0,0,.1-0.8V163h0a2.7,2.7,0,0,1-.8.7,2,2,0,0,1-1.1.2,2.13,2.13,0,0,1-1.2-.3,3.11,3.11,0,0,1-.9-0.7,3.33,3.33,0,0,1-.6-1,3.7,3.7,0,0,1,0-2.4,2.07,2.07,0,0,1,.6-1,5.5,5.5,0,0,1,.9-0.7,2.55,2.55,0,0,1,2.4,0,1.76,1.76,0,0,1,.9.8h0v-0.9h1.4v0.1h0Zm-3.2,1a1.45,1.45,0,0,0-.7.2,1,1,0,0,0-.5.4,1.69,1.69,0,0,0-.3.6,2,2,0,0,0-.1.8,1.7,1.7,0,0,0,.1.7l0.3,0.6a1,1,0,0,0,.5.4,1.85,1.85,0,0,0,.7.2,1.45,1.45,0,0,0,.7-0.2,1.84,1.84,0,0,0,1-1,1.7,1.7,0,0,0,.1-0.7,1.48,1.48,0,0,0-.1-0.7,2.09,2.09,0,0,0-.4-0.6,1.27,1.27,0,0,0-.6-0.4,0.91,0.91,0,0,0-.7-0.3h0Z" transform="translate(-212.12)"/><path class="cls-7" d="M354.5,160.9v0.4h-4.6a1.42,1.42,0,0,0,.2.6,1.76,1.76,0,0,0,.4.5c0.2,0.1.3,0.2,0.5,0.3a1.27,1.27,0,0,0,.6.1,3,3,0,0,0,1-.2,0.9,0.9,0,0,0,.6-0.6l1,0.8a3.09,3.09,0,0,1-2.6,1.2,5.07,5.07,0,0,1-1.3-.2,3.33,3.33,0,0,1-1-.6,2.55,2.55,0,0,1-.7-1,2.74,2.74,0,0,1-.2-1.3,5.07,5.07,0,0,1,.2-1.3,3.51,3.51,0,0,1,1.7-1.7,2.74,2.74,0,0,1,1.3-.2,5,5,0,0,1,1.2.2,1.46,1.46,0,0,1,.9.6,2.08,2.08,0,0,1,.6,1,5.21,5.21,0,0,1,.2,1.4h0Zm-1.5-.7a1.27,1.27,0,0,0-.1-0.6,1.33,1.33,0,0,0-.3-0.5c-0.1-.1-0.3-0.2-0.4-0.3a1.27,1.27,0,0,0-.6-0.1,1.37,1.37,0,0,0-1.1.4,1.39,1.39,0,0,0-.5,1h3v0.1Z" transform="translate(-212.12)"/><path class="cls-7" d="M363.1,157.6a3,3,0,0,1,1,.2,1.79,1.79,0,0,1,.7.5,2,2,0,0,1,.4.8,2.77,2.77,0,0,1,.1.9v3.8h-1.5v-3.9a0.76,0.76,0,0,0-.2-0.5,1.38,1.38,0,0,0-.3-0.4,0.85,0.85,0,0,0-.6-0.2,1.42,1.42,0,0,0-.6.2,0.78,0.78,0,0,0-.4.4,1.06,1.06,0,0,0-.2.5c0,0.2-.1.4-0.1,0.6v3.3h-1.5v-3.6a1.2,1.2,0,0,0-1.09-1.3h0a1.27,1.27,0,0,0-.6.1,0.78,0.78,0,0,0-.4.4,1.06,1.06,0,0,0-.2.5,1.27,1.27,0,0,0-.1.6v3.3H356v-6h1.4v1h0a1.38,1.38,0,0,1,.3-0.4,1.51,1.51,0,0,1,.4-0.4c0.2-.1.3-0.2,0.5-0.3a1.48,1.48,0,0,1,.7-0.1,2.13,2.13,0,0,1,1.2.3,2.7,2.7,0,0,1,.7.8,2.21,2.21,0,0,1,1.9-1.1h0Z" transform="translate(-212.12)"/><path class="cls-7" d="M372.9,160.9v0.4h-4.6a1.42,1.42,0,0,0,.2.6,1.76,1.76,0,0,0,.4.5c0.2,0.1.3,0.2,0.5,0.3a1.27,1.27,0,0,0,.6.1,3,3,0,0,0,1-.2,0.9,0.9,0,0,0,.6-0.6l1,0.8A3.09,3.09,0,0,1,370,164a5.07,5.07,0,0,1-1.3-.2,3.33,3.33,0,0,1-1-.6,3.59,3.59,0,0,1-.7-1,2.74,2.74,0,0,1-.2-1.3,5.07,5.07,0,0,1,.2-1.3,3.51,3.51,0,0,1,1.7-1.7,2.74,2.74,0,0,1,1.3-.2,5,5,0,0,1,1.2.2,1.46,1.46,0,0,1,.9.6,2.08,2.08,0,0,1,.6,1,5.21,5.21,0,0,1,.2,1.4h0Zm-1.6-.7a1.27,1.27,0,0,0-.1-0.6,1.33,1.33,0,0,0-.3-0.5c-0.1-.1-0.3-0.2-0.4-0.3a1.27,1.27,0,0,0-.6-0.1,1.37,1.37,0,0,0-1.1.4,1.39,1.39,0,0,0-.5,1h3v0.1Z" transform="translate(-212.12)"/><path class="cls-7" d="M374.3,157.8h1.4v1h0a1.78,1.78,0,0,1,.7-0.8,2.13,2.13,0,0,1,1.2-.3,3,3,0,0,1,1,.2,1.79,1.79,0,0,1,.7.5,2,2,0,0,1,.4.8,2.77,2.77,0,0,1,.1.9v3.8h-1.5V160a0.76,0.76,0,0,0-.2-0.5,1.38,1.38,0,0,0-.3-0.4,0.85,0.85,0,0,0-.6-0.2,0.92,0.92,0,0,0-.6.1,0.78,0.78,0,0,0-.4.4c-0.1.2-.2,0.3-0.3,0.5a1.27,1.27,0,0,0-.1.6v3.3h-1.5v-6h0Z" transform="translate(-212.12)"/><path class="cls-7" d="M380.7,159v-1.2h1.1v-1.7h1.5v1.7h1.5V159h-1.5v2.8a1.48,1.48,0,0,0,.1.7,0.6,0.6,0,0,0,.6.3h0.3c0.1,0,.2-0.1.3-0.1l0.1,1.2a0.75,0.75,0,0,1-.5.1h-0.5a3,3,0,0,1-1-.2,1,1,0,0,1-.6-0.5,4.87,4.87,0,0,1-.3-0.7,2.2,2.2,0,0,1-.1-0.8V159h-1Z" transform="translate(-212.12)"/><polygon class="cls-7" points="96.08 105.9 98.58 105.9 100.88 112.2 100.88 112.2 103.17 105.9 105.67 105.9 105.67 114.8 104.08 114.8 104.08 107.7 104.08 107.7 101.38 114.8 100.28 114.8 97.67 107.7 97.58 107.7 97.58 114.8 96.08 114.8 96.08 105.9"/><path class="cls-7" d="M323.4,114h0a1.85,1.85,0,0,1-.8.7,2,2,0,0,1-1.1.3,2.48,2.48,0,0,1-.8-0.1,4.88,4.88,0,0,1-.7-0.3,1.7,1.7,0,0,1-.6-0.6,2,2,0,0,1-.2-0.9,1.37,1.37,0,0,1,.4-1.1,2.07,2.07,0,0,1,1-.6c0.4-.1.8-0.2,1.3-0.3a7.09,7.09,0,0,1,1.4-.1v-0.1a0.73,0.73,0,0,0-.4-0.8,1.69,1.69,0,0,0-1-.3,2.92,2.92,0,0,0-.9.2,1.79,1.79,0,0,0-.7.5l-0.8-.9a2.4,2.4,0,0,1,1.2-.7,3.18,3.18,0,0,1,1.4-.2,4.44,4.44,0,0,1,1.3.2,1.56,1.56,0,0,1,.8.6,2,2,0,0,1,.4.8,2.77,2.77,0,0,1,.1.9v3.7h-1.4V114h0.1Zm0-2h-1.1c-0.3,0-.5.1-0.7,0.1l-0.6.3a0.48,0.48,0,0,0-.2.5,0.6,0.6,0,0,0,.1.4,0.38,0.38,0,0,0,.2.2,0.37,0.37,0,0,0,.3.1h0.4a1.59,1.59,0,0,0,1.2-.4,1.5,1.5,0,0,0,.4-1.1V112h0Z" transform="translate(-212.12)"/><path class="cls-7" d="M326.6,108.8H328v1h0a1.78,1.78,0,0,1,.7-0.8,2.13,2.13,0,0,1,1.2-.3,3,3,0,0,1,1,.2,1.79,1.79,0,0,1,.7.5,2,2,0,0,1,.4.8,2.77,2.77,0,0,1,.1.9v3.8h-1.5V111a0.76,0.76,0,0,0-.2-0.5,1.38,1.38,0,0,0-.3-0.4,0.92,0.92,0,0,0-.6-0.1,1.08,1.08,0,0,0-.6.1,0.78,0.78,0,0,0-.4.4c-0.1.2-.2,0.3-0.3,0.5a1.27,1.27,0,0,0-.1.6v3.3h-1.5v-6.1h0Z" transform="translate(-212.12)"/><path class="cls-7" d="M337.6,114h0a1.85,1.85,0,0,1-.8.7,2,2,0,0,1-1.1.3,2.48,2.48,0,0,1-.8-0.1,4.88,4.88,0,0,1-.7-0.3,1.7,1.7,0,0,1-.6-0.6,2,2,0,0,1-.2-0.9,1.37,1.37,0,0,1,.4-1.1,2.08,2.08,0,0,1,1-.6c0.4-.1.8-0.2,1.3-0.3a7.09,7.09,0,0,1,1.4-.1v-0.1a0.73,0.73,0,0,0-.4-0.8,1.69,1.69,0,0,0-1-.3,2.92,2.92,0,0,0-.9.2,1.79,1.79,0,0,0-.7.5l-0.8-.9a2.4,2.4,0,0,1,1.2-.7,3.18,3.18,0,0,1,1.4-.2,4.44,4.44,0,0,1,1.3.2,1.56,1.56,0,0,1,.8.6,2,2,0,0,1,.4.8,2.77,2.77,0,0,1,.1.9v3.7h-1.4V114h0.1Zm0-2h-1.1c-0.3,0-.5.1-0.7,0.1l-0.6.3a0.76,0.76,0,0,0-.2.5,0.6,0.6,0,0,0,.1.4,0.38,0.38,0,0,0,.2.2,0.37,0.37,0,0,0,.3.1H336a1.59,1.59,0,0,0,1.2-.4,1.5,1.5,0,0,0,.4-1.1V112h0Z" transform="translate(-212.12)"/><path class="cls-7" d="M346.9,108.8v5.5a7.72,7.72,0,0,1-.2,1.5,2.38,2.38,0,0,1-.6,1.1,3,3,0,0,1-1.1.7,3.34,3.34,0,0,1-1.5.3,2.48,2.48,0,0,1-.8-0.1,2.35,2.35,0,0,1-.8-0.2c-0.3-.1-0.5-0.2-0.8-0.3a4.35,4.35,0,0,1-.7-0.4l0.9-1.2a2.08,2.08,0,0,0,1,.6,4.25,4.25,0,0,0,1.1.2,2,2,0,0,0,.9-0.2,2.09,2.09,0,0,0,.6-0.4,1.49,1.49,0,0,0,.3-0.7,2.2,2.2,0,0,0,.1-0.8V114h0a2.7,2.7,0,0,1-.8.7,2,2,0,0,1-1.1.2,2.13,2.13,0,0,1-1.2-.3,2.18,2.18,0,0,1-.9-0.7,2.08,2.08,0,0,1-.6-1,3.7,3.7,0,0,1,0-2.4,2.07,2.07,0,0,1,.6-1,5.5,5.5,0,0,1,.9-0.7,2.38,2.38,0,0,1,1.2-.3,2.66,2.66,0,0,1,1.2.3,1.76,1.76,0,0,1,.9.8h0v-0.9h1.4v0.1h0Zm-3.2,1a0.84,0.84,0,0,0-.7.2,1,1,0,0,0-.5.4,1.69,1.69,0,0,0-.3.6,2,2,0,0,0-.1.8,1.7,1.7,0,0,0,.1.7l0.3,0.6a1,1,0,0,0,.5.4,1.85,1.85,0,0,0,.7.2,1.45,1.45,0,0,0,.7-0.2,1.84,1.84,0,0,0,1-1,1.7,1.7,0,0,0,.1-0.7,1.48,1.48,0,0,0-.1-0.7,2.09,2.09,0,0,0-.4-0.6,1.27,1.27,0,0,0-.6-0.4,0.91,0.91,0,0,0-.7-0.3h0Z" transform="translate(-212.12)"/><path class="cls-7" d="M354.5,111.9v0.4h-4.6a1.42,1.42,0,0,0,.2.6,1.76,1.76,0,0,0,.4.5c0.2,0.1.3,0.2,0.5,0.3a1.27,1.27,0,0,0,.6.1,3,3,0,0,0,1-.2,0.9,0.9,0,0,0,.6-0.6l1,0.8a3.09,3.09,0,0,1-2.6,1.2,5.07,5.07,0,0,1-1.3-.2,3.33,3.33,0,0,1-1-.6,3.59,3.59,0,0,1-.7-1,2.74,2.74,0,0,1-.2-1.3,5.07,5.07,0,0,1,.2-1.3,3.51,3.51,0,0,1,1.7-1.7,2.74,2.74,0,0,1,1.3-.2,5,5,0,0,1,1.2.2,1.46,1.46,0,0,1,.9.6,2.08,2.08,0,0,1,.6,1,4.64,4.64,0,0,1,.2,1.4h0Zm-1.5-.7a1.27,1.27,0,0,0-.1-0.6,1.33,1.33,0,0,0-.3-0.5c-0.1-.1-0.3-0.2-0.4-0.3a1.27,1.27,0,0,0-.6-0.1,1.37,1.37,0,0,0-1.1.4,1.39,1.39,0,0,0-.5,1h3v0.1Z" transform="translate(-212.12)"/><path class="cls-7" d="M363.1,108.6a3,3,0,0,1,1,.2,1.79,1.79,0,0,1,.7.5,2,2,0,0,1,.4.8,2.77,2.77,0,0,1,.1.9v3.8h-1.5v-3.9a0.76,0.76,0,0,0-.2-0.5,1.38,1.38,0,0,0-.3-0.4,0.92,0.92,0,0,0-.6-0.1,1.27,1.27,0,0,0-.6.1,0.78,0.78,0,0,0-.4.4,1.06,1.06,0,0,0-.2.5c0,0.2-.1.4-0.1,0.6v3.3h-1.5v-3.6a1.2,1.2,0,0,0-1.09-1.3h0a1.27,1.27,0,0,0-.6.1,0.78,0.78,0,0,0-.4.4,1.06,1.06,0,0,0-.2.5,1.27,1.27,0,0,0-.1.6v3.3H356v-6h1.4v1h0a1.38,1.38,0,0,1,.3-0.4,1.51,1.51,0,0,1,.4-0.4c0.2-.1.3-0.2,0.5-0.3a1.48,1.48,0,0,1,.7-0.1,2.13,2.13,0,0,1,1.2.3,2.7,2.7,0,0,1,.7.8,1.55,1.55,0,0,1,.8-0.8,2,2,0,0,1,1.1-.3h0Z" transform="translate(-212.12)"/><path class="cls-7" d="M372.9,111.9v0.4h-4.6a1.42,1.42,0,0,0,.2.6,1.76,1.76,0,0,0,.4.5c0.2,0.1.3,0.2,0.5,0.3a1.27,1.27,0,0,0,.6.1,3,3,0,0,0,1-.2,0.9,0.9,0,0,0,.6-0.6l1,0.8A3.09,3.09,0,0,1,370,115a5.07,5.07,0,0,1-1.3-.2,3.33,3.33,0,0,1-1-.6,3.59,3.59,0,0,1-.7-1,2.74,2.74,0,0,1-.2-1.3,5.07,5.07,0,0,1,.2-1.3,3.51,3.51,0,0,1,1.7-1.7,2.74,2.74,0,0,1,1.3-.2,5,5,0,0,1,1.2.2,1.46,1.46,0,0,1,.9.6,2.08,2.08,0,0,1,.6,1,4.64,4.64,0,0,1,.2,1.4h0Zm-1.6-.7a1.27,1.27,0,0,0-.1-0.6,1.33,1.33,0,0,0-.3-0.5c-0.1-.1-0.3-0.2-0.4-0.3a1.27,1.27,0,0,0-.6-0.1,1.37,1.37,0,0,0-1.1.4,1.39,1.39,0,0,0-.5,1h3v0.1Z" transform="translate(-212.12)"/><path class="cls-7" d="M374.3,108.8h1.4v1h0a1.78,1.78,0,0,1,.7-0.8,2.13,2.13,0,0,1,1.2-.3,3,3,0,0,1,1,.2,1.79,1.79,0,0,1,.7.5,2,2,0,0,1,.4.8,2.77,2.77,0,0,1,.1.9v3.8h-1.5V111a0.76,0.76,0,0,0-.2-0.5,1.38,1.38,0,0,0-.3-0.4,1.85,1.85,0,0,0-1.2,0,0.78,0.78,0,0,0-.4.4c-0.1.2-.2,0.3-0.3,0.5a1.27,1.27,0,0,0-.1.6v3.3h-1.5v-6.1h0Z" transform="translate(-212.12)"/><path class="cls-7" d="M380.7,110v-1.2h1.1v-1.7h1.5v1.7h1.5V110h-1.5v2.8a1.48,1.48,0,0,0,.1.7,0.6,0.6,0,0,0,.6.3h0.3c0.1,0,.2-0.1.3-0.1l0.1,1.2a0.75,0.75,0,0,1-.5.1h-0.5a3,3,0,0,1-1-.2,1,1,0,0,1-.6-0.5,4.87,4.87,0,0,1-.3-0.7,2.2,2.2,0,0,1-.1-0.8V110h-1Z" transform="translate(-212.12)"/></svg>