<svg id="Layer_1" data-name="Layer 1" xmlns="http://www.w3.org/2000/svg" xmlns:xlink="http://www.w3.org/1999/xlink" viewBox="0 0 577.9 336.2"><defs><style>.cls-1{fill:none;}.cls-2{fill:#ecf1f9;}.cls-3{clip-path:url(#clip-path);}.cls-4{fill:#005984;}.cls-5{fill:#f0bc2c;}.cls-6{fill:#78a22f;}.cls-7{fill:#fff;}.cls-8{fill:#bcbec0;}</style><clipPath id="clip-path" transform="translate(-8.1 -252.7)"><polyline class="cls-1" points="57.2 262.5 57.2 451.8 485.3 451.8 485.3 262.5 57.2 262.5"/></clipPath></defs><title>J Asset management overview 1</title><polyline class="cls-2" points="49.1 9.8 49.1 199.1 477.2 199.1 477.2 9.8 49.1 9.8"/><g class="cls-3"><path class="cls-4" d="M52,459.7H51.5l-2.2-.6-0.7-3.8,1.9-1.2a6,6,0,0,1,1.9-.6c5-1,139.9-30.3,251-117.8l1.1-.8H306c59.4-1.8,139.7,14.6,184.8,102.6a3.08,3.08,0,0,1-2,4.2,4.1,4.1,0,0,1-5-1.7c-34.1-66.6-95-100.7-176-98.8-59.3,46.4-124.7,76.1-169.3,92.9C94.7,450.5,57.2,459.7,52,459.7h0Z" transform="translate(-8.1 -252.7)"/></g><polyline class="cls-5" points="477.2 32.1 49.1 32.1 49.1 9.8 477.2 9.8 477.2 32.1"/><polygon class="cls-4" points="245.5 32.4 245.5 53.4 477.2 53.4 477.2 32.4 245.5 32.4"/><polygon class="cls-6" points="336.1 53.6 336.1 74.3 477.2 74.3 477.2 53.6 336.1 53.6"/><path class="cls-7" d="M82.3,279.3a12,12,0,0,1-5.4,1.3,6.75,6.75,0,1,1,0-13.5,7.43,7.43,0,0,1,5.1,1.6l-1.7,1.7a4.94,4.94,0,0,0-3.4-1.3,4.31,4.31,0,0,0-4.4,4.6c0,2.8,1.8,4.8,4.4,4.8a5.56,5.56,0,0,0,3-.7v-3H77.3v-2.1h4.9v6.6h0.1Z" transform="translate(-8.1 -252.7)"/><path class="cls-7" d="M89.1,267.3h2l5.6,12.9H94.1l-1.2-3H87.3l-1.2,3H83.5Zm3,8-2-5.3-2,5.3h4Z" transform="translate(-8.1 -252.7)"/><path class="cls-7" d="M98,267.3h2.3v12.9H98V267.3Z" transform="translate(-8.1 -252.7)"/><path class="cls-7" d="M103,267.3h3.1l6.3,9.6h0v-9.6h2.3v12.9h-2.9l-6.4-9.9h0v9.9H103V267.3Z" transform="translate(-8.1 -252.7)"/><path class="cls-7" d="M260,289.3h4.3c2.5,0,4.8.9,4.8,3.7,0,3.3-2.4,3.8-5.2,3.8h-1.6v5.4H260V289.3Zm3.7,5.6c1.3,0,3-.1,3-1.8s-1.5-1.8-2.8-1.8h-1.6v3.6h1.4Z" transform="translate(-8.1 -252.7)"/><path class="cls-7" d="M270.9,289.3h4.5c2.5,0,4.8.8,4.8,3.7a3.32,3.32,0,0,1-3,3.5l3.4,5.7h-2.8l-3-5.5h-1.7v5.5h-2.3V289.3h0.1Zm4.1,5.5c1.3,0,2.8-.1,2.8-1.8,0-1.5-1.4-1.7-2.6-1.7h-2v3.5H275Z" transform="translate(-8.1 -252.7)"/><path class="cls-7" d="M288.2,289a6.43,6.43,0,0,1,6.9,6.8c0,4-2.8,6.7-6.9,6.8A6.8,6.8,0,1,1,288.2,289Zm0,11.5c2.7,0,4.5-2,4.5-4.8a4.39,4.39,0,0,0-4.5-4.6,4.31,4.31,0,0,0-4.4,4.6C283.8,298.4,285.5,300.5,288.2,300.5Z" transform="translate(-8.1 -252.7)"/><path class="cls-7" d="M299.6,291.4h-4v-2.1h10.2v2.1h-4v10.8h-2.3V291.4h0.1Z" transform="translate(-8.1 -252.7)"/><path class="cls-7" d="M307.5,289.3h8.6v2.1h-6.3v3.2h5.9v2.1h-5.9v3.5h6.6v2.1h-8.9v-13h0Z" transform="translate(-8.1 -252.7)"/><path class="cls-7" d="M327.3,292.3a3.46,3.46,0,0,0-2.7-1.3,4.31,4.31,0,0,0-4.4,4.6c0,2.8,1.8,4.8,4.4,4.8a3.77,3.77,0,0,0,2.9-1.6l1.9,1.4a5.74,5.74,0,0,1-4.8,2.3,6.75,6.75,0,1,1,0-13.5,5.59,5.59,0,0,1,4.5,2Z" transform="translate(-8.1 -252.7)"/><path class="cls-7" d="M334,291.4h-4v-2.1h10.2v2.1h-4v10.8H334V291.4Z" transform="translate(-8.1 -252.7)"/><path class="cls-7" d="M369.1,313a2.76,2.76,0,0,0-2.3-1c-1.1,0-2.1.5-2.1,1.7,0,2.6,6.1,1.1,6.1,5.7,0,2.8-2.2,4.1-4.7,4.1a5.13,5.13,0,0,1-4.2-1.8l1.7-1.7a3,3,0,0,0,2.6,1.4,2.05,2.05,0,0,0,2.3-1.8c0-2.8-6.1-1.2-6.1-5.8,0-2.7,2.4-3.9,4.8-3.9a5.41,5.41,0,0,1,3.7,1.3Z" transform="translate(-8.1 -252.7)"/><path class="cls-7" d="M373.1,310.2h4.3c2.5,0,4.8.9,4.8,3.7,0,3.3-2.4,3.8-5.2,3.8h-1.6v5.4h-2.3V310.2h0Zm3.7,5.6c1.3,0,3-.1,3-1.8s-1.5-1.8-2.8-1.8h-1.6v3.6h1.4Z" transform="translate(-8.1 -252.7)"/><path class="cls-7" d="M384.2,310.2h8.6v2.1h-6.3v3.2h5.9v2.1h-5.9v3.5h6.6v2.1h-8.9v-13h0Z" transform="translate(-8.1 -252.7)"/><path class="cls-7" d="M395.2,310.2h3l6.3,9.6h0v-9.6h2.3v12.9h-2.9l-6.4-9.9h0v9.9h-2.3V310.2Z" transform="translate(-8.1 -252.7)"/><path class="cls-7" d="M409.5,310.2h5.1c3.4,0,6.6,2.1,6.6,6.5s-3.7,6.5-6.8,6.5h-4.8v-13h-0.1Zm4,10.8c2.9,0,5.2-1.2,5.2-4.4s-2-4.4-4.9-4.4h-2.1V321h1.8Z" transform="translate(-8.1 -252.7)"/><path class="cls-4" d="M12.6,490.1h1.7l4.5,10.4H16.9l-1-2.5H11l-1.1,2.5H8.1Zm2.6,6.3-1.8-4.1-1.8,4.1h3.6Z" transform="translate(-8.1 -252.7)"/><path class="cls-4" d="M19.6,496.7h0a4,4,0,0,1,4-4.1,3.76,3.76,0,0,1,3.1,1.3l-1.1,1.2a2.46,2.46,0,0,0-2-1,2.38,2.38,0,0,0-2.3,2.5h0a2.38,2.38,0,0,0,2.3,2.5,2.61,2.61,0,0,0,2-1l1.1,1.1A4,4,0,0,1,19.6,496.7Z" transform="translate(-8.1 -252.7)"/><path class="cls-4" d="M27.8,496.7h0a4,4,0,0,1,4-4.1,3.76,3.76,0,0,1,3.1,1.3l-1.1,1.2a2.46,2.46,0,0,0-2-1,2.38,2.38,0,0,0-2.3,2.5h0a2.38,2.38,0,0,0,2.3,2.5,2.61,2.61,0,0,0,2-1l1.1,1.1A4,4,0,0,1,27.8,496.7Z" transform="translate(-8.1 -252.7)"/><path class="cls-4" d="M36.5,497.7v-4.9h1.8v4.4a1.64,1.64,0,0,0,1.7,1.9,1.76,1.76,0,0,0,1.8-1.9v-4.4h1.8v7.8H41.8v-1.2a2.86,2.86,0,0,1-2.4,1.4A2.89,2.89,0,0,1,36.5,497.7Z" transform="translate(-8.1 -252.7)"/><path class="cls-4" d="M45.7,492.7h1.8v1.2a2.78,2.78,0,0,1,2.4-1.3,2.34,2.34,0,0,1,2.3,1.4,3.12,3.12,0,0,1,2.6-1.4c1.7,0,2.7,1.1,2.7,3v5H55.7v-4.4a1.62,1.62,0,0,0-1.6-1.9,1.69,1.69,0,0,0-1.7,1.9v4.4H50.6v-4.4a1.62,1.62,0,0,0-1.6-1.9,1.69,1.69,0,0,0-1.7,1.9v4.4H45.5v-7.9h0.2Z" transform="translate(-8.1 -252.7)"/><path class="cls-4" d="M59.6,497.7v-4.9h1.8v4.4a1.64,1.64,0,0,0,1.7,1.9,1.76,1.76,0,0,0,1.8-1.9v-4.4h1.8v7.8H64.9v-1.2a2.86,2.86,0,0,1-2.4,1.4A2.89,2.89,0,0,1,59.6,497.7Z" transform="translate(-8.1 -252.7)"/><path class="cls-4" d="M69,489.8h1.8v10.7H69V489.8Z" transform="translate(-8.1 -252.7)"/><path class="cls-4" d="M72.5,498.3h0c0-1.7,1.3-2.5,3.2-2.5a6.23,6.23,0,0,1,2.1.3v-0.2a1.64,1.64,0,0,0-1.9-1.7,5.09,5.09,0,0,0-2.2.5l-0.5-1.4a6.53,6.53,0,0,1,2.9-.6,3.42,3.42,0,0,1,2.6.9,3.19,3.19,0,0,1,.8,2.4v4.6H77.8v-1a3.12,3.12,0,0,1-2.5,1.1A2.54,2.54,0,0,1,72.5,498.3Zm5.4-.6v-0.5a4.84,4.84,0,0,0-1.8-.3c-1.1,0-1.8.5-1.8,1.3h0a1.3,1.3,0,0,0,1.5,1.2A1.87,1.87,0,0,0,77.9,497.7Z" transform="translate(-8.1 -252.7)"/><path class="cls-4" d="M82.1,498.4v-4.1h-1v-1.5h1v-2.1h1.8v2.1H86v1.5H83.9v3.8a0.9,0.9,0,0,0,1,1,2,2,0,0,0,1.1-.3v1.5a3.41,3.41,0,0,1-1.6.4C83,500.6,82.1,500.1,82.1,498.4Z" transform="translate(-8.1 -252.7)"/><path class="cls-4" d="M87.8,489.9h1.9v1.7H87.8v-1.7Zm0,2.8h1.8v7.8H87.8v-7.8Z" transform="translate(-8.1 -252.7)"/><path class="cls-4" d="M91.5,496.7h0a4.1,4.1,0,0,1,8.2-.1h0a4.06,4.06,0,0,1-4.2,4A3.87,3.87,0,0,1,91.5,496.7Zm6.5,0h0a2.39,2.39,0,0,0-2.4-2.5,2.32,2.32,0,0,0-2.3,2.5h0a2.39,2.39,0,0,0,2.4,2.5A2.43,2.43,0,0,0,98,496.7Z" transform="translate(-8.1 -252.7)"/><path class="cls-4" d="M101.6,492.7h1.8v1.2a2.86,2.86,0,0,1,2.4-1.4,2.68,2.68,0,0,1,2.8,3v5h-1.8v-4.4a1.64,1.64,0,0,0-1.7-1.9,1.76,1.76,0,0,0-1.8,1.9v4.4h-1.8v-7.8h0.1Z" transform="translate(-8.1 -252.7)"/><path class="cls-4" d="M8.5,510.7h0a4.27,4.27,0,0,1,4.2-4.4,4.33,4.33,0,0,1,3.1,1.1l-0.6.7a3.45,3.45,0,0,0-2.6-1,3.27,3.27,0,0,0-3.2,3.4h0a3.26,3.26,0,0,0,3.3,3.5,4.29,4.29,0,0,0,2.4-.8v-2.1H12.5v-0.9H16v3.3a5.23,5.23,0,0,1-3.4,1.3C10.1,515,8.5,513.1,8.5,510.7Z" transform="translate(-8.1 -252.7)"/><path class="cls-4" d="M18.2,506.1h0.9v8.8H18.2v-8.8Z" transform="translate(-8.1 -252.7)"/><path class="cls-4" d="M20.9,511.8h0a3.24,3.24,0,0,1,3.2-3.3,3.16,3.16,0,0,1,3.2,3.2h0a3.18,3.18,0,0,1-3.3,3.2A2.94,2.94,0,0,1,20.9,511.8Zm5.5,0h0a2.29,2.29,0,0,0-2.3-2.4,2.35,2.35,0,0,0-2.3,2.4h0a2.35,2.35,0,0,0,2.3,2.4A2.29,2.29,0,0,0,26.4,511.8Z" transform="translate(-8.1 -252.7)"/><path class="cls-4" d="M29.9,513.7v1.2H29v-8.8h0.9v3.8a2.86,2.86,0,0,1,2.4-1.4,3.06,3.06,0,0,1,3,3.2h0a3.06,3.06,0,0,1-3,3.2A2.62,2.62,0,0,1,29.9,513.7Zm4.4-1.9h0a2.21,2.21,0,0,0-2.2-2.4,2.27,2.27,0,0,0-2.2,2.4h0a2.33,2.33,0,0,0,2.2,2.4A2.21,2.21,0,0,0,34.3,511.8Z" transform="translate(-8.1 -252.7)"/><path class="cls-4" d="M36.5,513.1h0c0-1.3,1.1-2,2.7-2a5,5,0,0,1,1.9.3v-0.2a1.61,1.61,0,0,0-1.8-1.7,4.14,4.14,0,0,0-1.9.5l-0.3-.8a5.56,5.56,0,0,1,2.3-.5,2.58,2.58,0,0,1,2,.7,2.44,2.44,0,0,1,.6,1.8V515H41.1v-1a2.64,2.64,0,0,1-2.2,1.1C37.7,515,36.5,514.4,36.5,513.1Zm4.6-.5V512a8.42,8.42,0,0,0-1.8-.3c-1.2,0-1.8.5-1.8,1.3h0a1.35,1.35,0,0,0,1.6,1.2A1.75,1.75,0,0,0,41.1,512.6Z" transform="translate(-8.1 -252.7)"/><path class="cls-4" d="M44,506.1h0.9v8.8H44v-8.8Z" transform="translate(-8.1 -252.7)"/><path class="cls-4" d="M50.3,511.8h0a3.06,3.06,0,0,1,3-3.2,3,3,0,0,1,2.9,3.3v0.3H51.3a2.19,2.19,0,0,0,2.2,2.1,2.38,2.38,0,0,0,2-.9l0.6,0.5A3.27,3.27,0,0,1,50.3,511.8Zm4.9-.3a2,2,0,0,0-2-2.1,2.09,2.09,0,0,0-2,2.1h4Z" transform="translate(-8.1 -252.7)"/><path class="cls-4" d="M62.8,513.6a2.86,2.86,0,0,1-2.4,1.4,3.06,3.06,0,0,1-3-3.2h0a3.06,3.06,0,0,1,3-3.2,2.78,2.78,0,0,1,2.4,1.3v-1.2h0.9v8.1H62.8v-3.2Zm0-1.8h0a2.27,2.27,0,0,0-2.2-2.4,2.21,2.21,0,0,0-2.2,2.4h0a2.21,2.21,0,0,0,2.2,2.4A2.33,2.33,0,0,0,62.8,511.8Z" transform="translate(-8.1 -252.7)"/><path class="cls-4" d="M65.7,512.5v-3.8h0.9v3.6a1.64,1.64,0,0,0,1.7,1.9,1.84,1.84,0,0,0,1.9-1.9v-3.5h0.9V515H70.2v-1.1a2.32,2.32,0,0,1-2.1,1.2A2.36,2.36,0,0,1,65.7,512.5Z" transform="translate(-8.1 -252.7)"/><path class="cls-4" d="M73.2,506.3h1.1v1H73.2v-1Zm0,2.4h0.9v6.2H73.2v-6.2Z" transform="translate(-8.1 -252.7)"/><path class="cls-4" d="M76.6,513.2v-3.7H75.7v-0.8h0.9v-1.9h0.9v1.9h2v0.8h-2v3.6a0.86,0.86,0,0,0,1,1,2.92,2.92,0,0,0,.9-0.2v0.8a2,2,0,0,1-1.1.3A1.6,1.6,0,0,1,76.6,513.2Z" transform="translate(-8.1 -252.7)"/><path class="cls-4" d="M85.8,508.7h1l-2.6,6.4c-0.5,1.3-1.1,1.8-2.1,1.8a2.77,2.77,0,0,1-1.3-.3l0.3-.7a1.64,1.64,0,0,0,1,.2c0.6,0,.9-0.3,1.3-1.2l-2.8-6.2h1l2.3,5.2Z" transform="translate(-8.1 -252.7)"/><path class="cls-4" d="M92.8,513.7v1.2H91.9v-8.8h0.9v3.8a2.86,2.86,0,0,1,2.4-1.4,3.06,3.06,0,0,1,3,3.2h0a3.06,3.06,0,0,1-3,3.2A2.42,2.42,0,0,1,92.8,513.7Zm4.4-1.9h0a2.21,2.21,0,0,0-2.2-2.4,2.27,2.27,0,0,0-2.2,2.4h0a2.33,2.33,0,0,0,2.2,2.4A2.21,2.21,0,0,0,97.2,511.8Z" transform="translate(-8.1 -252.7)"/><path class="cls-4" d="M99.8,506.3h1.1v1H99.8v-1Zm0.1,2.4h0.9v6.2H99.9v-6.2Z" transform="translate(-8.1 -252.7)"/><path class="cls-4" d="M102.5,513.1h0c0-1.3,1.1-2,2.7-2a5,5,0,0,1,1.9.3v-0.2a1.61,1.61,0,0,0-1.8-1.7,4.14,4.14,0,0,0-1.9.5l-0.3-.8a5.56,5.56,0,0,1,2.3-.5,2.58,2.58,0,0,1,2,.7,2.44,2.44,0,0,1,.6,1.8V515h-0.9v-1a2.64,2.64,0,0,1-2.2,1.1C103.7,515,102.5,514.4,102.5,513.1Zm4.6-.5V512a8.42,8.42,0,0,0-1.8-.3c-1.2,0-1.8.5-1.8,1.3h0a1.35,1.35,0,0,0,1.6,1.2A1.75,1.75,0,0,0,107.1,512.6Z" transform="translate(-8.1 -252.7)"/><path class="cls-4" d="M109.4,514.1l0.5-.7a3.68,3.68,0,0,0,2.1.8,1.16,1.16,0,0,0,1.3-1h0c0-.6-0.7-0.9-1.5-1.1-1-.3-2.1-0.6-2.1-1.8h0a1.88,1.88,0,0,1,2.1-1.8,4.1,4.1,0,0,1,2.2.7l-0.4.7a3.23,3.23,0,0,0-1.8-.6,1.06,1.06,0,0,0-1.2.9h0c0,0.6.8,0.8,1.6,1.1,1,0.3,2,.7,2,1.8h0A2,2,0,0,1,112,515,4.11,4.11,0,0,1,109.4,514.1Z" transform="translate(-8.1 -252.7)"/><path class="cls-4" d="M115.8,513.6h1.1v1.3h-1.1v-1.3Z" transform="translate(-8.1 -252.7)"/><path class="cls-4" d="M11.1,521.8H8.3v-0.9h6.6v0.9H12v7.5H11v-7.5h0.1Z" transform="translate(-8.1 -252.7)"/><path class="cls-4" d="M16.3,520.5h0.9v3.6a2.32,2.32,0,0,1,2.1-1.2,2.29,2.29,0,0,1,2.4,2.5v3.8H20.8v-3.6a1.64,1.64,0,0,0-1.7-1.9,1.84,1.84,0,0,0-1.9,1.9v3.5H16.3v-8.6Z" transform="translate(-8.1 -252.7)"/><path class="cls-4" d="M23.3,526.2h0a3.06,3.06,0,0,1,3-3.2,3,3,0,0,1,2.9,3.3v0.3H24.3a2.19,2.19,0,0,0,2.2,2.1,2.38,2.38,0,0,0,2-.9l0.6,0.5A3.27,3.27,0,0,1,23.3,526.2Zm4.9-.3a2,2,0,0,0-2-2.1,2.09,2.09,0,0,0-2,2.1h4Z" transform="translate(-8.1 -252.7)"/><path class="cls-4" d="M33.8,523.1h1l2.1,5.1,2.1-5.1h1l-2.7,6.2H36.5Z" transform="translate(-8.1 -252.7)"/><path class="cls-4" d="M40.7,526.2h0a3.24,3.24,0,0,1,3.2-3.3,3.16,3.16,0,0,1,3.2,3.2h0a3.18,3.18,0,0,1-3.3,3.2A2.94,2.94,0,0,1,40.7,526.2Zm5.5,0h0a2.29,2.29,0,0,0-2.3-2.4,2.35,2.35,0,0,0-2.3,2.4h0a2.35,2.35,0,0,0,2.3,2.4A2.29,2.29,0,0,0,46.2,526.2Z" transform="translate(-8.1 -252.7)"/><path class="cls-4" d="M48.9,520.5h0.9v8.8H48.9v-8.8Z" transform="translate(-8.1 -252.7)"/><path class="cls-4" d="M51.5,527.5h0c0-1.3,1.1-2,2.7-2a5,5,0,0,1,1.9.3v-0.2a1.61,1.61,0,0,0-1.8-1.7,4.14,4.14,0,0,0-1.9.5l-0.3-.8a5.56,5.56,0,0,1,2.3-.5,2.58,2.58,0,0,1,2,.7,2.44,2.44,0,0,1,.6,1.8v3.8H56v-0.9a2.64,2.64,0,0,1-2.2,1.1C52.6,529.4,51.5,528.8,51.5,527.5Zm4.6-.5v-0.6a8.42,8.42,0,0,0-1.8-.3c-1.2,0-1.8.5-1.8,1.3h0a1.35,1.35,0,0,0,1.6,1.2A1.75,1.75,0,0,0,56.1,527Z" transform="translate(-8.1 -252.7)"/><path class="cls-4" d="M59.2,527.7V524H58.3v-0.8h0.9v-1.9h0.9v1.9h2V524h-2v3.6a0.86,0.86,0,0,0,1,1,2.92,2.92,0,0,0,.9-0.2v0.8a2,2,0,0,1-1.1.3A1.71,1.71,0,0,1,59.2,527.7Z" transform="translate(-8.1 -252.7)"/><path class="cls-4" d="M63.7,520.7h1.1v1H63.7v-1Zm0.1,2.4h0.9v6.2H63.8v-6.2Z" transform="translate(-8.1 -252.7)"/><path class="cls-4" d="M66.9,520.5h0.9v8.8H66.9v-8.8Z" transform="translate(-8.1 -252.7)"/><path class="cls-4" d="M70,520.7h1.1v1H70v-1Zm0.1,2.4H71v6.2H70.1v-6.2Z" transform="translate(-8.1 -252.7)"/><path class="cls-4" d="M73.5,527.7V524H72.6v-0.8h0.9v-1.9h0.9v1.9h2V524h-2v3.6a0.86,0.86,0,0,0,1,1,2.92,2.92,0,0,0,.9-0.2v0.8a2,2,0,0,1-1.1.3A1.66,1.66,0,0,1,73.5,527.7Z" transform="translate(-8.1 -252.7)"/><path class="cls-4" d="M82.6,523.1h1L81,529.5c-0.5,1.3-1.1,1.8-2.1,1.8a2.77,2.77,0,0,1-1.3-.3l0.3-.7a1.64,1.64,0,0,0,1,.2c0.6,0,.9-0.3,1.3-1.2l-2.8-6.2h1l2.3,5.2Z" transform="translate(-8.1 -252.7)"/><path class="cls-4" d="M88.3,526.2h0a3.24,3.24,0,0,1,3.2-3.3,3.16,3.16,0,0,1,3.2,3.2h0a3.18,3.18,0,0,1-3.3,3.2A2.94,2.94,0,0,1,88.3,526.2Zm5.5,0h0a2.29,2.29,0,0,0-2.3-2.4,2.35,2.35,0,0,0-2.3,2.4h0a2.35,2.35,0,0,0,2.3,2.4A2.29,2.29,0,0,0,93.8,526.2Z" transform="translate(-8.1 -252.7)"/><path class="cls-4" d="M96.7,523.9H95.8v-0.8h0.9v-0.5a2.54,2.54,0,0,1,.5-1.6,1.9,1.9,0,0,1,1.3-.5,1.64,1.64,0,0,1,1,.2v0.8a2.92,2.92,0,0,0-.9-0.2,1.07,1.07,0,0,0-1.1,1.3v0.5h2v0.8h-2v5.4H96.6v-5.4h0.1Z" transform="translate(-8.1 -252.7)"/><path class="cls-4" d="M103.9,528.5l0.5-.7a3.68,3.68,0,0,0,2.1.8,1.16,1.16,0,0,0,1.3-1h0c0-.6-0.7-0.9-1.5-1.1-1-.3-2.1-0.6-2.1-1.8h0a1.88,1.88,0,0,1,2.1-1.8,4.1,4.1,0,0,1,2.2.7l-0.4.7a3.23,3.23,0,0,0-1.8-.6,1.06,1.06,0,0,0-1.2.9h0c0,0.6.8,0.8,1.6,1.1,1,0.3,2,.7,2,1.8h0a2,2,0,0,1-2.2,1.9A3.92,3.92,0,0,1,103.9,528.5Z" transform="translate(-8.1 -252.7)"/><path class="cls-4" d="M110.7,527.7V524h-0.9v-0.8h0.9v-1.9h0.9v1.9h2V524h-2v3.6a0.86,0.86,0,0,0,1,1,2.92,2.92,0,0,0,.9-0.2v0.8a2,2,0,0,1-1.1.3A1.66,1.66,0,0,1,110.7,527.7Z" transform="translate(-8.1 -252.7)"/><path class="cls-4" d="M114.6,526.2h0a3.24,3.24,0,0,1,3.2-3.3,3.16,3.16,0,0,1,3.2,3.2h0a3.18,3.18,0,0,1-3.3,3.2A3,3,0,0,1,114.6,526.2Zm5.5,0h0a2.29,2.29,0,0,0-2.3-2.4,2.35,2.35,0,0,0-2.3,2.4h0a2.35,2.35,0,0,0,2.3,2.4A2.29,2.29,0,0,0,120.1,526.2Z" transform="translate(-8.1 -252.7)"/><path class="cls-4" d="M122.4,526.2h0a3.26,3.26,0,0,1,5.7-2.2l-0.6.6a2.48,2.48,0,0,0-1.9-.9,2.27,2.27,0,0,0-2.2,2.4h0a2.35,2.35,0,0,0,2.3,2.4,2.65,2.65,0,0,0,1.9-.9l0.6,0.6a3.18,3.18,0,0,1-2.5,1.2A3.13,3.13,0,0,1,122.4,526.2Z" transform="translate(-8.1 -252.7)"/><path class="cls-4" d="M129.6,520.5h0.9v6l3.3-3.5H135l-2.6,2.7,2.7,3.5H134l-2.2-2.9-1.3,1.3v1.6h-0.9v-8.7Z" transform="translate(-8.1 -252.7)"/><path class="cls-4" d="M135.9,528.5l0.5-.7a3.68,3.68,0,0,0,2.1.8,1.16,1.16,0,0,0,1.3-1h0c0-.6-0.7-0.9-1.5-1.1-1-.3-2.1-0.6-2.1-1.8h0a1.88,1.88,0,0,1,2.1-1.8,4.1,4.1,0,0,1,2.2.7l-0.4.7a3.23,3.23,0,0,0-1.8-.6,1.06,1.06,0,0,0-1.2.9h0c0,0.6.8,0.8,1.6,1.1,1,0.3,2,.7,2,1.8h0a2,2,0,0,1-2.2,1.9A4.11,4.11,0,0,1,135.9,528.5Z" transform="translate(-8.1 -252.7)"/><path class="cls-4" d="M8.7,537.5H9.6v1.2a2.86,2.86,0,0,1,2.4-1.4,3.06,3.06,0,0,1,3,3.2h0a3.06,3.06,0,0,1-3,3.2,2.78,2.78,0,0,1-2.4-1.3v3.1H8.7v-8Zm5.3,3.1h0a2.21,2.21,0,0,0-2.2-2.4,2.27,2.27,0,0,0-2.2,2.4h0a2.33,2.33,0,0,0,2.2,2.4A2.21,2.21,0,0,0,14,540.6Z" transform="translate(-8.1 -252.7)"/><path class="cls-4" d="M16.7,537.5h0.9v1.6a2.68,2.68,0,0,1,2.5-1.7v1H20a2.51,2.51,0,0,0-2.5,2.8v2.5H16.6v-6.2h0.1Z" transform="translate(-8.1 -252.7)"/><path class="cls-4" d="M20.9,540.6h0a3.24,3.24,0,0,1,3.2-3.3,3.16,3.16,0,0,1,3.2,3.2h0a3.18,3.18,0,0,1-3.3,3.2A2.94,2.94,0,0,1,20.9,540.6Zm5.5,0h0a2.29,2.29,0,0,0-2.3-2.4,2.35,2.35,0,0,0-2.3,2.4h0a2.35,2.35,0,0,0,2.3,2.4A2.29,2.29,0,0,0,26.4,540.6Z" transform="translate(-8.1 -252.7)"/><path class="cls-4" d="M28,537.5h1l2.1,5.1,2.1-5.1h1l-2.7,6.2H30.7Z" transform="translate(-8.1 -252.7)"/><path class="cls-4" d="M35.7,535.1h1.1v1H35.7v-1Zm0.1,2.4h0.9v6.2H35.8v-6.2Z" transform="translate(-8.1 -252.7)"/><path class="cls-4" d="M38.5,540.6h0a3,3,0,0,1,3-3.2,2.78,2.78,0,0,1,2.4,1.3V535h0.9v8.8H43.9v-1.2a2.86,2.86,0,0,1-2.4,1.4A3.31,3.31,0,0,1,38.5,540.6Zm5.4,0h0a2.27,2.27,0,0,0-2.2-2.4,2.21,2.21,0,0,0-2.2,2.4h0a2.21,2.21,0,0,0,2.2,2.4A2.33,2.33,0,0,0,43.9,540.6Z" transform="translate(-8.1 -252.7)"/><path class="cls-4" d="M46.4,540.6h0a3.06,3.06,0,0,1,3-3.2,3,3,0,0,1,2.9,3.3V541H47.4a2.19,2.19,0,0,0,2.2,2.1,2.38,2.38,0,0,0,2-.9l0.6,0.5A3.27,3.27,0,0,1,46.4,540.6Zm5-.3a2,2,0,0,0-2-2.1,2.09,2.09,0,0,0-2,2.1h4Z" transform="translate(-8.1 -252.7)"/><path class="cls-4" d="M53.4,542.9l0.5-.7a3.68,3.68,0,0,0,2.1.8,1.16,1.16,0,0,0,1.3-1h0c0-.6-0.7-0.9-1.5-1.1-1-.3-2.1-0.6-2.1-1.8h0a1.88,1.88,0,0,1,2.1-1.8,4.1,4.1,0,0,1,2.2.7l-0.4.7a3.23,3.23,0,0,0-1.8-.6,1.06,1.06,0,0,0-1.2.9h0c0,0.6.8,0.8,1.6,1.1,1,0.3,2,.7,2,1.8h0a2,2,0,0,1-2.2,1.9A4.11,4.11,0,0,1,53.4,542.9Z" transform="translate(-8.1 -252.7)"/><path class="cls-4" d="M63.8,542.1v-3.7H63v-0.8h0.9v-1.9h0.9v1.9h2v0.8h-2V542a0.86,0.86,0,0,0,1,1,2.92,2.92,0,0,0,.9-0.2v0.8a2,2,0,0,1-1.1.3A1.73,1.73,0,0,1,63.8,542.1Z" transform="translate(-8.1 -252.7)"/><path class="cls-4" d="M68.3,535h0.9v3.6a2.32,2.32,0,0,1,2.1-1.2,2.29,2.29,0,0,1,2.4,2.5v3.8H72.8v-3.6a1.64,1.64,0,0,0-1.7-1.9,1.84,1.84,0,0,0-1.9,1.9v3.5H68.3V535Z" transform="translate(-8.1 -252.7)"/><path class="cls-4" d="M75.4,540.6h0a3.06,3.06,0,0,1,3-3.2,3,3,0,0,1,2.9,3.3V541H76.4a2.19,2.19,0,0,0,2.2,2.1,2.38,2.38,0,0,0,2-.9l0.6,0.5a3.24,3.24,0,0,1-2.6,1.2A3.18,3.18,0,0,1,75.4,540.6Zm4.9-.3a2,2,0,0,0-2-2.1,2.09,2.09,0,0,0-2,2.1h4Z" transform="translate(-8.1 -252.7)"/><path class="cls-4" d="M86.1,540.6h0a3.24,3.24,0,0,1,3.2-3.3,3.16,3.16,0,0,1,3.2,3.2h0a3.18,3.18,0,0,1-3.3,3.2A2.94,2.94,0,0,1,86.1,540.6Zm5.5,0h0a2.29,2.29,0,0,0-2.3-2.4,2.35,2.35,0,0,0-2.3,2.4h0A2.3,2.3,0,1,0,91.6,540.6Z" transform="translate(-8.1 -252.7)"/><path class="cls-4" d="M94.2,537.5h0.9v1.2a2.86,2.86,0,0,1,2.4-1.4,3.06,3.06,0,0,1,3,3.2h0a3.06,3.06,0,0,1-3,3.2,2.78,2.78,0,0,1-2.4-1.3v3.1H94.2v-8Zm5.3,3.1h0a2.21,2.21,0,0,0-2.2-2.4,2.27,2.27,0,0,0-2.2,2.4h0a2.33,2.33,0,0,0,2.2,2.4A2.21,2.21,0,0,0,99.5,540.6Z" transform="translate(-8.1 -252.7)"/><path class="cls-4" d="M102.2,537.5h0.9v1.2a2.86,2.86,0,0,1,2.4-1.4,3.06,3.06,0,0,1,3,3.2h0a3.06,3.06,0,0,1-3,3.2,2.78,2.78,0,0,1-2.4-1.3v3.1h-0.9v-8Zm5.3,3.1h0a2.21,2.21,0,0,0-2.2-2.4,2.27,2.27,0,0,0-2.2,2.4h0a2.33,2.33,0,0,0,2.2,2.4A2.21,2.21,0,0,0,107.5,540.6Z" transform="translate(-8.1 -252.7)"/><path class="cls-4" d="M109.7,540.6h0a3.24,3.24,0,0,1,3.2-3.3,3.16,3.16,0,0,1,3.2,3.2h0a3.18,3.18,0,0,1-3.3,3.2A3,3,0,0,1,109.7,540.6Zm5.6,0h0a2.29,2.29,0,0,0-2.3-2.4,2.35,2.35,0,0,0-2.3,2.4h0A2.3,2.3,0,1,0,115.3,540.6Z" transform="translate(-8.1 -252.7)"/><path class="cls-4" d="M117.9,537.5h0.9v1.6a2.68,2.68,0,0,1,2.5-1.7v1h-0.1a2.51,2.51,0,0,0-2.5,2.8v2.5h-0.9v-6.2h0.1Z" transform="translate(-8.1 -252.7)"/><path class="cls-4" d="M123.1,542.1v-3.7h-0.9v-0.8h0.9v-1.9H124v1.9h2v0.8h-2V542a0.86,0.86,0,0,0,1,1,2.92,2.92,0,0,0,.9-0.2v0.8a2,2,0,0,1-1.1.3A1.66,1.66,0,0,1,123.1,542.1Z" transform="translate(-8.1 -252.7)"/><path class="cls-4" d="M127.5,541.4v-3.8h0.9v3.6a1.64,1.64,0,0,0,1.7,1.9,1.84,1.84,0,0,0,1.9-1.9v-3.5h0.9v6.2H132v-1.1a2.32,2.32,0,0,1-2.1,1.2A2.54,2.54,0,0,1,127.5,541.4Z" transform="translate(-8.1 -252.7)"/><path class="cls-4" d="M135,537.5h0.9v1.1a2.32,2.32,0,0,1,2.1-1.2,2.29,2.29,0,0,1,2.4,2.5v3.8h-0.9v-3.6a1.64,1.64,0,0,0-1.7-1.9,1.84,1.84,0,0,0-1.9,1.9v3.5H135v-6.1Z" transform="translate(-8.1 -252.7)"/><path class="cls-4" d="M142.4,535.1h1.1v1h-1.1v-1Zm0.1,2.4h0.9v6.2h-0.9v-6.2Z" transform="translate(-8.1 -252.7)"/><path class="cls-4" d="M145.9,542.1v-3.7H145v-0.8h0.9v-1.9h0.9v1.9h2v0.8h-2V542a0.86,0.86,0,0,0,1,1,2.92,2.92,0,0,0,.9-0.2v0.8a2,2,0,0,1-1.1.3A1.66,1.66,0,0,1,145.9,542.1Z" transform="translate(-8.1 -252.7)"/><path class="cls-4" d="M155,537.5h1l-2.6,6.4c-0.5,1.3-1.1,1.8-2.1,1.8a2.77,2.77,0,0,1-1.3-.3l0.3-.7a1.64,1.64,0,0,0,1,.2c0.6,0,.9-0.3,1.3-1.2l-2.8-6.2h1l2.3,5.2Z" transform="translate(-8.1 -252.7)"/><path class="cls-4" d="M9,556.4v-3.7H8.2v-0.8H9V550H9.9v1.9h2v0.8h-2v3.6a0.86,0.86,0,0,0,1,1,2.92,2.92,0,0,0,.9-0.2v0.8a2,2,0,0,1-1.1.3A1.6,1.6,0,0,1,9,556.4Z" transform="translate(-8.1 -252.7)"/><path class="cls-4" d="M13,555h0a3.24,3.24,0,0,1,3.2-3.3,3.16,3.16,0,0,1,3.2,3.2h0a3.18,3.18,0,0,1-3.3,3.2A2.94,2.94,0,0,1,13,555Zm5.5,0h0a2.29,2.29,0,0,0-2.3-2.4,2.35,2.35,0,0,0-2.3,2.4h0a2.35,2.35,0,0,0,2.3,2.4A2.29,2.29,0,0,0,18.5,555Z" transform="translate(-8.1 -252.7)"/><path class="cls-4" d="M24.2,556.3h0c0-1.3,1.1-2,2.7-2a5,5,0,0,1,1.9.3v-0.2a1.61,1.61,0,0,0-1.8-1.7,4.14,4.14,0,0,0-1.9.5l-0.3-.8a5.56,5.56,0,0,1,2.3-.5,2.58,2.58,0,0,1,2,.7,2.44,2.44,0,0,1,.6,1.8v3.8H28.8v-0.9a2.64,2.64,0,0,1-2.2,1.1C25.4,558.2,24.2,557.6,24.2,556.3Zm4.6-.5v-0.6a8.42,8.42,0,0,0-1.8-.3c-1.2,0-1.8.5-1.8,1.3h0a1.35,1.35,0,0,0,1.6,1.2A1.7,1.7,0,0,0,28.8,555.8Z" transform="translate(-8.1 -252.7)"/><path class="cls-4" d="M31.3,555h0a3.26,3.26,0,0,1,5.7-2.2l-0.6.6a2.48,2.48,0,0,0-1.9-.9,2.27,2.27,0,0,0-2.2,2.4h0a2.35,2.35,0,0,0,2.3,2.4,2.65,2.65,0,0,0,1.9-.9L37,557a3.18,3.18,0,0,1-2.5,1.2A3.1,3.1,0,0,1,31.3,555Z" transform="translate(-8.1 -252.7)"/><path class="cls-4" d="M38.5,549.3h0.9v3.6a2.32,2.32,0,0,1,2.1-1.2,2.29,2.29,0,0,1,2.4,2.5V558H43v-3.6a1.64,1.64,0,0,0-1.7-1.9,1.84,1.84,0,0,0-1.9,1.9v3.5H38.5v-8.6Z" transform="translate(-8.1 -252.7)"/><path class="cls-4" d="M45.9,549.5H47v1H45.9v-1Zm0.1,2.4h0.9v6.2H46v-6.2Z" transform="translate(-8.1 -252.7)"/><path class="cls-4" d="M48.7,555h0a3.06,3.06,0,0,1,3-3.2,3,3,0,0,1,2.9,3.3v0.3H49.7a2.19,2.19,0,0,0,2.2,2.1,2.38,2.38,0,0,0,2-.9l0.6,0.5A3.27,3.27,0,0,1,48.7,555Zm4.9-.4a2,2,0,0,0-2-2.1,2.09,2.09,0,0,0-2,2.1h4Z" transform="translate(-8.1 -252.7)"/><path class="cls-4" d="M55.3,551.9h1l2.1,5.1,2.1-5.1h1l-2.7,6.2H58Z" transform="translate(-8.1 -252.7)"/><path class="cls-4" d="M62.2,555h0a3.06,3.06,0,0,1,3-3.2,3,3,0,0,1,2.9,3.3v0.3H63.2a2.19,2.19,0,0,0,2.2,2.1,2.38,2.38,0,0,0,2-.9l0.6,0.5A3.27,3.27,0,0,1,62.2,555Zm4.9-.4a2,2,0,0,0-2-2.1,2.09,2.09,0,0,0-2,2.1h4Z" transform="translate(-8.1 -252.7)"/><path class="cls-4" d="M72.7,557.3l0.5-.7a3.68,3.68,0,0,0,2.1.8,1.16,1.16,0,0,0,1.3-1h0c0-.6-0.7-0.9-1.5-1.1-1-.3-2.1-0.6-2.1-1.8h0a1.88,1.88,0,0,1,2.1-1.8,4.1,4.1,0,0,1,2.2.7l-0.4.7a3.23,3.23,0,0,0-1.8-.6,1.06,1.06,0,0,0-1.2.9h0c0,0.6.8,0.8,1.6,1.1,1,0.3,2,.7,2,1.8h0a2,2,0,0,1-2.2,1.9A4.11,4.11,0,0,1,72.7,557.3Z" transform="translate(-8.1 -252.7)"/><path class="cls-4" d="M79.1,555.7v-3.8H80v3.6a1.64,1.64,0,0,0,1.7,1.9,1.84,1.84,0,0,0,1.9-1.9V552h0.9v6.2H83.6V557a2.32,2.32,0,0,1-2.1,1.2A2.29,2.29,0,0,1,79.1,555.7Z" transform="translate(-8.1 -252.7)"/><path class="cls-4" d="M86.6,551.9h0.9v1.2a2.86,2.86,0,0,1,2.4-1.4,3.06,3.06,0,0,1,3,3.2h0a3.06,3.06,0,0,1-3,3.2,2.78,2.78,0,0,1-2.4-1.3v3.1H86.6v-8Zm5.3,3.1h0a2.21,2.21,0,0,0-2.2-2.4,2.27,2.27,0,0,0-2.2,2.4h0a2.33,2.33,0,0,0,2.2,2.4A2.16,2.16,0,0,0,91.9,555Z" transform="translate(-8.1 -252.7)"/><path class="cls-4" d="M94.2,555h0a3.06,3.06,0,0,1,3-3.2,3,3,0,0,1,2.9,3.3v0.3H95.2a2.19,2.19,0,0,0,2.2,2.1,2.38,2.38,0,0,0,2-.9l0.6,0.5A3.27,3.27,0,0,1,94.2,555Zm4.9-.4a2,2,0,0,0-2-2.1,2.09,2.09,0,0,0-2,2.1h4Z" transform="translate(-8.1 -252.7)"/><path class="cls-4" d="M101.7,551.9h0.9v1.6a2.68,2.68,0,0,1,2.5-1.7v1H105a2.51,2.51,0,0,0-2.5,2.8v2.5h-0.9v-6.2h0.1Z" transform="translate(-8.1 -252.7)"/><path class="cls-4" d="M106.6,549.5h1.1v1h-1.1v-1Zm0,2.4h0.9v6.2h-0.9v-6.2Z" transform="translate(-8.1 -252.7)"/><path class="cls-4" d="M109.3,555h0a3.24,3.24,0,0,1,3.2-3.3,3.16,3.16,0,0,1,3.2,3.2h0a3.18,3.18,0,0,1-3.3,3.2A3,3,0,0,1,109.3,555Zm5.5,0h0a2.29,2.29,0,0,0-2.3-2.4,2.35,2.35,0,0,0-2.3,2.4h0a2.35,2.35,0,0,0,2.3,2.4A2.29,2.29,0,0,0,114.8,555Z" transform="translate(-8.1 -252.7)"/><path class="cls-4" d="M117.5,551.9h0.9v1.6a2.68,2.68,0,0,1,2.5-1.7v1h-0.1a2.51,2.51,0,0,0-2.5,2.8v2.5h-0.9v-6.2h0.1Z" transform="translate(-8.1 -252.7)"/><path class="cls-4" d="M126,549.3h0.9v8.8H126v-8.8Z" transform="translate(-8.1 -252.7)"/><path class="cls-4" d="M128.7,555h0a3.24,3.24,0,0,1,3.2-3.3,3.16,3.16,0,0,1,3.2,3.2h0a3.18,3.18,0,0,1-3.3,3.2A3,3,0,0,1,128.7,555Zm5.5,0h0a2.29,2.29,0,0,0-2.3-2.4,2.35,2.35,0,0,0-2.3,2.4h0a2.35,2.35,0,0,0,2.3,2.4A2.29,2.29,0,0,0,134.2,555Z" transform="translate(-8.1 -252.7)"/><path class="cls-4" d="M136.8,551.9h0.9V553a2.32,2.32,0,0,1,2.1-1.2,2.29,2.29,0,0,1,2.4,2.5v3.8h-0.9v-3.6a1.64,1.64,0,0,0-1.7-1.9,1.84,1.84,0,0,0-1.9,1.9V558h-0.9v-6.1h0Z" transform="translate(-8.1 -252.7)"/><path class="cls-4" d="M144.2,559.2l0.4-.7a4.07,4.07,0,0,0,2.4.8,2.08,2.08,0,0,0,2.3-2.2v-0.7a2.92,2.92,0,0,1-2.4,1.3,2.84,2.84,0,0,1-2.9-2.9h0a2.84,2.84,0,0,1,2.9-2.9,3,3,0,0,1,2.4,1.2V552h0.9v5.1a3,3,0,0,1-.8,2.2,3.19,3.19,0,0,1-2.4.8A6.18,6.18,0,0,1,144.2,559.2Zm5-4.5h0a2.16,2.16,0,0,0-2.3-2.1,2,2,0,0,0-2.1,2.1h0a2.11,2.11,0,0,0,2.1,2.1A2.22,2.22,0,0,0,149.2,554.7Z" transform="translate(-8.1 -252.7)"/><path class="cls-4" d="M151.9,554h3.3v1h-3.3v-1Z" transform="translate(-8.1 -252.7)"/><path class="cls-4" d="M9,570.8v-3.7H8.2v-0.8H9v-1.9H9.9v1.9h2v0.8h-2v3.6a0.86,0.86,0,0,0,1,1,2.92,2.92,0,0,0,.9-0.2v0.8a2,2,0,0,1-1.1.3A1.6,1.6,0,0,1,9,570.8Z" transform="translate(-8.1 -252.7)"/><path class="cls-4" d="M13,569.4h0a3.06,3.06,0,0,1,3-3.2,3,3,0,0,1,2.9,3.3v0.3H14a2.19,2.19,0,0,0,2.2,2.1,2.38,2.38,0,0,0,2-.9l0.6,0.5A3.27,3.27,0,0,1,13,569.4Zm4.9-.4a2,2,0,0,0-2-2.1,2.09,2.09,0,0,0-2,2.1h4Z" transform="translate(-8.1 -252.7)"/><path class="cls-4" d="M20.5,566.3h0.9v1.6a2.68,2.68,0,0,1,2.5-1.7v1H23.8a2.51,2.51,0,0,0-2.5,2.8v2.5H20.4v-6.2h0.1Z" transform="translate(-8.1 -252.7)"/><path class="cls-4" d="M25.3,566.3h0.9v1a2.35,2.35,0,0,1,2-1.2,2.06,2.06,0,0,1,2,1.2,2.37,2.37,0,0,1,2.2-1.2,2.26,2.26,0,0,1,2.3,2.5v3.8H33.8v-3.6a1.62,1.62,0,0,0-1.6-1.9,1.74,1.74,0,0,0-1.7,1.9v3.6H29.6v-3.6A1.54,1.54,0,0,0,28,567a1.77,1.77,0,0,0-1.7,2v3.5H25.4v-6.2H25.3Z" transform="translate(-8.1 -252.7)"/><path class="cls-4" d="M40.3,566.3h0.9v1.6a2.68,2.68,0,0,1,2.5-1.7v1H43.6a2.51,2.51,0,0,0-2.5,2.8v2.5H40.2v-6.2h0.1Z" transform="translate(-8.1 -252.7)"/><path class="cls-4" d="M44.5,569.4h0a3.06,3.06,0,0,1,3-3.2,3,3,0,0,1,2.9,3.3v0.3H45.5a2.19,2.19,0,0,0,2.2,2.1,2.38,2.38,0,0,0,2-.9l0.6,0.5A3.27,3.27,0,0,1,44.5,569.4Zm5-.4a2,2,0,0,0-2-2.1,2.09,2.09,0,0,0-2,2.1h4Z" transform="translate(-8.1 -252.7)"/><path class="cls-4" d="M52.4,570.8v-3.7H51.5v-0.8h0.9v-1.9h0.9v1.9h2v0.8h-2v3.6a0.86,0.86,0,0,0,1,1,2.92,2.92,0,0,0,.9-0.2v0.8a2,2,0,0,1-1.1.3A1.56,1.56,0,0,1,52.4,570.8Z" transform="translate(-8.1 -252.7)"/><path class="cls-4" d="M56.8,570.1v-3.8h0.9v3.6a1.64,1.64,0,0,0,1.7,1.9,1.84,1.84,0,0,0,1.9-1.9v-3.5h0.9v6.2H61.3v-1.1a2.32,2.32,0,0,1-2.1,1.2A2.42,2.42,0,0,1,56.8,570.1Z" transform="translate(-8.1 -252.7)"/><path class="cls-4" d="M64.3,566.3h0.9v1.6a2.68,2.68,0,0,1,2.5-1.7v1H67.6a2.51,2.51,0,0,0-2.5,2.8v2.5H64.2v-6.2h0.1Z" transform="translate(-8.1 -252.7)"/><path class="cls-4" d="M69.1,566.3H70v1.1a2.32,2.32,0,0,1,2.1-1.2,2.29,2.29,0,0,1,2.4,2.5v3.8H73.6v-3.6a1.64,1.64,0,0,0-1.7-1.9,1.84,1.84,0,0,0-1.9,1.9v3.5H69.1v-6.1Z" transform="translate(-8.1 -252.7)"/><path class="cls-4" d="M76,571.7l0.5-.7a3.68,3.68,0,0,0,2.1.8,1.16,1.16,0,0,0,1.3-1h0c0-.6-0.7-0.9-1.5-1.1-1-.3-2.1-0.6-2.1-1.8h0a1.88,1.88,0,0,1,2.1-1.8,4.1,4.1,0,0,1,2.2.7l-0.4.7a3.23,3.23,0,0,0-1.8-.6,1.06,1.06,0,0,0-1.2.9h0c0,0.6.8,0.8,1.6,1.1,1,0.3,2,.7,2,1.8h0a2,2,0,0,1-2.2,1.9A4.11,4.11,0,0,1,76,571.7Z" transform="translate(-8.1 -252.7)"/><path class="cls-4" d="M82.4,571.2h1.1v1.3H82.4v-1.3Z" transform="translate(-8.1 -252.7)"/><path class="cls-4" d="M222.4,490.1h1.7l4.5,10.4h-1.9l-1-2.5h-4.9l-1.1,2.5h-1.9Zm2.6,6.3-1.8-4.1-1.8,4.1H225Z" transform="translate(-8.1 -252.7)"/><path class="cls-4" d="M229.3,496.7h0a4,4,0,0,1,4-4.1,3.76,3.76,0,0,1,3.1,1.3l-1.1,1.2a2.46,2.46,0,0,0-2-1,2.38,2.38,0,0,0-2.3,2.5h0a2.38,2.38,0,0,0,2.3,2.5,2.61,2.61,0,0,0,2-1l1.1,1.1A4,4,0,0,1,229.3,496.7Z" transform="translate(-8.1 -252.7)"/><path class="cls-4" d="M238.5,498.4v-4.1h-1v-1.5h1v-2.1h1.8v2.1h2.1v1.5h-2.1v3.8a0.9,0.9,0,0,0,1,1,2,2,0,0,0,1.1-.3v1.5a3.41,3.41,0,0,1-1.6.4C239.5,500.6,238.5,500.1,238.5,498.4Z" transform="translate(-8.1 -252.7)"/><path class="cls-4" d="M244.1,497.7v-4.9h1.8v4.4a1.64,1.64,0,0,0,1.7,1.9,1.76,1.76,0,0,0,1.8-1.9v-4.4h1.8v7.8h-1.8v-1.2A2.85,2.85,0,0,1,244.1,497.7Z" transform="translate(-8.1 -252.7)"/><path class="cls-4" d="M252.8,498.3h0c0-1.7,1.3-2.5,3.2-2.5a6.23,6.23,0,0,1,2.1.3v-0.2a1.64,1.64,0,0,0-1.9-1.7,5.09,5.09,0,0,0-2.2.5l-0.5-1.4a6.53,6.53,0,0,1,2.9-.6,3.42,3.42,0,0,1,2.6.9,3.19,3.19,0,0,1,.8,2.4v4.6h-1.7v-1a3.12,3.12,0,0,1-2.5,1.1A2.54,2.54,0,0,1,252.8,498.3Zm5.3-.6v-0.5a4.84,4.84,0,0,0-1.8-.3c-1.1,0-1.8.5-1.8,1.3h0a1.3,1.3,0,0,0,1.5,1.2A1.87,1.87,0,0,0,258.1,497.7Z" transform="translate(-8.1 -252.7)"/><path class="cls-4" d="M262.1,489.8h1.8v10.7h-1.8V489.8Z" transform="translate(-8.1 -252.7)"/><path class="cls-4" d="M266.2,489.9h1.9v1.7h-1.9v-1.7Zm0.1,2.8h1.8v7.8h-1.8v-7.8Z" transform="translate(-8.1 -252.7)"/><path class="cls-4" d="M270,499.3l4.5-5.1h-4.3v-1.5h6.6v1.2l-4.5,5.1h4.5v1.5H270v-1.2Z" transform="translate(-8.1 -252.7)"/><path class="cls-4" d="M278.1,498.3h0c0-1.7,1.3-2.5,3.2-2.5a6.23,6.23,0,0,1,2.1.3v-0.2a1.64,1.64,0,0,0-1.9-1.7,5.09,5.09,0,0,0-2.2.5l-0.5-1.4a6.53,6.53,0,0,1,2.9-.6,3.42,3.42,0,0,1,2.6.9,3.19,3.19,0,0,1,.8,2.4v4.6h-1.7v-1a3.12,3.12,0,0,1-2.5,1.1A2.54,2.54,0,0,1,278.1,498.3Zm5.3-.6v-0.5a4.84,4.84,0,0,0-1.8-.3c-1.1,0-1.8.5-1.8,1.3h0a1.3,1.3,0,0,0,1.5,1.2A1.87,1.87,0,0,0,283.4,497.7Z" transform="translate(-8.1 -252.7)"/><path class="cls-4" d="M287.6,498.4v-4.1h-1v-1.5h1v-2.1h1.8v2.1h2.1v1.5h-2.1v3.8a0.9,0.9,0,0,0,1,1,2,2,0,0,0,1.1-.3v1.5a3.41,3.41,0,0,1-1.6.4C288.6,500.6,287.6,500.1,287.6,498.4Z" transform="translate(-8.1 -252.7)"/><path class="cls-4" d="M293.3,489.9h1.9v1.7h-1.9v-1.7Zm0.1,2.8h1.8v7.8h-1.8v-7.8Z" transform="translate(-8.1 -252.7)"/><path class="cls-4" d="M297.1,496.7h0a4.06,4.06,0,0,1,4.1-4.1,4,4,0,0,1,4.1,4h0a4.06,4.06,0,0,1-4.2,4A3.81,3.81,0,0,1,297.1,496.7Zm6.5,0h0a2.39,2.39,0,0,0-2.4-2.5,2.32,2.32,0,0,0-2.3,2.5h0a2.39,2.39,0,0,0,2.4,2.5A2.43,2.43,0,0,0,303.6,496.7Z" transform="translate(-8.1 -252.7)"/><path class="cls-4" d="M307.2,492.7H309v1.2a2.86,2.86,0,0,1,2.4-1.4,2.68,2.68,0,0,1,2.8,3v5h-1.8v-4.4a1.64,1.64,0,0,0-1.7-1.9,1.76,1.76,0,0,0-1.8,1.9v4.4h-1.8v-7.8h0.1Z" transform="translate(-8.1 -252.7)"/><path class="cls-4" d="M218.6,506.5h3.6a3.46,3.46,0,0,1,2.4.8,2.35,2.35,0,0,1,.6,1.7h0a2.41,2.41,0,0,1-2.3,2.4l2.6,3.4h-1.2l-2.4-3.3h-2.4v3.3h-0.9v-8.3h0Zm3.5,4.3c1.3,0,2.2-.6,2.2-1.7h0c0-1-.8-1.7-2.1-1.7h-2.6v3.4h2.5Z" transform="translate(-8.1 -252.7)"/><path class="cls-4" d="M227.1,506.3h1.1v1h-1.1v-1Zm0.1,2.4h0.9v6.2h-0.9v-6.2Z" transform="translate(-8.1 -252.7)"/><path class="cls-4" d="M229.7,514.1l0.5-.7a3.68,3.68,0,0,0,2.1.8,1.16,1.16,0,0,0,1.3-1h0c0-.6-0.7-0.9-1.5-1.1-1-.3-2.1-0.6-2.1-1.8h0a1.88,1.88,0,0,1,2.1-1.8,4.1,4.1,0,0,1,2.2.7l-0.4.7a3.23,3.23,0,0,0-1.8-.6,1.06,1.06,0,0,0-1.2.9h0c0,0.6.8,0.8,1.6,1.1,1,0.3,2,.7,2,1.8h0a2,2,0,0,1-2.2,1.9A4.11,4.11,0,0,1,229.7,514.1Z" transform="translate(-8.1 -252.7)"/><path class="cls-4" d="M236.2,506.1h0.9v6l3.3-3.5h1.2l-2.6,2.7,2.7,3.5h-1.1l-2.2-2.9-1.3,1.3v1.6h-0.9v-8.7h0Z" transform="translate(-8.1 -252.7)"/><path class="cls-4" d="M246.6,508.7h0.9v1a2.35,2.35,0,0,1,2-1.2,2.06,2.06,0,0,1,2,1.2,2.37,2.37,0,0,1,2.2-1.2A2.26,2.26,0,0,1,256,511v3.8h-0.9v-3.6a1.62,1.62,0,0,0-1.6-1.9,1.74,1.74,0,0,0-1.7,1.9v3.6h-0.9v-3.6a1.54,1.54,0,0,0-1.6-1.8,1.77,1.77,0,0,0-1.7,2v3.5h-0.9v-6.2h-0.1Z" transform="translate(-8.1 -252.7)"/><path class="cls-4" d="M258,506.3h1.1v1H258v-1Zm0.1,2.4H259v6.2h-0.9v-6.2Z" transform="translate(-8.1 -252.7)"/><path class="cls-4" d="M261.5,513.2v-3.7h-0.9v-0.8h0.9v-1.9h0.9v1.9h2v0.8h-2v3.6a0.86,0.86,0,0,0,1,1,2.92,2.92,0,0,0,.9-0.2v0.8a2,2,0,0,1-1.1.3A1.56,1.56,0,0,1,261.5,513.2Z" transform="translate(-8.1 -252.7)"/><path class="cls-4" d="M266,506.3h1.1v1H266v-1Zm0,2.4h0.9v6.2H266v-6.2Z" transform="translate(-8.1 -252.7)"/><path class="cls-4" d="M269,516l0.4-.7a4.07,4.07,0,0,0,2.4.8,2.08,2.08,0,0,0,2.3-2.2v-0.7a2.92,2.92,0,0,1-2.4,1.3,2.84,2.84,0,0,1-2.9-2.9h0a2.84,2.84,0,0,1,2.9-2.9,3,3,0,0,1,2.4,1.2v-1.1H275v5.1a3,3,0,0,1-.8,2.2,3.19,3.19,0,0,1-2.4.8A7.08,7.08,0,0,1,269,516Zm5.1-4.5h0a2.16,2.16,0,0,0-2.3-2.1,2,2,0,0,0-2.1,2.1h0a2.11,2.11,0,0,0,2.1,2.1A2.22,2.22,0,0,0,274.1,511.5Z" transform="translate(-8.1 -252.7)"/><path class="cls-4" d="M276.6,513.1h0c0-1.3,1.1-2,2.7-2a5,5,0,0,1,1.9.3v-0.2a1.61,1.61,0,0,0-1.8-1.7,4.14,4.14,0,0,0-1.9.5l-0.3-.8a5.56,5.56,0,0,1,2.3-.5,2.58,2.58,0,0,1,2,.7,2.44,2.44,0,0,1,.6,1.8V515h-0.9v-1a2.64,2.64,0,0,1-2.2,1.1C277.8,515,276.6,514.4,276.6,513.1Zm4.6-.5V512a8.42,8.42,0,0,0-1.8-.3c-1.2,0-1.8.5-1.8,1.3h0a1.35,1.35,0,0,0,1.6,1.2A1.75,1.75,0,0,0,281.2,512.6Z" transform="translate(-8.1 -252.7)"/><path class="cls-4" d="M284.3,513.2v-3.7h-0.9v-0.8h0.9v-1.9h0.9v1.9h2v0.8h-2v3.6a0.86,0.86,0,0,0,1,1,2.92,2.92,0,0,0,.9-0.2v0.8a2,2,0,0,1-1.1.3A1.6,1.6,0,0,1,284.3,513.2Z" transform="translate(-8.1 -252.7)"/><path class="cls-4" d="M288.9,506.3H290v1h-1.1v-1Zm0,2.4h0.9v6.2h-0.9v-6.2Z" transform="translate(-8.1 -252.7)"/><path class="cls-4" d="M291.6,511.8h0a3.24,3.24,0,0,1,3.2-3.3,3.16,3.16,0,0,1,3.2,3.2h0a3.16,3.16,0,0,1-3.2,3.2A3,3,0,0,1,291.6,511.8Zm5.5,0h0a2.29,2.29,0,0,0-2.3-2.4,2.35,2.35,0,0,0-2.3,2.4h0a2.35,2.35,0,0,0,2.3,2.4A2.29,2.29,0,0,0,297.1,511.8Z" transform="translate(-8.1 -252.7)"/><path class="cls-4" d="M299.7,508.7h0.9v1.1a2.32,2.32,0,0,1,2.1-1.2,2.29,2.29,0,0,1,2.4,2.5v3.8h-0.9v-3.6a1.64,1.64,0,0,0-1.7-1.9,1.84,1.84,0,0,0-1.9,1.9v3.5h-0.9v-6.1Z" transform="translate(-8.1 -252.7)"/><path class="cls-4" d="M310.2,514.1l0.5-.7a3.68,3.68,0,0,0,2.1.8,1.16,1.16,0,0,0,1.3-1h0c0-.6-0.7-0.9-1.5-1.1-1-.3-2.1-0.6-2.1-1.8h0a1.88,1.88,0,0,1,2.1-1.8,4.1,4.1,0,0,1,2.2.7l-0.4.7a3.23,3.23,0,0,0-1.8-.6,1.06,1.06,0,0,0-1.2.9h0c0,0.6.8,0.8,1.6,1.1,1,0.3,2,.7,2,1.8h0a2,2,0,0,1-2.2,1.9A4.11,4.11,0,0,1,310.2,514.1Z" transform="translate(-8.1 -252.7)"/><path class="cls-4" d="M317,513.2v-3.7h-0.9v-0.8H317v-1.9h0.9v1.9h2v0.8h-2v3.6a0.86,0.86,0,0,0,1,1,2.92,2.92,0,0,0,.9-0.2v0.8a2,2,0,0,1-1.1.3A1.56,1.56,0,0,1,317,513.2Z" transform="translate(-8.1 -252.7)"/><path class="cls-4" d="M321.5,508.7h0.9v1.6a2.68,2.68,0,0,1,2.5-1.7v1h-0.1a2.51,2.51,0,0,0-2.5,2.8v2.5h-0.9v-6.2h0.1Z" transform="translate(-8.1 -252.7)"/><path class="cls-4" d="M325.6,513.1h0c0-1.3,1.1-2,2.7-2a5,5,0,0,1,1.9.3v-0.2a1.61,1.61,0,0,0-1.8-1.7,4.14,4.14,0,0,0-1.9.5l-0.3-.8a5.56,5.56,0,0,1,2.3-.5,2.58,2.58,0,0,1,2,.7,2.44,2.44,0,0,1,.6,1.8V515h-0.9v-1a2.64,2.64,0,0,1-2.2,1.1C326.8,515,325.6,514.4,325.6,513.1Zm4.6-.5V512a8.42,8.42,0,0,0-1.8-.3c-1.2,0-1.8.5-1.8,1.3h0a1.35,1.35,0,0,0,1.6,1.2A1.75,1.75,0,0,0,330.2,512.6Z" transform="translate(-8.1 -252.7)"/><path class="cls-4" d="M333.3,513.2v-3.7h-0.9v-0.8h0.9v-1.9h0.9v1.9h2v0.8h-2v3.6a0.86,0.86,0,0,0,1,1,2.92,2.92,0,0,0,.9-0.2v0.8a2,2,0,0,1-1.1.3A1.56,1.56,0,0,1,333.3,513.2Z" transform="translate(-8.1 -252.7)"/><path class="cls-4" d="M337.3,511.8h0a3.06,3.06,0,0,1,3-3.2,3,3,0,0,1,2.9,3.3v0.3h-4.9a2.19,2.19,0,0,0,2.2,2.1,2.38,2.38,0,0,0,2-.9l0.6,0.5a3.24,3.24,0,0,1-2.6,1.2A3.18,3.18,0,0,1,337.3,511.8Zm4.9-.3a2,2,0,0,0-2-2.1,2.09,2.09,0,0,0-2,2.1h4Z" transform="translate(-8.1 -252.7)"/><path class="cls-4" d="M344.7,516l0.4-.7a4.07,4.07,0,0,0,2.4.8,2.08,2.08,0,0,0,2.3-2.2v-0.7a2.92,2.92,0,0,1-2.4,1.3,2.84,2.84,0,0,1-2.9-2.9h0a2.84,2.84,0,0,1,2.9-2.9,3,3,0,0,1,2.4,1.2v-1.1h0.9v5.1a3,3,0,0,1-.8,2.2,3.19,3.19,0,0,1-2.4.8A6.6,6.6,0,0,1,344.7,516Zm5.1-4.5h0a2.16,2.16,0,0,0-2.3-2.1,2,2,0,0,0-2.1,2.1h0a2.11,2.11,0,0,0,2.1,2.1A2.22,2.22,0,0,0,349.8,511.5Z" transform="translate(-8.1 -252.7)"/><path class="cls-4" d="M357.3,508.7h1l-2.6,6.4c-0.5,1.3-1.1,1.8-2.1,1.8a2.77,2.77,0,0,1-1.3-.3l0.3-.7a1.64,1.64,0,0,0,1,.2c0.6,0,.9-0.3,1.3-1.2l-2.8-6.2h1l2.3,5.2Z" transform="translate(-8.1 -252.7)"/><path class="cls-4" d="M217.9,523.1h1l1.6,5,1.7-5H223l1.7,5,1.6-5h1l-2.2,6.2h-0.8l-1.7-4.9-1.7,4.9h-0.8Z" transform="translate(-8.1 -252.7)"/><path class="cls-4" d="M228.8,520.7h1.1v1h-1.1v-1Zm0,2.4h0.9v6.2h-0.9v-6.2Z" transform="translate(-8.1 -252.7)"/><path class="cls-4" d="M232.2,527.7V524h-0.9v-0.8h0.9v-1.9h0.9v1.9h2V524h-2v3.6a0.86,0.86,0,0,0,1,1,2.92,2.92,0,0,0,.9-0.2v0.8a2,2,0,0,1-1.1.3A1.71,1.71,0,0,1,232.2,527.7Z" transform="translate(-8.1 -252.7)"/><path class="cls-4" d="M236.7,520.5h0.9v3.6a2.32,2.32,0,0,1,2.1-1.2,2.29,2.29,0,0,1,2.4,2.5v3.8h-0.9v-3.6a1.64,1.64,0,0,0-1.7-1.9,1.84,1.84,0,0,0-1.9,1.9v3.5h-0.9v-8.6h0Z" transform="translate(-8.1 -252.7)"/><path class="cls-4" d="M247.3,527.5h0c0-1.3,1.1-2,2.7-2a5,5,0,0,1,1.9.3v-0.2a1.61,1.61,0,0,0-1.8-1.7,4.14,4.14,0,0,0-1.9.5l-0.3-.8a5.56,5.56,0,0,1,2.3-.5,2.58,2.58,0,0,1,2,.7,2.44,2.44,0,0,1,.6,1.8v3.8h-0.9v-0.9a2.64,2.64,0,0,1-2.2,1.1C248.4,529.4,247.3,528.8,247.3,527.5Zm4.5-.5v-0.6a8.42,8.42,0,0,0-1.8-.3c-1.2,0-1.8.5-1.8,1.3h0a1.35,1.35,0,0,0,1.6,1.2A1.7,1.7,0,0,0,251.8,527Z" transform="translate(-8.1 -252.7)"/><path class="cls-4" d="M258.2,530.4l0.4-.7a4.07,4.07,0,0,0,2.4.8,2.08,2.08,0,0,0,2.3-2.2v-0.7a2.92,2.92,0,0,1-2.4,1.3A2.84,2.84,0,0,1,258,526h0a2.84,2.84,0,0,1,2.9-2.9,3,3,0,0,1,2.4,1.2v-1.1h0.9v5.1a3,3,0,0,1-.8,2.2,3.19,3.19,0,0,1-2.4.8A5.47,5.47,0,0,1,258.2,530.4Zm5.1-4.5h0a2.16,2.16,0,0,0-2.3-2.1,2,2,0,0,0-2.1,2.1h0A2.11,2.11,0,0,0,261,528,2.16,2.16,0,0,0,263.3,525.9Z" transform="translate(-8.1 -252.7)"/><path class="cls-4" d="M265.9,526.2h0a3.24,3.24,0,0,1,3.2-3.3,3.16,3.16,0,0,1,3.2,3.2h0a3.18,3.18,0,0,1-3.3,3.2A2.94,2.94,0,0,1,265.9,526.2Zm5.5,0h0a2.29,2.29,0,0,0-2.3-2.4,2.35,2.35,0,0,0-2.3,2.4h0a2.35,2.35,0,0,0,2.3,2.4A2.29,2.29,0,0,0,271.4,526.2Z" transform="translate(-8.1 -252.7)"/><path class="cls-4" d="M273.5,527.5h0c0-1.3,1.1-2,2.7-2a5,5,0,0,1,1.9.3v-0.2a1.61,1.61,0,0,0-1.8-1.7,4.14,4.14,0,0,0-1.9.5l-0.3-.8a5.56,5.56,0,0,1,2.3-.5,2.58,2.58,0,0,1,2,.7,2.44,2.44,0,0,1,.6,1.8v3.8h-0.9v-0.9a2.64,2.64,0,0,1-2.2,1.1C274.7,529.4,273.5,528.8,273.5,527.5Zm4.6-.5v-0.6a8.42,8.42,0,0,0-1.8-.3c-1.2,0-1.8.5-1.8,1.3h0a1.35,1.35,0,0,0,1.6,1.2A1.7,1.7,0,0,0,278.1,527Z" transform="translate(-8.1 -252.7)"/><path class="cls-4" d="M281,520.5h0.9v8.8H281v-8.8Z" transform="translate(-8.1 -252.7)"/><path class="cls-4" d="M288.1,523.9h-0.9v-0.8h0.9v-0.5a2.54,2.54,0,0,1,.5-1.6,1.9,1.9,0,0,1,1.3-.5,1.64,1.64,0,0,1,1,.2v0.8a2.92,2.92,0,0,0-.9-0.2,1.07,1.07,0,0,0-1.1,1.3v0.5h2v0.8h-2v5.4H288v-5.4h0.1Z" transform="translate(-8.1 -252.7)"/><path class="cls-4" d="M291.6,526.2h0a3.24,3.24,0,0,1,3.2-3.3,3.16,3.16,0,0,1,3.2,3.2h0a3.16,3.16,0,0,1-3.2,3.2A3,3,0,0,1,291.6,526.2Zm5.5,0h0a2.29,2.29,0,0,0-2.3-2.4,2.35,2.35,0,0,0-2.3,2.4h0a2.35,2.35,0,0,0,2.3,2.4A2.29,2.29,0,0,0,297.1,526.2Z" transform="translate(-8.1 -252.7)"/><path class="cls-4" d="M299.7,523.1h0.9v1.6a2.68,2.68,0,0,1,2.5-1.7v1H303a2.51,2.51,0,0,0-2.5,2.8v2.5h-0.9v-6.2h0.1Z" transform="translate(-8.1 -252.7)"/><path class="cls-4" d="M308.2,523.1h0.9v1.6a2.68,2.68,0,0,1,2.5-1.7v1h-0.1a2.51,2.51,0,0,0-2.5,2.8v2.5h-0.9v-6.2h0.1Z" transform="translate(-8.1 -252.7)"/><path class="cls-4" d="M312.4,526.2h0a3.06,3.06,0,0,1,3-3.2,3,3,0,0,1,2.9,3.3v0.3h-4.9a2.19,2.19,0,0,0,2.2,2.1,2.38,2.38,0,0,0,2-.9l0.6,0.5A3.27,3.27,0,0,1,312.4,526.2Zm4.9-.3a2,2,0,0,0-2-2.1,2.09,2.09,0,0,0-2,2.1h4Z" transform="translate(-8.1 -252.7)"/><path class="cls-4" d="M319.5,526.2h0a3,3,0,0,1,3-3.2,2.78,2.78,0,0,1,2.4,1.3v-3.7h0.9v8.8h-0.9v-1.2a2.86,2.86,0,0,1-2.4,1.4A3.31,3.31,0,0,1,319.5,526.2Zm5.4,0h0a2.27,2.27,0,0,0-2.2-2.4,2.21,2.21,0,0,0-2.2,2.4h0a2.21,2.21,0,0,0,2.2,2.4A2.33,2.33,0,0,0,324.9,526.2Z" transform="translate(-8.1 -252.7)"/><path class="cls-4" d="M327.8,526.9v-3.8h0.9v3.6a1.64,1.64,0,0,0,1.7,1.9,1.84,1.84,0,0,0,1.9-1.9v-3.5h0.9v6.2h-0.9v-1.1a2.32,2.32,0,0,1-2.1,1.2A2.36,2.36,0,0,1,327.8,526.9Z" transform="translate(-8.1 -252.7)"/><path class="cls-4" d="M334.9,526.2h0a3.26,3.26,0,0,1,5.7-2.2l-0.6.6a2.48,2.48,0,0,0-1.9-.9,2.27,2.27,0,0,0-2.2,2.4h0a2.35,2.35,0,0,0,2.3,2.4,2.65,2.65,0,0,0,1.9-.9l0.6,0.6a3.18,3.18,0,0,1-2.5,1.2A3.13,3.13,0,0,1,334.9,526.2Z" transform="translate(-8.1 -252.7)"/><path class="cls-4" d="M342.1,520.7h1.1v1h-1.1v-1Zm0.1,2.4h0.9v6.2h-0.9v-6.2Z" transform="translate(-8.1 -252.7)"/><path class="cls-4" d="M345.3,523.1h0.9v1.1a2.32,2.32,0,0,1,2.1-1.2,2.29,2.29,0,0,1,2.4,2.5v3.8h-0.9v-3.6a1.64,1.64,0,0,0-1.7-1.9,1.84,1.84,0,0,0-1.9,1.9v3.5h-0.9v-6.1Z" transform="translate(-8.1 -252.7)"/><path class="cls-4" d="M352.6,530.4l0.4-.7a4.07,4.07,0,0,0,2.4.8,2.08,2.08,0,0,0,2.3-2.2v-0.7a2.92,2.92,0,0,1-2.4,1.3,2.84,2.84,0,0,1-2.9-2.9h0a2.84,2.84,0,0,1,2.9-2.9,3,3,0,0,1,2.4,1.2v-1.1h0.9v5.1a3,3,0,0,1-.8,2.2,3.19,3.19,0,0,1-2.4.8A5.47,5.47,0,0,1,352.6,530.4Zm5.1-4.5h0a2.16,2.16,0,0,0-2.3-2.1,2,2,0,0,0-2.1,2.1h0a2.11,2.11,0,0,0,2.1,2.1A2.16,2.16,0,0,0,357.7,525.9Z" transform="translate(-8.1 -252.7)"/><path class="cls-4" d="M218.1,540.6h0a3,3,0,0,1,3-3.2,2.78,2.78,0,0,1,2.4,1.3V535h0.9v8.8h-0.9v-1.2a2.86,2.86,0,0,1-2.4,1.4A3.24,3.24,0,0,1,218.1,540.6Zm5.3,0h0a2.27,2.27,0,0,0-2.2-2.4,2.21,2.21,0,0,0-2.2,2.4h0a2.21,2.21,0,0,0,2.2,2.4A2.33,2.33,0,0,0,223.4,540.6Z" transform="translate(-8.1 -252.7)"/><path class="cls-4" d="M226,540.6h0a3.24,3.24,0,0,1,3.2-3.3,3.16,3.16,0,0,1,3.2,3.2h0a3.18,3.18,0,0,1-3.3,3.2A2.94,2.94,0,0,1,226,540.6Zm5.5,0h0a2.29,2.29,0,0,0-2.3-2.4,2.35,2.35,0,0,0-2.3,2.4h0a2.35,2.35,0,0,0,2.3,2.4A2.29,2.29,0,0,0,231.5,540.6Z" transform="translate(-8.1 -252.7)"/><path class="cls-4" d="M233.3,537.5h1l1.6,5,1.7-5h0.8l1.7,5,1.6-5h1l-2.2,6.2h-0.8l-1.7-4.9-1.7,4.9h-0.8Z" transform="translate(-8.1 -252.7)"/><path class="cls-4" d="M244.2,537.5h0.9v1.1a2.32,2.32,0,0,1,2.1-1.2,2.29,2.29,0,0,1,2.4,2.5v3.8h-0.9v-3.6a1.64,1.64,0,0,0-1.7-1.9,1.84,1.84,0,0,0-1.9,1.9v3.5h-0.9v-6.1h0Z" transform="translate(-8.1 -252.7)"/><path class="cls-4" d="M251,542.9l0.5-.7a3.68,3.68,0,0,0,2.1.8,1.16,1.16,0,0,0,1.3-1h0c0-.6-0.7-0.9-1.5-1.1-1-.3-2.1-0.6-2.1-1.8h0a1.88,1.88,0,0,1,2.1-1.8,4.1,4.1,0,0,1,2.2.7l-0.4.7a3.23,3.23,0,0,0-1.8-.6,1.06,1.06,0,0,0-1.2.9h0c0,0.6.8,0.8,1.6,1.1,1,0.3,2,.7,2,1.8h0a2,2,0,0,1-2.2,1.9A4.11,4.11,0,0,1,251,542.9Z" transform="translate(-8.1 -252.7)"/><path class="cls-4" d="M257.5,535.1h1.1v1h-1.1v-1Zm0.1,2.4h0.9v6.2h-0.9v-6.2Z" transform="translate(-8.1 -252.7)"/><path class="cls-4" d="M260.3,540.6h0a3,3,0,0,1,3-3.2,2.78,2.78,0,0,1,2.4,1.3V535h0.9v8.8h-0.9v-1.2a2.86,2.86,0,0,1-2.4,1.4A3.31,3.31,0,0,1,260.3,540.6Zm5.4,0h0a2.27,2.27,0,0,0-2.2-2.4,2.21,2.21,0,0,0-2.2,2.4h0a2.21,2.21,0,0,0,2.2,2.4A2.33,2.33,0,0,0,265.7,540.6Z" transform="translate(-8.1 -252.7)"/><path class="cls-4" d="M268.3,540.6h0a3.06,3.06,0,0,1,3-3.2,3,3,0,0,1,2.9,3.3V541h-4.9a2.19,2.19,0,0,0,2.2,2.1,2.38,2.38,0,0,0,2-.9l0.6,0.5A3.27,3.27,0,0,1,268.3,540.6Zm4.9-.3a2,2,0,0,0-2-2.1,2.09,2.09,0,0,0-2,2.1h4Z" transform="translate(-8.1 -252.7)"/><path class="cls-4" d="M279.4,537.5h0.9v1.6a2.68,2.68,0,0,1,2.5-1.7v1h-0.1a2.51,2.51,0,0,0-2.5,2.8v2.5h-0.9v-6.2h0.1Z" transform="translate(-8.1 -252.7)"/><path class="cls-4" d="M284.2,535.1h1.1v1h-1.1v-1Zm0.1,2.4h0.9v6.2h-0.9v-6.2Z" transform="translate(-8.1 -252.7)"/><path class="cls-4" d="M286.9,542.9l0.5-.7a3.68,3.68,0,0,0,2.1.8,1.16,1.16,0,0,0,1.3-1h0c0-.6-0.7-0.9-1.5-1.1-1-.3-2.1-0.6-2.1-1.8h0a1.88,1.88,0,0,1,2.1-1.8,4.1,4.1,0,0,1,2.2.7l-0.4.7a3.23,3.23,0,0,0-1.8-.6,1.06,1.06,0,0,0-1.2.9h0c0,0.6.8,0.8,1.6,1.1,1,0.3,2,.7,2,1.8h0a2,2,0,0,1-2.2,1.9A3.74,3.74,0,0,1,286.9,542.9Z" transform="translate(-8.1 -252.7)"/><path class="cls-4" d="M293.3,535h0.9v6l3.3-3.5h1.2l-2.6,2.7,2.7,3.5h-1.1l-2.2-2.9-1.3,1.3v1.6h-0.9V535Z" transform="translate(-8.1 -252.7)"/><path class="cls-4" d="M303.2,537.5h1l1.6,5,1.7-5h0.8l1.7,5,1.6-5h1l-2.2,6.2h-0.8l-1.7-4.9-1.7,4.9h-0.8Z" transform="translate(-8.1 -252.7)"/><path class="cls-4" d="M314.1,535H315v3.6a2.32,2.32,0,0,1,2.1-1.2,2.29,2.29,0,0,1,2.4,2.5v3.8h-0.9v-3.6a1.64,1.64,0,0,0-1.7-1.9,1.84,1.84,0,0,0-1.9,1.9v3.5h-0.9V535Z" transform="translate(-8.1 -252.7)"/><path class="cls-4" d="M321.1,540.6h0a3.06,3.06,0,0,1,3-3.2,3,3,0,0,1,2.9,3.3V541h-5a2.19,2.19,0,0,0,2.2,2.1,2.38,2.38,0,0,0,2-.9l0.6,0.5A3.2,3.2,0,0,1,321.1,540.6Zm4.9-.3a2,2,0,0,0-2-2.1,2.09,2.09,0,0,0-2,2.1h4Z" transform="translate(-8.1 -252.7)"/><path class="cls-4" d="M328.6,537.5h0.9v1.1a2.32,2.32,0,0,1,2.1-1.2,2.29,2.29,0,0,1,2.4,2.5v3.8h-0.9v-3.6a1.64,1.64,0,0,0-1.7-1.9,1.84,1.84,0,0,0-1.9,1.9v3.5h-0.9v-6.1Z" transform="translate(-8.1 -252.7)"/><path class="cls-4" d="M218.4,551.9h0.9V553a2.32,2.32,0,0,1,2.1-1.2,2.29,2.29,0,0,1,2.4,2.5v3.8h-0.9v-3.6a1.64,1.64,0,0,0-1.7-1.9,1.84,1.84,0,0,0-1.9,1.9V558h-0.9v-6.1h0Z" transform="translate(-8.1 -252.7)"/><path class="cls-4" d="M225.4,555h0a3.06,3.06,0,0,1,3-3.2,3,3,0,0,1,2.9,3.3v0.3h-4.9a2.19,2.19,0,0,0,2.2,2.1,2.38,2.38,0,0,0,2-.9l0.6,0.5A3.27,3.27,0,0,1,225.4,555Zm4.9-.4a2,2,0,0,0-2-2.1,2.09,2.09,0,0,0-2,2.1h4Z" transform="translate(-8.1 -252.7)"/><path class="cls-4" d="M232.5,555h0a3.06,3.06,0,0,1,3-3.2,3,3,0,0,1,2.9,3.3v0.3h-4.9a2.19,2.19,0,0,0,2.2,2.1,2.38,2.38,0,0,0,2-.9l0.6,0.5A3.27,3.27,0,0,1,232.5,555Zm4.9-.4a2,2,0,0,0-2-2.1,2.09,2.09,0,0,0-2,2.1h4Z" transform="translate(-8.1 -252.7)"/><path class="cls-4" d="M239.6,555h0a3,3,0,0,1,3-3.2,2.78,2.78,0,0,1,2.4,1.3v-3.7h0.9v8.8H245V557a2.86,2.86,0,0,1-2.4,1.4A3.39,3.39,0,0,1,239.6,555Zm5.4,0h0a2.27,2.27,0,0,0-2.2-2.4,2.21,2.21,0,0,0-2.2,2.4h0a2.21,2.21,0,0,0,2.2,2.4A2.33,2.33,0,0,0,245,555Z" transform="translate(-8.1 -252.7)"/><path class="cls-4" d="M247.5,555h0a3.06,3.06,0,0,1,3-3.2,3,3,0,0,1,2.9,3.3v0.3h-4.9a2.19,2.19,0,0,0,2.2,2.1,2.38,2.38,0,0,0,2-.9l0.6,0.5A3.27,3.27,0,0,1,247.5,555Zm5-.4a2,2,0,0,0-2-2.1,2.09,2.09,0,0,0-2,2.1h4Z" transform="translate(-8.1 -252.7)"/><path class="cls-4" d="M254.7,555h0a3,3,0,0,1,3-3.2,2.78,2.78,0,0,1,2.4,1.3v-3.7H261v8.8h-1V557a2.86,2.86,0,0,1-2.4,1.4A3.31,3.31,0,0,1,254.7,555Zm5.3,0h0a2.27,2.27,0,0,0-2.2-2.4,2.21,2.21,0,0,0-2.2,2.4h0a2.21,2.21,0,0,0,2.2,2.4A2.33,2.33,0,0,0,260,555Z" transform="translate(-8.1 -252.7)"/><path class="cls-4" d="M266.6,551.9h0.9v1a2.35,2.35,0,0,1,2-1.2,2.06,2.06,0,0,1,2,1.2,2.37,2.37,0,0,1,2.2-1.2,2.26,2.26,0,0,1,2.3,2.5V558h-1v-3.6a1.62,1.62,0,0,0-1.6-1.9,1.74,1.74,0,0,0-1.7,1.9V558h-0.9v-3.6a1.54,1.54,0,0,0-1.6-1.8,1.77,1.77,0,0,0-1.7,2v3.5h-0.9v-6.2h0Z" transform="translate(-8.1 -252.7)"/><path class="cls-4" d="M277.6,555h0a3.24,3.24,0,0,1,3.2-3.3,3.16,3.16,0,0,1,3.2,3.2h0a3.18,3.18,0,0,1-3.3,3.2A2.94,2.94,0,0,1,277.6,555Zm5.5,0h0a2.29,2.29,0,0,0-2.3-2.4,2.35,2.35,0,0,0-2.3,2.4h0a2.35,2.35,0,0,0,2.3,2.4A2.29,2.29,0,0,0,283.1,555Z" transform="translate(-8.1 -252.7)"/><path class="cls-4" d="M285.2,557.3l0.5-.7a3.68,3.68,0,0,0,2.1.8,1.16,1.16,0,0,0,1.3-1h0c0-.6-0.7-0.9-1.5-1.1-1-.3-2.1-0.6-2.1-1.8h0a1.88,1.88,0,0,1,2.1-1.8,4.1,4.1,0,0,1,2.2.7l-0.4.7a3.23,3.23,0,0,0-1.8-.6,1.06,1.06,0,0,0-1.2.9h0c0,0.6.8,0.8,1.6,1.1,1,0.3,2,.7,2,1.8h0a2,2,0,0,1-2.2,1.9A4.11,4.11,0,0,1,285.2,557.3Z" transform="translate(-8.1 -252.7)"/><path class="cls-4" d="M292,556.4v-3.7h-0.9v-0.8H292V550h0.9v1.9h2v0.8h-2v3.6a0.86,0.86,0,0,0,1,1,2.92,2.92,0,0,0,.9-0.2v0.8a2,2,0,0,1-1.1.3A1.56,1.56,0,0,1,292,556.4Z" transform="translate(-8.1 -252.7)"/><path class="cls-4" d="M441.4,490.2h3.8a5.16,5.16,0,0,1,5.5,5.1h0c0,2.9-2.2,5.1-5.5,5.1h-3.8V490.2Zm1.8,1.7v7h2a3.39,3.39,0,0,0,3.6-3.5h0a3.39,3.39,0,0,0-3.6-3.5h-2Z" transform="translate(-8.1 -252.7)"/><path class="cls-4" d="M452.7,489.9h1.9v1.7h-1.9v-1.7Zm0.1,2.8h1.8v7.8h-1.8v-7.8Z" transform="translate(-8.1 -252.7)"/><path class="cls-4" d="M456.3,499.5l0.8-1.2a5,5,0,0,0,2.5,1c0.8,0,1.2-.3,1.2-0.8h0c0-.6-0.8-0.8-1.7-1.1-1.1-.3-2.4-0.8-2.4-2.3h0c0-1.5,1.2-2.4,2.8-2.4a5.21,5.21,0,0,1,2.9.9l-0.7,1.3a4,4,0,0,0-2.2-.7,0.9,0.9,0,0,0-1.1.8h0c0,0.6.8,0.8,1.8,1.1s2.4,0.9,2.4,2.3h0c0,1.6-1.3,2.4-2.9,2.4A7.11,7.11,0,0,1,456.3,499.5Z" transform="translate(-8.1 -252.7)"/><path class="cls-4" d="M464.7,498.4v-4.1h-1v-1.5h1v-2.1h1.8v2.1h2.1v1.5h-2.1v3.8a0.9,0.9,0,0,0,1,1,2,2,0,0,0,1.1-.3v1.5a3.41,3.41,0,0,1-1.6.4C465.6,500.6,464.7,500.1,464.7,498.4Z" transform="translate(-8.1 -252.7)"/><path class="cls-4" d="M470.3,492.7h1.8v1.8a2.71,2.71,0,0,1,2.8-1.9v1.9h-0.1c-1.6,0-2.6,1-2.6,3.1v3h-1.8v-7.9h-0.1Z" transform="translate(-8.1 -252.7)"/><path class="cls-4" d="M476.4,489.9h1.9v1.7h-1.9v-1.7Zm0.1,2.8h1.8v7.8h-1.8v-7.8Z" transform="translate(-8.1 -252.7)"/><path class="cls-4" d="M482.4,499.3v1.2h-1.8V489.8h1.8v4.3a3.21,3.21,0,0,1,2.6-1.5,3.69,3.69,0,0,1,3.6,4h0a3.69,3.69,0,0,1-3.6,4A3,3,0,0,1,482.4,499.3Zm4.4-2.7h0a2.3,2.3,0,0,0-2.2-2.5,2.38,2.38,0,0,0-2.3,2.5h0a2.38,2.38,0,0,0,2.3,2.5A2.24,2.24,0,0,0,486.8,496.6Z" transform="translate(-8.1 -252.7)"/><path class="cls-4" d="M490.4,497.7v-4.9h1.8v4.4a1.64,1.64,0,0,0,1.7,1.9,1.76,1.76,0,0,0,1.8-1.9v-4.4h1.8v7.8h-1.8v-1.2A2.85,2.85,0,0,1,490.4,497.7Z" transform="translate(-8.1 -252.7)"/><path class="cls-4" d="M500,498.4v-4.1h-1v-1.5h1v-2.1h1.8v2.1h2.1v1.5h-2.1v3.8a0.9,0.9,0,0,0,1,1,2,2,0,0,0,1.1-.3v1.5a3.41,3.41,0,0,1-1.6.4C500.9,500.6,500,500.1,500,498.4Z" transform="translate(-8.1 -252.7)"/><path class="cls-4" d="M505.7,489.9h1.9v1.7h-1.9v-1.7Zm0.1,2.8h1.8v7.8h-1.8v-7.8Z" transform="translate(-8.1 -252.7)"/><path class="cls-4" d="M509.5,496.7h0a4.06,4.06,0,0,1,4.1-4.1,4,4,0,0,1,4.1,4h0a4.06,4.06,0,0,1-4.2,4A3.81,3.81,0,0,1,509.5,496.7Zm6.5,0h0a2.39,2.39,0,0,0-2.4-2.5,2.31,2.31,0,0,0-2.3,2.5h0a2.39,2.39,0,0,0,2.4,2.5A2.51,2.51,0,0,0,516,496.7Z" transform="translate(-8.1 -252.7)"/><path class="cls-4" d="M519.5,492.7h1.8v1.2a2.86,2.86,0,0,1,2.4-1.4,2.68,2.68,0,0,1,2.8,3v5h-1.8v-4.4a1.64,1.64,0,0,0-1.7-1.9,1.76,1.76,0,0,0-1.8,1.9v4.4h-1.8v-7.8h0.1Z" transform="translate(-8.1 -252.7)"/><path class="cls-4" d="M440.7,513.7l0.6-.7a4,4,0,0,0,2.9,1.2,1.66,1.66,0,0,0,1.9-1.4h0c0-.8-0.4-1.2-2.2-1.6s-2.8-1-2.8-2.4h0a2.53,2.53,0,0,1,2.8-2.3,4.53,4.53,0,0,1,3,1l-0.6.7a4,4,0,0,0-2.4-.9,1.56,1.56,0,0,0-1.8,1.4h0c0,0.8.4,1.2,2.3,1.6s2.7,1.1,2.7,2.4h0c0,1.4-1.2,2.4-2.9,2.4A5.48,5.48,0,0,1,440.7,513.7Z" transform="translate(-8.1 -252.7)"/><path class="cls-4" d="M448.8,508.7h0.9v1.2a2.86,2.86,0,0,1,2.4-1.4,3.06,3.06,0,0,1,3,3.2h0a3.06,3.06,0,0,1-3,3.2,2.78,2.78,0,0,1-2.4-1.3v3.1h-0.9v-8Zm5.3,3.1h0a2.21,2.21,0,0,0-2.2-2.4,2.27,2.27,0,0,0-2.2,2.4h0a2.33,2.33,0,0,0,2.2,2.4A2.21,2.21,0,0,0,454.1,511.8Z" transform="translate(-8.1 -252.7)"/><path class="cls-4" d="M456.4,511.8h0a3.06,3.06,0,0,1,3-3.2,3,3,0,0,1,2.9,3.3v0.3h-4.9a2.19,2.19,0,0,0,2.2,2.1,2.38,2.38,0,0,0,2-.9l0.6,0.5A3.27,3.27,0,0,1,456.4,511.8Zm4.9-.3a2,2,0,0,0-2-2.1,2.09,2.09,0,0,0-2,2.1h4Z" transform="translate(-8.1 -252.7)"/><path class="cls-4" d="M463.8,508.7h0.9v1.1a2.32,2.32,0,0,1,2.1-1.2,2.29,2.29,0,0,1,2.4,2.5v3.8h-0.9v-3.6a1.64,1.64,0,0,0-1.7-1.9,1.84,1.84,0,0,0-1.9,1.9v3.5h-0.9v-6.1Z" transform="translate(-8.1 -252.7)"/><path class="cls-4" d="M470.9,511.8h0a3,3,0,0,1,3-3.2,2.78,2.78,0,0,1,2.4,1.3v-3.7h0.9V515h-0.9v-1.2a2.86,2.86,0,0,1-2.4,1.4A3.31,3.31,0,0,1,470.9,511.8Zm5.3,0h0a2.27,2.27,0,0,0-2.2-2.4,2.21,2.21,0,0,0-2.2,2.4h0a2.21,2.21,0,0,0,2.2,2.4A2.33,2.33,0,0,0,476.2,511.8Z" transform="translate(-8.1 -252.7)"/><path class="cls-4" d="M479.2,506.3h1.1v1h-1.1v-1Zm0.1,2.4h0.9v6.2h-0.9v-6.2Z" transform="translate(-8.1 -252.7)"/><path class="cls-4" d="M482.3,508.7h0.9v1.1a2.32,2.32,0,0,1,2.1-1.2,2.29,2.29,0,0,1,2.4,2.5v3.8h-0.9v-3.6a1.64,1.64,0,0,0-1.7-1.9,1.84,1.84,0,0,0-1.9,1.9v3.5h-0.9v-6.1Z" transform="translate(-8.1 -252.7)"/><path class="cls-4" d="M489.6,516l0.4-.7a4.07,4.07,0,0,0,2.4.8,2.08,2.08,0,0,0,2.3-2.2v-0.7a2.92,2.92,0,0,1-2.4,1.3,2.84,2.84,0,0,1-2.9-2.9h0a2.84,2.84,0,0,1,2.9-2.9,3,3,0,0,1,2.4,1.2v-1.1h0.9v5.1a3,3,0,0,1-.8,2.2,3.19,3.19,0,0,1-2.4.8A7.08,7.08,0,0,1,489.6,516Zm5.1-4.5h0a2.16,2.16,0,0,0-2.3-2.1,2,2,0,0,0-2.1,2.1h0a2.11,2.11,0,0,0,2.1,2.1A2.22,2.22,0,0,0,494.7,511.5Z" transform="translate(-8.1 -252.7)"/><path class="cls-4" d="M500.7,514.1l0.5-.7a3.68,3.68,0,0,0,2.1.8,1.16,1.16,0,0,0,1.3-1h0c0-.6-0.7-0.9-1.5-1.1-1-.3-2.1-0.6-2.1-1.8h0a1.88,1.88,0,0,1,2.1-1.8,4.1,4.1,0,0,1,2.2.7l-0.4.7a3.23,3.23,0,0,0-1.8-.6,1.06,1.06,0,0,0-1.2.9h0c0,0.6.8,0.8,1.6,1.1,1,0.3,2,.7,2,1.8h0a2,2,0,0,1-2.2,1.9A4.11,4.11,0,0,1,500.7,514.1Z" transform="translate(-8.1 -252.7)"/><path class="cls-4" d="M507.5,513.2v-3.7h-0.9v-0.8h0.9v-1.9h0.9v1.9h2v0.8h-2v3.6a0.86,0.86,0,0,0,1,1,2.92,2.92,0,0,0,.9-0.2v0.8a2,2,0,0,1-1.1.3A1.6,1.6,0,0,1,507.5,513.2Z" transform="translate(-8.1 -252.7)"/><path class="cls-4" d="M512.1,508.7H513v1.6a2.68,2.68,0,0,1,2.5-1.7v1h-0.1a2.51,2.51,0,0,0-2.5,2.8v2.5H512v-6.2h0.1Z" transform="translate(-8.1 -252.7)"/><path class="cls-4" d="M516.1,513.1h0c0-1.3,1.1-2,2.7-2a5,5,0,0,1,1.9.3v-0.2a1.61,1.61,0,0,0-1.8-1.7,4.14,4.14,0,0,0-1.9.5l-0.3-.8a5.56,5.56,0,0,1,2.3-.5,2.58,2.58,0,0,1,2,.7,2.44,2.44,0,0,1,.6,1.8V515h-0.9v-1a2.64,2.64,0,0,1-2.2,1.1C517.3,515,516.1,514.4,516.1,513.1Zm4.6-.5V512a8.42,8.42,0,0,0-1.8-.3c-1.2,0-1.8.5-1.8,1.3h0a1.35,1.35,0,0,0,1.6,1.2A1.7,1.7,0,0,0,520.7,512.6Z" transform="translate(-8.1 -252.7)"/><path class="cls-4" d="M523.8,513.2v-3.7H523v-0.8h0.9v-1.9h0.9v1.9h2v0.8h-2v3.6a0.86,0.86,0,0,0,1,1,2.92,2.92,0,0,0,.9-0.2v0.8a2,2,0,0,1-1.1.3A1.63,1.63,0,0,1,523.8,513.2Z" transform="translate(-8.1 -252.7)"/><path class="cls-4" d="M527.8,511.8h0a3.06,3.06,0,0,1,3-3.2,3,3,0,0,1,2.9,3.3v0.3h-4.9a2.19,2.19,0,0,0,2.2,2.1,2.38,2.38,0,0,0,2-.9l0.6,0.5A3.27,3.27,0,0,1,527.8,511.8Zm4.9-.3a2,2,0,0,0-2-2.1,2.09,2.09,0,0,0-2,2.1h4Z" transform="translate(-8.1 -252.7)"/><path class="cls-4" d="M535.2,516l0.4-.7a4.07,4.07,0,0,0,2.4.8,2.08,2.08,0,0,0,2.3-2.2v-0.7a2.92,2.92,0,0,1-2.4,1.3,2.84,2.84,0,0,1-2.9-2.9h0a2.84,2.84,0,0,1,2.9-2.9,3,3,0,0,1,2.4,1.2v-1.1h0.9v5.1a3,3,0,0,1-.8,2.2,3.19,3.19,0,0,1-2.4.8A6.6,6.6,0,0,1,535.2,516Zm5.1-4.5h0a2.16,2.16,0,0,0-2.3-2.1,2,2,0,0,0-2.1,2.1h0a2.11,2.11,0,0,0,2.1,2.1A2.22,2.22,0,0,0,540.3,511.5Z" transform="translate(-8.1 -252.7)"/><path class="cls-4" d="M547.9,508.7h1l-2.6,6.4c-0.5,1.3-1.1,1.8-2.1,1.8a2.77,2.77,0,0,1-1.3-.3l0.3-.7a1.64,1.64,0,0,0,1,.2c0.6,0,.9-0.3,1.3-1.2l-2.8-6.2h1l2.3,5.2Z" transform="translate(-8.1 -252.7)"/><path class="cls-4" d="M440.8,526.2h0a3,3,0,0,1,3-3.2,2.78,2.78,0,0,1,2.4,1.3v-3.7h0.9v8.8h-0.9v-1.2a2.86,2.86,0,0,1-2.4,1.4A3.24,3.24,0,0,1,440.8,526.2Zm5.3,0h0a2.27,2.27,0,0,0-2.2-2.4,2.21,2.21,0,0,0-2.2,2.4h0a2.21,2.21,0,0,0,2.2,2.4A2.33,2.33,0,0,0,446.1,526.2Z" transform="translate(-8.1 -252.7)"/><path class="cls-4" d="M448.7,526.2h0a3.06,3.06,0,0,1,3-3.2,3,3,0,0,1,2.9,3.3v0.3h-4.9a2.19,2.19,0,0,0,2.2,2.1,2.38,2.38,0,0,0,2-.9l0.6,0.5A3.27,3.27,0,0,1,448.7,526.2Zm4.9-.3a2,2,0,0,0-2-2.1,2.09,2.09,0,0,0-2,2.1h4Z" transform="translate(-8.1 -252.7)"/><path class="cls-4" d="M455.7,528.5l0.5-.7a3.68,3.68,0,0,0,2.1.8,1.16,1.16,0,0,0,1.3-1h0c0-.6-0.7-0.9-1.5-1.1-1-.3-2.1-0.6-2.1-1.8h0a1.88,1.88,0,0,1,2.1-1.8,4.1,4.1,0,0,1,2.2.7l-0.4.7a3.23,3.23,0,0,0-1.8-.6,1.06,1.06,0,0,0-1.2.9h0c0,0.6.8,0.8,1.6,1.1,1,0.3,2,.7,2,1.8h0a2,2,0,0,1-2.2,1.9A4.11,4.11,0,0,1,455.7,528.5Z" transform="translate(-8.1 -252.7)"/><path class="cls-4" d="M462.2,520.7h1.1v1h-1.1v-1Zm0.1,2.4h0.9v6.2h-0.9v-6.2Z" transform="translate(-8.1 -252.7)"/><path class="cls-4" d="M465.3,530.4l0.4-.7a4.07,4.07,0,0,0,2.4.8,2.08,2.08,0,0,0,2.3-2.2v-0.7a2.92,2.92,0,0,1-2.4,1.3,2.84,2.84,0,0,1-2.9-2.9h0a2.84,2.84,0,0,1,2.9-2.9,3,3,0,0,1,2.4,1.2v-1.1h0.9v5.1a3,3,0,0,1-.8,2.2,3.19,3.19,0,0,1-2.4.8A5.18,5.18,0,0,1,465.3,530.4Zm5-4.5h0a2.16,2.16,0,0,0-2.3-2.1,2,2,0,0,0-2.1,2.1h0A2.11,2.11,0,0,0,468,528,2.16,2.16,0,0,0,470.3,525.9Z" transform="translate(-8.1 -252.7)"/><path class="cls-4" d="M473.3,523.1h0.9v1.1a2.32,2.32,0,0,1,2.1-1.2,2.29,2.29,0,0,1,2.4,2.5v3.8h-0.9v-3.6a1.64,1.64,0,0,0-1.7-1.9,1.84,1.84,0,0,0-1.9,1.9v3.5h-0.9v-6.1Z" transform="translate(-8.1 -252.7)"/><path class="cls-4" d="M480.3,526.2h0a3.06,3.06,0,0,1,3-3.2,3,3,0,0,1,2.9,3.3v0.3h-4.9a2.19,2.19,0,0,0,2.2,2.1,2.38,2.38,0,0,0,2-.9l0.6,0.5A3.27,3.27,0,0,1,480.3,526.2Zm4.9-.3a2,2,0,0,0-2-2.1,2.09,2.09,0,0,0-2,2.1h4Z" transform="translate(-8.1 -252.7)"/><path class="cls-4" d="M487.4,526.2h0a3,3,0,0,1,3-3.2,2.78,2.78,0,0,1,2.4,1.3v-3.7h0.9v8.8h-0.9v-1.2a2.86,2.86,0,0,1-2.4,1.4A3.31,3.31,0,0,1,487.4,526.2Zm5.4,0h0a2.27,2.27,0,0,0-2.2-2.4,2.21,2.21,0,0,0-2.2,2.4h0a2.21,2.21,0,0,0,2.2,2.4A2.33,2.33,0,0,0,492.8,526.2Z" transform="translate(-8.1 -252.7)"/><path class="cls-4" d="M499.7,527.7V524h-0.9v-0.8h0.9v-1.9h0.9v1.9h2V524h-2v3.6a0.86,0.86,0,0,0,1,1,2.92,2.92,0,0,0,.9-0.2v0.8a2,2,0,0,1-1.1.3A1.66,1.66,0,0,1,499.7,527.7Z" transform="translate(-8.1 -252.7)"/><path class="cls-4" d="M503.6,526.2h0a3.24,3.24,0,0,1,3.2-3.3,3.16,3.16,0,0,1,3.2,3.2h0a3.16,3.16,0,0,1-3.2,3.2A3,3,0,0,1,503.6,526.2Zm5.5,0h0a2.29,2.29,0,0,0-2.3-2.4,2.35,2.35,0,0,0-2.3,2.4h0a2.35,2.35,0,0,0,2.3,2.4A2.29,2.29,0,0,0,509.1,526.2Z" transform="translate(-8.1 -252.7)"/><path class="cls-4" d="M515.4,520.7h1.1v1h-1.1v-1Zm0.1,2.4h0.9v6.2h-0.9v-6.2Z" transform="translate(-8.1 -252.7)"/><path class="cls-4" d="M518.5,523.1h0.9v1.1a2.32,2.32,0,0,1,2.1-1.2,2.29,2.29,0,0,1,2.4,2.5v3.8H523v-3.6a1.64,1.64,0,0,0-1.7-1.9,1.84,1.84,0,0,0-1.9,1.9v3.5h-0.9v-6.1h0Z" transform="translate(-8.1 -252.7)"/><path class="cls-4" d="M525.5,526.2h0a3.26,3.26,0,0,1,5.7-2.2l-0.6.6a2.48,2.48,0,0,0-1.9-.9,2.27,2.27,0,0,0-2.2,2.4h0a2.35,2.35,0,0,0,2.3,2.4,2.65,2.65,0,0,0,1.9-.9l0.6,0.6A3.27,3.27,0,0,1,525.5,526.2Z" transform="translate(-8.1 -252.7)"/><path class="cls-4" d="M532.8,523.1h0.9v1.6a2.68,2.68,0,0,1,2.5-1.7v1h-0.1a2.51,2.51,0,0,0-2.5,2.8v2.5h-0.9v-6.2h0.1Z" transform="translate(-8.1 -252.7)"/><path class="cls-4" d="M537,526.2h0a3.06,3.06,0,0,1,3-3.2,3,3,0,0,1,2.9,3.3v0.3H538a2.19,2.19,0,0,0,2.2,2.1,2.38,2.38,0,0,0,2-.9l0.6,0.5A3.27,3.27,0,0,1,537,526.2Zm4.9-.3a2,2,0,0,0-2-2.1,2.09,2.09,0,0,0-2,2.1h4Z" transform="translate(-8.1 -252.7)"/><path class="cls-4" d="M544,527.5h0c0-1.3,1.1-2,2.7-2a5,5,0,0,1,1.9.3v-0.2a1.61,1.61,0,0,0-1.8-1.7,4.14,4.14,0,0,0-1.9.5l-0.3-.8a5.56,5.56,0,0,1,2.3-.5,2.58,2.58,0,0,1,2,.7,2.44,2.44,0,0,1,.6,1.8v3.8h-0.9v-0.9a2.64,2.64,0,0,1-2.2,1.1C545.2,529.4,544,528.8,544,527.5Zm4.6-.5v-0.6a8.42,8.42,0,0,0-1.8-.3c-1.2,0-1.8.5-1.8,1.3h0a1.35,1.35,0,0,0,1.6,1.2A1.75,1.75,0,0,0,548.6,527Z" transform="translate(-8.1 -252.7)"/><path class="cls-4" d="M550.9,528.5l0.5-.7a3.68,3.68,0,0,0,2.1.8,1.16,1.16,0,0,0,1.3-1h0c0-.6-0.7-0.9-1.5-1.1-1-.3-2.1-0.6-2.1-1.8h0a1.88,1.88,0,0,1,2.1-1.8,4.1,4.1,0,0,1,2.2.7l-0.4.7a3.23,3.23,0,0,0-1.8-.6,1.06,1.06,0,0,0-1.2.9h0c0,0.6.8,0.8,1.6,1.1,1,0.3,2,.7,2,1.8h0a2,2,0,0,1-2.2,1.9A4.11,4.11,0,0,1,550.9,528.5Z" transform="translate(-8.1 -252.7)"/><path class="cls-4" d="M557,526.2h0a3.06,3.06,0,0,1,3-3.2,3,3,0,0,1,2.9,3.3v0.3H558a2.19,2.19,0,0,0,2.2,2.1,2.38,2.38,0,0,0,2-.9l0.6,0.5A3.27,3.27,0,0,1,557,526.2Zm4.9-.3a2,2,0,0,0-2-2.1,2.09,2.09,0,0,0-2,2.1h4Z" transform="translate(-8.1 -252.7)"/><path class="cls-4" d="M441.1,537.5H442v1.2a2.86,2.86,0,0,1,2.4-1.4,3.06,3.06,0,0,1,3,3.2h0a3.06,3.06,0,0,1-3,3.2,2.78,2.78,0,0,1-2.4-1.3v3.1h-0.9v-8Zm5.3,3.1h0a2.21,2.21,0,0,0-2.2-2.4,2.27,2.27,0,0,0-2.2,2.4h0a2.33,2.33,0,0,0,2.2,2.4A2.16,2.16,0,0,0,446.4,540.6Z" transform="translate(-8.1 -252.7)"/><path class="cls-4" d="M448.7,540.6h0a3.24,3.24,0,0,1,3.2-3.3,3.16,3.16,0,0,1,3.2,3.2h0a3.16,3.16,0,0,1-3.2,3.2A3,3,0,0,1,448.7,540.6Zm5.5,0h0a2.29,2.29,0,0,0-2.3-2.4,2.35,2.35,0,0,0-2.3,2.4h0a2.35,2.35,0,0,0,2.3,2.4A2.29,2.29,0,0,0,454.2,540.6Z" transform="translate(-8.1 -252.7)"/><path class="cls-4" d="M456.8,537.5h0.9v1.6a2.68,2.68,0,0,1,2.5-1.7v1h-0.1a2.51,2.51,0,0,0-2.5,2.8v2.5h-0.9v-6.2h0.1Z" transform="translate(-8.1 -252.7)"/><path class="cls-4" d="M462,542.1v-3.7h-0.9v-0.8H462v-1.9h0.9v1.9h2v0.8h-2V542a0.86,0.86,0,0,0,1,1,2.92,2.92,0,0,0,.9-0.2v0.8a2,2,0,0,1-1.1.3A1.71,1.71,0,0,1,462,542.1Z" transform="translate(-8.1 -252.7)"/><path class="cls-4" d="M466.9,538.3H466v-0.8h0.9V537a2.54,2.54,0,0,1,.5-1.6,1.9,1.9,0,0,1,1.3-.5,1.64,1.64,0,0,1,1,.2v0.8a2.92,2.92,0,0,0-.9-0.2,1.07,1.07,0,0,0-1.1,1.3v0.5h2v0.8h-2v5.4h-0.9v-5.4h0.1Z" transform="translate(-8.1 -252.7)"/><path class="cls-4" d="M470.6,540.6h0a3.24,3.24,0,0,1,3.2-3.3,3.16,3.16,0,0,1,3.2,3.2h0a3.16,3.16,0,0,1-3.2,3.2A3,3,0,0,1,470.6,540.6Zm5.5,0h0a2.29,2.29,0,0,0-2.3-2.4,2.35,2.35,0,0,0-2.3,2.4h0a2.35,2.35,0,0,0,2.3,2.4A2.29,2.29,0,0,0,476.1,540.6Z" transform="translate(-8.1 -252.7)"/><path class="cls-4" d="M478.8,535h0.9v8.8h-0.9V535Z" transform="translate(-8.1 -252.7)"/><path class="cls-4" d="M481.9,535.1H483v1h-1.1v-1Zm0,2.4h0.9v6.2h-0.9v-6.2Z" transform="translate(-8.1 -252.7)"/><path class="cls-4" d="M484.6,540.6h0a3.24,3.24,0,0,1,3.2-3.3,3.16,3.16,0,0,1,3.2,3.2h0a3.16,3.16,0,0,1-3.2,3.2A3,3,0,0,1,484.6,540.6Zm5.6,0h0a2.29,2.29,0,0,0-2.3-2.4,2.35,2.35,0,0,0-2.3,2.4h0A2.3,2.3,0,1,0,490.2,540.6Z" transform="translate(-8.1 -252.7)"/><path class="cls-4" d="M495.9,541.9h0c0-1.3,1.1-2,2.7-2a5,5,0,0,1,1.9.3V540a1.61,1.61,0,0,0-1.8-1.7,4.14,4.14,0,0,0-1.9.5l-0.3-.8a5.56,5.56,0,0,1,2.3-.5,2.58,2.58,0,0,1,2,.7,2.44,2.44,0,0,1,.6,1.8v3.8h-0.9v-0.9a2.64,2.64,0,0,1-2.2,1.1C497.1,543.8,495.9,543.2,495.9,541.9Zm4.6-.5v-0.6a8.42,8.42,0,0,0-1.8-.3c-1.2,0-1.8.5-1.8,1.3h0a1.35,1.35,0,0,0,1.6,1.2A1.75,1.75,0,0,0,500.5,541.4Z" transform="translate(-8.1 -252.7)"/><path class="cls-4" d="M502.9,540.6h0a3.26,3.26,0,0,1,5.7-2.2l-0.6.6a2.48,2.48,0,0,0-1.9-.9,2.27,2.27,0,0,0-2.2,2.4h0a2.35,2.35,0,0,0,2.3,2.4,2.65,2.65,0,0,0,1.9-.9l0.6,0.6A3.27,3.27,0,0,1,502.9,540.6Z" transform="translate(-8.1 -252.7)"/><path class="cls-4" d="M509.5,540.6h0a3.26,3.26,0,0,1,5.7-2.2l-0.6.6a2.48,2.48,0,0,0-1.9-.9,2.27,2.27,0,0,0-2.2,2.4h0a2.35,2.35,0,0,0,2.3,2.4,2.65,2.65,0,0,0,1.9-.9l0.6,0.6a3.18,3.18,0,0,1-2.5,1.2A3.13,3.13,0,0,1,509.5,540.6Z" transform="translate(-8.1 -252.7)"/><path class="cls-4" d="M516.6,541.4v-3.8h0.9v3.6a1.64,1.64,0,0,0,1.7,1.9,1.84,1.84,0,0,0,1.9-1.9v-3.5H522v6.2h-0.9v-1.1A2.32,2.32,0,0,1,519,544,2.54,2.54,0,0,1,516.6,541.4Z" transform="translate(-8.1 -252.7)"/><path class="cls-4" d="M524.1,537.5H525v1a2.35,2.35,0,0,1,2-1.2,2.06,2.06,0,0,1,2,1.2,2.37,2.37,0,0,1,2.2-1.2,2.26,2.26,0,0,1,2.3,2.5v3.8h-0.9V540a1.62,1.62,0,0,0-1.6-1.9,1.74,1.74,0,0,0-1.7,1.9v3.6h-0.9V540a1.54,1.54,0,0,0-1.6-1.8,1.77,1.77,0,0,0-1.7,2v3.5h-0.9v-6.2h-0.1Z" transform="translate(-8.1 -252.7)"/><path class="cls-4" d="M535.4,541.4v-3.8h0.9v3.6a1.64,1.64,0,0,0,1.7,1.9,1.84,1.84,0,0,0,1.9-1.9v-3.5h0.9v6.2h-0.9v-1.1a2.32,2.32,0,0,1-2.1,1.2A2.54,2.54,0,0,1,535.4,541.4Z" transform="translate(-8.1 -252.7)"/><path class="cls-4" d="M543,535h0.9v8.8H543V535Z" transform="translate(-8.1 -252.7)"/><path class="cls-4" d="M545.6,541.9h0c0-1.3,1.1-2,2.7-2a5,5,0,0,1,1.9.3V540a1.61,1.61,0,0,0-1.8-1.7,4.14,4.14,0,0,0-1.9.5l-0.3-.8a5.56,5.56,0,0,1,2.3-.5,2.58,2.58,0,0,1,2,.7,2.44,2.44,0,0,1,.6,1.8v3.8h-0.9v-0.9A2.64,2.64,0,0,1,548,544C546.8,543.8,545.6,543.2,545.6,541.9Zm4.6-.5v-0.6a8.42,8.42,0,0,0-1.8-.3c-1.2,0-1.8.5-1.8,1.3h0a1.35,1.35,0,0,0,1.6,1.2A1.75,1.75,0,0,0,550.2,541.4Z" transform="translate(-8.1 -252.7)"/><path class="cls-4" d="M553.3,542.1v-3.7h-0.9v-0.8h0.9v-1.9h0.9v1.9h2v0.8h-2V542a0.86,0.86,0,0,0,1,1,2.92,2.92,0,0,0,.9-0.2v0.8a2,2,0,0,1-1.1.3A1.71,1.71,0,0,1,553.3,542.1Z" transform="translate(-8.1 -252.7)"/><path class="cls-4" d="M557.9,535.1H559v1h-1.1v-1Zm0,2.4h0.9v6.2h-0.9v-6.2Z" transform="translate(-8.1 -252.7)"/><path class="cls-4" d="M560.6,540.6h0a3.24,3.24,0,0,1,3.2-3.3,3.16,3.16,0,0,1,3.2,3.2h0a3.16,3.16,0,0,1-3.2,3.2A3,3,0,0,1,560.6,540.6Zm5.6,0h0a2.29,2.29,0,0,0-2.3-2.4,2.35,2.35,0,0,0-2.3,2.4h0A2.3,2.3,0,1,0,566.2,540.6Z" transform="translate(-8.1 -252.7)"/><path class="cls-4" d="M568.8,537.5h0.9v1.1a2.32,2.32,0,0,1,2.1-1.2,2.29,2.29,0,0,1,2.4,2.5v3.8h-0.9v-3.6a1.64,1.64,0,0,0-1.7-1.9,1.84,1.84,0,0,0-1.9,1.9v3.5h-0.9v-6.1h0Z" transform="translate(-8.1 -252.7)"/><path class="cls-4" d="M440.7,556.3h0c0-1.3,1.1-2,2.7-2a5,5,0,0,1,1.9.3v-0.2a1.61,1.61,0,0,0-1.8-1.7,4.14,4.14,0,0,0-1.9.5l-0.3-.8a5.56,5.56,0,0,1,2.3-.5,2.58,2.58,0,0,1,2,.7,2.44,2.44,0,0,1,.6,1.8v3.8h-0.9v-0.9a2.64,2.64,0,0,1-2.2,1.1C441.8,558.2,440.7,557.6,440.7,556.3Zm4.5-.5v-0.6a8.42,8.42,0,0,0-1.8-.3c-1.2,0-1.8.5-1.8,1.3h0a1.35,1.35,0,0,0,1.6,1.2A1.7,1.7,0,0,0,445.2,555.8Z" transform="translate(-8.1 -252.7)"/><path class="cls-4" d="M448.1,551.9H449V553a2.32,2.32,0,0,1,2.1-1.2,2.29,2.29,0,0,1,2.4,2.5v3.8h-0.9v-3.6a1.64,1.64,0,0,0-1.7-1.9,1.84,1.84,0,0,0-1.9,1.9V558h-0.9v-6.1Z" transform="translate(-8.1 -252.7)"/><path class="cls-4" d="M455.1,555h0a3,3,0,0,1,3-3.2,2.78,2.78,0,0,1,2.4,1.3v-3.7h0.9v8.8h-0.9V557a2.86,2.86,0,0,1-2.4,1.4A3.39,3.39,0,0,1,455.1,555Zm5.4,0h0a2.27,2.27,0,0,0-2.2-2.4,2.21,2.21,0,0,0-2.2,2.4h0a2.21,2.21,0,0,0,2.2,2.4A2.33,2.33,0,0,0,460.5,555Z" transform="translate(-8.1 -252.7)"/><path class="cls-4" d="M467.1,549.5h1.1v1h-1.1v-1Zm0,2.4H468v6.2h-0.9v-6.2Z" transform="translate(-8.1 -252.7)"/><path class="cls-4" d="M470.2,551.9h0.9V553a2.32,2.32,0,0,1,2.1-1.2,2.29,2.29,0,0,1,2.4,2.5v3.8h-0.9v-3.6a1.64,1.64,0,0,0-1.7-1.9,1.84,1.84,0,0,0-1.9,1.9V558h-0.9v-6.1Z" transform="translate(-8.1 -252.7)"/><path class="cls-4" d="M477.2,555h0a3.26,3.26,0,0,1,5.7-2.2l-0.6.6a2.48,2.48,0,0,0-1.9-.9,2.27,2.27,0,0,0-2.2,2.4h0a2.35,2.35,0,0,0,2.3,2.4,2.65,2.65,0,0,0,1.9-.9L483,557A3.27,3.27,0,0,1,477.2,555Z" transform="translate(-8.1 -252.7)"/><path class="cls-4" d="M483.9,555h0a3.24,3.24,0,0,1,3.2-3.3,3.16,3.16,0,0,1,3.2,3.2h0a3.16,3.16,0,0,1-3.2,3.2A3,3,0,0,1,483.9,555Zm5.5,0h0a2.29,2.29,0,0,0-2.3-2.4,2.35,2.35,0,0,0-2.3,2.4h0A2.3,2.3,0,1,0,489.4,555Z" transform="translate(-8.1 -252.7)"/><path class="cls-4" d="M492,551.9h0.9v1a2.35,2.35,0,0,1,2-1.2,2.06,2.06,0,0,1,2,1.2,2.37,2.37,0,0,1,2.2-1.2,2.26,2.26,0,0,1,2.3,2.5V558h-0.9v-3.6a1.62,1.62,0,0,0-1.6-1.9,1.74,1.74,0,0,0-1.7,1.9V558h-0.9v-3.6a1.54,1.54,0,0,0-1.6-1.8,1.77,1.77,0,0,0-1.7,2v3.5h-1v-6.2Z" transform="translate(-8.1 -252.7)"/><path class="cls-4" d="M503,555h0a3.06,3.06,0,0,1,3-3.2,3,3,0,0,1,2.9,3.3v0.3H504a2.19,2.19,0,0,0,2.2,2.1,2.38,2.38,0,0,0,2-.9l0.6,0.5A3.27,3.27,0,0,1,503,555Zm5-.4a2,2,0,0,0-2-2.1,2.09,2.09,0,0,0-2,2.1h4Z" transform="translate(-8.1 -252.7)"/><path class="cls-4" d="M514.1,551.9H515v1.2a2.86,2.86,0,0,1,2.4-1.4,3.06,3.06,0,0,1,3,3.2h0a3.06,3.06,0,0,1-3,3.2,2.78,2.78,0,0,1-2.4-1.3v3.1h-0.9v-8Zm5.3,3.1h0a2.21,2.21,0,0,0-2.2-2.4A2.27,2.27,0,0,0,515,555h0a2.33,2.33,0,0,0,2.2,2.4A2.21,2.21,0,0,0,519.4,555Z" transform="translate(-8.1 -252.7)"/><path class="cls-4" d="M521.6,556.3h0c0-1.3,1.1-2,2.7-2a5,5,0,0,1,1.9.3v-0.2a1.61,1.61,0,0,0-1.8-1.7,4.14,4.14,0,0,0-1.9.5l-0.3-.8a5.56,5.56,0,0,1,2.3-.5,2.58,2.58,0,0,1,2,.7,2.44,2.44,0,0,1,.6,1.8v3.8h-0.9v-0.9a2.64,2.64,0,0,1-2.2,1.1C522.8,558.2,521.6,557.6,521.6,556.3Zm4.6-.5v-0.6a8.42,8.42,0,0,0-1.8-.3c-1.2,0-1.8.5-1.8,1.3h0a1.35,1.35,0,0,0,1.6,1.2A1.75,1.75,0,0,0,526.2,555.8Z" transform="translate(-8.1 -252.7)"/><path class="cls-4" d="M533.4,551.9h1l-2.6,6.4c-0.5,1.3-1.1,1.8-2.1,1.8a2.77,2.77,0,0,1-1.3-.3l0.3-.7a1.64,1.64,0,0,0,1,.2c0.6,0,.9-0.3,1.3-1.2l-2.8-6.2h1l2.3,5.2Z" transform="translate(-8.1 -252.7)"/><path class="cls-4" d="M535.1,555h0a3.24,3.24,0,0,1,3.2-3.3,3.16,3.16,0,0,1,3.2,3.2h0a3.16,3.16,0,0,1-3.2,3.2A3,3,0,0,1,535.1,555Zm5.6,0h0a2.29,2.29,0,0,0-2.3-2.4,2.35,2.35,0,0,0-2.3,2.4h0A2.3,2.3,0,1,0,540.7,555Z" transform="translate(-8.1 -252.7)"/><path class="cls-4" d="M543.2,555.7v-3.8h0.9v3.6a1.64,1.64,0,0,0,1.7,1.9,1.84,1.84,0,0,0,1.9-1.9V552h0.9v6.2h-0.9V557a2.32,2.32,0,0,1-2.1,1.2A2.29,2.29,0,0,1,543.2,555.7Z" transform="translate(-8.1 -252.7)"/><path class="cls-4" d="M551,556.4v-3.7h-0.9v-0.8H551V550h0.9v1.9h2v0.8h-2v3.6a0.86,0.86,0,0,0,1,1,2.92,2.92,0,0,0,.9-0.2v0.8a2,2,0,0,1-1.1.3A1.56,1.56,0,0,1,551,556.4Z" transform="translate(-8.1 -252.7)"/><path class="cls-4" d="M555,559.1a0.88,0.88,0,0,0,.8-1h-0.4v-1.3h1.1v1.1a1.4,1.4,0,0,1-1.3,1.6Z" transform="translate(-8.1 -252.7)"/><path class="cls-4" d="M562.4,556.4v-3.7h-0.9v-0.8h0.9V550h0.9v1.9h2v0.8h-2v3.6a0.86,0.86,0,0,0,1,1,2.92,2.92,0,0,0,.9-0.2v0.8a2,2,0,0,1-1.1.3A1.56,1.56,0,0,1,562.4,556.4Z" transform="translate(-8.1 -252.7)"/><path class="cls-4" d="M566.9,549.3h0.9v3.6a2.32,2.32,0,0,1,2.1-1.2,2.29,2.29,0,0,1,2.4,2.5V558h-0.9v-3.6a1.64,1.64,0,0,0-1.7-1.9,1.84,1.84,0,0,0-1.9,1.9v3.5h-0.9v-8.6h0Z" transform="translate(-8.1 -252.7)"/><path class="cls-4" d="M574.2,555.7v-3.8h0.9v3.6a1.64,1.64,0,0,0,1.7,1.9,1.84,1.84,0,0,0,1.9-1.9V552h0.9v6.2h-0.9V557a2.32,2.32,0,0,1-2.1,1.2A2.29,2.29,0,0,1,574.2,555.7Z" transform="translate(-8.1 -252.7)"/><path class="cls-4" d="M581.2,557.3l0.5-.7a3.68,3.68,0,0,0,2.1.8,1.16,1.16,0,0,0,1.3-1h0c0-.6-0.7-0.9-1.5-1.1-1-.3-2.1-0.6-2.1-1.8h0a1.88,1.88,0,0,1,2.1-1.8,4.1,4.1,0,0,1,2.2.7l-0.4.7a3.23,3.23,0,0,0-1.8-.6,1.06,1.06,0,0,0-1.2.9h0c0,0.6.8,0.8,1.6,1.1,1,0.3,2,.7,2,1.8h0a2,2,0,0,1-2.2,1.9A3.92,3.92,0,0,1,581.2,557.3Z" transform="translate(-8.1 -252.7)"/><path class="cls-4" d="M441.1,563.9h1.1v1h-1.1v-1Zm0.1,2.4h0.9v6.2h-0.9v-6.2Z" transform="translate(-8.1 -252.7)"/><path class="cls-4" d="M444.3,566.3h0.9v1a2.35,2.35,0,0,1,2-1.2,2.06,2.06,0,0,1,2,1.2,2.37,2.37,0,0,1,2.2-1.2,2.26,2.26,0,0,1,2.3,2.5v3.8h-0.9v-3.6a1.62,1.62,0,0,0-1.6-1.9,1.74,1.74,0,0,0-1.7,1.9v3.6h-0.9v-3.6A1.54,1.54,0,0,0,447,567a1.77,1.77,0,0,0-1.7,2v3.5h-0.9v-6.2h-0.1Z" transform="translate(-8.1 -252.7)"/><path class="cls-4" d="M455.7,566.3h0.9v1.2a2.86,2.86,0,0,1,2.4-1.4,3.06,3.06,0,0,1,3,3.2h0a3.06,3.06,0,0,1-3,3.2,2.78,2.78,0,0,1-2.4-1.3v3.1h-0.9v-8Zm5.3,3.1h0a2.21,2.21,0,0,0-2.2-2.4,2.27,2.27,0,0,0-2.2,2.4h0a2.33,2.33,0,0,0,2.2,2.4A2.21,2.21,0,0,0,461,569.4Z" transform="translate(-8.1 -252.7)"/><path class="cls-4" d="M463.7,566.3h0.9v1.6a2.68,2.68,0,0,1,2.5-1.7v1H467a2.51,2.51,0,0,0-2.5,2.8v2.5h-0.9v-6.2h0.1Z" transform="translate(-8.1 -252.7)"/><path class="cls-4" d="M467.9,569.4h0a3.24,3.24,0,0,1,3.2-3.3,3.16,3.16,0,0,1,3.2,3.2h0a3.16,3.16,0,0,1-3.2,3.2A3,3,0,0,1,467.9,569.4Zm5.5,0h0a2.29,2.29,0,0,0-2.3-2.4,2.35,2.35,0,0,0-2.3,2.4h0a2.35,2.35,0,0,0,2.3,2.4A2.29,2.29,0,0,0,473.4,569.4Z" transform="translate(-8.1 -252.7)"/><path class="cls-4" d="M475,566.3h1l2.1,5.1,2.1-5.1h1l-2.7,6.2h-0.8Z" transform="translate(-8.1 -252.7)"/><path class="cls-4" d="M482.7,563.9h1.1v1h-1.1v-1Zm0.1,2.4h0.9v6.2h-0.9v-6.2Z" transform="translate(-8.1 -252.7)"/><path class="cls-4" d="M485.8,566.3h0.9v1.1a2.32,2.32,0,0,1,2.1-1.2,2.29,2.29,0,0,1,2.4,2.5v3.8h-0.9v-3.6a1.64,1.64,0,0,0-1.7-1.9,1.84,1.84,0,0,0-1.9,1.9v3.5h-0.9v-6.1Z" transform="translate(-8.1 -252.7)"/><path class="cls-4" d="M493.2,573.6l0.4-.7a4.07,4.07,0,0,0,2.4.8,2.08,2.08,0,0,0,2.3-2.2v-0.7a2.92,2.92,0,0,1-2.4,1.3,2.84,2.84,0,0,1-2.9-2.9h0a2.84,2.84,0,0,1,2.9-2.9,3,3,0,0,1,2.4,1.2v-1.1h0.9v5.1a3,3,0,0,1-.8,2.2,3.19,3.19,0,0,1-2.4.8A6.6,6.6,0,0,1,493.2,573.6Zm5-4.5h0a2.16,2.16,0,0,0-2.3-2.1,2,2,0,0,0-2.1,2.1h0a2.11,2.11,0,0,0,2.1,2.1A2.22,2.22,0,0,0,498.2,569.1Z" transform="translate(-8.1 -252.7)"/><path class="cls-4" d="M504.9,563.7h0.9v8.8h-0.9v-8.8Z" transform="translate(-8.1 -252.7)"/><path class="cls-4" d="M508,563.9h1.1v1H508v-1Zm0,2.4h0.9v6.2H508v-6.2Z" transform="translate(-8.1 -252.7)"/><path class="cls-4" d="M511.1,563.7H512v6l3.3-3.5h1.2l-2.6,2.7,2.7,3.5h-1.1l-2.2-2.9-1.3,1.3v1.6h-0.9v-8.7h0Z" transform="translate(-8.1 -252.7)"/><path class="cls-4" d="M517.3,569.4h0a3.06,3.06,0,0,1,3-3.2,3,3,0,0,1,2.9,3.3v0.3h-4.9a2.19,2.19,0,0,0,2.2,2.1,2.38,2.38,0,0,0,2-.9l0.6,0.5a3.24,3.24,0,0,1-2.6,1.2A3.18,3.18,0,0,1,517.3,569.4Zm4.9-.4a2,2,0,0,0-2-2.1,2.09,2.09,0,0,0-2,2.1h4Z" transform="translate(-8.1 -252.7)"/><path class="cls-4" d="M524.8,563.7h0.9v8.8h-0.9v-8.8Z" transform="translate(-8.1 -252.7)"/><path class="cls-4" d="M527.9,563.9H529v1h-1.1v-1Zm0.1,2.4h0.9v6.2H528v-6.2Z" transform="translate(-8.1 -252.7)"/><path class="cls-4" d="M531.1,563.7H532v3.6a2.32,2.32,0,0,1,2.1-1.2,2.29,2.29,0,0,1,2.4,2.5v3.8h-0.9v-3.6a1.64,1.64,0,0,0-1.7-1.9,1.84,1.84,0,0,0-1.9,1.9v3.5h-0.9v-8.6h0Z" transform="translate(-8.1 -252.7)"/><path class="cls-4" d="M538.1,569.4h0a3.24,3.24,0,0,1,3.2-3.3,3.16,3.16,0,0,1,3.2,3.2h0a3.16,3.16,0,0,1-3.2,3.2A3,3,0,0,1,538.1,569.4Zm5.5,0h0a2.29,2.29,0,0,0-2.3-2.4,2.35,2.35,0,0,0-2.3,2.4h0A2.3,2.3,0,1,0,543.6,569.4Z" transform="translate(-8.1 -252.7)"/><path class="cls-4" d="M545.8,569.4h0a3.24,3.24,0,0,1,3.2-3.3,3.16,3.16,0,0,1,3.2,3.2h0a3.16,3.16,0,0,1-3.2,3.2A3,3,0,0,1,545.8,569.4Zm5.5,0h0A2.29,2.29,0,0,0,549,567a2.35,2.35,0,0,0-2.3,2.4h0a2.35,2.35,0,0,0,2.3,2.4A2.29,2.29,0,0,0,551.3,569.4Z" transform="translate(-8.1 -252.7)"/><path class="cls-4" d="M553.6,569.4h0a3,3,0,0,1,3-3.2,2.78,2.78,0,0,1,2.4,1.3v-3.7h0.9v8.8H559v-1.2a2.86,2.86,0,0,1-2.4,1.4A3.39,3.39,0,0,1,553.6,569.4Zm5.4,0h0a2.27,2.27,0,0,0-2.2-2.4,2.21,2.21,0,0,0-2.2,2.4h0a2.21,2.21,0,0,0,2.2,2.4A2.33,2.33,0,0,0,559,569.4Z" transform="translate(-8.1 -252.7)"/><path class="cls-4" d="M565.1,569.4h0a3.24,3.24,0,0,1,3.2-3.3,3.16,3.16,0,0,1,3.2,3.2h0a3.16,3.16,0,0,1-3.2,3.2A3,3,0,0,1,565.1,569.4Zm5.5,0h0a2.29,2.29,0,0,0-2.3-2.4,2.35,2.35,0,0,0-2.3,2.4h0a2.35,2.35,0,0,0,2.3,2.4A2.29,2.29,0,0,0,570.6,569.4Z" transform="translate(-8.1 -252.7)"/><path class="cls-4" d="M573.6,567.1h-0.9v-0.8h0.9v-0.5a2.54,2.54,0,0,1,.5-1.6,1.9,1.9,0,0,1,1.3-.5,1.64,1.64,0,0,1,1,.2v0.8a2.92,2.92,0,0,0-.9-0.2,1.07,1.07,0,0,0-1.1,1.3v0.5h2v0.8h-2v5.4h-0.9v-5.4h0.1Z" transform="translate(-8.1 -252.7)"/><path class="cls-4" d="M440.7,585.1h0c0-1.3,1.1-2,2.7-2a5,5,0,0,1,1.9.3v-0.2a1.61,1.61,0,0,0-1.8-1.7,4.14,4.14,0,0,0-1.9.5l-0.3-.8a5.56,5.56,0,0,1,2.3-.5,2.58,2.58,0,0,1,2,.7,2.44,2.44,0,0,1,.6,1.8V587h-0.9v-1a2.64,2.64,0,0,1-2.2,1.1C441.8,587,440.7,586.4,440.7,585.1Zm4.5-.5V584a8.42,8.42,0,0,0-1.8-.3c-1.2,0-1.8.5-1.8,1.3h0a1.35,1.35,0,0,0,1.6,1.2A1.7,1.7,0,0,0,445.2,584.6Z" transform="translate(-8.1 -252.7)"/><path class="cls-4" d="M447.7,583.8h0a3.26,3.26,0,0,1,5.7-2.2l-0.6.6a2.48,2.48,0,0,0-1.9-.9,2.27,2.27,0,0,0-2.2,2.4h0a2.35,2.35,0,0,0,2.3,2.4,2.65,2.65,0,0,0,1.9-.9l0.6,0.6A3.27,3.27,0,0,1,447.7,583.8Z" transform="translate(-8.1 -252.7)"/><path class="cls-4" d="M454.9,578.1h0.9v3.6a2.32,2.32,0,0,1,2.1-1.2,2.29,2.29,0,0,1,2.4,2.5v3.8h-0.9v-3.6a1.64,1.64,0,0,0-1.7-1.9,1.84,1.84,0,0,0-1.9,1.9v3.5h-0.9v-8.6Z" transform="translate(-8.1 -252.7)"/><path class="cls-4" d="M462.3,578.3h1.1v1h-1.1v-1Zm0.1,2.4h0.9v6.2h-0.9v-6.2Z" transform="translate(-8.1 -252.7)"/><path class="cls-4" d="M465.1,583.8h0a3.06,3.06,0,0,1,3-3.2,3,3,0,0,1,2.9,3.3v0.3h-5a2.19,2.19,0,0,0,2.2,2.1,2.38,2.38,0,0,0,2-.9l0.6,0.5A3.2,3.2,0,0,1,465.1,583.8Zm4.9-.3a2,2,0,0,0-2-2.1,2.09,2.09,0,0,0-2,2.1h4Z" transform="translate(-8.1 -252.7)"/><path class="cls-4" d="M471.7,580.7h1l2.1,5.1,2.1-5.1h1l-2.7,6.2h-0.8Z" transform="translate(-8.1 -252.7)"/><path class="cls-4" d="M479.3,578.3h1.1v1h-1.1v-1Zm0.1,2.4h0.9v6.2h-0.9v-6.2Z" transform="translate(-8.1 -252.7)"/><path class="cls-4" d="M482.5,580.7h0.9v1.1a2.32,2.32,0,0,1,2.1-1.2,2.29,2.29,0,0,1,2.4,2.5v3.8H487v-3.6a1.64,1.64,0,0,0-1.7-1.9,1.84,1.84,0,0,0-1.9,1.9v3.5h-0.9v-6.1Z" transform="translate(-8.1 -252.7)"/><path class="cls-4" d="M489.8,588l0.4-.7a4.07,4.07,0,0,0,2.4.8,2.08,2.08,0,0,0,2.3-2.2v-0.7a2.92,2.92,0,0,1-2.4,1.3,2.84,2.84,0,0,1-2.9-2.9h0a2.84,2.84,0,0,1,2.9-2.9,3,3,0,0,1,2.4,1.2v-1.1h0.9v5.1a3,3,0,0,1-.8,2.2,3.19,3.19,0,0,1-2.4.8A6.6,6.6,0,0,1,489.8,588Zm5.1-4.5h0a2.16,2.16,0,0,0-2.3-2.1,2,2,0,0,0-2.1,2.1h0a2.11,2.11,0,0,0,2.1,2.1A2.22,2.22,0,0,0,494.9,583.5Z" transform="translate(-8.1 -252.7)"/><path class="cls-4" d="M501.5,578.3h1.1v1h-1.1v-1Zm0,2.4h0.9v6.2h-0.9v-6.2Z" transform="translate(-8.1 -252.7)"/><path class="cls-4" d="M504.6,580.7h0.9v1.1a2.32,2.32,0,0,1,2.1-1.2,2.29,2.29,0,0,1,2.4,2.5v3.8h-0.9v-3.6a1.64,1.64,0,0,0-1.7-1.9,1.84,1.84,0,0,0-1.9,1.9v3.5h-0.9v-6.1Z" transform="translate(-8.1 -252.7)"/><path class="cls-4" d="M511.6,583.8h0a3.26,3.26,0,0,1,5.7-2.2l-0.6.6a2.48,2.48,0,0,0-1.9-.9,2.27,2.27,0,0,0-2.2,2.4h0a2.35,2.35,0,0,0,2.3,2.4,2.65,2.65,0,0,0,1.9-.9l0.6,0.6A3.27,3.27,0,0,1,511.6,583.8Z" transform="translate(-8.1 -252.7)"/><path class="cls-4" d="M518.3,583.8h0a3.24,3.24,0,0,1,3.2-3.3,3.16,3.16,0,0,1,3.2,3.2h0a3.16,3.16,0,0,1-3.2,3.2A3,3,0,0,1,518.3,583.8Zm5.5,0h0a2.29,2.29,0,0,0-2.3-2.4,2.35,2.35,0,0,0-2.3,2.4h0A2.3,2.3,0,1,0,523.8,583.8Z" transform="translate(-8.1 -252.7)"/><path class="cls-4" d="M526.4,580.7h0.9v1a2.35,2.35,0,0,1,2-1.2,2.06,2.06,0,0,1,2,1.2,2.37,2.37,0,0,1,2.2-1.2,2.26,2.26,0,0,1,2.3,2.5v3.8h-0.9v-3.6a1.62,1.62,0,0,0-1.6-1.9,1.74,1.74,0,0,0-1.7,1.9v3.6h-0.9v-3.6a1.54,1.54,0,0,0-1.6-1.8,1.77,1.77,0,0,0-1.7,2v3.5h-0.9v-6.2h-0.1Z" transform="translate(-8.1 -252.7)"/><path class="cls-4" d="M537.4,583.8h0a3.06,3.06,0,0,1,3-3.2,3,3,0,0,1,2.9,3.3v0.3h-4.9a2.19,2.19,0,0,0,2.2,2.1,2.38,2.38,0,0,0,2-.9l0.6,0.5A3.27,3.27,0,0,1,537.4,583.8Zm5-.3a2,2,0,0,0-2-2.1,2.09,2.09,0,0,0-2,2.1h4Z" transform="translate(-8.1 -252.7)"/><path class="cls-4" d="M548.4,588l0.4-.7a4.07,4.07,0,0,0,2.4.8,2.08,2.08,0,0,0,2.3-2.2v-0.7a2.92,2.92,0,0,1-2.4,1.3,2.84,2.84,0,0,1-2.9-2.9h0a2.84,2.84,0,0,1,2.9-2.9,3,3,0,0,1,2.4,1.2v-1.1h0.9v5.1a3,3,0,0,1-.8,2.2,3.19,3.19,0,0,1-2.4.8A7.08,7.08,0,0,1,548.4,588Zm5.1-4.5h0a2.16,2.16,0,0,0-2.3-2.1,2,2,0,0,0-2.1,2.1h0a2.11,2.11,0,0,0,2.1,2.1A2.22,2.22,0,0,0,553.5,583.5Z" transform="translate(-8.1 -252.7)"/><path class="cls-4" d="M556.1,583.8h0a3.24,3.24,0,0,1,3.2-3.3,3.16,3.16,0,0,1,3.2,3.2h0a3.16,3.16,0,0,1-3.2,3.2A3,3,0,0,1,556.1,583.8Zm5.5,0h0a2.29,2.29,0,0,0-2.3-2.4,2.35,2.35,0,0,0-2.3,2.4h0a2.35,2.35,0,0,0,2.3,2.4A2.29,2.29,0,0,0,561.6,583.8Z" transform="translate(-8.1 -252.7)"/><path class="cls-4" d="M563.8,585.1h0c0-1.3,1.1-2,2.7-2a5,5,0,0,1,1.9.3v-0.2a1.61,1.61,0,0,0-1.8-1.7,4.14,4.14,0,0,0-1.9.5l-0.3-.8a5.56,5.56,0,0,1,2.3-.5,2.58,2.58,0,0,1,2,.7,2.44,2.44,0,0,1,.6,1.8V587h-0.9v-1a2.64,2.64,0,0,1-2.2,1.1C564.9,587,563.8,586.4,563.8,585.1Zm4.5-.5V584a8.42,8.42,0,0,0-1.8-.3c-1.2,0-1.8.5-1.8,1.3h0a1.35,1.35,0,0,0,1.6,1.2A1.7,1.7,0,0,0,568.3,584.6Z" transform="translate(-8.1 -252.7)"/><path class="cls-4" d="M571.3,578.1h0.9v8.8h-0.9v-8.8Z" transform="translate(-8.1 -252.7)"/><path class="cls-4" d="M573.8,586.1l0.5-.7a3.68,3.68,0,0,0,2.1.8,1.16,1.16,0,0,0,1.3-1h0c0-.6-0.7-0.9-1.5-1.1-1-.3-2.1-0.6-2.1-1.8h0a1.88,1.88,0,0,1,2.1-1.8,4.1,4.1,0,0,1,2.2.7l-0.4.8a3.23,3.23,0,0,0-1.8-.6,1.06,1.06,0,0,0-1.2.9h0c0,0.6.8,0.8,1.6,1.1,1,0.3,2,.7,2,1.8h0a2,2,0,0,1-2.2,1.9A4.9,4.9,0,0,1,573.8,586.1Z" transform="translate(-8.1 -252.7)"/><path class="cls-4" d="M302,478.7v-74a1,1,0,1,0-2,0v74a1,1,0,0,0,2,0" transform="translate(-8.1 -252.7)"/><polyline class="cls-4" points="292.9 147.5 287.1 153.8 298.7 153.8 292.9 147.5"/><path class="cls-4" d="M41,483.8V478h0a1.73,1.73,0,0,1,.2-0.7,5.32,5.32,0,0,1,2.4-2.5c1.6-.9,4.2-1.6,8.4-1.6h57.9a6.15,6.15,0,0,0,5-2.5,5.38,5.38,0,0,0,.9-3.5v-8a1,1,0,0,0-2,0v8a4.24,4.24,0,0,1-.6,2.3,3.31,3.31,0,0,1-2.1,1.4,5.07,5.07,0,0,1-.9.2h-0.4v0h0v0H52a22.58,22.58,0,0,0-7.2,1,8.81,8.81,0,0,0-5,3.5A4.31,4.31,0,0,0,39,478v5.8a1,1,0,0,0,1,1,0.94,0.94,0,0,0,1-1h0Z" transform="translate(-8.1 -252.7)"/><polyline class="cls-4" points="106.7 202.1 100.9 208.4 112.5 208.4 106.7 202.1"/><path class="cls-4" d="M469.4,483.8V478h0a1.73,1.73,0,0,0-.2-0.7,5.32,5.32,0,0,0-2.4-2.5c-1.6-.9-4.2-1.6-8.4-1.6H400.5a6.15,6.15,0,0,1-5-2.5,5.38,5.38,0,0,1-.9-3.5v-8a1,1,0,0,1,2,0v8a4.24,4.24,0,0,0,.6,2.3,3.31,3.31,0,0,0,2.1,1.4,5.07,5.07,0,0,0,.9.2h0.4v0h0v0h57.9a22.58,22.58,0,0,1,7.2,1,8.81,8.81,0,0,1,5,3.5,4.31,4.31,0,0,1,.8,2.4v5.8a1,1,0,0,1-1,1,1,1,0,0,1-1.1-1h0Z" transform="translate(-8.1 -252.7)"/><polyline class="cls-4" points="387.4 202.1 393.2 208.4 381.6 208.4 387.4 202.1"/><path class="cls-8" d="M252.6,253.7v7.9a1,1,0,0,0,2,0v-7.9a1,1,0,0,0-1-1,0.94,0.94,0,0,0-1,1h0Zm0,15.8v7.9a1,1,0,0,0,2,0v-7.9a0.94,0.94,0,0,0-1-1,1,1,0,0,0-1,1h0Zm0,15.9v7.9a1,1,0,0,0,2,0v-7.9a0.94,0.94,0,0,0-1-1,1,1,0,0,0-1,1h0Zm0,15.9v7.9a1,1,0,0,0,2,0v-7.9a1,1,0,0,0-1-1,0.94,0.94,0,0,0-1,1h0Zm0,15.8V325a1,1,0,0,0,2,0v-7.9a0.94,0.94,0,0,0-1-1,1,1,0,0,0-1,1h0Zm0,15.9v7.9a1,1,0,0,0,2,0V333a1,1,0,0,0-2,0h0Zm0,15.9v7.9a1,1,0,0,0,2,0v-7.9a1,1,0,0,0-1-1,0.94,0.94,0,0,0-1,1h0Zm0,15.8v7.9a1,1,0,0,0,1,1,0.94,0.94,0,0,0,1-1v-7.9a1,1,0,0,0-2,0h0Zm0,15.9v7.9a1,1,0,0,0,2,0v-7.9a1,1,0,0,0-1-1,0.94,0.94,0,0,0-1,1h0Zm0,15.8v7.9a1,1,0,0,0,2,0v-7.9a1,1,0,0,0-2,0h0Zm0,15.9v7.9a1,1,0,0,0,2,0v-7.9a0.94,0.94,0,0,0-1-1,1,1,0,0,0-1,1h0Zm0,15.9v7.9a1,1,0,0,0,1,1,0.94,0.94,0,0,0,1-1v-7.9a1,1,0,0,0-2,0h0Zm0,15.8v7.9a1,1,0,0,0,2,0V444a1,1,0,0,0-2,0h0Zm0,15.9v7.9a0.94,0.94,0,0,0,1,1,1,1,0,0,0,1-1v-7.9a1,1,0,0,0-2,0h0Z" transform="translate(-8.1 -252.7)"/><path class="cls-8" d="M343.2,253.7v7.9a1,1,0,0,0,2,0v-7.9a1,1,0,0,0-1-1,0.94,0.94,0,0,0-1,1h0Zm0,15.8v7.9a1,1,0,0,0,2,0v-7.9a0.94,0.94,0,0,0-1-1,1,1,0,0,0-1,1h0Zm0,15.9v7.9a1,1,0,0,0,2,0v-7.9a0.94,0.94,0,0,0-1-1,1,1,0,0,0-1,1h0Zm0,15.9v7.9a1,1,0,0,0,2,0v-7.9a1,1,0,0,0-1-1,0.94,0.94,0,0,0-1,1h0Zm0,15.8V325a1,1,0,0,0,2,0v-7.9a0.94,0.94,0,0,0-1-1,1,1,0,0,0-1,1h0Zm0,15.9v7.9a1,1,0,0,0,2,0V333a1,1,0,0,0-2,0h0Zm0,15.9v7.9a1,1,0,0,0,2,0v-7.9a1,1,0,0,0-1-1,0.94,0.94,0,0,0-1,1h0Zm0,15.8v7.9a1,1,0,0,0,1,1,0.94,0.94,0,0,0,1-1v-7.9a1,1,0,0,0-2,0h0Zm0,15.9v7.9a1,1,0,0,0,2,0v-7.9a1,1,0,0,0-1-1,0.94,0.94,0,0,0-1,1h0Zm0,15.8v7.9a1,1,0,0,0,2,0v-7.9a1,1,0,0,0-2,0h0Zm0,15.9v7.9a1,1,0,0,0,2,0v-7.9a0.94,0.94,0,0,0-1-1,1,1,0,0,0-1,1h0Zm0,15.9v7.9a1,1,0,0,0,1,1,0.94,0.94,0,0,0,1-1v-7.9a1,1,0,0,0-2,0h0Zm0,15.8v7.9a1,1,0,0,0,2,0V444a1,1,0,0,0-2,0h0Zm0,15.9v7.9a0.94,0.94,0,0,0,1,1,1,1,0,0,0,1-1v-7.9a1,1,0,0,0-2,0h0Z" transform="translate(-8.1 -252.7)"/></svg>