<svg id="Layer_1" data-name="Layer 1" xmlns="http://www.w3.org/2000/svg" viewBox="0 0 399.7 333.5"><defs><style>.cls-1{fill:#333e48;}.cls-2{fill:#78a22f;}.cls-3{fill:#007dc5;}.cls-4{fill:#fff;}.cls-5{fill:#414042;}.cls-6{fill:#78a240;}.cls-7{fill:#737070;}</style></defs><title>Inside your account</title><path class="cls-1" d="M225.9,254.9h2.9v16.4h-2.9V254.9Z" transform="translate(-97.9 -254.5)"/><path class="cls-1" d="M232.3,254.9h3.9l8,12.2h0V254.9h2.9v16.4h-3.7l-8.1-12.6h0v12.6h-2.9V254.9h-0.1Z" transform="translate(-97.9 -254.5)"/><path class="cls-1" d="M258.7,258.5a3.35,3.35,0,0,0-2.9-1.3c-1.3,0-2.7.6-2.7,2.1,0,3.3,7.8,1.4,7.8,7.3,0,3.5-2.8,5.2-6,5.2a7,7,0,0,1-5.4-2.2l2.2-2.1a3.73,3.73,0,0,0,3.2,1.7c1.3,0,2.9-.7,2.9-2.2,0-3.6-7.8-1.5-7.8-7.4,0-3.4,3-5,6.1-5a6.82,6.82,0,0,1,4.7,1.7Z" transform="translate(-97.9 -254.5)"/><path class="cls-1" d="M263.7,254.9h2.9v16.4h-2.9V254.9Z" transform="translate(-97.9 -254.5)"/><path class="cls-1" d="M270,254.9h6.5c4.3,0,8.3,2.6,8.3,8.2s-4.8,8.2-8.7,8.2H270V254.9Zm5.1,13.8c3.7,0,6.7-1.6,6.7-5.6s-2.6-5.6-6.2-5.6H273v11.1h2.1v0.1Z" transform="translate(-97.9 -254.5)"/><path class="cls-1" d="M287.5,254.9h10.9v2.6h-8v4h7.5v2.6h-7.5v4.5h8.4v2.6H287.5V254.9Z" transform="translate(-97.9 -254.5)"/><path class="cls-1" d="M312.5,264.3l-6.2-9.4H310l4,6.5,4.1-6.5h3.5l-6.2,9.4v7h-2.9v-7Z" transform="translate(-97.9 -254.5)"/><path class="cls-1" d="M329.8,254.5c5.1-.1,8.7,3.3,8.7,8.6,0,5.1-3.6,8.6-8.7,8.7s-8.7-3.4-8.7-8.6A8.29,8.29,0,0,1,329.8,254.5Zm0,14.6c3.4,0,5.7-2.6,5.7-6.1a5.57,5.57,0,0,0-5.7-5.9c-3.4,0-5.6,2.6-5.6,5.9C324.2,266.5,326.4,269.1,329.8,269.1Z" transform="translate(-97.9 -254.5)"/><path class="cls-1" d="M354.3,265.3c0,4-2.9,6.4-6.6,6.4s-6.6-2.5-6.6-6.4V254.9H344v10.3a3.56,3.56,0,0,0,3.7,3.8,3.52,3.52,0,0,0,3.7-3.8V254.9h2.9v10.4Z" transform="translate(-97.9 -254.5)"/><path class="cls-1" d="M357.8,254.9h5.7c3.2,0,6.1,1,6.1,4.7a4.29,4.29,0,0,1-3.8,4.5l4.4,7.3h-3.5l-3.8-7h-2.1v7h-2.9V254.9h-0.1Zm5.2,7c1.6,0,3.6-.1,3.6-2.3,0-1.9-1.8-2.2-3.3-2.2h-2.5v4.5H363Z" transform="translate(-97.9 -254.5)"/><path class="cls-1" d="M247.4,275.9h2.5l7.1,16.4h-3.3l-1.5-3.8h-7.1l-1.5,3.8h-3.3Zm3.8,10.2-2.5-6.7-2.6,6.7h5.1Z" transform="translate(-97.9 -254.5)"/><path class="cls-1" d="M269.3,279.8a4.36,4.36,0,0,0-3.5-1.6c-3.4,0-5.6,2.6-5.6,5.9,0,3.5,2.2,6.1,5.6,6.1a4.66,4.66,0,0,0,3.7-2l2.4,1.7a7.35,7.35,0,0,1-6.1,2.9c-5.1,0-8.7-3.4-8.7-8.6s3.6-8.7,8.7-8.7a7.3,7.3,0,0,1,5.8,2.6Z" transform="translate(-97.9 -254.5)"/><path class="cls-1" d="M284.7,279.8a4.36,4.36,0,0,0-3.5-1.6c-3.4,0-5.6,2.6-5.6,5.9,0,3.5,2.2,6.1,5.6,6.1a4.66,4.66,0,0,0,3.7-2l2.4,1.7a7.35,7.35,0,0,1-6.1,2.9c-5.1,0-8.7-3.4-8.7-8.6s3.6-8.7,8.7-8.7a7.3,7.3,0,0,1,5.8,2.6Z" transform="translate(-97.9 -254.5)"/><path class="cls-1" d="M296.6,275.5c5.1-.1,8.7,3.3,8.7,8.6,0,5.1-3.6,8.6-8.7,8.7s-8.7-3.4-8.7-8.6S291.6,275.5,296.6,275.5Zm0.1,14.6c3.4,0,5.7-2.6,5.7-6.1a5.57,5.57,0,0,0-5.7-5.9c-3.4,0-5.6,2.6-5.6,5.9C291,287.5,293.3,290.1,296.7,290.1Z" transform="translate(-97.9 -254.5)"/><path class="cls-1" d="M321.2,286.3c0,4-2.9,6.4-6.6,6.4s-6.6-2.5-6.6-6.4V275.9h2.9v10.3a3.56,3.56,0,0,0,3.7,3.8,3.52,3.52,0,0,0,3.7-3.8V275.9h2.9v10.4Z" transform="translate(-97.9 -254.5)"/><path class="cls-1" d="M324.6,275.9h3.9l8,12.2h0V275.9h2.9v16.4h-3.7l-8.1-12.6h0v12.6h-2.9V275.9h-0.1Z" transform="translate(-97.9 -254.5)"/><path class="cls-1" d="M346.3,278.6h-5V276h13v2.6h-5v13.8h-2.9V278.6h-0.1Z" transform="translate(-97.9 -254.5)"/><path class="cls-2" d="M362.6,588c-74.6,0-74.6-270.1,0-270.1a135,135,0,0,1,135,135c0,74.5-60.4,135.1-135,135.1h0Z" transform="translate(-97.9 -254.5)"/><path class="cls-2" d="M232.9,588c74.6,0,74.6-270.1,0-270.1a135,135,0,0,0-135,135c0,74.5,60.4,135.1,135,135.1h0Z" transform="translate(-97.9 -254.5)"/><path class="cls-1" d="M362.6,588c-36.1,0-65.3-60.5-65.3-135s29.2-135,65.3-135,65.3,60.5,65.3,135-29.3,135-65.3,135h0Z" transform="translate(-97.9 -254.5)"/><path class="cls-1" d="M232.9,588c36.1,0,65.3-60.5,65.3-135S269,318,232.9,318s-65.3,60.5-65.3,135,29.3,135,65.3,135h0Z" transform="translate(-97.9 -254.5)"/><path class="cls-2" d="M230.5,488.6A45.4,45.4,0,1,1,276,443.2a45.45,45.45,0,0,1-45.5,45.4h0Z" transform="translate(-97.9 -254.5)"/><path class="cls-3" d="M230.5,494v2.5a53.2,53.2,0,1,1,37.7-90.8,53.11,53.11,0,0,1,0,75.2,53.47,53.47,0,0,1-37.7,15.6v-5a48.38,48.38,0,0,0,34.2-14.1,48,48,0,0,0,0-68.2,48.53,48.53,0,0,0-68.4,0,48,48,0,0,0,0,68.2,48.38,48.38,0,0,0,34.2,14.1V494h0Z" transform="translate(-97.9 -254.5)"/><path class="cls-3" d="M229.2,527.2v1.3a7.8,7.8,0,1,1,7.9-7.8,7.9,7.9,0,0,1-7.9,7.8v-2.6a5.58,5.58,0,0,0,3.7-1.5,5.21,5.21,0,0,0,1.5-3.7,5.58,5.58,0,0,0-1.5-3.7,5.21,5.21,0,0,0-3.7-1.5,5.58,5.58,0,0,0-3.7,1.5,5.21,5.21,0,0,0-1.5,3.7,5.58,5.58,0,0,0,1.5,3.7,5.21,5.21,0,0,0,3.7,1.5v1.3h0Z" transform="translate(-97.9 -254.5)"/><path class="cls-4" d="M363.4,497.7c-6.5-5.8-6.8-16-.7-22.8s16.3-7.5,22.7-1.7,6.8,16,.7,22.8-16.2,7.6-22.7,1.7h0Z" transform="translate(-97.9 -254.5)"/><path class="cls-2" d="M363.4,497.7l-0.5.6a16.14,16.14,0,0,1-5.3-11.6A17.8,17.8,0,0,1,374,468.6a16.09,16.09,0,0,1,17.4,15.7A17.8,17.8,0,0,1,375,502.4a16.16,16.16,0,0,1-12.1-4.1l0.5-.6,0.5-.6a14.75,14.75,0,0,0,10.9,3.6,16.27,16.27,0,0,0,14.9-16.5,14.54,14.54,0,0,0-4.8-10.5A15.27,15.27,0,0,0,374,470a16.27,16.27,0,0,0-14.9,16.5,14.54,14.54,0,0,0,4.8,10.5l-0.5.7h0Z" transform="translate(-97.9 -254.5)"/><path class="cls-5" d="M384.2,484.2a9.94,9.94,0,0,0-2.4-4.8l1.1-1.2-1.7-1.5-1,1.1c-2.7-2-5.6-2.1-7.5,0h0c-2,2.2-1.6,4.5.6,7.8l-3.5,3.9a9.73,9.73,0,0,1-1.9-4.9l-2.9.7a13.15,13.15,0,0,0,2.9,6.2l-1.8,2,1.7,1.5,1.7-1.9c2.7,2,5.7,2.1,7.6,0h0c1.9-2.1,1.7-4.5-.6-7.9l3.4-3.8a10.28,10.28,0,0,1,1.5,3.7l2.8-.9h0Zm-9.5,6.9h0c-0.9,1-2.1,1-3.5,0l3.2-3.6c1.1,1.8,1.1,2.7.3,3.6h0Zm0.4-11.3h0c0.8-.9,2-1,3.4,0l-3.1,3.5c-1.2-1.8-1.1-2.7-.3-3.5h0Z" transform="translate(-97.9 -254.5)"/><path class="cls-2" d="M412.1,443.2a45.5,45.5,0,1,0-76.5,33.2h62.1a45.42,45.42,0,0,0,14.4-33.2h0Z" transform="translate(-97.9 -254.5)"/><path class="cls-4" d="M353.3,466.6c-8.7,0-15.7-7.4-15.7-16.5s7-16.5,15.7-16.5S369,441,369,450.1s-7,16.5-15.7,16.5h0Z" transform="translate(-97.9 -254.5)"/><path class="cls-2" d="M353.3,466.6v0.8a16.25,16.25,0,0,1-11.7-5.1,17.9,17.9,0,0,1,0-24.4,16,16,0,0,1,23.4,0,17.9,17.9,0,0,1,0,24.4,16.25,16.25,0,0,1-11.7,5.1v-1.6a14.21,14.21,0,0,0,10.5-4.6,16.2,16.2,0,0,0,0-22.2,14.28,14.28,0,0,0-21,0,16.2,16.2,0,0,0,0,22.2,14.6,14.6,0,0,0,10.5,4.6v0.8h0Z" transform="translate(-97.9 -254.5)"/><path class="cls-6" d="M359.7,442.6a10,10,0,0,0-5-2V439h-2.3v1.5c-3.3.3-5.6,2.2-5.6,5.1v0.1c0,3,1.8,4.4,5.7,5.4v5.2a10.34,10.34,0,0,1-4.7-2.3l-1.7,2.4a12.15,12.15,0,0,0,6.3,2.6v2.7h2.3v-2.6c3.4-.3,5.7-2.3,5.7-5.2h0c0-2.8-1.7-4.4-5.8-5.4v-5.1a11.75,11.75,0,0,1,3.6,1.7l1.5-2.5h0Zm-2.4,11.5h0c0,1.3-.9,2.1-2.6,2.3v-4.8c2,0.6,2.6,1.3,2.6,2.5h0Zm-7.3-8.6h0c0-1.2.8-2.1,2.5-2.2V448c-2-.7-2.5-1.4-2.5-2.5h0Z" transform="translate(-97.9 -254.5)"/><path class="cls-4" d="M365.3,449c-8.7,0-15.7-7.4-15.7-16.5s7-16.5,15.7-16.5,15.7,7.4,15.7,16.5S374,449,365.3,449h0Z" transform="translate(-97.9 -254.5)"/><path class="cls-2" d="M365.3,449v0.8a15.87,15.87,0,0,1-11.7-5.1,17.9,17.9,0,0,1,0-24.4,16,16,0,0,1,23.4,0,17.59,17.59,0,0,1,4.8,12.2,17.41,17.41,0,0,1-4.8,12.2,16.25,16.25,0,0,1-11.7,5.1v-1.6a14.21,14.21,0,0,0,10.5-4.6,16.2,16.2,0,0,0,0-22.2,14.6,14.6,0,0,0-10.5-4.6,14.21,14.21,0,0,0-10.5,4.6,16.08,16.08,0,0,0-4.4,11.1,16.27,16.27,0,0,0,4.4,11.1,14.6,14.6,0,0,0,10.5,4.6V449h0Z" transform="translate(-97.9 -254.5)"/><path class="cls-6" d="M371.7,425a10,10,0,0,0-5-2v-1.6h-2.3v1.5c-3.3.3-5.6,2.2-5.6,5.1v0.1c0,3,1.8,4.4,5.7,5.4v5.2a10.34,10.34,0,0,1-4.7-2.3l-1.7,2.4a12.15,12.15,0,0,0,6.3,2.6v2.7h2.3v-2.6c3.4-.3,5.7-2.3,5.7-5.2v-0.1c0-2.8-1.7-4.4-5.8-5.4v-5.1a11.75,11.75,0,0,1,3.6,1.7l1.5-2.4h0Zm-2.5,11.5h0c0,1.3-.9,2.2-2.6,2.3V434c2,0.7,2.6,1.4,2.6,2.5h0Zm-7.3-8.6h0c0-1.2.8-2.1,2.5-2.2v4.7c-2-.7-2.5-1.4-2.5-2.5h0Z" transform="translate(-97.9 -254.5)"/><path class="cls-4" d="M377.2,466.6c-8.7,0-15.7-7.4-15.7-16.5s7-16.5,15.7-16.5,15.7,7.4,15.7,16.5-7,16.5-15.7,16.5h0Z" transform="translate(-97.9 -254.5)"/><path class="cls-2" d="M377.2,466.6v0.8a16.25,16.25,0,0,1-11.7-5.1,17.9,17.9,0,0,1,0-24.4,16,16,0,0,1,23.4,0,17.9,17.9,0,0,1,0,24.4,16.25,16.25,0,0,1-11.7,5.1v-1.6a14.21,14.21,0,0,0,10.5-4.6,16.2,16.2,0,0,0,0-22.2,14.28,14.28,0,0,0-21,0,16.2,16.2,0,0,0,0,22.2,14.6,14.6,0,0,0,10.5,4.6v0.8h0Z" transform="translate(-97.9 -254.5)"/><path class="cls-6" d="M383.6,442.6a10,10,0,0,0-5-2V439h-2.3v1.5c-3.3.3-5.6,2.2-5.6,5.1v0.1c0,3,1.8,4.4,5.7,5.4v5.2a10.34,10.34,0,0,1-4.7-2.3l-1.7,2.4a12.15,12.15,0,0,0,6.3,2.6v2.7h2.3v-2.6c3.4-.3,5.7-2.3,5.7-5.2h0c0-2.8-1.7-4.4-5.8-5.4v-5.1a11.75,11.75,0,0,1,3.6,1.7l1.5-2.5h0Zm-2.5,11.5h0c0,1.3-.9,2.1-2.6,2.3v-4.8c2,0.6,2.6,1.3,2.6,2.5h0Zm-7.2-8.6h0c0-1.2.8-2.1,2.5-2.2V448c-2-.7-2.5-1.4-2.5-2.5h0Z" transform="translate(-97.9 -254.5)"/><path class="cls-4" d="M232.9,408.5a33,33,0,0,1,24.4,10.4,36.16,36.16,0,0,1,9.5,24.9,35.33,35.33,0,0,1-26.7,34.1l-0.7-2.6a32.77,32.77,0,0,0,24.7-31.6,33.59,33.59,0,0,0-8.8-23.1,30.18,30.18,0,0,0-22.5-9.5v-2.6h0.1Z" transform="translate(-97.9 -254.5)"/><polygon class="cls-4" points="141.7 150.9 137 155.3 141.7 159.7 139.9 161.7 133.1 155.3 139.9 149 141.7 151 141.7 150.9"/><path class="cls-4" d="M229.1,478a33,33,0,0,1-24.4-10.4,36.16,36.16,0,0,1-9.5-24.9,34.44,34.44,0,0,1,8.3-22.5,36.24,36.24,0,0,1,20.6-12.1l0.5,2.6a33.37,33.37,0,0,0-19.1,11.2,32,32,0,0,0-7.6,20.8,33.59,33.59,0,0,0,8.8,23.1,30.18,30.18,0,0,0,22.5,9.5V478h-0.1Z" transform="translate(-97.9 -254.5)"/><polygon class="cls-4" points="124.5 226.6 129.2 222.2 124.5 217.8 126.3 215.9 133.1 222.2 126.3 228.5 124.5 226.6"/><polyline class="cls-2" points="214.9 190.8 175.8 190.8 175.8 185.5 214.9 185.5"/><polygon class="cls-2" points="204.5 194.2 211 188.2 204.5 182.1 208.1 178.2 218.7 188.2 208.1 198.1 204.5 194.2"/><path class="cls-4" d="M241.8,428.8a17.06,17.06,0,0,0-8.6-3.7v-2.9h-4V425c-5.7.5-9.6,4.1-9.6,9.3v0.1c0,5.5,3.1,8.1,9.8,10V454c-3-.5-5.4-2-8-4.3l-2.9,4.5a20.81,20.81,0,0,0,10.8,4.8v4.9h4v-4.8c5.8-.6,9.7-4.1,9.7-9.4v-0.1c0-5.2-3-8.1-9.9-10v-9.3a16,16,0,0,1,6.2,3.2l2.5-4.7h0Zm-4.2,21.1h0c0,2.4-1.6,3.9-4.5,4.3v-8.8c3.5,1,4.5,2.3,4.5,4.5h0ZM225.1,434h0c0-2.2,1.5-3.8,4.4-4.1v8.6c-3.6-1.1-4.4-2.4-4.4-4.5h0Z" transform="translate(-97.9 -254.5)"/><path class="cls-2" d="M335.5,476.4a45.7,45.7,0,0,0,53.8,31.1l-53.8-31.1h0Z" transform="translate(-97.9 -254.5)"/><polyline class="cls-2" points="133.3 293.3 153.9 293.3 153.9 290.7 133.3 290.7"/><path class="cls-7" d="M209.5,537.6a3.8,3.8,0,1,1,3.8,3.8A3.68,3.68,0,0,1,209.5,537.6Zm6.7,0a2.86,2.86,0,0,0-2.9-3,2.92,2.92,0,0,0-2.9,3A2.9,2.9,0,1,0,216.2,537.6Z" transform="translate(-97.9 -254.5)"/><path class="cls-7" d="M218.6,533.9h1.1l4.2,6.1h0v-6.1h0.9v7.3h-1.1l-4.2-6.1h0v6.1h-0.9v-7.3Z" transform="translate(-97.9 -254.5)"/><path class="cls-4" d="M235.2,533.7a3.65,3.65,0,0,1,3.9,3.8A3.9,3.9,0,1,1,235.2,533.7Zm0,6.2a2.4,2.4,0,1,0-2.3-2.4A2.35,2.35,0,0,0,235.2,539.9Z" transform="translate(-97.9 -254.5)"/><path class="cls-4" d="M240.4,533.9h4.9v1.5H242v1.5h3v1.5h-3v2.9h-1.6v-7.4Z" transform="translate(-97.9 -254.5)"/><path class="cls-4" d="M246.4,533.9h4.9v1.5H248v1.5h3v1.5h-3v2.9h-1.6v-7.4Z" transform="translate(-97.9 -254.5)"/><path class="cls-4" d="M401.4,527.7c-2.4,1.7-25.1,15.1-28.3,17-3.8,2.2-4.7,2.4-10.4.6a113.82,113.82,0,0,1-13-4.8c-3.5-1.6-5.9-1.7-8.6,0l-29.5,16.7-15.2-19.6,31-15.1s7.7-3.6,12.3-5.4c7.5-2.9,9.8-1.5,14,1.1,1.8,1.1,7.5,5.3,7.5,5.3s3.6,3.4,11,3.4c4.5,0,7.4.5,7.4,3.3,0,3.1-5.7,3.3-5.7,3.3H363.2c-4.8,0-11.4-2.7-11.4-2.7s5.6,6.1,11.4,6.1h10.7c3.1-.1,9-1.6,9-6.6,0-6.6-6-6.6-13.5-6.6a9.85,9.85,0,0,1-1.7-.2c0.3-.2.6-0.3,0.9-0.5,1.3-.8,3.2-1.9,5.2-3.1,5.4-3.3,8.2-3.8,10.8-.2a8.53,8.53,0,0,1,6.3-2.4c2.3,0,4.2,1.5,3.7,3.9,5.8-3.5,8.7-2.1,10-.4,1.7,2,.5,4.3-3.2,6.9h0Z" transform="translate(-97.9 -254.5)"/></svg>