<svg id="Layer_1" data-name="Layer 1" xmlns="http://www.w3.org/2000/svg" viewBox="0 0 418.3 197.1"><defs><style>.cls-1{fill:#edf2f0;}.cls-2{fill:#fff;}.cls-3{fill:#333e48;}.cls-4{fill:#ef4037;}</style></defs><title>Our EQF Approach</title><polygon class="cls-1" points="387.1 179.9 418.3 132 387.1 84.1 238.1 84.1 238.1 180 387.1 179.9"/><polygon class="cls-2" points="262 179.9 293.2 132 262 84.1 120.2 84.1 120.2 180 262 179.9"/><polygon class="cls-1" points="258.6 179.9 289.7 132 258.6 84.1 96.8 84.1 96.8 180 258.6 179.9"/><polygon class="cls-2" points="125.4 179.9 156.6 132 125.4 84.1 3.5 84.1 3.5 180 125.4 179.9"/><polygon class="cls-1" points="122 179.9 153.1 132 122 84.1 0 84.1 0 180 122 179.9"/><path class="cls-3" d="M208.8,350.6h0a6.92,6.92,0,0,1,7.1-7,6.75,6.75,0,0,1,7,6.9h0a6.92,6.92,0,0,1-7.1,7A6.75,6.75,0,0,1,208.8,350.6Zm11.7,0h0a4.6,4.6,0,1,0-9.2,0h0A4.6,4.6,0,1,0,220.5,350.6Z" transform="translate(-87.6 -322.1)"/><path class="cls-3" d="M225.4,353.6v-6.5h2.3v5.8c0,1.6.8,2.5,2.2,2.5a2.21,2.21,0,0,0,2.3-2.5v-5.7h2.4v10.2h-2.4v-1.6a3.66,3.66,0,0,1-3.2,1.8C226.8,357.5,225.4,356,225.4,353.6Z" transform="translate(-87.6 -322.1)"/><path class="cls-3" d="M237.5,347.1h2.3v2.3a3.58,3.58,0,0,1,3.6-2.5v2.5h-0.1c-2,0-3.5,1.3-3.5,4v3.9h-2.3V347.1Z" transform="translate(-87.6 -322.1)"/><path class="cls-3" d="M251.5,343.8h10v2.1h-7.6v3.5h6.8v2.1h-6.8v3.6h7.7v2.1H251.5V343.8h0Z" transform="translate(-87.6 -322.1)"/><path class="cls-3" d="M276.6,357.7l-1.6-1.4a6.91,6.91,0,0,1-4.1,1.3,6.81,6.81,0,0,1-7-6.9h0a6.92,6.92,0,0,1,7.1-7,6.75,6.75,0,0,1,7,6.9h0a6.56,6.56,0,0,1-1.4,4.1l1.5,1.3Zm-3.3-3-2.3-2,1.5-1.7,2.4,2.2a5.28,5.28,0,0,0,.7-2.6h0a4.63,4.63,0,0,0-4.6-4.8,4.57,4.57,0,0,0-4.6,4.8h0a4.63,4.63,0,0,0,4.6,4.8A6.15,6.15,0,0,0,273.3,354.7Z" transform="translate(-87.6 -322.1)"/><path class="cls-3" d="M280.9,343.8h10V346h-7.7v3.7H290v2.2h-6.8v5.5h-2.4V343.8h0.1Z" transform="translate(-87.6 -322.1)"/><path class="cls-3" d="M304.1,343.7h2.2l5.9,13.6h-2.5l-1.4-3.3H302l-1.4,3.3h-2.4Zm3.4,8.2-2.3-5.4-2.3,5.4h4.6Z" transform="translate(-87.6 -322.1)"/><path class="cls-3" d="M314.3,347.1h2.3v1.7a4,4,0,0,1,3.5-1.9c2.4,0,4.7,1.9,4.7,5.3h0c0,3.4-2.3,5.3-4.7,5.3a4.06,4.06,0,0,1-3.5-1.8v4.7h-2.3V347.1Zm8.1,5.1h0a3,3,0,0,0-2.9-3.3,3.09,3.09,0,0,0-3,3.3h0a3.15,3.15,0,0,0,3,3.3A3,3,0,0,0,322.4,352.2Z" transform="translate(-87.6 -322.1)"/><path class="cls-3" d="M327.2,347.1h2.3v1.7a4,4,0,0,1,3.5-1.9c2.4,0,4.7,1.9,4.7,5.3h0c0,3.4-2.3,5.3-4.7,5.3a4.06,4.06,0,0,1-3.5-1.8v4.7h-2.3V347.1Zm8.2,5.1h0a3,3,0,0,0-2.9-3.3,3.09,3.09,0,0,0-3,3.3h0a3.15,3.15,0,0,0,3,3.3A3,3,0,0,0,335.4,352.2Z" transform="translate(-87.6 -322.1)"/><path class="cls-3" d="M340.2,347.1h2.3v2.3a3.58,3.58,0,0,1,3.6-2.5v2.5H346c-2,0-3.5,1.3-3.5,4v3.9h-2.3V347.1Z" transform="translate(-87.6 -322.1)"/><path class="cls-3" d="M347.2,352.3h0a5.4,5.4,0,0,1,10.8-.1h0a5.32,5.32,0,0,1-5.5,5.3A5.19,5.19,0,0,1,347.2,352.3Zm8.5,0h0a3.16,3.16,0,0,0-3.1-3.3,3.07,3.07,0,0,0-3.1,3.2h0a3.16,3.16,0,0,0,3.1,3.3A3,3,0,0,0,355.7,352.3Z" transform="translate(-87.6 -322.1)"/><path class="cls-3" d="M359.8,354.4h0c0-2.2,1.7-3.3,4.2-3.3a10.26,10.26,0,0,1,2.7.4v-0.3c0-1.4-.9-2.2-2.5-2.2a8.8,8.8,0,0,0-2.9.6l-0.6-1.8a8.55,8.55,0,0,1,3.8-.8,4.78,4.78,0,0,1,3.4,1.1,3.94,3.94,0,0,1,1.1,3.1v6h-2.3V356a4.31,4.31,0,0,1-3.3,1.5C361.5,357.5,359.8,356.4,359.8,354.4Zm7-.8v-0.7a7.31,7.31,0,0,0-2.3-.4c-1.5,0-2.4.6-2.4,1.7h0c0,1,.9,1.5,2,1.5A2.3,2.3,0,0,0,366.8,353.6Z" transform="translate(-87.6 -322.1)"/><path class="cls-3" d="M371.2,352.3h0a5.29,5.29,0,0,1,5.3-5.4,5.12,5.12,0,0,1,4.1,1.8l-1.5,1.6a3.32,3.32,0,0,0-2.6-1.3,3.12,3.12,0,0,0-3,3.2h0a3.15,3.15,0,0,0,3,3.3,3.32,3.32,0,0,0,2.6-1.3l1.4,1.4a5.25,5.25,0,0,1-4.2,1.9A5.14,5.14,0,0,1,371.2,352.3Z" transform="translate(-87.6 -322.1)"/><path class="cls-3" d="M382.8,343.2h2.3v5.5a3.88,3.88,0,0,1,3.2-1.8c2.3,0,3.6,1.5,3.6,3.9v6.5h-2.3v-5.8c0-1.6-.8-2.5-2.2-2.5a2.21,2.21,0,0,0-2.3,2.5v5.7h-2.3v-14h0Z" transform="translate(-87.6 -322.1)"/><path class="cls-3" d="M130.3,509.9a4.34,4.34,0,0,0-3.6-1.6,5.45,5.45,0,1,0,0,10.9,5,5,0,0,0,3.9-1.8l-1.5-1.1a2.92,2.92,0,0,1-2.3,1.3,3.6,3.6,0,0,1-3.6-3.9,3.49,3.49,0,0,1,3.6-3.7,2.92,2.92,0,0,1,2.2,1l1.3-1.1h0Zm0.9,3.9a5.22,5.22,0,0,0,5.5,5.4,5.3,5.3,0,0,0,5.5-5.5,5.12,5.12,0,0,0-5.5-5.4,5.25,5.25,0,0,0-5.5,5.5h0Zm2-.1a3.6,3.6,0,1,1,7.2,0,3.6,3.6,0,0,1-3.6,3.9,3.66,3.66,0,0,1-3.6-3.9h0Zm11,5.2h6.2v-1.7H146v-8.7h-1.8v10.4h0Zm7.7,0h6.2v-1.7h-4.4v-8.7h-1.8v10.4h0Zm7.8,0h7.1v-1.7h-5.3v-2.8h4.8v-1.7h-4.8v-2.5h5v-1.7h-6.9v10.4h0.1Zm17.5-9a4.34,4.34,0,0,0-3.6-1.6,5.45,5.45,0,1,0,0,10.9,5,5,0,0,0,3.9-1.8l-1.5-1.1a2.92,2.92,0,0,1-2.3,1.3,3.6,3.6,0,0,1-3.6-3.9,3.49,3.49,0,0,1,3.6-3.7,2.92,2.92,0,0,1,2.2,1l1.3-1.1h0Zm4.2,9h1.8v-8.7h3.2v-1.7h-8.2v1.7h3.2v8.7h0Z" transform="translate(-87.6 -322.1)"/><path class="cls-3" d="M266.7,518.9h3.9c2.5,0,5.5-1.6,5.5-5.2a5,5,0,0,0-5.3-5.2h-4.1v10.4h0Zm1.8-1.6v-7h1.7c2.3,0,3.9,1,3.9,3.5s-1.9,3.5-4.2,3.5h-1.4Zm9.5,1.6h7.1v-1.7h-5.3v-2.8h4.8v-1.7h-4.8v-2.5h5v-1.7H278v10.4h0Zm9.1,0h3.7c2,0,3.9-.7,3.9-3a2.42,2.42,0,0,0-2.2-2.5h0a2.27,2.27,0,0,0,1.8-2.3c0-1.9-1.6-2.6-3.2-2.6h-4v10.4h0Zm1.9-8.8h1.5c1.4,0,2,.4,2,1.3s-0.6,1.3-1.8,1.3H289v-2.6h0Zm0,4.3h1.8c1.5,0,2.2.4,2.2,1.5,0,1.4-1.3,1.5-2.3,1.5H289v-3h0Zm6.5,4.5h2.1l0.9-2.4H303l1,2.4h2.1l-4.5-10.4H300l-4.5,10.4h0Zm3.6-3.9,1.6-4.2,1.6,4.2h-3.2Zm9.5,3.9h1.8v-8.7h3.2v-1.7h-8.2v1.7h3.2v8.7h0Zm6.4,0h7.1v-1.7h-5.3v-2.8h4.8v-1.7h-4.8v-2.5h5v-1.7H315v10.4h0Z" transform="translate(-87.6 -322.1)"/><path class="cls-3" d="M403.9,518.9h3.9c2.5,0,5.5-1.6,5.5-5.2a5,5,0,0,0-5.3-5.2h-4.1v10.4h0Zm1.9-1.6v-7h1.7c2.3,0,3.9,1,3.9,3.5s-1.9,3.5-4.2,3.5h-1.4Zm9.4,1.6h7.1v-1.7H417v-2.8h4.8v-1.7H417v-2.5h5v-1.7h-6.9v10.4h0.1Zm17.5-9a4.34,4.34,0,0,0-3.6-1.6,5.45,5.45,0,1,0,0,10.9,5,5,0,0,0,3.9-1.8l-1.5-1.1a2.92,2.92,0,0,1-2.3,1.3,3.6,3.6,0,0,1-3.6-3.9,3.49,3.49,0,0,1,3.6-3.7,2.92,2.92,0,0,1,2.2,1l1.3-1.1h0Zm1.7,9h1.8V508.5h-1.8v10.4h0Zm4.3,0h3.9c2.5,0,5.5-1.6,5.5-5.2a5,5,0,0,0-5.3-5.2h-4.1v10.4h0Zm1.8-1.6v-7h1.7c2.3,0,3.9,1,3.9,3.5s-1.9,3.5-4.2,3.5h-1.4Zm9.5,1.6h7.1v-1.7h-5.3v-2.8h4.8v-1.7h-4.8v-2.5h5v-1.7H450v10.4h0Z" transform="translate(-87.6 -322.1)"/><polygon class="cls-4" points="338 168.3 330.8 162 322.3 166.3 328.7 116.6 344.4 118.6 338 168.3"/><polygon class="cls-4" points="370.3 152.8 360.8 153.3 357.8 162.4 327.3 122.7 339.8 113.1 370.3 152.8"/><path class="cls-2" d="M443.4,440.1a20,20,0,1,1-25-13.3,20,20,0,0,1,25,13.3h0Z" transform="translate(-87.6 -322.1)"/><path class="cls-2" d="M443.4,440.1l-1.1.3a17.45,17.45,0,0,1,.8,5.5A18.9,18.9,0,0,1,429.7,464a17.45,17.45,0,0,1-5.5.8,18.9,18.9,0,0,1-18.1-13.4,17.45,17.45,0,0,1-.8-5.5,18.9,18.9,0,0,1,13.4-18.1,17.45,17.45,0,0,1,5.5-.8,18.9,18.9,0,0,1,18.1,13.4l1.1-.3,1.1-.3a21.15,21.15,0,0,0-20.2-15,22.68,22.68,0,0,0-6.2.9,21.15,21.15,0,0,0-15,20.2,22.68,22.68,0,0,0,.9,6.2,21.15,21.15,0,0,0,20.2,15,22.68,22.68,0,0,0,6.2-.9,21.15,21.15,0,0,0,15-20.2,22.68,22.68,0,0,0-.9-6.2l-1.1.3h0Z" transform="translate(-87.6 -322.1)"/><path class="cls-3" d="M442.4,439.6a19.33,19.33,0,1,1-24.1-12.9,19.27,19.27,0,0,1,24.1,12.9h0Z" transform="translate(-87.6 -322.1)"/><polygon class="cls-2" points="330.1 119.7 332.1 111 338.7 117.1 330.1 119.7"/><path class="cls-2" d="M426,452.7l-9.1-8.3,12-3.7-2.9,12h0Zm-5.6-7.5,4.6,4.2,1.5-6-6.1,1.8h0Z" transform="translate(-87.6 -322.1)"/><polygon class="cls-2" points="326.2 134.9 328.5 125.1 335.9 132 326.2 134.9"/><polygon class="cls-2" points="341.2 130.3 343.5 120.5 350.8 127.4 341.2 130.3"/><polygon class="cls-3" points="193 126.5 206.8 102.5 220.7 126.5 193 126.5"/><path class="cls-4" d="M294.4,484.4l-17.2-29.1h34.5l-17.3,29.1h0Zm-8.6-24.2,8.6,14.6,8.6-14.6H285.8Z" transform="translate(-87.6 -322.1)"/><polygon class="cls-3" points="171.5 163.8 185.3 139.8 199.2 163.8 171.5 163.8"/><polygon class="cls-3" points="214.4 163.8 228.3 139.8 242.2 163.8 214.4 163.8"/><path class="cls-2" d="M297.9,444.7l-1-.9a4.46,4.46,0,0,1-2.6.8,4.31,4.31,0,0,1-4.4-4.4h0a4.4,4.4,0,0,1,8.8,0h0a3.92,3.92,0,0,1-.9,2.6l1,0.8-0.9,1.1h0Zm-2.1-1.8-1.5-1.2,1-1.1,1.5,1.4a2.93,2.93,0,0,0,.4-1.6h0a2.92,2.92,0,0,0-2.9-3,2.86,2.86,0,0,0-2.9,3h0a2.92,2.92,0,0,0,2.9,3,13.07,13.07,0,0,0,1.5-.5h0Z" transform="translate(-87.6 -322.1)"/><polygon class="cls-2" points="182.3 151.1 188.6 151.1 188.6 152.4 183.8 152.4 183.8 154.6 188 154.6 188 155.9 183.8 155.9 183.8 158.2 188.6 158.2 188.6 159.5 182.3 159.5 182.3 151.1"/><polygon class="cls-2" points="225.3 151.1 231.6 151.1 231.6 152.4 226.8 152.4 226.8 154.7 231.1 154.7 231.1 156.1 226.8 156.1 226.8 159.5 225.3 159.5 225.3 151.1"/><path class="cls-4" d="M153.2,420.7l16.6,28H136.7l16.5-28h0Zm8.3,23.3-8.3-14-8.3,14h16.6Z" transform="translate(-87.6 -322.1)"/><path class="cls-4" d="M132.1,457.2l16.5,28H115.5l16.6-28h0Zm8.3,23.3-8.3-14-8.3,14h16.6Z" transform="translate(-87.6 -322.1)"/><path class="cls-4" d="M173.5,457.2l16.6,28H157l16.5-28h0Zm8.3,23.3-8.3-14-8.3,14h16.6Z" transform="translate(-87.6 -322.1)"/><path class="cls-1" d="M118.5,467.5h0v0.2a7.3,7.3,0,0,0,.3,2.2,8,8,0,0,0,1.6,3,4.11,4.11,0,0,0,2.1,1,24.3,24.3,0,0,0,4.7.8c1.5,0.1,2.8.1,3.3,0.1h0.2v1.5h-0.2a40.86,40.86,0,0,1-5.1-.3,20.54,20.54,0,0,1-3.4-.7,5.81,5.81,0,0,1-2.7-1.4,8.18,8.18,0,0,1-2-3.6,10.49,10.49,0,0,1-.3-2.6v-0.2h1.5Z" transform="translate(-87.6 -322.1)"/><path class="cls-1" d="M187.5,467.5h0v0.2a7.3,7.3,0,0,1-.3,2.2,8,8,0,0,1-1.6,3,4.11,4.11,0,0,1-2.1,1,24.3,24.3,0,0,1-4.7.8c-1.5.1-2.8,0.1-3.3,0.1h-0.2v1.5h0.2a40.86,40.86,0,0,0,5.1-.3,20.54,20.54,0,0,0,3.4-.7,5.81,5.81,0,0,0,2.7-1.4,8.18,8.18,0,0,0,2-3.6,10.49,10.49,0,0,0,.3-2.6v-0.2h-1.5Z" transform="translate(-87.6 -322.1)"/><path class="cls-1" d="M138.9,430.7h0v0.2a7.3,7.3,0,0,0,.3,2.2,8,8,0,0,0,1.6,3,4.11,4.11,0,0,0,2.1,1,24.3,24.3,0,0,0,4.7.8c1.5,0.1,2.8.1,3.3,0.1h0.2v1.5h-0.2a40.86,40.86,0,0,1-5.1-.3,20.54,20.54,0,0,1-3.4-.7,5.81,5.81,0,0,1-2.7-1.4,8.18,8.18,0,0,1-2-3.6,10.49,10.49,0,0,1-.3-2.6v-0.2h1.5Z" transform="translate(-87.6 -322.1)"/><polygon class="cls-3" points="78.5 133.2 65.2 156.3 51.9 133.2 78.5 133.2"/><polygon class="cls-3" points="27.8 134.1 33.9 134.1 33.9 135.3 29.3 135.3 29.3 137.4 33.4 137.4 33.4 138.7 29.3 138.7 29.3 140.9 33.9 140.9 33.9 142.2 27.8 142.2 27.8 134.1"/><path class="cls-3" d="M118.9,466.9h0v0.2a7.3,7.3,0,0,0,.3,2.2,8,8,0,0,0,1.6,3,4.11,4.11,0,0,0,2.1,1,24.3,24.3,0,0,0,4.7.8c1.5,0.1,2.8.1,3.3,0.1h0.2v1.5h-0.2a40.86,40.86,0,0,1-5.1-.3,20.54,20.54,0,0,1-3.4-.7,5.81,5.81,0,0,1-2.7-1.4,8.18,8.18,0,0,1-2-3.6,10.49,10.49,0,0,1-.3-2.6v-0.2h1.5Z" transform="translate(-87.6 -322.1)"/><path class="cls-3" d="M187.1,466.9h0v0.2a7.3,7.3,0,0,1-.3,2.2,8,8,0,0,1-1.6,3,4.11,4.11,0,0,1-2.1,1,24.3,24.3,0,0,1-4.7.8c-1.5.1-2.8,0.1-3.3,0.1h-0.2v1.5h0.2a40.86,40.86,0,0,0,5.1-.3,20.54,20.54,0,0,0,3.4-.7,5.81,5.81,0,0,0,2.7-1.4,8.18,8.18,0,0,0,2-3.6,10.49,10.49,0,0,0,.3-2.6v-0.2h-1.5Z" transform="translate(-87.6 -322.1)"/><path class="cls-3" d="M139.3,430.1h0v0.2a7.3,7.3,0,0,0,.3,2.2,8,8,0,0,0,1.6,3,4.11,4.11,0,0,0,2.1,1,24.3,24.3,0,0,0,4.7.8c1.5,0.1,2.8.1,3.3,0.1h0.2v1.5h-0.2a40.86,40.86,0,0,1-5.1-.3,20.54,20.54,0,0,1-3.4-.7,5.81,5.81,0,0,1-2.7-1.4,8.18,8.18,0,0,1-2-3.6,10.49,10.49,0,0,1-.3-2.6v-0.2h1.5Z" transform="translate(-87.6 -322.1)"/><path class="cls-3" d="M141.9,428l-1-.9a4.15,4.15,0,0,1-2.5.8,4.1,4.1,0,0,1-4.2-4.2h0a4.19,4.19,0,0,1,4.3-4.2,4.1,4.1,0,0,1,4.2,4.2h0a4.38,4.38,0,0,1-.8,2.5l0.9,0.8-0.9,1h0Zm-2.1-1.8-1.4-1.2,0.9-1,1.4,1.3a2.6,2.6,0,0,0,.4-1.5h0a2.75,2.75,0,1,0-5.5,0h0a2.82,2.82,0,0,0,2.8,2.9,2.92,2.92,0,0,0,1.4-.5h0Z" transform="translate(-87.6 -322.1)"/><polygon class="cls-3" points="98.5 134.1 104.6 134.1 104.6 135.4 99.9 135.4 99.9 137.6 104 137.6 104 138.9 99.9 138.9 99.9 142.2 98.5 142.2 98.5 134.1"/><polyline class="cls-3" points="43.4 155.4 46.1 152.7 43.5 150"/><polyline class="cls-3" points="63.7 118.6 66.3 115.9 63.7 113.3"/><polyline class="cls-3" points="87.9 155.4 85.2 152.7 87.8 150"/><path class="cls-2" d="M171,381.1a29.5,29.5,0,1,0-29.5-29.5A29.49,29.49,0,0,0,171,381.1h0Z" transform="translate(-87.6 -322.1)"/><path class="cls-3" d="M170.8,379.4a27.6,27.6,0,1,1,27.6-27.6,27.66,27.66,0,0,1-27.6,27.6h0Zm0-50.3a22.6,22.6,0,1,0,22.6,22.6,22.64,22.64,0,0,0-22.6-22.6h0Z" transform="translate(-87.6 -322.1)"/><polygon class="cls-3" points="77.3 23.6 83.6 12.7 89.9 23.6 77.3 23.6"/><path class="cls-3" d="M171.2,361.9l-7.8-13.2H179l-7.8,13.2h0Zm-3.9-11,3.9,6.6,3.9-6.6h-7.8Z" transform="translate(-87.6 -322.1)"/><polygon class="cls-3" points="67.6 40.4 73.9 29.6 80.1 40.4 67.6 40.4"/><polygon class="cls-3" points="87 40.4 93.3 29.6 99.6 40.4 87 40.4"/></svg>