<svg id="Layer_1" data-name="Layer 1" xmlns="http://www.w3.org/2000/svg" viewBox="0 0 223.4 70.1"><defs><style>.cls-1{fill:#333e48;}</style></defs><title>Our Active Asset Allocation-text</title><path class="cls-1" d="M187.8,445.3a7.15,7.15,0,0,1,4.4-1.6c2.5,0,3.7,1.5,3.7,3v0.6h-2.2c-4.7,0-8.6,1.3-8.6,4.9,0,2.7,2.5,4.2,5.4,4.2a6,6,0,0,0,5.4-2.5H196a17,17,0,0,0,.1,2.2h2.6a20.12,20.12,0,0,1-.1-2.6v-7.2c0-2.4-1.9-4.7-6.5-4.7a9.89,9.89,0,0,0-6.2,2.1l1.9,1.6h0Zm8.2,3.9v0.9c0,1.9-1.1,4.1-4.4,4.1-2,0-3.3-.7-3.3-2.3,0-2.3,3.4-2.7,6.2-2.7H196Zm17.6-5.3c-1.1-1.7-3.2-2.3-5.3-2.3-2.9,0-5.9,1.4-5.9,4.4,0,2.7,2.2,3.5,4.8,4,1.3,0.3,3.7.6,3.7,2.2,0,1.2-1.6,1.8-3.2,1.8a5.41,5.41,0,0,1-3.8-1.7l-2.2,1.7c1.5,1.9,3.4,2.5,6,2.5,3.1,0,6.3-1.3,6.3-4.5,0-2.7-2-3.6-4.5-4.1-1.3-.3-4-0.5-4-2.2,0-1,1.2-1.6,2.6-1.6a4,4,0,0,1,3.2,1.4l2.3-1.6h0Zm14.6,0c-1.1-1.7-3.2-2.3-5.3-2.3-2.9,0-5.9,1.4-5.9,4.4,0,2.7,2.2,3.5,4.8,4,1.3,0.3,3.7.6,3.7,2.2,0,1.2-1.6,1.8-3.2,1.8a5.41,5.41,0,0,1-3.8-1.7l-2.2,1.7c1.5,1.9,3.4,2.5,6,2.5,3.1,0,6.3-1.3,6.3-4.5,0-2.7-2-3.6-4.5-4.1-1.3-.3-4-0.5-4-2.2,0-1,1.2-1.6,2.6-1.6a4,4,0,0,1,3.2,1.4l2.3-1.6h0Zm18.5,6.1v-1c0-3.6-2.1-7.5-7.6-7.5-4.7,0-8,3.2-8,7.4s3.1,7.4,8,7.4a8.55,8.55,0,0,0,6.9-2.9l-2.2-1.6a5.45,5.45,0,0,1-4.3,2.1c-2.7,0-5.3-1.6-5.3-4.1h12.5V450Zm-12.5-2.2c0-1.9,1.9-4.1,4.8-4.1s4.4,1.8,4.5,4.1h-9.3Zm24.5-5.9h-4.2v-4h-3v4h-3.4v2.3h3.4v7.4c0,2.3.1,4.8,4.6,4.8a6.76,6.76,0,0,0,2.7-.5v-2.4a4.92,4.92,0,0,1-2.1.4c-2.2,0-2.2-1.7-2.2-3.3v-6.4h4.2v-2.3h0Zm14.7,3.4a7.15,7.15,0,0,1,4.4-1.6c2.5,0,3.7,1.5,3.7,3v0.6h-2.2c-4.7,0-8.6,1.3-8.6,4.9,0,2.7,2.5,4.2,5.4,4.2a6,6,0,0,0,5.4-2.5h0.1a17,17,0,0,0,.1,2.2h2.6a20.12,20.12,0,0,1-.1-2.6v-7.2c0-2.4-1.9-4.7-6.5-4.7a9.89,9.89,0,0,0-6.2,2.1l1.9,1.6h0Zm8.2,3.9v0.9c0,1.9-1.1,4.1-4.4,4.1-2,0-3.3-.7-3.3-2.3,0-2.3,3.4-2.7,6.2-2.7h1.5Zm7.2,6.9h3V433.5h-3v22.6h0Zm7.6,0h3V433.5h-3v22.6h0Zm9.8-7.1a5.1,5.1,0,1,1,5.1,4.9,4.78,4.78,0,0,1-5.1-4.9h0Zm-3.2,0c0,4.1,3.6,7.4,8.3,7.4s8.3-3.3,8.3-7.4-3.6-7.4-8.3-7.4-8.3,3.3-8.3,7.4h0Zm33.5-5.2a8.4,8.4,0,0,0-6-2.2c-4.9,0-8.1,3.1-8.1,7.5s3.3,7.4,8.1,7.4a7.76,7.76,0,0,0,5.9-2.2l-2.1-1.9a5,5,0,0,1-3.8,1.6,4.73,4.73,0,0,1-5-4.8c0-2.7,1.6-5,4.9-5a5.13,5.13,0,0,1,3.9,1.6l2.2-2h0Zm4.6,1.5a7.15,7.15,0,0,1,4.4-1.6c2.5,0,3.7,1.5,3.7,3v0.6H347c-4.7,0-8.6,1.3-8.6,4.9,0,2.7,2.5,4.2,5.4,4.2a6,6,0,0,0,5.4-2.5h0.1a17,17,0,0,0,.1,2.2H352a20.12,20.12,0,0,1-.1-2.6v-7.2c0-2.4-1.9-4.7-6.5-4.7a9.89,9.89,0,0,0-6.2,2.1l1.9,1.6h0Zm8.1,3.9v0.9c0,1.9-1.1,4.1-4.4,4.1-2,0-3.3-.7-3.3-2.3,0-2.3,3.4-2.7,6.2-2.7h1.5Zm15.5-7.3h-4.2v-4h-3v4h-3.4v2.3h3.4v7.4c0,2.3.1,4.8,4.6,4.8a6.76,6.76,0,0,0,2.7-.5v-2.4a4.92,4.92,0,0,1-2.1.4c-2.2,0-2.2-1.7-2.2-3.3v-6.4h4.2v-2.3h0Zm3.3,14.2h3V441.9h-3v14.2h0Zm-0.7-19.3a2.21,2.21,0,1,0,2.2-2,2.12,2.12,0,0,0-2.2,2h0ZM377.8,449a4.73,4.73,0,0,1,5.1-4.9A4.78,4.78,0,0,1,388,449a4.73,4.73,0,0,1-5.1,4.9,4.78,4.78,0,0,1-5.1-4.9h0Zm-3.2,0c0,4.1,3.6,7.4,8.3,7.4s8.3-3.3,8.3-7.4-3.6-7.4-8.3-7.4-8.3,3.3-8.3,7.4h0Zm20.1,7.1h3v-7.3c0-3.3,1.9-4.7,4.3-4.7a3.23,3.23,0,0,1,3.5,3.6v8.4h3V447c0-3.8-2.6-5.4-5.6-5.4-2.4,0-4.4,1-5.1,2.5h-0.1v-2.2h-3v14.2h0Z" transform="translate(-185.1 -386.4)"/><path class="cls-1" d="M189.4,407.4a12.46,12.46,0,0,1,8.3-3c4.4,0,6.9,2.1,6.9,6.2v0.8h-1.8c-6.9,0-17.6.5-17.6,9.8,0,5.4,4.7,8.3,10.4,8.3a10.49,10.49,0,0,0,9.2-4.9h0.1a20.28,20.28,0,0,0,.3,4.2h4.5a35.83,35.83,0,0,1-.4-4.8V412c0-7.9-3.5-11.8-11.7-11.8a15.48,15.48,0,0,0-11.1,4.3l2.9,2.9h0Zm15.3,7.9v1.8c-0.1,4.5-2.9,8.4-8.3,8.4-3.5,0-6.2-1.3-6.2-4.8,0-3.8,3.8-5.4,9.8-5.4h4.7Zm36.4-10.9a14,14,0,0,0-10.8-4.4c-8.6,0-14.5,6.2-14.5,14.7s5.8,14.7,14.5,14.7a13.64,13.64,0,0,0,10.6-4.5l-3.5-3.3a8.17,8.17,0,0,1-7.1,3.5c-5.7,0-9.5-4.7-9.5-10.4s3.2-10.4,9.5-10.4a8.69,8.69,0,0,1,7.1,3.4l3.7-3.3h0Zm22.2-3.7H255v-8h-4.7v8h-6.1v3.9h6.1V420c0,5.8,1.1,9.4,7.7,9.4a14.36,14.36,0,0,0,5.4-1l-0.2-4.2a8.85,8.85,0,0,1-4.1,1c-4.1,0-4.2-2.9-4.2-6.5v-14h8.3v-4h0.1Zm5.6,28h4.7v-28h-4.7v28h0Zm-1.1-38.9a3.4,3.4,0,1,0,6.8,0,3.4,3.4,0,1,0-6.8,0h0Zm38.5,10.9h-5l-8.3,22h-0.1l-8.7-22h-5.4l11.4,28h5.1l11-28h0Zm25.2,20.2a10.39,10.39,0,0,1-8.9,4.2c-5.1,0-8.8-4.1-9.2-9H336v-1.5c0-9.3-5.4-14.7-13.3-14.7-8.3,0-14.4,6-14.4,14.7,0,8.1,5.4,14.7,14.2,14.7,5.2,0,9.2-1.6,12.4-5.8l-3.4-2.6h0Zm-18-8.7c0.6-4.7,4-7.9,9.2-7.9s8.3,3.2,8.4,7.9H313.5Z" transform="translate(-185.1 -386.4)"/></svg>