<svg id="Layer_1" data-name="Layer 1" xmlns="http://www.w3.org/2000/svg" xmlns:xlink="http://www.w3.org/1999/xlink" viewBox="0 0 421.9 166.3"><defs><style>.cls-1{fill:none;}.cls-2{fill:#333e48;}.cls-3{fill:#fff;}.cls-4{fill:#27aae1;}.cls-5{fill:#abbcd1;}.cls-6{fill:#72963d;}.cls-7{clip-path:url(#clip-path);}.cls-8{fill:#e9ecf1;}.cls-9{fill:#084269;}.cls-10{clip-path:url(#clip-path-3);}</style><clipPath id="clip-path" transform="translate(-86.6 -338.2)"><path class="cls-1" d="M228.8,461.7a23,23,0,1,1,23-23,23,23,0,0,1-23,23"/></clipPath><clipPath id="clip-path-3" transform="translate(-86.6 -338.2)"><path class="cls-1" d="M420,461.9a20.7,20.7,0,1,1,20.7-20.7A20.59,20.59,0,0,1,420,461.9"/></clipPath></defs><title>Risk Assist 1</title><polygon class="cls-2" points="421.9 166.3 421.9 0 0 0 0 166.3 421.9 166.3"/><polygon class="cls-3" points="376.2 143.2 377.2 143.2 377.2 55.3 226.6 55.3 226.6 144.2 377.2 144.2 377.2 143.2 376.2 143.2 376.2 142.2 228.6 142.2 228.6 57.3 375.2 57.3 375.2 143.2 376.2 143.2 376.2 142.2 376.2 143.2"/><polygon class="cls-2" points="382.7 111.6 382.7 46.7 321 46.7 321 111.6 382.7 111.6"/><polygon class="cls-3" points="179 143 180 143 180 54.2 29.4 54.2 29.4 144 180 144 180 143 179 143 179 142 31.4 142 31.4 56.2 178 56.2 178 143 179 143 179 142 179 143"/><polygon class="cls-2" points="199 93.8 199 35.2 142.9 35.2 142.9 93.8 199 93.8"/><path class="cls-4" d="M116.5,368.1a2.51,2.51,0,0,0-2.1-1,3.36,3.36,0,0,0-3.2,3.5,3.24,3.24,0,0,0,3.2,3.5,3,3,0,0,0,2.5-1.2l0.8,0.6a3.93,3.93,0,0,1-3.2,1.5,4.5,4.5,0,0,1,0-9,3.67,3.67,0,0,1,3,1.3Z" transform="translate(-86.6 -338.2)"/><path class="cls-4" d="M121.5,369a3,3,0,1,1-3,3A2.89,2.89,0,0,1,121.5,369Zm0,5.1a2.1,2.1,0,1,0-2-2.1A2,2,0,0,0,121.5,374.1Z" transform="translate(-86.6 -338.2)"/><path class="cls-4" d="M125.9,370.5v-1.3h0.9v0.9h0a2,2,0,0,1,1.9-1.1c1.5,0,2.1.9,2.1,2.3v3.5h-0.9v-3.4a1.27,1.27,0,0,0-1.3-1.5c-1.2,0-1.7.9-1.7,2.2v2.7H126v-4.3h-0.1Z" transform="translate(-86.6 -338.2)"/><path class="cls-4" d="M132.7,373.3a1.72,1.72,0,0,0,1.4.8,1,1,0,0,0,1.2-.9,1.12,1.12,0,0,0-1.2-.9c-1.1-.2-2-0.5-2-1.6a1.92,1.92,0,0,1,2.1-1.7,2.06,2.06,0,0,1,1.9,1l-0.8.5a1.27,1.27,0,0,0-1.2-.7,1,1,0,0,0-1.1.8c0,0.5.7,0.7,1.4,0.8,1,0.2,1.8.6,1.8,1.7,0,1.3-1.1,1.8-2.2,1.8a2.7,2.7,0,0,1-2.2-1Z" transform="translate(-86.6 -338.2)"/><path class="cls-4" d="M138.3,366.3a0.7,0.7,0,1,1-.7.7A0.68,0.68,0,0,1,138.3,366.3Zm-0.5,2.9h0.9v5.6h-0.9v-5.6Z" transform="translate(-86.6 -338.2)"/><path class="cls-4" d="M145.2,373.8h0a2.64,2.64,0,0,1-2.2,1.1,2.85,2.85,0,0,1-2.8-3,2.89,2.89,0,0,1,3-3,2.61,2.61,0,0,1,2,1h0v-4.3h0.9v9.1h-0.9v-0.9Zm-2-3.9a2.1,2.1,0,1,0,2,2.1A1.92,1.92,0,0,0,143.2,369.9Z" transform="translate(-86.6 -338.2)"/><path class="cls-4" d="M152.9,373.8a2.9,2.9,0,0,1-2.5,1.2,2.73,2.73,0,0,1-2.8-3,2.86,2.86,0,0,1,2.9-3,2.63,2.63,0,0,1,2.7,2.9v0.3h-4.5a1.86,1.86,0,0,0,1.8,1.8,2.14,2.14,0,0,0,1.8-.9Zm-0.8-2.3a1.61,1.61,0,0,0-1.7-1.6,1.69,1.69,0,0,0-1.8,1.6h3.5Z" transform="translate(-86.6 -338.2)"/><path class="cls-4" d="M154.6,370.5v-1.3h0.9v0.9h0a2,2,0,0,1,1.9-1.1,0.6,0.6,0,0,1,.4.1l-0.1.9c-0.2,0-.3-0.1-0.5-0.1-1.1,0-1.6.8-1.6,2.1v2.7h-0.9v-4.2h-0.1Z" transform="translate(-86.6 -338.2)"/><path class="cls-4" d="M165.2,370h-1.7v2.8c0,0.7,0,1.3.8,1.3a1.88,1.88,0,0,0,.8-0.2v0.9a3.59,3.59,0,0,1-1.1.2c-1.3,0-1.5-.7-1.5-1.9V370h-1.2v-0.8h1.2v-1.6h0.9v1.6h1.7V370h0.1Z" transform="translate(-86.6 -338.2)"/><path class="cls-4" d="M166.3,365.7h0.9v4.2h0a2.24,2.24,0,0,1,1.8-.9c1.5,0,2.1.9,2.1,2.3v3.5h-0.9v-3.4a1.27,1.27,0,0,0-1.3-1.5c-1.2,0-1.7.9-1.7,2.2v2.7h-0.9v-9.1h0Z" transform="translate(-86.6 -338.2)"/><path class="cls-4" d="M173.5,366.3a0.7,0.7,0,1,1-.7.7A0.68,0.68,0,0,1,173.5,366.3Zm-0.5,2.9h0.9v5.6H173v-5.6Z" transform="translate(-86.6 -338.2)"/><path class="cls-4" d="M175.9,373.3a1.72,1.72,0,0,0,1.4.8,1,1,0,0,0,1.2-.9,1.12,1.12,0,0,0-1.2-.9c-1.1-.2-2-0.5-2-1.6a1.92,1.92,0,0,1,2.1-1.7,2.06,2.06,0,0,1,1.9,1l-0.8.5a1.27,1.27,0,0,0-1.2-.7,1,1,0,0,0-1.1.8c0,0.5.7,0.7,1.4,0.8,1,0.2,1.8.6,1.8,1.7,0,1.3-1.1,1.8-2.2,1.8a2.7,2.7,0,0,1-2.2-1Z" transform="translate(-86.6 -338.2)"/><path class="cls-4" d="M182.2,369.8a0.7,0.7,0,1,1-.7-0.7A0.68,0.68,0,0,1,182.2,369.8Zm0,4.4a0.7,0.7,0,1,1-.7-0.7A0.68,0.68,0,0,1,182.2,374.2Z" transform="translate(-86.6 -338.2)"/><path class="cls-3" d="M133.1,408.3h2c1,0,2.3.4,2.3,1.9a1.82,1.82,0,0,1-2.1,1.8h-1.5v3.4h-0.7v-7.1Zm0.7,3.1h1.5a1.25,1.25,0,0,0,1.5-1.2,1.37,1.37,0,0,0-1.5-1.3h-1.5v2.5Z" transform="translate(-86.6 -338.2)"/><path class="cls-3" d="M140.9,410.7a2.4,2.4,0,1,1-2.4,2.4A2.31,2.31,0,0,1,140.9,410.7Zm0,4.3a1.76,1.76,0,0,0,1.8-1.9,1.81,1.81,0,0,0-1.8-1.9,1.76,1.76,0,0,0-1.8,1.9A1.81,1.81,0,0,0,140.9,415Z" transform="translate(-86.6 -338.2)"/><path class="cls-3" d="M145.2,412.1v-1.3h0.6v0.8a1.72,1.72,0,0,1,1.5-.9h0.3l-0.1.6h-0.2a1.44,1.44,0,0,0-1.5,1.6v2.5h-0.6v-3.3Z" transform="translate(-86.6 -338.2)"/><path class="cls-3" d="M151.6,411.3h-1.3v3a0.53,0.53,0,0,0,.6.6,1.85,1.85,0,0,0,.7-0.2v0.5a1.88,1.88,0,0,1-.8.2,1.06,1.06,0,0,1-1.2-1.2v-3h-1v-0.5h1v-1.3h0.6v1.3h1.3v0.6h0.1Z" transform="translate(-86.6 -338.2)"/><path class="cls-3" d="M153.8,411.3h-1v-0.5h1v-1.5a1.33,1.33,0,0,1,1.4-1.5,1.48,1.48,0,0,1,.7.1l-0.1.5a0.75,0.75,0,0,0-.5-0.1c-0.5,0-.8.4-0.8,1.2v1.3h1.1v0.5h-1.1v4.1h-0.6v-4.1h-0.1Z" transform="translate(-86.6 -338.2)"/><path class="cls-3" d="M159,410.7a2.4,2.4,0,1,1-2.4,2.4A2.31,2.31,0,0,1,159,410.7Zm0,4.3a1.76,1.76,0,0,0,1.8-1.9,1.81,1.81,0,0,0-1.8-1.9,1.76,1.76,0,0,0-1.8,1.9A1.81,1.81,0,0,0,159,415Z" transform="translate(-86.6 -338.2)"/><path class="cls-3" d="M163.3,407.8h0.6v7.6h-0.6v-7.6Z" transform="translate(-86.6 -338.2)"/><path class="cls-3" d="M166.4,408.5a0.54,0.54,0,0,1,.5.5,0.4,0.4,0,0,1-.5.4,0.37,0.37,0,0,1-.4-0.4A0.45,0.45,0,0,1,166.4,408.5Zm-0.3,2.3h0.6v4.6h-0.6v-4.6Z" transform="translate(-86.6 -338.2)"/><path class="cls-3" d="M171,410.7a2.4,2.4,0,1,1-2.4,2.4A2.26,2.26,0,0,1,171,410.7Zm0,4.3a1.76,1.76,0,0,0,1.8-1.9,1.81,1.81,0,0,0-1.8-1.9,1.76,1.76,0,0,0-1.8,1.9A1.7,1.7,0,0,0,171,415Z" transform="translate(-86.6 -338.2)"/><path class="cls-3" d="M178.5,408.5a0.54,0.54,0,0,1,.5.5,0.4,0.4,0,0,1-.5.4,0.37,0.37,0,0,1-.4-0.4A0.54,0.54,0,0,1,178.5,408.5Zm-0.3,2.3h0.6v4.6h-0.6v-4.6Z" transform="translate(-86.6 -338.2)"/><path class="cls-3" d="M180.9,412.1v-1.3h0.6v0.8h0a1.66,1.66,0,0,1,1.6-.9,1.73,1.73,0,0,1,1.8,2v2.7h-0.6v-2.7a1.24,1.24,0,0,0-1.2-1.5,1.62,1.62,0,0,0-1.6,1.9v2.3h-0.6v-3.3Z" transform="translate(-86.6 -338.2)"/><path class="cls-3" d="M132.9,424.2a1.44,1.44,0,0,0,1.3.8,1,1,0,0,0,1.1-.8c0-1.3-2.7-.4-2.7-2.1a1.4,1.4,0,0,1,1.6-1.3,1.6,1.6,0,0,1,1.6.9l-0.5.3a1.06,1.06,0,0,0-1.1-.6,1,1,0,0,0-1,.7c0,1.2,2.7.3,2.7,2.1a1.45,1.45,0,0,1-1.7,1.4,2.2,2.2,0,0,1-1.9-.9Z" transform="translate(-86.6 -338.2)"/><path class="cls-3" d="M141.8,424.5a2.33,2.33,0,0,1-2,1,2.23,2.23,0,0,1-2.3-2.4,2.29,2.29,0,0,1,2.3-2.4,2.15,2.15,0,0,1,2.2,2.2v0.4h-4a1.65,1.65,0,0,0,1.7,1.7,1.76,1.76,0,0,0,1.5-.8Zm-0.5-1.8a1.56,1.56,0,0,0-1.6-1.5,1.78,1.78,0,0,0-1.7,1.5h3.3Z" transform="translate(-86.6 -338.2)"/><path class="cls-3" d="M143,420.8h0.7l1.5,4,1.5-4h0.6l-1.8,4.6h-0.6Z" transform="translate(-86.6 -338.2)"/><path class="cls-3" d="M152.7,424.5a2.33,2.33,0,0,1-2,1,2.23,2.23,0,0,1-2.3-2.4,2.29,2.29,0,0,1,2.3-2.4,2.15,2.15,0,0,1,2.2,2.2v0.4H149a1.65,1.65,0,0,0,1.7,1.7,1.76,1.76,0,0,0,1.5-.8Zm-0.4-1.8a1.56,1.56,0,0,0-1.6-1.5,1.78,1.78,0,0,0-1.7,1.5h3.3Z" transform="translate(-86.6 -338.2)"/><path class="cls-3" d="M154.7,422.1v-1.3h0.6v0.8a1.72,1.72,0,0,1,1.5-.9h0.3l-0.1.6h-0.2a1.44,1.44,0,0,0-1.5,1.6v2.5h-0.6v-3.3Z" transform="translate(-86.6 -338.2)"/><path class="cls-3" d="M162.5,424.5a2.33,2.33,0,0,1-2,1,2.23,2.23,0,0,1-2.3-2.4,2.29,2.29,0,0,1,2.3-2.4,2.15,2.15,0,0,1,2.2,2.2v0.4h-3.9a1.65,1.65,0,0,0,1.7,1.7,1.76,1.76,0,0,0,1.5-.8Zm-0.5-1.8a1.56,1.56,0,0,0-1.6-1.5,1.78,1.78,0,0,0-1.7,1.5H162Z" transform="translate(-86.6 -338.2)"/><path class="cls-3" d="M167.4,422.1v-1.3H168v0.8a1.72,1.72,0,0,1,1.5-.9h0.3l-0.1.6h-0.2a1.44,1.44,0,0,0-1.5,1.6v2.5h-0.6v-3.3Z" transform="translate(-86.6 -338.2)"/><path class="cls-3" d="M171.6,418.5a0.54,0.54,0,0,1,.5.5,0.4,0.4,0,0,1-.5.4,0.37,0.37,0,0,1-.4-0.4A0.54,0.54,0,0,1,171.6,418.5Zm-0.3,2.3h0.6v4.6h-0.6v-4.6Z" transform="translate(-86.6 -338.2)"/><path class="cls-3" d="M174.1,424.2a1.44,1.44,0,0,0,1.3.8,1,1,0,0,0,1.1-.8c0-1.3-2.7-.4-2.7-2.1a1.4,1.4,0,0,1,1.6-1.3,1.6,1.6,0,0,1,1.6.9l-0.5.3a1.06,1.06,0,0,0-1.1-.6,1,1,0,0,0-1,.7c0,1.2,2.7.3,2.7,2.1a1.45,1.45,0,0,1-1.7,1.4,2.2,2.2,0,0,1-1.9-.9Z" transform="translate(-86.6 -338.2)"/><path class="cls-3" d="M178.9,417.8h0.6v5l2.3-2.1h0.9l-2.4,2.1,2.7,2.5h-1l-2.5-2.4v2.4h-0.6v-7.5Z" transform="translate(-86.6 -338.2)"/><path class="cls-3" d="M136.8,434.7a2.14,2.14,0,0,1-1.7.8,2.4,2.4,0,1,1,0-4.8,2.14,2.14,0,0,1,1.7.8l-0.5.4a1.73,1.73,0,0,0-1.2-.6,1.76,1.76,0,0,0-1.8,1.9,1.81,1.81,0,0,0,1.8,1.9,1.74,1.74,0,0,0,1.2-.6Z" transform="translate(-86.6 -338.2)"/><path class="cls-3" d="M140.4,430.7a2.4,2.4,0,1,1-2.4,2.4A2.26,2.26,0,0,1,140.4,430.7Zm0,4.3a1.76,1.76,0,0,0,1.8-1.9,1.81,1.81,0,0,0-1.8-1.9,1.76,1.76,0,0,0-1.8,1.9A1.7,1.7,0,0,0,140.4,435Z" transform="translate(-86.6 -338.2)"/><path class="cls-3" d="M144.6,432.1v-1.3h0.6v0.8h0a1.66,1.66,0,0,1,1.6-.9,1.73,1.73,0,0,1,1.8,2v2.7H148v-2.7a1.24,1.24,0,0,0-1.2-1.5,1.62,1.62,0,0,0-1.6,1.9v2.3h-0.6v-3.3h0Z" transform="translate(-86.6 -338.2)"/><path class="cls-3" d="M154.7,434.6h0a2.41,2.41,0,1,1-1.9-3.9,2,2,0,0,1,1.8.9h0v-3.7h0.6v7.6h-0.6v-0.9h0.1Zm-1.9-3.4a1.76,1.76,0,0,0-1.8,1.9,1.81,1.81,0,0,0,1.8,1.9A1.9,1.9,0,0,0,152.8,431.2Z" transform="translate(-86.6 -338.2)"/><path class="cls-3" d="M157.6,428.5a0.54,0.54,0,0,1,.5.5,0.4,0.4,0,0,1-.5.4,0.37,0.37,0,0,1-.4-0.4A0.54,0.54,0,0,1,157.6,428.5Zm-0.3,2.3h0.6v4.6h-0.6v-4.6Z" transform="translate(-86.6 -338.2)"/><path class="cls-3" d="M162.3,431.3H161v3a0.53,0.53,0,0,0,.6.6,1.85,1.85,0,0,0,.7-0.2v0.5a1.88,1.88,0,0,1-.8.2,1.06,1.06,0,0,1-1.2-1.2v-3h-1v-0.5h1v-1.3h0.6v1.3h1.3v0.6h0.1Z" transform="translate(-86.6 -338.2)"/><path class="cls-3" d="M164.3,428.5a0.54,0.54,0,0,1,.5.5,0.4,0.4,0,0,1-.5.4,0.37,0.37,0,0,1-.4-0.4A0.45,0.45,0,0,1,164.3,428.5Zm-0.3,2.3h0.6v4.6H164v-4.6Z" transform="translate(-86.6 -338.2)"/><path class="cls-3" d="M168.9,430.7a2.4,2.4,0,1,1-2.4,2.4A2.31,2.31,0,0,1,168.9,430.7Zm0,4.3a1.76,1.76,0,0,0,1.8-1.9,1.81,1.81,0,0,0-1.8-1.9,1.76,1.76,0,0,0-1.8,1.9A1.81,1.81,0,0,0,168.9,435Z" transform="translate(-86.6 -338.2)"/><path class="cls-3" d="M173.2,432.1v-1.3h0.6v0.8h0a1.66,1.66,0,0,1,1.6-.9,1.73,1.73,0,0,1,1.8,2v2.7h-0.6v-2.7a1.24,1.24,0,0,0-1.2-1.5,1.62,1.62,0,0,0-1.6,1.9v2.3h-0.6v-3.3Z" transform="translate(-86.6 -338.2)"/><path class="cls-3" d="M179.2,434.2a1.44,1.44,0,0,0,1.3.8,1,1,0,0,0,1.1-.8c0-1.3-2.7-.4-2.7-2.1a1.4,1.4,0,0,1,1.6-1.3,1.6,1.6,0,0,1,1.6.9l-0.5.3a1.06,1.06,0,0,0-1.1-.6,1,1,0,0,0-1,.7c0,1.2,2.7.3,2.7,2.1a1.45,1.45,0,0,1-1.7,1.4,2.2,2.2,0,0,1-1.9-.9Z" transform="translate(-86.6 -338.2)"/><path class="cls-3" d="M132.2,440.6h1.3l1,3.4h0l1-3.4h1.3l1,3.4h0l1-3.4H140l-1.6,4.8h-1.2l-1.1-3.3h0l-1,3.3h-1.2Z" transform="translate(-86.6 -338.2)"/><path class="cls-3" d="M141.9,438.2a0.77,0.77,0,0,1,.8.7,0.71,0.71,0,0,1-.8.7A0.71,0.71,0,1,1,141.9,438.2Zm-0.6,2.4h1.2v4.8h-1.2v-4.8Z" transform="translate(-86.6 -338.2)"/><path class="cls-3" d="M143.9,441.6v-1h1v-1.4h1.2v1.4h1.3v1h-1.3v2.1c0,0.5.1,0.8,0.7,0.8a0.64,0.64,0,0,0,.6-0.2v1a2.92,2.92,0,0,1-.9.2c-1.3,0-1.6-.6-1.6-1.7v-2.2h-1Z" transform="translate(-86.6 -338.2)"/><path class="cls-3" d="M150.1,441.3h0a1.55,1.55,0,0,1,1.4-.8,1.63,1.63,0,0,1,1.7,1.9v3H152V443c0-.5,0-1.4-0.9-1.4a1.07,1.07,0,0,0-1.1,1.2v2.6h-1.2v-7.6H150v3.5h0.1Z" transform="translate(-86.6 -338.2)"/><path class="cls-3" d="M157.5,440.5a2.5,2.5,0,1,1-2.6,2.5A2.5,2.5,0,0,1,157.5,440.5Zm0,3.9a1.36,1.36,0,0,0,1.4-1.4,1.31,1.31,0,0,0-1.4-1.4A1.4,1.4,0,1,0,157.5,444.4Z" transform="translate(-86.6 -338.2)"/><path class="cls-3" d="M166.2,445.4H165v-0.8h0a1.51,1.51,0,0,1-1.5.9,1.63,1.63,0,0,1-1.7-1.9v-3H163V443c0,0.5,0,1.4.9,1.4a1.07,1.07,0,0,0,1.1-1.2v-2.6h1.2v4.8Z" transform="translate(-86.6 -338.2)"/><path class="cls-3" d="M167.4,441.6v-1h1v-1.4h1.2v1.4h1.3v1h-1.3v2.1c0,0.5.1,0.8,0.7,0.8a0.64,0.64,0,0,0,.6-0.2v1a2.92,2.92,0,0,1-.9.2c-1.3,0-1.6-.6-1.6-1.7v-2.2h-1Z" transform="translate(-86.6 -338.2)"/><path class="cls-3" d="M175.4,442.1v-1.3H176v0.8a1.72,1.72,0,0,1,1.5-.9h0.3l-0.1.6h-0.2a1.44,1.44,0,0,0-1.5,1.6v2.5h-0.6v-3.3Z" transform="translate(-86.6 -338.2)"/><path class="cls-3" d="M179.6,438.5a0.54,0.54,0,0,1,.5.5,0.4,0.4,0,0,1-.5.4,0.37,0.37,0,0,1-.4-0.4A0.45,0.45,0,0,1,179.6,438.5Zm-0.3,2.3h0.6v4.6h-0.6v-4.6Z" transform="translate(-86.6 -338.2)"/><path class="cls-3" d="M182.1,444.2a1.44,1.44,0,0,0,1.3.8,1,1,0,0,0,1.1-.8c0-1.3-2.7-.4-2.7-2.1a1.4,1.4,0,0,1,1.6-1.3,1.6,1.6,0,0,1,1.6.9l-0.5.3a1.06,1.06,0,0,0-1.1-.6,1,1,0,0,0-1,.7c0,1.2,2.7.3,2.7,2.1a1.45,1.45,0,0,1-1.7,1.4,2.2,2.2,0,0,1-1.9-.9Z" transform="translate(-86.6 -338.2)"/><path class="cls-3" d="M186.9,437.8h0.6v5l2.3-2.1h0.9l-2.4,2.1,2.7,2.5h-1l-2.5-2.4v2.4h-0.6v-7.5Z" transform="translate(-86.6 -338.2)"/><path class="cls-3" d="M132.9,452.1v-1.3h0.6v0.8h0a1.66,1.66,0,0,1,1.6-.9,1.38,1.38,0,0,1,1.4,1,1.62,1.62,0,0,1,1.6-1,1.73,1.73,0,0,1,1.8,2v2.7h-0.6v-2.7a1.24,1.24,0,0,0-1.2-1.5,1.41,1.41,0,0,0-1.4,1.6v2.6h-0.6v-2.8c0-.8-0.3-1.4-1-1.4a1.62,1.62,0,0,0-1.6,1.9v2.3h-0.6v-3.3Z" transform="translate(-86.6 -338.2)"/><path class="cls-3" d="M142.3,448.5a0.54,0.54,0,0,1,.5.5,0.4,0.4,0,0,1-.5.4,0.37,0.37,0,0,1-.4-0.4A0.45,0.45,0,0,1,142.3,448.5Zm-0.3,2.3h0.6v4.6H142v-4.6Z" transform="translate(-86.6 -338.2)"/><path class="cls-3" d="M147,451.3h-1.3v3a0.53,0.53,0,0,0,.6.6,1.85,1.85,0,0,0,.7-0.2v0.5a1.88,1.88,0,0,1-.8.2,1.06,1.06,0,0,1-1.2-1.2v-3h-1v-0.5h1v-1.3h0.6v1.3h1.3v0.6H147Z" transform="translate(-86.6 -338.2)"/><path class="cls-3" d="M149,448.5a0.54,0.54,0,0,1,.5.5,0.4,0.4,0,0,1-.5.4,0.37,0.37,0,0,1-.4-0.4A0.45,0.45,0,0,1,149,448.5Zm-0.3,2.3h0.6v4.6h-0.6v-4.6Z" transform="translate(-86.6 -338.2)"/><path class="cls-3" d="M156,455.1c0,2.3-1.5,2.7-2.5,2.7a3.08,3.08,0,0,1-2.3-1l0.5-.4a2.14,2.14,0,0,0,1.8.9,1.86,1.86,0,0,0,1.9-2.1v-0.6h0a2.07,2.07,0,0,1-1.7.9,2.4,2.4,0,1,1,0-4.8,1.75,1.75,0,0,1,1.7.9h0v-0.8H156v4.3Zm-2.4-3.9a1.8,1.8,0,1,0,1.8,1.8A1.73,1.73,0,0,0,153.6,451.2Z" transform="translate(-86.6 -338.2)"/><path class="cls-3" d="M161.6,453.5a9.76,9.76,0,0,0,.1,1.9h-0.6c0-.2-0.1-0.5-0.1-0.8h0a1.6,1.6,0,0,1-1.6.9,1.42,1.42,0,0,1-1.6-1.4c0-1.4,1.6-1.5,2.6-1.5h0.7v-0.3a1.11,1.11,0,0,0-1.3-1.1,2.39,2.39,0,0,0-1.4.5l-0.3-.4a2.79,2.79,0,0,1,1.8-.6,1.56,1.56,0,0,1,1.8,1.7v1.1h-0.1Zm-1.2-.4c-1,0-2,.2-2,1a0.92,0.92,0,0,0,1,.9,1.42,1.42,0,0,0,1.6-1.6v-0.3h-0.6Z" transform="translate(-86.6 -338.2)"/><path class="cls-3" d="M165.9,451.3h-1.3v3a0.53,0.53,0,0,0,.6.6,1.85,1.85,0,0,0,.7-0.2v0.5a1.88,1.88,0,0,1-.8.2,1.06,1.06,0,0,1-1.2-1.2v-3h-1v-0.5h1v-1.3h0.6v1.3h1.3v0.6h0.1Z" transform="translate(-86.6 -338.2)"/><path class="cls-3" d="M167.8,448.5a0.54,0.54,0,0,1,.5.5,0.4,0.4,0,0,1-.5.4,0.37,0.37,0,0,1-.4-0.4A0.54,0.54,0,0,1,167.8,448.5Zm-0.3,2.3h0.6v4.6h-0.6v-4.6Z" transform="translate(-86.6 -338.2)"/><path class="cls-3" d="M172.5,450.7a2.4,2.4,0,1,1-2.4,2.4A2.26,2.26,0,0,1,172.5,450.7Zm0,4.3a1.76,1.76,0,0,0,1.8-1.9,1.81,1.81,0,0,0-1.8-1.9,1.76,1.76,0,0,0-1.8,1.9A1.7,1.7,0,0,0,172.5,455Z" transform="translate(-86.6 -338.2)"/><path class="cls-3" d="M176.7,452.1v-1.3h0.6v0.8h0a1.66,1.66,0,0,1,1.6-.9,1.73,1.73,0,0,1,1.8,2v2.7H180v-2.7a1.24,1.24,0,0,0-1.2-1.5,1.62,1.62,0,0,0-1.6,1.9v2.3h-0.6v-3.3h0.1Z" transform="translate(-86.6 -338.2)"/><path class="cls-3" d="M330.2,411.6h2c1,0,2.3.4,2.3,1.9a1.82,1.82,0,0,1-2.1,1.8h-1.5v3.4h-0.7v-7.1h0Zm0.7,3.1h1.5a1.25,1.25,0,0,0,1.5-1.2,1.37,1.37,0,0,0-1.5-1.3h-1.5v2.5Z" transform="translate(-86.6 -338.2)"/><path class="cls-3" d="M338.1,414a2.4,2.4,0,1,1-2.4,2.4A2.26,2.26,0,0,1,338.1,414Zm0,4.3a1.76,1.76,0,0,0,1.8-1.9,1.81,1.81,0,0,0-1.8-1.9,1.76,1.76,0,0,0-1.8,1.9A1.7,1.7,0,0,0,338.1,418.3Z" transform="translate(-86.6 -338.2)"/><path class="cls-3" d="M342.3,415.4v-1.3h0.6v0.8a1.72,1.72,0,0,1,1.5-.9h0.3l-0.1.6h-0.2a1.44,1.44,0,0,0-1.5,1.6v2.5h-0.6v-3.3h0Z" transform="translate(-86.6 -338.2)"/><path class="cls-3" d="M348.8,414.6h-1.3v3a0.53,0.53,0,0,0,.6.6,1.85,1.85,0,0,0,.7-0.2v0.5a1.88,1.88,0,0,1-.8.2,1.06,1.06,0,0,1-1.2-1.2v-3h-1V414h1v-1.3h0.6V414h1.3v0.6h0.1Z" transform="translate(-86.6 -338.2)"/><path class="cls-3" d="M351,414.6h-1v-0.5h1v-1.5a1.33,1.33,0,0,1,1.4-1.5,1.48,1.48,0,0,1,.7.1l-0.1.5a0.75,0.75,0,0,0-.5-0.1c-0.5,0-.8.4-0.8,1.2v1.3h1.1v0.5h-1.1v4.1H351v-4.1Z" transform="translate(-86.6 -338.2)"/><path class="cls-3" d="M356.2,414a2.4,2.4,0,1,1-2.4,2.4A2.26,2.26,0,0,1,356.2,414Zm0,4.3a1.76,1.76,0,0,0,1.8-1.9,1.81,1.81,0,0,0-1.8-1.9,1.76,1.76,0,0,0-1.8,1.9A1.7,1.7,0,0,0,356.2,418.3Z" transform="translate(-86.6 -338.2)"/><path class="cls-3" d="M360.4,411.1H361v7.6h-0.6v-7.6Z" transform="translate(-86.6 -338.2)"/><path class="cls-3" d="M363.5,411.8a0.54,0.54,0,0,1,.5.5,0.4,0.4,0,0,1-.5.4,0.37,0.37,0,0,1-.4-0.4A0.54,0.54,0,0,1,363.5,411.8Zm-0.3,2.3h0.6v4.6h-0.6v-4.6Z" transform="translate(-86.6 -338.2)"/><path class="cls-3" d="M368.1,414a2.4,2.4,0,1,1-2.4,2.4A2.31,2.31,0,0,1,368.1,414Zm0,4.3a1.76,1.76,0,0,0,1.8-1.9,1.81,1.81,0,0,0-1.8-1.9,1.76,1.76,0,0,0-1.8,1.9A1.81,1.81,0,0,0,368.1,418.3Z" transform="translate(-86.6 -338.2)"/><path class="cls-3" d="M375.7,411.8a0.54,0.54,0,0,1,.5.5,0.4,0.4,0,0,1-.5.4,0.37,0.37,0,0,1-.4-0.4A0.45,0.45,0,0,1,375.7,411.8Zm-0.3,2.3H376v4.6h-0.6v-4.6Z" transform="translate(-86.6 -338.2)"/><path class="cls-3" d="M378.1,415.4v-1.3h0.6v0.8h0a1.66,1.66,0,0,1,1.6-.9,1.73,1.73,0,0,1,1.8,2v2.7h-0.6V416a1.24,1.24,0,0,0-1.2-1.5,1.62,1.62,0,0,0-1.6,1.9v2.3h-0.6v-3.3h0Z" transform="translate(-86.6 -338.2)"/><path class="cls-3" d="M330.1,427.5a1.44,1.44,0,0,0,1.3.8,1,1,0,0,0,1.1-.8c0-1.3-2.7-.4-2.7-2.1a1.4,1.4,0,0,1,1.6-1.3,1.6,1.6,0,0,1,1.6.9l-0.5.3a1.06,1.06,0,0,0-1.1-.6,1,1,0,0,0-1,.7c0,1.2,2.7.3,2.7,2.1a1.45,1.45,0,0,1-1.7,1.4,2.2,2.2,0,0,1-1.9-.9Z" transform="translate(-86.6 -338.2)"/><path class="cls-3" d="M338.9,427.8a2.33,2.33,0,0,1-2,1,2.23,2.23,0,0,1-2.3-2.4,2.29,2.29,0,0,1,2.3-2.4,2.15,2.15,0,0,1,2.2,2.2v0.4h-3.9a1.65,1.65,0,0,0,1.7,1.7,1.76,1.76,0,0,0,1.5-.8Zm-0.5-1.8a1.56,1.56,0,0,0-1.6-1.5,1.78,1.78,0,0,0-1.7,1.5h3.3Z" transform="translate(-86.6 -338.2)"/><path class="cls-3" d="M340.1,424.1h0.7l1.5,4,1.5-4h0.6l-1.8,4.6H342Z" transform="translate(-86.6 -338.2)"/><path class="cls-3" d="M349.9,427.8a2.33,2.33,0,0,1-2,1,2.23,2.23,0,0,1-2.3-2.4,2.29,2.29,0,0,1,2.3-2.4,2.15,2.15,0,0,1,2.2,2.2v0.4h-3.9a1.65,1.65,0,0,0,1.7,1.7,1.76,1.76,0,0,0,1.5-.8Zm-0.5-1.8a1.56,1.56,0,0,0-1.6-1.5,1.78,1.78,0,0,0-1.7,1.5h3.3Z" transform="translate(-86.6 -338.2)"/><path class="cls-3" d="M351.8,425.4v-1.3h0.6v0.8a1.72,1.72,0,0,1,1.5-.9h0.3l-0.1.6h-0.2a1.44,1.44,0,0,0-1.5,1.6v2.5h-0.6v-3.3h0Z" transform="translate(-86.6 -338.2)"/><path class="cls-3" d="M359.6,427.8a2.33,2.33,0,0,1-2,1,2.23,2.23,0,0,1-2.3-2.4,2.29,2.29,0,0,1,2.3-2.4,2.15,2.15,0,0,1,2.2,2.2v0.4h-3.9a1.65,1.65,0,0,0,1.7,1.7,1.76,1.76,0,0,0,1.5-.8Zm-0.4-1.8a1.56,1.56,0,0,0-1.6-1.5,1.78,1.78,0,0,0-1.7,1.5h3.3Z" transform="translate(-86.6 -338.2)"/><path class="cls-3" d="M364.5,425.4v-1.3h0.6v0.8a1.72,1.72,0,0,1,1.5-.9h0.3l-0.1.6h-0.2a1.44,1.44,0,0,0-1.5,1.6v2.5h-0.6v-3.3h0Z" transform="translate(-86.6 -338.2)"/><path class="cls-3" d="M368.7,421.8a0.54,0.54,0,0,1,.5.5,0.4,0.4,0,0,1-.5.4,0.37,0.37,0,0,1-.4-0.4A0.54,0.54,0,0,1,368.7,421.8Zm-0.3,2.3H369v4.6h-0.6v-4.6Z" transform="translate(-86.6 -338.2)"/><path class="cls-3" d="M371.3,427.5a1.44,1.44,0,0,0,1.3.8,1,1,0,0,0,1.1-.8c0-1.3-2.7-.4-2.7-2.1a1.4,1.4,0,0,1,1.6-1.3,1.6,1.6,0,0,1,1.6.9l-0.5.3a1.06,1.06,0,0,0-1.1-.6,1,1,0,0,0-1,.7c0,1.2,2.7.3,2.7,2.1a1.45,1.45,0,0,1-1.7,1.4,2.2,2.2,0,0,1-1.9-.9Z" transform="translate(-86.6 -338.2)"/><path class="cls-3" d="M376,421.1h0.6v5l2.3-2.1h0.9l-2.4,2.1,2.7,2.5h-0.9l-2.5-2.4v2.4H376v-7.5Z" transform="translate(-86.6 -338.2)"/><path class="cls-3" d="M333.9,438a2.14,2.14,0,0,1-1.7.8,2.4,2.4,0,0,1,0-4.8,2.14,2.14,0,0,1,1.7.8l-0.5.4a1.73,1.73,0,0,0-1.2-.6,1.76,1.76,0,0,0-1.8,1.9,1.81,1.81,0,0,0,1.8,1.9,1.74,1.74,0,0,0,1.2-.6Z" transform="translate(-86.6 -338.2)"/><path class="cls-3" d="M337.5,434a2.4,2.4,0,1,1-2.4,2.4A2.31,2.31,0,0,1,337.5,434Zm0,4.3a1.76,1.76,0,0,0,1.8-1.9,1.81,1.81,0,0,0-1.8-1.9,1.76,1.76,0,0,0-1.8,1.9A1.81,1.81,0,0,0,337.5,438.3Z" transform="translate(-86.6 -338.2)"/><path class="cls-3" d="M341.8,435.4v-1.3h0.6v0.8h0a1.66,1.66,0,0,1,1.6-.9,1.73,1.73,0,0,1,1.8,2v2.7h-0.6V436a1.24,1.24,0,0,0-1.2-1.5,1.62,1.62,0,0,0-1.6,1.9v2.3h-0.6v-3.3h0Z" transform="translate(-86.6 -338.2)"/><path class="cls-3" d="M351.8,437.9h0a2.41,2.41,0,1,1-1.9-3.9,2,2,0,0,1,1.8.9h0v-3.7h0.6v7.6h-0.6v-0.9h0.1Zm-1.8-3.4a1.76,1.76,0,0,0-1.8,1.9,1.81,1.81,0,0,0,1.8,1.9,1.84,1.84,0,0,0,1.9-1.9A1.9,1.9,0,0,0,350,434.5Z" transform="translate(-86.6 -338.2)"/><path class="cls-3" d="M354.8,431.8a0.54,0.54,0,0,1,.5.5,0.4,0.4,0,0,1-.5.4,0.37,0.37,0,0,1-.4-0.4A0.45,0.45,0,0,1,354.8,431.8Zm-0.3,2.3h0.6v4.6h-0.6v-4.6Z" transform="translate(-86.6 -338.2)"/><path class="cls-3" d="M359.5,434.6h-1.3v3a0.53,0.53,0,0,0,.6.6,1.85,1.85,0,0,0,.7-0.2v0.5a1.88,1.88,0,0,1-.8.2,1.06,1.06,0,0,1-1.2-1.2v-3h-1V434h1v-1.3h0.6V434h1.3v0.6h0.1Z" transform="translate(-86.6 -338.2)"/><path class="cls-3" d="M361.4,431.8a0.54,0.54,0,0,1,.5.5,0.4,0.4,0,0,1-.5.4,0.37,0.37,0,0,1-.4-0.4A0.54,0.54,0,0,1,361.4,431.8Zm-0.3,2.3h0.6v4.6h-0.6v-4.6Z" transform="translate(-86.6 -338.2)"/><path class="cls-3" d="M366.1,434a2.4,2.4,0,1,1-2.4,2.4A2.31,2.31,0,0,1,366.1,434Zm0,4.3a1.76,1.76,0,0,0,1.8-1.9,1.81,1.81,0,0,0-1.8-1.9,1.76,1.76,0,0,0-1.8,1.9A1.7,1.7,0,0,0,366.1,438.3Z" transform="translate(-86.6 -338.2)"/><path class="cls-3" d="M370.3,435.4v-1.3h0.6v0.8h0a1.66,1.66,0,0,1,1.6-.9,1.73,1.73,0,0,1,1.8,2v2.7h-0.6V436a1.24,1.24,0,0,0-1.2-1.5,1.62,1.62,0,0,0-1.6,1.9v2.3h-0.6v-3.3h0Z" transform="translate(-86.6 -338.2)"/><path class="cls-3" d="M376.4,437.5a1.44,1.44,0,0,0,1.3.8,1,1,0,0,0,1.1-.8c0-1.3-2.7-.4-2.7-2.1a1.4,1.4,0,0,1,1.6-1.3,1.6,1.6,0,0,1,1.6.9l-0.5.3a1.06,1.06,0,0,0-1.1-.6,1,1,0,0,0-1,.7c0,1.2,2.7.3,2.7,2.1a1.45,1.45,0,0,1-1.7,1.4,2.2,2.2,0,0,1-1.9-.9Z" transform="translate(-86.6 -338.2)"/><path class="cls-3" d="M329.3,443.9h1.3l1,3.4h0l1-3.4h1.3l1,3.4h0l1-3.4h1.2l-1.6,4.8h-1.2l-1.1-3.3h0l-1,3.3H331Z" transform="translate(-86.6 -338.2)"/><path class="cls-3" d="M339.1,441.5a0.77,0.77,0,0,1,.8.7,0.71,0.71,0,0,1-.8.7,0.77,0.77,0,0,1-.8-0.7A0.71,0.71,0,0,1,339.1,441.5Zm-0.6,2.4h1.2v4.8h-1.2v-4.8Z" transform="translate(-86.6 -338.2)"/><path class="cls-3" d="M341.1,444.9v-1h1v-1.4h1.2v1.4h1.3v1h-1.3V447c0,0.5.1,0.8,0.7,0.8a0.64,0.64,0,0,0,.6-0.2v1a2.92,2.92,0,0,1-.9.2c-1.3,0-1.6-.6-1.6-1.7v-2.2h-1Z" transform="translate(-86.6 -338.2)"/><path class="cls-3" d="M347.3,444.6h0a1.55,1.55,0,0,1,1.4-.8,1.63,1.63,0,0,1,1.7,1.9v3h-1.2v-2.4c0-.5,0-1.4-0.9-1.4a1.07,1.07,0,0,0-1.1,1.2v2.6H346v-7.6h1.2v3.5h0.1Z" transform="translate(-86.6 -338.2)"/><path class="cls-3" d="M355.3,445.4v-1.3h0.6v0.8a1.72,1.72,0,0,1,1.5-.9h0.3l-0.1.6h-0.2a1.44,1.44,0,0,0-1.5,1.6v2.5h-0.6v-3.3h0Z" transform="translate(-86.6 -338.2)"/><path class="cls-3" d="M359.5,441.8a0.54,0.54,0,0,1,.5.5,0.4,0.4,0,0,1-.5.4,0.37,0.37,0,0,1-.4-0.4A0.54,0.54,0,0,1,359.5,441.8Zm-0.3,2.3h0.6v4.6h-0.6v-4.6Z" transform="translate(-86.6 -338.2)"/><path class="cls-3" d="M362,447.5a1.44,1.44,0,0,0,1.3.8,1,1,0,0,0,1.1-.8c0-1.3-2.7-.4-2.7-2.1a1.4,1.4,0,0,1,1.6-1.3,1.6,1.6,0,0,1,1.6.9l-0.5.3a1.06,1.06,0,0,0-1.1-.6,1,1,0,0,0-1,.7c0,1.2,2.7.3,2.7,2.1a1.45,1.45,0,0,1-1.7,1.4,2.2,2.2,0,0,1-1.9-.9Z" transform="translate(-86.6 -338.2)"/><path class="cls-3" d="M366.8,441.1h0.6v5l2.3-2.1h0.9l-2.4,2.1,2.7,2.5H370l-2.5-2.4v2.4h-0.6v-7.5h-0.1Z" transform="translate(-86.6 -338.2)"/><path class="cls-3" d="M330.1,455.4v-1.3h0.6v0.8h0a1.66,1.66,0,0,1,1.6-.9,1.38,1.38,0,0,1,1.4,1,1.62,1.62,0,0,1,1.6-1,1.73,1.73,0,0,1,1.8,2v2.7h-0.6V456a1.24,1.24,0,0,0-1.2-1.5,1.41,1.41,0,0,0-1.4,1.6v2.6h-0.6v-2.8c0-.8-0.3-1.4-1-1.4a1.62,1.62,0,0,0-1.6,1.9v2.3h-0.6v-3.3h0Z" transform="translate(-86.6 -338.2)"/><path class="cls-3" d="M339.4,451.8a0.54,0.54,0,0,1,.5.5,0.4,0.4,0,0,1-.5.4,0.37,0.37,0,0,1-.4-0.4A0.54,0.54,0,0,1,339.4,451.8Zm-0.3,2.3h0.6v4.6h-0.6v-4.6Z" transform="translate(-86.6 -338.2)"/><path class="cls-3" d="M344.2,454.6h-1.3v3a0.53,0.53,0,0,0,.6.6,1.85,1.85,0,0,0,.7-0.2v0.5a1.88,1.88,0,0,1-.8.2,1.06,1.06,0,0,1-1.2-1.2v-3h-1V454h1v-1.3h0.6V454h1.3v0.6h0.1Z" transform="translate(-86.6 -338.2)"/><path class="cls-3" d="M346.1,451.8a0.54,0.54,0,0,1,.5.5,0.4,0.4,0,0,1-.5.4,0.37,0.37,0,0,1-.4-0.4A0.45,0.45,0,0,1,346.1,451.8Zm-0.3,2.3h0.6v4.6h-0.6v-4.6Z" transform="translate(-86.6 -338.2)"/><path class="cls-3" d="M353.2,458.4c0,2.3-1.5,2.7-2.5,2.7a3.08,3.08,0,0,1-2.3-1l0.5-.4a2.14,2.14,0,0,0,1.8.9,1.86,1.86,0,0,0,1.9-2.1v-0.6h0a2.07,2.07,0,0,1-1.7.9,2.4,2.4,0,1,1,0-4.8,1.75,1.75,0,0,1,1.7.9h0v-0.8h0.6v4.3Zm-2.4-3.9a1.8,1.8,0,1,0,1.8,1.8A1.79,1.79,0,0,0,350.8,454.5Z" transform="translate(-86.6 -338.2)"/><path class="cls-3" d="M358.7,456.8a9.76,9.76,0,0,0,.1,1.9h-0.6c0-.2-0.1-0.5-0.1-0.8h0a1.6,1.6,0,0,1-1.6.9,1.42,1.42,0,0,1-1.6-1.4c0-1.4,1.6-1.5,2.6-1.5h0.7v-0.3a1.11,1.11,0,0,0-1.3-1.1,2.39,2.39,0,0,0-1.4.5l-0.3-.4a2.79,2.79,0,0,1,1.8-.6,1.56,1.56,0,0,1,1.8,1.7v1.1h-0.1Zm-1.2-.4c-1,0-2,.2-2,1a0.92,0.92,0,0,0,1,.9,1.42,1.42,0,0,0,1.6-1.6v-0.3h-0.6Z" transform="translate(-86.6 -338.2)"/><path class="cls-3" d="M363,454.6h-1.3v3a0.53,0.53,0,0,0,.6.6,1.85,1.85,0,0,0,.7-0.2v0.5a1.88,1.88,0,0,1-.8.2,1.06,1.06,0,0,1-1.2-1.2v-3h-1V454h1v-1.3h0.6V454h1.3v0.6H363Z" transform="translate(-86.6 -338.2)"/><path class="cls-3" d="M365,451.8a0.54,0.54,0,0,1,.5.5,0.4,0.4,0,0,1-.5.4,0.37,0.37,0,0,1-.4-0.4A0.45,0.45,0,0,1,365,451.8Zm-0.3,2.3h0.6v4.6h-0.6v-4.6Z" transform="translate(-86.6 -338.2)"/><path class="cls-3" d="M369.6,454a2.4,2.4,0,1,1-2.4,2.4A2.31,2.31,0,0,1,369.6,454Zm0,4.3a1.76,1.76,0,0,0,1.8-1.9,1.81,1.81,0,0,0-1.8-1.9,1.76,1.76,0,0,0-1.8,1.9A1.81,1.81,0,0,0,369.6,458.3Z" transform="translate(-86.6 -338.2)"/><path class="cls-3" d="M373.8,455.4v-1.3h0.6v0.8h0a1.66,1.66,0,0,1,1.6-.9,1.73,1.73,0,0,1,1.8,2v2.7h-0.6V456a1.24,1.24,0,0,0-1.2-1.5,1.62,1.62,0,0,0-1.6,1.9v2.3h-0.6v-3.3h0Z" transform="translate(-86.6 -338.2)"/><path class="cls-5" d="M231.8,450.5L242,431.7l3.6,3.1L255.8,416l3.6,3.1,10.2-18.8,3.6,3.1,6.1-11.2v5.2l-5.3,9.8-3.6-3.1-10.2,18.8-3.6-3.1-10.2,18.8-3.6-3.1-10.2,18.8-3.6-3.1-9.5,17.5,8.7-21.4,3.6,3.2h0Zm34.3-75.8-10.2,18.8-3.6-3.1-10.2,18.8-3.6-3.1L228.3,425l-3.6-3.1-9.5,17.5L224,418l3.6,3.1,10.2-18.8,3.6,3.1,10.2-18.8,3.6,3.1,10.2-18.8L269,374l10.2-19.1v5.2l-9.5,17.8-3.6-3.2h0Zm-52.7,72.8,3.6,3.1,10.2-18.8,3.6,3.1L241,416.1l3.6,3.1,10.2-18.8,3.6,3.1,10.2-18.8,3.6,3.1,7.1-13.1v5.2l-6.4,11.8-3.6-3.1L259,407.3l-3.6-3.1L245.2,423l-3.6-3.1-10.2,18.8-3.6-3.1-10.2,18.8-3.6-3.1-9.5,17.5,8.9-21.3h0Z" transform="translate(-86.6 -338.2)"/><path class="cls-5" d="M231.8,450.5l-0.4-.2,10.5-19.4,3.6,3.1,10.2-18.8,3.6,3.1,10.2-18.8,3.6,3.1,5.7-10.6,1,0.2v5.3L274,408l-3.6-3.1-10.2,18.8-3.6-3.1-10.2,18.8-3.6-3.1-10.2,18.8L229,452l-9.2,16.9-0.9-.4,9-22,4.1,3.6-0.2.4-0.4-.2,0.4,0.2-0.3.4-3.1-2.6-4.9,12.1,5.3-9.8,3.6,3.1,10.2-18.8,3.6,3.1,10.2-18.8,3.6,3.1,10.2-18.8,3.6,3.1,5-9.2v-3.1l-5.4,9.9-3.6-3.1-10.2,18.8-3.6-3.1-10.2,18.8-3.6-3.1L232,451.3l-0.5-.4,0.3-.4h0Zm34.3-75.8,0.4,0.2L256,394.3l-3.6-3.1L242.2,410l-3.6-3.1-10.2,18.8-3.6-3.1-9.2,16.9-0.9-.4,9-22,3.7,3.2,10.2-18.8,3.6,3.1,10.2-18.8,3.6,3.1,10.2-18.8,3.6,3.1,9.9-18.6,1,0.2v5.4l-9.9,18.5-4.1-3.5,0.4-.5,0.4,0.2-0.4-.2,0.3-.4,3.1,2.7,9.2-17.1v-3.1l-9.6,17.9-3.6-3.1-10.2,18.8-3.6-3.1-10.2,18.8-3.6-3.1-10.2,18.8-3.5-3.1-4.9,12.1,5.3-9.8,3.6,3.1,10.2-18.8,3.6,3.1,10.2-18.8,3.6,3.1L266,373.9l0.5,0.4-0.4.4h0Zm-52.7,72.8,0.3-.4,3.1,2.7L227,431l3.6,3.1,10.2-18.8,3.6,3.1,10.2-18.8,3.6,3.1,10.2-18.8L272,387l6.8-12.5,1,0.2V380l-6.7,12.4-3.6-3.1-10.2,18.8-3.6-3.1-10.2,18.8-3.6-3.1-10.2,18.8-3.6-3.1-10.2,18.8-3.6-3.1L205.1,469l-0.9-.4,9-22,0.5,0.5-0.3.4,0.5,0.2-5.2,12.7,5.3-9.8,3.6,3.1,10.2-18.8,3.6,3.1,10.2-18.8,3.6,3.1,10.2-18.8,3.6,3.1,10.2-18.8,3.6,3.1,6-11.1v-3.1l-6.4,11.9-3.6-3.1-10.2,18.8-3.6-3.1L244.8,420l-3.6-3.1L231,435.7l-3.6-3.1-10.2,18.8-4.1-3.5,0.3-.4,0.5,0.2-0.5-.2h0Z" transform="translate(-86.6 -338.2)"/><path class="cls-6" d="M228.8,461.7a23,23,0,1,1,23-23,23,23,0,0,1-23,23h0Z" transform="translate(-86.6 -338.2)"/><g class="cls-7"><path class="cls-8" d="M231.8,450.5L242,431.7l3.6,3.1L255.8,416l3.6,3.1,10.2-18.8,3.6,3.1,6.1-11.2v5.2l-5.3,9.8-3.6-3.1-10.2,18.8-3.6-3.1-10.2,18.8-3.6-3.1-10.2,18.8-3.6-3.1-9.5,17.5,8.7-21.4,3.6,3.2h0Zm34.3-75.8-10.2,18.8-3.6-3.1-10.2,18.8-3.6-3.1L228.3,425l-3.6-3.1-9.5,17.5L224,418l3.6,3.1,10.2-18.8,3.6,3.1,10.2-18.8,3.6,3.1,10.2-18.8L269,374l10.2-19.1v5.2l-9.5,17.8-3.6-3.2h0Zm-52.7,72.8,3.6,3.1,10.2-18.8,3.6,3.1L241,416.1l3.6,3.1,10.2-18.8,3.6,3.1,10.2-18.8,3.6,3.1,7.1-13.1v5.2l-6.4,11.8-3.6-3.1L259,407.3l-3.6-3.1L245.2,423l-3.6-3.1-10.2,18.8-3.6-3.1-10.2,18.8-3.6-3.1-9.5,17.5,8.9-21.3h0Z" transform="translate(-86.6 -338.2)"/></g><g class="cls-7"><path class="cls-8" d="M231.8,450.5l-0.4-.2,10.5-19.4,3.6,3.1,10.2-18.8,3.6,3.1,10.2-18.8,3.6,3.1,5.7-10.6,1,0.2v5.3L274,408l-3.6-3.1-10.2,18.8-3.6-3.1-10.2,18.8-3.6-3.1-10.2,18.8L229,452l-9.2,16.9-0.9-.4,9-22,4.1,3.6-0.2.4-0.4-.2,0.4,0.2-0.3.4-3.1-2.6-4.9,12.1,5.3-9.8,3.6,3.1,10.2-18.8,3.6,3.1,10.2-18.8,3.6,3.1,10.2-18.8,3.6,3.1,5-9.2v-3.1l-5.4,9.9-3.6-3.1-10.2,18.8-3.6-3.1-10.2,18.8-3.6-3.1L232,451.3l-0.5-.4,0.3-.4h0Zm34.3-75.8,0.4,0.2L256,394.3l-3.6-3.1L242.2,410l-3.6-3.1-10.2,18.8-3.6-3.1-9.2,16.9-0.9-.4,9-22,3.7,3.2,10.2-18.8,3.6,3.1,10.2-18.8,3.6,3.1,10.2-18.8,3.6,3.1,9.9-18.6,1,0.2v5.4l-9.9,18.5-4.1-3.5,0.4-.5,0.4,0.2-0.4-.2,0.3-.4,3.1,2.7,9.2-17.1v-3.1l-9.6,17.9-3.6-3.1-10.2,18.8-3.6-3.1-10.2,18.8-3.6-3.1-10.2,18.8-3.5-3.1-4.9,12.1,5.3-9.8,3.6,3.1,10.2-18.8,3.6,3.1,10.2-18.8,3.6,3.1L266,373.9l0.5,0.4-0.4.4h0Zm-52.7,72.8,0.3-.4,3.1,2.7L227,431l3.6,3.1,10.2-18.8,3.6,3.1,10.2-18.8,3.6,3.1,10.2-18.8L272,387l6.8-12.5,1,0.2V380l-6.7,12.4-3.6-3.1-10.2,18.8-3.6-3.1-10.2,18.8-3.6-3.1-10.2,18.8-3.6-3.1-10.2,18.8-3.6-3.1L205.1,469l-0.9-.4,9-22,0.5,0.5-0.3.4,0.5,0.2-5.2,12.7,5.3-9.8,3.6,3.1,10.2-18.8,3.6,3.1,10.2-18.8,3.6,3.1,10.2-18.8,3.6,3.1,10.2-18.8,3.6,3.1,6-11.1v-3.1l-6.4,11.9-3.6-3.1-10.2,18.8-3.6-3.1L244.8,420l-3.6-3.1L231,435.7l-3.6-3.1-10.2,18.8-4.1-3.5,0.3-.4,0.5,0.2-0.5-.2h0Z" transform="translate(-86.6 -338.2)"/></g><path class="cls-3" d="M231.8,448.7V452h-5v-2.9a9.23,9.23,0,0,1-5.9-3.6l-0.2-.4,0.3-.3,2.9-2.6,0.4-.3,0.3,0.4a5.94,5.94,0,0,0,4.7,2.1c2.8,0,3-.7,3-1.5s-0.2-1.3-4.1-2.2c-3.4-.8-6.7-1.9-6.7-6.5,0-3,2-5.2,5.2-6v-3h5v3a9.66,9.66,0,0,1,5.1,3l0.4,0.4-0.4.4-2.9,2.8-0.4.4-0.4-.4a5.65,5.65,0,0,0-4.2-1.9c-1.1,0-2.4.2-2.4,1.2,0,0.8.3,1.1,3.6,1.9,2.7,0.6,7.1,1.7,7.1,6.7,0,3.7-2.1,6-6.1,6.6" transform="translate(-86.6 -338.2)"/><path class="cls-6" d="M231.2,448.7v2.8h-4v-2.8l-0.4-.1a9,9,0,0,1-5.6-3.4l2.9-2.6a6.61,6.61,0,0,0,5.1,2.3,4.84,4.84,0,0,0,2.8-.6,1.87,1.87,0,0,0,.6-0.7,2,2,0,0,0,.1-0.7,2.48,2.48,0,0,0-.1-0.8,1.33,1.33,0,0,0-.5-0.6c-0.6-.5-1.7-0.9-3.9-1.4h0a12.64,12.64,0,0,1-4.4-1.7,5,5,0,0,1-1.9-4.3,5.39,5.39,0,0,1,1.3-3.5,7,7,0,0,1,3.6-2l0.4-.1v-3.4h-0.5v0.5h5v-0.5h-0.5v3.4l0.4,0.1a8.72,8.72,0,0,1,4.8,2.9l0.4,0.4,0.4-.4-0.4-.4-0.4.4-2.9,2.8h0a6,6,0,0,0-4.6-2.1,5.54,5.54,0,0,0-1.8.2,3.51,3.51,0,0,0-.8.5,1,1,0,0,0-.3.9,1.34,1.34,0,0,0,.2.8,1.21,1.21,0,0,0,.5.5,10,10,0,0,0,3.4,1.1,13.86,13.86,0,0,1,4.4,1.6,5,5,0,0,1,2.4,4.5,5.81,5.81,0,0,1-1.4,4.1,5.89,5.89,0,0,1-4.3,2.3l0.2,1a7.79,7.79,0,0,0,4.8-2.3,7,7,0,0,0,1.7-4.8,6.71,6.71,0,0,0-.8-3.3,7.77,7.77,0,0,0-3.2-2.8,14,14,0,0,0-3.5-1.1,12.14,12.14,0,0,1-2.9-.9,1.44,1.44,0,0,0-.3-0.2V434c0-.1,0-0.2.1-0.2a1.54,1.54,0,0,1,.7-0.3,3.75,3.75,0,0,1,1.1-.1,4.76,4.76,0,0,1,3.8,1.8l0.4,0.4,0.4,0.4,0.7-.7,2.9-2.8,0.4-.4,0.4-.4-0.7-.7a11.16,11.16,0,0,0-5.4-3.2l-0.1.5h0.5v-3.5h-6v3.5h0.5l-0.1-.5a7.9,7.9,0,0,0-4.1,2.3,6.6,6.6,0,0,0,.8,9.2,13.42,13.42,0,0,0,4.8,1.9h0a9.67,9.67,0,0,1,3.3,1.1,0.43,0.43,0,0,1,.3.3v0.8a1.13,1.13,0,0,1-.5.4,7.47,7.47,0,0,1-2,.2,5.62,5.62,0,0,1-4.4-1.9l-0.3-.4-0.3-.4-0.8.7-2.9,2.6-0.3.3-0.3.3,0.5,0.7a9.87,9.87,0,0,0,6.2,3.9l0.1-.5h-0.5v3.4h6v-3.8h-1.2v-0.2Z" transform="translate(-86.6 -338.2)"/><polygon class="cls-5" points="340.7 66.4 348.8 51.8 352.1 54.7 361.6 37.2 365 40 374.4 22.5 377.7 25.4 386.7 8.9 386.7 13.8 378.4 29 375.1 26.2 365.6 43.7 362.3 40.8 352.8 58.3 349.5 55.4 341.4 70 340.7 66.4"/><polygon class="cls-5" points="340.7 66.4 340.3 66.2 348.7 51 352 53.9 361.5 36.4 364.8 39.3 374.3 21.8 377.6 24.6 386.3 8.7 387.2 8.9 387.2 13.9 378.6 29.8 375.2 26.9 365.7 44.4 362.4 41.6 352.9 59.1 349.6 56.2 341.1 71.5 340.2 66.3 340.3 66.2 340.7 66.4 341.2 66.3 341.6 68.6 349.3 54.7 352.7 57.5 362.2 40 365.5 42.9 375 25.4 378.3 28.3 386.2 13.6 386.2 10.9 377.9 26.2 374.6 23.3 365.1 40.8 361.8 38 352.3 55.5 349 52.6 341.2 66.6 340.7 66.4 341.2 66.3 340.7 66.4"/><polyline class="cls-5" points="341.4 70.1 329.8 51.8 333.9 50.3 324 34.8 337.4 51.5 333.3 53 341.9 66.6"/><polygon class="cls-5" points="341 70.4 329.1 51.6 333.2 50 323.6 35 324.4 34.5 338.2 51.7 334 53.2 342.3 66.3 341.5 66.8 332.5 52.7 336.6 51.2 329.3 42.2 334.6 50.6 330.6 52.1 341.8 69.8 341 70.4"/><path class="cls-5" d="M422.8,438.8l3.6,3.1,10.2-18.8,3.6,3.1,10.2-18.8,3.6,3.1,10.2-18.8,3.6,3.1,6.1-11.2v5.2l-5.3,9.8-3.6-3.1-10.2,18.8-3.6-3.1L441,430l-3.6-3.1-10.2,18.8-3.6-3.1m-1.8-19.3,3.6,3.1,10.2-18.8,3.6,3.1,10.2-18.8L453,395l10.2-18.8,3.6,3.1,7.1-13.1v5.2l-6.4,11.8-3.6-3.1-10.2,18.8-3.6-3.1-10.2,18.8-3.6-3.1L426,430.2l-3.6-3.1" transform="translate(-86.6 -338.2)"/><path class="cls-5" d="M423.1,438.5l3.1,2.7,10.2-18.8,3.6,3.1,10.2-18.8,3.6,3.1L464,391l3.6,3.1,5.8-10.6,1,0.2V389l-5.7,10.5-3.6-3.1-10.2,18.8-3.6-3.1L441,430.9l-3.6-3.1-10.2,18.8-4-3.5,0.7-.8L427,445l10.2-18.8,3.6,3.1L451,410.5l3.6,3.1,10.2-18.8,3.6,3.1,5-9.2v-3.1l-5.4,9.9-3.6-3.1-10.2,18.8-3.6-3.1L440.3,427l-3.6-3.1-10.2,18.8-4.1-3.5,0.7-.7h0Zm-1-15.6,3.1,2.7,10.2-18.8,3.6,3.1,10.2-18.8,3.6,3.1L463,375.4l3.6,3.1,6.8-12.5,1,0.2v5.3l-6.8,12.4-3.6-3.1-10.2,18.8-3.6-3.1L440,415.3l-3.6-3.1L426.2,431l-4.1-3.5,0.7-.8,3.1,2.7,10.2-18.8,3.6,3.1,10.2-18.8,3.6,3.1,10.2-18.8,3.6,3.1,6-11.1V368l-6.4,11.9-3.6-3.1L453,395.7l-3.6-3.1-10.2,18.8-3.6-3.1-10.2,18.8-4-3.5,0.7-.7h0Z" transform="translate(-86.6 -338.2)"/><polygon class="cls-5" points="361.4 93.9 366.4 84.4 369.6 87.2 378.9 70.2 382.1 73 387 63.9 387 68.6 382.7 76.5 379.5 73.7 370.3 90.7 367.1 88 362.9 96 361.4 93.9"/><polygon class="cls-5" points="361.4 93.9 361 93.7 366.3 83.7 369.5 86.5 378.7 69.4 381.9 72.2 386.6 63.7 387.5 63.9 387.5 68.7 382.8 77.3 379.6 74.5 370.4 91.5 367.2 88.7 363 96.9 360.8 94 361 93.7 361.4 93.9 361.8 93.7 362.8 95 366.9 87.2 370.1 90 379.3 73 382.6 75.7 386.5 68.5 386.5 65.9 382.2 73.8 379 71 369.8 88 366.6 85.2 361.9 94.2 361.4 93.9 361.8 93.7 361.4 93.9"/><polyline class="cls-5" points="361.5 94.2 380.5 90.1 380.5 94.3 398 90.5 378.3 97.2 378.3 92.9 363 96.2"/><polygon class="cls-5" points="361.4 93.7 381 89.5 381 93.7 397.8 90 398.1 90.9 377.8 97.8 377.8 93.5 363.1 96.7 362.9 95.7 378.7 92.3 378.8 96.5 389.2 92.9 380 95 380 90.7 361.6 94.7 361.4 93.7"/><path class="cls-9" d="M420,464.9a23.7,23.7,0,1,1,23.7-23.7A23.69,23.69,0,0,1,420,464.9h0Z" transform="translate(-86.6 -338.2)"/><path class="cls-6" d="M420,461.9a20.7,20.7,0,1,1,20.7-20.7A20.59,20.59,0,0,1,420,461.9h0Z" transform="translate(-86.6 -338.2)"/><g class="cls-10"><polygon class="cls-8" points="349.6 94.1 361.8 71.5 366.1 75.2 378.3 52.7 382.6 56.4 394.8 33.8 399.1 37.5 406.3 24.1 406.3 30.4 399.9 42.1 395.7 38.5 383.4 61 379.2 57.3 366.9 79.9 362.7 76.2 350.4 98.7 346.2 95 334.8 116 345.3 90.3 349.6 94.1"/></g><g class="cls-10"><polygon class="cls-8" points="349.6 94.1 349.1 93.8 361.7 70.7 365.9 74.4 378.2 51.9 382.5 55.6 394.7 33 399 36.7 405.9 23.9 406.9 24.1 406.9 30.5 400.1 42.9 395.8 39.3 383.6 61.8 379.3 58.1 367.1 80.7 362.8 77 350.6 99.5 346.3 95.8 335.2 116.2 334.3 115.8 345.1 89.5 349.9 93.7 349.6 94.1 349.1 93.8 349.6 94.1 349.2 94.5 345.5 91.2 338.8 107.5 346 94.2 350.3 97.9 362.5 75.4 366.8 79.1 379 56.5 383.3 60.2 395.5 37.7 399.8 41.3 405.8 30.2 405.8 26.1 399.2 38.3 395 34.6 382.7 57.2 378.5 53.5 366.2 76 362 72.3 349.7 94.9 349.2 94.5 349.6 94.1"/></g><g class="cls-10"><polygon class="cls-8" points="351 75 363.2 52.4 367.5 56.1 379.7 33.5 384 37.2 396.2 14.7 400.5 18.4 407.7 5 407.7 11.2 401.3 23 397.1 19.3 384.8 41.9 380.6 38.2 368.3 60.8 364.1 57.1 351.8 79.6 347.6 75.9 336.2 96.8 346.7 71.2 351 75"/></g><g class="cls-10"><polygon class="cls-8" points="351 75 350.5 74.7 363.1 51.6 367.3 55.3 379.6 32.7 383.8 36.4 396.1 13.9 400.4 17.6 407.3 4.8 408.3 5 408.3 11.4 401.5 23.8 397.2 20.1 385 42.7 380.7 39 368.5 61.6 364.2 57.9 352 80.4 347.7 76.7 336.6 97.1 335.7 96.6 346.5 70.4 351.3 74.6 351 75 350.5 74.7 351 75 350.7 75.3 346.9 72.1 340.2 88.4 347.4 75.1 351.7 78.8 363.9 56.3 368.2 60 380.4 37.4 384.7 41.1 396.9 18.5 401.2 22.2 407.2 11.1 407.2 7 400.6 19.2 396.4 15.5 384.1 38 379.9 34.3 367.6 56.9 363.4 53.2 351.1 75.8 350.7 75.3 351 75"/></g><path class="cls-4" d="M420,465.7v2.1a26.6,26.6,0,1,1,26.6-26.6A26.59,26.59,0,0,1,420,467.8v-4.2a22.19,22.19,0,1,0-15.8-6.5,22.47,22.47,0,0,0,15.8,6.5v2.1h0Z" transform="translate(-86.6 -338.2)"/><path class="cls-3" d="M422.9,451.3v3.3h-5v-2.9a9.23,9.23,0,0,1-5.9-3.6l-0.2-.4,0.3-.3,2.9-2.6,0.4-.3,0.3,0.4a5.94,5.94,0,0,0,4.7,2.1c2.8,0,3-.7,3-1.5s-0.2-1.3-4.1-2.2c-3.4-.8-6.7-1.9-6.7-6.5,0-3,2-5.2,5.2-6v-3h5v3a9.66,9.66,0,0,1,5.1,3l0.3,0.4-0.4.4-2.9,2.8-0.4.4-0.4-.4a5.65,5.65,0,0,0-4.2-1.9c-1.1,0-2.3.2-2.3,1.2,0,0.8.3,1.1,3.6,1.9,2.7,0.6,7.1,1.7,7.1,6.7,0,3.7-2.1,6-6.1,6.6" transform="translate(-86.6 -338.2)"/><path class="cls-6" d="M422.3,451.3v2.8h-4.5v0.5h0.5v-3.3l-0.4-.1a9,9,0,0,1-5.6-3.4l-0.2-.4-0.4.3,0.3,0.4,0.3-.3,2.9-2.6a6.61,6.61,0,0,0,5.1,2.3,4.84,4.84,0,0,0,2.8-.6,1.87,1.87,0,0,0,.6-0.7,2,2,0,0,0,.1-0.7,2.48,2.48,0,0,0-.1-0.8c-0.1-.2-0.3-0.4-0.4-0.6-0.6-.5-1.7-0.9-3.9-1.4h0A12.64,12.64,0,0,1,415,441a5,5,0,0,1-1.9-4.3,4.91,4.91,0,0,1,1.3-3.5,7,7,0,0,1,3.6-2l0.4-.1v-3.4h-0.5v0.5h5v-0.5h-0.5v3.4l0.4,0.1a8.72,8.72,0,0,1,4.8,2.9l0.4,0.4,0.4-.4-0.3-.4-0.4.4-2.9,2.8-0.4.4,0.4,0.4,0.4-.4-0.4-.4a6,6,0,0,0-4.6-2.1,3.81,3.81,0,0,0-1.8.3,3.51,3.51,0,0,0-.8.5,1.4,1.4,0,0,0-.3.9,1.34,1.34,0,0,0,.2.8,1.2,1.2,0,0,0,.5.5,10,10,0,0,0,3.4,1.1,13.86,13.86,0,0,1,4.4,1.6,5,5,0,0,1,2.4,4.5,5.81,5.81,0,0,1-1.4,4.1,7.15,7.15,0,0,1-4.5,2.2l0.2,1a7.79,7.79,0,0,0,4.8-2.3,7,7,0,0,0,1.7-4.8,6.71,6.71,0,0,0-.8-3.3,7.2,7.2,0,0,0-3.2-2.8,14,14,0,0,0-3.5-1.1,12.14,12.14,0,0,1-2.9-.9,1.44,1.44,0,0,0-.3-0.2v-0.3c0-.1,0-0.2.1-0.2a1.54,1.54,0,0,1,.7-0.3,3.75,3.75,0,0,1,1.1-.1,4.89,4.89,0,0,1,3.8,1.8l0.3,0.4,0.4,0.4,0.7-.7,2.9-2.8,0.4-.4,0.4-.4-0.7-.7a11.63,11.63,0,0,0-5.4-3.2l-0.1.5h0.5v-3.5h-6v3.5h0.5l-0.1-.5a7.9,7.9,0,0,0-4.1,2.3,6.6,6.6,0,0,0,.8,9.2,13.42,13.42,0,0,0,4.8,1.9h0a9.67,9.67,0,0,1,3.3,1.1,0.43,0.43,0,0,1,.3.3V446a1.13,1.13,0,0,1-.5.4,7.47,7.47,0,0,1-2,.2,5.62,5.62,0,0,1-4.4-1.9l-0.3-.4-0.3-.4-0.8.7-2.9,2.6-0.3.3-0.3.3,0.5,0.7a9.87,9.87,0,0,0,6.2,3.9l0.1-.5h-0.5v3.4h6v-3.8h-1.1v-0.2Z" transform="translate(-86.6 -338.2)"/></svg>