<svg id="Layer_1" data-name="Layer 1" xmlns="http://www.w3.org/2000/svg" xmlns:xlink="http://www.w3.org/1999/xlink" viewBox="0 0 257.6 159.2"><defs><style>.cls-1{fill:none;}.cls-2{fill:#333e48;}.cls-3{fill:#fff;}.cls-4{fill:#7d9f3d;}.cls-5{fill:#ffc425;}.cls-6{fill:#0d436b;}.cls-7{fill:#25a7df;}.cls-8{clip-path:url(#clip-path);}</style><clipPath id="clip-path" transform="translate(-168.1 -341.8)"><path class="cls-1" d="M229.6,487.2A23.4,23.4,0,1,1,253,463.8a23.43,23.43,0,0,1-23.4,23.4"/></clipPath></defs><title>Risk Assist 2</title><polygon class="cls-2" points="257.6 139.4 257.6 0 0 0 0 139.4 257.6 139.4"/><polygon class="cls-3" points="132.2 80.5 134 80.5 135.2 85.3 135.2 85.3 136.8 80.5 138.3 80.5 139.9 85.4 139.9 85.4 141.1 80.5 142.8 80.5 140.6 88 139.2 88 137.5 82.8 137.5 82.8 135.8 88 134.4 88 132.2 80.5"/><polygon class="cls-3" points="144.3 80.5 146 80.5 146 88 144.3 88 144.3 80.5"/><polygon class="cls-3" points="149.7 81.9 147.6 81.9 147.6 80.5 153.5 80.5 153.5 81.9 151.4 81.9 151.4 88 149.7 88 149.7 81.9"/><polygon class="cls-3" points="155.1 80.5 156.8 80.5 156.8 83.3 160 83.3 160 80.5 161.6 80.5 161.6 88 160 88 160 84.7 156.8 84.7 156.8 88 155.1 88 155.1 80.5"/><path class="cls-3" d="M335.7,422.1a3.9,3.9,0,1,1-4,3.9c-0.1-2.4,1.6-3.9,4-3.9h0Zm0,6.3a2.4,2.4,0,1,0-2.3-2.4,2.23,2.23,0,0,0,2.3,2.4h0Z" transform="translate(-168.1 -341.8)"/><path class="cls-3" d="M347.9,426.9a3.15,3.15,0,0,1-6.3,0v-4.6h1.7v4.5a1.5,1.5,0,1,0,3,0v-4.5h1.6v4.6h0Z" transform="translate(-168.1 -341.8)"/><polygon class="cls-3" points="183.6 81.9 181.5 81.9 181.5 80.5 187.4 80.5 187.4 81.9 185.3 81.9 185.3 88 183.6 88 183.6 81.9"/><path class="cls-3" d="M357.2,424.5a1,1,0,0,1,1,1,0.94,0.94,0,0,1-1,1,1,1,0,0,1-1-1,0.94,0.94,0,0,1,1-1h0Zm0,3.4a1,1,0,1,1-1,1,0.94,0.94,0,0,1,1-1h0Z" transform="translate(-168.1 -341.8)"/><polygon class="cls-3" points="14.9 80.5 16.7 80.5 17.9 85.3 17.9 85.3 19.5 80.5 21 80.5 22.6 85.4 22.6 85.4 23.9 80.5 25.5 80.5 23.3 88 21.9 88 20.2 82.8 20.2 82.8 18.6 88 17.1 88 14.9 80.5"/><polygon class="cls-3" points="27.1 80.5 28.7 80.5 28.7 88 27.1 88 27.1 80.5"/><polygon class="cls-3" points="32.5 81.9 30.3 81.9 30.3 80.5 36.2 80.5 36.2 81.9 34.1 81.9 34.1 88 32.5 88 32.5 81.9"/><polygon class="cls-3" points="37.9 80.5 39.6 80.5 39.6 83.3 42.7 83.3 42.7 80.5 44.4 80.5 44.4 88 42.7 88 42.7 84.7 39.6 84.7 39.6 88 37.9 88 37.9 80.5"/><path class="cls-3" d="M215.6,424.5a1,1,0,0,1,1,1,0.94,0.94,0,0,1-1,1,1,1,0,0,1-1-1,0.94,0.94,0,0,1,1-1h0Zm0,3.4a1,1,0,1,1-1,1,0.94,0.94,0,0,1,1-1h0Z" transform="translate(-168.1 -341.8)"/><path class="cls-4" d="M365.5,487.1a24.35,24.35,0,1,1,24.3-24.3,24.33,24.33,0,0,1-24.3,24.3h0Z" transform="translate(-168.1 -341.8)"/><polygon class="cls-5" points="197.3 139.5 208.1 119.6 211.8 122.8 222.6 102.9 226.4 106.2 237.2 86.3 227.1 110.3 223.4 107 212.6 126.9 208.8 123.7 198 143.6 194.2 140.3 184.2 157.3 193.5 136.2 197.3 139.5"/><polygon class="cls-5" points="197.3 139.5 196.8 139.2 207.9 118.7 211.7 122 222.5 102.1 226.2 105.3 236.7 86 237.7 86.5 227.3 111.2 223.5 107.9 212.7 127.8 209 124.5 198.2 144.4 194.4 141.1 184.7 157.6 183.7 157.1 193.3 135.3 197.6 139.1 197.3 139.5 196.8 139.2 197.3 139.5 196.9 139.9 193.7 137.1 188.3 149.3 194.1 139.5 197.9 142.7 208.7 122.8 212.4 126.1 223.2 106.2 226.9 109.4 232.6 96 226.5 107 222.8 103.8 212 123.7 208.2 120.4 197.4 140.3 196.9 139.9 197.3 139.5"/><polygon class="cls-5" points="233.5 59.4 222.7 79.3 218.9 76 208.1 95.9 204.4 92.6 193.6 112.5 189.8 109.3 179.8 127.7 189 105.1 192.8 108.4 203.6 88.5 207.4 91.8 218.2 71.9 222 75.2 233.5 59.4"/><polygon class="cls-5" points="233.5 59.4 234 59.6 222.9 80.1 219.1 76.8 208.3 96.7 204.5 93.5 193.7 113.4 190 110.1 180.3 128 179.3 127.5 188.8 104.2 192.7 107.6 203.5 87.7 207.2 90.9 218 71 221.9 74.4 233.1 59 234 59.6 233.5 59.4 233.9 59.7 222 75.9 218.3 72.7 207.6 92.6 203.8 89.4 193 109.3 189.2 106 184 118.8 189.7 108.4 193.4 111.7 204.2 91.8 208 95 218.8 75.2 222.6 78.4 233 59.1 233.5 59.4 233.9 59.7 233.5 59.4"/><polygon class="cls-5" points="177.8 136.3 181.6 139.6 192.4 119.7 196.2 123 207 103.1 210.7 106.3 221.5 86.4 225.3 89.7 236.8 73.9 226 93.8 222.3 90.5 211.5 110.4 207.7 107.2 196.9 127.1 193.1 123.8 182.3 143.7 178.6 140.4 168.6 158.9 177.8 136.3"/><polygon class="cls-5" points="177.8 136.3 178.2 135.9 181.5 138.7 192.2 118.9 196 122.1 206.8 102.2 210.6 105.5 221.4 85.6 225.2 88.9 236.4 73.6 237.3 74.1 226.2 94.6 222.4 91.4 211.6 111.3 207.9 108 197.1 127.9 193.3 124.7 182.5 144.5 178.7 141.3 169.1 159.2 168.1 158.7 177.6 135.4 178.2 135.9 177.8 136.3 178.3 136.5 172.8 150 178.4 139.6 182.2 142.9 193 123 196.8 126.2 207.6 106.3 211.3 109.6 222.1 89.7 225.9 93 232.5 80.7 225.4 90.5 221.7 87.3 210.9 107.2 207.1 103.9 196.3 123.8 192.6 120.5 181.8 140.4 177.5 136.7 177.8 136.3 178.3 136.5 177.8 136.3"/><path class="cls-3" d="M368.6,473.4v3.5h-5.2v-3.1a9.5,9.5,0,0,1-6.2-3.8l-0.3-.4,0.4-.3,3.1-2.7,0.4-.4,0.4,0.4a6.32,6.32,0,0,0,5,2.2c2.9,0,3.2-.8,3.2-1.6s-0.2-1.4-4.3-2.3c-3.6-.8-7.1-2-7.1-6.9,0-3.1,2.1-5.5,5.5-6.3v-3.1h5.2v3.1a10.84,10.84,0,0,1,5.4,3.2l0.4,0.4-0.4.4-3.1,3-0.4.4-0.4-.4a5.82,5.82,0,0,0-4.4-2c-1.1,0-2.5.2-2.5,1.2,0,0.8.3,1.2,3.9,2,2.8,0.7,7.5,1.8,7.5,7.1,0,3.9-2.2,6.3-6.4,7" transform="translate(-168.1 -341.8)"/><path class="cls-4" d="M368.1,473.4v3.5h0.5v-0.5h-5.2v0.5h0.5v-3.5l-0.4-.1a9,9,0,0,1-5.9-3.6l3.1-2.7,0.4-.4-0.4-.4-0.4.3,0.4,0.4a6.85,6.85,0,0,0,5.4,2.4c0.8,0,1.3-.1,1.8-0.1a4.65,4.65,0,0,0,.9-0.3,1.55,1.55,0,0,0,.8-0.8,2.92,2.92,0,0,0,.2-0.9,2.48,2.48,0,0,0-.1-0.8,2.65,2.65,0,0,0-.5-0.6,11.38,11.38,0,0,0-4.1-1.4h0a12.48,12.48,0,0,1-4.7-1.8,4.57,4.57,0,0,1-1.4-1.7,6.74,6.74,0,0,1-.6-2.7,5.94,5.94,0,0,1,1.3-3.7,7,7,0,0,1,3.8-2.1l0.4-.1v-3h4.7v-0.5h-0.5v3.5l0.4,0.1a9.66,9.66,0,0,1,5.1,3l0.4,0.4,0.4-.4L374,455l-0.4.4-3.1,3-0.4.4,0.4,0.4,0.4-.4-0.4-.4a6.51,6.51,0,0,0-2.2-1.6,5.75,5.75,0,0,0-2.6-.5,6.28,6.28,0,0,0-1.9.3,2.18,2.18,0,0,0-.8.5,1.53,1.53,0,0,0-.4,1,1.34,1.34,0,0,0,.2.8,1.2,1.2,0,0,0,.5.5,5.35,5.35,0,0,0,1.3.6,18.39,18.39,0,0,0,2.3.6,14.33,14.33,0,0,1,4.6,1.7,7.69,7.69,0,0,1,1.8,1.8,6.32,6.32,0,0,1,.7,3,6.18,6.18,0,0,1-1.5,4.4,7.84,7.84,0,0,1-4.4,1.9l0.2,1.1a8.18,8.18,0,0,0,5.1-2.4,8.1,8.1,0,0,0,1-8.6,7.3,7.3,0,0,0-3.4-2.9,26.06,26.06,0,0,0-3.7-1.2,15.71,15.71,0,0,1-3.1-.9,1.24,1.24,0,0,1-.3-0.2V458a0.37,0.37,0,0,1,.1-0.3,1.54,1.54,0,0,1,.7-0.3,4.48,4.48,0,0,1,1.2-.1,6.54,6.54,0,0,1,2.1.4,6.22,6.22,0,0,1,1.9,1.4l0.4,0.4,0.4,0.4,0.8-.7,3.1-3,0.4-.4,0.4-.4-0.7-.8a11.46,11.46,0,0,0-5.7-3.3l-0.1.5h0.5v-3.6h-6.3v3.7h0.5l-0.1-.5a7.73,7.73,0,0,0-4.3,2.5,6.78,6.78,0,0,0-1.6,4.4,6.31,6.31,0,0,0,.7,3.2,6.77,6.77,0,0,0,2.9,2.9,17.87,17.87,0,0,0,3.9,1.3h0a14,14,0,0,1,3.5,1.1,0.43,0.43,0,0,1,.3.3,2.27,2.27,0,0,1,.1.4,0.48,0.48,0,0,1-.1.4l-0.1.2a1.54,1.54,0,0,1-.7.3,7.45,7.45,0,0,1-1.8.2,6,6,0,0,1-4.6-2l-0.4-.4-0.4-.4-0.8.7-3.1,2.7-0.4.3-0.3.3,0.5,0.8a10.36,10.36,0,0,0,6.6,4.1l0.1-.5H363v3.6h6.3v-4.1h-1.2v-0.3Z" transform="translate(-168.1 -341.8)"/><path class="cls-6" d="M229.6,490.7a26.9,26.9,0,1,1,26.9-26.9,26.84,26.84,0,0,1-26.9,26.9h0Z" transform="translate(-168.1 -341.8)"/><path class="cls-7" d="M229.6,490.7v1.5A28.4,28.4,0,1,1,258,463.8a28.38,28.38,0,0,1-28.4,28.4v-3a25.45,25.45,0,0,0,0-50.9,25.44,25.44,0,0,0-25.4,25.5,25.27,25.27,0,0,0,25.4,25.4v1.5h0Z" transform="translate(-168.1 -341.8)"/><polygon class="cls-5" points="61.1 121.9 69.7 102.8 73.5 106 84.3 86.1 88.1 89.4 99.6 73.6 88.8 93.5 85 90.2 74.2 110.1 70.5 106.9 61.1 121.9"/><polygon class="cls-5" points="61.1 121.9 60.6 121.7 69.5 101.9 73.3 105.2 84.1 85.3 88 88.6 99.2 73.3 100.1 73.9 89 94.4 85.2 91.1 74.4 111 70.6 107.7 61.6 122.2 60.6 121.7 61.1 121.9 60.7 121.6 70.3 106.1 74.1 109.3 84.9 89.4 88.6 92.6 95.3 80.4 88.1 90.2 84.4 87 73.6 106.9 69.9 103.7 61.6 122.1 61.1 121.9 60.7 121.6 61.1 121.9"/><path class="cls-4" d="M229.6,487.2A23.4,23.4,0,1,1,253,463.8a23.43,23.43,0,0,1-23.4,23.4h0Z" transform="translate(-168.1 -341.8)"/><g class="cls-8"><polygon class="cls-5" points="61.1 121.9 69.7 102.8 73.5 106 84.3 86.1 88.1 89.4 99.6 73.6 88.8 93.5 85 90.2 74.2 110.1 70.5 106.9 61.1 121.9"/></g><g class="cls-8"><polygon class="cls-5" points="61.1 121.9 60.6 121.7 69.5 101.9 73.3 105.2 84.1 85.3 88 88.6 99.2 73.3 100.1 73.9 89 94.4 85.2 91.1 74.4 111 70.6 107.7 61.6 122.2 60.6 121.7 61.1 121.9 60.7 121.6 70.3 106.1 74.1 109.3 84.9 89.4 88.6 92.6 95.3 80.4 88.1 90.2 84.4 87 73.6 106.9 69.9 103.7 61.6 122.1 61.1 121.9 60.7 121.6 61.1 121.9"/></g><path class="cls-3" d="M232.8,474.4v3.5h-5.3v-3a9.5,9.5,0,0,1-6.2-3.8l-0.3-.4,0.4-.3,3.1-2.7,0.4-.4,0.4,0.4a6.32,6.32,0,0,0,5,2.2c2.9,0,3.2-.8,3.2-1.6s-0.2-1.4-4.3-2.3c-3.6-.8-7.1-2-7.1-6.9,0-3.1,2.1-5.5,5.5-6.3v-3.1h5.3v3.1a10.84,10.84,0,0,1,5.4,3.2l0.4,0.4-0.4.4-3.1,3-0.4.4-0.4-.4a5.82,5.82,0,0,0-4.4-2c-1.1,0-2.5.2-2.5,1.2,0,0.8.3,1.2,3.9,2,2.8,0.7,7.5,1.8,7.5,7.1,0,3.9-2.2,6.3-6.5,7" transform="translate(-168.1 -341.8)"/><path class="cls-4" d="M232.2,474.4v3.5h0.5v-0.5h-5.2v0.5H228v-3.5l-0.4-.1a9,9,0,0,1-5.9-3.6l3.1-2.7a6.85,6.85,0,0,0,5.4,2.4,9.18,9.18,0,0,0,1.8-.1,4.65,4.65,0,0,0,.9-0.3,1.55,1.55,0,0,0,.8-0.8,2.77,2.77,0,0,0,.1-0.9,2.48,2.48,0,0,0-.1-0.8,2.65,2.65,0,0,0-.5-0.6,11.38,11.38,0,0,0-4.1-1.4h0a12.48,12.48,0,0,1-4.7-1.8A4.57,4.57,0,0,1,223,462a7,7,0,0,1-.5-2.8,5.94,5.94,0,0,1,1.3-3.7,7,7,0,0,1,3.8-2.1l0.4-.1v-3h4.8v-0.5h-0.5v3.5l0.4,0.1a9.66,9.66,0,0,1,5.1,3l0.4,0.4,0.4-.4-0.4-.4-0.4.4-3.1,3a7.65,7.65,0,0,0-2.2-1.6,4.68,4.68,0,0,0-2.6-.5,4.22,4.22,0,0,0-1.9.3,2.18,2.18,0,0,0-.8.5,1.53,1.53,0,0,0-.4,1,1.34,1.34,0,0,0,.2.8,1.21,1.21,0,0,0,.5.5,5.35,5.35,0,0,0,1.3.6,18.39,18.39,0,0,0,2.3.6,14.33,14.33,0,0,1,4.6,1.7,7.69,7.69,0,0,1,1.8,1.8,6.32,6.32,0,0,1,.7,3,5.77,5.77,0,0,1-1.5,4.3,7.86,7.86,0,0,1-4.5,2l0.2,1.1a8.18,8.18,0,0,0,5.1-2.4,8.1,8.1,0,0,0,1-8.6,7.31,7.31,0,0,0-3.4-2.9,22.53,22.53,0,0,0-3.7-1.2,9.6,9.6,0,0,1-3.1-1,1.24,1.24,0,0,1-.3-0.2v-0.3c0-.1,0-0.2.1-0.2a2.39,2.39,0,0,1,.7-0.3,4.48,4.48,0,0,1,1.2-.1,4.64,4.64,0,0,1,2.1.4,6.22,6.22,0,0,1,1.9,1.4l0.4,0.4,0.4,0.4,0.8-.8,3.1-3,0.4-.4,0.4-.4-0.7-.8a11.46,11.46,0,0,0-5.7-3.3l-0.1.5h0.5v-3.6H227v3.7h0.5l-0.1-.5a7.73,7.73,0,0,0-4.3,2.5,6.78,6.78,0,0,0-1.6,4.4,6.31,6.31,0,0,0,.7,3.2,6.06,6.06,0,0,0,2.9,2.8,17.87,17.87,0,0,0,3.9,1.3h0a10.58,10.58,0,0,1,3.5,1.1,0.43,0.43,0,0,1,.3.3,2.27,2.27,0,0,1,.1.4,0.48,0.48,0,0,1-.1.4l-0.1.2a1.54,1.54,0,0,1-.7.3,8.66,8.66,0,0,1-1.8.1,6,6,0,0,1-4.6-2l-0.4-.4-0.4-.4-0.8.7-3.1,2.7-0.4.3-0.3.3,0.5,0.8a10.36,10.36,0,0,0,6.6,4.1l0.1-.5h-0.5v3.5h6.4v-4.1h-1.1v0.1Z" transform="translate(-168.1 -341.8)"/><polygon class="cls-5" points="96.1 59.4 85.3 79.3 81.6 76 70.7 95.9 61.2 86.6 70 91.8 80.8 71.9 84.6 75.2 96.1 59.4"/><polygon class="cls-5" points="96.1 59.4 96.6 59.6 85.5 80.1 81.7 76.8 70.9 96.8 60.8 87 61.4 86.1 69.8 91 80.7 71 84.5 74.4 95.7 59 96.6 59.6 96.1 59.4 96.6 59.7 84.7 75.9 81 72.7 70.2 92.5 64.8 89.3 70.6 95 81.4 75.2 85.2 78.4 95.6 59.1 96.1 59.4 96.6 59.7 96.1 59.4"/><polygon class="cls-5" points="85.3 107.8 89.1 100 92.8 103.3 103.6 83.4 93.6 107.4 89.8 104.1 86.2 109.5 85.3 107.8"/><polygon class="cls-5" points="85.3 107.8 84.8 107.5 88.9 99.1 92.7 102.4 103.1 83.1 104.1 83.6 93.8 108.3 89.9 104.9 86.1 110.6 84.7 107.8 84.8 107.5 85.3 107.8 85.8 107.5 86.3 108.4 89.7 103.3 93.3 106.5 99 93 93 104.1 89.2 100.9 85.8 108 85.3 107.8 85.8 107.5 85.3 107.8"/><polygon class="cls-7" points="16.9 22.2 16.9 22.2 18.9 15.3 19.9 15.3 21.9 22.2 21.9 22.2 23.8 15.3 24.7 15.3 22.4 23.3 21.4 23.3 19.4 16.5 19.4 16.5 17.4 23.3 16.4 23.3 14 15.3 15 15.3 16.9 22.2"/><path class="cls-7" d="M193.6,356.6h0.7v4.1h0a2.1,2.1,0,0,1,1.8-1,1.87,1.87,0,0,1,2,2.1v3.4h-0.7v-2.9c0-1.2-.3-1.8-1.4-1.8-0.2,0-1.6.1-1.6,2v2.7h-0.7v-8.6h-0.1Z" transform="translate(-168.1 -341.8)"/><path class="cls-7" d="M203.3,361.9v-0.1a1.22,1.22,0,0,0-1.4-1.4,2.27,2.27,0,0,0-1.6.6l-0.5-.5a3,3,0,0,1,2.2-.8,1.78,1.78,0,0,1,1.9,1.9V364a4.48,4.48,0,0,0,.1,1.2h-0.7c0-.3-0.1-0.6-0.1-0.9h0a2,2,0,0,1-1.9,1,1.63,1.63,0,0,1-1.8-1.6c0-1.7,2-1.8,3.3-1.8h0.5Zm-0.4.6c-0.8,0-2.5.1-2.5,1.1a1.06,1.06,0,0,0,1.2,1,1.55,1.55,0,0,0,1.6-1.7v-0.4h-0.3Z" transform="translate(-168.1 -341.8)"/><path class="cls-7" d="M208.5,360.5H207v3.1c0,0.8.3,0.9,0.8,0.9a2.35,2.35,0,0,0,.8-0.2V365a3,3,0,0,1-1,.2,1.18,1.18,0,0,1-1.3-1.4v-3.3h-1.1v-0.7h1.1v-1.5h0.8v1.5h1.5v0.7h-0.1Z" transform="translate(-168.1 -341.8)"/><path class="cls-7" d="M217.9,365.1h-0.8v-0.9h0a2.51,2.51,0,0,1-2.1,1,2.68,2.68,0,0,1-2.8-2.8,2.73,2.73,0,0,1,2.8-2.8,2.64,2.64,0,0,1,2.1,1h0v-4.1h0.8v8.6h0Zm-2.8-.5a2.1,2.1,0,1,0,0-4.2,2.1,2.1,0,0,0,0,4.2h0Z" transform="translate(-168.1 -341.8)"/><path class="cls-7" d="M222.1,365.3a2.8,2.8,0,1,1,0-5.6,2.8,2.8,0,1,1,0,5.6h0Zm0-4.9a2.1,2.1,0,1,0,2,2.1,2,2,0,0,0-2-2.1h0Z" transform="translate(-168.1 -341.8)"/><path class="cls-7" d="M226.8,362.7a2,2,0,0,0,1.9,1.9,1.94,1.94,0,0,0,1.7-.9l0.6,0.5a2.7,2.7,0,0,1-2.3,1.1,2.65,2.65,0,0,1-2.7-2.8,2.71,2.71,0,0,1,2.7-2.8,2.44,2.44,0,0,1,2.5,2.6v0.3h-4.4v0.1Zm3.6-.6a1.63,1.63,0,0,0-1.7-1.7,1.87,1.87,0,0,0-1.9,1.7h3.6Z" transform="translate(-168.1 -341.8)"/><path class="cls-7" d="M235.3,361.1a1.23,1.23,0,0,0-1.1-.7,0.94,0.94,0,0,0-1.1.8c0,0.5.3,0.7,1,.8l0.8,0.2a1.6,1.6,0,0,1,1.3,1.5c0,1.1-1,1.6-2.1,1.6a2.33,2.33,0,0,1-2-1l0.6-.4a1.6,1.6,0,0,0,1.4.8,1,1,0,0,0,1.2-.9,0.91,0.91,0,0,0-1-.8l-0.7-.2a1.57,1.57,0,0,1-1.4-1.4,1.75,1.75,0,0,1,2-1.6,2,2,0,0,1,1.8,1l-0.7.3h0Z" transform="translate(-168.1 -341.8)"/><path class="cls-7" d="M241,358.4a0.47,0.47,0,0,1-.5-0.5,0.54,0.54,0,0,1,.5-0.5,0.47,0.47,0,0,1,.5.5,0.47,0.47,0,0,1-.5.5h0Zm0.4,6.7h-0.8v-5.3h0.8v5.3h0Z" transform="translate(-168.1 -341.8)"/><path class="cls-7" d="M246,360.5h-1.5v3.1c0,0.8.3,0.9,0.8,0.9a2.35,2.35,0,0,0,.8-0.2V365a3,3,0,0,1-1,.2,1.18,1.18,0,0,1-1.3-1.4v-3.3h-1.1v-0.7h1.1v-1.5h0.8v1.5h1.5v0.7H246Z" transform="translate(-168.1 -341.8)"/><polygon class="cls-7" points="82.9 23.3 82.2 23.3 82.2 14.8 82.9 14.8 82.9 23.3"/><path class="cls-7" d="M255.3,365.3a2.8,2.8,0,1,1,0-5.6,2.68,2.68,0,0,1,2.8,2.8,2.62,2.62,0,0,1-2.8,2.8h0Zm0-4.9a2.1,2.1,0,1,0,2,2.1,1.92,1.92,0,0,0-2-2.1h0Z" transform="translate(-168.1 -341.8)"/><path class="cls-7" d="M262,365.3a2.8,2.8,0,0,1,0-5.6,2.68,2.68,0,0,1,2.8,2.8,2.62,2.62,0,0,1-2.8,2.8h0Zm0-4.9a2.1,2.1,0,1,0,2,2.1,1.87,1.87,0,0,0-2-2.1h0Z" transform="translate(-168.1 -341.8)"/><polygon class="cls-7" points="98.9 20.4 101.4 18 102.5 18 99.8 20.5 102.8 23.3 101.6 23.3 98.9 20.6 98.9 23.3 98.1 23.3 98.1 14.8 98.9 14.8 98.9 20.4"/><polygon class="cls-7" points="107.6 23.3 106.9 23.3 106.9 14.8 107.6 14.8 107.6 23.3"/><path class="cls-7" d="M278.1,358.4a0.47,0.47,0,0,1-.5-0.5,0.54,0.54,0,0,1,.5-0.5,0.47,0.47,0,0,1,.5.5,0.64,0.64,0,0,1-.5.5h0Zm0.3,6.7h-0.8v-5.3h0.8v5.3h0Z" transform="translate(-168.1 -341.8)"/><polygon class="cls-7" points="112.9 20.4 115.4 18 116.5 18 113.9 20.5 116.8 23.3 115.6 23.3 112.9 20.6 112.9 23.3 112.1 23.3 112.1 14.8 112.9 14.8 112.9 20.4"/><path class="cls-7" d="M286.2,362.7a2,2,0,0,0,1.9,1.9,1.94,1.94,0,0,0,1.7-.9l0.6,0.5a2.7,2.7,0,0,1-2.3,1.1,2.65,2.65,0,0,1-2.7-2.8,2.71,2.71,0,0,1,2.7-2.8,2.44,2.44,0,0,1,2.5,2.6v0.3h-4.4v0.1Zm3.6-.6a1.58,1.58,0,0,0-1.7-1.7,1.87,1.87,0,0,0-1.9,1.7h3.6Z" transform="translate(-168.1 -341.8)"/><path class="cls-7" d="M297.8,360.5h-1.5v3.1c0,0.8.3,0.9,0.8,0.9a2.35,2.35,0,0,0,.8-0.2V365a3,3,0,0,1-1,.2,1.18,1.18,0,0,1-1.3-1.4v-3.3h-1.1v-0.7h1.1v-1.5h0.8v1.5h1.5v0.7h-0.1Z" transform="translate(-168.1 -341.8)"/><path class="cls-7" d="M301.4,365.3a2.8,2.8,0,1,1,2.8-2.8,2.73,2.73,0,0,1-2.8,2.8h0Zm0-4.9a2.1,2.1,0,1,0,2,2.1,2,2,0,0,0-2-2.1h0Z" transform="translate(-168.1 -341.8)"/><path class="cls-7" d="M309.4,359.8v0.8h0a2.1,2.1,0,0,1,1.8-1,1.87,1.87,0,0,1,2,2.1v3.4h-0.7v-2.9c0-1.2-.3-1.8-1.4-1.8-0.2,0-1.6.1-1.6,2v2.7h-0.8V361a5.28,5.28,0,0,0-.1-1.2h0.8Z" transform="translate(-168.1 -341.8)"/><path class="cls-7" d="M317.5,365.3a2.8,2.8,0,1,1,2.8-2.8,2.73,2.73,0,0,1-2.8,2.8h0Zm0-4.9a2.1,2.1,0,1,0,2,2.1,2,2,0,0,0-2-2.1h0Z" transform="translate(-168.1 -341.8)"/><path class="cls-7" d="M324.4,360.5h-1.5v3.1c0,0.8.3,0.9,0.8,0.9a2.35,2.35,0,0,0,.8-0.2V365a3,3,0,0,1-1,.2,1.18,1.18,0,0,1-1.3-1.4v-3.3H321v-0.7h1.1v-1.5h0.8v1.5h1.5v0.7h0Z" transform="translate(-168.1 -341.8)"/><path class="cls-7" d="M328.6,356.6h0.8v4.1h0a2.1,2.1,0,0,1,1.8-1,1.83,1.83,0,0,1,2,2.1v3.4h-0.7v-2.9c0-1.2-.3-1.8-1.4-1.8-0.2,0-1.6.1-1.6,2v2.7h-0.8v-8.6h-0.1Z" transform="translate(-168.1 -341.8)"/><path class="cls-7" d="M338.2,361.9v-0.1a1.19,1.19,0,0,0-1.3-1.4,2.27,2.27,0,0,0-1.6.6l-0.4-.5a3,3,0,0,1,2.2-.8,1.78,1.78,0,0,1,1.9,1.9V364a4.48,4.48,0,0,0,.1,1.2h-0.7c0-.3-0.1-0.6-0.1-0.9h0a2,2,0,0,1-1.9,1,1.63,1.63,0,0,1-1.8-1.6c0-1.7,2-1.8,3.3-1.8h0.3Zm-0.4.6c-0.8,0-2.5.1-2.5,1.1a1.06,1.06,0,0,0,1.2,1,1.55,1.55,0,0,0,1.6-1.7v-0.4h-0.3Z" transform="translate(-168.1 -341.8)"/><polygon class="cls-7" points="174.9 23.3 174.1 23.3 171.9 18 172.8 18 174.5 22.5 174.5 22.5 176.2 18 177.1 18 174.9 23.3"/><path class="cls-7" d="M346.7,362.7a2,2,0,0,0,1.9,1.9,1.94,1.94,0,0,0,1.7-.9l0.6,0.5a2.7,2.7,0,0,1-2.3,1.1,2.65,2.65,0,0,1-2.7-2.8,2.71,2.71,0,0,1,2.7-2.8,2.44,2.44,0,0,1,2.5,2.6v0.3h-4.4v0.1Zm3.6-.6a1.63,1.63,0,0,0-1.7-1.7,1.77,1.77,0,0,0-1.8,1.7h3.5Z" transform="translate(-168.1 -341.8)"/><path class="cls-7" d="M359,361.9v-0.1a1.27,1.27,0,0,0-1.4-1.4,2.27,2.27,0,0,0-1.6.6l-0.4-.5a3,3,0,0,1,2.2-.8,1.78,1.78,0,0,1,1.9,1.9V364c0,0.4.1,0.9,0.1,1.2h-0.7c0-.3-0.1-0.6-0.1-0.9h0a2,2,0,0,1-1.9,1,1.63,1.63,0,0,1-1.8-1.6c0-1.7,2-1.8,3.3-1.8H359Zm-0.4.6c-0.8,0-2.5.1-2.5,1.1a1.06,1.06,0,0,0,1.2,1,1.55,1.55,0,0,0,1.6-1.7v-0.4h-0.3Z" transform="translate(-168.1 -341.8)"/><path class="cls-7" d="M362.1,359.8v0.8h0a2.1,2.1,0,0,1,1.8-1,1.87,1.87,0,0,1,2,2.1v3.4h-0.8v-2.9c0-1.2-.3-1.8-1.4-1.8-0.2,0-1.6.1-1.6,2v2.7h-0.7V361a5.28,5.28,0,0,0-.1-1.2h0.8Z" transform="translate(-168.1 -341.8)"/><path class="cls-7" d="M369.7,364.2l1.6-4.4h0.9l-2.6,6.7a1.64,1.64,0,0,1-1.7,1.3,1.7,1.7,0,0,1-.7-0.1l0.1-.7a1.27,1.27,0,0,0,.6.1,1.16,1.16,0,0,0,1-1l0.4-1-2.2-5.4H368l1.7,4.5h0Z" transform="translate(-168.1 -341.8)"/><path class="cls-7" d="M376.4,361.5v-1.7h0.7v1h0a1.7,1.7,0,0,1,1.7-1.1,1.27,1.27,0,0,1,.6.1l-0.1.7a2.27,2.27,0,0,0-.4-0.1,1.65,1.65,0,0,0-1.6,1.7v3h-0.8v-3.6h-0.1Z" transform="translate(-168.1 -341.8)"/><path class="cls-7" d="M380.6,358.4a0.47,0.47,0,0,1-.5-0.5,0.5,0.5,0,1,1,.5.5h0Zm0.4,6.7h-0.7v-5.3H381v5.3h0Z" transform="translate(-168.1 -341.8)"/><path class="cls-7" d="M385.6,361.1a1.23,1.23,0,0,0-1.1-.7,0.94,0.94,0,0,0-1.1.8,0.91,0.91,0,0,0,1,.8l0.8,0.2a1.6,1.6,0,0,1,1.3,1.5c0,1.1-1,1.6-2.1,1.6a2.33,2.33,0,0,1-2-1l0.6-.4a1.6,1.6,0,0,0,1.4.8,1,1,0,0,0,1.2-.9,0.91,0.91,0,0,0-1-.8l-0.7-.2a1.49,1.49,0,0,1-1.3-1.4,1.75,1.75,0,0,1,2-1.6,2,2,0,0,1,1.8,1l-0.8.3h0Z" transform="translate(-168.1 -341.8)"/><polygon class="cls-7" points="220.2 20.4 222.7 18 223.8 18 221.2 20.5 224.1 23.3 223 23.3 220.2 20.6 220.2 23.3 219.5 23.3 219.5 14.8 220.2 14.8 220.2 20.4"/><path class="cls-7" d="M183,375.4a4.87,4.87,0,0,0-.1-1.2h0.8V375h0a2.09,2.09,0,0,1,1.7-.9,1.73,1.73,0,0,1,1.7,1.1,1.85,1.85,0,0,1,1.7-1.1,1.87,1.87,0,0,1,2,2.1v3.4h-0.7v-3.1c0-1.1-.3-1.7-1.3-1.7a1.64,1.64,0,0,0-1.5,1.9v2.8h-0.7v-3.1c0-1.1-.3-1.7-1.3-1.7-0.2,0-1.5.1-1.5,2v2.7H183v-4h0Z" transform="translate(-168.1 -341.8)"/><path class="cls-7" d="M193.1,372.7a0.47,0.47,0,0,1-.5-0.5,0.65,0.65,0,0,1,.5-0.6,0.51,0.51,0,0,1,.5.6,0.43,0.43,0,0,1-.5.5h0Zm0.4,6.8h-0.7v-5.3h0.7v5.3h0Z" transform="translate(-168.1 -341.8)"/><path class="cls-7" d="M198,374.9h-1.5V378c0,0.8.3,1,.8,1a2.35,2.35,0,0,0,.8-0.2v0.7a3,3,0,0,1-1,.2,1.18,1.18,0,0,1-1.3-1.4V375h-1.1v-0.7h1.1v-1.5h0.7v1.5H198v0.6h0Z" transform="translate(-168.1 -341.8)"/><path class="cls-7" d="M199.6,372.7a0.47,0.47,0,0,1-.5-0.5,0.65,0.65,0,0,1,.5-0.6,0.51,0.51,0,0,1,.5.6,0.47,0.47,0,0,1-.5.5h0Zm0.4,6.8h-0.7v-5.3H200v5.3h0Z" transform="translate(-168.1 -341.8)"/><path class="cls-7" d="M202.2,380.5a2.46,2.46,0,0,0,2,1,1.9,1.9,0,0,0,2.1-2.1v-1h0a2.33,2.33,0,0,1-2,1,2.71,2.71,0,0,1-2.8-2.7,2.63,2.63,0,0,1,2.7-2.7,2.43,2.43,0,0,1,2,1h0v-0.9h0.7v5.2a2.52,2.52,0,0,1-2.8,2.7,2.84,2.84,0,0,1-2.5-1.1l0.6-.4h0Zm2.1-1.7a2,2,0,0,0,0-4,2,2,0,1,0,0,4h0Z" transform="translate(-168.1 -341.8)"/><path class="cls-7" d="M212,376.2v-0.1a1.19,1.19,0,0,0-1.3-1.4,2.27,2.27,0,0,0-1.6.6l-0.4-.5a3,3,0,0,1,2.2-.8,1.78,1.78,0,0,1,1.9,1.9v2.4a4.48,4.48,0,0,0,.1,1.2h-0.7a2.77,2.77,0,0,1-.1-0.9h0a2,2,0,0,1-1.9,1,1.61,1.61,0,0,1-1.8-1.5c0-1.7,2-1.8,3.3-1.8H212v-0.1Zm-0.3.6c-0.8,0-2.5.1-2.5,1.1a1.06,1.06,0,0,0,1.2,1,1.55,1.55,0,0,0,1.6-1.7v-0.4h-0.3Z" transform="translate(-168.1 -341.8)"/><path class="cls-7" d="M217.3,374.9h-1.5V378c0,0.8.3,1,.8,1a1.88,1.88,0,0,0,.8-0.2v0.7a3,3,0,0,1-1,.2,1.18,1.18,0,0,1-1.3-1.4V375H214v-0.7h1.1v-1.5h0.8v1.5h1.5v0.6h-0.1Z" transform="translate(-168.1 -341.8)"/><path class="cls-7" d="M218.8,372.7a0.47,0.47,0,0,1-.5-0.5,0.65,0.65,0,0,1,.5-0.6,0.51,0.51,0,0,1,.5.6,0.43,0.43,0,0,1-.5.5h0Zm0.4,6.8h-0.7v-5.3h0.7v5.3h0Z" transform="translate(-168.1 -341.8)"/><path class="cls-7" d="M223.5,379.6a2.8,2.8,0,1,1,2.8-2.8,2.68,2.68,0,0,1-2.8,2.8h0Zm0-4.9a2.1,2.1,0,1,0,2,2.1,1.92,1.92,0,0,0-2-2.1h0Z" transform="translate(-168.1 -341.8)"/><path class="cls-7" d="M228.4,374.2V375h0a2.1,2.1,0,0,1,1.8-1,1.87,1.87,0,0,1,2,2.1v3.4h-0.8v-2.9c0-1.2-.3-1.8-1.4-1.8-0.2,0-1.6.1-1.6,2v2.7h-0.7v-4.1a5.28,5.28,0,0,0-.1-1.2h0.8Z" transform="translate(-168.1 -341.8)"/><path class="cls-7" d="M239.6,379.6a2.8,2.8,0,1,1,0-5.6,2.68,2.68,0,0,1,2.8,2.8,2.62,2.62,0,0,1-2.8,2.8h0Zm0-4.9a2.1,2.1,0,1,0,2,2.1,1.92,1.92,0,0,0-2-2.1h0Z" transform="translate(-168.1 -341.8)"/><path class="cls-7" d="M244.5,374.2V375h0a2.1,2.1,0,0,1,1.8-1,1.87,1.87,0,0,1,2,2.1v3.4h-0.7v-2.9c0-1.2-.3-1.8-1.4-1.8-0.2,0-1.6.1-1.6,2v2.7h-0.8v-4.1a5.28,5.28,0,0,0-.1-1.2h0.8Z" transform="translate(-168.1 -341.8)"/><path class="cls-7" d="M256.6,376.2v-0.1a1.19,1.19,0,0,0-1.3-1.4,2.27,2.27,0,0,0-1.6.6l-0.5-.5a3,3,0,0,1,2.2-.8,1.78,1.78,0,0,1,1.9,1.9v2.4a4.48,4.48,0,0,0,.1,1.2h-0.7a2.77,2.77,0,0,1-.1-0.9h0a2,2,0,0,1-1.9,1,1.61,1.61,0,0,1-1.8-1.5c0-1.7,2-1.8,3.3-1.8h0.4v-0.1Zm-0.4.6c-0.8,0-2.5.1-2.5,1.1a1.11,1.11,0,0,0,1.2,1,1.55,1.55,0,0,0,1.6-1.7v-0.4h-0.3Z" transform="translate(-168.1 -341.8)"/><path class="cls-7" d="M262.2,374.2h0.7v0.9h0a2.64,2.64,0,0,1,2.1-1,2.68,2.68,0,0,1,2.8,2.8,2.73,2.73,0,0,1-2.8,2.8,2.64,2.64,0,0,1-2.1-1h0v4.1h-0.7v-8.6h0Zm2.9,0.5a2.1,2.1,0,1,0,0,4.2,2.1,2.1,0,0,0,0-4.2h0Z" transform="translate(-168.1 -341.8)"/><path class="cls-7" d="M271.7,379.6a2.8,2.8,0,1,1,2.8-2.8,2.73,2.73,0,0,1-2.8,2.8h0Zm0-4.9a2.1,2.1,0,1,0,2,2.1,2,2,0,0,0-2-2.1h0Z" transform="translate(-168.1 -341.8)"/><path class="cls-7" d="M275.9,375.8a9.73,9.73,0,0,0-.1-1.6h0.7v1h0a1.7,1.7,0,0,1,1.7-1.1,1.27,1.27,0,0,1,.6.1l-0.2.7a2.27,2.27,0,0,0-.4-0.1,1.65,1.65,0,0,0-1.6,1.7v3h-0.7v-3.7h0Z" transform="translate(-168.1 -341.8)"/><path class="cls-7" d="M282.3,374.9h-1.5V378c0,0.8.3,1,.8,1a2.35,2.35,0,0,0,.8-0.2v0.7a3,3,0,0,1-1,.2,1.18,1.18,0,0,1-1.3-1.4V375H279v-0.7h1.1v-1.5h0.8v1.5h1.5v0.6h-0.1Z" transform="translate(-168.1 -341.8)"/><path class="cls-7" d="M285.8,374.9h-1.2v4.6h-0.8v-4.6h-1.1v-0.7h1.1v-1.5a1.62,1.62,0,0,1,1.8-1.9,1.27,1.27,0,0,1,.6.1l-0.1.7a1.27,1.27,0,0,0-.6-0.1,1,1,0,0,0-1,1.3v1.4h1.2v0.7h0.1Z" transform="translate(-168.1 -341.8)"/><path class="cls-7" d="M289.2,379.6a2.8,2.8,0,0,1,0-5.6,2.8,2.8,0,0,1,0,5.6h0Zm0-4.9a2.1,2.1,0,1,0,2,2.1,2,2,0,0,0-2-2.1h0Z" transform="translate(-168.1 -341.8)"/><polygon class="cls-7" points="126.2 37.7 125.5 37.7 125.5 29.1 126.2 29.1 126.2 37.7"/><path class="cls-7" d="M296.6,372.7a0.56,0.56,0,0,1-.6-0.5,0.65,0.65,0,0,1,.6-0.6,0.51,0.51,0,0,1,.5.6,0.43,0.43,0,0,1-.5.5h0Zm0.4,6.8h-0.8v-5.3H297v5.3h0Z" transform="translate(-168.1 -341.8)"/><path class="cls-7" d="M301.3,379.6a2.8,2.8,0,0,1,0-5.6,2.68,2.68,0,0,1,2.8,2.8,2.62,2.62,0,0,1-2.8,2.8h0Zm0-4.9a2.1,2.1,0,1,0,2,2.1,1.92,1.92,0,0,0-2-2.1h0Z" transform="translate(-168.1 -341.8)"/><path class="cls-7" d="M309.2,372.7a0.56,0.56,0,0,1-.6-0.5,0.65,0.65,0,0,1,.6-0.6,0.51,0.51,0,0,1,.5.6,0.47,0.47,0,0,1-.5.5h0Zm0.4,6.8h-0.8v-5.3h0.8v5.3h0Z" transform="translate(-168.1 -341.8)"/><path class="cls-7" d="M312.1,374.2V375h0a2.1,2.1,0,0,1,1.8-1,1.87,1.87,0,0,1,2,2.1v3.4h-0.8v-2.9c0-1.2-.3-1.8-1.4-1.8-0.2,0-1.6.1-1.6,2v2.7h-0.7v-4.1a5.28,5.28,0,0,0-.1-1.2h0.8Z" transform="translate(-168.1 -341.8)"/><path class="cls-7" d="M323.6,375.4a1.23,1.23,0,0,0-1.1-.7,0.94,0.94,0,0,0-1.1.8,0.91,0.91,0,0,0,1,.8l0.8,0.2a1.6,1.6,0,0,1,1.3,1.5c0,1.1-1,1.6-2.1,1.6a2.33,2.33,0,0,1-2-1l0.6-.4a1.6,1.6,0,0,0,1.4.8,1,1,0,0,0,1.2-.9,1.18,1.18,0,0,0-1-.9l-0.7-.2a1.57,1.57,0,0,1-1.4-1.4,1.75,1.75,0,0,1,2-1.6,2.14,2.14,0,0,1,1.8.9l-0.7.5h0Z" transform="translate(-168.1 -341.8)"/><path class="cls-7" d="M326.1,377a2,2,0,0,0,1.9,1.9,1.94,1.94,0,0,0,1.7-.9l0.6,0.5a2.7,2.7,0,0,1-2.3,1.1,2.65,2.65,0,0,1-2.7-2.8A2.71,2.71,0,0,1,328,374a2.44,2.44,0,0,1,2.5,2.6v0.3h-4.4V377Zm3.6-.6a1.58,1.58,0,0,0-1.7-1.7,1.87,1.87,0,0,0-1.9,1.7h3.6Z" transform="translate(-168.1 -341.8)"/><polygon class="cls-7" points="166.1 37.7 165.3 37.7 163.1 32.4 164 32.4 165.7 36.8 165.7 36.8 167.4 32.4 168.2 32.4 166.1 37.7"/><path class="cls-7" d="M337.8,377a2,2,0,0,0,1.9,1.9,1.94,1.94,0,0,0,1.7-.9l0.6,0.5a2.7,2.7,0,0,1-2.3,1.1,2.65,2.65,0,0,1-2.7-2.8,2.71,2.71,0,0,1,2.7-2.8,2.44,2.44,0,0,1,2.5,2.6v0.3h-4.4V377Zm3.6-.6a1.58,1.58,0,0,0-1.7-1.7,1.77,1.77,0,0,0-1.8,1.7h3.5Z" transform="translate(-168.1 -341.8)"/><path class="cls-7" d="M343.7,375.8a9.73,9.73,0,0,0-.1-1.6h0.7v1h0a1.7,1.7,0,0,1,1.7-1.1,1.27,1.27,0,0,1,.6.1l-0.2.7a2.27,2.27,0,0,0-.4-0.1,1.65,1.65,0,0,0-1.6,1.7v3h-0.8v-3.7h0.1Z" transform="translate(-168.1 -341.8)"/><path class="cls-7" d="M347.7,377a2,2,0,0,0,1.9,1.9,1.94,1.94,0,0,0,1.7-.9l0.6,0.5a2.7,2.7,0,0,1-2.3,1.1,2.65,2.65,0,0,1-2.7-2.8,2.71,2.71,0,0,1,2.7-2.8,2.44,2.44,0,0,1,2.5,2.6v0.3h-4.4V377Zm3.6-.6a1.58,1.58,0,0,0-1.7-1.7,1.77,1.77,0,0,0-1.8,1.7h3.5Z" transform="translate(-168.1 -341.8)"/><path class="cls-7" d="M356.7,375.8a9.73,9.73,0,0,0-.1-1.6h0.7v1h0a1.7,1.7,0,0,1,1.7-1.1,1.27,1.27,0,0,1,.6.1l-0.2.7a2.27,2.27,0,0,0-.4-0.1,1.65,1.65,0,0,0-1.6,1.7v3h-0.7v-3.7h0Z" transform="translate(-168.1 -341.8)"/><path class="cls-7" d="M360.9,372.7a0.47,0.47,0,0,1-.5-0.5,0.65,0.65,0,0,1,.5-0.6,0.56,0.56,0,0,1,.5.6,0.54,0.54,0,0,1-.5.5h0Zm0.3,6.8h-0.7v-5.3h0.7v5.3h0Z" transform="translate(-168.1 -341.8)"/><path class="cls-7" d="M365.8,375.4a1.23,1.23,0,0,0-1.1-.7,0.94,0.94,0,0,0-1.1.8c0,0.5.3,0.7,1,.8l0.8,0.2a1.6,1.6,0,0,1,1.3,1.5c0,1.1-1,1.6-2.1,1.6a2.33,2.33,0,0,1-2-1l0.6-.4a1.6,1.6,0,0,0,1.4.8,1,1,0,0,0,1.2-.9,1.18,1.18,0,0,0-1-.9l-0.7-.2a1.57,1.57,0,0,1-1.4-1.4,1.75,1.75,0,0,1,2-1.6,2.14,2.14,0,0,1,1.8.9l-0.7.5h0Z" transform="translate(-168.1 -341.8)"/><polygon class="cls-7" points="200.5 34.8 203 32.4 204.1 32.4 201.5 34.8 204.4 37.7 203.2 37.7 200.5 34.9 200.5 37.7 199.7 37.7 199.7 29.1 200.5 29.1 200.5 34.8"/><path class="cls-7" d="M186.8,389.8a1.43,1.43,0,0,0-1.3-.7,2.1,2.1,0,0,0,0,4.2,1.43,1.43,0,0,0,1.3-.7l0.6,0.5a2.46,2.46,0,0,1-1.9.9,2.8,2.8,0,1,1,0-5.6,2.46,2.46,0,0,1,1.9.9l-0.6.5h0Z" transform="translate(-168.1 -341.8)"/><path class="cls-7" d="M190.9,393.9a2.8,2.8,0,1,1,0-5.6,2.68,2.68,0,0,1,2.8,2.8,2.58,2.58,0,0,1-2.8,2.8h0Zm0-4.8a2.1,2.1,0,1,0,2,2.1,1.92,1.92,0,0,0-2-2.1h0Z" transform="translate(-168.1 -341.8)"/><path class="cls-7" d="M195.8,388.5v0.8h0a2.1,2.1,0,0,1,1.8-1,1.87,1.87,0,0,1,2,2.1v3.4h-0.7v-2.9c0-1.2-.3-1.8-1.4-1.8-0.2,0-1.6.1-1.6,2v2.7h-0.7v-4.1a5.28,5.28,0,0,0-.1-1.2h0.7Z" transform="translate(-168.1 -341.8)"/><path class="cls-7" d="M206.7,393.8h-0.8v-0.9h0a2.64,2.64,0,0,1-2.1,1,2.68,2.68,0,0,1-2.8-2.8,2.73,2.73,0,0,1,2.8-2.8,2.64,2.64,0,0,1,2.1,1h0v-4.1h0.8v8.6h0Zm-2.9-.5a2.1,2.1,0,1,0,0-4.2,2,2,0,0,0-2,2.1,2,2,0,0,0,2,2.1h0Z" transform="translate(-168.1 -341.8)"/><path class="cls-7" d="M208.8,387a0.47,0.47,0,0,1-.5-0.5,0.54,0.54,0,0,1,.5-0.5,0.47,0.47,0,0,1,.5.5,0.43,0.43,0,0,1-.5.5h0Zm0.4,6.8h-0.8v-5.3h0.8v5.3h0Z" transform="translate(-168.1 -341.8)"/><path class="cls-7" d="M213.7,389.2h-1.5v3.1c0,0.8.3,0.9,0.8,0.9a2.35,2.35,0,0,0,.8-0.2v0.7a3,3,0,0,1-1,.2,1.18,1.18,0,0,1-1.3-1.4v-3.3h-1.1v-0.7h1.1V387h0.8v1.5h1.5v0.7h-0.1Z" transform="translate(-168.1 -341.8)"/><path class="cls-7" d="M215.3,387a0.47,0.47,0,0,1-.5-0.5,0.54,0.54,0,0,1,.5-0.5,0.56,0.56,0,0,1,.6.5,0.63,0.63,0,0,1-.6.5h0Zm0.4,6.8h-0.8v-5.3h0.8v5.3h0Z" transform="translate(-168.1 -341.8)"/><path class="cls-7" d="M220,393.9a2.8,2.8,0,1,1,0-5.6,2.68,2.68,0,0,1,2.8,2.8,2.62,2.62,0,0,1-2.8,2.8h0Zm0-4.8a2.1,2.1,0,1,0,2,2.1,2,2,0,0,0-2-2.1h0Z" transform="translate(-168.1 -341.8)"/><path class="cls-7" d="M224.9,388.5v0.8h0a2.1,2.1,0,0,1,1.8-1,1.87,1.87,0,0,1,2,2.1v3.4H228v-2.9c0-1.2-.3-1.8-1.4-1.8-0.2,0-1.6.1-1.6,2v2.7h-0.8v-4.1a5.28,5.28,0,0,0-.1-1.2h0.8Z" transform="translate(-168.1 -341.8)"/><path class="cls-7" d="M233.2,389.8a1.23,1.23,0,0,0-1.1-.7,0.94,0.94,0,0,0-1.1.8c0,0.5.3,0.7,1,.8l0.8,0.2a1.6,1.6,0,0,1,1.3,1.5c0,1.1-1,1.6-2.1,1.6a2.33,2.33,0,0,1-2-1l0.7-.4a1.6,1.6,0,0,0,1.4.8,1,1,0,0,0,1.2-.9,1,1,0,0,0-1-.8l-0.7-.2a1.49,1.49,0,0,1-1.3-1.4,1.71,1.71,0,0,1,1.9-1.6,2.14,2.14,0,0,1,1.8.9l-0.8.4h0Z" transform="translate(-168.1 -341.8)"/><path class="cls-7" d="M237.6,391.6h-0.8v-0.9c0-1.2,1.8-1.6,1.8-3a1.21,1.21,0,0,0-1.3-1.3,1.33,1.33,0,0,0-1.4,1.2l-0.8-.1a2.19,2.19,0,0,1,2.3-1.9,1.92,1.92,0,0,1,2.1,2c0,1.9-1.8,1.8-1.8,3.4v0.6h-0.1Zm-0.4,2.3a0.6,0.6,0,1,1,.6-0.6,0.58,0.58,0,0,1-.6.6h0Z" transform="translate(-168.1 -341.8)"/></svg>