<svg id="Layer_1" data-name="Layer 1" xmlns="http://www.w3.org/2000/svg" viewBox="0 0 32 32"><defs><style>.cls-1{fill:#343e48;}</style></defs><title>Google+ Icon</title><g id="_grupa_" data-name="&lt;grupa&gt;"><path id="_ścieżka_" data-name="&lt;ścieżka&gt;" class="cls-1" d="M294.5,413.8c-1.3,0-2.1,1.2-1.9,2.9a3.1,3.1,0,0,0,2.7,2.9c1.3,0,2-1,1.8-2.7S295.7,413.8,294.5,413.8Z" transform="translate(-281.7 -405)"/><path id="_ścieżka_2" data-name="&lt;ścieżka&gt;" class="cls-1" d="M295,423c-1.9,0-3.5,1.2-3.5,2.6s1.4,2.6,3.3,2.6c2.7,0,3.6-1.1,3.6-2.6a0.9,0.9,0,0,0-.1-0.5c-0.2-.8-1-1.3-2.1-2A4.87,4.87,0,0,0,295,423Z" transform="translate(-281.7 -405)"/><path id="_ścieżka_złożona_" data-name="&lt;ścieżka złożona&gt;" class="cls-1" d="M297.7,405a16,16,0,1,0,16,16A16,16,0,0,0,297.7,405Zm1.2,11.8a3.23,3.23,0,0,1-1.4,2.5,1.54,1.54,0,0,0-.9,1.4c0,0.5,1,1.1,1.4,1.5a3.48,3.48,0,0,1,1.8,3.3c0,1.8-1.9,3.6-5,3.6-2.7,0-5.1-1.1-5.1-2.9s1.9-3.7,4.7-3.7h0.9a1.69,1.69,0,0,1-.7-1.2,2.92,2.92,0,0,1,.2-0.9h-0.5a3.41,3.41,0,0,1-3.6-3.6c0-1.9,2-3.7,4.4-3.7h4.7l-1.1,1.1h-1.2A2.54,2.54,0,0,1,298.9,416.8Zm6.8-.3h-2.2v2.2h-1.1v-2.2h-2.2v-1.1h2.2v-2.2h1.1v2.2h2.2v1.1Z" transform="translate(-281.7 -405)"/></g></svg>