<svg id="Layer_1" data-name="Layer 1" xmlns="http://www.w3.org/2000/svg" viewBox="0 0 237.6 58.4"><defs><style>.cls-1{fill:#ffc627;}.cls-2{fill:#fff;}</style></defs><title>header_logo</title><rect id="_ścieżka_" data-name=" ścieżka " class="cls-1" y="23.1" width="58.4" height="12.3"/><polygon id="_ścieżka_2" data-name=" ścieżka 2" class="cls-2" points="54.7 54.7 43.5 54.7 43.5 43.6 39.8 39.8 39.8 58.4 58.4 58.4 54.7 54.7"/><polygon id="_ścieżka_3" data-name=" ścieżka 3" class="cls-2" points="43.5 14.9 43.5 3.7 54.7 3.7 58.4 0 39.8 0 39.8 18.6 43.5 14.9"/><polygon id="_ścieżka_4" data-name=" ścieżka 4" class="cls-2" points="3.8 3.7 14.9 3.7 14.9 14.9 18.6 18.6 18.6 0 0.1 0 3.8 3.7"/><polygon id="_ścieżka_5" data-name=" ścieżka 5" class="cls-2" points="14.9 43.5 14.9 54.7 3.7 54.7 0 58.4 18.6 58.4 18.6 39.8 14.9 43.5"/><path id="_ścieżka_złożona_" data-name=" ścieżka złożona " class="cls-2" d="M210.5,20h0c0-4.5-3.2-8.2-7.6-8.2s-7.5,3.6-7.5,8.1V20c0,4.4,3.2,8.1,7.6,8.1s7.5-3.7,7.5-8.1m-19.3,0h0A11.63,11.63,0,0,1,202.56,8.1h0.34a11.49,11.49,0,0,1,11.7,11.27q0,0.26,0,.53V20a11.7,11.7,0,0,1-23.4,0v0"/><polygon id="_ścieżka_6" data-name=" ścieżka 6" class="cls-2" points="218.1 8.5 221.7 8.5 233.7 24.3 233.7 8.5 237.6 8.5 237.6 31.4 234.3 31.4 222 15.1 222 31.4 218.1 31.4 218.1 8.5"/><polygon id="_ścieżka_7" data-name=" ścieżka 7" class="cls-2" points="89.4 8.5 93.3 8.5 93.3 18 104 18 104 8.5 107.9 8.5 107.9 31.4 104 31.4 104 21.7 93.3 21.7 93.3 31.4 89.4 31.4 89.4 8.5"/><path id="_ścieżka_złożona_2" data-name=" ścieżka złożona 2" class="cls-2" d="M130.7,20h0c0-4.5-3.2-8.2-7.6-8.2s-7.5,3.6-7.5,8.1V20c0,4.4,3.2,8.1,7.6,8.1s7.5-3.7,7.5-8.1m-19.3,0h0A11.63,11.63,0,0,1,122.76,8.1h0.34a11.49,11.49,0,0,1,11.7,11.27q0,0.26,0,.53V20a11.7,11.7,0,0,1-23.4,0v0"/><path id="_ścieżka_złożona_3" data-name=" ścieżka złożona 3" class="cls-2" d="M147.9,19.8c2.8,0,4.6-1.5,4.6-3.8V15.9c0-2.5-1.7-3.8-4.6-3.8h-5.7v7.7h5.7ZM138.3,8.5h10a8.87,8.87,0,0,1,6.5,2.3,6.79,6.79,0,0,1,1.9,4.9v0.1a6.76,6.76,0,0,1-5.3,6.9l6,8.7h-4.7l-5.5-8h-4.9v8h-3.9V8.5h-0.1Z"/><rect id="_ścieżka_8" data-name=" ścieżka 8" class="cls-2" x="161.6" y="8.5" width="3.9" height="22.9"/><polygon id="_ścieżka_9" data-name=" ścieżka 9" class="cls-2" points="170.7 28.4 183.9 12.1 171.1 12.1 171.1 8.5 189.1 8.5 189.1 11.5 175.8 27.8 189.1 27.8 189.1 31.4 170.7 31.4 170.7 28.4"/><path id="_ścieżka_złożona_4" data-name=" ścieżka złożona 4" class="cls-2" d="M224,42.9c-2.8-.6-3.3-1.3-3.3-2.4s1-1.9,2.5-1.9a5.26,5.26,0,0,1,3.5,1.3l0.1,0.1,1-1.4-0.1-.1a6.72,6.72,0,0,0-4.5-1.6c-2.5,0-4.3,1.5-4.3,3.7,0,2.4,1.7,3.3,4.3,3.8s3.1,1.2,3.1,2.3-1.1,2-2.6,2a5.69,5.69,0,0,1-4.2-1.8l-0.1-.1-1.1,1.3,0.1,0.1a7.51,7.51,0,0,0,5.2,2.1c2.6,0,4.4-1.6,4.4-3.8,0.2-1.9-1-3-4-3.6m-16.8-4.1h4.2V50.2h1.8V38.8h4.2V37.1H207.3v1.7h-0.1Zm-4,8.3-7.6-9.8-0.1-.1H194V50.3h1.7V40.2l7.8,10.1,0.1,0.1H205V37.3h-1.7v9.8h-0.1Zm-19.4-2.6h6.8V42.9h-6.8v-4h7.6V37.3h-9.3V50.4h9.4V48.6h-7.7V44.5h0ZM172.7,44l-4.5-6.8h-1.7V50.3h1.7V40.4l4.3,6.4h0.2l4.3-6.5v10h1.7V37.2H177Zm-18.5-5.2h4.2V50.2h1.8V38.8h4.2V37.1H154.3v1.7h-0.1Zm-5.6,4.1c-2.8-.6-3.3-1.3-3.3-2.4s1-1.9,2.5-1.9a5.26,5.26,0,0,1,3.5,1.3l0.1,0.1,1-1.4-0.1-.1a6.72,6.72,0,0,0-4.5-1.6c-2.5,0-4.3,1.5-4.3,3.7,0,2.4,1.7,3.3,4.3,3.8s3.1,1.2,3.1,2.3-1.1,2-2.6,2a5.69,5.69,0,0,1-4.2-1.8l-0.1-.1-1.1,1.3,0.1,0.1a7.51,7.51,0,0,0,5.2,2.1c2.6,0,4.4-1.6,4.4-3.8,0.2-1.9-1.1-3-4-3.6m-14.9,1.6h6.8V42.9h-6.8v-4h7.6V37.3H132V50.4h9.4V48.6h-7.7V44.5h0Zm-10,3.4-4.3-10.6V37.2h-1.9L123,50.4h1.5L130,37.2h-1.9Zm-9.9-.8-7.6-9.8-0.1-.1h-1.6V50.3h1.7V40.2L114,50.3v0.1h1.4V37.3h-1.7v9.8h0.1ZM99.5,50.3h1.7V37.2H99.5V50.3h0Z"/></svg>