<svg id="Layer_1" data-name="Layer 1" xmlns="http://www.w3.org/2000/svg" viewBox="0 0 237.6 58.4"><defs><style>.cls-1{fill:#ffc627;}.cls-2{fill:#333e48;}</style></defs><title>Horizon logo</title><rect id="_ścieżka_" data-name="&lt;ścieżka&gt;" class="cls-1" y="23.1" width="58.4" height="12.3"/><polygon id="_ścieżka_2" data-name="&lt;ścieżka&gt;" class="cls-2" points="54.7 54.7 43.5 54.7 43.5 43.6 39.8 39.8 39.8 58.4 58.4 58.4 54.7 54.7"/><polygon id="_ścieżka_3" data-name="&lt;ścieżka&gt;" class="cls-2" points="43.5 14.9 43.5 3.7 54.7 3.7 58.4 0 39.8 0 39.8 18.6 43.5 14.9"/><polygon id="_ścieżka_4" data-name="&lt;ścieżka&gt;" class="cls-2" points="3.8 3.7 14.9 3.7 14.9 14.9 18.6 18.6 18.6 0 0.1 0 3.8 3.7"/><polygon id="_ścieżka_5" data-name="&lt;ścieżka&gt;" class="cls-2" points="14.9 43.5 14.9 54.7 3.7 54.7 0 58.4 18.6 58.4 18.6 39.8 14.9 43.5"/><path id="_ścieżka_złożona_" data-name="&lt;ścieżka złożona&gt;" class="cls-2" d="M389.5,411.4h0c0-4.5-3.2-8.2-7.6-8.2s-7.5,3.6-7.5,8.1v0.1c0,4.4,3.2,8.1,7.6,8.1s7.5-3.7,7.5-8.1m-19.3,0h0a11.63,11.63,0,0,1,11.7-11.9,11.49,11.49,0,0,1,11.7,11.8v0.1a11.7,11.7,0,1,1-23.4,0" transform="translate(-179 -391.4)"/><polygon id="_ścieżka_6" data-name="&lt;ścieżka&gt;" class="cls-2" points="218.1 8.5 221.7 8.5 233.7 24.3 233.7 8.5 237.6 8.5 237.6 31.4 234.3 31.4 222 15.1 222 31.4 218.1 31.4 218.1 8.5"/><polygon id="_ścieżka_7" data-name="&lt;ścieżka&gt;" class="cls-2" points="89.4 8.5 93.3 8.5 93.3 18 104 18 104 8.5 107.9 8.5 107.9 31.4 104 31.4 104 21.7 93.3 21.7 93.3 31.4 89.4 31.4 89.4 8.5"/><path id="_ścieżka_złożona_2" data-name="&lt;ścieżka złożona&gt;" class="cls-2" d="M309.7,411.4h0c0-4.5-3.2-8.2-7.6-8.2s-7.5,3.6-7.5,8.1v0.1c0,4.4,3.2,8.1,7.6,8.1s7.5-3.7,7.5-8.1m-19.3,0h0a11.63,11.63,0,0,1,11.7-11.9,11.49,11.49,0,0,1,11.7,11.8v0.1a11.7,11.7,0,1,1-23.4,0" transform="translate(-179 -391.4)"/><path id="_ścieżka_złożona_3" data-name="&lt;ścieżka złożona&gt;" class="cls-2" d="M326.9,411.2c2.8,0,4.6-1.5,4.6-3.8v-0.1c0-2.5-1.7-3.8-4.6-3.8h-5.7v7.7h5.7Zm-9.6-11.3h10a8.87,8.87,0,0,1,6.5,2.3,6.79,6.79,0,0,1,1.9,4.9v0.1a6.76,6.76,0,0,1-5.3,6.9l6,8.7h-4.7l-5.5-8h-4.9v8h-3.9V399.9h-0.1Z" transform="translate(-179 -391.4)"/><rect id="_ścieżka_8" data-name="&lt;ścieżka&gt;" class="cls-2" x="161.6" y="8.5" width="3.9" height="22.9"/><polygon id="_ścieżka_9" data-name="&lt;ścieżka&gt;" class="cls-2" points="170.7 28.4 183.9 12.1 171.1 12.1 171.1 8.5 189.1 8.5 189.1 11.5 175.8 27.8 189.1 27.8 189.1 31.4 170.7 31.4 170.7 28.4"/><path id="_ścieżka_złożona_4" data-name="&lt;ścieżka złożona&gt;" class="cls-2" d="M403,434.3c-2.8-.6-3.3-1.3-3.3-2.4s1-1.9,2.5-1.9a5.26,5.26,0,0,1,3.5,1.3l0.1,0.1,1-1.4-0.1-.1a6.72,6.72,0,0,0-4.5-1.6c-2.5,0-4.3,1.5-4.3,3.7,0,2.4,1.7,3.3,4.3,3.8s3.1,1.2,3.1,2.3-1.1,2-2.6,2a5.69,5.69,0,0,1-4.2-1.8l-0.1-.1-1.1,1.3,0.1,0.1a7.51,7.51,0,0,0,5.2,2.1c2.6,0,4.4-1.6,4.4-3.8,0.2-1.9-1-3-4-3.6m-16.8-4.1h4.2v11.4h1.8V430.2h4.2v-1.7H386.3v1.7h-0.1Zm-4,8.3-7.6-9.8-0.1-.1H373v13.1h1.7V431.6l7.8,10.1,0.1,0.1H384V428.7h-1.7v9.8h-0.1Zm-19.4-2.6h6.8v-1.6h-6.8v-4h7.6v-1.6h-9.3v13.1h9.4V440h-7.7v-4.1Zm-11.1-.5-4.5-6.8h-1.7v13.1h1.7v-9.9l4.3,6.4h0.2l4.3-6.5v10h1.7V428.6H356Zm-18.5-5.2h4.2v11.4h1.8V430.2h4.2v-1.7H333.3v1.7h-0.1Zm-5.6,4.1c-2.8-.6-3.3-1.3-3.3-2.4s1-1.9,2.5-1.9a5.26,5.26,0,0,1,3.5,1.3l0.1,0.1,1-1.4-0.1-.1a6.72,6.72,0,0,0-4.5-1.6c-2.5,0-4.3,1.5-4.3,3.7,0,2.4,1.7,3.3,4.3,3.8s3.1,1.2,3.1,2.3-1.1,2-2.6,2a5.69,5.69,0,0,1-4.2-1.8l-0.1-.1-1.1,1.3,0.1,0.1a7.51,7.51,0,0,0,5.2,2.1c2.6,0,4.4-1.6,4.4-3.8,0.2-1.9-1.1-3-4-3.6m-14.9,1.6h6.8v-1.6h-6.8v-4h7.6v-1.6H311v13.1h9.4V440h-7.7v-4.1h0Zm-10,3.4-4.3-10.6v-0.1h-1.9l5.5,13.2h1.5l5.5-13.2h-1.9Zm-9.9-.8-7.6-9.8-0.1-.1h-1.6v13.1h1.7V431.6l7.8,10.1v0.1h1.4V428.7h-1.7v9.8h0.1Zm-14.3,3.2h1.7V428.6h-1.7v13.1Z" transform="translate(-179 -391.4)"/></svg>