<svg id="Layer_1" data-name="Layer 1" xmlns="http://www.w3.org/2000/svg" viewBox="0 0 32 32"><defs><style>.cls-1{fill:#343e48;}</style></defs><title>Twitter Icon</title><path id="_ścieżka_złożona_" data-name="&lt;ścieżka złożona&gt;" class="cls-1" d="M297.3,404.7a16,16,0,1,0,16,16A16,16,0,0,0,297.3,404.7Zm6.4,12.7v0.4a9.26,9.26,0,0,1-9.3,9.3,8.45,8.45,0,0,1-5-1.5h0.8a6.56,6.56,0,0,0,4.1-1.4,3.44,3.44,0,0,1-3.1-2.3c0.2,0,.4.1,0.6,0.1a2.77,2.77,0,0,0,.9-0.1,3.23,3.23,0,0,1-2.6-3.2h0a3.31,3.31,0,0,0,1.5.4,3.28,3.28,0,0,1-1.5-2.7,4.71,4.71,0,0,1,.4-1.7,9,9,0,0,0,6.8,3.4,1.7,1.7,0,0,1-.1-0.7,3.33,3.33,0,0,1,3.3-3.3,3.49,3.49,0,0,1,2.4,1,5.39,5.39,0,0,0,2.1-.8,3.19,3.19,0,0,1-1.4,1.8,10.55,10.55,0,0,0,1.9-.5A10.18,10.18,0,0,1,303.7,417.4Z" transform="translate(-281.3 -404.7)"/></svg>