<svg id="Layer_1" data-name="Layer 1" xmlns="http://www.w3.org/2000/svg" viewBox="0 0 32 32"><defs><style>.cls-1{fill:#343e48;}</style></defs><title>Youtube Icon</title><g id="_grupa_" data-name="&lt;grupa&gt;"><path id="_ścieżka_" data-name="&lt;ścieżka&gt;" class="cls-1" d="M298,418.6a0.35,0.35,0,0,0,.4-0.4v-2.4c0-.1,0-0.2-0.1-0.2a0.5,0.5,0,0,0-.6,0,0.2,0.2,0,0,0-.1.2v2.4a0.37,0.37,0,0,0,.1.3C297.8,418.5,297.9,418.6,298,418.6Z" transform="translate(-282.1 -405)"/><path id="_ścieżka_złożona_" data-name="&lt;ścieżka złożona&gt;" class="cls-1" d="M300,423.1a0.76,0.76,0,0,0-.4.1l-0.3.3v-1.8h-0.8v5.5h0.8v-0.3l0.3,0.3a0.6,0.6,0,0,0,.4.1,0.76,0.76,0,0,0,.5-0.2,1.45,1.45,0,0,0,.2-0.7v-2.2a1.88,1.88,0,0,0-.2-0.8A0.42,0.42,0,0,0,300,423.1Zm-0.1,3.1a0.37,0.37,0,0,1-.1.3c0,0.1-.1.1-0.2,0.1h-0.2c-0.1,0-.1-0.1-0.2-0.1V424a0.2,0.2,0,0,1,.2-0.1h0.2a0.35,0.35,0,0,1,.4.4v1.9h-0.1Z" transform="translate(-282.1 -405)"/><polygon id="_ścieżka_2" data-name="&lt;ścieżka&gt;" class="cls-1" points="10.3 17.5 11.2 17.5 11.2 22.2 12.1 22.2 12.1 17.5 13.1 17.5 13.1 16.7 10.3 16.7 10.3 17.5"/><path id="_ścieżka_3" data-name="&lt;ścieżka&gt;" class="cls-1" d="M297,426.2a0.53,0.53,0,0,1-.3.2,0.31,0.31,0,0,1-.2.1,0.2,0.2,0,0,1-.2-0.1v-3.3h-0.8v3.4a0.75,0.75,0,0,0,.1.5,0.52,0.52,0,0,0,.4.2,0.9,0.9,0,0,0,.5-0.1,1.76,1.76,0,0,0,.5-0.4v0.4h0.8V423H297v3.2Z" transform="translate(-282.1 -405)"/><path id="_ścieżka_złożona_2" data-name="&lt;ścieżka złożona&gt;" class="cls-1" d="M298.1,405a16,16,0,1,0,16,16A16,16,0,0,0,298.1,405Zm1.9,9.8h0.9v3.4c0,0.1,0,.2.1,0.2a0.35,0.35,0,0,0,.2.1,0.37,0.37,0,0,0,.3-0.1c0.1-.1.2-0.1,0.3-0.2v-3.4h0.9v4.5h-0.9v-0.5a1.76,1.76,0,0,1-.5.4,1.09,1.09,0,0,1-.5.1,0.76,0.76,0,0,1-.5-0.2,0.85,0.85,0,0,1-.2-0.6v-3.7H300Zm-3.3,1a0.91,0.91,0,0,1,.4-0.8,1.49,1.49,0,0,1,1-.3,1.2,1.2,0,0,1,1.3,1.1v2.3a1,1,0,0,1-.4.9,1.49,1.49,0,0,1-1,.3,1.69,1.69,0,0,1-1-.3,1.27,1.27,0,0,1-.4-0.9v-2.3h0.1Zm-2.5-2.6,0.7,2.4H295l0.6-2.4h1l-1.2,3.5v2.5h-1v-2.4l-1.2-3.7h1v0.1Zm11.9,12.7a2.9,2.9,0,0,1-2.9,2.9H293a2.9,2.9,0,0,1-2.9-2.9v-2.3a2.9,2.9,0,0,1,2.9-2.9h10.2a2.9,2.9,0,0,1,2.9,2.9v2.3Z" transform="translate(-282.1 -405)"/><path id="_ścieżka_złożona_3" data-name="&lt;ścieżka złożona&gt;" class="cls-1" d="M302.4,423a1.06,1.06,0,0,0-1.2,1.2V426a1.2,1.2,0,1,0,2.4,0v-0.2h-0.8V426a0.75,0.75,0,0,1-.1.5,0.28,0.28,0,0,1-.3.1,0.37,0.37,0,0,1-.3-0.1,0.48,0.48,0,0,1-.1-0.4v-0.8h1.5v-1a1.22,1.22,0,0,0-.3-0.9A0.73,0.73,0,0,0,302.4,423Zm0.4,1.6H302v-0.4a0.48,0.48,0,0,1,.1-0.4,0.28,0.28,0,0,1,.3-0.1,0.37,0.37,0,0,1,.3.1,0.48,0.48,0,0,1,.1.4v0.4Z" transform="translate(-282.1 -405)"/></g></svg>