<?xml version="1.0" encoding="utf-8"?>
<!-- Generator: Adobe Illustrator 19.0.0, SVG Export Plug-In . SVG Version: 6.00 Build 0)  -->
<svg version="1.1" id="Layer_1" xmlns="http://www.w3.org/2000/svg" xmlns:xlink="http://www.w3.org/1999/xlink" x="0px" y="0px"
	 viewBox="0 0 841.9 595.3" style="enable-background:new 0 0 841.9 595.3;" xml:space="preserve">
<style type="text/css">
	.st0{fill:#333E48;}
	.st1{fill:#FFFFFF;}
	.st2{font-family:'Avenir-Heavy';}
	.st3{font-size:5.653px;}
	.st4{letter-spacing:175;}
	.st5{fill:#FFA400;}
	.st6{font-family:'Avenir-Medium';}
	.st7{font-size:8.4255px;}
	.st8{font-family:'Avenir-Roman';}
	.st9{font-size:7.0212px;}
	.st10{font-family:'Avenir-Book';}
	.st11{fill:#FFC82E;}
	.st12{font-size:6.3191px;}
	.st13{fill:#FFC425;}
	.st14{fill:#8E8F8F;}
	.st15{font-family:'Avenir-Light';}
	.st16{font-size:14.0424px;}
</style>
<polygon id="XMLID_141_" class="st0" points="654.3,443 654.3,153 162.6,153 162.6,443 654.3,443 "/>
<text id="XMLID_140_" transform="matrix(1 0 0 1 188.4315 226.7676)" class="st1 st2 st3">POR</text>
<text id="XMLID_139_" transform="matrix(1 0 0 1 200.0565 226.7676)" class="st1 st2 st3">TFOLIO</text>
<text id="XMLID_138_" transform="matrix(1 0 0 1 257.4081 226.7676)" class="st1 st2 st3">GOAL</text>
<text id="XMLID_137_" transform="matrix(1 0 0 1 315.0409 226.7676)" class="st1 st2 st3">STRA</text>
<text id="XMLID_136_" transform="matrix(1 0 0 1 328.6581 226.7676)" class="st1 st2 st3">TEG</text>
<text id="XMLID_135_" transform="matrix(1 0 0 1 339.7518 226.7676)" class="st1 st2 st3 st4">YB</text>
<text id="XMLID_134_" transform="matrix(1 0 0 1 522.7206 226.7676)" class="st1 st2 st3">ENCHMAR</text>
<text id="XMLID_133_" transform="matrix(1 0 0 1 551.6268 226.7676)" class="st1 st2 st3">K</text>
<text id="XMLID_132_" transform="matrix(1 0 0 1 188.4393 243.5566)" class="st5 st6 st7">Focused</text>
<text id="XMLID_131_" transform="matrix(1 0 0 1 257.4081 242.4395)" class="st1 st8 st9">Aggr</text>
<text id="XMLID_130_" transform="matrix(1 0 0 1 273.2753 242.4395)" class="st1 st8 st9">essive</text>
<text id="XMLID_129_" transform="matrix(1 0 0 1 315.0409 242.4531)" class="st1 st10 st9">Seeks to maximize long ter</text>
<text id="XMLID_128_" transform="matrix(1 0 0 1 399.4159 242.4531)" class="st1 st10 st9">m capital appr</text>
<text id="XMLID_127_" transform="matrix(1 0 0 1 444.3925 242.4531)" class="st1 st10 st9">eciation.</text>
<text id="XMLID_126_" transform="matrix(1 0 0 1 471.0487 242.4531)" class="st1 st10 st9"> </text>
<text id="XMLID_125_" transform="matrix(1 0 0 1 315.0409 250.877)" class="st1 st10 st9">This portfolio will be primarily exposed to equities.</text>
<text id="XMLID_124_" transform="matrix(1 0 0 1 556.9803 241.9082)" class="st11 st2 st12">100%</text>
<text id="XMLID_123_" transform="matrix(1 0 0 1 573.9335 241.9082)" class="st11 st10 st12"> Equity</text>
<text id="XMLID_122_" transform="matrix(1 0 0 1 188.4393 279.627)" class="st5 st6 st7">Gr</text>
<text id="XMLID_121_" transform="matrix(1 0 0 1 197.9628 279.627)" class="st5 st6 st7">owth</text>
<text id="XMLID_120_" transform="matrix(1 0 0 1 257.4081 278.4863)" class="st1 st8 st9">Capital </text>
<text id="XMLID_119_" transform="matrix(1 0 0 1 257.4081 286.6113)" class="st1 st8 st9">Gr</text>
<text id="XMLID_118_" transform="matrix(1 0 0 1 265.2206 286.6113)" class="st1 st8 st9">owth</text>
<text id="XMLID_117_" transform="matrix(1 0 0 1 315.0409 278.5156)" class="st1 st10 st9">Seeks long te</text>
<text id="XMLID_116_" transform="matrix(1 0 0 1 357.3094 278.5156)" class="st1 st10 st9">rm</text>
<text id="XMLID_115_" transform="matrix(1 0 0 1 365.744 278.5156)" class="st1 st10 st9"> capital appr</text>
<text id="XMLID_114_" transform="matrix(1 0 0 1 404.744 278.5156)" class="st1 st10 st9">eciation by investing primarily</text>
<text id="XMLID_113_" transform="matrix(1 0 0 1 498.0594 278.5156)" class="st1 st10 st9"> </text>
<text id="XMLID_112_" transform="matrix(1 0 0 1 315.0409 286.9395)" class="st1 st10 st9">in equities. This portfolio will generally featur</text>
<text id="XMLID_111_" transform="matrix(1 0 0 1 455.4081 286.9395)" class="st1 st10 st9">e </text>
<text id="XMLID_110_" transform="matrix(1 0 0 1 315.0409 295.3613)" class="st1 st10 st9">a small exposur</text>
<text id="XMLID_109_" transform="matrix(1 0 0 1 363.4159 295.3613)" class="st1 st10 st9">e to </text>
<text id="XMLID_108_" transform="matrix(1 0 0 1 377.7206 295.3613)" class="st1 st10 st9">ﬁ</text>
<text id="XMLID_107_" transform="matrix(1 0 0 1 379.6034 295.3613)" class="st1 st10 st9"> xed income intended to dampen the </text>
<text id="XMLID_106_" transform="matrix(1 0 0 1 315.0409 303.7891)" class="st1 st10 st9">volatility slightly </text>
<text id="XMLID_105_" transform="matrix(1 0 0 1 366.869 303.7891)" class="st1 st10 st9">re</text>
<text id="XMLID_104_" transform="matrix(1 0 0 1 372.9862 303.7891)" class="st1 st10 st9">lative to an all equity portfolio</text>
<text id="XMLID_103_" transform="matrix(1 0 0 1 466.8065 303.7891)" class="st1 st10 st9">.</text>
<text id="XMLID_102_" transform="matrix(1 0 0 1 556.9803 277.9707)" class="st13 st2 st12">85%</text>
<text id="XMLID_101_" transform="matrix(1 0 0 1 570.1971 277.9707)" class="st13 st10 st12"> Equity</text>
<text id="XMLID_100_" transform="matrix(1 0 0 1 556.9803 289.252)" class="st1 st2 st12">15%</text>
<text id="XMLID_99_" transform="matrix(1 0 0 1 570.1971 289.252)" class="st1 st10 st12"> Fixed Income</text>
<text id="XMLID_98_" transform="matrix(1 0 0 1 188.4393 323.0879)" class="st5 st6 st7">Moderat</text>
<text id="XMLID_97_" transform="matrix(1 0 0 1 221.5194 323.0879)" class="st5 st6 st7">e</text>
<text id="XMLID_96_" transform="matrix(1 0 0 1 257.4081 321.9785)" class="st1 st8 st9">Balanced</text>
<text id="XMLID_95_" transform="matrix(1 0 0 1 315.0409 321.9844)" class="st1 st10 st9">Seeks modest long te</text>
<text id="XMLID_94_" transform="matrix(1 0 0 1 382.9081 321.9844)" class="st1 st10 st9">rm</text>
<text id="XMLID_93_" transform="matrix(1 0 0 1 391.3612 321.9844)" class="st1 st10 st9"> capital appr</text>
<text id="XMLID_92_" transform="matrix(1 0 0 1 430.3534 321.9844)" class="st1 st10 st9">eciation with a </text>
<text id="XMLID_91_" transform="matrix(1 0 0 1 315.0409 330.416)" class="st1 st10 st9">secondary objective of pr</text>
<text id="XMLID_90_" transform="matrix(1 0 0 1 394.3612 330.416)" class="st1 st10 st9">eserving capital. This portfolio will </text>
<text id="XMLID_89_" transform="matrix(1 0 0 1 315.0409 338.8301)" class="st1 st10 st9">featur</text>
<text id="XMLID_88_" transform="matrix(1 0 0 1 333.1112 338.8301)" class="st1 st10 st9">e signi</text>
<text id="XMLID_87_" transform="matrix(1 0 0 1 353.5096 338.8301)" class="st1 st10 st9">ﬁ</text>
<text id="XMLID_86_" transform="matrix(1 0 0 1 355.411 338.8301)" class="st1 st10 st9"> cant exposure to equity and </text>
<text id="XMLID_85_" transform="matrix(1 0 0 1 446.8846 338.8301)" class="st1 st10 st9">ﬁ</text>
<text id="XMLID_84_" transform="matrix(1 0 0 1 448.7675 338.8301)" class="st1 st10 st9"> xed income in </text>
<text id="XMLID_83_" transform="matrix(1 0 0 1 315.0409 347.2598)" class="st1 st10 st9">or</text>
<text id="XMLID_82_" transform="matrix(1 0 0 1 321.4081 347.2598)" class="st1 st10 st9">der to balance the two objectives.</text>
<text id="XMLID_81_" transform="matrix(1 0 0 1 556.9803 321.4443)" class="st13 st2 st12">65%</text>
<text id="XMLID_80_" transform="matrix(1 0 0 1 570.1971 321.4443)" class="st13 st10 st12"> Equity</text>
<text id="XMLID_79_" transform="matrix(1 0 0 1 556.9803 332.7285)" class="st1 st2 st12">35%</text>
<text id="XMLID_78_" transform="matrix(1 0 0 1 570.1971 332.7285)" class="st1 st10 st12"> Fixed Income</text>
<text id="XMLID_77_" transform="matrix(1 0 0 1 188.4393 366.5693)" class="st5 st6 st7">Conservativ</text>
<text id="XMLID_76_" transform="matrix(1 0 0 1 233.5409 366.5693)" class="st5 st6 st7">e</text>
<text id="XMLID_75_" transform="matrix(1 0 0 1 257.4081 365.4551)" class="st1 st8 st9">Conservativ</text>
<text id="XMLID_74_" transform="matrix(1 0 0 1 294.3641 365.4551)" class="st1 st8 st9">e</text>
<text id="XMLID_73_" transform="matrix(1 0 0 1 315.0409 365.4551)" class="st1 st10 st9">Seeks capital pr</text>
<text id="XMLID_72_" transform="matrix(1 0 0 1 364.1893 365.4551)" class="st1 st10 st9">eservation with a modest exposur</text>
<text id="XMLID_71_" transform="matrix(1 0 0 1 469.369 365.4551)" class="st1 st10 st9">e </text>
<text id="XMLID_70_" transform="matrix(1 0 0 1 315.0409 373.8828)" class="st1 st10 st9">to equities.</text>
<text id="XMLID_69_" transform="matrix(1 0 0 1 556.9803 364.9238)" class="st11 st2 st12">40%</text>
<text id="XMLID_68_" transform="matrix(1 0 0 1 570.1971 364.9238)" class="st11 st10 st12"> Equity</text>
<text id="XMLID_67_" transform="matrix(1 0 0 1 556.9803 376.1943)" class="st1 st2 st12">60%</text>
<text id="XMLID_66_" transform="matrix(1 0 0 1 570.1971 376.1943)" class="st1 st10 st12"> </text>
<text id="XMLID_65_" transform="matrix(1 0 0 1 571.9491 376.1943)" class="st1 st10 st12"> </text>
<text id="XMLID_64_" transform="matrix(1 0 0 1 571.9491 376.1943)" class="st1 st10 st12">Fixed Income</text>
<text id="XMLID_63_" transform="matrix(1 0 0 1 188.4393 407.7051)" class="st5 st6 st7">Conservatio</text>
<text id="XMLID_62_" transform="matrix(1 0 0 1 234.3378 407.7051)" class="st5 st6 st7">n</text>
<text id="XMLID_61_" transform="matrix(1 0 0 1 188.4393 416.8379)" class="st5 st6 st7">Plus</text>
<text id="XMLID_60_" transform="matrix(1 0 0 1 257.4081 406.5879)" class="st1 st8 st9">Pr</text>
<text id="XMLID_59_" transform="matrix(1 0 0 1 263.9159 406.5879)" class="st1 st8 st9">eservation</text>
<text id="XMLID_58_" transform="matrix(1 0 0 1 315.0409 406.6035)" class="st1 st10 st9">Seeks capital pr</text>
<text id="XMLID_57_" transform="matrix(1 0 0 1 364.1893 406.6035)" class="st1 st10 st9">eservation with a small exposur</text>
<text id="XMLID_56_" transform="matrix(1 0 0 1 461.705 406.6035)" class="st1 st10 st9">e </text>
<text id="XMLID_55_" transform="matrix(1 0 0 1 315.0409 415.0254)" class="st1 st10 st9">to equities.</text>
<text id="XMLID_54_" transform="matrix(1 0 0 1 556.9803 406.0537)" class="st13 st2 st12">20%</text>
<text id="XMLID_53_" transform="matrix(1 0 0 1 570.1971 406.0537)" class="st13 st10 st12"> Equity</text>
<text id="XMLID_52_" transform="matrix(1 0 0 1 556.9803 417.3457)" class="st1 st2 st12">80% </text>
<text id="XMLID_51_" transform="matrix(1 0 0 1 572.0721 417.3457)" class="st1 st2 st12"> </text>
<text id="XMLID_50_" transform="matrix(1 0 0 1 572.0643 417.3457)" class="st1 st10 st12">Fixed Income</text>
<polyline id="XMLID_49_" class="st14" points="189,267.7 634,267.7 634,267 189,267 "/>
<polyline id="XMLID_48_" class="st14" points="189,311.9 634,311.9 634,311.2 189,311.2 "/>
<polyline id="XMLID_47_" class="st14" points="189,354.8 634,354.8 634,354.1 189,354.1 "/>
<polyline id="XMLID_46_" class="st14" points="189,395.5 634,395.5 634,394.8 189,394.8 "/>
<polyline id="XMLID_45_" class="st14" points="189,232 634,232 634,230.6 189,230.6 "/>
<text id="XMLID_44_" transform="matrix(1 0 0 1 187.7284 192.877)" class="st1 st15 st16">Our </text>
<text id="XMLID_43_" transform="matrix(1 0 0 1 215.5643 192.877)" class="st1 st15 st16">Ac</text>
<text id="XMLID_42_" transform="matrix(1 0 0 1 232.3534 192.877)" class="st1 st15 st16">tive </text>
<text id="XMLID_41_" transform="matrix(1 0 0 1 258.1346 192.877)" class="st1 st15 st16">As</text>
<text id="XMLID_40_" transform="matrix(1 0 0 1 274.2626 192.877)" class="st1 st15 st16">set Al</text>
<text id="XMLID_39_" transform="matrix(1 0 0 1 309.1581 192.877)" class="st1 st15 st16">lo</text>
<text id="XMLID_38_" transform="matrix(1 0 0 1 320.7518 192.877)" class="st1 st15 st16">ca</text>
<text id="XMLID_37_" transform="matrix(1 0 0 1 334.9315 192.877)" class="st1 st15 st16">tion is available in 5 risk</text>
<text id="XMLID_36_" transform="matrix(1 0 0 1 479.2079 192.877)" class="st1 st15 st16">-adjus</text>
<text id="XMLID_35_" transform="matrix(1 0 0 1 516.8407 192.877)" class="st1 st15 st16">te</text>
<text id="XMLID_34_" transform="matrix(1 0 0 1 529.1034 192.877)" class="st1 st15 st16">d po</text>
<text id="XMLID_33_" transform="matrix(1 0 0 1 558.1971 192.877)" class="st1 st15 st16">rt</text>
<text id="XMLID_32_" transform="matrix(1 0 0 1 568.5331 192.877)" class="st1 st15 st16">foli</text>
<text id="XMLID_31_" transform="matrix(1 0 0 1 587.1893 192.877)" class="st1 st15 st16">os</text>
<text id="XMLID_30_" transform="matrix(1 0 0 1 601.3925 192.877)" class="st1 st15 st16">.</text>
<path id="XMLID_29_" class="st1" d="M532.9,286.5l10.6-7.7c-2.6-3.5-6.3-5.4-10.6-5.4V286.5L532.9,286.5z"/>
<path id="XMLID_28_" class="st0" d="M532.9,286.5l0.4,0.6l11.2-8.1l-0.4-0.6c-2.7-3.7-6.6-5.7-11.2-5.7h-0.7v15.2l1.1-0.8
	L532.9,286.5h0.7v-13.1h-0.7v0.7c4.1,0,7.6,1.8,10.1,5.1l0.6-0.4l-0.4-0.6l-10.6,7.7L532.9,286.5h0.7H532.9L532.9,286.5z"/>
<path id="XMLID_27_" class="st5" d="M532.9,286.5v-13.1c-7.3,0-13.1,5.9-13.1,13.1c0,7.3,5.9,13.1,13.1,13.1
	c7.3,0,13.1-5.9,13.1-13.1c0-2.9-0.8-5.4-2.5-7.7L532.9,286.5L532.9,286.5z"/>
<path id="XMLID_26_" class="st0" d="M532.9,286.5h0.7v-13.8h-0.7c-7.6,0-13.8,6.2-13.8,13.8c0,7.6,6.2,13.8,13.8,13.8
	c7.6,0,13.8-6.2,13.8-13.8c0-3-0.9-5.7-2.6-8.1l-0.4-0.6l-11.2,8.1L532.9,286.5h0.7H532.9l0.4,0.6l10.6-7.7l-0.4-0.6l-0.6,0.4
	c1.6,2.2,2.4,4.5,2.4,7.3c0,3.4-1.4,6.5-3.6,8.8c-2.3,2.3-5.4,3.6-8.8,3.6c-3.4,0-6.5-1.4-8.8-3.6c-2.3-2.3-3.6-5.4-3.6-8.8
	c0-3.4,1.4-6.5,3.6-8.8c2.3-2.3,5.4-3.6,8.8-3.6v-0.7h-0.7v14.5l1.1-0.8L532.9,286.5L532.9,286.5z"/>
<path id="XMLID_25_" class="st5" d="M546,249.4c0-2.9-0.8-5.4-2.5-7.7c-2.6-3.5-6.3-5.4-10.6-5.4c-7.3,0-13.1,5.9-13.1,13.1
	s5.9,13.1,13.1,13.1C540.2,262.5,546,256.7,546,249.4L546,249.4z"/>
<path id="XMLID_24_" class="st0" d="M546,249.4h0.7c0-3-0.9-5.7-2.6-8.1c-2.7-3.7-6.6-5.7-11.2-5.7c-7.6,0-13.8,6.2-13.8,13.8
	c0,7.6,6.2,13.8,13.8,13.8c7.6,0,13.8-6.2,13.8-13.8H546h-0.7c0,3.4-1.4,6.5-3.6,8.8c-2.3,2.3-5.4,3.6-8.8,3.6
	c-3.4,0-6.5-1.4-8.8-3.6c-2.3-2.3-3.6-5.4-3.6-8.8c0-3.4,1.4-6.5,3.6-8.8c2.3-2.3,5.4-3.6,8.8-3.6c4.1,0,7.6,1.8,10.1,5.1
	c1.6,2.2,2.4,4.5,2.4,7.3H546L546,249.4z"/>
<path id="XMLID_23_" class="st0" d="M537.4,286.6c0-1-0.3-1.9-0.9-2.7c-0.9-1.2-2.1-1.9-3.6-1.9c-2.5,0-4.5,2.1-4.5,4.6
	s2,4.6,4.5,4.6C535.4,291.2,537.4,289.2,537.4,286.6L537.4,286.6z"/>
<path id="XMLID_22_" class="st0" d="M537.4,286.6h0.7c0-1.1-0.3-2.2-1-3.1c-1-1.4-2.5-2.2-4.2-2.2c-1.4,0-2.7,0.6-3.7,1.6
	c-0.9,1-1.5,2.3-1.5,3.8c0,1.5,0.6,2.8,1.5,3.8c0.9,1,2.2,1.6,3.7,1.6c1.4,0,2.7-0.6,3.7-1.6c0.9-1,1.5-2.3,1.5-3.8H537.4h-0.7
	c0,1.1-0.4,2.1-1.1,2.8c-0.7,0.7-1.6,1.1-2.7,1.1c-1,0-2-0.4-2.7-1.1c-0.7-0.7-1.1-1.7-1.1-2.8c0-1.1,0.4-2.1,1.1-2.8
	c0.7-0.7,1.6-1.1,2.7-1.1c1.3,0,2.3,0.5,3.1,1.6c0.5,0.7,0.7,1.4,0.7,2.3H537.4L537.4,286.6z"/>
<path id="XMLID_21_" class="st1" d="M532.9,330.8l10.6,7.7c4.3-5.9,3-14.1-2.9-18.3c-2.3-1.7-4.8-2.5-7.7-2.5V330.8L532.9,330.8z"/>
<path id="XMLID_20_" class="st0" d="M532.9,330.8l-0.4,0.6l11.2,8.1l0.4-0.6c1.8-2.5,2.6-5.3,2.6-8.1c0-4.3-2-8.5-5.7-11.2
	c-2.4-1.8-5.1-2.6-8.1-2.6h-0.7v14.2l0.3,0.2L532.9,330.8h0.7v-13.1h-0.7v0.7c2.8,0,5.1,0.7,7.3,2.4c3.3,2.4,5.1,6.2,5.1,10.1
	c0,2.5-0.8,5.1-2.4,7.3l0.6,0.4l0.4-0.6l-10.6-7.7L532.9,330.8h0.7H532.9L532.9,330.8z"/>
<path id="XMLID_19_" class="st5" d="M532.9,330.8v-13.1c-7.3,0-13.1,5.9-13.1,13.1c0,7.3,5.9,13.1,13.1,13.1c4.4,0,8.1-1.9,10.6-5.4
	L532.9,330.8L532.9,330.8z"/>
<path id="XMLID_18_" class="st0" d="M532.9,330.8h0.7V317h-0.7c-7.6,0-13.8,6.2-13.8,13.8c0,7.6,6.2,13.8,13.8,13.8
	c4.6,0,8.5-2,11.2-5.7l0.4-0.6l-11.2-8.1L532.9,330.8h0.7H532.9l-0.4,0.6l10.6,7.7l0.4-0.6l-0.6-0.4c-2.4,3.3-5.9,5.1-10.1,5.1
	c-3.4,0-6.5-1.4-8.8-3.6c-2.3-2.3-3.6-5.4-3.6-8.8c0-3.4,1.4-6.5,3.6-8.8c2.3-2.3,5.4-3.6,8.8-3.6v-0.7h-0.7v13.5l0.3,0.2
	L532.9,330.8L532.9,330.8z"/>
<path id="XMLID_17_" class="st1" d="M532.9,374.1l-7.7,10.6c5.9,4.3,14.1,3,18.3-2.9c4.3-5.9,3-14.1-2.9-18.3
	c-2.3-1.7-4.8-2.5-7.7-2.5V374.1L532.9,374.1z"/>
<path id="XMLID_16_" class="st0" d="M532.9,374.1l-0.6-0.4l-8.1,11.2l0.6,0.4c2.5,1.8,5.3,2.6,8.1,2.6c4.3,0,8.5-2,11.2-5.7
	c1.8-2.5,2.6-5.3,2.6-8.1c0-4.3-2-8.5-5.7-11.2c-2.4-1.8-5.1-2.6-8.1-2.6h-0.7v13.8H532.9l-0.6-0.4L532.9,374.1h0.7V361h-0.7v0.7
	c2.8,0,5.1,0.7,7.3,2.4c3.3,2.4,5.1,6.2,5.1,10.1c0,2.5-0.8,5.1-2.4,7.3c-2.4,3.3-6.2,5.1-10.1,5.1c-2.5,0-5.1-0.8-7.3-2.4l-0.4,0.6
	l0.6,0.4l7.9-10.8v-0.2H532.9L532.9,374.1z"/>
<path id="XMLID_15_" class="st5" d="M532.9,374.1V361c-7.3,0-13.1,5.9-13.1,13.1c0,4.4,1.9,8.1,5.4,10.6L532.9,374.1L532.9,374.1z"
	/>
<path id="XMLID_14_" class="st0" d="M532.9,374.1h0.7v-13.8h-0.7c-7.6,0-13.8,6.2-13.8,13.8c0,4.6,2,8.5,5.7,11.2l0.6,0.4l8.3-11.4
	v-0.2H532.9l-0.6-0.4l-7.7,10.6l0.6,0.4l0.4-0.6c-3.4-2.4-5.1-5.9-5.1-10.1c0-3.4,1.4-6.5,3.6-8.8c2.3-2.3,5.4-3.6,8.8-3.6V361h-0.7
	v13.1H532.9l-0.6-0.4L532.9,374.1L532.9,374.1z"/>
<path id="XMLID_13_" class="st1" d="M532.9,415.2l-12.5-4.1c-2.2,6.9,1.5,14.3,8.4,16.6s14.3-1.5,16.6-8.4
	c2.2-6.9-1.5-14.3-8.4-16.6c-1.4-0.4-2.6-0.6-4.1-0.6V415.2L532.9,415.2z"/>
<path id="XMLID_12_" class="st0" d="M532.9,415.2l0.2-0.7l-13.2-4.3l-0.2,0.7c-0.5,1.4-0.7,2.9-0.7,4.3c0,5.8,3.7,11.3,9.6,13.2
	c1.4,0.5,2.9,0.7,4.3,0.7c5.8,0,11.3-3.7,13.2-9.6c0.5-1.4,0.7-2.9,0.7-4.3c0-5.8-3.7-11.3-9.6-13.2c-1.4-0.5-2.8-0.7-4.3-0.7h-0.7
	v13.8H532.9l0.2-0.7L532.9,415.2h0.7v-13.1h-0.7v0.7c1.4,0,2.5,0.2,3.8,0.6c5.3,1.7,8.6,6.6,8.6,11.8c0,1.3-0.2,2.6-0.6,3.8
	c-1.7,5.3-6.6,8.6-11.8,8.6c-1.3,0-2.6-0.2-3.8-0.6c-5.3-1.7-8.6-6.6-8.6-11.8c0-1.3,0.2-2.6,0.6-3.8l-0.7-0.2l-0.2,0.7l13.4,4.4v-1
	H532.9L532.9,415.2z"/>
<path id="XMLID_11_" class="st5" d="M532.9,415.2v-13.1c-5.8,0-10.7,3.6-12.5,9.1L532.9,415.2L532.9,415.2z"/>
<path id="XMLID_10_" class="st0" d="M532.9,415.2h0.7v-13.8h-0.7c-6.1,0-11.3,3.8-13.2,9.6l-0.2,0.7l14.1,4.6v-1H532.9l0.2-0.7
	l-12.5-4.1l-0.2,0.7l0.7,0.2c1.7-5.2,6.3-8.6,11.8-8.6v-0.7h-0.7v13.1H532.9l0.2-0.7L532.9,415.2L532.9,415.2z"/>
<path id="XMLID_9_" class="st0" d="M537.4,330.8c0-1-0.3-1.9-0.9-2.7c-0.9-1.2-2.1-1.9-3.6-1.9c-2.5,0-4.5,2.1-4.5,4.6
	c0,2.6,2,4.6,4.5,4.6C535.4,335.4,537.4,333.4,537.4,330.8L537.4,330.8z"/>
<path id="XMLID_8_" class="st0" d="M537.4,330.8h0.7c0-1.1-0.3-2.2-1-3.1c-1-1.4-2.5-2.2-4.2-2.2c-1.4,0-2.7,0.6-3.7,1.6
	c-0.9,1-1.5,2.3-1.5,3.8c0,1.5,0.6,2.8,1.5,3.8c0.9,1,2.2,1.6,3.7,1.6c1.4,0,2.7-0.6,3.7-1.6c0.9-1,1.5-2.3,1.5-3.8H537.4h-0.7
	c0,1.1-0.4,2.1-1.1,2.8c-0.7,0.7-1.6,1.1-2.7,1.1c-1,0-2-0.4-2.7-1.1c-0.7-0.7-1.1-1.7-1.1-2.8c0-1.1,0.4-2.1,1.1-2.8
	c0.7-0.7,1.6-1.1,2.7-1.1c1.3,0,2.3,0.5,3.1,1.6c0.5,0.7,0.7,1.4,0.7,2.3H537.4L537.4,330.8z"/>
<path id="XMLID_7_" class="st0" d="M537.4,374.1c0-1-0.3-1.9-0.9-2.7c-0.9-1.2-2.1-1.9-3.6-1.9c-2.5,0-4.5,2.1-4.5,4.6
	c0,2.6,2,4.6,4.5,4.6C535.4,378.7,537.4,376.7,537.4,374.1L537.4,374.1z"/>
<path id="XMLID_6_" class="st0" d="M537.4,374.1h0.7c0-1.1-0.3-2.2-1-3.1c-1-1.4-2.5-2.2-4.2-2.2c-1.4,0-2.7,0.6-3.7,1.6
	c-0.9,1-1.5,2.3-1.5,3.8c0,1.5,0.6,2.8,1.5,3.8c0.9,1,2.2,1.6,3.7,1.6c1.4,0,2.7-0.6,3.7-1.6c0.9-1,1.5-2.3,1.5-3.8H537.4h-0.7
	c0,1.1-0.4,2.1-1.1,2.8c-0.7,0.7-1.6,1.1-2.7,1.1c-1,0-2-0.4-2.7-1.1c-0.7-0.7-1.1-1.7-1.1-2.8c0-1.1,0.4-2.1,1.1-2.8
	c0.7-0.7,1.6-1.1,2.7-1.1c1.3,0,2.3,0.5,3.1,1.6c0.5,0.7,0.7,1.4,0.7,2.3H537.4L537.4,374.1z"/>
<path id="XMLID_5_" class="st0" d="M537.4,415.2c0-1-0.3-1.9-0.9-2.7c-0.9-1.2-2.1-1.9-3.6-1.9c-2.5,0-4.5,2.1-4.5,4.6
	c0,2.6,2,4.6,4.5,4.6C535.4,419.9,537.4,417.8,537.4,415.2L537.4,415.2z"/>
<path id="XMLID_4_" class="st0" d="M537.4,415.2h0.7c0-1.1-0.3-2.2-1-3.1c-1-1.4-2.5-2.2-4.2-2.2c-1.4,0-2.7,0.6-3.7,1.6
	c-0.9,1-1.5,2.3-1.5,3.8c0,1.5,0.6,2.8,1.5,3.8c0.9,1,2.2,1.6,3.7,1.6c1.4,0,2.7-0.6,3.7-1.6c0.9-1,1.5-2.3,1.5-3.8H537.4h-0.7
	c0,1.1-0.4,2.1-1.1,2.8c-0.7,0.7-1.6,1.1-2.7,1.1c-1,0-2-0.4-2.7-1.1c-0.7-0.7-1.1-1.7-1.1-2.8c0-1.1,0.4-2.1,1.1-2.8
	c0.7-0.7,1.6-1.1,2.7-1.1c1.3,0,2.3,0.5,3.1,1.6c0.5,0.7,0.7,1.4,0.7,2.3H537.4L537.4,415.2z"/>
<path id="XMLID_3_" class="st0" d="M537.4,249.4c0-1-0.3-1.9-0.9-2.7c-0.9-1.2-2.1-1.9-3.6-1.9c-2.5,0-4.5,2.1-4.5,4.6
	c0,2.6,2,4.6,4.5,4.6C535.4,254,537.4,251.9,537.4,249.4L537.4,249.4z"/>
<path id="XMLID_2_" class="st0" d="M537.4,249.4h0.7c0-1.1-0.3-2.2-1-3.1c-1-1.4-2.5-2.2-4.2-2.2c-1.4,0-2.7,0.6-3.7,1.6
	c-0.9,1-1.5,2.3-1.5,3.8c0,1.5,0.6,2.8,1.5,3.8c0.9,1,2.2,1.6,3.7,1.6c1.4,0,2.7-0.6,3.7-1.6c0.9-1,1.5-2.3,1.5-3.8H537.4h-0.7
	c0,1.1-0.4,2.1-1.1,2.8c-0.7,0.7-1.6,1.1-2.7,1.1c-1,0-2-0.4-2.7-1.1c-0.7-0.7-1.1-1.7-1.1-2.8c0-1.1,0.4-2.1,1.1-2.8
	c0.7-0.7,1.6-1.1,2.7-1.1c1.3,0,2.3,0.5,3.1,1.6c0.5,0.7,0.7,1.4,0.7,2.3H537.4L537.4,249.4z"/>
</svg>
