<?xml version="1.0" encoding="utf-8"?>
<!-- Generator: Adobe Illustrator 19.0.0, SVG Export Plug-In . SVG Version: 6.00 Build 0)  -->
<svg version="1.1" id="Layer_1" xmlns="http://www.w3.org/2000/svg" xmlns:xlink="http://www.w3.org/1999/xlink" x="0px" y="0px"
	 viewBox="0 0 841.9 595.3" style="enable-background:new 0 0 841.9 595.3;" xml:space="preserve">
<style type="text/css">
	.st0{fill:#333E48;}
	.st1{fill:#FFFFFF;}
	.st2{font-family:'Avenir-Light';}
	.st3{font-size:15.1114px;}
	.st4{font-family:'Avenir-Medium';}
	.st5{font-size:20.6181px;}
	.st6{clip-path:url(#SVGID_2_);}
	.st7{clip-path:url(#SVGID_6_);}
	.st8{clip-path:url(#SVGID_10_);}
	.st9{clip-path:url(#SVGID_14_);}
	.st10{clip-path:url(#SVGID_18_);}
	.st11{clip-path:url(#SVGID_22_);}
	.st12{clip-path:url(#SVGID_26_);}
	.st13{clip-path:url(#SVGID_30_);}
	.st14{clip-path:url(#SVGID_34_);}
	.st15{clip-path:url(#SVGID_38_);}
	.st16{clip-path:url(#SVGID_42_);}
	.st17{clip-path:url(#SVGID_46_);}
	.st18{clip-path:url(#SVGID_50_);}
	.st19{clip-path:url(#SVGID_54_);}
	.st20{clip-path:url(#SVGID_58_);}
	.st21{clip-path:url(#SVGID_62_);}
	.st22{clip-path:url(#SVGID_66_);}
	.st23{clip-path:url(#SVGID_70_);}
	.st24{clip-path:url(#SVGID_74_);}
	.st25{clip-path:url(#SVGID_78_);}
	.st26{clip-path:url(#SVGID_82_);}
	.st27{clip-path:url(#SVGID_86_);}
	.st28{clip-path:url(#SVGID_90_);}
	.st29{clip-path:url(#SVGID_94_);}
	.st30{clip-path:url(#SVGID_98_);}
	.st31{clip-path:url(#SVGID_102_);}
	.st32{clip-path:url(#SVGID_106_);}
	.st33{clip-path:url(#SVGID_110_);}
	.st34{clip-path:url(#SVGID_114_);}
	.st35{clip-path:url(#SVGID_118_);}
	.st36{clip-path:url(#SVGID_122_);}
	.st37{clip-path:url(#SVGID_126_);}
	.st38{clip-path:url(#SVGID_130_);}
	.st39{clip-path:url(#SVGID_134_);}
	.st40{clip-path:url(#SVGID_138_);}
	.st41{clip-path:url(#SVGID_142_);}
	.st42{clip-path:url(#SVGID_146_);}
	.st43{clip-path:url(#SVGID_150_);}
	.st44{clip-path:url(#SVGID_154_);}
	.st45{clip-path:url(#SVGID_158_);}
	.st46{clip-path:url(#SVGID_162_);}
	.st47{font-size:11.1567px;}
	.st48{fill:#FFA400;}
	.st49{font-family:'Avenir-Heavy';}
	.st50{font-size:7.4618px;}
	.st51{font-family:'Avenir-Book';}
	.st52{font-size:12.1253px;}
	.st53{fill:#8E8F8F;}
	.st54{font-family:'Avenir-Oblique';}
	.st55{font-size:8.3945px;}
</style>
<polyline class="st0" points="659.3,468.5 659.3,127.5 182.5,127.5 182.5,468.5 659.3,468.5 "/>
<text transform="matrix(1 0 0 1 274.67 203.4756)" class="st1 st2 st3">av</text>
<text transform="matrix(1 0 0 1 289.3009 203.4756)" class="st1 st2 st3">aila</text>
<text transform="matrix(1 0 0 1 311.7482 203.4756)" class="st1 st2 st3">ble in 5 risk</text>
<text transform="matrix(1 0 0 1 386.2013 203.4756)" class="st1 st2 st3">-adjus</text>
<text transform="matrix(1 0 0 1 426.67 203.4756)" class="st1 st2 st3">te</text>
<text transform="matrix(1 0 0 1 439.8575 203.4756)" class="st1 st2 st3">d model po</text>
<text transform="matrix(1 0 0 1 518.1368 203.4756)" class="st1 st2 st3">rt</text>
<text transform="matrix(1 0 0 1 529.254 203.4756)" class="st1 st2 st3">foli</text>
<text transform="matrix(1 0 0 1 549.3009 203.4756)" class="st1 st2 st3">os</text>
<text transform="matrix(1 0 0 1 311.8087 182.3066)" class="st1 st4 st5">Active Asset Allocation</text>
<g>
	<defs>
		<polyline id="SVGID_1_" points="216.2,382.7 215.7,382.7 215.7,230.7 216.2,230.7 216.2,382.7 		"/>
	</defs>
	<clipPath id="SVGID_2_">
		<use xlink:href="#SVGID_1_"  style="overflow:visible;"/>
	</clipPath>
	<g class="st6">
		<defs>
			<rect id="SVGID_3_" x="215.7" y="230.7" width="0.5" height="152"/>
		</defs>
		<clipPath id="SVGID_4_">
			<use xlink:href="#SVGID_3_"  style="overflow:visible;"/>
		</clipPath>
		<g style="clip-path:url(#SVGID_4_);">
			
				<image style="overflow:visible;" width="8" height="320" xlink:href="CAD086D5812CA721.jpg"  transform="matrix(0.48 0 0 -0.48 214.4645 383.6279)">
			</image>
		</g>
	</g>
</g>
<g>
	<defs>
		<polyline id="SVGID_5_" points="226.5,382.7 226.1,382.7 226.1,230.7 226.5,230.7 226.5,382.7 		"/>
	</defs>
	<clipPath id="SVGID_6_">
		<use xlink:href="#SVGID_5_"  style="overflow:visible;"/>
	</clipPath>
	<g class="st7">
		<defs>
			<rect id="SVGID_7_" x="226.1" y="230.7" width="0.5" height="152"/>
		</defs>
		<clipPath id="SVGID_8_">
			<use xlink:href="#SVGID_7_"  style="overflow:visible;"/>
		</clipPath>
		<g style="clip-path:url(#SVGID_8_);">
			
				<image style="overflow:visible;" width="8" height="320" xlink:href="CAD086D5812CA723.jpg"  transform="matrix(0.48 0 0 -0.48 224.6584 383.6279)">
			</image>
		</g>
	</g>
</g>
<g>
	<defs>
		<polyline id="SVGID_9_" points="236.9,382.7 236.4,382.7 236.4,230.7 236.9,230.7 236.9,382.7 		"/>
	</defs>
	<clipPath id="SVGID_10_">
		<use xlink:href="#SVGID_9_"  style="overflow:visible;"/>
	</clipPath>
	<g class="st8">
		<defs>
			<rect id="SVGID_11_" x="236.4" y="230.7" width="0.5" height="152"/>
		</defs>
		<clipPath id="SVGID_12_">
			<use xlink:href="#SVGID_11_"  style="overflow:visible;"/>
		</clipPath>
		<g style="clip-path:url(#SVGID_12_);">
			
				<image style="overflow:visible;" width="8" height="320" xlink:href="CAD086D5812CA726.jpg"  transform="matrix(0.48 0 0 -0.48 235.3323 383.6279)">
			</image>
		</g>
	</g>
</g>
<g>
	<defs>
		<polyline id="SVGID_13_" points="247.3,382.7 246.8,382.7 246.8,230.7 247.3,230.7 247.3,382.7 		"/>
	</defs>
	<clipPath id="SVGID_14_">
		<use xlink:href="#SVGID_13_"  style="overflow:visible;"/>
	</clipPath>
	<g class="st9">
		<defs>
			<rect id="SVGID_15_" x="246.8" y="230.7" width="0.5" height="152"/>
		</defs>
		<clipPath id="SVGID_16_">
			<use xlink:href="#SVGID_15_"  style="overflow:visible;"/>
		</clipPath>
		<g style="clip-path:url(#SVGID_16_);">
			
				<image style="overflow:visible;" width="8" height="320" xlink:href="CAD086D5812CA727.jpg"  transform="matrix(0.48 0 0 -0.48 245.5262 383.6279)">
			</image>
		</g>
	</g>
</g>
<g>
	<defs>
		<polyline id="SVGID_17_" points="257.7,382.7 257.2,382.7 257.2,230.7 257.7,230.7 257.7,382.7 		"/>
	</defs>
	<clipPath id="SVGID_18_">
		<use xlink:href="#SVGID_17_"  style="overflow:visible;"/>
	</clipPath>
	<g class="st10">
		<defs>
			<rect id="SVGID_19_" x="257.2" y="230.7" width="0.5" height="152"/>
		</defs>
		<clipPath id="SVGID_20_">
			<use xlink:href="#SVGID_19_"  style="overflow:visible;"/>
		</clipPath>
		<g style="clip-path:url(#SVGID_20_);">
			
				<image style="overflow:visible;" width="8" height="320" xlink:href="CAD086D5812CA722.jpg"  transform="matrix(0.48 0 0 -0.48 256.2003 383.6279)">
			</image>
		</g>
	</g>
</g>
<g>
	<defs>
		<polyline id="SVGID_21_" points="268,382.7 267.6,382.7 267.6,230.7 268,230.7 268,382.7 		"/>
	</defs>
	<clipPath id="SVGID_22_">
		<use xlink:href="#SVGID_21_"  style="overflow:visible;"/>
	</clipPath>
	<g class="st11">
		<defs>
			<rect id="SVGID_23_" x="267.6" y="230.7" width="0.5" height="152"/>
		</defs>
		<clipPath id="SVGID_24_">
			<use xlink:href="#SVGID_23_"  style="overflow:visible;"/>
		</clipPath>
		<g style="clip-path:url(#SVGID_24_);">
			
				<image style="overflow:visible;" width="8" height="320" xlink:href="CAD086D5812CA72D.jpg"  transform="matrix(0.48 0 0 -0.48 266.3942 383.6279)">
			</image>
		</g>
	</g>
</g>
<g>
	<defs>
		<polyline id="SVGID_25_" points="278.4,382.7 277.9,382.7 277.9,230.7 278.4,230.7 278.4,382.7 		"/>
	</defs>
	<clipPath id="SVGID_26_">
		<use xlink:href="#SVGID_25_"  style="overflow:visible;"/>
	</clipPath>
	<g class="st12">
		<defs>
			<rect id="SVGID_27_" x="277.9" y="230.7" width="0.5" height="152"/>
		</defs>
		<clipPath id="SVGID_28_">
			<use xlink:href="#SVGID_27_"  style="overflow:visible;"/>
		</clipPath>
		<g style="clip-path:url(#SVGID_28_);">
			
				<image style="overflow:visible;" width="8" height="320" xlink:href="CAD086D5812CA72E.jpg"  transform="matrix(0.48 0 0 -0.48 276.5881 383.6279)">
			</image>
		</g>
	</g>
</g>
<g>
	<defs>
		<polyline id="SVGID_29_" points="288.8,382.7 288.3,382.7 288.3,230.7 288.8,230.7 288.8,382.7 		"/>
	</defs>
	<clipPath id="SVGID_30_">
		<use xlink:href="#SVGID_29_"  style="overflow:visible;"/>
	</clipPath>
	<g class="st13">
		<defs>
			<rect id="SVGID_31_" x="288.3" y="230.7" width="0.5" height="152"/>
		</defs>
		<clipPath id="SVGID_32_">
			<use xlink:href="#SVGID_31_"  style="overflow:visible;"/>
		</clipPath>
		<g style="clip-path:url(#SVGID_32_);">
			
				<image style="overflow:visible;" width="8" height="320" xlink:href="CAD086D5812CA72F.jpg"  transform="matrix(0.48 0 0 -0.48 287.2621 383.6279)">
			</image>
		</g>
	</g>
</g>
<g>
	<defs>
		<polyline id="SVGID_33_" points="299.1,382.7 298.7,382.7 298.7,230.7 299.1,230.7 299.1,382.7 		"/>
	</defs>
	<clipPath id="SVGID_34_">
		<use xlink:href="#SVGID_33_"  style="overflow:visible;"/>
	</clipPath>
	<g class="st14">
		<defs>
			<rect id="SVGID_35_" x="298.7" y="230.7" width="0.5" height="152"/>
		</defs>
		<clipPath id="SVGID_36_">
			<use xlink:href="#SVGID_35_"  style="overflow:visible;"/>
		</clipPath>
		<g style="clip-path:url(#SVGID_36_);">
			
				<image style="overflow:visible;" width="8" height="320" xlink:href="CAD086D5812CA724.jpg"  transform="matrix(0.48 0 0 -0.48 297.4558 383.6279)">
			</image>
		</g>
	</g>
</g>
<g>
	<defs>
		<polyline id="SVGID_37_" points="309.5,382.7 309,382.7 309,230.7 309.5,230.7 309.5,382.7 		"/>
	</defs>
	<clipPath id="SVGID_38_">
		<use xlink:href="#SVGID_37_"  style="overflow:visible;"/>
	</clipPath>
	<g class="st15">
		<defs>
			<rect id="SVGID_39_" x="309" y="230.7" width="0.5" height="152"/>
		</defs>
		<clipPath id="SVGID_40_">
			<use xlink:href="#SVGID_39_"  style="overflow:visible;"/>
		</clipPath>
		<g style="clip-path:url(#SVGID_40_);">
			
				<image style="overflow:visible;" width="8" height="320" xlink:href="50237CDBAB7427DA.jpg"  transform="matrix(0.48 0 0 -0.48 307.6498 383.6279)">
			</image>
		</g>
	</g>
</g>
<g>
	<defs>
		<polyline id="SVGID_41_" points="319.9,382.7 319.4,382.7 319.4,230.7 319.9,230.7 319.9,382.7 		"/>
	</defs>
	<clipPath id="SVGID_42_">
		<use xlink:href="#SVGID_41_"  style="overflow:visible;"/>
	</clipPath>
	<g class="st16">
		<defs>
			<rect id="SVGID_43_" x="319.4" y="230.7" width="0.5" height="152"/>
		</defs>
		<clipPath id="SVGID_44_">
			<use xlink:href="#SVGID_43_"  style="overflow:visible;"/>
		</clipPath>
		<g style="clip-path:url(#SVGID_44_);">
			
				<image style="overflow:visible;" width="8" height="320" xlink:href="50237CDBAB7427DD.jpg"  transform="matrix(0.48 0 0 -0.48 318.3237 383.6279)">
			</image>
		</g>
	</g>
</g>
<g>
	<defs>
		<polyline id="SVGID_45_" points="330.3,382.7 329.8,382.7 329.8,230.7 330.3,230.7 330.3,382.7 		"/>
	</defs>
	<clipPath id="SVGID_46_">
		<use xlink:href="#SVGID_45_"  style="overflow:visible;"/>
	</clipPath>
	<g class="st17">
		<defs>
			<rect id="SVGID_47_" x="329.8" y="230.7" width="0.5" height="152"/>
		</defs>
		<clipPath id="SVGID_48_">
			<use xlink:href="#SVGID_47_"  style="overflow:visible;"/>
		</clipPath>
		<g style="clip-path:url(#SVGID_48_);">
			
				<image style="overflow:visible;" width="8" height="320" xlink:href="50237CDBAB7427DE.jpg"  transform="matrix(0.48 0 0 -0.48 328.5177 383.6279)">
			</image>
		</g>
	</g>
</g>
<g>
	<defs>
		<polyline id="SVGID_49_" points="340.6,382.7 340.2,382.7 340.2,230.7 340.6,230.7 340.6,382.7 		"/>
	</defs>
	<clipPath id="SVGID_50_">
		<use xlink:href="#SVGID_49_"  style="overflow:visible;"/>
	</clipPath>
	<g class="st18">
		<defs>
			<rect id="SVGID_51_" x="340.2" y="230.7" width="0.5" height="152"/>
		</defs>
		<clipPath id="SVGID_52_">
			<use xlink:href="#SVGID_51_"  style="overflow:visible;"/>
		</clipPath>
		<g style="clip-path:url(#SVGID_52_);">
			
				<image style="overflow:visible;" width="8" height="320" xlink:href="50237CDBAB7427DC.jpg"  transform="matrix(0.48 0 0 -0.48 339.1914 383.6279)">
			</image>
		</g>
	</g>
</g>
<g>
	<defs>
		<polyline id="SVGID_53_" points="351,382.7 350.5,382.7 350.5,230.7 351,230.7 351,382.7 		"/>
	</defs>
	<clipPath id="SVGID_54_">
		<use xlink:href="#SVGID_53_"  style="overflow:visible;"/>
	</clipPath>
	<g class="st19">
		<defs>
			<rect id="SVGID_55_" x="350.5" y="230.7" width="0.5" height="152"/>
		</defs>
		<clipPath id="SVGID_56_">
			<use xlink:href="#SVGID_55_"  style="overflow:visible;"/>
		</clipPath>
		<g style="clip-path:url(#SVGID_56_);">
			
				<image style="overflow:visible;" width="8" height="320" xlink:href="50237CDBAB7427DB.jpg"  transform="matrix(0.48 0 0 -0.48 349.3854 383.6279)">
			</image>
		</g>
	</g>
</g>
<g>
	<defs>
		<polyline id="SVGID_57_" points="361.4,382.7 360.9,382.7 360.9,230.7 361.4,230.7 361.4,382.7 		"/>
	</defs>
	<clipPath id="SVGID_58_">
		<use xlink:href="#SVGID_57_"  style="overflow:visible;"/>
	</clipPath>
	<g class="st20">
		<defs>
			<rect id="SVGID_59_" x="360.9" y="230.7" width="0.5" height="152"/>
		</defs>
		<clipPath id="SVGID_60_">
			<use xlink:href="#SVGID_59_"  style="overflow:visible;"/>
		</clipPath>
		<g style="clip-path:url(#SVGID_60_);">
			
				<image style="overflow:visible;" width="8" height="320" xlink:href="50237CDBAB7427C5.jpg"  transform="matrix(0.48 0 0 -0.48 359.5793 383.6279)">
			</image>
		</g>
	</g>
</g>
<g>
	<defs>
		<polyline id="SVGID_61_" points="371.8,382.7 371.3,382.7 371.3,230.7 371.8,230.7 371.8,382.7 		"/>
	</defs>
	<clipPath id="SVGID_62_">
		<use xlink:href="#SVGID_61_"  style="overflow:visible;"/>
	</clipPath>
	<g class="st21">
		<defs>
			<rect id="SVGID_63_" x="371.3" y="230.7" width="0.5" height="152"/>
		</defs>
		<clipPath id="SVGID_64_">
			<use xlink:href="#SVGID_63_"  style="overflow:visible;"/>
		</clipPath>
		<g style="clip-path:url(#SVGID_64_);">
			
				<image style="overflow:visible;" width="8" height="320" xlink:href="50237CDBAB7427C6.jpg"  transform="matrix(0.48 0 0 -0.48 370.2533 383.6279)">
			</image>
		</g>
	</g>
</g>
<g>
	<defs>
		<polyline id="SVGID_65_" points="382.1,382.7 381.7,382.7 381.7,230.7 382.1,230.7 382.1,382.7 		"/>
	</defs>
	<clipPath id="SVGID_66_">
		<use xlink:href="#SVGID_65_"  style="overflow:visible;"/>
	</clipPath>
	<g class="st22">
		<defs>
			<rect id="SVGID_67_" x="381.7" y="230.7" width="0.5" height="152"/>
		</defs>
		<clipPath id="SVGID_68_">
			<use xlink:href="#SVGID_67_"  style="overflow:visible;"/>
		</clipPath>
		<g style="clip-path:url(#SVGID_68_);">
			
				<image style="overflow:visible;" width="8" height="320" xlink:href="50237CDBAB7427C4.jpg"  transform="matrix(0.48 0 0 -0.48 380.4473 383.6279)">
			</image>
		</g>
	</g>
</g>
<g>
	<defs>
		<polyline id="SVGID_69_" points="392.5,382.7 392,382.7 392,230.7 392.5,230.7 392.5,382.7 		"/>
	</defs>
	<clipPath id="SVGID_70_">
		<use xlink:href="#SVGID_69_"  style="overflow:visible;"/>
	</clipPath>
	<g class="st23">
		<defs>
			<rect id="SVGID_71_" x="392" y="230.7" width="0.5" height="152"/>
		</defs>
		<clipPath id="SVGID_72_">
			<use xlink:href="#SVGID_71_"  style="overflow:visible;"/>
		</clipPath>
		<g style="clip-path:url(#SVGID_72_);">
			
				<image style="overflow:visible;" width="8" height="320" xlink:href="50237CDBAB7427CA.jpg"  transform="matrix(0.48 0 0 -0.48 390.6402 383.6279)">
			</image>
		</g>
	</g>
</g>
<g>
	<defs>
		<polyline id="SVGID_73_" points="402.9,382.7 402.4,382.7 402.4,230.7 402.9,230.7 402.9,382.7 		"/>
	</defs>
	<clipPath id="SVGID_74_">
		<use xlink:href="#SVGID_73_"  style="overflow:visible;"/>
	</clipPath>
	<g class="st24">
		<defs>
			<rect id="SVGID_75_" x="402.4" y="230.7" width="0.5" height="152"/>
		</defs>
		<clipPath id="SVGID_76_">
			<use xlink:href="#SVGID_75_"  style="overflow:visible;"/>
		</clipPath>
		<g style="clip-path:url(#SVGID_76_);">
			
				<image style="overflow:visible;" width="8" height="320" xlink:href="50237CDBAB7427CD.jpg"  transform="matrix(0.48 0 0 -0.48 401.3152 383.6279)">
			</image>
		</g>
	</g>
</g>
<g>
	<defs>
		<polyline id="SVGID_77_" points="413.2,382.7 412.8,382.7 412.8,230.7 413.2,230.7 413.2,382.7 		"/>
	</defs>
	<clipPath id="SVGID_78_">
		<use xlink:href="#SVGID_77_"  style="overflow:visible;"/>
	</clipPath>
	<g class="st25">
		<defs>
			<rect id="SVGID_79_" x="412.8" y="230.7" width="0.5" height="152"/>
		</defs>
		<clipPath id="SVGID_80_">
			<use xlink:href="#SVGID_79_"  style="overflow:visible;"/>
		</clipPath>
		<g style="clip-path:url(#SVGID_80_);">
			
				<image style="overflow:visible;" width="8" height="320" xlink:href="50237CDBAB7427E1.jpg"  transform="matrix(0.48 0 0 -0.48 411.5101 383.6279)">
			</image>
		</g>
	</g>
</g>
<g>
	<defs>
		<polyline id="SVGID_81_" points="423.6,382.7 423.2,382.7 423.2,230.7 423.6,230.7 423.6,382.7 		"/>
	</defs>
	<clipPath id="SVGID_82_">
		<use xlink:href="#SVGID_81_"  style="overflow:visible;"/>
	</clipPath>
	<g class="st26">
		<defs>
			<rect id="SVGID_83_" x="423.2" y="230.7" width="0.5" height="152"/>
		</defs>
		<clipPath id="SVGID_84_">
			<use xlink:href="#SVGID_83_"  style="overflow:visible;"/>
		</clipPath>
		<g style="clip-path:url(#SVGID_84_);">
			
				<image style="overflow:visible;" width="8" height="320" xlink:href="50237CDBAB7427E3.jpg"  transform="matrix(0.48 0 0 -0.48 422.1825 383.6279)">
			</image>
		</g>
	</g>
</g>
<g>
	<defs>
		<polyline id="SVGID_85_" points="434,382.7 433.5,382.7 433.5,230.7 434,230.7 434,382.7 		"/>
	</defs>
	<clipPath id="SVGID_86_">
		<use xlink:href="#SVGID_85_"  style="overflow:visible;"/>
	</clipPath>
	<g class="st27">
		<defs>
			<rect id="SVGID_87_" x="433.5" y="230.7" width="0.5" height="152"/>
		</defs>
		<clipPath id="SVGID_88_">
			<use xlink:href="#SVGID_87_"  style="overflow:visible;"/>
		</clipPath>
		<g style="clip-path:url(#SVGID_88_);">
			
				<image style="overflow:visible;" width="8" height="320" xlink:href="50237CDBAB7427E0.jpg"  transform="matrix(0.48 0 0 -0.48 432.3774 383.6279)">
			</image>
		</g>
	</g>
</g>
<g>
	<defs>
		<polyline id="SVGID_89_" points="444.4,382.7 443.9,382.7 443.9,230.7 444.4,230.7 444.4,382.7 		"/>
	</defs>
	<clipPath id="SVGID_90_">
		<use xlink:href="#SVGID_89_"  style="overflow:visible;"/>
	</clipPath>
	<g class="st28">
		<defs>
			<rect id="SVGID_91_" x="443.9" y="230.7" width="0.5" height="152"/>
		</defs>
		<clipPath id="SVGID_92_">
			<use xlink:href="#SVGID_91_"  style="overflow:visible;"/>
		</clipPath>
		<g style="clip-path:url(#SVGID_92_);">
			
				<image style="overflow:visible;" width="8" height="320" xlink:href="50237CDBAB7427EF.jpg"  transform="matrix(0.48 0 0 -0.48 442.5699 383.6279)">
			</image>
		</g>
	</g>
</g>
<g>
	<defs>
		<polyline id="SVGID_93_" points="454.7,382.7 454.3,382.7 454.3,230.7 454.7,230.7 454.7,382.7 		"/>
	</defs>
	<clipPath id="SVGID_94_">
		<use xlink:href="#SVGID_93_"  style="overflow:visible;"/>
	</clipPath>
	<g class="st29">
		<defs>
			<rect id="SVGID_95_" x="454.3" y="230.7" width="0.5" height="152"/>
		</defs>
		<clipPath id="SVGID_96_">
			<use xlink:href="#SVGID_95_"  style="overflow:visible;"/>
		</clipPath>
		<g style="clip-path:url(#SVGID_96_);">
			
				<image style="overflow:visible;" width="8" height="320" xlink:href="50237CDBAB7427E2.jpg"  transform="matrix(0.48 0 0 -0.48 453.2449 383.6279)">
			</image>
		</g>
	</g>
</g>
<g>
	<defs>
		<polyline id="SVGID_97_" points="465.1,382.7 464.6,382.7 464.6,230.7 465.1,230.7 465.1,382.7 		"/>
	</defs>
	<clipPath id="SVGID_98_">
		<use xlink:href="#SVGID_97_"  style="overflow:visible;"/>
	</clipPath>
	<g class="st30">
		<defs>
			<rect id="SVGID_99_" x="464.6" y="230.7" width="0.5" height="152"/>
		</defs>
		<clipPath id="SVGID_100_">
			<use xlink:href="#SVGID_99_"  style="overflow:visible;"/>
		</clipPath>
		<g style="clip-path:url(#SVGID_100_);">
			
				<image style="overflow:visible;" width="8" height="320" xlink:href="50237CDBAB7427E6.jpg"  transform="matrix(0.48 0 0 -0.48 463.4374 383.6279)">
			</image>
		</g>
	</g>
</g>
<g>
	<defs>
		<polyline id="SVGID_101_" points="475.5,382.7 475,382.7 475,230.7 475.5,230.7 475.5,382.7 		"/>
	</defs>
	<clipPath id="SVGID_102_">
		<use xlink:href="#SVGID_101_"  style="overflow:visible;"/>
	</clipPath>
	<g class="st31">
		<defs>
			<rect id="SVGID_103_" x="475" y="230.7" width="0.5" height="152"/>
		</defs>
		<clipPath id="SVGID_104_">
			<use xlink:href="#SVGID_103_"  style="overflow:visible;"/>
		</clipPath>
		<g style="clip-path:url(#SVGID_104_);">
			
				<image style="overflow:visible;" width="8" height="320" xlink:href="50237CDBAB7427E7.jpg"  transform="matrix(0.48 0 0 -0.48 473.6323 383.6279)">
			</image>
		</g>
	</g>
</g>
<g>
	<defs>
		<polyline id="SVGID_105_" points="485.9,382.7 485.4,382.7 485.4,230.7 485.9,230.7 485.9,382.7 		"/>
	</defs>
	<clipPath id="SVGID_106_">
		<use xlink:href="#SVGID_105_"  style="overflow:visible;"/>
	</clipPath>
	<g class="st32">
		<defs>
			<rect id="SVGID_107_" x="485.4" y="230.7" width="0.5" height="152"/>
		</defs>
		<clipPath id="SVGID_108_">
			<use xlink:href="#SVGID_107_"  style="overflow:visible;"/>
		</clipPath>
		<g style="clip-path:url(#SVGID_108_);">
			
				<image style="overflow:visible;" width="8" height="320" xlink:href="50237CDBAB7427DF.jpg"  transform="matrix(0.48 0 0 -0.48 484.3074 383.6279)">
			</image>
		</g>
	</g>
</g>
<g>
	<defs>
		<polyline id="SVGID_109_" points="496.2,382.7 495.8,382.7 495.8,230.7 496.2,230.7 496.2,382.7 		"/>
	</defs>
	<clipPath id="SVGID_110_">
		<use xlink:href="#SVGID_109_"  style="overflow:visible;"/>
	</clipPath>
	<g class="st33">
		<defs>
			<rect id="SVGID_111_" x="495.8" y="230.7" width="0.5" height="152"/>
		</defs>
		<clipPath id="SVGID_112_">
			<use xlink:href="#SVGID_111_"  style="overflow:visible;"/>
		</clipPath>
		<g style="clip-path:url(#SVGID_112_);">
			
				<image style="overflow:visible;" width="8" height="320" xlink:href="50237CDBAB7427D9.jpg"  transform="matrix(0.48 0 0 -0.48 494.4996 383.6279)">
			</image>
		</g>
	</g>
</g>
<g>
	<defs>
		<polyline id="SVGID_113_" points="506.6,382.7 506.1,382.7 506.1,230.7 506.6,230.7 506.6,382.7 		"/>
	</defs>
	<clipPath id="SVGID_114_">
		<use xlink:href="#SVGID_113_"  style="overflow:visible;"/>
	</clipPath>
	<g class="st34">
		<defs>
			<rect id="SVGID_115_" x="506.1" y="230.7" width="0.5" height="152"/>
		</defs>
		<clipPath id="SVGID_116_">
			<use xlink:href="#SVGID_115_"  style="overflow:visible;"/>
		</clipPath>
		<g transform="matrix(1 0 0 1 -3.051758e-05 0)" style="clip-path:url(#SVGID_116_);">
			
				<image style="overflow:visible;" width="8" height="320" xlink:href="50237CDBAB7427D8.jpg"  transform="matrix(0.48 0 0 -0.48 505.1748 383.6279)">
			</image>
		</g>
	</g>
</g>
<g>
	<defs>
		<polyline id="SVGID_117_" points="517,382.7 516.5,382.7 516.5,230.7 517,230.7 517,382.7 		"/>
	</defs>
	<clipPath id="SVGID_118_">
		<use xlink:href="#SVGID_117_"  style="overflow:visible;"/>
	</clipPath>
	<g class="st35">
		<defs>
			<rect id="SVGID_119_" x="516.5" y="230.7" width="0.5" height="152"/>
		</defs>
		<clipPath id="SVGID_120_">
			<use xlink:href="#SVGID_119_"  style="overflow:visible;"/>
		</clipPath>
		<g style="clip-path:url(#SVGID_120_);">
			
				<image style="overflow:visible;" width="8" height="320" xlink:href="50237CDBAB742804.jpg"  transform="matrix(0.48 0 0 -0.48 515.3698 383.6279)">
			</image>
		</g>
	</g>
</g>
<g>
	<defs>
		<polyline id="SVGID_121_" points="527.3,382.7 526.9,382.7 526.9,230.7 527.3,230.7 527.3,382.7 		"/>
	</defs>
	<clipPath id="SVGID_122_">
		<use xlink:href="#SVGID_121_"  style="overflow:visible;"/>
	</clipPath>
	<g class="st36">
		<defs>
			<rect id="SVGID_123_" x="526.9" y="230.7" width="0.5" height="152"/>
		</defs>
		<clipPath id="SVGID_124_">
			<use xlink:href="#SVGID_123_"  style="overflow:visible;"/>
		</clipPath>
		<g style="clip-path:url(#SVGID_124_);">
			
				<image style="overflow:visible;" width="8" height="320" xlink:href="50237CDBAB74283B.jpg"  transform="matrix(0.48 0 0 -0.48 525.5621 383.6279)">
			</image>
		</g>
	</g>
</g>
<g>
	<defs>
		<polyline id="SVGID_125_" points="537.7,382.7 537.2,382.7 537.2,230.7 537.7,230.7 537.7,382.7 		"/>
	</defs>
	<clipPath id="SVGID_126_">
		<use xlink:href="#SVGID_125_"  style="overflow:visible;"/>
	</clipPath>
	<g class="st37">
		<defs>
			<rect id="SVGID_127_" x="537.2" y="230.7" width="0.5" height="152"/>
		</defs>
		<clipPath id="SVGID_128_">
			<use xlink:href="#SVGID_127_"  style="overflow:visible;"/>
		</clipPath>
		<g style="clip-path:url(#SVGID_128_);">
			
				<image style="overflow:visible;" width="8" height="320" xlink:href="50237CDBAB74283C.jpg"  transform="matrix(0.48 0 0 -0.48 536.2345 383.6279)">
			</image>
		</g>
	</g>
</g>
<g>
	<defs>
		<polyline id="SVGID_129_" points="548.1,382.7 547.6,382.7 547.6,230.7 548.1,230.7 548.1,382.7 		"/>
	</defs>
	<clipPath id="SVGID_130_">
		<use xlink:href="#SVGID_129_"  style="overflow:visible;"/>
	</clipPath>
	<g class="st38">
		<defs>
			<rect id="SVGID_131_" x="547.6" y="230.7" width="0.5" height="152"/>
		</defs>
		<clipPath id="SVGID_132_">
			<use xlink:href="#SVGID_131_"  style="overflow:visible;"/>
		</clipPath>
		<g style="clip-path:url(#SVGID_132_);">
			
				<image style="overflow:visible;" width="8" height="320" xlink:href="50237CDBAB74283F.jpg"  transform="matrix(0.48 0 0 -0.48 546.4294 383.6279)">
			</image>
		</g>
	</g>
</g>
<g>
	<defs>
		<polyline id="SVGID_133_" points="558.5,382.7 558,382.7 558,230.7 558.5,230.7 558.5,382.7 		"/>
	</defs>
	<clipPath id="SVGID_134_">
		<use xlink:href="#SVGID_133_"  style="overflow:visible;"/>
	</clipPath>
	<g class="st39">
		<defs>
			<rect id="SVGID_135_" x="558" y="230.7" width="0.5" height="152"/>
		</defs>
		<clipPath id="SVGID_136_">
			<use xlink:href="#SVGID_135_"  style="overflow:visible;"/>
		</clipPath>
		<g style="clip-path:url(#SVGID_136_);">
			
				<image style="overflow:visible;" width="8" height="320" xlink:href="50237CDBAB74283D.jpg"  transform="matrix(0.48 0 0 -0.48 556.6246 383.6279)">
			</image>
		</g>
	</g>
</g>
<g>
	<defs>
		<polyline id="SVGID_137_" points="568.8,382.7 568.4,382.7 568.4,230.7 568.8,230.7 568.8,382.7 		"/>
	</defs>
	<clipPath id="SVGID_138_">
		<use xlink:href="#SVGID_137_"  style="overflow:visible;"/>
	</clipPath>
	<g class="st40">
		<defs>
			<rect id="SVGID_139_" x="568.4" y="230.7" width="0.5" height="152"/>
		</defs>
		<clipPath id="SVGID_140_">
			<use xlink:href="#SVGID_139_"  style="overflow:visible;"/>
		</clipPath>
		<g style="clip-path:url(#SVGID_140_);">
			
				<image style="overflow:visible;" width="8" height="320" xlink:href="50237CDBAB74283A.jpg"  transform="matrix(0.48 0 0 -0.48 567.2969 383.6279)">
			</image>
		</g>
	</g>
</g>
<g>
	<defs>
		<polyline id="SVGID_141_" points="579.2,382.7 578.8,382.7 578.8,230.7 579.2,230.7 579.2,382.7 		"/>
	</defs>
	<clipPath id="SVGID_142_">
		<use xlink:href="#SVGID_141_"  style="overflow:visible;"/>
	</clipPath>
	<g class="st41">
		<defs>
			<rect id="SVGID_143_" x="578.8" y="230.7" width="0.5" height="152"/>
		</defs>
		<clipPath id="SVGID_144_">
			<use xlink:href="#SVGID_143_"  style="overflow:visible;"/>
		</clipPath>
		<g style="clip-path:url(#SVGID_144_);">
			
				<image style="overflow:visible;" width="8" height="320" xlink:href="50237CDBAB742805.jpg"  transform="matrix(0.48 0 0 -0.48 577.4921 383.6279)">
			</image>
		</g>
	</g>
</g>
<g>
	<defs>
		<polyline id="SVGID_145_" points="589.6,382.7 589.1,382.7 589.1,230.7 589.6,230.7 589.6,382.7 		"/>
	</defs>
	<clipPath id="SVGID_146_">
		<use xlink:href="#SVGID_145_"  style="overflow:visible;"/>
	</clipPath>
	<g class="st42">
		<defs>
			<rect id="SVGID_147_" x="589.1" y="230.7" width="0.5" height="152"/>
		</defs>
		<clipPath id="SVGID_148_">
			<use xlink:href="#SVGID_147_"  style="overflow:visible;"/>
		</clipPath>
		<g style="clip-path:url(#SVGID_148_);">
			
				<image style="overflow:visible;" width="8" height="320" xlink:href="50237CDBAB742807.jpg"  transform="matrix(0.48 0 0 -0.48 587.6869 383.6279)">
			</image>
		</g>
	</g>
</g>
<g>
	<defs>
		<polyline id="SVGID_149_" points="600,382.7 599.5,382.7 599.5,230.7 600,230.7 600,382.7 		"/>
	</defs>
	<clipPath id="SVGID_150_">
		<use xlink:href="#SVGID_149_"  style="overflow:visible;"/>
	</clipPath>
	<g class="st43">
		<defs>
			<rect id="SVGID_151_" x="599.5" y="230.7" width="0.5" height="152"/>
		</defs>
		<clipPath id="SVGID_152_">
			<use xlink:href="#SVGID_151_"  style="overflow:visible;"/>
		</clipPath>
		<g style="clip-path:url(#SVGID_152_);">
			
				<image style="overflow:visible;" width="8" height="320" xlink:href="50237CDBAB74280A.jpg"  transform="matrix(0.48 0 0 -0.48 598.3594 383.6279)">
			</image>
		</g>
	</g>
</g>
<g>
	<defs>
		<polyline id="SVGID_153_" points="610.3,382.7 609.9,382.7 609.9,230.7 610.3,230.7 610.3,382.7 		"/>
	</defs>
	<clipPath id="SVGID_154_">
		<use xlink:href="#SVGID_153_"  style="overflow:visible;"/>
	</clipPath>
	<g class="st44">
		<defs>
			<rect id="SVGID_155_" x="609.9" y="230.7" width="0.5" height="152"/>
		</defs>
		<clipPath id="SVGID_156_">
			<use xlink:href="#SVGID_155_"  style="overflow:visible;"/>
		</clipPath>
		<g style="clip-path:url(#SVGID_156_);">
			
				<image style="overflow:visible;" width="8" height="320" xlink:href="50237CDBAB74280B.jpg"  transform="matrix(0.48 0 0 -0.48 608.5516 383.6279)">
			</image>
		</g>
	</g>
</g>
<g>
	<defs>
		<polyline id="SVGID_157_" points="620.7,382.7 620.2,382.7 620.2,230.7 620.7,230.7 620.7,382.7 		"/>
	</defs>
	<clipPath id="SVGID_158_">
		<use xlink:href="#SVGID_157_"  style="overflow:visible;"/>
	</clipPath>
	<g class="st45">
		<defs>
			<rect id="SVGID_159_" x="620.2" y="230.7" width="0.5" height="152"/>
		</defs>
		<clipPath id="SVGID_160_">
			<use xlink:href="#SVGID_159_"  style="overflow:visible;"/>
		</clipPath>
		<g style="clip-path:url(#SVGID_160_);">
			
				<image style="overflow:visible;" width="8" height="320" xlink:href="50237CDBAB742817.jpg"  transform="matrix(0.48 0 0 -0.48 619.2267 383.6279)">
			</image>
		</g>
	</g>
</g>
<g>
	<defs>
		<polyline id="SVGID_161_" points="631.1,382.7 630.6,382.7 630.6,230.7 631.1,230.7 631.1,382.7 		"/>
	</defs>
	<clipPath id="SVGID_162_">
		<use xlink:href="#SVGID_161_"  style="overflow:visible;"/>
	</clipPath>
	<g class="st46">
		<defs>
			<rect id="SVGID_163_" x="630.6" y="230.7" width="0.5" height="152"/>
		</defs>
		<clipPath id="SVGID_164_">
			<use xlink:href="#SVGID_163_"  style="overflow:visible;"/>
		</clipPath>
		<g style="clip-path:url(#SVGID_164_);">
			
				<image style="overflow:visible;" width="8" height="320" xlink:href="50237CDBAB742869.jpg"  transform="matrix(0.48 0 0 -0.48 629.4218 383.6279)">
			</image>
		</g>
	</g>
</g>
<text transform="matrix(1 0 0 1 309.4728 288.8691)" class="st1 st4 st47">Gr</text>
<text transform="matrix(1 0 0 1 322.254 288.8691)" class="st1 st4 st47">ow</text>
<text transform="matrix(1 0 0 1 337.7931 288.8691)" class="st1 st4 st47">th</text>
<text transform="matrix(1 0 0 1 226.7775 274.0645)" class="st1 st4 st47">Fo</text>
<text transform="matrix(1 0 0 1 239.7931 274.0645)" class="st1 st4 st47">cuse</text>
<text transform="matrix(1 0 0 1 262.8947 274.0645)" class="st1 st4 st47">d</text>
<text transform="matrix(1 0 0 1 394.4103 305.5332)" class="st1 st4 st47">Moderat</text>
<text transform="matrix(1 0 0 1 438.5587 305.5332)" class="st1 st4 st47">e</text>
<text transform="matrix(1 0 0 1 473.0275 322.1943)" class="st1 st4 st47">Conser</text>
<text transform="matrix(1 0 0 1 509.6447 322.1943)" class="st1 st4 st47">va</text>
<text transform="matrix(1 0 0 1 521.1603 322.1943)" class="st1 st4 st47">ti</text>
<text transform="matrix(1 0 0 1 527.8868 322.1943)" class="st1 st4 st47">ve</text>
<text transform="matrix(1 0 0 1 563.6212 337.9238)" class="st1 st4 st47">Conser</text>
<text transform="matrix(1 0 0 1 600.2228 337.9238)" class="st1 st4 st47">va</text>
<text transform="matrix(1 0 0 1 611.754 337.9238)" class="st1 st4 st47">ti</text>
<text transform="matrix(1 0 0 1 618.4259 337.9238)" class="st1 st4 st47">on</text>
<text transform="matrix(1 0 0 1 587.1915 349.291)" class="st1 st4 st47">Plus</text>
<path class="st1" d="M346.1,241.7c-4.2-5.7-10.2-8.8-17.3-8.8v8.2c4.4,0,8.1,1.9,10.7,5.5L346.1,241.7L346.1,241.7z"/>
<path class="st0" d="M346.1,241.7l0.9-0.7c-2.2-3-4.9-5.3-8-6.9c-3.1-1.6-6.6-2.4-10.3-2.4h-1.1v10.5h1.1c2,0,3.9,0.4,5.5,1.3
	c1.6,0.8,3.1,2.1,4.3,3.7l0.7,0.9l8.5-6.2l-0.7-0.9L346.1,241.7l-0.7-0.9l-6.6,4.8l0.7,0.9l0.9-0.7c-1.4-1.9-3.1-3.4-5.1-4.4
	c-2-1-4.2-1.5-6.6-1.5v1.1h1.1v-8.2h-1.1v1.1c3.4,0,6.5,0.7,9.2,2.1c2.8,1.4,5.2,3.5,7.2,6.2L346.1,241.7l-0.7-0.9L346.1,241.7
	L346.1,241.7z"/>
<path class="st48" d="M350.2,254.3c0-4.7-1.3-8.8-4.1-12.6l-6.6,4.8c1.7,2.4,2.5,4.9,2.5,7.8c0,7.3-5.9,13.2-13.2,13.2
	c-7.3,0-13.2-5.9-13.2-13.2c0-7.3,5.9-13.2,13.2-13.2v-8.2c-11.8,0-21.4,9.6-21.4,21.4c0,11.8,9.6,21.4,21.4,21.4
	C340.6,275.8,350.2,266.2,350.2,254.3L350.2,254.3z"/>
<path class="st0" d="M350.2,254.3h1.1c0-4.9-1.4-9.3-4.3-13.3l-0.7-0.9l-8.5,6.2l0.7,0.9c1.6,2.2,2.3,4.4,2.3,7.1
	c0,3.3-1.4,6.4-3.5,8.6c-2.2,2.2-5.2,3.5-8.6,3.5c-3.3,0-6.4-1.4-8.6-3.5c-2.2-2.2-3.5-5.2-3.5-8.6c0-3.3,1.4-6.4,3.5-8.6
	c2.2-2.2,5.2-3.5,8.6-3.5h1.1v-10.5h-1.1c-12.5,0-22.6,10.1-22.6,22.6c0,12.5,10.1,22.6,22.6,22.6c12.5,0,22.6-10.1,22.6-22.6H350.2
	h-1.1c0,5.6-2.3,10.7-5.9,14.3c-3.7,3.7-8.7,5.9-14.3,5.9c-5.6,0-10.7-2.3-14.3-5.9c-3.7-3.7-5.9-8.7-5.9-14.3
	c0-5.6,2.3-10.7,5.9-14.3c3.7-3.7,8.7-5.9,14.3-5.9v-1.1h-1.1v8.2h1.1v-1.1c-7.9,0-14.4,6.4-14.4,14.4c0,7.9,6.4,14.4,14.4,14.4
	c7.9,0,14.4-6.4,14.4-14.4c0-3.1-0.9-5.9-2.7-8.5l-0.9,0.7l0.7,0.9l6.6-4.8l-0.7-0.9l-0.9,0.7c2.7,3.7,3.9,7.4,3.9,11.9H350.2
	L350.2,254.3z"/>
<path class="st48" d="M269.7,239.5c0-4.7-1.3-8.8-4.1-12.6c-4.2-5.7-10.2-8.8-17.3-8.8c-11.8,0-21.4,9.6-21.4,21.4
	c0,11.8,9.6,21.4,21.4,21.4S269.7,251.4,269.7,239.5L269.7,239.5z"/>
<path class="st0" d="M269.7,239.5h1.1c0-4.9-1.4-9.3-4.3-13.3c-2.2-3-4.9-5.3-8-6.9c-3.1-1.6-6.6-2.4-10.3-2.4
	c-12.5,0-22.6,10.1-22.6,22.6c0,12.5,10.1,22.6,22.6,22.6c12.5,0,22.6-10.1,22.6-22.6H269.7h-1.1c0,5.6-2.3,10.7-5.9,14.3
	c-3.7,3.7-8.7,5.9-14.3,5.9c-5.6,0-10.7-2.3-14.3-5.9c-3.7-3.7-5.9-8.7-5.9-14.3c0-5.6,2.3-10.7,5.9-14.3c3.7-3.7,8.7-5.9,14.3-5.9
	c3.4,0,6.5,0.7,9.2,2.1c2.8,1.4,5.2,3.5,7.2,6.2c2.7,3.7,3.9,7.4,3.9,11.9H269.7L269.7,239.5z"/>
<path class="st0" d="M261.5,239.5c0-2.9-0.8-5.4-2.5-7.8c-2.6-3.5-6.3-5.5-10.7-5.5c-7.3,0-13.2,5.9-13.2,13.2
	c0,7.3,5.9,13.2,13.2,13.2C255.6,252.8,261.5,246.8,261.5,239.5L261.5,239.5z"/>
<path class="st0" d="M261.5,239.5h1.2c0-3.1-0.9-5.9-2.8-8.5c-1.4-1.9-3.1-3.4-5.1-4.4c-2-1-4.2-1.5-6.6-1.5
	c-8,0-14.4,6.4-14.4,14.4s6.4,14.4,14.4,14.4c8,0,14.4-6.4,14.4-14.4H261.5h-1.2c0,3.3-1.3,6.3-3.5,8.5c-2.2,2.2-5.2,3.5-8.5,3.5
	c-3.3,0-6.3-1.3-8.5-3.5c-2.2-2.2-3.5-5.2-3.5-8.5c0-3.3,1.3-6.3,3.5-8.5c2.2-2.2,5.2-3.5,8.5-3.5c2,0,3.9,0.4,5.5,1.3
	c1.6,0.8,3.1,2.1,4.3,3.7c1.6,2.2,2.3,4.4,2.3,7.1H261.5L261.5,239.5z"/>
<path class="st1" d="M432.2,253.7c-3.8-2.8-7.9-4.1-12.6-4.1v8.2l0,0c4.4,0,8.1,1.9,10.7,5.5c1.7,2.4,2.5,4.9,2.5,7.8
	c0,2.9-0.9,5.6-2.5,7.8l6.6,4.8C443.9,274,441.8,260.6,432.2,253.7L432.2,253.7z"/>
<path class="st0" d="M432.2,253.7l0.7-0.9c-4-2.9-8.3-4.3-13.3-4.3h-1.1v10.5h1.1c2,0,3.9,0.4,5.5,1.3c1.6,0.8,3.1,2.1,4.3,3.7
	c1.6,2.2,2.3,4.4,2.3,7.1c0,2.7-0.9,5.1-2.3,7.1l-0.7,0.9l8.5,6.2l0.7-0.9c2.9-4,4.3-8.7,4.3-13.3c0-7-3.2-13.9-9.3-18.3
	L432.2,253.7l-0.7,0.9c5.5,4,8.4,10.2,8.4,16.4c0,4.1-1.3,8.3-3.9,11.9l0.9,0.7l0.7-0.9l-6.6-4.8l-0.7,0.9l0.9,0.7
	c1.7-2.4,2.8-5.3,2.8-8.4c0-3.1-0.9-5.9-2.7-8.5c-1.4-1.9-3.1-3.4-5.1-4.4c-2-1-4.2-1.5-6.6-1.5l0,0v1.1h1.1v-8.2h-1.1v1.1
	c4.5,0,8.3,1.2,11.9,3.9L432.2,253.7L432.2,253.7z"/>
<path class="st48" d="M419.6,257.8v-8.2c-11.8,0-21.4,9.6-21.4,21.4s9.6,21.4,21.4,21.4c7.1,0,13.2-3.1,17.3-8.8l-6.6-4.8
	c-2.4,3.3-6.3,5.5-10.7,5.5c-7.3,0-13.2-5.9-13.2-13.2C406.3,263.7,412.3,257.8,419.6,257.8L419.6,257.8z"/>
<path class="st0" d="M419.6,257.8h1.1v-9.3h-1.1c-12.5,0-22.6,10.1-22.6,22.6c0,12.5,10.1,22.6,22.6,22.6c3.7,0,7.2-0.8,10.3-2.4
	c3.1-1.6,5.8-3.9,8-6.9l0.7-0.9l-8.5-6.2l-0.7,0.9c-2.2,3-5.8,5-9.8,5c-3.3,0-6.4-1.4-8.5-3.5c-2.2-2.2-3.5-5.2-3.5-8.6
	c0-3.3,1.3-6.4,3.5-8.6c2.2-2.2,5.2-3.5,8.5-3.5h1.1v-1.1H419.6v-1.1c-7.9,0-14.4,6.4-14.4,14.4c0,7.9,6.4,14.4,14.4,14.4
	c4.8,0,9-2.3,11.6-5.9l-0.9-0.7l-0.7,0.9l6.6,4.8l0.7-0.9l-0.9-0.7c-2,2.7-4.4,4.8-7.2,6.2c-2.8,1.4-5.9,2.1-9.2,2.1
	c-5.6,0-10.7-2.3-14.3-5.9c-3.7-3.7-5.9-8.7-5.9-14.3c0-5.6,2.3-10.7,5.9-14.3c3.7-3.7,8.7-5.9,14.3-5.9v-1.1h-1.1v8.2H419.6v-1.1
	V257.8L419.6,257.8z"/>
<path class="st1" d="M518.9,270.3c-3.8-2.8-7.9-4.1-12.6-4.1v8.2l0,0c4.4,0,8.1,1.9,10.7,5.5c1.7,2.4,2.5,4.9,2.5,7.8
	c0,7.3-5.9,13.2-13.2,13.2c-2.9,0-5.6-0.9-7.8-2.5l-4.8,6.6c9.6,7,23,4.8,29.9-4.7C530.6,290.7,528.5,277.3,518.9,270.3L518.9,270.3
	z"/>
<path class="st0" d="M518.9,270.3l0.7-0.9c-4-2.9-8.3-4.3-13.3-4.3h-1.2v10.5h1.2c2,0,3.9,0.4,5.5,1.3c1.6,0.8,3.1,2.1,4.3,3.7
	c1.6,2.2,2.3,4.4,2.3,7.1c0,3.3-1.3,6.4-3.5,8.6c-2.2,2.2-5.2,3.5-8.5,3.5c-2.7,0-5.1-0.9-7.1-2.3l-0.9-0.7l-6.2,8.5l0.9,0.7
	c4,2.9,8.7,4.3,13.2,4.3c7,0,13.9-3.2,18.3-9.3c2.9-4,4.3-8.7,4.3-13.3c0-7-3.2-13.9-9.3-18.3L518.9,270.3l-0.7,0.9
	c5.5,4,8.4,10.2,8.4,16.4c0,4.1-1.3,8.3-3.9,11.9c-4,5.5-10.2,8.4-16.4,8.4c-4.1,0-8.3-1.3-11.9-3.9l-0.7,0.9l0.9,0.7l4.8-6.6
	l-0.9-0.7l-0.7,0.9c2.4,1.7,5.3,2.8,8.5,2.8c7.9,0,14.4-6.4,14.4-14.4c0-3.1-0.9-5.9-2.7-8.5c-1.4-1.9-3.1-3.4-5.1-4.4
	c-2-1-4.2-1.5-6.5-1.5l0,0v1.1h1.1v-8.2h-1.1v1.1c4.5,0,8.3,1.2,11.9,3.9L518.9,270.3L518.9,270.3z"/>
<path class="st48" d="M506.3,274.4v-8.2c-11.8,0-21.4,9.6-21.4,21.4c0,7.1,3.1,13.2,8.8,17.3l4.8-6.6c-3.3-2.4-5.5-6.3-5.5-10.7
	C493.1,280.3,499,274.4,506.3,274.4L506.3,274.4z"/>
<path class="st0" d="M506.3,274.4h1.1v-9.3h-1.1c-12.5,0-22.6,10.1-22.6,22.6c0,3.7,0.8,7.2,2.4,10.3c1.6,3.1,3.9,5.8,6.9,8l0.9,0.7
	l6.2-8.5l-0.9-0.7c-3-2.2-5-5.8-5-9.8c0-3.3,1.4-6.4,3.5-8.6c2.2-2.2,5.2-3.5,8.6-3.5h1.1v-1.1H506.3v-1.1c-8,0-14.4,6.4-14.4,14.4
	c0,4.8,2.3,9,5.9,11.6l0.7-0.9l-0.9-0.7l-4.8,6.6l0.9,0.7l0.7-0.9c-2.7-2-4.8-4.4-6.2-7.2c-1.4-2.8-2.1-5.9-2.1-9.2
	c0-5.6,2.3-10.7,5.9-14.3c3.7-3.7,8.7-5.9,14.3-5.9v-1.1h-1.2v8.2H506.3v-1.1V274.4L506.3,274.4z"/>
<path class="st1" d="M604.1,283c-2.2-0.7-4.2-1-6.6-1v8.2c4.4,0,8.1,1.9,10.7,5.5c1.7,2.4,2.5,4.9,2.5,7.8c0,7.3-5.9,13.2-13.2,13.2
	c-7.3,0-13.2-5.9-13.2-13.2c0-1.4,0.2-2.8,0.7-4.1l-7.8-2.5c-3.7,11.3,2.5,23.3,13.8,27c11.2,3.7,23.3-2.5,27-13.8
	C621.5,298.8,615.4,286.7,604.1,283L604.1,283z"/>
<path class="st0" d="M604.1,283l0.4-1.1c-2.3-0.8-4.5-1.1-7-1.1h-1.1v10.5h1.1c2,0,3.9,0.4,5.5,1.3c1.6,0.8,3.1,2.1,4.3,3.7
	c1.6,2.2,2.3,4.4,2.3,7.1c0,3.3-1.4,6.4-3.5,8.6c-2.2,2.2-5.2,3.5-8.6,3.5c-3.3,0-6.4-1.4-8.5-3.5c-2.2-2.2-3.5-5.2-3.5-8.6
	c0-1.3,0.2-2.6,0.6-3.7l0.4-1.1l-10-3.2l-0.3,1.1c-0.8,2.3-1.1,4.7-1.1,7c0,9.5,6.1,18.4,15.6,21.5c2.3,0.8,4.7,1.1,7,1.1
	c9.5,0,18.4-6.1,21.5-15.6c0.8-2.3,1.1-4.7,1.1-7c0-9.5-6.1-18.4-15.6-21.5L604.1,283l-0.3,1.1c8.6,2.8,14,10.7,14,19.3
	c0,2.1-0.3,4.2-1,6.3c-2.8,8.6-10.7,14-19.3,14c-2.1,0-4.2-0.3-6.3-1c-8.6-2.8-14-10.7-14-19.3c0-2.1,0.3-4.2,1-6.3l-1.1-0.4
	l-0.4,1.1l7.8,2.5l0.3-1.1l-1.1-0.4c-0.5,1.4-0.7,2.9-0.7,4.4c0,7.9,6.4,14.4,14.4,14.4c7.9,0,14.4-6.4,14.4-14.4
	c0-3.1-0.9-5.9-2.7-8.5c-1.4-1.9-3.1-3.4-5.1-4.4c-2-1-4.2-1.5-6.6-1.5v1.1h1.2V282h-1.2v1.1c2.3,0,4.1,0.3,6.3,1L604.1,283
	L604.1,283z"/>
<path class="st48" d="M597.5,290.2V282c-9.5,0-17.5,5.8-20.4,14.8l7.8,2.5C586.6,294,591.6,290.2,597.5,290.2L597.5,290.2z"/>
<path class="st0" d="M597.5,290.2h1.2v-9.3h-1.2c-5,0-9.6,1.5-13.3,4.2c-3.7,2.7-6.6,6.6-8.2,11.4l-0.4,1.1l10,3.2l0.3-1.1
	c1.6-4.8,6.1-8.4,11.5-8.4h1.2v-1.1H597.5V289c-6.4,0-11.8,4.2-13.7,9.9l1.1,0.4l0.4-1.1l-7.8-2.5l-0.3,1.1l1.1,0.4
	c1.4-4.3,4-7.8,7.3-10.2c3.3-2.4,7.5-3.8,12-3.8V282h-1.1v8.2H597.5V289V290.2L597.5,290.2z"/>
<text transform="matrix(1 0 0 1 309.4337 299.9941)" class="st48 st49 st50">85%</text>
<text transform="matrix(1 0 0 1 325.0431 299.9941)" class="st48 st51 st50"> Equity</text>
<text transform="matrix(1 0 0 1 297.4572 310.252)" class="st1 st49 st50">15%</text>
<text transform="matrix(1 0 0 1 313.0587 310.252)" class="st1 st51 st50"> Fixed Incom</text>
<text transform="matrix(1 0 0 1 355.9572 310.252)" class="st1 st51 st50">e</text>
<text transform="matrix(1 0 0 1 400.7462 316.6641)" class="st48 st49 st50">65%</text>
<text transform="matrix(1 0 0 1 416.3478 316.6641)" class="st48 st51 st50"> Equity</text>
<text transform="matrix(1 0 0 1 388.7697 326.9082)" class="st1 st49 st50">35%</text>
<text transform="matrix(1 0 0 1 404.3634 326.9082)" class="st1 st51 st50"> Fixed Incom</text>
<text transform="matrix(1 0 0 1 447.2697 326.9082)" class="st1 st51 st50">e</text>
<text transform="matrix(1 0 0 1 486.9572 333.3203)" class="st48 st49 st50">40%</text>
<text transform="matrix(1 0 0 1 502.5743 333.3203)" class="st48 st51 st50"> Equity</text>
<text transform="matrix(1 0 0 1 474.9806 343.5801)" class="st1 st49 st50">60%</text>
<text transform="matrix(1 0 0 1 490.5822 343.5801)" class="st1 st51 st50"> Fixed Incom</text>
<text transform="matrix(1 0 0 1 533.4806 343.5801)" class="st1 st51 st50">e</text>
<text transform="matrix(1 0 0 1 576.9884 359.0488)" class="st48 st49 st50">20</text>
<text transform="matrix(1 0 0 1 585.8243 359.0488)" class="st48 st49 st50">%</text>
<text transform="matrix(1 0 0 1 592.6056 359.0488)" class="st48 st51 st50"> Equity</text>
<text transform="matrix(1 0 0 1 565.004 369.3145)" class="st1 st49 st50">80%</text>
<text transform="matrix(1 0 0 1 580.6056 369.3145)" class="st1 st51 st50"> Fixed Incom</text>
<text transform="matrix(1 0 0 1 623.504 369.3145)" class="st1 st51 st50">e</text>
<text transform="matrix(1 0 0 1 226.6915 285.1895)" class="st48 st49 st50">100%</text>
<text transform="matrix(1 0 0 1 246.715 285.1895)" class="st48 st51 st50"> Equity</text>
<polyline class="st48" points="496.7,383.6 640,383.6 640,381.7 496.7,381.7 "/>
<polygon class="st48" points="634.4,378.8 638.6,382.7 634.4,386.6 635.7,387.9 641.3,382.7 635.7,377.4 634.4,378.8 "/>
<polyline class="st48" points="206.4,383.6 345.4,383.6 345.4,381.7 206.4,381.7 "/>
<polygon class="st48" points="212,386.6 207.8,382.7 212,378.8 210.7,377.4 205.1,382.7 210.7,387.9 212,386.6 "/>
<polygon class="st48" points="420.1,368 410,379.3 430.1,379.3 420.1,368 "/>
<polygon class="st0" points="491.1,437.7 491.1,375.4 349.8,375.4 349.8,437.7 491.1,437.7 "/>
<polygon class="st48" points="491.1,437.7 492.2,437.7 492.2,374.3 348.7,374.3 348.7,438.8 492.2,438.8 492.2,437.7 491.1,437.7 
	491.1,436.6 350.9,436.6 350.9,376.5 490,376.5 490,437.7 491.1,437.7 491.1,436.6 491.1,437.7 "/>
<text transform="matrix(1 0 0 1 369.5587 394.2207)" class="st48 st2 st52">Choose a po</text>
<text transform="matrix(1 0 0 1 438.3116 394.2207)" class="st48 st2 st52">rt</text>
<text transform="matrix(1 0 0 1 447.2462 394.2207)" class="st48 st2 st52">foli</text>
<text transform="matrix(1 0 0 1 463.3947 394.2207)" class="st48 st2 st52">o </text>
<text transform="matrix(1 0 0 1 361.7072 407.6738)" class="st48 st2 st52">th</text>
<text transform="matrix(1 0 0 1 372.4025 407.6738)" class="st48 st2 st52">at ma</text>
<text transform="matrix(1 0 0 1 402.3243 407.6738)" class="st48 st2 st52">tc</text>
<text transform="matrix(1 0 0 1 412.1056 407.6738)" class="st48 st2 st52">hes your risk</text>
<text transform="matrix(1 0 0 1 478.4572 407.6738)" class="st48 st2 st52"> </text>
<text transform="matrix(1 0 0 1 380.0353 421.1172)" class="st48 st2 st52">to</text>
<text transform="matrix(1 0 0 1 391.0197 421.1172)" class="st48 st2 st52">lerance be</text>
<text transform="matrix(1 0 0 1 447.6134 421.1172)" class="st48 st2 st52">st</text>
<text transform="matrix(1 0 0 1 456.9757 421.1172)" class="st48 st2 st52">.</text>
<text transform="matrix(1 0 0 1 262.1993 395.7676)" class="st48 st4 st50">Higher risk.</text>
<text transform="matrix(1 0 0 1 228.4982 408.3301)" class="st53 st54 st55">May experience high </text>
<text transform="matrix(1 0 0 1 309.6622 408.3301)" class="st53 st54 st55">re</text>
<text transform="matrix(1 0 0 1 317.1447 408.3301)" class="st53 st54 st55">turn, </text>
<text transform="matrix(1 0 0 1 233.8087 418.3926)" class="st53 st54 st55">as well as higher volatility</text>
<text transform="matrix(1 0 0 1 329.4181 418.3926)" class="st53 st54 st55"> </text>
<text transform="matrix(1 0 0 1 241.4044 428.46)" class="st53 st54 st55">and short term losses</text>
<text transform="matrix(1 0 0 1 546.7697 395.7676)" class="st48 st4 st50">Lower risk.</text>
<text transform="matrix(1 0 0 1 515.7638 408.3301)" class="st53 st54 st55">Lower likelihood of sever</text>
<text transform="matrix(1 0 0 1 609.879 408.3301)" class="st53 st54 st55">e </text>
<text transform="matrix(1 0 0 1 514.3009 418.3926)" class="st53 st54 st55">losses, but may experience </text>
<text transform="matrix(1 0 0 1 542.2072 428.46)" class="st53 st54 st55">lower </text>
<text transform="matrix(1 0 0 1 565.381 428.46)" class="st53 st54 st55">re</text>
<text transform="matrix(1 0 0 1 572.8497 428.46)" class="st53 st54 st55">turn</text>
</svg>
