<?xml version="1.0" encoding="utf-8"?>
<!-- Generator: Adobe Illustrator 19.0.0, SVG Export Plug-In . SVG Version: 6.00 Build 0)  -->
<svg version="1.1" id="Layer_1" xmlns="http://www.w3.org/2000/svg" xmlns:xlink="http://www.w3.org/1999/xlink" x="0px" y="0px"
	 viewBox="0 0 841.9 595.3" style="enable-background:new 0 0 841.9 595.3;" xml:space="preserve">
<style type="text/css">
	.st0{fill:#333E48;}
	.st1{fill:#FFFFFF;}
	.st2{font-family:'Avenir-Light';}
	.st3{font-size:15.1114px;}
	.st4{font-family:'Avenir-Medium';}
	.st5{font-size:20.6181px;}
	.st6{clip-path:url(#SVGID_2_);}
	.st7{clip-path:url(#SVGID_6_);}
	.st8{clip-path:url(#SVGID_10_);}
	.st9{clip-path:url(#SVGID_14_);}
	.st10{clip-path:url(#SVGID_18_);}
	.st11{clip-path:url(#SVGID_22_);}
	.st12{clip-path:url(#SVGID_26_);}
	.st13{clip-path:url(#SVGID_30_);}
	.st14{clip-path:url(#SVGID_34_);}
	.st15{clip-path:url(#SVGID_38_);}
	.st16{clip-path:url(#SVGID_42_);}
	.st17{clip-path:url(#SVGID_46_);}
	.st18{clip-path:url(#SVGID_50_);}
	.st19{clip-path:url(#SVGID_54_);}
	.st20{clip-path:url(#SVGID_58_);}
	.st21{clip-path:url(#SVGID_62_);}
	.st22{clip-path:url(#SVGID_66_);}
	.st23{clip-path:url(#SVGID_70_);}
	.st24{clip-path:url(#SVGID_74_);}
	.st25{clip-path:url(#SVGID_78_);}
	.st26{clip-path:url(#SVGID_82_);}
	.st27{clip-path:url(#SVGID_86_);}
	.st28{clip-path:url(#SVGID_90_);}
	.st29{clip-path:url(#SVGID_94_);}
	.st30{clip-path:url(#SVGID_98_);}
	.st31{clip-path:url(#SVGID_102_);}
	.st32{clip-path:url(#SVGID_106_);}
	.st33{clip-path:url(#SVGID_110_);}
	.st34{clip-path:url(#SVGID_114_);}
	.st35{clip-path:url(#SVGID_118_);}
	.st36{clip-path:url(#SVGID_122_);}
	.st37{clip-path:url(#SVGID_126_);}
	.st38{clip-path:url(#SVGID_130_);}
	.st39{clip-path:url(#SVGID_134_);}
	.st40{clip-path:url(#SVGID_138_);}
	.st41{clip-path:url(#SVGID_142_);}
	.st42{clip-path:url(#SVGID_146_);}
	.st43{clip-path:url(#SVGID_150_);}
	.st44{clip-path:url(#SVGID_154_);}
	.st45{clip-path:url(#SVGID_158_);}
	.st46{clip-path:url(#SVGID_162_);}
	.st47{font-size:11.1567px;}
	.st48{fill:#FFA400;}
	.st49{font-family:'Avenir-Heavy';}
	.st50{font-size:7.4618px;}
	.st51{font-family:'Avenir-Book';}
	.st52{font-size:12.1253px;}
	.st53{fill:#8E8F8F;}
	.st54{font-family:'Avenir-Oblique';}
	.st55{font-size:8.3945px;}
</style>
<polyline class="st0" points="658.9,468 658.9,127 182.1,127 182.1,468 658.9,468 "/>
<text transform="matrix(1 0 0 1 274.295 203.0098)" class="st1 st2 st3">av</text>
<text transform="matrix(1 0 0 1 288.9103 203.0098)" class="st1 st2 st3">aila</text>
<text transform="matrix(1 0 0 1 311.3654 203.0098)" class="st1 st2 st3">ble in 5 risk</text>
<text transform="matrix(1 0 0 1 385.8107 203.0098)" class="st1 st2 st3">-adjus</text>
<text transform="matrix(1 0 0 1 426.2872 203.0098)" class="st1 st2 st3">te</text>
<text transform="matrix(1 0 0 1 439.4825 203.0098)" class="st1 st2 st3">d model po</text>
<text transform="matrix(1 0 0 1 517.7618 203.0098)" class="st1 st2 st3">rt</text>
<text transform="matrix(1 0 0 1 528.8712 203.0098)" class="st1 st2 st3">foli</text>
<text transform="matrix(1 0 0 1 548.9259 203.0098)" class="st1 st2 st3">os</text>
<text transform="matrix(1 0 0 1 311.4259 181.8203)" class="st1 st4 st5">Active Asset Allocation</text>
<g>
	<defs>
		<polyline id="SVGID_1_" points="215.8,382.2 215.3,382.2 215.3,230.2 215.8,230.2 215.8,382.2 		"/>
	</defs>
	<clipPath id="SVGID_2_">
		<use xlink:href="#SVGID_1_"  style="overflow:visible;"/>
	</clipPath>
	<g class="st6">
		<defs>
			<rect id="SVGID_3_" x="215.3" y="230.2" width="0.5" height="152"/>
		</defs>
		<clipPath id="SVGID_4_">
			<use xlink:href="#SVGID_3_"  style="overflow:visible;"/>
		</clipPath>
		<g style="clip-path:url(#SVGID_4_);">
			
				<image style="overflow:visible;" width="8" height="321" xlink:href="A74C023C4D944F16.jpg"  transform="matrix(0.48 0 0 -0.48 214.2665 383.3781)">
			</image>
		</g>
	</g>
</g>
<g>
	<defs>
		<polyline id="SVGID_5_" points="226.2,382.2 225.7,382.2 225.7,230.2 226.2,230.2 226.2,382.2 		"/>
	</defs>
	<clipPath id="SVGID_6_">
		<use xlink:href="#SVGID_5_"  style="overflow:visible;"/>
	</clipPath>
	<g class="st7">
		<defs>
			<rect id="SVGID_7_" x="225.7" y="230.2" width="0.5" height="152"/>
		</defs>
		<clipPath id="SVGID_8_">
			<use xlink:href="#SVGID_7_"  style="overflow:visible;"/>
		</clipPath>
		<g style="clip-path:url(#SVGID_8_);">
			
				<image style="overflow:visible;" width="8" height="321" xlink:href="A74C023C4D944F1A.jpg"  transform="matrix(0.48 0 0 -0.48 224.4605 383.3781)">
			</image>
		</g>
	</g>
</g>
<g>
	<defs>
		<polyline id="SVGID_9_" points="236.5,382.2 236.1,382.2 236.1,230.2 236.5,230.2 236.5,382.2 		"/>
	</defs>
	<clipPath id="SVGID_10_">
		<use xlink:href="#SVGID_9_"  style="overflow:visible;"/>
	</clipPath>
	<g class="st8">
		<defs>
			<rect id="SVGID_11_" x="236.1" y="230.2" width="0.5" height="152"/>
		</defs>
		<clipPath id="SVGID_12_">
			<use xlink:href="#SVGID_11_"  style="overflow:visible;"/>
		</clipPath>
		<g style="clip-path:url(#SVGID_12_);">
			
				<image style="overflow:visible;" width="8" height="321" xlink:href="A74C023C4D944F1D.jpg"  transform="matrix(0.48 0 0 -0.48 234.6544 383.3781)">
			</image>
		</g>
	</g>
</g>
<g>
	<defs>
		<polyline id="SVGID_13_" points="246.9,382.2 246.4,382.2 246.4,230.2 246.9,230.2 246.9,382.2 		"/>
	</defs>
	<clipPath id="SVGID_14_">
		<use xlink:href="#SVGID_13_"  style="overflow:visible;"/>
	</clipPath>
	<g class="st9">
		<defs>
			<rect id="SVGID_15_" x="246.4" y="230.2" width="0.5" height="152"/>
		</defs>
		<clipPath id="SVGID_16_">
			<use xlink:href="#SVGID_15_"  style="overflow:visible;"/>
		</clipPath>
		<g style="clip-path:url(#SVGID_16_);">
			
				<image style="overflow:visible;" width="8" height="321" xlink:href="A74C023C4D944F1E.jpg"  transform="matrix(0.48 0 0 -0.48 245.3284 383.3781)">
			</image>
		</g>
	</g>
</g>
<g>
	<defs>
		<polyline id="SVGID_17_" points="257.3,382.2 256.8,382.2 256.8,230.2 257.3,230.2 257.3,382.2 		"/>
	</defs>
	<clipPath id="SVGID_18_">
		<use xlink:href="#SVGID_17_"  style="overflow:visible;"/>
	</clipPath>
	<g class="st10">
		<defs>
			<rect id="SVGID_19_" x="256.8" y="230.2" width="0.5" height="152"/>
		</defs>
		<clipPath id="SVGID_20_">
			<use xlink:href="#SVGID_19_"  style="overflow:visible;"/>
		</clipPath>
		<g style="clip-path:url(#SVGID_20_);">
			
				<image style="overflow:visible;" width="8" height="321" xlink:href="A74C023C4D944F1C.jpg"  transform="matrix(0.48 0 0 -0.48 255.5223 383.3781)">
			</image>
		</g>
	</g>
</g>
<g>
	<defs>
		<polyline id="SVGID_21_" points="267.6,382.2 267.2,382.2 267.2,230.2 267.6,230.2 267.6,382.2 		"/>
	</defs>
	<clipPath id="SVGID_22_">
		<use xlink:href="#SVGID_21_"  style="overflow:visible;"/>
	</clipPath>
	<g class="st11">
		<defs>
			<rect id="SVGID_23_" x="267.2" y="230.2" width="0.5" height="152"/>
		</defs>
		<clipPath id="SVGID_24_">
			<use xlink:href="#SVGID_23_"  style="overflow:visible;"/>
		</clipPath>
		<g style="clip-path:url(#SVGID_24_);">
			
				<image style="overflow:visible;" width="8" height="321" xlink:href="A74C023C4D944F1B.jpg"  transform="matrix(0.48 0 0 -0.48 266.1963 383.3781)">
			</image>
		</g>
	</g>
</g>
<g>
	<defs>
		<polyline id="SVGID_25_" points="278,382.2 277.6,382.2 277.6,230.2 278,230.2 278,382.2 		"/>
	</defs>
	<clipPath id="SVGID_26_">
		<use xlink:href="#SVGID_25_"  style="overflow:visible;"/>
	</clipPath>
	<g class="st12">
		<defs>
			<rect id="SVGID_27_" x="277.6" y="230.2" width="0.5" height="152"/>
		</defs>
		<clipPath id="SVGID_28_">
			<use xlink:href="#SVGID_27_"  style="overflow:visible;"/>
		</clipPath>
		<g style="clip-path:url(#SVGID_28_);">
			
				<image style="overflow:visible;" width="8" height="321" xlink:href="A74C023C4D944F15.jpg"  transform="matrix(0.48 0 0 -0.48 276.3904 383.3781)">
			</image>
		</g>
	</g>
</g>
<g>
	<defs>
		<polyline id="SVGID_29_" points="288.4,382.2 287.9,382.2 287.9,230.2 288.4,230.2 288.4,382.2 		"/>
	</defs>
	<clipPath id="SVGID_30_">
		<use xlink:href="#SVGID_29_"  style="overflow:visible;"/>
	</clipPath>
	<g class="st13">
		<defs>
			<rect id="SVGID_31_" x="287.9" y="230.2" width="0.5" height="152"/>
		</defs>
		<clipPath id="SVGID_32_">
			<use xlink:href="#SVGID_31_"  style="overflow:visible;"/>
		</clipPath>
		<g style="clip-path:url(#SVGID_32_);">
			
				<image style="overflow:visible;" width="8" height="321" xlink:href="A74C023C4D944F17.jpg"  transform="matrix(0.48 0 0 -0.48 286.584 383.3781)">
			</image>
		</g>
	</g>
</g>
<g>
	<defs>
		<polyline id="SVGID_33_" points="298.8,382.2 298.3,382.2 298.3,230.2 298.8,230.2 298.8,382.2 		"/>
	</defs>
	<clipPath id="SVGID_34_">
		<use xlink:href="#SVGID_33_"  style="overflow:visible;"/>
	</clipPath>
	<g class="st14">
		<defs>
			<rect id="SVGID_35_" x="298.3" y="230.2" width="0.5" height="152"/>
		</defs>
		<clipPath id="SVGID_36_">
			<use xlink:href="#SVGID_35_"  style="overflow:visible;"/>
		</clipPath>
		<g style="clip-path:url(#SVGID_36_);">
			
				<image style="overflow:visible;" width="8" height="321" xlink:href="A74C023C4D944F14.jpg"  transform="matrix(0.48 0 0 -0.48 297.2579 383.3781)">
			</image>
		</g>
	</g>
</g>
<g>
	<defs>
		<polyline id="SVGID_37_" points="309.1,382.2 308.7,382.2 308.7,230.2 309.1,230.2 309.1,382.2 		"/>
	</defs>
	<clipPath id="SVGID_38_">
		<use xlink:href="#SVGID_37_"  style="overflow:visible;"/>
	</clipPath>
	<g class="st15">
		<defs>
			<rect id="SVGID_39_" x="308.7" y="230.2" width="0.5" height="152"/>
		</defs>
		<clipPath id="SVGID_40_">
			<use xlink:href="#SVGID_39_"  style="overflow:visible;"/>
		</clipPath>
		<g style="clip-path:url(#SVGID_40_);">
			
				<image style="overflow:visible;" width="8" height="321" xlink:href="2DFC52B7366F6E89.jpg"  transform="matrix(0.48 0 0 -0.48 307.4519 383.3781)">
			</image>
		</g>
	</g>
</g>
<g>
	<defs>
		<polyline id="SVGID_41_" points="319.5,382.2 319,382.2 319,230.2 319.5,230.2 319.5,382.2 		"/>
	</defs>
	<clipPath id="SVGID_42_">
		<use xlink:href="#SVGID_41_"  style="overflow:visible;"/>
	</clipPath>
	<g class="st16">
		<defs>
			<rect id="SVGID_43_" x="319" y="230.2" width="0.5" height="152"/>
		</defs>
		<clipPath id="SVGID_44_">
			<use xlink:href="#SVGID_43_"  style="overflow:visible;"/>
		</clipPath>
		<g style="clip-path:url(#SVGID_44_);">
			
				<image style="overflow:visible;" width="8" height="321" xlink:href="2DFC52B7366F6E8F.jpg"  transform="matrix(0.48 0 0 -0.48 317.6459 383.3781)">
			</image>
		</g>
	</g>
</g>
<g>
	<defs>
		<polyline id="SVGID_45_" points="329.9,382.2 329.4,382.2 329.4,230.2 329.9,230.2 329.9,382.2 		"/>
	</defs>
	<clipPath id="SVGID_46_">
		<use xlink:href="#SVGID_45_"  style="overflow:visible;"/>
	</clipPath>
	<g class="st17">
		<defs>
			<rect id="SVGID_47_" x="329.4" y="230.2" width="0.5" height="152"/>
		</defs>
		<clipPath id="SVGID_48_">
			<use xlink:href="#SVGID_47_"  style="overflow:visible;"/>
		</clipPath>
		<g style="clip-path:url(#SVGID_48_);">
			
				<image style="overflow:visible;" width="8" height="321" xlink:href="2DFC52B7366F6E88.jpg"  transform="matrix(0.48 0 0 -0.48 328.3199 383.3781)">
			</image>
		</g>
	</g>
</g>
<g>
	<defs>
		<polyline id="SVGID_49_" points="340.3,382.2 339.8,382.2 339.8,230.2 340.3,230.2 340.3,382.2 		"/>
	</defs>
	<clipPath id="SVGID_50_">
		<use xlink:href="#SVGID_49_"  style="overflow:visible;"/>
	</clipPath>
	<g class="st18">
		<defs>
			<rect id="SVGID_51_" x="339.8" y="230.2" width="0.5" height="152"/>
		</defs>
		<clipPath id="SVGID_52_">
			<use xlink:href="#SVGID_51_"  style="overflow:visible;"/>
		</clipPath>
		<g style="clip-path:url(#SVGID_52_);">
			
				<image style="overflow:visible;" width="8" height="321" xlink:href="2DFC52B7366F6E8B.jpg"  transform="matrix(0.48 0 0 -0.48 338.5138 383.3781)">
			</image>
		</g>
	</g>
</g>
<g>
	<defs>
		<polyline id="SVGID_53_" points="350.6,382.2 350.2,382.2 350.2,230.2 350.6,230.2 350.6,382.2 		"/>
	</defs>
	<clipPath id="SVGID_54_">
		<use xlink:href="#SVGID_53_"  style="overflow:visible;"/>
	</clipPath>
	<g class="st19">
		<defs>
			<rect id="SVGID_55_" x="350.2" y="230.2" width="0.5" height="152"/>
		</defs>
		<clipPath id="SVGID_56_">
			<use xlink:href="#SVGID_55_"  style="overflow:visible;"/>
		</clipPath>
		<g style="clip-path:url(#SVGID_56_);">
			
				<image style="overflow:visible;" width="8" height="321" xlink:href="2DFC52B7366F6E97.jpg"  transform="matrix(0.48 0 0 -0.48 349.1874 383.3781)">
			</image>
		</g>
	</g>
</g>
<g>
	<defs>
		<polyline id="SVGID_57_" points="361,382.2 360.5,382.2 360.5,230.2 361,230.2 361,382.2 		"/>
	</defs>
	<clipPath id="SVGID_58_">
		<use xlink:href="#SVGID_57_"  style="overflow:visible;"/>
	</clipPath>
	<g class="st20">
		<defs>
			<rect id="SVGID_59_" x="360.5" y="230.2" width="0.5" height="152"/>
		</defs>
		<clipPath id="SVGID_60_">
			<use xlink:href="#SVGID_59_"  style="overflow:visible;"/>
		</clipPath>
		<g style="clip-path:url(#SVGID_60_);">
			
				<image style="overflow:visible;" width="8" height="321" xlink:href="2DFC52B7366F6E87.jpg"  transform="matrix(0.48 0 0 -0.48 359.3814 383.3781)">
			</image>
		</g>
	</g>
</g>
<g>
	<defs>
		<polyline id="SVGID_61_" points="371.4,382.2 370.9,382.2 370.9,230.2 371.4,230.2 371.4,382.2 		"/>
	</defs>
	<clipPath id="SVGID_62_">
		<use xlink:href="#SVGID_61_"  style="overflow:visible;"/>
	</clipPath>
	<g class="st21">
		<defs>
			<rect id="SVGID_63_" x="370.9" y="230.2" width="0.5" height="152"/>
		</defs>
		<clipPath id="SVGID_64_">
			<use xlink:href="#SVGID_63_"  style="overflow:visible;"/>
		</clipPath>
		<g style="clip-path:url(#SVGID_64_);">
			
				<image style="overflow:visible;" width="8" height="321" xlink:href="2DFC52B7366F6E99.jpg"  transform="matrix(0.48 0 0 -0.48 369.5754 383.3781)">
			</image>
		</g>
	</g>
</g>
<g>
	<defs>
		<polyline id="SVGID_65_" points="381.7,382.2 381.3,382.2 381.3,230.2 381.7,230.2 381.7,382.2 		"/>
	</defs>
	<clipPath id="SVGID_66_">
		<use xlink:href="#SVGID_65_"  style="overflow:visible;"/>
	</clipPath>
	<g class="st22">
		<defs>
			<rect id="SVGID_67_" x="381.3" y="230.2" width="0.5" height="152"/>
		</defs>
		<clipPath id="SVGID_68_">
			<use xlink:href="#SVGID_67_"  style="overflow:visible;"/>
		</clipPath>
		<g style="clip-path:url(#SVGID_68_);">
			
				<image style="overflow:visible;" width="8" height="321" xlink:href="2DFC52B7366F6E9B.jpg"  transform="matrix(0.48 0 0 -0.48 380.2491 383.3781)">
			</image>
		</g>
	</g>
</g>
<g>
	<defs>
		<polyline id="SVGID_69_" points="392.1,382.2 391.7,382.2 391.7,230.2 392.1,230.2 392.1,382.2 		"/>
	</defs>
	<clipPath id="SVGID_70_">
		<use xlink:href="#SVGID_69_"  style="overflow:visible;"/>
	</clipPath>
	<g class="st23">
		<defs>
			<rect id="SVGID_71_" x="391.7" y="230.2" width="0.5" height="152"/>
		</defs>
		<clipPath id="SVGID_72_">
			<use xlink:href="#SVGID_71_"  style="overflow:visible;"/>
		</clipPath>
		<g style="clip-path:url(#SVGID_72_);">
			
				<image style="overflow:visible;" width="8" height="321" xlink:href="2DFC52B7366F6E98.jpg"  transform="matrix(0.48 0 0 -0.48 390.4434 383.3781)">
			</image>
		</g>
	</g>
</g>
<g>
	<defs>
		<polyline id="SVGID_73_" points="402.5,382.2 402,382.2 402,230.2 402.5,230.2 402.5,382.2 		"/>
	</defs>
	<clipPath id="SVGID_74_">
		<use xlink:href="#SVGID_73_"  style="overflow:visible;"/>
	</clipPath>
	<g class="st24">
		<defs>
			<rect id="SVGID_75_" x="402" y="230.2" width="0.5" height="152"/>
		</defs>
		<clipPath id="SVGID_76_">
			<use xlink:href="#SVGID_75_"  style="overflow:visible;"/>
		</clipPath>
		<g style="clip-path:url(#SVGID_76_);">
			
				<image style="overflow:visible;" width="8" height="321" xlink:href="2DFC52B7366F6E9F.jpg"  transform="matrix(0.48 0 0 -0.48 400.6375 383.3781)">
			</image>
		</g>
	</g>
</g>
<g>
	<defs>
		<polyline id="SVGID_77_" points="412.9,382.2 412.4,382.2 412.4,230.2 412.9,230.2 412.9,382.2 		"/>
	</defs>
	<clipPath id="SVGID_78_">
		<use xlink:href="#SVGID_77_"  style="overflow:visible;"/>
	</clipPath>
	<g class="st25">
		<defs>
			<rect id="SVGID_79_" x="412.4" y="230.2" width="0.5" height="152"/>
		</defs>
		<clipPath id="SVGID_80_">
			<use xlink:href="#SVGID_79_"  style="overflow:visible;"/>
		</clipPath>
		<g style="clip-path:url(#SVGID_80_);">
			
				<image style="overflow:visible;" width="8" height="321" xlink:href="2DFC52B7366F6EBC.jpg"  transform="matrix(0.48 0 0 -0.48 411.3126 383.3781)">
			</image>
		</g>
	</g>
</g>
<g>
	<defs>
		<polyline id="SVGID_81_" points="423.2,382.2 422.8,382.2 422.8,230.2 423.2,230.2 423.2,382.2 		"/>
	</defs>
	<clipPath id="SVGID_82_">
		<use xlink:href="#SVGID_81_"  style="overflow:visible;"/>
	</clipPath>
	<g class="st26">
		<defs>
			<rect id="SVGID_83_" x="422.8" y="230.2" width="0.5" height="152"/>
		</defs>
		<clipPath id="SVGID_84_">
			<use xlink:href="#SVGID_83_"  style="overflow:visible;"/>
		</clipPath>
		<g style="clip-path:url(#SVGID_84_);">
			
				<image style="overflow:visible;" width="8" height="321" xlink:href="2DFC52B7366F6EBF.jpg"  transform="matrix(0.48 0 0 -0.48 421.5049 383.3781)">
			</image>
		</g>
	</g>
</g>
<g>
	<defs>
		<polyline id="SVGID_85_" points="433.6,382.2 433.2,382.2 433.2,230.2 433.6,230.2 433.6,382.2 		"/>
	</defs>
	<clipPath id="SVGID_86_">
		<use xlink:href="#SVGID_85_"  style="overflow:visible;"/>
	</clipPath>
	<g class="st27">
		<defs>
			<rect id="SVGID_87_" x="433.2" y="230.2" width="0.5" height="152"/>
		</defs>
		<clipPath id="SVGID_88_">
			<use xlink:href="#SVGID_87_"  style="overflow:visible;"/>
		</clipPath>
		<g style="clip-path:url(#SVGID_88_);">
			
				<image style="overflow:visible;" width="8" height="321" xlink:href="2DFC52B7366F6EBD.jpg"  transform="matrix(0.48 0 0 -0.48 432.1799 383.3781)">
			</image>
		</g>
	</g>
</g>
<g>
	<defs>
		<polyline id="SVGID_89_" points="444,382.2 443.5,382.2 443.5,230.2 444,230.2 444,382.2 		"/>
	</defs>
	<clipPath id="SVGID_90_">
		<use xlink:href="#SVGID_89_"  style="overflow:visible;"/>
	</clipPath>
	<g class="st28">
		<defs>
			<rect id="SVGID_91_" x="443.5" y="230.2" width="0.5" height="152"/>
		</defs>
		<clipPath id="SVGID_92_">
			<use xlink:href="#SVGID_91_"  style="overflow:visible;"/>
		</clipPath>
		<g style="clip-path:url(#SVGID_92_);">
			
				<image style="overflow:visible;" width="8" height="321" xlink:href="2DFC52B7366F6EB3.jpg"  transform="matrix(0.48 0 0 -0.48 442.3723 383.3781)">
			</image>
		</g>
	</g>
</g>
<g>
	<defs>
		<polyline id="SVGID_93_" points="454.4,382.2 453.9,382.2 453.9,230.2 454.4,230.2 454.4,382.2 		"/>
	</defs>
	<clipPath id="SVGID_94_">
		<use xlink:href="#SVGID_93_"  style="overflow:visible;"/>
	</clipPath>
	<g class="st29">
		<defs>
			<rect id="SVGID_95_" x="453.9" y="230.2" width="0.5" height="152"/>
		</defs>
		<clipPath id="SVGID_96_">
			<use xlink:href="#SVGID_95_"  style="overflow:visible;"/>
		</clipPath>
		<g style="clip-path:url(#SVGID_96_);">
			
				<image style="overflow:visible;" width="8" height="321" xlink:href="2DFC52B7366F6EB4.jpg"  transform="matrix(0.48 0 0 -0.48 452.5674 383.3781)">
			</image>
		</g>
	</g>
</g>
<g>
	<defs>
		<polyline id="SVGID_97_" points="464.7,382.2 464.3,382.2 464.3,230.2 464.7,230.2 464.7,382.2 		"/>
	</defs>
	<clipPath id="SVGID_98_">
		<use xlink:href="#SVGID_97_"  style="overflow:visible;"/>
	</clipPath>
	<g class="st30">
		<defs>
			<rect id="SVGID_99_" x="464.3" y="230.2" width="0.5" height="152"/>
		</defs>
		<clipPath id="SVGID_100_">
			<use xlink:href="#SVGID_99_"  style="overflow:visible;"/>
		</clipPath>
		<g style="clip-path:url(#SVGID_100_);">
			
				<image style="overflow:visible;" width="8" height="321" xlink:href="2DFC52B7366F6EB7.jpg"  transform="matrix(0.48 0 0 -0.48 463.2397 383.3781)">
			</image>
		</g>
	</g>
</g>
<g>
	<defs>
		<polyline id="SVGID_101_" points="475.1,382.2 474.6,382.2 474.6,230.2 475.1,230.2 475.1,382.2 		"/>
	</defs>
	<clipPath id="SVGID_102_">
		<use xlink:href="#SVGID_101_"  style="overflow:visible;"/>
	</clipPath>
	<g class="st31">
		<defs>
			<rect id="SVGID_103_" x="474.6" y="230.2" width="0.5" height="152"/>
		</defs>
		<clipPath id="SVGID_104_">
			<use xlink:href="#SVGID_103_"  style="overflow:visible;"/>
		</clipPath>
		<g style="clip-path:url(#SVGID_104_);">
			
				<image style="overflow:visible;" width="8" height="321" xlink:href="2DFC52B7366F6EB5.jpg"  transform="matrix(0.48 0 0 -0.48 473.4348 383.3781)">
			</image>
		</g>
	</g>
</g>
<g>
	<defs>
		<polyline id="SVGID_105_" points="485.5,382.2 485,382.2 485,230.2 485.5,230.2 485.5,382.2 		"/>
	</defs>
	<clipPath id="SVGID_106_">
		<use xlink:href="#SVGID_105_"  style="overflow:visible;"/>
	</clipPath>
	<g class="st32">
		<defs>
			<rect id="SVGID_107_" x="485" y="230.2" width="0.5" height="152"/>
		</defs>
		<clipPath id="SVGID_108_">
			<use xlink:href="#SVGID_107_"  style="overflow:visible;"/>
		</clipPath>
		<g style="clip-path:url(#SVGID_108_);">
			
				<image style="overflow:visible;" width="8" height="321" xlink:href="2DFC52B7366F6EB2.jpg"  transform="matrix(0.48 0 0 -0.48 483.6298 383.3781)">
			</image>
		</g>
	</g>
</g>
<g>
	<defs>
		<polyline id="SVGID_109_" points="495.8,382.2 495.4,382.2 495.4,230.2 495.8,230.2 495.8,382.2 		"/>
	</defs>
	<clipPath id="SVGID_110_">
		<use xlink:href="#SVGID_109_"  style="overflow:visible;"/>
	</clipPath>
	<g class="st33">
		<defs>
			<rect id="SVGID_111_" x="495.4" y="230.2" width="0.5" height="152"/>
		</defs>
		<clipPath id="SVGID_112_">
			<use xlink:href="#SVGID_111_"  style="overflow:visible;"/>
		</clipPath>
		<g style="clip-path:url(#SVGID_112_);">
			
				<image style="overflow:visible;" width="8" height="321" xlink:href="2DFC52B7366F6EAC.jpg"  transform="matrix(0.48 0 0 -0.48 494.3021 383.3781)">
			</image>
		</g>
	</g>
</g>
<g>
	<defs>
		<polyline id="SVGID_113_" points="506.2,382.2 505.8,382.2 505.8,230.2 506.2,230.2 506.2,382.2 		"/>
	</defs>
	<clipPath id="SVGID_114_">
		<use xlink:href="#SVGID_113_"  style="overflow:visible;"/>
	</clipPath>
	<g class="st34">
		<defs>
			<rect id="SVGID_115_" x="505.8" y="230.2" width="0.5" height="152"/>
		</defs>
		<clipPath id="SVGID_116_">
			<use xlink:href="#SVGID_115_"  style="overflow:visible;"/>
		</clipPath>
		<g style="clip-path:url(#SVGID_116_);">
			
				<image style="overflow:visible;" width="8" height="321" xlink:href="2DFC52B7366F6EAF.jpg"  transform="matrix(0.48 0 0 -0.48 504.4972 383.3781)">
			</image>
		</g>
	</g>
</g>
<g>
	<defs>
		<polyline id="SVGID_117_" points="516.6,382.2 516.1,382.2 516.1,230.2 516.6,230.2 516.6,382.2 		"/>
	</defs>
	<clipPath id="SVGID_118_">
		<use xlink:href="#SVGID_117_"  style="overflow:visible;"/>
	</clipPath>
	<g class="st35">
		<defs>
			<rect id="SVGID_119_" x="516.1" y="230.2" width="0.5" height="152"/>
		</defs>
		<clipPath id="SVGID_120_">
			<use xlink:href="#SVGID_119_"  style="overflow:visible;"/>
		</clipPath>
		<g style="clip-path:url(#SVGID_120_);">
			
				<image style="overflow:visible;" width="8" height="321" xlink:href="2DFC52B7366F6ED3.jpg"  transform="matrix(0.48 0 0 -0.48 515.1694 383.3781)">
			</image>
		</g>
	</g>
</g>
<g>
	<defs>
		<polyline id="SVGID_121_" points="527,382.2 526.5,382.2 526.5,230.2 527,230.2 527,382.2 		"/>
	</defs>
	<clipPath id="SVGID_122_">
		<use xlink:href="#SVGID_121_"  style="overflow:visible;"/>
	</clipPath>
	<g class="st36">
		<defs>
			<rect id="SVGID_123_" x="526.5" y="230.2" width="0.5" height="152"/>
		</defs>
		<clipPath id="SVGID_124_">
			<use xlink:href="#SVGID_123_"  style="overflow:visible;"/>
		</clipPath>
		<g style="clip-path:url(#SVGID_124_);">
			
				<image style="overflow:visible;" width="8" height="321" xlink:href="2DFC52B7366F6ED1.jpg"  transform="matrix(0.48 0 0 -0.48 525.3646 383.3781)">
			</image>
		</g>
	</g>
</g>
<g>
	<defs>
		<polyline id="SVGID_125_" points="537.3,382.2 536.9,382.2 536.9,230.2 537.3,230.2 537.3,382.2 		"/>
	</defs>
	<clipPath id="SVGID_126_">
		<use xlink:href="#SVGID_125_"  style="overflow:visible;"/>
	</clipPath>
	<g class="st37">
		<defs>
			<rect id="SVGID_127_" x="536.9" y="230.2" width="0.5" height="152"/>
		</defs>
		<clipPath id="SVGID_128_">
			<use xlink:href="#SVGID_127_"  style="overflow:visible;"/>
		</clipPath>
		<g style="clip-path:url(#SVGID_128_);">
			
				<image style="overflow:visible;" width="8" height="321" xlink:href="2DFC52B7366F6EEF.jpg"  transform="matrix(0.48 0 0 -0.48 535.5569 383.3781)">
			</image>
		</g>
	</g>
</g>
<g>
	<defs>
		<polyline id="SVGID_129_" points="547.7,382.2 547.2,382.2 547.2,230.2 547.7,230.2 547.7,382.2 		"/>
	</defs>
	<clipPath id="SVGID_130_">
		<use xlink:href="#SVGID_129_"  style="overflow:visible;"/>
	</clipPath>
	<g class="st38">
		<defs>
			<rect id="SVGID_131_" x="547.2" y="230.2" width="0.5" height="152"/>
		</defs>
		<clipPath id="SVGID_132_">
			<use xlink:href="#SVGID_131_"  style="overflow:visible;"/>
		</clipPath>
		<g style="clip-path:url(#SVGID_132_);">
			
				<image style="overflow:visible;" width="8" height="321" xlink:href="2DFC52B7366F6EF1.jpg"  transform="matrix(0.48 0 0 -0.48 546.2321 383.3781)">
			</image>
		</g>
	</g>
</g>
<g>
	<defs>
		<polyline id="SVGID_133_" points="558.1,382.2 557.6,382.2 557.6,230.2 558.1,230.2 558.1,382.2 		"/>
	</defs>
	<clipPath id="SVGID_134_">
		<use xlink:href="#SVGID_133_"  style="overflow:visible;"/>
	</clipPath>
	<g class="st39">
		<defs>
			<rect id="SVGID_135_" x="557.6" y="230.2" width="0.5" height="152"/>
		</defs>
		<clipPath id="SVGID_136_">
			<use xlink:href="#SVGID_135_"  style="overflow:visible;"/>
		</clipPath>
		<g style="clip-path:url(#SVGID_136_);">
			
				<image style="overflow:visible;" width="8" height="321" xlink:href="2DFC52B7366F6EF3.jpg"  transform="matrix(0.48 0 0 -0.48 556.4269 383.3781)">
			</image>
		</g>
	</g>
</g>
<g>
	<defs>
		<polyline id="SVGID_137_" points="568.5,382.2 568,382.2 568,230.2 568.5,230.2 568.5,382.2 		"/>
	</defs>
	<clipPath id="SVGID_138_">
		<use xlink:href="#SVGID_137_"  style="overflow:visible;"/>
	</clipPath>
	<g class="st40">
		<defs>
			<rect id="SVGID_139_" x="568" y="230.2" width="0.5" height="152"/>
		</defs>
		<clipPath id="SVGID_140_">
			<use xlink:href="#SVGID_139_"  style="overflow:visible;"/>
		</clipPath>
		<g style="clip-path:url(#SVGID_140_);">
			
				<image style="overflow:visible;" width="8" height="321" xlink:href="2DFC52B7366F6EF6.jpg"  transform="matrix(0.48 0 0 -0.48 566.6194 383.3781)">
			</image>
		</g>
	</g>
</g>
<g>
	<defs>
		<polyline id="SVGID_141_" points="578.8,382.2 578.4,382.2 578.4,230.2 578.8,230.2 578.8,382.2 		"/>
	</defs>
	<clipPath id="SVGID_142_">
		<use xlink:href="#SVGID_141_"  style="overflow:visible;"/>
	</clipPath>
	<g class="st41">
		<defs>
			<rect id="SVGID_143_" x="578.4" y="230.2" width="0.5" height="152"/>
		</defs>
		<clipPath id="SVGID_144_">
			<use xlink:href="#SVGID_143_"  style="overflow:visible;"/>
		</clipPath>
		<g style="clip-path:url(#SVGID_144_);">
			
				<image style="overflow:visible;" width="8" height="321" xlink:href="2DFC52B7366F6EF7.jpg"  transform="matrix(0.48 0 0 -0.48 577.2943 383.3781)">
			</image>
		</g>
	</g>
</g>
<g>
	<defs>
		<polyline id="SVGID_145_" points="589.2,382.2 588.7,382.2 588.7,230.2 589.2,230.2 589.2,382.2 		"/>
	</defs>
	<clipPath id="SVGID_146_">
		<use xlink:href="#SVGID_145_"  style="overflow:visible;"/>
	</clipPath>
	<g class="st42">
		<defs>
			<rect id="SVGID_147_" x="588.7" y="230.2" width="0.5" height="152"/>
		</defs>
		<clipPath id="SVGID_148_">
			<use xlink:href="#SVGID_147_"  style="overflow:visible;"/>
		</clipPath>
		<g style="clip-path:url(#SVGID_148_);">
			
				<image style="overflow:visible;" width="8" height="321" xlink:href="2DFC52B7366F6EF2.jpg"  transform="matrix(0.48 0 0 -0.48 587.4867 383.3781)">
			</image>
		</g>
	</g>
</g>
<g>
	<defs>
		<polyline id="SVGID_149_" points="599.6,382.2 599.1,382.2 599.1,230.2 599.6,230.2 599.6,382.2 		"/>
	</defs>
	<clipPath id="SVGID_150_">
		<use xlink:href="#SVGID_149_"  style="overflow:visible;"/>
	</clipPath>
	<g class="st43">
		<defs>
			<rect id="SVGID_151_" x="599.1" y="230.2" width="0.5" height="152"/>
		</defs>
		<clipPath id="SVGID_152_">
			<use xlink:href="#SVGID_151_"  style="overflow:visible;"/>
		</clipPath>
		<g style="clip-path:url(#SVGID_152_);">
			
				<image style="overflow:visible;" width="8" height="321" xlink:href="2DFC52B7366F6EFD.jpg"  transform="matrix(0.48 0 0 -0.48 597.6818 383.3781)">
			</image>
		</g>
	</g>
</g>
<g>
	<defs>
		<polyline id="SVGID_153_" points="609.9,382.2 609.5,382.2 609.5,230.2 609.9,230.2 609.9,382.2 		"/>
	</defs>
	<clipPath id="SVGID_154_">
		<use xlink:href="#SVGID_153_"  style="overflow:visible;"/>
	</clipPath>
	<g class="st44">
		<defs>
			<rect id="SVGID_155_" x="609.5" y="230.2" width="0.5" height="152"/>
		</defs>
		<clipPath id="SVGID_156_">
			<use xlink:href="#SVGID_155_"  style="overflow:visible;"/>
		</clipPath>
		<g style="clip-path:url(#SVGID_156_);">
			
				<image style="overflow:visible;" width="8" height="321" xlink:href="2DFC52B7366F6EFE.jpg"  transform="matrix(0.48 0 0 -0.48 608.3541 383.3781)">
			</image>
		</g>
	</g>
</g>
<g>
	<defs>
		<polyline id="SVGID_157_" points="620.3,382.2 619.9,382.2 619.9,230.2 620.3,230.2 620.3,382.2 		"/>
	</defs>
	<clipPath id="SVGID_158_">
		<use xlink:href="#SVGID_157_"  style="overflow:visible;"/>
	</clipPath>
	<g class="st45">
		<defs>
			<rect id="SVGID_159_" x="619.9" y="230.2" width="0.5" height="152"/>
		</defs>
		<clipPath id="SVGID_160_">
			<use xlink:href="#SVGID_159_"  style="overflow:visible;"/>
		</clipPath>
		<g style="clip-path:url(#SVGID_160_);">
			
				<image style="overflow:visible;" width="8" height="321" xlink:href="2DFC52B7366F6EDA.jpg"  transform="matrix(0.48 0 0 -0.48 618.5492 383.3781)">
			</image>
		</g>
	</g>
</g>
<g>
	<defs>
		<polyline id="SVGID_161_" points="630.7,382.2 630.2,382.2 630.2,230.2 630.7,230.2 630.7,382.2 		"/>
	</defs>
	<clipPath id="SVGID_162_">
		<use xlink:href="#SVGID_161_"  style="overflow:visible;"/>
	</clipPath>
	<g class="st46">
		<defs>
			<rect id="SVGID_163_" x="630.2" y="230.2" width="0.5" height="152"/>
		</defs>
		<clipPath id="SVGID_164_">
			<use xlink:href="#SVGID_163_"  style="overflow:visible;"/>
		</clipPath>
		<g style="clip-path:url(#SVGID_164_);">
			
				<image style="overflow:visible;" width="8" height="321" xlink:href="2DFC52B7366F6ED9.jpg"  transform="matrix(0.48 0 0 -0.48 629.224 383.3781)">
			</image>
		</g>
	</g>
</g>
<text transform="matrix(1 0 0 1 309.09 288.3926)" class="st1 st4 st47">Gr</text>
<text transform="matrix(1 0 0 1 321.879 288.3926)" class="st1 st4 st47">ow</text>
<text transform="matrix(1 0 0 1 337.4103 288.3926)" class="st1 st4 st47">th</text>
<text transform="matrix(1 0 0 1 226.4025 273.5879)" class="st1 st4 st47">Fo</text>
<text transform="matrix(1 0 0 1 239.4103 273.5879)" class="st1 st4 st47">cuse</text>
<text transform="matrix(1 0 0 1 262.5197 273.5879)" class="st1 st4 st47">d</text>
<text transform="matrix(1 0 0 1 394.0353 305.0488)" class="st1 st4 st47">Moderat</text>
<text transform="matrix(1 0 0 1 438.1759 305.0488)" class="st1 st4 st47">e</text>
<text transform="matrix(1 0 0 1 472.6525 321.7207)" class="st1 st4 st47">Conser</text>
<text transform="matrix(1 0 0 1 509.2618 321.7207)" class="st1 st4 st47">va</text>
<text transform="matrix(1 0 0 1 520.7853 321.7207)" class="st1 st4 st47">ti</text>
<text transform="matrix(1 0 0 1 527.504 321.7207)" class="st1 st4 st47">ve</text>
<text transform="matrix(1 0 0 1 563.2384 337.4551)" class="st1 st4 st47">Conser</text>
<text transform="matrix(1 0 0 1 599.8478 337.4551)" class="st1 st4 st47">va</text>
<text transform="matrix(1 0 0 1 611.379 337.4551)" class="st1 st4 st47">ti</text>
<text transform="matrix(1 0 0 1 618.0509 337.4551)" class="st1 st4 st47">on</text>
<text transform="matrix(1 0 0 1 586.795 348.8223)" class="st1 st4 st47">Plus</text>
<path class="st1" d="M345.7,241.3c-4.2-5.7-10.2-8.8-17.3-8.8v8.2c4.4,0,8.1,1.9,10.7,5.5L345.7,241.3L345.7,241.3z"/>
<path class="st0" d="M345.7,241.3l0.9-0.7c-2.2-3-4.9-5.3-8-6.9c-3.1-1.6-6.6-2.4-10.3-2.4h-1.1v10.5h1.1c2,0,3.9,0.4,5.5,1.3
	c1.6,0.8,3.1,2.1,4.3,3.7l0.7,0.9l8.5-6.2l-0.7-0.9L345.7,241.3l-0.7-0.9l-6.6,4.8l0.7,0.9l0.9-0.7c-1.4-1.9-3.1-3.4-5.1-4.4
	c-2-1-4.2-1.5-6.6-1.5v1.1h1.1v-8.2h-1.1v1.1c3.4,0,6.5,0.7,9.2,2.1c2.8,1.4,5.2,3.5,7.2,6.2L345.7,241.3l-0.7-0.9L345.7,241.3
	L345.7,241.3z"/>
<path class="st48" d="M349.8,253.8c0-4.7-1.3-8.8-4.1-12.6l-6.6,4.8c1.7,2.4,2.5,4.9,2.5,7.8c0,7.3-5.9,13.2-13.2,13.2
	c-7.3,0-13.2-5.9-13.2-13.2c0-7.3,5.9-13.2,13.2-13.2v-8.2c-11.8,0-21.4,9.6-21.4,21.4c0,11.8,9.6,21.4,21.4,21.4
	S349.8,265.7,349.8,253.8L349.8,253.8z"/>
<path class="st0" d="M349.8,253.8h1.1c0-4.9-1.4-9.3-4.3-13.3l-0.7-0.9l-8.5,6.2l0.7,0.9c1.6,2.2,2.3,4.4,2.3,7.1
	c0,3.3-1.4,6.4-3.5,8.6c-2.2,2.2-5.2,3.5-8.6,3.5c-3.3,0-6.4-1.4-8.6-3.5c-2.2-2.2-3.5-5.2-3.5-8.6c0-3.3,1.4-6.4,3.5-8.6
	c2.2-2.2,5.2-3.5,8.6-3.5h1.1v-10.5h-1.1c-12.5,0-22.6,10.1-22.6,22.6c0,12.5,10.1,22.6,22.6,22.6s22.6-10.1,22.6-22.6H349.8h-1.1
	c0,5.6-2.3,10.7-5.9,14.3c-3.7,3.7-8.7,5.9-14.3,5.9c-5.6,0-10.7-2.3-14.3-5.9c-3.7-3.7-5.9-8.7-5.9-14.3c0-5.6,2.3-10.7,5.9-14.3
	c3.7-3.7,8.7-5.9,14.3-5.9v-1.1h-1.1v8.2h1.1v-1.1c-7.9,0-14.4,6.4-14.4,14.4c0,7.9,6.4,14.4,14.4,14.4c7.9,0,14.4-6.4,14.4-14.4
	c0-3.1-0.9-5.9-2.7-8.5l-0.9,0.7l0.7,0.9l6.6-4.8l-0.7-0.9l-0.9,0.7c2.7,3.7,3.9,7.4,3.9,11.9H349.8L349.8,253.8z"/>
<path class="st48" d="M269.3,239.1c0-4.7-1.3-8.8-4.1-12.6c-4.2-5.7-10.2-8.8-17.3-8.8c-11.8,0-21.4,9.6-21.4,21.4
	s9.6,21.4,21.4,21.4C259.7,260.5,269.3,250.9,269.3,239.1L269.3,239.1z"/>
<path class="st0" d="M269.3,239.1h1.1c0-4.9-1.4-9.3-4.3-13.3c-2.2-3-4.9-5.3-8-6.9c-3.1-1.6-6.6-2.4-10.3-2.4
	c-12.5,0-22.6,10.1-22.6,22.6c0,12.5,10.1,22.6,22.6,22.6c12.5,0,22.6-10.1,22.6-22.6H269.3h-1.1c0,5.6-2.3,10.7-5.9,14.3
	c-3.7,3.7-8.7,5.9-14.3,5.9c-5.6,0-10.7-2.3-14.3-5.9c-3.7-3.7-5.9-8.7-5.9-14.3c0-5.6,2.3-10.7,5.9-14.3c3.7-3.7,8.7-5.9,14.3-5.9
	c3.4,0,6.5,0.7,9.2,2.1c2.8,1.4,5.2,3.5,7.2,6.2c2.7,3.7,3.9,7.4,3.9,11.9H269.3L269.3,239.1z"/>
<path class="st0" d="M261.1,239.1c0-2.9-0.8-5.4-2.5-7.8c-2.6-3.5-6.3-5.5-10.7-5.5c-7.3,0-13.2,5.9-13.2,13.2
	c0,7.3,5.9,13.2,13.2,13.2C255.2,252.3,261.1,246.4,261.1,239.1L261.1,239.1z"/>
<path class="st0" d="M261.1,239.1h1.2c0-3.1-0.9-5.9-2.8-8.5c-1.4-1.9-3.1-3.4-5.1-4.4c-2-1-4.2-1.5-6.6-1.5
	c-8,0-14.4,6.4-14.4,14.4c0,8,6.4,14.4,14.4,14.4c8,0,14.4-6.4,14.4-14.4H261.1h-1.2c0,3.3-1.3,6.3-3.5,8.5
	c-2.2,2.2-5.2,3.5-8.5,3.5c-3.3,0-6.3-1.3-8.5-3.5c-2.2-2.2-3.5-5.2-3.5-8.5c0-3.3,1.3-6.3,3.5-8.5c2.2-2.2,5.2-3.5,8.5-3.5
	c2,0,3.9,0.4,5.5,1.3c1.6,0.8,3.1,2.1,4.3,3.7c1.6,2.2,2.3,4.4,2.3,7.1H261.1L261.1,239.1z"/>
<path class="st1" d="M431.8,253.2c-3.8-2.8-7.9-4.1-12.6-4.1v8.2l0,0c4.4,0,8.1,1.9,10.7,5.5c1.7,2.4,2.5,4.9,2.5,7.8
	c0,2.9-0.9,5.6-2.5,7.8l6.6,4.8C443.5,273.5,441.4,260.1,431.8,253.2L431.8,253.2z"/>
<path class="st0" d="M431.8,253.2l0.7-0.9c-4-2.9-8.3-4.3-13.3-4.3h-1.1v10.5h1.1c2,0,3.9,0.4,5.5,1.3c1.6,0.8,3.1,2.1,4.3,3.7
	c1.6,2.2,2.3,4.4,2.3,7.1c0,2.7-0.9,5.1-2.3,7.1l-0.7,0.9l8.5,6.2l0.7-0.9c2.9-4,4.3-8.7,4.3-13.3c0-7-3.2-13.9-9.3-18.3
	L431.8,253.2l-0.7,0.9c5.5,4,8.4,10.2,8.4,16.4c0,4.1-1.2,8.3-3.9,11.9l0.9,0.7l0.7-0.9l-6.6-4.8l-0.7,0.9l0.9,0.7
	c1.7-2.4,2.8-5.3,2.8-8.4c0-3.1-0.9-5.9-2.7-8.5c-1.4-1.9-3.1-3.4-5.1-4.4c-2-1-4.2-1.5-6.6-1.5l0,0v1.1h1.1v-8.2h-1.1v1.1
	c4.5,0,8.3,1.2,11.9,3.9L431.8,253.2L431.8,253.2z"/>
<path class="st48" d="M419.2,257.3v-8.2c-11.8,0-21.4,9.6-21.4,21.4c0,11.8,9.6,21.4,21.4,21.4c7.1,0,13.2-3.1,17.3-8.8l-6.6-4.8
	c-2.4,3.3-6.3,5.5-10.7,5.5c-7.3,0-13.2-5.9-13.2-13.2C406,263.2,411.9,257.3,419.2,257.3L419.2,257.3z"/>
<path class="st0" d="M419.2,257.3h1.1v-9.3h-1.1c-12.5,0-22.6,10.1-22.6,22.6c0,12.5,10.1,22.6,22.6,22.6c3.7,0,7.2-0.8,10.3-2.4
	c3.1-1.6,5.8-3.9,8-6.9l0.7-0.9l-8.5-6.2l-0.7,0.9c-2.2,3-5.8,5-9.8,5c-3.3,0-6.4-1.4-8.5-3.5c-2.2-2.2-3.5-5.2-3.5-8.6
	c0-3.3,1.4-6.4,3.5-8.6c2.2-2.2,5.2-3.5,8.5-3.5h1.1v-1.1H419.2v-1.1c-8,0-14.4,6.4-14.4,14.4c0,7.9,6.4,14.4,14.4,14.4
	c4.8,0,9-2.3,11.6-5.9l-0.9-0.7l-0.7,0.9l6.6,4.8l0.7-0.9l-0.9-0.7c-2,2.7-4.4,4.8-7.2,6.2c-2.8,1.4-5.9,2.1-9.2,2.1
	c-5.6,0-10.7-2.3-14.3-5.9c-3.7-3.7-5.9-8.7-5.9-14.3c0-5.6,2.3-10.7,5.9-14.3c3.7-3.7,8.7-5.9,14.3-5.9v-1.1h-1.1v8.2H419.2v-1.1
	V257.3L419.2,257.3z"/>
<path class="st1" d="M518.5,269.8c-3.8-2.8-7.9-4.1-12.6-4.1v8.2l0,0c4.4,0,8.1,1.9,10.7,5.5c1.7,2.4,2.5,4.9,2.5,7.8
	c0,7.3-5.9,13.2-13.2,13.2c-2.9,0-5.6-0.9-7.8-2.5l-4.8,6.6c9.6,7,23,4.8,29.9-4.7C530.2,290.2,528.1,276.8,518.5,269.8L518.5,269.8
	z"/>
<path class="st0" d="M518.5,269.8l0.7-0.9c-4-2.9-8.3-4.3-13.3-4.3h-1.2v10.5h1.2c2,0,3.9,0.4,5.5,1.3c1.6,0.8,3.1,2.1,4.3,3.7
	c1.6,2.2,2.3,4.4,2.3,7.1c0,3.3-1.3,6.4-3.5,8.6c-2.2,2.2-5.2,3.5-8.5,3.5c-2.7,0-5.1-0.9-7.1-2.3l-0.9-0.7l-6.2,8.5l0.9,0.7
	c4,2.9,8.7,4.3,13.2,4.3c7,0,13.9-3.2,18.3-9.3c2.9-4,4.3-8.7,4.3-13.3c0-7-3.2-13.9-9.3-18.3L518.5,269.8l-0.7,0.9
	c5.5,4,8.4,10.2,8.4,16.4c0,4.1-1.3,8.3-3.9,11.9c-4,5.5-10.1,8.4-16.4,8.4c-4.1,0-8.3-1.3-11.9-3.9l-0.7,0.9l0.9,0.7l4.8-6.6
	l-0.9-0.7l-0.7,0.9c2.4,1.7,5.3,2.8,8.5,2.8c7.9,0,14.4-6.4,14.4-14.4c0-3.1-0.9-5.9-2.7-8.5c-1.4-1.9-3.1-3.4-5.1-4.4
	c-2-1-4.2-1.5-6.5-1.5l0,0v1.1h1.1v-8.2h-1.1v1.1c4.5,0,8.3,1.2,11.9,3.9L518.5,269.8L518.5,269.8z"/>
<path class="st48" d="M505.9,273.9v-8.2c-11.8,0-21.4,9.6-21.4,21.4c0,7.1,3.1,13.2,8.8,17.3l4.8-6.6c-3.3-2.4-5.5-6.3-5.5-10.7
	C492.7,279.9,498.6,273.9,505.9,273.9L505.9,273.9z"/>
<path class="st0" d="M505.9,273.9h1.1v-9.3h-1.1c-12.5,0-22.6,10.1-22.6,22.6c0,3.7,0.8,7.2,2.4,10.3c1.6,3.1,3.9,5.8,6.9,8l0.9,0.7
	l6.2-8.5l-0.9-0.7c-3-2.2-5-5.8-5-9.8c0-3.3,1.4-6.4,3.5-8.5c2.2-2.2,5.2-3.5,8.6-3.5h1.1v-1.1H505.9v-1.1c-8,0-14.4,6.4-14.4,14.4
	c0,4.8,2.3,9,5.9,11.6l0.7-0.9l-0.9-0.7l-4.8,6.6l0.9,0.7l0.7-0.9c-2.7-2-4.8-4.4-6.2-7.2c-1.4-2.8-2.1-5.9-2.1-9.2
	c0-5.6,2.3-10.7,5.9-14.3c3.7-3.7,8.7-5.9,14.4-5.9v-1.1h-1.2v8.2H505.9v-1.1V273.9L505.9,273.9z"/>
<path class="st1" d="M603.7,282.5c-2.2-0.7-4.2-1-6.6-1v8.2c4.4,0,8.1,1.9,10.7,5.5c1.7,2.4,2.5,4.9,2.5,7.8
	c0,7.3-5.9,13.2-13.2,13.2c-7.3,0-13.2-5.9-13.2-13.2c0-1.4,0.2-2.8,0.6-4.1l-7.8-2.5c-3.7,11.3,2.5,23.3,13.8,27
	c11.2,3.7,23.3-2.5,27-13.8C621.1,298.3,615,286.2,603.7,282.5L603.7,282.5z"/>
<path class="st0" d="M603.7,282.5l0.4-1.1c-2.3-0.8-4.5-1.1-7-1.1h-1.2v10.5h1.2c2,0,3.9,0.4,5.5,1.3c1.6,0.8,3.1,2.1,4.3,3.7
	c1.6,2.2,2.3,4.4,2.3,7.1c0,3.3-1.4,6.4-3.5,8.6c-2.2,2.2-5.2,3.5-8.6,3.5c-3.3,0-6.4-1.4-8.6-3.5c-2.2-2.2-3.5-5.2-3.5-8.6
	c0-1.3,0.2-2.6,0.6-3.7l0.4-1.1l-10-3.2l-0.3,1.1c-0.8,2.3-1.1,4.7-1.1,7c0,9.5,6.1,18.4,15.6,21.5c2.3,0.8,4.7,1.1,7,1.1
	c9.5,0,18.4-6.1,21.5-15.6c0.8-2.3,1.1-4.7,1.1-7c0-9.5-6.1-18.4-15.6-21.5L603.7,282.5l-0.3,1.1c8.6,2.8,14,10.7,14,19.3
	c0,2.1-0.3,4.2-1,6.3c-2.8,8.6-10.7,14-19.3,14c-2.1,0-4.2-0.3-6.3-1c-8.6-2.8-14-10.7-14-19.3c0-2.1,0.3-4.2,1-6.3l-1.1-0.4
	l-0.4,1.1l7.8,2.5l0.3-1.1l-1.1-0.4c-0.4,1.4-0.7,2.9-0.7,4.4c0,7.9,6.4,14.4,14.4,14.4c7.9,0,14.4-6.4,14.4-14.4
	c0-3.1-0.9-5.9-2.7-8.5c-1.4-1.9-3.1-3.4-5.1-4.4c-2-1-4.2-1.5-6.6-1.5v1.1h1.2v-8.2h-1.2v1.1c2.3,0,4.1,0.3,6.3,1L603.7,282.5
	L603.7,282.5z"/>
<path class="st48" d="M597.1,289.7v-8.2c-9.5,0-17.5,5.8-20.4,14.8l7.8,2.5C586.2,293.5,591.2,289.7,597.1,289.7L597.1,289.7z"/>
<path class="st0" d="M597.1,289.7h1.2v-9.3h-1.2c-5,0-9.6,1.5-13.3,4.2c-3.7,2.7-6.6,6.6-8.2,11.4l-0.4,1.1l10,3.2l0.3-1.1
	c1.6-4.8,6.1-8.4,11.5-8.4h1.2v-1.1H597.1v-1.1c-6.4,0-11.8,4.2-13.7,9.9l1.1,0.4l0.4-1.1l-7.8-2.5l-0.4,1.1l1.1,0.4
	c1.4-4.3,4-7.8,7.3-10.2c3.3-2.4,7.5-3.8,12-3.8v-1.1h-1.2v8.2H597.1v-1.1V289.7L597.1,289.7z"/>
<text transform="matrix(1 0 0 1 309.0587 299.5176)" class="st48 st49 st50">85%</text>
<text transform="matrix(1 0 0 1 324.6603 299.5176)" class="st48 st51 st50"> Equity</text>
<text transform="matrix(1 0 0 1 297.0665 309.7676)" class="st1 st49 st50">15%</text>
<text transform="matrix(1 0 0 1 312.6681 309.7676)" class="st1 st51 st50"> Fixed Incom</text>
<text transform="matrix(1 0 0 1 355.5743 309.7676)" class="st1 st51 st50">e</text>
<text transform="matrix(1 0 0 1 400.3712 316.1738)" class="st48 st49 st50">65%</text>
<text transform="matrix(1 0 0 1 415.9728 316.1738)" class="st48 st51 st50"> Equity</text>
<text transform="matrix(1 0 0 1 388.3868 326.4395)" class="st1 st49 st50">35%</text>
<text transform="matrix(1 0 0 1 403.9884 326.4395)" class="st1 st51 st50"> Fixed Incom</text>
<text transform="matrix(1 0 0 1 446.8868 326.4395)" class="st1 st51 st50">e</text>
<text transform="matrix(1 0 0 1 486.5822 332.8457)" class="st48 st49 st50">40%</text>
<text transform="matrix(1 0 0 1 502.1837 332.8457)" class="st48 st51 st50"> Equity</text>
<text transform="matrix(1 0 0 1 474.5978 343.0957)" class="st1 st49 st50">60%</text>
<text transform="matrix(1 0 0 1 490.2072 343.0957)" class="st1 st51 st50"> Fixed Incom</text>
<text transform="matrix(1 0 0 1 533.0978 343.0957)" class="st1 st51 st50">e</text>
<text transform="matrix(1 0 0 1 576.6134 358.5801)" class="st48 st49 st50">20%</text>
<text transform="matrix(1 0 0 1 592.215 358.5801)" class="st48 st51 st50"> Equity</text>
<text transform="matrix(1 0 0 1 564.629 368.8301)" class="st1 st49 st50">80%</text>
<text transform="matrix(1 0 0 1 580.2306 368.8301)" class="st1 st51 st50"> Fixed Incom</text>
<text transform="matrix(1 0 0 1 623.129 368.8301)" class="st1 st51 st50">e</text>
<text transform="matrix(1 0 0 1 226.3165 284.7051)" class="st48 st49 st50">100%</text>
<text transform="matrix(1 0 0 1 246.34 284.7051)" class="st48 st51 st50"> Equity</text>
<polyline class="st48" points="496.3,383.1 639.6,383.1 639.6,381.2 496.3,381.2 "/>
<polygon class="st48" points="634,378.3 638.2,382.2 634,386.1 635.3,387.5 640.9,382.2 635.3,376.9 634,378.3 "/>
<polyline class="st48" points="206,383.1 345,383.1 345,381.2 206,381.2 "/>
<polygon class="st48" points="211.6,386.1 207.4,382.2 211.6,378.3 210.4,376.9 204.7,382.2 210.4,387.5 211.6,386.1 "/>
<polygon class="st48" points="419.7,367.5 409.7,378.8 429.7,378.8 419.7,367.5 "/>
<polygon class="st0" points="490.7,437.3 490.7,374.9 349.4,374.9 349.4,437.3 490.7,437.3 "/>
<polygon class="st48" points="490.7,437.3 491.8,437.3 491.8,373.8 348.3,373.8 348.3,438.4 491.8,438.4 491.8,437.3 490.7,437.3 
	490.7,436.2 350.5,436.2 350.5,376 489.6,376 489.6,437.3 490.7,437.3 490.7,436.2 490.7,437.3 "/>
<text transform="matrix(1 0 0 1 369.1837 393.7441)" class="st48 st2 st52">Choose a po</text>
<text transform="matrix(1 0 0 1 437.9259 393.7441)" class="st48 st2 st52">rt</text>
<text transform="matrix(1 0 0 1 446.8712 393.7441)" class="st48 st2 st52">foli</text>
<text transform="matrix(1 0 0 1 463.0197 393.7441)" class="st48 st2 st52">o </text>
<text transform="matrix(1 0 0 1 361.3243 407.1895)" class="st48 st2 st52">th</text>
<text transform="matrix(1 0 0 1 372.0118 407.1895)" class="st48 st2 st52">at ma</text>
<text transform="matrix(1 0 0 1 401.9415 407.1895)" class="st48 st2 st52">tc</text>
<text transform="matrix(1 0 0 1 411.7335 407.1895)" class="st48 st2 st52">hes your risk</text>
<text transform="matrix(1 0 0 1 478.0743 407.1895)" class="st48 st2 st52"> </text>
<text transform="matrix(1 0 0 1 379.6525 420.6348)" class="st48 st2 st52">to</text>
<text transform="matrix(1 0 0 1 390.6398 420.6348)" class="st48 st2 st52">lerance be</text>
<text transform="matrix(1 0 0 1 447.2306 420.6348)" class="st48 st2 st52">st</text>
<text transform="matrix(1 0 0 1 456.5822 420.6348)" class="st48 st2 st52">.</text>
<text transform="matrix(1 0 0 1 261.8165 395.2832)" class="st48 st4 st50">Higher risk.</text>
<text transform="matrix(1 0 0 1 228.1154 407.8457)" class="st53 st54 st55">May experience high </text>
<text transform="matrix(1 0 0 1 309.2853 407.8457)" class="st53 st54 st55">re</text>
<text transform="matrix(1 0 0 1 316.7697 407.8457)" class="st53 st54 st55">turn, </text>
<text transform="matrix(1 0 0 1 233.4181 417.9131)" class="st53 st54 st55">as well as higher volatility </text>
<text transform="matrix(1 0 0 1 241.0216 427.9863)" class="st53 st54 st55">and short term losses</text>
<text transform="matrix(1 0 0 1 546.3868 395.2832)" class="st48 st4 st50">Lower risk.</text>
<text transform="matrix(1 0 0 1 515.3888 407.8457)" class="st53 st54 st55">Lower likelihood of seve</text>
<text transform="matrix(1 0 0 1 606.6837 407.8457)" class="st53 st54 st55">re</text>
<text transform="matrix(1 0 0 1 614.1622 407.8457)" class="st53 st54 st55"> </text>
<text transform="matrix(1 0 0 1 513.9259 417.9131)" class="st53 st54 st55">losses, but may experience</text>
<text transform="matrix(1 0 0 1 615.6212 417.9131)" class="st53 st54 st55"> </text>
<text transform="matrix(1 0 0 1 541.8322 427.9863)" class="st53 st54 st55">lower </text>
<text transform="matrix(1 0 0 1 565.004 427.9863)" class="st53 st54 st55">re</text>
<text transform="matrix(1 0 0 1 572.4747 427.9863)" class="st53 st54 st55">turn</text>
</svg>
