<?xml version="1.0" encoding="utf-8"?>
<!-- Generator: Adobe Illustrator 19.0.0, SVG Export Plug-In . SVG Version: 6.00 Build 0)  -->
<svg version="1.1" id="Layer_1" xmlns="http://www.w3.org/2000/svg" xmlns:xlink="http://www.w3.org/1999/xlink" x="0px" y="0px"
	 viewBox="0 0 841.9 595.3" style="enable-background:new 0 0 841.9 595.3;" xml:space="preserve">
<style type="text/css">
	.st0{fill:#E9ECF1;}
	.st1{fill:#FFFFFF;}
	.st2{fill:#0D436B;}
	.st3{fill:#FFA400;}
	.st4{fill:#7FBFE9;}
	.st5{fill:#FFC82F;}
</style>
<polygon class="st0" points="227.7,450.3 225.2,450.3 225.2,142 615.9,142 615.9,452.8 225.2,452.8 225.2,450.3 227.7,450.3 
	227.7,447.8 610.9,447.8 610.9,147 230.2,147 230.2,450.3 227.7,450.3 227.7,447.8 227.7,450.3 "/>
<polygon class="st1" points="243.1,241.3 243.1,431.1 610.6,431.1 610.6,241.3 243.1,241.3 "/>
<polyline class="st2" points="269.8,409.5 571.8,409.5 571.8,409.3 269.8,409.3 "/>
<polyline class="st2" points="269.8,391.9 571.8,391.9 571.8,391.7 269.8,391.7 "/>
<polyline class="st2" points="269.8,374.2 571.8,374.2 571.8,374 269.8,374 "/>
<polyline class="st2" points="269.8,356.6 571.8,356.6 571.8,356.4 269.8,356.4 "/>
<polyline class="st2" points="269.8,338.9 571.8,338.9 571.8,338.8 269.8,338.8 "/>
<polyline class="st2" points="269.8,321.3 571.8,321.3 571.8,321.1 269.8,321.1 "/>
<polyline class="st2" points="269.8,303.7 571.8,303.7 571.8,303.5 269.8,303.5 "/>
<polyline class="st2" points="269.8,286 571.8,286 571.8,285.8 269.8,285.8 "/>
<polyline class="st2" points="269.8,268.4 571.8,268.4 571.8,268.2 269.8,268.2 "/>
<polygon class="st1" points="419.9,239.1 419.9,192.7 610.6,192.7 610.6,239.1 419.9,239.1 "/>
<polygon class="st1" points="243.1,239.1 243.1,192.7 417.5,192.7 417.5,239.1 243.1,239.1 "/>
<path class="st2" d="M303.7,201.1h1.9c1.6,0,2.7,1.1,2.7,2.5v0c0,1.4-1.1,2.5-2.7,2.5h-1.9V201.1L303.7,201.1z M304.8,202.1v3h0.8
	c0.9,0,1.5-0.6,1.5-1.5v0c0-0.9-0.6-1.5-1.5-1.5H304.8L304.8,202.1z"/>
<polygon class="st2" points="309.3,201.1 310.4,201.1 310.4,206.1 309.3,206.1 309.3,201.1 "/>
<path class="st2" d="M313.4,201.1h1l2.1,5h-1.1L315,205h-2.1l-0.5,1.1h-1.1L313.4,201.1L313.4,201.1z M314.6,204l-0.7-1.6l-0.7,1.6
	H314.6L314.6,204z"/>
<path class="st2" d="M317.2,203.6L317.2,203.6c0-1.4,1.1-2.6,2.6-2.6c0.9,0,1.4,0.2,2,0.7l-0.7,0.8c-0.4-0.3-0.7-0.5-1.3-0.5
	c-0.8,0-1.4,0.7-1.4,1.6v0c0,0.9,0.6,1.6,1.5,1.6c0.4,0,0.8-0.1,1-0.3v-0.7h-1.1v-0.9h2.2v2.2c-0.5,0.4-1.2,0.8-2.1,0.8
	C318.3,206.2,317.2,205.1,317.2,203.6L317.2,203.6z"/>
<path class="st2" d="M323.1,201.1h2.3c0.6,0,1.1,0.2,1.5,0.5c0.3,0.3,0.4,0.7,0.4,1.1v0c0,0.8-0.4,1.3-1.1,1.5l1.2,1.8h-1.3
	l-1.1-1.6h-0.9v1.6h-1.1V201.1L323.1,201.1z M325.3,203.5c0.5,0,0.8-0.3,0.8-0.7v0c0-0.5-0.3-0.7-0.9-0.7h-1.1v1.4H325.3
	L325.3,203.5z"/>
<path class="st2" d="M330,201.1h1l2.1,5H332l-0.5-1.1h-2.1l-0.5,1.1h-1.1L330,201.1L330,201.1z M331.1,204l-0.7-1.6l-0.7,1.6H331.1
	L331.1,204z"/>
<polygon class="st2" points="333.9,201.1 335.1,201.1 336.4,203.2 337.7,201.1 338.9,201.1 338.9,206.1 337.8,206.1 337.8,202.9 
	336.4,205 336.4,205 335,202.9 335,206.1 333.9,206.1 333.9,201.1 "/>
<polygon class="st2" points="342.4,201.1 343.5,201.1 343.5,203.3 345.5,201.1 346.8,201.1 344.8,203.2 346.9,206.1 345.6,206.1 
	344,204 343.5,204.6 343.5,206.1 342.4,206.1 342.4,201.1 "/>
<polygon class="st2" points="347.6,201.1 351.4,201.1 351.4,202.1 348.7,202.1 348.7,203.1 351.1,203.1 351.1,204.1 348.7,204.1 
	348.7,205.1 351.4,205.1 351.4,206.1 347.6,206.1 347.6,201.1 "/>
<polygon class="st2" points="353.9,204.1 351.9,201.1 353.2,201.1 354.4,203.1 355.6,201.1 356.9,201.1 355,204.1 355,206.1 
	353.9,206.1 353.9,204.1 "/>
<path class="st2" d="M346.9,213.9h1.9c1.1,0,1.9,0.6,1.9,1.6v0c0,1.1-0.9,1.6-2,1.6h-1.2v1.8h-0.6V213.9L346.9,213.9z M348.7,216.6
	c0.8,0,1.4-0.4,1.4-1.1v0c0-0.7-0.5-1.1-1.3-1.1h-1.3v2.2H348.7L348.7,216.6z"/>
<path class="st2" d="M351.4,217L351.4,217c0-1.1,0.8-1.9,1.9-1.9c1.1,0,1.9,0.9,1.9,1.9v0c0,1-0.8,1.9-1.9,1.9
	C352.2,218.9,351.4,218.1,351.4,217L351.4,217z M354.7,217L354.7,217c0-0.8-0.6-1.5-1.4-1.5c-0.8,0-1.3,0.6-1.3,1.4v0
	c0,0.8,0.6,1.4,1.4,1.4C354.2,218.4,354.7,217.8,354.7,217L354.7,217z"/>
<path class="st2" d="M356.3,215.2h0.6v1c0.3-0.6,0.8-1.1,1.5-1v0.6h0c-0.8,0-1.5,0.6-1.5,1.7v1.5h-0.6V215.2L356.3,215.2z"/>
<path class="st2" d="M359.5,217.9v-2.2h-0.5v-0.5h0.5V214h0.5v1.1h1.2v0.5H360v2.2c0,0.5,0.2,0.6,0.6,0.6c0.2,0,0.3,0,0.5-0.1v0.5
	c-0.2,0.1-0.4,0.2-0.7,0.2C359.9,218.9,359.5,218.6,359.5,217.9L359.5,217.9z"/>
<path class="st2" d="M362.4,215.6h-0.5v-0.5h0.5v-0.3c0-0.4,0.1-0.7,0.3-0.9c0.2-0.2,0.5-0.3,0.8-0.3c0.3,0,0.4,0,0.6,0.1v0.5
	c-0.2-0.1-0.3-0.1-0.5-0.1c-0.4,0-0.6,0.3-0.6,0.8v0.3h1.2v0.5h-1.2v3.2h-0.5V215.6L362.4,215.6z"/>
<path class="st2" d="M364.6,217L364.6,217c0-1.1,0.8-1.9,1.9-1.9c1.1,0,1.9,0.9,1.9,1.9v0c0,1-0.8,1.9-1.9,1.9
	C365.4,218.9,364.6,218.1,364.6,217L364.6,217z M367.9,217L367.9,217c0-0.8-0.6-1.5-1.4-1.5c-0.8,0-1.3,0.6-1.3,1.4v0
	c0,0.8,0.6,1.4,1.4,1.4C367.4,218.4,367.9,217.8,367.9,217L367.9,217z"/>
<polygon class="st2" points="369.6,213.6 370.1,213.6 370.1,218.8 369.6,218.8 369.6,213.6 "/>
<path class="st2" d="M371.5,213.7h0.6v0.6h-0.6V213.7L371.5,213.7z M371.5,215.2h0.5v3.7h-0.5V215.2L371.5,215.2z"/>
<path class="st2" d="M373.1,217L373.1,217c0-1.1,0.8-1.9,1.9-1.9c1.1,0,1.9,0.9,1.9,1.9v0c0,1-0.8,1.9-1.9,1.9
	C373.9,218.9,373.1,218.1,373.1,217L373.1,217z M376.4,217L376.4,217c0-0.8-0.6-1.5-1.4-1.5c-0.8,0-1.3,0.6-1.3,1.4v0
	c0,0.8,0.6,1.4,1.4,1.4C375.9,218.4,376.4,217.8,376.4,217L376.4,217z"/>
<polygon class="st2" points="347.9,223.6 348.5,223.6 349.4,226.6 350.4,223.6 350.9,223.6 351.9,226.6 352.9,223.6 353.4,223.6 
	352.1,227.3 351.7,227.3 350.7,224.4 349.7,227.3 349.2,227.3 347.9,223.6 "/>
<polygon class="st2" points="356.9,221.6 357.4,221.6 354.1,228.2 353.6,228.2 356.9,221.6 "/>
<path class="st2" d="M360.3,222.3h2.1c0.6,0,1.1,0.2,1.4,0.5c0.2,0.2,0.4,0.6,0.4,1v0c0,0.8-0.6,1.3-1.4,1.5l1.5,2h-0.7l-1.4-1.9
	h-1.4v1.9h-0.6V222.3L360.3,222.3z M362.4,224.9c0.7,0,1.3-0.4,1.3-1v0c0-0.6-0.5-1-1.3-1h-1.5v2H362.4L362.4,224.9z"/>
<path class="st2" d="M365.5,222.2h0.6v0.6h-0.6V222.2L365.5,222.2z M365.5,223.6h0.5v3.7h-0.5V223.6L365.5,223.6z"/>
<path class="st2" d="M367.1,226.8l0.3-0.4c0.4,0.3,0.8,0.5,1.3,0.5c0.4,0,0.8-0.2,0.8-0.6v0c0-0.4-0.4-0.5-0.9-0.6
	c-0.6-0.2-1.2-0.4-1.2-1v0c0-0.6,0.5-1.1,1.3-1.1c0.4,0,0.9,0.2,1.3,0.4l-0.2,0.4c-0.3-0.2-0.7-0.4-1.1-0.4c-0.4,0-0.7,0.2-0.7,0.5
	v0c0,0.3,0.5,0.5,0.9,0.6c0.6,0.2,1.2,0.4,1.2,1.1v0c0,0.7-0.6,1.1-1.3,1.1C368.1,227.4,367.5,227.2,367.1,226.8L367.1,226.8z"/>
<polygon class="st2" points="371,222.1 371.5,222.1 371.5,225.7 373.5,223.6 374.2,223.6 372.7,225.2 374.3,227.3 373.6,227.3 
	372.3,225.6 371.5,226.4 371.5,227.3 371,227.3 371,222.1 "/>
<path class="st2" d="M379.2,222.3h0.5l2.3,5h-0.6l-0.6-1.3h-2.7l-0.6,1.3h-0.6L379.2,222.3L379.2,222.3z M380.6,225.5l-1.1-2.5
	l-1.1,2.5H380.6L380.6,225.5z"/>
<path class="st2" d="M382.7,226.8l0.3-0.4c0.4,0.3,0.8,0.5,1.3,0.5c0.4,0,0.8-0.2,0.8-0.6v0c0-0.4-0.4-0.5-0.9-0.6
	c-0.6-0.2-1.2-0.4-1.2-1v0c0-0.6,0.5-1.1,1.3-1.1c0.4,0,0.9,0.2,1.3,0.4l-0.2,0.4c-0.3-0.2-0.7-0.4-1.1-0.4c-0.4,0-0.7,0.2-0.7,0.5
	v0c0,0.3,0.5,0.5,0.9,0.6c0.6,0.2,1.2,0.4,1.2,1.1v0c0,0.7-0.6,1.1-1.3,1.1C383.7,227.4,383.1,227.2,382.7,226.8L382.7,226.8z"/>
<path class="st2" d="M386.3,226.8l0.3-0.4c0.4,0.3,0.8,0.5,1.3,0.5c0.4,0,0.8-0.2,0.8-0.6v0c0-0.4-0.4-0.5-0.9-0.6
	c-0.6-0.2-1.2-0.4-1.2-1v0c0-0.6,0.5-1.1,1.3-1.1c0.4,0,0.9,0.2,1.3,0.4l-0.2,0.4c-0.3-0.2-0.7-0.4-1.1-0.4c-0.4,0-0.7,0.2-0.7,0.5
	v0c0,0.3,0.5,0.5,0.9,0.6c0.6,0.2,1.2,0.4,1.2,1.1v0c0,0.7-0.6,1.1-1.3,1.1C387.3,227.4,386.7,227.2,386.3,226.8L386.3,226.8z"/>
<path class="st2" d="M390.2,222.2h0.6v0.6h-0.6V222.2L390.2,222.2z M390.2,223.6h0.5v3.7h-0.5V223.6L390.2,223.6z"/>
<path class="st2" d="M391.8,226.8l0.3-0.4c0.4,0.3,0.8,0.5,1.3,0.5c0.4,0,0.8-0.2,0.8-0.6v0c0-0.4-0.4-0.5-0.9-0.6
	c-0.6-0.2-1.2-0.4-1.2-1v0c0-0.6,0.5-1.1,1.3-1.1c0.4,0,0.9,0.2,1.3,0.4l-0.2,0.4c-0.3-0.2-0.7-0.4-1.1-0.4c-0.4,0-0.7,0.2-0.7,0.5
	v0c0,0.3,0.5,0.5,0.9,0.6c0.6,0.2,1.2,0.4,1.2,1.1v0c0,0.7-0.6,1.1-1.3,1.1C392.8,227.4,392.2,227.2,391.8,226.8L391.8,226.8z"/>
<path class="st2" d="M395.9,226.3v-2.2h-0.5v-0.5h0.5v-1.1h0.5v1.1h1.2v0.5h-1.2v2.2c0,0.4,0.2,0.6,0.6,0.6c0.2,0,0.3,0,0.5-0.1v0.5
	c-0.2,0.1-0.4,0.2-0.7,0.2C396.3,227.4,395.9,227.1,395.9,226.3L395.9,226.3z"/>
<path class="st2" d="M398.2,223.5L398.2,223.5c0-0.7,0.5-1.3,1.2-1.3c0.7,0,1.2,0.6,1.2,1.2v0c0,0.7-0.5,1.2-1.2,1.2
	C398.8,224.8,398.2,224.2,398.2,223.5L398.2,223.5z M400.5,223.5L400.5,223.5c0-0.6-0.5-1.1-1.1-1.1c-0.6,0-1.1,0.5-1.1,1.1v0
	c0,0.6,0.5,1.1,1.1,1.1C400.1,224.6,400.5,224.1,400.5,223.5L400.5,223.5z M399,222.8h0.6c0.3,0,0.5,0.1,0.5,0.4
	c0,0.2-0.1,0.3-0.3,0.4l0.3,0.5h-0.3l-0.3-0.4h-0.3v0.4H399V222.8L399,222.8z M399.5,223.5c0.2,0,0.3-0.1,0.3-0.2
	c0-0.1-0.1-0.2-0.3-0.2h-0.3v0.4H399.5L399.5,223.5z"/>
<path class="st2" d="M328.2,218.1h10.2c1.1,0,2-0.9,2-2c0-1.1-0.9-2-2-2h-10.2c-1.1,0-2,0.9-2,2
	C326.2,217.2,327.1,218.1,328.2,218.1"/>
<path class="st2" d="M280.6,213.7h1.9c1.1,0,1.9,0.6,1.9,1.6v0c0,1.1-0.9,1.6-2,1.6h-1.2v1.8h-0.6V213.7L280.6,213.7z M282.4,216.4
	c0.8,0,1.4-0.4,1.4-1.1v0c0-0.7-0.5-1.1-1.3-1.1h-1.3v2.2H282.4L282.4,216.4z"/>
<path class="st2" d="M285.1,216.8L285.1,216.8c0-1.1,0.8-1.9,1.9-1.9c1.1,0,1.9,0.9,1.9,1.9v0c0,1-0.8,1.9-1.9,1.9
	C285.9,218.8,285.1,217.9,285.1,216.8L285.1,216.8z M288.3,216.8L288.3,216.8c0-0.8-0.6-1.5-1.4-1.5c-0.8,0-1.3,0.6-1.3,1.4v0
	c0,0.8,0.6,1.4,1.4,1.4C287.8,218.3,288.3,217.6,288.3,216.8L288.3,216.8z"/>
<path class="st2" d="M289.9,215h0.5v1c0.3-0.6,0.8-1.1,1.5-1v0.6h0c-0.8,0-1.5,0.6-1.5,1.7v1.5h-0.5V215L289.9,215z"/>
<path class="st2" d="M293.1,217.7v-2.2h-0.5V215h0.5v-1.1h0.6v1.1h1.2v0.5h-1.2v2.2c0,0.4,0.2,0.6,0.6,0.6c0.2,0,0.3,0,0.5-0.1v0.5
	c-0.2,0.1-0.4,0.2-0.7,0.2C293.5,218.7,293.1,218.4,293.1,217.7L293.1,217.7z"/>
<path class="st2" d="M296,215.5h-0.5V215h0.5v-0.3c0-0.4,0.1-0.7,0.3-0.9c0.2-0.2,0.5-0.3,0.8-0.3c0.3,0,0.4,0,0.6,0.1v0.5
	c-0.2-0.1-0.3-0.1-0.5-0.1c-0.4,0-0.6,0.3-0.6,0.8v0.3h1.2v0.5h-1.2v3.2H296V215.5L296,215.5z"/>
<path class="st2" d="M298.2,216.8L298.2,216.8c0-1.1,0.8-1.9,1.9-1.9c1.1,0,1.9,0.9,1.9,1.9v0c0,1-0.8,1.9-1.9,1.9
	C299.1,218.8,298.2,217.9,298.2,216.8L298.2,216.8z M301.5,216.8L301.5,216.8c0-0.8-0.6-1.5-1.4-1.5c-0.8,0-1.3,0.6-1.3,1.4v0
	c0,0.8,0.6,1.4,1.4,1.4C301,218.3,301.5,217.6,301.5,216.8L301.5,216.8z"/>
<polygon class="st2" points="303.2,213.5 303.7,213.5 303.7,218.7 303.2,218.7 303.2,213.5 "/>
<path class="st2" d="M305.1,213.6h0.6v0.6h-0.6V213.6L305.1,213.6z M305.1,215h0.5v3.7h-0.5V215L305.1,215z"/>
<path class="st2" d="M306.8,216.8L306.8,216.8c0-1.1,0.8-1.9,1.9-1.9c1.1,0,1.9,0.9,1.9,1.9v0c0,1-0.8,1.9-1.9,1.9
	C307.6,218.8,306.8,217.9,306.8,216.8L306.8,216.8z M310,216.8L310,216.8c0-0.8-0.6-1.5-1.4-1.5c-0.8,0-1.3,0.6-1.3,1.4v0
	c0,0.8,0.6,1.4,1.4,1.4C309.5,218.3,310,217.6,310,216.8L310,216.8z"/>
<path class="st3" d="M261.8,217.5H272c1.1,0,2-0.9,2-2c0-1.1-0.9-2-2-2h-10.2c-1.1,0-2,0.9-2,2C259.8,216.6,260.7,217.5,261.8,217.5
	"/>
<path class="st2" d="M448.5,217.3c0,2-1.7,3.7-3.7,3.7c-2,0-3.7-1.7-3.7-3.7c0-2,1.7-3.7,3.7-3.7
	C446.8,213.6,448.5,215.3,448.5,217.3"/>
<polygon class="st2" points="454.3,215 457.9,215 457.9,215.5 454.9,215.5 454.9,217.2 457.6,217.2 457.6,217.7 454.9,217.7 
	454.9,219.5 458,219.5 458,220 454.3,220 454.3,215 "/>
<path class="st2" d="M463.7,220.2l-0.7-0.6c-0.4,0.3-1,0.5-1.6,0.5c-1.5,0-2.5-1.2-2.5-2.6v0c0-1.4,1-2.6,2.6-2.6
	c1.5,0,2.5,1.2,2.5,2.6v0c0,0.6-0.2,1.2-0.6,1.7l0.7,0.6L463.7,220.2L463.7,220.2z M462.6,219.2l-0.9-0.8l0.4-0.4l0.9,0.8
	c0.3-0.4,0.4-0.8,0.4-1.3v0c0-1.1-0.8-2.1-2-2.1c-1.1,0-2,0.9-2,2v0c0,1.1,0.8,2.1,2,2.1C461.9,219.6,462.3,219.4,462.6,219.2
	L462.6,219.2z"/>
<path class="st2" d="M465.2,217.9V215h0.6v2.9c0,1.1,0.6,1.7,1.5,1.7c0.9,0,1.5-0.6,1.5-1.6V215h0.6v2.9c0,1.5-0.8,2.2-2.1,2.2
	C466,220.1,465.2,219.3,465.2,217.9L465.2,217.9z"/>
<polygon class="st2" points="470.8,215 471.3,215 471.3,220 470.8,220 470.8,215 "/>
<polygon class="st2" points="474.2,215.5 472.5,215.5 472.5,215 476.4,215 476.4,215.5 474.7,215.5 474.7,220 474.2,220 
	474.2,215.5 "/>
<polygon class="st2" points="477.6,215 478.1,215 478.1,220 477.6,220 477.6,215 "/>
<polygon class="st2" points="479.6,215 483.2,215 483.2,215.5 480.2,215.5 480.2,217.2 482.9,217.2 482.9,217.7 480.2,217.7 
	480.2,219.5 483.3,219.5 483.3,220 479.6,220 479.6,215 "/>
<path class="st2" d="M484.1,219.3l0.3-0.4c0.5,0.5,1,0.7,1.7,0.7c0.7,0,1.1-0.4,1.1-0.8v0c0-0.5-0.2-0.7-1.3-0.9
	c-1.1-0.2-1.7-0.6-1.7-1.4v0c0-0.8,0.7-1.4,1.6-1.4c0.7,0,1.2,0.2,1.8,0.6l-0.3,0.4c-0.5-0.4-0.9-0.5-1.4-0.5
	c-0.6,0-1.1,0.4-1.1,0.8v0c0,0.5,0.3,0.7,1.4,1c1.1,0.2,1.6,0.6,1.6,1.4v0c0,0.9-0.7,1.4-1.7,1.4
	C485.4,220.1,484.7,219.8,484.1,219.3L484.1,219.3z"/>
<path class="st2" d="M454.5,226.8c0-1.3,0.7-2.3,2-3.1l0.2,0.4c-1.1,0.7-1.7,1.5-1.7,2.7c0,1.1,0.6,2,1.7,2.7l-0.2,0.4
	C455.2,229.1,454.5,228.1,454.5,226.8L454.5,226.8z"/>
<path class="st2" d="M457.8,225.2h0.5v0.6c0.2-0.4,0.6-0.7,1.2-0.7c0.6,0,1,0.3,1.2,0.7c0.3-0.4,0.7-0.7,1.3-0.7
	c0.8,0,1.4,0.6,1.4,1.5v2.3h-0.6v-2.2c0-0.7-0.4-1.1-1-1.1c-0.6,0-1,0.4-1,1.1v2.1h-0.5v-2.2c0-0.7-0.4-1.1-0.9-1.1
	c-0.6,0-1,0.5-1,1.2v2.1h-0.5V225.2L457.8,225.2z"/>
<path class="st2" d="M464.4,227L464.4,227c0-1.1,0.8-1.9,1.9-1.9c1.1,0,1.9,0.9,1.9,1.9v0c0,1-0.8,1.9-1.9,1.9
	C465.2,228.9,464.4,228.1,464.4,227L464.4,227z M467.7,227L467.7,227c0-0.8-0.6-1.5-1.4-1.5c-0.8,0-1.3,0.6-1.3,1.4v0
	c0,0.8,0.6,1.4,1.4,1.4C467.1,228.5,467.7,227.8,467.7,227L467.7,227z"/>
<path class="st2" d="M469.3,225.2h0.5v1c0.3-0.6,0.8-1.1,1.5-1v0.6h0c-0.8,0-1.5,0.6-1.5,1.7v1.5h-0.5V225.2L469.3,225.2z"/>
<path class="st2" d="M472,227L472,227c0-1.1,0.7-1.9,1.8-1.9c1.1,0,1.7,0.9,1.7,1.9l0,0.2h-2.9c0.1,0.8,0.6,1.2,1.3,1.2
	c0.5,0,0.9-0.2,1.2-0.5l0.3,0.3c-0.4,0.4-0.8,0.7-1.5,0.7C472.8,228.9,472,228.2,472,227L472,227z M474.9,226.8
	c-0.1-0.7-0.4-1.3-1.2-1.3c-0.6,0-1.1,0.5-1.2,1.3H474.9L474.9,226.8z"/>
<path class="st2" d="M478.7,225.2h0.5v1c0.3-0.6,0.8-1.1,1.5-1v0.6h0c-0.8,0-1.5,0.6-1.5,1.7v1.5h-0.5V225.2L478.7,225.2z"/>
<path class="st2" d="M481.6,223.8h0.6v0.6h-0.6V223.8L481.6,223.8z M481.7,225.2h0.6v3.7h-0.6V225.2L481.7,225.2z"/>
<path class="st2" d="M483.2,228.4l0.3-0.4c0.4,0.3,0.8,0.5,1.3,0.5c0.4,0,0.8-0.2,0.8-0.6v0c0-0.4-0.4-0.5-0.9-0.6
	c-0.6-0.2-1.2-0.4-1.2-1v0c0-0.6,0.5-1.1,1.3-1.1c0.5,0,0.9,0.2,1.3,0.4l-0.2,0.4c-0.3-0.2-0.7-0.4-1.1-0.4c-0.4,0-0.7,0.2-0.7,0.5
	v0c0,0.3,0.5,0.5,0.9,0.6c0.6,0.2,1.2,0.4,1.2,1.1v0c0,0.7-0.6,1.1-1.3,1.1C484.2,228.9,483.7,228.7,483.2,228.4L483.2,228.4z"/>
<polygon class="st2" points="487.2,223.7 487.7,223.7 487.7,227.2 489.7,225.2 490.4,225.2 488.8,226.8 490.4,228.9 489.8,228.9 
	488.5,227.1 487.7,227.9 487.7,228.9 487.2,228.9 487.2,223.7 "/>
<path class="st2" d="M494,225.2h0.6l-1.5,3.8c-0.3,0.8-0.7,1-1.2,1c-0.3,0-0.5-0.1-0.8-0.2l0.2-0.4c0.2,0.1,0.3,0.1,0.6,0.1
	c0.3,0,0.5-0.2,0.8-0.7l-1.7-3.7h0.6l1.3,3.1L494,225.2L494,225.2z"/>
<path class="st2" d="M495.3,229.5c1.1-0.7,1.7-1.5,1.7-2.7c0-1.1-0.6-2-1.7-2.7l0.2-0.4c1.3,0.7,2,1.7,2,3.1c0,1.3-0.7,2.3-2,3.1
	L495.3,229.5L495.3,229.5z"/>
<path class="st4" d="M523.7,217.3c0,2-1.7,3.7-3.7,3.7c-2,0-3.7-1.7-3.7-3.7c0-2,1.7-3.7,3.7-3.7C522,213.6,523.7,215.3,523.7,217.3
	"/>
<polygon class="st2" points="529.5,214.5 533.1,214.5 533.1,215.1 530.1,215.1 530.1,216.8 532.8,216.8 532.8,217.4 530.1,217.4 
	530.1,219.5 529.5,219.5 529.5,214.5 "/>
<polygon class="st2" points="534.3,214.5 534.9,214.5 534.9,219.5 534.3,219.5 534.3,214.5 "/>
<polygon class="st2" points="540.5,214.5 538.6,217 540.5,219.5 539.9,219.5 538.3,217.4 536.7,219.5 536,219.5 537.9,217 
	536.1,214.5 536.8,214.5 538.3,216.6 539.8,214.5 540.5,214.5 "/>
<polygon class="st2" points="541.6,214.5 545.2,214.5 545.2,215.1 542.2,215.1 542.2,216.8 544.9,216.8 544.9,217.3 542.2,217.3 
	542.2,219 545.3,219 545.3,219.5 541.6,219.5 541.6,214.5 "/>
<path class="st2" d="M546.4,214.5h1.7c1.6,0,2.7,1.1,2.7,2.5v0c0,1.4-1.1,2.5-2.7,2.5h-1.7V214.5L546.4,214.5z M547,215.1v3.9h1.2
	c1.3,0,2.1-0.9,2.1-2v0c0-1.1-0.8-2-2.1-2H547L547,215.1z"/>
<polygon class="st2" points="551.8,217.1 553.8,217.1 553.8,217.7 551.8,217.7 551.8,217.1 "/>
<polygon class="st2" points="555.1,214.5 555.6,214.5 555.6,219.5 555.1,219.5 555.1,214.5 "/>
<polygon class="st2" points="557.2,214.5 557.7,214.5 560.8,218.5 560.8,214.5 561.4,214.5 561.4,219.5 560.9,219.5 557.7,215.4 
	557.7,219.5 557.2,219.5 557.2,214.5 "/>
<path class="st2" d="M562.6,217.1L562.6,217.1c0-1.4,1.1-2.6,2.5-2.6c0.9,0,1.4,0.3,1.9,0.8l-0.4,0.4c-0.4-0.4-0.9-0.7-1.6-0.7
	c-1.1,0-1.9,0.9-1.9,2v0c0,1.2,0.8,2.1,1.9,2.1c0.7,0,1.1-0.3,1.6-0.7l0.4,0.4c-0.5,0.5-1.1,0.9-2,0.9
	C563.7,219.6,562.6,218.5,562.6,217.1L562.6,217.1z"/>
<path class="st2" d="M567.9,217.1L567.9,217.1c0-1.4,1-2.6,2.6-2.6c1.5,0,2.5,1.2,2.5,2.6v0c0,1.4-1,2.6-2.6,2.6
	S567.9,218.4,567.9,217.1L567.9,217.1z M572.4,217.1L572.4,217.1c0-1.1-0.8-2.1-2-2.1c-1.1,0-2,0.9-2,2v0c0,1.1,0.8,2.1,2,2.1
	S572.4,218.2,572.4,217.1L572.4,217.1z"/>
<polygon class="st2" points="574.3,214.5 574.8,214.5 576.6,217.3 578.5,214.5 579,214.5 579,219.5 578.5,219.5 578.5,215.5 
	576.7,218.2 576.6,218.2 574.8,215.5 574.8,219.5 574.3,219.5 574.3,214.5 "/>
<polygon class="st2" points="580.5,214.5 584.1,214.5 584.1,215.1 581.1,215.1 581.1,216.8 583.8,216.8 583.8,217.3 581.1,217.3 
	581.1,219 584.1,219 584.1,219.5 580.5,219.5 580.5,214.5 "/>
<path class="st2" d="M529.5,227.1c0-1.3,0.7-2.3,2-3l0.2,0.4c-1.1,0.7-1.7,1.5-1.7,2.7c0,1.1,0.6,2,1.7,2.7l-0.2,0.4
	C530.2,229.4,529.5,228.4,529.5,227.1L529.5,227.1z"/>
<polygon class="st2" points="532.9,223.9 533.4,223.9 533.4,229.1 532.9,229.1 532.9,223.9 "/>
<path class="st2" d="M534.5,227.3L534.5,227.3c0-1.1,0.7-1.9,1.8-1.9c1.1,0,1.7,0.9,1.7,1.9l0,0.2h-2.9c0.1,0.8,0.6,1.2,1.3,1.2
	c0.5,0,0.9-0.2,1.2-0.5l0.3,0.3c-0.4,0.4-0.8,0.7-1.5,0.7C535.3,229.2,534.5,228.5,534.5,227.3L534.5,227.3z M537.4,227.1
	c-0.1-0.7-0.4-1.3-1.2-1.3c-0.6,0-1.1,0.5-1.2,1.3H537.4L537.4,227.1z"/>
<path class="st2" d="M538.7,228.7l0.3-0.4c0.4,0.3,0.8,0.5,1.3,0.5c0.4,0,0.8-0.2,0.8-0.6v0c0-0.4-0.4-0.5-0.9-0.6
	c-0.6-0.2-1.2-0.4-1.2-1v0c0-0.6,0.5-1.1,1.3-1.1c0.4,0,0.9,0.2,1.3,0.4l-0.2,0.4c-0.3-0.2-0.7-0.4-1.1-0.4c-0.4,0-0.7,0.2-0.7,0.5
	v0c0,0.3,0.5,0.5,0.9,0.6c0.6,0.2,1.2,0.4,1.2,1.1v0c0,0.7-0.6,1.1-1.3,1.1C539.7,229.2,539.1,229,538.7,228.7L538.7,228.7z"/>
<path class="st2" d="M542.3,228.7l0.3-0.4c0.4,0.3,0.8,0.5,1.3,0.5c0.4,0,0.8-0.2,0.8-0.6v0c0-0.4-0.4-0.5-0.9-0.6
	c-0.6-0.2-1.2-0.4-1.2-1v0c0-0.6,0.5-1.1,1.3-1.1c0.4,0,0.9,0.2,1.3,0.4l-0.2,0.4c-0.3-0.2-0.7-0.4-1.1-0.4c-0.4,0-0.7,0.2-0.7,0.5
	v0c0,0.3,0.5,0.5,0.9,0.6c0.6,0.2,1.2,0.4,1.2,1.1v0c0,0.7-0.6,1.1-1.3,1.1C543.3,229.2,542.7,229,542.3,228.7L542.3,228.7z"/>
<path class="st2" d="M548.4,225.5h0.5v1c0.3-0.6,0.8-1.1,1.5-1v0.6h0c-0.8,0-1.5,0.6-1.5,1.7v1.5h-0.5V225.5L548.4,225.5z"/>
<path class="st2" d="M551.4,224h0.6v0.6h-0.6V224L551.4,224z M551.4,225.5h0.5v3.7h-0.5V225.5L551.4,225.5z"/>
<path class="st2" d="M553,228.7l0.3-0.4c0.4,0.3,0.8,0.5,1.3,0.5c0.4,0,0.8-0.2,0.8-0.6v0c0-0.4-0.4-0.5-0.9-0.6
	c-0.6-0.2-1.2-0.4-1.2-1v0c0-0.6,0.5-1.1,1.3-1.1c0.5,0,0.9,0.2,1.3,0.4l-0.2,0.4c-0.3-0.2-0.7-0.4-1.1-0.4c-0.4,0-0.7,0.2-0.7,0.5
	v0c0,0.3,0.5,0.5,0.9,0.6c0.6,0.2,1.2,0.4,1.2,1.1v0c0,0.7-0.6,1.1-1.3,1.1C554,229.2,553.4,229,553,228.7L553,228.7z"/>
<polygon class="st2" points="556.9,223.9 557.4,223.9 557.4,227.5 559.4,225.5 560.1,225.5 558.5,227 560.1,229.1 559.5,229.1 
	558.2,227.4 557.4,228.2 557.4,229.1 556.9,229.1 556.9,223.9 "/>
<path class="st2" d="M563.7,225.5h0.6l-1.5,3.8c-0.3,0.8-0.7,1-1.2,1c-0.3,0-0.5-0.1-0.8-0.2l0.2-0.4c0.2,0.1,0.3,0.1,0.6,0.1
	c0.3,0,0.5-0.2,0.8-0.7l-1.7-3.7h0.6l1.3,3.1L563.7,225.5L563.7,225.5z"/>
<path class="st2" d="M565,229.8c1.1-0.7,1.7-1.5,1.7-2.7c0-1.1-0.6-2-1.7-2.7l0.2-0.4c1.3,0.7,2,1.7,2,3s-0.7,2.3-2,3.1L565,229.8
	L565,229.8z"/>
<path class="st2" d="M463.9,201.1h2c1.2,0,1.9,0.7,1.9,1.7v0c0,1.2-0.9,1.8-2,1.8H465v1.5h-1.1V201.1L463.9,201.1z M465.8,203.6
	c0.5,0,0.9-0.3,0.9-0.8v0c0-0.5-0.3-0.8-0.9-0.8H465v1.5H465.8L465.8,203.6z"/>
<path class="st2" d="M468.4,203.6L468.4,203.6c0-1.4,1.1-2.6,2.7-2.6c1.5,0,2.6,1.1,2.6,2.6v0c0,1.4-1.1,2.6-2.7,2.6
	C469.6,206.2,468.4,205,468.4,203.6L468.4,203.6z M472.6,203.6L472.6,203.6c0-0.9-0.6-1.6-1.5-1.6c-0.9,0-1.5,0.7-1.5,1.6v0
	c0,0.9,0.6,1.6,1.5,1.6C472,205.2,472.6,204.5,472.6,203.6L472.6,203.6z"/>
<path class="st2" d="M474.8,201.1h2.3c0.6,0,1.1,0.2,1.5,0.5c0.3,0.3,0.4,0.7,0.4,1.1v0c0,0.8-0.4,1.3-1.1,1.5l1.2,1.8h-1.3
	l-1.1-1.6h-0.9v1.6h-1.1V201.1L474.8,201.1z M477,203.5c0.5,0,0.8-0.3,0.8-0.7v0c0-0.5-0.3-0.7-0.9-0.7h-1.1v1.4H477L477,203.5z"/>
<polygon class="st2" points="481.1,202.1 479.6,202.1 479.6,201.1 483.8,201.1 483.8,202.1 482.2,202.1 482.2,206.1 481.1,206.1 
	481.1,202.1 "/>
<polygon class="st2" points="484.7,201.1 488.5,201.1 488.5,202.1 485.8,202.1 485.8,203.2 488.1,203.2 488.1,204.2 485.8,204.2 
	485.8,206.1 484.7,206.1 484.7,201.1 "/>
<path class="st2" d="M489.2,203.6L489.2,203.6c0-1.4,1.1-2.6,2.7-2.6c1.5,0,2.6,1.1,2.6,2.6v0c0,1.4-1.1,2.6-2.7,2.6
	C490.3,206.2,489.2,205,489.2,203.6L489.2,203.6z M493.3,203.6L493.3,203.6c0-0.9-0.6-1.6-1.5-1.6c-0.9,0-1.5,0.7-1.5,1.6v0
	c0,0.9,0.6,1.6,1.5,1.6C492.7,205.2,493.3,204.5,493.3,203.6L493.3,203.6z"/>
<polygon class="st2" points="495.5,201.1 496.6,201.1 496.6,205.1 499.1,205.1 499.1,206.1 495.5,206.1 495.5,201.1 "/>
<polygon class="st2" points="500,201.1 501.1,201.1 501.1,206.1 500,206.1 500,201.1 "/>
<path class="st2" d="M502.2,203.6L502.2,203.6c0-1.4,1.1-2.6,2.7-2.6c1.5,0,2.6,1.1,2.6,2.6v0c0,1.4-1.1,2.6-2.7,2.6
	S502.2,205,502.2,203.6L502.2,203.6z M506.3,203.6L506.3,203.6c0-0.9-0.6-1.6-1.5-1.6c-0.9,0-1.5,0.7-1.5,1.6v0
	c0,0.9,0.6,1.6,1.5,1.6C505.7,205.2,506.3,204.5,506.3,203.6L506.3,203.6z"/>
<path class="st2" d="M512.4,201.1h1l2.1,5h-1.1L514,205h-2.1l-0.5,1.1h-1.1L512.4,201.1L512.4,201.1z M513.6,204l-0.7-1.6l-0.7,1.6
	H513.6L513.6,204z"/>
<path class="st2" d="M516.4,201.1h1.9c1.6,0,2.7,1.1,2.7,2.5v0c0,1.4-1.1,2.5-2.7,2.5h-1.9V201.1L516.4,201.1z M517.5,202.1v3h0.8
	c0.9,0,1.5-0.6,1.5-1.5v0c0-0.9-0.6-1.5-1.5-1.5H517.5L517.5,202.1z"/>
<path class="st2" d="M521.5,205.4l0.7-0.8c0.3,0.3,0.6,0.5,0.9,0.5c0.4,0,0.7-0.2,0.7-0.8v-3.2h1.1v3.3c0,0.6-0.2,1-0.5,1.3
	c-0.3,0.3-0.8,0.5-1.3,0.5C522.4,206.2,521.9,205.8,521.5,205.4L521.5,205.4z"/>
<path class="st2" d="M526,204v-2.9h1.1v2.8c0,0.8,0.4,1.2,1.1,1.2c0.7,0,1.1-0.4,1.1-1.2v-2.9h1.1v2.8c0,1.5-0.8,2.3-2.2,2.3
	C526.8,206.2,526,205.4,526,204L526,204z"/>
<path class="st2" d="M531.2,205.4l0.6-0.8c0.4,0.4,0.9,0.6,1.5,0.6c0.4,0,0.7-0.2,0.7-0.5v0c0-0.3-0.2-0.4-1-0.6
	c-1-0.3-1.7-0.5-1.7-1.5v0c0-0.9,0.7-1.5,1.7-1.5c0.7,0,1.3,0.2,1.9,0.6l-0.6,0.8c-0.4-0.3-0.9-0.5-1.3-0.5c-0.4,0-0.6,0.2-0.6,0.4
	v0c0,0.3,0.2,0.4,1.1,0.7c1,0.3,1.6,0.6,1.6,1.5v0c0,1-0.8,1.5-1.8,1.5C532.5,206.2,531.8,205.9,531.2,205.4L531.2,205.4z"/>
<polygon class="st2" points="537.3,202.1 535.8,202.1 535.8,201.1 539.9,201.1 539.9,202.1 538.4,202.1 538.4,206.1 537.3,206.1 
	537.3,202.1 "/>
<polygon class="st2" points="540.8,201.1 542,201.1 543.3,203.2 544.6,201.1 545.8,201.1 545.8,206.1 544.7,206.1 544.7,202.9 
	543.3,205 543.3,205 541.9,202.9 541.9,206.1 540.8,206.1 540.8,201.1 "/>
<polygon class="st2" points="547.1,201.1 550.8,201.1 550.8,202.1 548.1,202.1 548.1,203.1 550.5,203.1 550.5,204.1 548.1,204.1 
	548.1,205.1 550.9,205.1 550.9,206.1 547.1,206.1 547.1,201.1 "/>
<polygon class="st2" points="551.9,201.1 552.9,201.1 555.2,204.2 555.2,201.1 556.3,201.1 556.3,206.1 555.4,206.1 553,202.9 
	553,206.1 551.9,206.1 551.9,201.1 "/>
<polygon class="st2" points="558.7,202.1 557.2,202.1 557.2,201.1 561.3,201.1 561.3,202.1 559.8,202.1 559.8,206.1 558.7,206.1 
	558.7,202.1 "/>
<path class="st5" d="M428.5,313.2c-3.5-4-7.7-8.7-12.9-14.5c-2.5-2.8-5.2-4.8-7.9-6.1c-2.7-1.3-5.6-1.9-8.4-1.9
	c-5.5,0-10.9,2.2-16.1,5.3c-7.8,4.7-15.3,11.7-22.1,17.3c-3.4,2.8-6.5,5.4-9.4,7.2c-1.4,0.9-2.8,1.6-4,2.1c-1.2,0.5-2.3,0.7-3.3,0.7
	c-3.2,0-5.7-1-8.1-2.5c-1.8-1.1-3.5-2.6-5.3-4.2c-2.6-2.4-5.4-5-8.8-7.1c-3.4-2.1-7.6-3.6-12.9-3.6c-2.2,0-4.2,0.4-6.1,1.1
	c-3.3,1.2-6,3.3-8.5,5.7c-3.7,3.6-7,7.7-10.8,10.9c-1.9,1.6-3.9,3-6.1,3.9c-2.2,1-4.6,1.5-7.5,1.5c-0.1,0-0.2,0-0.3,0v3.2
	c0.1,0,0.2,0,0.3,0c5,0,9.1-1.6,12.6-3.9c2.6-1.7,4.9-3.9,7-6c3.2-3.3,6-6.7,9.1-9.2c1.5-1.2,3.1-2.3,4.8-3c1.7-0.7,3.5-1.1,5.5-1.1
	c4.1,0,7.4,1,10.2,2.5c4.2,2.3,7.5,5.8,11.2,9c1.8,1.6,3.8,3,6,4.1c2.2,1.1,4.8,1.8,7.7,1.8c2,0,4-0.6,6-1.6
	c3.5-1.7,7.2-4.5,11.2-7.7c5.9-4.9,12.2-10.8,18.7-15.4c3.2-2.3,6.5-4.3,9.7-5.7c3.2-1.4,6.3-2.2,9.4-2.2c2.4,0,4.7,0.5,7,1.6
	c2.3,1.1,4.6,2.8,6.9,5.3c5.2,5.8,9.4,10.4,12.9,14.5c0.6,0.7,1.6,0.7,2.3,0.1C429.1,315,429.1,313.9,428.5,313.2L428.5,313.2z"/>
<path class="st5" d="M549.9,326.7c-6.3,14.1-13.7,28.7-21.8,40.9c-8.1,12.3-16.8,22.2-25.7,27.2c-3.5,2-6.9,2.9-10.1,2.9
	c-3.7,0-7.4-1.2-11-3.4c-6.3-3.9-12.5-10.9-18.4-19.4c-8.8-12.9-16.9-29.2-24.5-43.7c-3-5.6-5.8-10.9-8.7-15.7l-3,1.4
	c3.2,5.3,6.5,11.4,9.9,17.8c7.7,14.6,15.9,31,24.9,43.8c4.5,6.4,9.3,12,14.4,15.9c5.1,4,10.6,6.4,16.4,6.4c3.8,0,7.7-1.1,11.7-3.3
	c5-2.8,9.7-6.9,14.3-11.9c8-8.8,15.6-20.4,22.4-33c13.1-24.2,24.4-53.4,30.7-71.1v-9.9C567.7,282.8,559.5,305.4,549.9,326.7
	L549.9,326.7z"/>
<path class="st2" d="M464.8,357.5c-1.1-1-2.2-2-3.3-3c-0.4-0.4-0.4-1,0-1.4c0.4-0.4,1-0.4,1.4,0c1.1,1,2.1,2,3.2,3
	c0.4,0.4,0.5,1,0.1,1.4c-0.2,0.2-0.5,0.3-0.8,0.3C465.2,357.8,465,357.7,464.8,357.5L464.8,357.5z"/>
<path class="st4" d="M520.3,357.1c-0.4-0.4-0.4-1,0-1.4c1-1,2.1-2,3.1-3.1c0.4-0.4,1-0.4,1.4,0c0.4,0.4,0.4,1,0,1.4
	c-1.1,1.1-2.1,2.2-3.2,3.2c-0.2,0.2-0.4,0.3-0.7,0.3C520.7,357.4,520.5,357.3,520.3,357.1L520.3,357.1z"/>
<path class="st2" d="M552.4,312.2c-0.3,0.6-0.1,1.3,0.4,1.6c0.6,0.3,1.3,0.1,1.6-0.4c7.5-13.2,13.3-26.1,17.1-35.4v-6.2
	C568,280.8,561.4,296.4,552.4,312.2L552.4,312.2z"/>
<path class="st4" d="M543.8,330.3c-0.2,0-0.5-0.1-0.7-0.2c-0.6-0.4-0.7-1.1-0.4-1.7l0.7-1c0.4-0.6,1.1-0.7,1.7-0.4
	c0.6,0.4,0.7,1.1,0.4,1.7l-0.7,1C544.6,330.1,544.2,330.3,543.8,330.3L543.8,330.3z"/>
<path class="st2" d="M546.6,325.9c-0.2,0-0.4-0.1-0.6-0.2c-0.6-0.3-0.8-1.1-0.4-1.7c0.5-0.8,1-1.7,1.5-2.5c0.3-0.6,1.1-0.8,1.7-0.4
	s0.8,1.1,0.4,1.7c-0.5,0.9-1,1.7-1.5,2.6C547.4,325.6,547,325.9,546.6,325.9L546.6,325.9z"/>
<path class="st4" d="M550.1,319.9c-0.2,0-0.4-0.1-0.6-0.2c-0.6-0.3-0.8-1.1-0.5-1.7l0.6-1.1c0.3-0.6,1.1-0.8,1.7-0.5
	c0.6,0.3,0.8,1.1,0.5,1.6l-0.6,1.1C551,319.7,550.6,319.9,550.1,319.9L550.1,319.9z"/>
<path class="st4" d="M531.7,346.5c-0.2,0-0.4-0.1-0.6-0.3c-0.5-0.4-0.6-1.2-0.2-1.7l0.8-1c0.4-0.5,1.2-0.6,1.7-0.2
	c0.5,0.4,0.6,1.2,0.2,1.7l-0.8,1C532.5,346.3,532.1,346.5,531.7,346.5L531.7,346.5z"/>
<path class="st2" d="M534.9,342.4c-0.2,0-0.4-0.1-0.6-0.2c-0.5-0.4-0.7-1.1-0.2-1.7c0.6-0.8,1.2-1.6,1.8-2.4
	c0.4-0.5,1.2-0.7,1.7-0.3c0.5,0.4,0.7,1.1,0.3,1.7c-0.6,0.8-1.2,1.6-1.8,2.4C535.7,342.2,535.3,342.4,534.9,342.4L534.9,342.4z"/>
<path class="st4" d="M539,336.7c-0.2,0-0.4-0.1-0.6-0.2c-0.5-0.4-0.7-1.1-0.3-1.7l0.7-1c0.4-0.6,1.1-0.7,1.7-0.3
	c0.6,0.4,0.7,1.1,0.3,1.7l-0.7,1C539.8,336.6,539.4,336.8,539,336.7L539,336.7z"/>
<path class="st2" d="M530.4,348.3c-0.3,0-0.6-0.1-0.8-0.3c-0.5-0.4-0.6-1.2-0.1-1.7c0.3-0.3,0.5-0.6,0.8-0.9
	c0.4-0.5,1.2-0.6,1.7-0.1c0.5,0.4,0.6,1.2,0.1,1.7c-0.3,0.3-0.5,0.6-0.8,1C531.1,348.2,530.8,348.3,530.4,348.3L530.4,348.3z"/>
<path class="st2" d="M522.8,348.6c0,2.9,2.4,5.3,5.3,5.3c2.9,0,5.3-2.4,5.3-5.3c0-2.9-2.4-5.3-5.3-5.3
	C525.2,343.3,522.8,345.6,522.8,348.6"/>
<path class="st4" d="M522.5,348.6c0,3.1,2.5,5.6,5.6,5.6c3.1,0,5.6-2.5,5.6-5.6c0-3.1-2.5-5.6-5.6-5.6
	C525,343,522.5,345.5,522.5,348.6h0.5c0-1.4,0.6-2.6,1.5-3.5c0.9-0.9,2.2-1.5,3.6-1.5c1.4,0,2.7,0.6,3.6,1.5
	c0.9,0.9,1.5,2.2,1.5,3.5c0,1.4-0.6,2.7-1.5,3.6c-0.9,0.9-2.2,1.5-3.6,1.5c-1.4,0-2.7-0.6-3.6-1.5c-0.9-0.9-1.5-2.2-1.5-3.6H522.5
	L522.5,348.6z"/>
<path class="st4" d="M522,348.6c0,3.3,2.7,6,6.1,6c3.3,0,6.1-2.7,6.1-6c0-3.3-2.7-6-6.1-6C524.8,342.5,522,345.2,522,348.6
	c0,0.4,0.3,0.7,0.7,0.7c0.4,0,0.7-0.3,0.7-0.7c0-1.3,0.5-2.4,1.3-3.2c0.8-0.8,2-1.3,3.3-1.3c1.3,0,2.4,0.5,3.3,1.3
	c0.8,0.8,1.3,2,1.3,3.2c0,1.3-0.5,2.4-1.3,3.2c-0.8,0.8-2,1.3-3.3,1.3c-1.3,0-2.4-0.5-3.3-1.3c-0.8-0.8-1.3-2-1.3-3.2
	c0-0.4-0.3-0.7-0.7-0.7C522.4,347.8,522,348.2,522,348.6L522,348.6z"/>
<path class="st2" d="M429.8,313.6c-3.6-3.7-7.8-7.9-13.1-13.2c-2.5-2.5-5.2-4.3-7.9-5.5c-2.7-1.2-5.4-1.7-8.2-1.7
	c-5.4,0-10.8,1.9-16,4.8c-7.8,4.3-15.4,10.5-22.2,15.7c-3.4,2.6-6.6,4.9-9.6,6.6c-2.9,1.7-5.6,2.6-7.7,2.6c-3.4,0-6-0.9-8.5-2.3
	c-3.7-2.1-7-5.4-11-8.3c-4.1-2.9-9-5.2-16-5.2c-4.3,0-7.9,1.4-11,3.5c-4.7,3.1-8.4,7.6-12.6,11.2c-2.1,1.8-4.4,3.4-6.9,4.6
	c-2.5,1.1-5.4,1.8-8.8,1.8c-0.1,0-0.2,0-0.3,0.1v2.2c0.1,0,0.2,0.1,0.3,0.1c4.9,0,9-1.4,12.4-3.5c5.2-3.1,9-7.6,13.1-11.3
	c2-1.8,4.1-3.4,6.3-4.6c2.2-1.1,4.7-1.8,7.5-1.8c4.3,0,7.6,0.9,10.5,2.4c4.4,2.1,7.7,5.4,11.4,8.2c1.8,1.4,3.8,2.7,6,3.7
	c2.2,1,4.7,1.6,7.5,1.6c1.9,0,3.8-0.5,5.8-1.4c3.5-1.5,7.2-4,11.2-7c5.9-4.4,12.3-9.8,18.9-14c6.6-4.2,13.3-7.3,19.6-7.3
	c2.5,0,4.9,0.5,7.3,1.5c2.4,1,4.8,2.6,7.1,5c5.3,5.3,9.5,9.5,13,13.2c0.4,0.5,1.2,0.5,1.6,0C430.2,314.8,430.2,314,429.8,313.6
	L429.8,313.6z"/>
<path class="st4" d="M449.6,340.9c-0.4,0-0.7-0.1-0.9-0.4l-1.8-2.2c-0.4-0.5-0.3-1.3,0.2-1.7c0.5-0.4,1.3-0.4,1.7,0.2l1.8,2.2
	c0.4,0.5,0.3,1.3-0.2,1.7C450.2,340.9,449.9,340.9,449.6,340.9L449.6,340.9z"/>
<path class="st2" d="M454.6,346.7c-0.3,0-0.7-0.1-0.9-0.4l-2.3-2.8c-0.4-0.5-0.4-1.3,0.2-1.7c0.5-0.4,1.3-0.3,1.7,0.2l2.3,2.8
	c0.4,0.5,0.4,1.3-0.2,1.7C455.1,346.6,454.9,346.7,454.6,346.7L454.6,346.7z"/>
<path class="st2" d="M439.4,328.3c-0.4,0-0.7-0.1-0.9-0.4c-0.6-0.8-1.3-1.5-1.9-2.3c-0.4-0.5-0.4-1.3,0.2-1.7
	c0.5-0.4,1.3-0.4,1.7,0.2c0.7,0.8,1.3,1.6,2,2.3c0.4,0.5,0.4,1.3-0.2,1.7C439.9,328.2,439.7,328.3,439.4,328.3L439.4,328.3z"/>
<path class="st4" d="M434.5,322.5c-0.3,0-0.7-0.1-0.9-0.4c-0.6-0.8-1.3-1.5-2-2.3c-0.4-0.5-0.4-1.3,0.1-1.7c0.5-0.4,1.3-0.4,1.7,0.1
	c0.7,0.8,1.3,1.6,2,2.3c0.4,0.5,0.4,1.3-0.1,1.7C435.1,322.4,434.8,322.5,434.5,322.5L434.5,322.5z"/>
<path class="st4" d="M446.6,329.3c-1.4-1.4-3.8-1.4-5.2,0c-1.4,1.4-1.4,3.8,0,5.2c1.4,1.4,3.8,1.4,5.2,0
	C448.1,333.1,448.1,330.7,446.6,329.3L446.6,329.3z"/>
<path class="st2" d="M446.6,329.3l0.4-0.4c-0.8-0.8-1.9-1.2-3-1.2c-1.1,0-2.2,0.4-3,1.2c-0.8,0.8-1.2,1.9-1.2,3c0,1.1,0.4,2.2,1.2,3
	c0.8,0.8,1.9,1.2,3,1.2c1.1,0,2.2-0.4,3-1.2c0.8-0.8,1.2-1.9,1.2-3c0-1.1-0.4-2.1-1.2-3L446.6,329.3l-0.4,0.4
	c0.6,0.6,0.9,1.4,0.9,2.2c0,0.8-0.3,1.6-0.9,2.2c-0.6,0.6-1.4,0.9-2.3,0.9c-0.8,0-1.6-0.3-2.3-0.9c-0.6-0.6-0.9-1.4-0.9-2.2
	c0-0.8,0.3-1.6,0.9-2.2c0.6-0.6,1.4-0.9,2.3-0.9c0.8,0,1.6,0.3,2.3,0.9L446.6,329.3L446.6,329.3z"/>
<path class="st2" d="M544.3,329.3c-1.4-1.4-3.8-1.4-5.2,0c-1.4,1.4-1.4,3.8,0,5.2c1.4,1.4,3.8,1.4,5.2,0
	C545.8,333.1,545.8,330.7,544.3,329.3L544.3,329.3z"/>
<path class="st4" d="M544.3,329.3l0.2-0.2c-0.8-0.8-1.8-1.2-2.8-1.2c-1,0-2,0.4-2.8,1.2c-0.8,0.8-1.2,1.8-1.2,2.8c0,1,0.4,2,1.2,2.8
	c0.8,0.8,1.8,1.2,2.8,1.2c1,0,2-0.4,2.8-1.2c0.8-0.8,1.2-1.8,1.2-2.8c0-1-0.4-2-1.2-2.8L544.3,329.3l-0.2,0.2c0.7,0.7,1,1.5,1,2.4
	c0,0.9-0.3,1.7-1,2.4c-0.7,0.7-1.5,1-2.4,1c-0.9,0-1.8-0.3-2.4-1c-0.7-0.7-1-1.5-1-2.4c0-0.9,0.3-1.7,1-2.4c0.7-0.7,1.5-1,2.4-1
	s1.8,0.3,2.4,1L544.3,329.3L544.3,329.3z"/>
<path class="st4" d="M544.3,329.3l0.4-0.4c-0.8-0.8-1.9-1.2-3-1.2c-1.1,0-2.2,0.4-3,1.2c-0.8,0.8-1.2,1.9-1.2,3c0,1.1,0.4,2.1,1.2,3
	c0.8,0.8,1.9,1.2,3,1.2c1.1,0,2.2-0.4,3-1.2c0.8-0.8,1.2-1.9,1.2-3c0-1.1-0.4-2.1-1.2-3L544.3,329.3l-0.4,0.4
	c0.6,0.6,0.9,1.4,0.9,2.2c0,0.8-0.3,1.6-0.9,2.2c-0.6,0.6-1.4,0.9-2.3,0.9c-0.8,0-1.6-0.3-2.3-0.9c-0.6-0.6-0.9-1.4-0.9-2.2
	c0-0.8,0.3-1.6,0.9-2.2c0.6-0.6,1.4-0.9,2.3-0.9c0.8,0,1.6,0.3,2.3,0.9L544.3,329.3L544.3,329.3z"/>
<path class="st4" d="M431,312.1c-1.4-1.4-3.8-1.4-5.2,0c-1.4,1.4-1.4,3.8,0,5.2c1.4,1.4,3.8,1.4,5.2,0
	C432.4,315.9,432.4,313.5,431,312.1L431,312.1z"/>
<path class="st2" d="M431,312.1l0.4-0.4c-0.8-0.8-1.9-1.2-3-1.2c-1.1,0-2.2,0.4-3,1.2c-0.8,0.8-1.2,1.9-1.2,3c0,1.1,0.4,2.2,1.2,3
	c0.8,0.8,1.9,1.2,3,1.2c1.1,0,2.2-0.4,3-1.2s1.2-1.9,1.2-3c0-1.1-0.4-2.2-1.2-3L431,312.1l-0.4,0.4c0.6,0.6,0.9,1.4,0.9,2.2
	s-0.3,1.6-0.9,2.2c-0.6,0.6-1.4,0.9-2.3,0.9c-0.8,0-1.6-0.3-2.3-0.9c-0.6-0.6-0.9-1.4-0.9-2.2c0-0.8,0.3-1.6,0.9-2.2
	c0.6-0.6,1.4-0.9,2.3-0.9c0.8,0,1.6,0.3,2.3,0.9L431,312.1L431,312.1z"/>
<path class="st2" d="M554.7,312.1c-1.4-1.4-3.8-1.4-5.2,0c-1.4,1.4-1.4,3.8,0,5.2c1.4,1.4,3.8,1.4,5.2,0
	C556.2,315.9,556.2,313.5,554.7,312.1L554.7,312.1z"/>
<path class="st4" d="M554.7,312.1l0.2-0.2c-0.8-0.8-1.8-1.2-2.8-1.2c-1,0-2,0.4-2.8,1.2c-0.8,0.8-1.2,1.8-1.2,2.8c0,1,0.4,2,1.2,2.8
	c0.8,0.8,1.8,1.2,2.8,1.2c1,0,2-0.4,2.8-1.2c0.8-0.8,1.2-1.8,1.2-2.8c0-1-0.4-2-1.2-2.8L554.7,312.1l-0.2,0.2c0.7,0.7,1,1.5,1,2.4
	c0,0.9-0.3,1.7-1,2.4c-0.7,0.7-1.5,1-2.4,1c-0.9,0-1.8-0.3-2.4-1c-0.7-0.7-1-1.5-1-2.4c0-0.9,0.3-1.7,1-2.4c0.7-0.7,1.5-1,2.4-1
	c0.9,0,1.8,0.3,2.4,1L554.7,312.1L554.7,312.1z"/>
<path class="st4" d="M554.8,312.1l0.4-0.4c-0.8-0.8-1.9-1.2-3-1.2c-1.1,0-2.2,0.4-3,1.2c-0.8,0.8-1.2,1.9-1.2,3c0,1.1,0.4,2.1,1.2,3
	c0.8,0.8,1.9,1.2,3,1.2c1.1,0,2.2-0.4,3-1.2c0.8-0.8,1.2-1.9,1.2-3c0-1.1-0.4-2.2-1.2-3L554.8,312.1l-0.4,0.4
	c0.6,0.6,0.9,1.4,0.9,2.2s-0.3,1.6-0.9,2.2c-0.6,0.6-1.4,0.9-2.3,0.9c-0.8,0-1.6-0.3-2.3-0.9c-0.6-0.6-0.9-1.4-0.9-2.2
	s0.3-1.6,0.9-2.2c0.6-0.6,1.4-0.9,2.3-0.9c0.8,0,1.6,0.3,2.3,0.9L554.8,312.1L554.8,312.1z"/>
<path class="st4" d="M462,345.4c-2.1-2.1-5.5-2.1-7.5,0s-2.1,5.4,0,7.5s5.5,2.1,7.5,0C464.1,350.8,464.1,347.4,462,345.4L462,345.4z
	"/>
<path class="st2" d="M462,345.4l0.5-0.5c-1.2-1.2-2.7-1.8-4.3-1.8c-1.5,0-3.1,0.6-4.3,1.8c-1.2,1.2-1.8,2.7-1.8,4.3
	c0,1.5,0.6,3.1,1.8,4.3c1.2,1.2,2.7,1.8,4.3,1.8c1.5,0,3.1-0.6,4.3-1.8c1.2-1.2,1.8-2.7,1.8-4.3c0-1.6-0.6-3.1-1.8-4.3L462,345.4
	l-0.5,0.5c0.9,0.9,1.3,2.1,1.3,3.2c0,1.2-0.4,2.3-1.3,3.2c-0.9,0.9-2.1,1.3-3.3,1.3c-1.2,0-2.4-0.5-3.3-1.3
	c-0.9-0.9-1.3-2.1-1.3-3.2c0-1.2,0.4-2.3,1.3-3.2c0.9-0.9,2.1-1.3,3.3-1.3c1.2,0,2.4,0.4,3.3,1.3L462,345.4L462,345.4z"/>
<path class="st2" d="M436.4,366.7l22.7-17.5c0.2-0.1,0.2-0.4,0.1-0.6c-0.1-0.2-0.4-0.2-0.6-0.1l-22.7,17.5c-0.2,0.1-0.2,0.4-0.1,0.6
	C436,366.8,436.2,366.9,436.4,366.7"/>
<path class="st2" d="M264.3,350.8v-0.8h-2.5v-1.2c0-1.5-0.9-1.8-1.6-1.8c-0.7,0-1.6,0.4-1.6,1.8v2H264.3L264.3,350.8z M259.3,350.1
	v-1c0-0.6,0.1-1.2,0.9-1.2c0.8,0,0.9,0.6,0.9,1.2v1H259.3L259.3,350.1z M264.3,346.2v-0.8h-2.5v-0.9l2.5-1.4v-1l-2.6,1.6
	c-0.1-0.9-0.8-1.4-1.5-1.4c-0.7,0-1.6,0.4-1.6,1.8v2H264.3L264.3,346.2z M259.3,345.4v-1c0-0.6,0.1-1.2,0.9-1.2
	c0.8,0,0.9,0.6,0.9,1.2v1H259.3L259.3,345.4z M264.3,341.3v-0.8h-5.7v0.8H264.3L264.3,341.3z M259.4,334.5c-0.6,0.5-0.9,1.2-0.9,2
	c0,1.8,1.3,3,3.1,3c1.4,0,3-1.1,3-2.9c0-1.3-0.8-2-1-2.2L263,335c0.5,0.3,0.8,0.8,0.8,1.5c0,1.3-1,2.1-2.2,2.1
	c-1.3,0-2.3-0.8-2.3-2.1c0-0.5,0.2-1.1,0.7-1.4L259.4,334.5L259.4,334.5z M264.3,333.5v-3.8h-0.7v3.1h-1.8V330h-0.7v2.7h-1.7v-2.9
	h-0.7v3.7H264.3L264.3,333.5z"/>
<path class="st2" d="M431.1,420.5h0.8v-4.8h1.8V415h-4.3v0.7h1.8V420.5L431.1,420.5z M434.4,420.5h0.8V415h-0.8V420.5L434.4,420.5z
	 M436.4,420.5h0.8V416h0l1.9,4.6h0.5l1.9-4.6h0v4.6h0.8V415h-1.1l-1.7,4.2h0l-1.8-4.2h-1.1V420.5L436.4,420.5z M443.6,420.5h3.7
	v-0.7h-3v-1.8h2.6v-0.7h-2.6v-1.7h2.8V415h-3.6V420.5L443.6,420.5z"/>
<path class="st1" d="M377.2,372.2c0,0-1.6,0-1.6,1.6v21.6c0,0,0,1.6,1.6,1.6h61.4c0,0,1.6,0,1.6-1.6v-21.6c0,0,0-1.6-1.6-1.6H377.2
	L377.2,372.2z"/>
<path class="st2" d="M385,370.6h1l2.1,5h-1.1l-0.5-1.1h-2.1l-0.5,1.1h-1.1L385,370.6L385,370.6z M386.1,373.6l-0.7-1.6l-0.7,1.6
	H386.1L386.1,373.6z"/>
<path class="st2" d="M388.9,370.7h1.9c1.5,0,2.6,1.1,2.6,2.4v0c0,1.4-1.1,2.5-2.6,2.5h-1.9V370.7L388.9,370.7z M390,371.7v3h0.8
	c0.9,0,1.5-0.6,1.5-1.5v0c0-0.9-0.6-1.5-1.5-1.5H390L390,371.7z"/>
<path class="st2" d="M394,374.9l0.7-0.8c0.3,0.3,0.6,0.5,0.9,0.5c0.4,0,0.7-0.2,0.7-0.8v-3.2h1.1v3.2c0,0.6-0.2,1-0.5,1.3
	c-0.3,0.3-0.7,0.5-1.3,0.5C394.8,375.7,394.3,375.3,394,374.9L394,374.9z"/>
<path class="st2" d="M398.4,373.5v-2.8h1.1v2.8c0,0.8,0.4,1.2,1.1,1.2c0.7,0,1.1-0.4,1.1-1.2v-2.8h1.1v2.8c0,1.5-0.8,2.2-2.2,2.2
	C399.2,375.7,398.4,374.9,398.4,373.5L398.4,373.5z"/>
<path class="st2" d="M403.5,374.9l0.6-0.8c0.4,0.4,0.9,0.6,1.5,0.6c0.4,0,0.7-0.2,0.7-0.5v0c0-0.3-0.2-0.4-1-0.6
	c-1-0.3-1.6-0.5-1.6-1.5v0c0-0.9,0.7-1.5,1.7-1.5c0.7,0,1.3,0.2,1.8,0.6l-0.6,0.8c-0.4-0.3-0.9-0.5-1.3-0.5c-0.4,0-0.6,0.2-0.6,0.4
	v0c0,0.3,0.2,0.4,1.1,0.7c1,0.3,1.6,0.6,1.6,1.5v0c0,1-0.7,1.5-1.8,1.5C404.9,375.7,404.1,375.4,403.5,374.9L403.5,374.9z"/>
<polygon class="st2" points="409.6,371.7 408.1,371.7 408.1,370.7 412.2,370.7 412.2,371.7 410.7,371.7 410.7,375.6 409.6,375.6 
	409.6,371.7 "/>
<polygon class="st2" points="413,370.7 414.2,370.7 415.5,372.8 416.8,370.7 418,370.7 418,375.6 416.9,375.6 416.9,372.4 
	415.5,374.5 415.5,374.5 414.1,372.4 414.1,375.6 413,375.6 413,370.7 "/>
<polygon class="st2" points="419.2,370.7 422.9,370.7 422.9,371.6 420.3,371.6 420.3,372.6 422.6,372.6 422.6,373.6 420.3,373.6 
	420.3,374.7 423,374.7 423,375.6 419.2,375.6 419.2,370.7 "/>
<polygon class="st2" points="424,370.7 425,370.7 427.3,373.7 427.3,370.7 428.4,370.7 428.4,375.6 427.4,375.6 425.1,372.5 
	425.1,375.6 424,375.6 424,370.7 "/>
<polygon class="st2" points="430.7,371.7 429.2,371.7 429.2,370.7 433.3,370.7 433.3,371.7 431.8,371.7 431.8,375.6 430.7,375.6 
	430.7,371.7 "/>
<path class="st2" d="M377.2,379h0.5v0.6c0.2-0.4,0.6-0.7,1.2-0.7c0.6,0,1,0.3,1.2,0.7c0.3-0.4,0.6-0.7,1.3-0.7
	c0.8,0,1.4,0.6,1.4,1.5v2.2h-0.5v-2.1c0-0.7-0.4-1.1-0.9-1.1c-0.5,0-1,0.4-1,1.1v2.1h-0.5v-2.1c0-0.7-0.4-1.1-0.9-1.1s-1,0.5-1,1.1
	v2.1h-0.5V379L377.2,379z"/>
<path class="st2" d="M383.8,380.9L383.8,380.9c0-1,0.8-1.9,1.9-1.9c1.1,0,1.9,0.9,1.9,1.9v0c0,1-0.8,1.9-1.9,1.9
	C384.6,382.7,383.8,381.9,383.8,380.9L383.8,380.9z M387,380.9L387,380.9c0-0.8-0.6-1.4-1.4-1.4c-0.8,0-1.3,0.6-1.3,1.4v0
	c0,0.8,0.6,1.4,1.3,1.4C386.5,382.3,387,381.6,387,380.9L387,380.9z"/>
<path class="st2" d="M388.6,379h0.5v1c0.3-0.6,0.8-1,1.5-1v0.6h0c-0.8,0-1.4,0.6-1.4,1.7v1.5h-0.5V379L388.6,379z"/>
<path class="st2" d="M391.3,380.8L391.3,380.8c0-1.1,0.7-1.9,1.7-1.9c1.1,0,1.7,0.9,1.7,1.9l0,0.2h-2.9c0.1,0.8,0.6,1.2,1.3,1.2
	c0.5,0,0.9-0.2,1.1-0.5l0.3,0.3c-0.4,0.4-0.8,0.7-1.5,0.7C392.1,382.7,391.3,382,391.3,380.8L391.3,380.8z M394.2,380.6
	c-0.1-0.7-0.4-1.2-1.2-1.2c-0.6,0-1.1,0.5-1.2,1.2H394.2L394.2,380.6z"/>
<path class="st2" d="M397.7,380.8L397.7,380.8c0-1.1,0.7-1.9,1.7-1.9c1.1,0,1.7,0.9,1.7,1.9l0,0.2h-2.9c0.1,0.8,0.6,1.2,1.3,1.2
	c0.5,0,0.9-0.2,1.1-0.5l0.3,0.3c-0.4,0.4-0.8,0.7-1.5,0.7C398.5,382.7,397.7,382,397.7,380.8L397.7,380.8z M400.6,380.6
	c-0.1-0.7-0.4-1.2-1.2-1.2c-0.6,0-1.1,0.5-1.2,1.2H400.6L400.6,380.6z"/>
<polygon class="st2" points="403.5,380.4 404.6,379 405.2,379 403.8,380.8 405.3,382.7 404.6,382.7 403.5,381.2 402.4,382.7 
	401.8,382.7 403.2,380.8 401.8,379 402.5,379 403.5,380.4 "/>
<path class="st2" d="M406.2,379h0.5v0.7c0.3-0.4,0.7-0.8,1.4-0.8c0.9,0,1.7,0.7,1.7,1.9v0c0,1.2-0.9,1.9-1.7,1.9
	c-0.7,0-1.1-0.4-1.4-0.8v1.8h-0.5V379L406.2,379z M409.3,380.8L409.3,380.8c0-0.9-0.6-1.4-1.3-1.4c-0.7,0-1.3,0.6-1.3,1.4v0
	c0,0.8,0.6,1.4,1.3,1.4C408.7,382.2,409.3,381.7,409.3,380.8L409.3,380.8z"/>
<path class="st2" d="M410.7,380.9L410.7,380.9c0-1,0.8-1.9,1.9-1.9c1.1,0,1.9,0.9,1.9,1.9v0c0,1-0.8,1.9-1.9,1.9
	C411.5,382.7,410.7,381.9,410.7,380.9L410.7,380.9z M414,380.9L414,380.9c0-0.8-0.6-1.4-1.4-1.4c-0.8,0-1.3,0.6-1.3,1.4v0
	c0,0.8,0.6,1.4,1.3,1.4C413.4,382.3,414,381.6,414,380.9L414,380.9z"/>
<path class="st2" d="M415.2,382.2l0.3-0.4c0.4,0.3,0.8,0.5,1.3,0.5c0.4,0,0.8-0.2,0.8-0.6v0c0-0.4-0.4-0.5-0.9-0.6
	c-0.6-0.2-1.2-0.4-1.2-1v0c0-0.6,0.5-1,1.2-1c0.4,0,0.9,0.2,1.3,0.4l-0.2,0.4c-0.3-0.2-0.7-0.3-1.1-0.3c-0.4,0-0.7,0.2-0.7,0.5v0
	c0,0.4,0.5,0.5,0.9,0.6c0.6,0.2,1.2,0.4,1.2,1v0c0,0.7-0.6,1.1-1.3,1.1C416.2,382.7,415.6,382.5,415.2,382.2L415.2,382.2z"/>
<path class="st2" d="M419,381.3V379h0.5v2.1c0,0.7,0.4,1.1,1,1.1c0.6,0,1.1-0.5,1.1-1.1V379h0.5v3.6h-0.5V382
	c-0.2,0.4-0.6,0.7-1.2,0.7C419.6,382.7,419,382.2,419,381.3L419,381.3z"/>
<path class="st2" d="M423.5,379h0.5v1c0.3-0.6,0.8-1,1.5-1v0.6h0c-0.8,0-1.4,0.6-1.4,1.7v1.5h-0.5V379L423.5,379z"/>
<path class="st2" d="M426.2,380.8L426.2,380.8c0-1.1,0.7-1.9,1.7-1.9c1.1,0,1.7,0.9,1.7,1.9l0,0.2h-2.9c0.1,0.8,0.6,1.2,1.3,1.2
	c0.5,0,0.9-0.2,1.1-0.5l0.3,0.3c-0.4,0.4-0.8,0.7-1.5,0.7C427,382.7,426.2,382,426.2,380.8L426.2,380.8z M429.1,380.6
	c-0.1-0.7-0.4-1.2-1.2-1.2c-0.6,0-1.1,0.5-1.2,1.2H429.1L429.1,380.6z"/>
<path class="st2" d="M433,381.7v-2.2h-0.5V379h0.5v-1.1h0.5v1.1h1.2v0.5h-1.2v2.1c0,0.5,0.2,0.6,0.6,0.6c0.2,0,0.3,0,0.5-0.1v0.5
	c-0.2,0.1-0.4,0.2-0.7,0.2C433.4,382.7,433,382.4,433,381.7L433,381.7z"/>
<path class="st2" d="M435.5,380.9L435.5,380.9c0-1,0.8-1.9,1.9-1.9c1.1,0,1.9,0.9,1.9,1.9v0c0,1-0.8,1.9-1.9,1.9
	C436.2,382.7,435.5,381.9,435.5,380.9L435.5,380.9z M438.7,380.9L438.7,380.9c0-0.8-0.6-1.4-1.4-1.4c-0.8,0-1.3,0.6-1.3,1.4v0
	c0,0.8,0.6,1.4,1.3,1.4C438.1,382.3,438.7,381.6,438.7,380.9L438.7,380.9z"/>
<path class="st2" d="M384.8,386.6h-0.5v-0.5h0.5v-0.3c0-0.4,0.1-0.7,0.3-0.9c0.2-0.2,0.4-0.3,0.8-0.3c0.3,0,0.4,0,0.6,0.1v0.5
	c-0.2,0-0.3-0.1-0.5-0.1c-0.4,0-0.6,0.2-0.6,0.8v0.3h1.2v0.5h-1.1v3.2h-0.5V386.6L384.8,386.6z"/>
<path class="st2" d="M387.3,384.7h0.6v0.6h-0.6V384.7L387.3,384.7z M387.3,386.1h0.5v3.6h-0.5V386.1L387.3,386.1z"/>
<polygon class="st2" points="390.6,387.5 391.7,386.1 392.3,386.1 390.9,387.8 392.3,389.7 391.7,389.7 390.6,388.2 389.5,389.7 
	388.8,389.7 390.3,387.9 388.9,386.1 389.5,386.1 390.6,387.5 "/>
<path class="st2" d="M393,387.9L393,387.9c0-1.1,0.7-1.9,1.7-1.9c1.1,0,1.7,0.9,1.7,1.9l0,0.2h-2.9c0.1,0.8,0.6,1.2,1.3,1.2
	c0.5,0,0.9-0.2,1.1-0.5l0.3,0.3c-0.4,0.4-0.8,0.7-1.5,0.7C393.9,389.8,393,389,393,387.9L393,387.9z M395.9,387.7
	c-0.1-0.7-0.4-1.2-1.2-1.2c-0.6,0-1.1,0.5-1.2,1.2H395.9L395.9,387.7z"/>
<path class="st2" d="M397.3,387.9L397.3,387.9c0-1.2,0.9-1.9,1.7-1.9c0.7,0,1.1,0.4,1.4,0.8v-2.2h0.5v5.1h-0.5V389
	c-0.3,0.4-0.7,0.8-1.4,0.8C398.2,389.8,397.3,389.1,397.3,387.9L397.3,387.9z M400.4,387.9L400.4,387.9c0-0.8-0.6-1.4-1.3-1.4
	c-0.7,0-1.3,0.5-1.3,1.4v0c0,0.9,0.6,1.4,1.3,1.4C399.8,389.3,400.4,388.7,400.4,387.9L400.4,387.9z"/>
<polygon class="st2" points="402.1,387.3 404,387.3 404,387.9 402.1,387.9 402.1,387.3 "/>
<path class="st2" d="M405.2,384.7h0.6v0.6h-0.6V384.7L405.2,384.7z M405.2,386.1h0.5v3.6h-0.5V386.1L405.2,386.1z"/>
<path class="st2" d="M407.1,386.1h0.5v0.6c0.2-0.4,0.6-0.7,1.2-0.7c0.9,0,1.4,0.6,1.4,1.5v2.3h-0.5v-2.1c0-0.7-0.4-1.1-1-1.1
	c-0.6,0-1.1,0.5-1.1,1.1v2.1h-0.5V386.1L407.1,386.1z"/>
<path class="st2" d="M411.2,387.9L411.2,387.9c0-1,0.8-1.9,1.9-1.9c0.7,0,1.1,0.3,1.5,0.6l-0.4,0.4c-0.3-0.3-0.6-0.6-1.1-0.6
	c-0.7,0-1.3,0.6-1.3,1.4v0c0,0.8,0.6,1.4,1.3,1.4c0.5,0,0.8-0.2,1.1-0.5l0.3,0.3c-0.4,0.4-0.8,0.7-1.5,0.7
	C412,389.8,411.2,388.9,411.2,387.9L411.2,387.9z"/>
<path class="st2" d="M415.3,387.9L415.3,387.9c0-1,0.8-1.9,1.9-1.9c1.1,0,1.9,0.9,1.9,1.9v0c0,1-0.8,1.9-1.9,1.9
	C416.1,389.8,415.3,388.9,415.3,387.9L415.3,387.9z M418.5,387.9L418.5,387.9c0-0.8-0.6-1.4-1.4-1.4c-0.8,0-1.3,0.6-1.3,1.4v0
	c0,0.8,0.6,1.4,1.3,1.4C418,389.3,418.5,388.7,418.5,387.9L418.5,387.9z"/>
<path class="st2" d="M420.1,386.1h0.5v0.6c0.2-0.4,0.6-0.7,1.2-0.7c0.6,0,1,0.3,1.2,0.7c0.3-0.4,0.6-0.7,1.3-0.7
	c0.8,0,1.4,0.6,1.4,1.5v2.2h-0.5v-2.1c0-0.7-0.4-1.1-0.9-1.1c-0.5,0-1,0.4-1,1.1v2.1h-0.5v-2.1c0-0.7-0.4-1.1-0.9-1.1s-1,0.5-1,1.1
	v2.1h-0.5V386.1L420.1,386.1z"/>
<path class="st2" d="M426.7,387.9L426.7,387.9c0-1.1,0.7-1.9,1.7-1.9c1.1,0,1.7,0.9,1.7,1.9l0,0.2h-2.9c0.1,0.8,0.6,1.2,1.3,1.2
	c0.5,0,0.9-0.2,1.1-0.5l0.3,0.3c-0.4,0.4-0.8,0.7-1.5,0.7C427.5,389.8,426.7,389,426.7,387.9L426.7,387.9z M429.6,387.7
	c-0.1-0.7-0.4-1.2-1.2-1.2c-0.6,0-1.1,0.5-1.2,1.2H429.6L429.6,387.7z"/>
<path class="st2" d="M430.8,390.3c0.4-0.1,0.5-0.3,0.5-0.6H431V389h0.6v0.6c0,0.6-0.2,0.8-0.8,1L430.8,390.3L430.8,390.3z"/>
<polygon class="st2" points="389.9,391.6 390.5,391.6 390.5,396.8 389.9,396.8 389.9,391.6 "/>
<path class="st2" d="M391.6,394.9L391.6,394.9c0-1.1,0.7-1.9,1.7-1.9c1.1,0,1.7,0.9,1.7,1.9l0,0.2h-2.9c0.1,0.8,0.6,1.2,1.3,1.2
	c0.5,0,0.9-0.2,1.1-0.5l0.3,0.3c-0.4,0.4-0.8,0.7-1.5,0.7C392.4,396.8,391.6,396.1,391.6,394.9L391.6,394.9z M394.4,394.7
	c-0.1-0.7-0.4-1.2-1.2-1.2c-0.6,0-1.1,0.5-1.2,1.2H394.4L394.4,394.7z"/>
<path class="st2" d="M395.7,396.3l0.3-0.4c0.4,0.3,0.8,0.5,1.3,0.5c0.4,0,0.8-0.2,0.8-0.6v0c0-0.4-0.4-0.5-0.9-0.6
	c-0.6-0.2-1.2-0.4-1.2-1v0c0-0.6,0.5-1,1.2-1c0.4,0,0.9,0.2,1.3,0.4l-0.2,0.4c-0.3-0.2-0.7-0.3-1.1-0.3c-0.4,0-0.7,0.2-0.7,0.5v0
	c0,0.3,0.5,0.5,0.9,0.6c0.6,0.2,1.2,0.4,1.2,1v0c0,0.7-0.6,1.1-1.3,1.1C396.7,396.8,396.1,396.6,395.7,396.3L395.7,396.3z"/>
<path class="st2" d="M399.3,396.3l0.3-0.4c0.4,0.3,0.8,0.5,1.3,0.5c0.4,0,0.8-0.2,0.8-0.6v0c0-0.4-0.4-0.5-0.9-0.6
	c-0.6-0.2-1.2-0.4-1.2-1v0c0-0.6,0.5-1,1.2-1c0.4,0,0.9,0.2,1.3,0.4l-0.2,0.4c-0.3-0.2-0.7-0.3-1.1-0.3c-0.4,0-0.7,0.2-0.7,0.5v0
	c0,0.3,0.5,0.5,0.9,0.6c0.6,0.2,1.2,0.4,1.2,1v0c0,0.7-0.6,1.1-1.3,1.1C400.2,396.8,399.7,396.6,399.3,396.3L399.3,396.3z"/>
<path class="st2" d="M405.1,394.9L405.1,394.9c0-1.1,0.7-1.9,1.7-1.9c1.1,0,1.7,0.9,1.7,1.9l0,0.2h-2.9c0.1,0.8,0.6,1.2,1.3,1.2
	c0.5,0,0.9-0.2,1.1-0.5l0.3,0.3c-0.4,0.4-0.8,0.7-1.5,0.7C405.9,396.8,405.1,396.1,405.1,394.9L405.1,394.9z M408,394.7
	c-0.1-0.7-0.4-1.2-1.2-1.2c-0.6,0-1.1,0.5-1.2,1.2H408L408,394.7z"/>
<path class="st2" d="M412.4,396c-0.3,0.4-0.7,0.8-1.4,0.8c-0.9,0-1.7-0.7-1.7-1.9v0c0-1.2,0.9-1.9,1.7-1.9c0.7,0,1.1,0.4,1.4,0.8
	v-0.7h0.5v4.8h-0.5V396L412.4,396z M412.5,394.9L412.5,394.9c0-0.8-0.6-1.4-1.3-1.4c-0.7,0-1.3,0.5-1.3,1.4v0c0,0.9,0.6,1.4,1.3,1.4
	C411.8,396.4,412.5,395.8,412.5,394.9L412.5,394.9z"/>
<path class="st2" d="M414.2,395.4v-2.3h0.5v2.1c0,0.7,0.4,1.1,1,1.1c0.6,0,1.1-0.4,1.1-1.1v-2.1h0.5v3.6h-0.5v-0.6
	c-0.2,0.4-0.6,0.7-1.2,0.7C414.7,396.8,414.2,396.2,414.2,395.4L414.2,395.4z"/>
<path class="st2" d="M418.6,391.7h0.6v0.6h-0.6V391.7L418.6,391.7z M418.7,393.1h0.5v3.6h-0.5V393.1L418.7,393.1z"/>
<path class="st2" d="M420.7,395.8v-2.2h-0.5v-0.5h0.5V392h0.5v1.1h1.2v0.5h-1.2v2.1c0,0.5,0.2,0.6,0.6,0.6c0.2,0,0.3,0,0.5-0.1v0.5
	c-0.2,0.1-0.4,0.1-0.7,0.1C421.2,396.8,420.7,396.5,420.7,395.8L420.7,395.8z"/>
<path class="st2" d="M426.2,393.1h0.6l-1.5,3.8c-0.3,0.8-0.7,1-1.2,1c-0.3,0-0.5-0.1-0.8-0.2l0.2-0.4c0.2,0.1,0.3,0.1,0.6,0.1
	c0.3,0,0.5-0.2,0.7-0.7l-1.7-3.6h0.6l1.3,3L426.2,393.1L426.2,393.1z"/>
<path class="st1" d="M537.5,370.9c0,0-1.6,0-1.6,1.6v18.4c0,0,0,1.6,1.6,1.6h61.4c0,0,1.6,0,1.6-1.6v-18.4c0,0,0-1.6-1.6-1.6H537.5
	L537.5,370.9z"/>
<path class="st2" d="M544.7,370.6h1l2.1,5h-1.1l-0.5-1.1h-2.1l-0.5,1.1h-1.1L544.7,370.6L544.7,370.6z M545.8,373.6l-0.7-1.6
	l-0.7,1.6H545.8L545.8,373.6z"/>
<path class="st2" d="M548.6,370.7h1.9c1.6,0,2.6,1.1,2.6,2.4v0c0,1.4-1.1,2.5-2.6,2.5h-1.9V370.7L548.6,370.7z M549.7,371.7v3h0.8
	c0.9,0,1.5-0.6,1.5-1.5v0c0-0.9-0.6-1.5-1.5-1.5H549.7L549.7,371.7z"/>
<path class="st2" d="M553.7,374.9l0.7-0.8c0.3,0.3,0.6,0.5,0.9,0.5c0.4,0,0.7-0.2,0.7-0.8v-3.2h1.1v3.2c0,0.6-0.2,1-0.5,1.3
	c-0.3,0.3-0.7,0.5-1.3,0.5C554.5,375.7,554,375.3,553.7,374.9L553.7,374.9z"/>
<path class="st2" d="M558.1,373.5v-2.8h1.1v2.8c0,0.8,0.4,1.2,1.1,1.2c0.7,0,1.1-0.4,1.1-1.2v-2.8h1.1v2.8c0,1.5-0.8,2.2-2.2,2.2
	C558.9,375.7,558.1,374.9,558.1,373.5L558.1,373.5z"/>
<path class="st2" d="M563.2,374.9l0.6-0.8c0.4,0.4,0.9,0.6,1.5,0.6c0.4,0,0.7-0.2,0.7-0.5v0c0-0.3-0.2-0.4-1-0.6
	c-1-0.3-1.6-0.5-1.6-1.5v0c0-0.9,0.7-1.5,1.7-1.5c0.7,0,1.3,0.2,1.8,0.6l-0.6,0.8c-0.4-0.3-0.9-0.5-1.3-0.5c-0.4,0-0.6,0.2-0.6,0.4
	v0c0,0.3,0.2,0.4,1.1,0.7c1,0.3,1.6,0.6,1.6,1.5v0c0,1-0.7,1.5-1.8,1.5C564.6,375.7,563.8,375.4,563.2,374.9L563.2,374.9z"/>
<polygon class="st2" points="569.3,371.7 567.8,371.7 567.8,370.7 571.9,370.7 571.9,371.7 570.4,371.7 570.4,375.6 569.3,375.6 
	569.3,371.7 "/>
<polygon class="st2" points="572.7,370.7 573.9,370.7 575.2,372.8 576.5,370.7 577.7,370.7 577.7,375.6 576.6,375.6 576.6,372.4 
	575.2,374.5 575.2,374.5 573.8,372.4 573.8,375.6 572.7,375.6 572.7,370.7 "/>
<polygon class="st2" points="578.9,370.7 582.6,370.7 582.6,371.6 580,371.6 580,372.6 582.3,372.6 582.3,373.6 580,373.6 
	580,374.7 582.7,374.7 582.7,375.6 578.9,375.6 578.9,370.7 "/>
<polygon class="st2" points="583.7,370.7 584.7,370.7 587,373.7 587,370.7 588.1,370.7 588.1,375.6 587.1,375.6 584.8,372.5 
	584.8,375.6 583.7,375.6 583.7,370.7 "/>
<polygon class="st2" points="590.5,371.7 589,371.7 589,370.7 593,370.7 593,371.7 591.5,371.7 591.5,375.6 590.5,375.6 
	590.5,371.7 "/>
<polygon class="st2" points="539.6,377.5 540.2,377.5 540.2,382.7 539.6,382.7 539.6,377.5 "/>
<path class="st2" d="M541.2,380.8L541.2,380.8c0-1.1,0.7-1.9,1.7-1.9c1.1,0,1.7,0.9,1.7,1.9l0,0.2h-2.9c0.1,0.8,0.6,1.2,1.3,1.2
	c0.5,0,0.9-0.2,1.1-0.5l0.3,0.3c-0.4,0.4-0.8,0.7-1.5,0.7C542.1,382.7,541.2,382,541.2,380.8L541.2,380.8z M544.1,380.6
	c-0.1-0.7-0.4-1.2-1.2-1.2c-0.6,0-1.1,0.5-1.2,1.2H544.1L544.1,380.6z"/>
<path class="st2" d="M545.4,382.2l0.3-0.4c0.4,0.3,0.8,0.5,1.3,0.5c0.4,0,0.8-0.2,0.8-0.6v0c0-0.4-0.4-0.5-0.9-0.6
	c-0.6-0.2-1.2-0.4-1.2-1v0c0-0.6,0.5-1,1.2-1c0.4,0,0.9,0.2,1.3,0.4l-0.2,0.4c-0.3-0.2-0.7-0.3-1.1-0.3c-0.4,0-0.7,0.2-0.7,0.5v0
	c0,0.4,0.4,0.5,0.9,0.6c0.6,0.2,1.2,0.4,1.2,1v0c0,0.7-0.6,1.1-1.3,1.1C546.4,382.7,545.8,382.5,545.4,382.2L545.4,382.2z"/>
<path class="st2" d="M548.9,382.2l0.3-0.4c0.4,0.3,0.8,0.5,1.3,0.5c0.4,0,0.8-0.2,0.8-0.6v0c0-0.4-0.4-0.5-0.9-0.6
	c-0.6-0.2-1.2-0.4-1.2-1v0c0-0.6,0.5-1,1.2-1c0.4,0,0.9,0.2,1.3,0.4l-0.2,0.4c-0.3-0.2-0.7-0.3-1.1-0.3c-0.4,0-0.7,0.2-0.7,0.5v0
	c0,0.4,0.5,0.5,0.9,0.6c0.6,0.2,1.2,0.4,1.2,1v0c0,0.7-0.6,1.1-1.3,1.1C549.9,382.7,549.4,382.5,548.9,382.2L548.9,382.2z"/>
<path class="st2" d="M554.8,380.8L554.8,380.8c0-1.1,0.7-1.9,1.7-1.9c1.1,0,1.7,0.9,1.7,1.9l0,0.2h-2.9c0.1,0.8,0.6,1.2,1.3,1.2
	c0.5,0,0.9-0.2,1.1-0.5l0.3,0.3c-0.4,0.4-0.8,0.7-1.5,0.7C555.6,382.7,554.8,382,554.8,380.8L554.8,380.8z M557.6,380.6
	c-0.1-0.7-0.4-1.2-1.2-1.2c-0.6,0-1.1,0.5-1.2,1.2H557.6L557.6,380.6z"/>
<polygon class="st2" points="560.6,380.4 561.7,379 562.3,379 560.9,380.8 562.4,382.7 561.7,382.7 560.6,381.2 559.5,382.7 
	558.9,382.7 560.3,380.8 558.9,379 559.5,379 560.6,380.4 "/>
<path class="st2" d="M563.3,379h0.5v0.7c0.3-0.4,0.7-0.8,1.4-0.8c0.9,0,1.7,0.7,1.7,1.9v0c0,1.2-0.9,1.9-1.7,1.9
	c-0.7,0-1.1-0.4-1.4-0.8v1.8h-0.5V379L563.3,379z M566.4,380.8L566.4,380.8c0-0.9-0.6-1.4-1.3-1.4c-0.7,0-1.3,0.6-1.3,1.4v0
	c0,0.8,0.6,1.4,1.3,1.4C565.8,382.2,566.4,381.7,566.4,380.8L566.4,380.8z"/>
<path class="st2" d="M567.8,380.9L567.8,380.9c0-1,0.8-1.9,1.9-1.9c1.1,0,1.9,0.9,1.9,1.9v0c0,1-0.8,1.9-1.9,1.9
	C568.6,382.7,567.8,381.9,567.8,380.9L567.8,380.9z M571,380.9L571,380.9c0-0.8-0.6-1.4-1.4-1.4c-0.8,0-1.3,0.6-1.3,1.4v0
	c0,0.8,0.6,1.4,1.3,1.4C570.5,382.3,571,381.6,571,380.9L571,380.9z"/>
<path class="st2" d="M572.3,382.2l0.3-0.4c0.4,0.3,0.8,0.5,1.3,0.5c0.4,0,0.8-0.2,0.8-0.6v0c0-0.4-0.4-0.5-0.9-0.6
	c-0.6-0.2-1.2-0.4-1.2-1v0c0-0.6,0.5-1,1.2-1c0.4,0,0.9,0.2,1.3,0.4l-0.2,0.4c-0.3-0.2-0.7-0.3-1.1-0.3c-0.4,0-0.7,0.2-0.7,0.5v0
	c0,0.4,0.5,0.5,0.9,0.6c0.6,0.2,1.2,0.4,1.2,1v0c0,0.7-0.6,1.1-1.3,1.1C573.3,382.7,572.7,382.5,572.3,382.2L572.3,382.2z"/>
<path class="st2" d="M576.1,381.3V379h0.5v2.1c0,0.7,0.4,1.1,1,1.1c0.6,0,1.1-0.5,1.1-1.1V379h0.5v3.6h-0.5V382
	c-0.2,0.4-0.6,0.7-1.2,0.7C576.6,382.7,576.1,382.2,576.1,381.3L576.1,381.3z"/>
<path class="st2" d="M580.6,379h0.5v1c0.3-0.6,0.8-1,1.5-1v0.6h0c-0.8,0-1.4,0.6-1.4,1.7v1.5h-0.5V379L580.6,379z"/>
<path class="st2" d="M583.3,380.8L583.3,380.8c0-1.1,0.7-1.9,1.7-1.9c1.1,0,1.7,0.9,1.7,1.9l0,0.2h-2.9c0.1,0.8,0.6,1.2,1.3,1.2
	c0.5,0,0.9-0.2,1.1-0.5l0.3,0.3c-0.4,0.4-0.8,0.7-1.5,0.7C584.1,382.7,583.3,382,583.3,380.8L583.3,380.8z M586.2,380.6
	c-0.1-0.7-0.4-1.2-1.2-1.2c-0.6,0-1.1,0.5-1.2,1.2H586.2L586.2,380.6z"/>
<path class="st2" d="M590.1,381.7v-2.2h-0.5V379h0.5v-1.1h0.5v1.1h1.2v0.5h-1.2v2.1c0,0.5,0.2,0.6,0.6,0.6c0.2,0,0.3,0,0.5-0.1v0.5
	c-0.2,0.1-0.4,0.2-0.7,0.2C590.5,382.7,590.1,382.4,590.1,381.7L590.1,381.7z"/>
<path class="st2" d="M592.5,380.9L592.5,380.9c0-1,0.8-1.9,1.9-1.9c1.1,0,1.9,0.9,1.9,1.9v0c0,1-0.8,1.9-1.9,1.9
	C593.3,382.7,592.5,381.9,592.5,380.9L592.5,380.9z M595.8,380.9L595.8,380.9c0-0.8-0.6-1.4-1.4-1.4c-0.8,0-1.3,0.6-1.3,1.4v0
	c0,0.8,0.6,1.4,1.3,1.4C595.2,382.3,595.8,381.6,595.8,380.9L595.8,380.9z"/>
<path class="st2" d="M545.4,386.6h-0.5v-0.5h0.5v-0.3c0-0.4,0.1-0.7,0.3-0.9c0.2-0.2,0.5-0.3,0.8-0.3c0.3,0,0.4,0,0.6,0.1v0.5
	c-0.2,0-0.3-0.1-0.5-0.1c-0.4,0-0.6,0.2-0.6,0.8v0.3h1.2v0.5H546v3.2h-0.5V386.6L545.4,386.6z"/>
<path class="st2" d="M547.9,384.7h0.6v0.6h-0.6V384.7L547.9,384.7z M547.9,386.1h0.5v3.6h-0.5V386.1L547.9,386.1z"/>
<polygon class="st2" points="551.2,387.5 552.3,386.1 552.9,386.1 551.5,387.8 552.9,389.7 552.3,389.7 551.2,388.2 550.1,389.7 
	549.4,389.7 550.9,387.9 549.5,386.1 550.1,386.1 551.2,387.5 "/>
<path class="st2" d="M553.6,387.9L553.6,387.9c0-1.1,0.7-1.9,1.7-1.9c1.1,0,1.7,0.9,1.7,1.9l0,0.2h-2.9c0.1,0.8,0.6,1.2,1.3,1.2
	c0.5,0,0.9-0.2,1.1-0.5l0.3,0.3c-0.4,0.4-0.8,0.7-1.5,0.7C554.5,389.8,553.6,389,553.6,387.9L553.6,387.9z M556.5,387.7
	c-0.1-0.7-0.4-1.2-1.2-1.2c-0.6,0-1.1,0.5-1.2,1.2H556.5L556.5,387.7z"/>
<path class="st2" d="M557.9,387.9L557.9,387.9c0-1.2,0.9-1.9,1.7-1.9c0.7,0,1.1,0.4,1.4,0.8v-2.2h0.5v5.1H561V389
	c-0.3,0.4-0.7,0.8-1.4,0.8C558.8,389.8,557.9,389.1,557.9,387.9L557.9,387.9z M561,387.9L561,387.9c0-0.8-0.6-1.4-1.3-1.4
	c-0.7,0-1.3,0.5-1.3,1.4v0c0,0.9,0.6,1.4,1.3,1.4C560.4,389.3,561,388.7,561,387.9L561,387.9z"/>
<polygon class="st2" points="562.7,387.3 564.6,387.3 564.6,387.9 562.7,387.9 562.7,387.3 "/>
<path class="st2" d="M565.8,384.7h0.6v0.6h-0.6V384.7L565.8,384.7z M565.8,386.1h0.5v3.6h-0.5V386.1L565.8,386.1z"/>
<path class="st2" d="M567.7,386.1h0.5v0.6c0.2-0.4,0.6-0.7,1.2-0.7c0.9,0,1.4,0.6,1.4,1.5v2.3h-0.5v-2.1c0-0.7-0.4-1.1-1-1.1
	c-0.6,0-1.1,0.5-1.1,1.1v2.1h-0.5V386.1L567.7,386.1z"/>
<path class="st2" d="M571.8,387.9L571.8,387.9c0-1,0.8-1.9,1.9-1.9c0.7,0,1.1,0.3,1.5,0.6l-0.4,0.4c-0.3-0.3-0.6-0.6-1.1-0.6
	c-0.7,0-1.3,0.6-1.3,1.4v0c0,0.8,0.6,1.4,1.3,1.4c0.5,0,0.8-0.2,1.1-0.5l0.3,0.3c-0.4,0.4-0.8,0.7-1.5,0.7
	C572.6,389.8,571.8,388.9,571.8,387.9L571.8,387.9z"/>
<path class="st2" d="M575.9,387.9L575.9,387.9c0-1,0.8-1.9,1.9-1.9c1.1,0,1.9,0.9,1.9,1.9v0c0,1-0.8,1.9-1.9,1.9
	C576.7,389.8,575.9,388.9,575.9,387.9L575.9,387.9z M579.1,387.9L579.1,387.9c0-0.8-0.6-1.4-1.4-1.4c-0.8,0-1.3,0.6-1.3,1.4v0
	c0,0.8,0.6,1.4,1.3,1.4C578.6,389.3,579.1,388.7,579.1,387.9L579.1,387.9z"/>
<path class="st2" d="M580.7,386.1h0.5v0.6c0.2-0.4,0.6-0.7,1.2-0.7c0.6,0,1,0.3,1.2,0.7c0.3-0.4,0.6-0.7,1.3-0.7
	c0.8,0,1.4,0.6,1.4,1.5v2.2h-0.5v-2.1c0-0.7-0.4-1.1-0.9-1.1c-0.5,0-1,0.4-1,1.1v2.1h-0.5v-2.1c0-0.7-0.4-1.1-0.9-1.1
	c-0.6,0-1,0.5-1,1.1v2.1h-0.5V386.1L580.7,386.1z"/>
<path class="st2" d="M587.3,387.9L587.3,387.9c0-1.1,0.7-1.9,1.7-1.9c1.1,0,1.7,0.9,1.7,1.9l0,0.2h-2.9c0.1,0.8,0.6,1.2,1.3,1.2
	c0.5,0,0.9-0.2,1.1-0.5l0.3,0.3c-0.4,0.4-0.8,0.7-1.5,0.7C588.1,389.8,587.3,389,587.3,387.9L587.3,387.9z M590.1,387.7
	c-0.1-0.7-0.4-1.2-1.2-1.2c-0.6,0-1.1,0.5-1.2,1.2H590.1L590.1,387.7z"/>
<path class="st2" d="M495,369.7c0-0.5,0.4-1,0.9-1.1c1.4-0.1,2.8-0.4,4.2-0.7c0.5-0.1,1.1,0.2,1.2,0.7c0.1,0.5-0.2,1.1-0.7,1.2
	c-1.5,0.4-3,0.6-4.5,0.7l-0.1,0C495.5,370.6,495,370.2,495,369.7L495,369.7z"/>
<path class="st4" d="M490.7,370.6c-1.5-0.1-3-0.4-4.5-0.8c-0.5-0.1-0.9-0.7-0.7-1.2c0.1-0.5,0.7-0.9,1.2-0.7
	c1.4,0.4,2.8,0.6,4.2,0.7c0.5,0.1,1,0.5,0.9,1.1C491.7,370.2,491.3,370.6,490.7,370.6L490.7,370.6L490.7,370.6z"/>
<path class="st4" d="M504.3,367.7c-0.2-0.5,0-1.1,0.5-1.3c1.3-0.5,2.6-1.2,3.9-1.9c0.5-0.3,1.1-0.1,1.4,0.4c0.3,0.5,0.1,1.1-0.4,1.4
	c-1.4,0.8-2.7,1.4-4.1,2c-0.1,0.1-0.3,0.1-0.4,0.1C504.9,368.3,504.5,368.1,504.3,367.7L504.3,367.7z"/>
<path class="st2" d="M481.1,368.1c-1.4-0.6-2.7-1.2-4.1-1.9c-0.5-0.3-0.7-0.9-0.4-1.3c0.3-0.5,0.9-0.7,1.4-0.4
	c1.3,0.7,2.6,1.3,3.9,1.9c0.5,0.2,0.8,0.8,0.5,1.3c-0.2,0.4-0.5,0.6-0.9,0.6C481.4,368.2,481.3,368.2,481.1,368.1L481.1,368.1z"/>
<path class="st4" d="M472.5,363.5c-1.2-0.8-2.5-1.7-3.7-2.6c-0.4-0.3-0.5-1-0.2-1.4c0.3-0.4,1-0.5,1.4-0.2c1.2,0.9,2.4,1.7,3.6,2.5
	c0.5,0.3,0.6,0.9,0.3,1.4c-0.2,0.3-0.5,0.4-0.8,0.4C472.9,363.6,472.7,363.6,472.5,363.5L472.5,363.5z"/>
<path class="st2" d="M512.8,363.2c-0.3-0.5-0.2-1.1,0.2-1.4c1.1-0.8,2.3-1.7,3.5-2.6c0.4-0.4,1.1-0.3,1.4,0.1
	c0.4,0.4,0.3,1.1-0.1,1.4c-1.2,1-2.4,1.9-3.6,2.7c-0.2,0.1-0.4,0.2-0.6,0.2C513.3,363.6,513,363.4,512.8,363.2L512.8,363.2z"/>
<path class="st2" d="M269.3,259.5V410c0,0.1,0,0.2,0.1,0.3c0.1,0.1,0.2,0.1,0.3,0.1h303.9c0.2,0,0.4-0.2,0.4-0.4
	c0-0.2-0.2-0.4-0.4-0.4H270V259.5c0-0.2-0.2-0.4-0.4-0.4C269.5,259.1,269.3,259.3,269.3,259.5L269.3,259.5z"/>
<path class="st2" d="M550.9,366.1l-22.7-17.5c-0.2-0.1-0.4-0.1-0.6,0.1c-0.1,0.2-0.1,0.4,0.1,0.6l22.7,17.5c0.2,0.1,0.4,0.1,0.6-0.1
	C551.1,366.5,551.1,366.2,550.9,366.1"/>
<path class="st2" d="M255.8,174.7l0.9-1c1.3,1.2,2.5,1.7,4.2,1.7c1.6,0,2.7-0.9,2.7-2.1v0c0-1.1-0.6-1.8-3.2-2.3
	c-2.8-0.6-4.1-1.5-4.1-3.5v0c0-1.9,1.7-3.3,4-3.3c1.8,0,3.1,0.5,4.3,1.5l-0.8,1.1c-1.1-0.9-2.3-1.3-3.5-1.3c-1.6,0-2.6,0.9-2.6,2v0
	c0,1.2,0.6,1.8,3.3,2.4c2.7,0.6,4,1.6,4,3.5v0c0,2.1-1.7,3.5-4.2,3.5C258.8,176.7,257.2,176,255.8,174.7L255.8,174.7z"/>
<path class="st2" d="M267.5,164h1.5v1.5h-1.5V164L267.5,164z M267.6,167.5h1.3v9h-1.3V167.5L267.6,167.5z"/>
<path class="st2" d="M272.1,167.5h1.3v1.5c0.6-0.9,1.4-1.7,2.9-1.7c1.5,0,2.4,0.8,2.9,1.8c0.6-1,1.6-1.8,3.2-1.8
	c2.1,0,3.3,1.4,3.3,3.6v5.6h-1.3v-5.3c0-1.7-0.9-2.7-2.3-2.7c-1.4,0-2.5,1-2.5,2.8v5.2h-1.3v-5.3c0-1.7-0.9-2.7-2.3-2.7
	c-1.4,0-2.5,1.2-2.5,2.8v5.1h-1.3V167.5L272.1,167.5z"/>
<path class="st2" d="M288.7,167.5h1.3v1.8c0.7-1.1,1.8-2,3.5-2c2.2,0,4.3,1.7,4.3,4.7v0c0,2.9-2.1,4.7-4.3,4.7
	c-1.7,0-2.8-0.9-3.5-1.9v4.5h-1.3V167.5L288.7,167.5z M296.4,172L296.4,172c0-2.2-1.5-3.5-3.2-3.5c-1.7,0-3.3,1.4-3.3,3.5v0
	c0,2.1,1.6,3.5,3.3,3.5C295,175.5,296.4,174.2,296.4,172L296.4,172z"/>
<polygon class="st2" points="300.4,163.7 301.7,163.7 301.7,176.5 300.4,176.5 300.4,163.7 "/>
<path class="st2" d="M304.3,172L304.3,172c0-2.6,1.8-4.7,4.3-4.7c2.7,0,4.2,2.1,4.2,4.8c0,0.2,0,0.3,0,0.4h-7.2
	c0.2,2,1.6,3.1,3.2,3.1c1.2,0,2.1-0.5,2.8-1.3l0.8,0.8c-0.9,1-2,1.7-3.7,1.7C306.3,176.7,304.3,174.8,304.3,172L304.3,172z
	 M311.4,171.5c-0.1-1.6-1.1-3.1-2.9-3.1c-1.6,0-2.8,1.3-2.9,3.1H311.4L311.4,171.5z"/>
<polygon class="st2" points="320.7,164.3 322.1,164.3 322.1,176.5 320.7,176.5 320.7,164.3 "/>
<polygon class="st2" points="325.6,163.7 326.9,163.7 326.9,176.5 325.6,176.5 325.6,163.7 "/>
<polygon class="st2" points="330.2,163.7 331.5,163.7 331.5,176.5 330.2,176.5 330.2,163.7 "/>
<path class="st2" d="M334.5,173.1v-5.6h1.3v5.3c0,1.7,0.9,2.7,2.5,2.7c1.5,0,2.7-1.1,2.7-2.8v-5.2h1.3v9H341v-1.6
	c-0.6,1-1.5,1.8-3.1,1.8C335.8,176.7,334.5,175.2,334.5,173.1L334.5,173.1z"/>
<path class="st2" d="M344.6,175.3l0.7-1c1,0.7,2.1,1.2,3.1,1.2c1.1,0,1.9-0.6,1.9-1.4v0c0-0.9-1.1-1.3-2.2-1.6c-1.4-0.4-3-0.9-3-2.5
	v0c0-1.6,1.3-2.6,3.1-2.6c1.1,0,2.3,0.4,3.2,1l-0.6,1c-0.8-0.5-1.8-0.9-2.7-0.9c-1.1,0-1.7,0.6-1.7,1.3v0c0,0.9,1.1,1.2,2.3,1.6
	c1.4,0.4,2.9,1,2.9,2.6v0c0,1.7-1.4,2.7-3.2,2.7C347.1,176.7,345.6,176.2,344.6,175.3L344.6,175.3z"/>
<path class="st2" d="M354.5,174.1v-5.4h-1.3v-1.2h1.3v-2.7h1.3v2.7h2.9v1.2h-2.9v5.3c0,1.1,0.6,1.5,1.5,1.5c0.5,0,0.8-0.1,1.3-0.3
	v1.2c-0.5,0.2-1,0.4-1.6,0.4C355.6,176.6,354.5,175.9,354.5,174.1L354.5,174.1z"/>
<path class="st2" d="M361.1,167.5h1.3v2.4c0.7-1.5,2-2.6,3.7-2.5v1.4H366c-2,0-3.6,1.4-3.6,4.1v3.6h-1.3V167.5L361.1,167.5z"/>
<path class="st2" d="M366.9,173.9L366.9,173.9c0-1.9,1.6-2.9,3.9-2.9c1.2,0,2,0.2,2.8,0.4V171c0-1.6-1-2.5-2.7-2.5
	c-1.1,0-1.9,0.3-2.7,0.7l-0.4-1.1c1-0.5,2-0.8,3.3-0.8c1.3,0,2.2,0.3,2.9,1c0.6,0.6,0.9,1.5,0.9,2.6v5.5h-1.3v-1.4
	c-0.6,0.8-1.7,1.6-3.3,1.6C368.6,176.7,366.9,175.7,366.9,173.9L366.9,173.9z M373.5,173.2v-0.9c-0.7-0.2-1.6-0.4-2.7-0.4
	c-1.7,0-2.6,0.7-2.6,1.9v0c0,1.1,1,1.8,2.3,1.8C372.2,175.6,373.5,174.6,373.5,173.2L373.5,173.2z"/>
<path class="st2" d="M378.1,174.1v-5.4h-1.3v-1.2h1.3v-2.7h1.3v2.7h2.9v1.2h-2.9v5.3c0,1.1,0.6,1.5,1.5,1.5c0.5,0,0.8-0.1,1.3-0.3
	v1.2c-0.5,0.2-1,0.4-1.6,0.4C379.2,176.6,378.1,175.9,378.1,174.1L378.1,174.1z"/>
<path class="st2" d="M384.8,164h1.5v1.5h-1.5V164L384.8,164z M384.8,167.5h1.3v9h-1.3V167.5L384.8,167.5z"/>
<path class="st2" d="M388.7,172L388.7,172c0-2.6,2-4.7,4.7-4.7c2.7,0,4.7,2.1,4.7,4.7v0c0,2.5-2,4.7-4.7,4.7
	C390.7,176.7,388.7,174.6,388.7,172L388.7,172z M396.8,172L396.8,172c0-2-1.4-3.6-3.3-3.6c-2,0-3.3,1.6-3.3,3.5v0
	c0,1.9,1.4,3.5,3.3,3.5C395.4,175.5,396.8,173.9,396.8,172L396.8,172z"/>
<path class="st2" d="M400.6,167.5h1.3v1.6c0.6-1,1.5-1.8,3.1-1.8c2.2,0,3.5,1.5,3.5,3.6v5.6h-1.3v-5.3c0-1.7-0.9-2.7-2.5-2.7
	c-1.6,0-2.7,1.1-2.7,2.8v5.2h-1.3V167.5L400.6,167.5z"/>
<path class="st2" d="M416,172L416,172c0-2.6,2-4.7,4.7-4.7c2.7,0,4.7,2.1,4.7,4.7v0c0,2.5-2,4.7-4.7,4.7
	C418,176.7,416,174.6,416,172L416,172z M424,172L424,172c0-2-1.4-3.6-3.3-3.6c-2,0-3.3,1.6-3.3,3.5v0c0,1.9,1.4,3.5,3.3,3.5
	C422.7,175.5,424,173.9,424,172L424,172z"/>
<path class="st2" d="M428.3,168.7h-1.2v-1.2h1.2v-0.8c0-1,0.3-1.8,0.8-2.3c0.5-0.5,1.1-0.7,1.9-0.7c0.6,0,1,0.1,1.5,0.2v1.2
	c-0.5-0.1-0.9-0.2-1.3-0.2c-1,0-1.6,0.6-1.6,1.9v0.7h2.9v1.2h-2.8v7.8h-1.3V168.7L428.3,168.7z"/>
<path class="st2" d="M439.7,164.3h5.2c1.5,0,2.7,0.5,3.5,1.2c0.6,0.6,0.9,1.4,0.9,2.4v0c0,2-1.4,3.2-3.3,3.6l3.8,5h-1.7l-3.5-4.7
	h-3.5v4.7h-1.4V164.3L439.7,164.3z M444.8,170.5c1.8,0,3.1-0.9,3.1-2.5v0c0-1.5-1.2-2.4-3.1-2.4h-3.8v5H444.8L444.8,170.5z"/>
<path class="st2" d="M452.1,164h1.5v1.5h-1.5V164L452.1,164z M452.2,167.5h1.3v9h-1.3V167.5L452.2,167.5z"/>
<path class="st2" d="M455.9,175.3l0.7-1c1,0.7,2.1,1.2,3.1,1.2c1.1,0,1.9-0.6,1.9-1.4v0c0-0.9-1.1-1.3-2.2-1.6c-1.4-0.4-3-0.9-3-2.5
	v0c0-1.6,1.3-2.6,3.1-2.6c1.1,0,2.3,0.4,3.2,1l-0.6,1c-0.8-0.5-1.8-0.9-2.7-0.9c-1.1,0-1.7,0.6-1.7,1.3v0c0,0.9,1.1,1.2,2.3,1.6
	c1.4,0.4,2.9,1,2.9,2.6v0c0,1.7-1.4,2.7-3.2,2.7C458.3,176.7,456.9,176.2,455.9,175.3L455.9,175.3z"/>
<polygon class="st2" points="465.3,163.7 466.7,163.7 466.7,172.5 471.5,167.5 473.2,167.5 469.4,171.3 473.3,176.5 471.7,176.5 
	468.5,172.3 466.7,174.1 466.7,176.5 465.3,176.5 465.3,163.7 "/>
<path class="st2" d="M485.2,164.2h1.3l5.6,12.3h-1.5l-1.4-3.2h-6.6l-1.4,3.2h-1.4L485.2,164.2L485.2,164.2z M488.6,172l-2.8-6.2
	l-2.8,6.2H488.6L488.6,172z"/>
<path class="st2" d="M493.5,175.3l0.7-1c1,0.7,2.1,1.2,3.1,1.2c1.1,0,1.9-0.6,1.9-1.4v0c0-0.9-1.1-1.3-2.2-1.6c-1.4-0.4-3-0.9-3-2.5
	v0c0-1.6,1.3-2.6,3.1-2.6c1.1,0,2.3,0.4,3.2,1l-0.6,1c-0.8-0.5-1.8-0.9-2.7-0.9c-1.1,0-1.7,0.6-1.7,1.3v0c0,0.9,1.1,1.2,2.3,1.6
	c1.4,0.4,2.9,1,2.9,2.6v0c0,1.7-1.4,2.7-3.2,2.7C496,176.7,494.5,176.2,493.5,175.3L493.5,175.3z"/>
<path class="st2" d="M502.2,175.3l0.7-1c1,0.7,2.1,1.2,3.1,1.2c1.1,0,1.9-0.6,1.9-1.4v0c0-0.9-1.1-1.3-2.2-1.6c-1.4-0.4-3-0.9-3-2.5
	v0c0-1.6,1.3-2.6,3.1-2.6c1.1,0,2.3,0.4,3.2,1l-0.6,1c-0.8-0.5-1.8-0.9-2.7-0.9c-1.1,0-1.7,0.6-1.7,1.3v0c0,0.9,1.1,1.2,2.3,1.6
	c1.4,0.4,2.9,1,2.9,2.6v0c0,1.7-1.4,2.7-3.2,2.7C504.6,176.7,503.2,176.2,502.2,175.3L502.2,175.3z"/>
<path class="st2" d="M511.7,164h1.5v1.5h-1.5V164L511.7,164z M511.8,167.5h1.3v9h-1.3V167.5L511.8,167.5z"/>
<path class="st2" d="M515.5,175.3l0.7-1c1,0.7,2.1,1.2,3.1,1.2c1.1,0,1.9-0.6,1.9-1.4v0c0-0.9-1.1-1.3-2.2-1.6c-1.4-0.4-3-0.9-3-2.5
	v0c0-1.6,1.3-2.6,3.1-2.6c1.1,0,2.3,0.4,3.2,1l-0.6,1c-0.8-0.5-1.8-0.9-2.7-0.9c-1.1,0-1.7,0.6-1.7,1.3v0c0,0.9,1.1,1.2,2.3,1.6
	c1.4,0.4,2.9,1,2.9,2.6v0c0,1.7-1.4,2.7-3.2,2.7C517.9,176.7,516.5,176.2,515.5,175.3L515.5,175.3z"/>
<path class="st2" d="M525.4,174.1v-5.4h-1.3v-1.2h1.3v-2.7h1.3v2.7h2.9v1.2h-2.9v5.3c0,1.1,0.6,1.5,1.5,1.5c0.5,0,0.8-0.1,1.3-0.3
	v1.2c-0.5,0.2-1,0.4-1.6,0.4C526.5,176.6,525.4,175.9,525.4,174.1L525.4,174.1z"/>
<path class="st2" d="M530.9,167.2L530.9,167.2c0-1.7,1.3-3.1,3-3.1c1.7,0,3,1.4,3,3v0c0,1.7-1.3,3.1-3,3.1
	C532.3,170.2,530.9,168.8,530.9,167.2L530.9,167.2z M536.7,167.2L536.7,167.2c0-1.5-1.2-2.7-2.7-2.7c-1.5,0-2.7,1.2-2.7,2.7v0
	c0,1.5,1.2,2.7,2.7,2.7C535.5,169.9,536.7,168.6,536.7,167.2L536.7,167.2z M532.8,165.5h1.4c0.7,0,1.2,0.3,1.2,1
	c0,0.5-0.3,0.8-0.7,0.9l0.8,1.2h-0.7l-0.7-1.1h-0.6v1.1h-0.6V165.5L532.8,165.5z M534.1,167.1c0.4,0,0.6-0.2,0.6-0.5
	c0-0.3-0.2-0.5-0.6-0.5h-0.8v1H534.1L534.1,167.1z"/>
</svg>
