<?xml version="1.0" encoding="utf-8"?>
<!-- Generator: Adobe Illustrator 19.0.0, SVG Export Plug-In . SVG Version: 6.00 Build 0)  -->
<svg version="1.1" id="Layer_1" xmlns="http://www.w3.org/2000/svg" xmlns:xlink="http://www.w3.org/1999/xlink" x="0px" y="0px"
	 viewBox="0 0 841.9 595.3" style="enable-background:new 0 0 841.9 595.3;" xml:space="preserve">
<style type="text/css">
	.st0{fill:#333E48;}
	.st1{fill:#FFFFFF;}
	.st2{fill:#27AAE1;}
	.st3{font-family:'Avenir-Roman';}
	.st4{font-size:12px;}
	.st5{font-family:'Avenir-Light';}
	.st6{font-size:10px;}
	.st7{font-family:'Avenir-Heavy';}
	.st8{fill:#ABBCD1;}
	.st9{fill:#72963D;}
	.st10{clip-path:url(#SVGID_2_);fill:#E9ECF1;}
	.st11{clip-path:url(#SVGID_4_);fill:#E9ECF1;}
	.st12{fill:#00C1DE;}
</style>
<polygon class="st0" points="631.8,380.5 631.8,214.2 209.9,214.2 209.9,380.5 631.8,380.5 "/>
<polygon class="st1" points="586.1,357.4 587.1,357.4 587.1,269.5 436.4,269.5 436.4,358.4 587.1,358.4 587.1,357.4 586.1,357.4 
	586.1,356.4 438.4,356.4 438.4,271.5 585.1,271.5 585.1,357.4 586.1,357.4 586.1,356.4 586.1,357.4 "/>
<polygon class="st0" points="592.6,325.8 592.6,260.9 530.9,260.9 530.9,325.8 592.6,325.8 "/>
<polygon class="st1" points="388.9,357.2 389.9,357.2 389.9,268.4 239.3,268.4 239.3,358.2 389.9,358.2 389.9,357.2 388.9,357.2 
	388.9,356.2 241.3,356.2 241.3,270.4 387.9,270.4 387.9,357.2 388.9,357.2 388.9,356.2 388.9,357.2 "/>
<polygon class="st0" points="408.9,308 408.9,249.4 352.8,249.4 352.8,308 408.9,308 "/>
<text transform="matrix(1 0 0 1 237.8009 250.7988)" class="st2 st3 st4">Consider this</text>
<text transform="matrix(1 0 0 1 308.1368 250.7988)" class="st2 st3 st4">:</text>
<text transform="matrix(1 0 0 1 255.4259 291.3926)" class="st1 st5 st6">Po</text>
<text transform="matrix(1 0 0 1 267.6525 291.3926)" class="st1 st5 st6">rt</text>
<text transform="matrix(1 0 0 1 275.9913 291.3926)" class="st1 st5 st6">folio in</text>
<text transform="matrix(1 0 0 1 309.0197 291.3926)" class="st1 st5 st6"> </text>
<text transform="matrix(1 0 0 1 255.4259 301.3926)" class="st1 st5 st6">se</text>
<text transform="matrix(1 0 0 1 266.1476 301.3926)" class="st1 st5 st6">ve</text>
<text transform="matrix(1 0 0 1 277.1993 301.3926)" class="st1 st5 st6">re </text>
<text transform="matrix(1 0 0 1 289.8712 301.3926)" class="st1 st5 st6">risk</text>
<text transform="matrix(1 0 0 1 306.1681 301.3926)" class="st1 st5 st6"> </text>
<text transform="matrix(1 0 0 1 255.4259 311.3926)" class="st1 st5 st6">conditions</text>
<text transform="matrix(1 0 0 1 305.9806 311.3926)" class="st1 st5 st6"> </text>
<text transform="matrix(1 0 0 1 255.4259 321.3926)" class="st1 st7 st6">withou</text>
<text transform="matrix(1 0 0 1 290.5665 321.3926)" class="st1 st7 st6">t</text>
<text transform="matrix(1 0 0 1 294.8634 321.3926)" class="st1 st5 st6"> </text>
<text transform="matrix(1 0 0 1 297.8556 321.3926)" class="st1 st5 st6">risk</text>
<text transform="matrix(1 0 0 1 314.1603 321.3926)" class="st1 st5 st6"> </text>
<text transform="matrix(1 0 0 1 255.4259 331.3926)" class="st1 st5 st6">mitigation</text>
<text transform="matrix(1 0 0 1 452.5587 294.6895)" class="st1 st5 st6">Po</text>
<text transform="matrix(1 0 0 1 464.7931 294.6895)" class="st1 st5 st6">rt</text>
<text transform="matrix(1 0 0 1 473.129 294.6895)" class="st1 st5 st6">folio in</text>
<text transform="matrix(1 0 0 1 506.1603 294.6895)" class="st1 st5 st6"> </text>
<text transform="matrix(1 0 0 1 452.5587 304.6895)" class="st1 st5 st6">se</text>
<text transform="matrix(1 0 0 1 463.2853 304.6895)" class="st1 st5 st6">ve</text>
<text transform="matrix(1 0 0 1 474.34 304.6895)" class="st1 st5 st6">re </text>
<text transform="matrix(1 0 0 1 487.0118 304.6895)" class="st1 st5 st6">risk</text>
<text transform="matrix(1 0 0 1 503.3087 304.6895)" class="st1 st5 st6"> </text>
<text transform="matrix(1 0 0 1 452.5587 314.6895)" class="st1 st5 st6">conditions</text>
<text transform="matrix(1 0 0 1 503.1212 314.6895)" class="st1 st5 st6"> </text>
<text transform="matrix(1 0 0 1 452.5587 324.6895)" class="st1 st7 st6">with</text>
<text transform="matrix(1 0 0 1 474.7775 324.6895)" class="st1 st5 st6"> </text>
<text transform="matrix(1 0 0 1 477.7775 324.6895)" class="st1 st5 st6">risk</text>
<text transform="matrix(1 0 0 1 494.0822 324.6895)" class="st1 st5 st6"> </text>
<text transform="matrix(1 0 0 1 452.5587 334.6895)" class="st1 st5 st6">mitigation</text>
<path class="st8" d="M355.1,326.5l10.2-18.8l3.6,3.1l10.2-18.8l3.6,3.1l10.2-18.8l3.6,3.1l6.1-11.2v5.2l-5.3,9.8l-3.6-3.1
	l-10.2,18.8l-3.6-3.1l-10.2,18.8l-3.6-3.1l-10.2,18.8l-3.6-3.1l-9.5,17.5l8.7-21.4L355.1,326.5L355.1,326.5z M389.4,250.7
	l-10.2,18.8l-3.6-3.1l-10.2,18.8l-3.6-3.1L351.6,301l-3.6-3.1l-9.5,17.5l8.7-21.4l3.6,3.1l10.2-18.8l3.6,3.1l10.2-18.8l3.6,3.1
	l10.2-18.8l3.6,3.1l10.2-19.1v5.2l-9.5,17.8L389.4,250.7L389.4,250.7z M336.7,323.5l3.6,3.1l10.2-18.8l3.6,3.1l10.2-18.8l3.6,3.1
	l10.2-18.8l3.6,3.1l10.2-18.8l3.6,3.1l7.1-13.1v5.2l-6.4,11.8l-3.6-3.1l-10.2,18.8l-3.6-3.1L368.5,299L365,296l-10.2,18.8l-3.6-3.1
	L341,330.5l-3.6-3.1l-9.5,17.5L336.7,323.5L336.7,323.5z"/>
<path class="st8" d="M355.1,326.5l-0.4-0.2l10.5-19.4l3.6,3.1l10.2-18.8l3.6,3.1l10.2-18.8l3.6,3.1l5.7-10.6l1,0.2v5.3l-5.7,10.5
	l-3.6-3.1l-10.2,18.8l-3.6-3.1l-10.2,18.8l-3.6-3.1l-10.2,18.8l-3.6-3.1l-9.2,16.9l-0.9-0.4l9-22l4.1,3.6L355.1,326.5l-0.4-0.2
	L355.1,326.5l-0.3,0.4l-3.1-2.6l-4.9,12.1l5.3-9.8l3.6,3.1l10.2-18.8l3.6,3.1l10.2-18.8l3.6,3.1l10.2-18.8l3.6,3.1l5-9.2v-3.1
	l-5.4,9.9L393,277l-10.2,18.8l-3.6-3.1L369,311.6l-3.6-3.1l-10.2,18.8l-0.5-0.4L355.1,326.5L355.1,326.5z M389.4,250.7l0.4,0.2
	l-10.5,19.4l-3.6-3.1l-10.2,18.8L362,283l-10.2,18.8l-3.6-3.1l-9.2,16.9l-0.9-0.4l9-22l3.7,3.2l10.2-18.8l3.6,3.1l10.2-18.8l3.6,3.1
	l10.2-18.8l3.6,3.1l9.9-18.6l1,0.2v5.4l-9.9,18.5l-4.1-3.5L389.4,250.7l0.4,0.2L389.4,250.7l0.3-0.4l3.1,2.7l9.2-17.1v-3.1
	l-9.6,17.9l-3.6-3.1l-10.2,18.8l-3.6-3.1l-10.2,18.8l-3.6-3.1L351,297.9l-3.5-3.1l-4.9,12.1l5.3-9.8l3.6,3.1l10.2-18.8l3.6,3.1
	l10.2-18.8l3.6,3.1l10.2-18.8l0.5,0.4L389.4,250.7L389.4,250.7z M336.7,323.5l0.3-0.4l3.1,2.7l10.2-18.8l3.6,3.1l10.2-18.8l3.6,3.1
	l10.2-18.8l3.6,3.1l10.2-18.8l3.6,3.1l6.8-12.5l1,0.2v5.3l-6.7,12.4l-3.6-3.1l-10.2,18.8l-3.6-3.1l-10.2,18.8l-3.6-3.1l-10.2,18.8
	l-3.6-3.1l-10.2,18.8l-3.6-3.1l-9.2,16.9l-0.9-0.4l9-22l0.5,0.5L336.7,323.5l0.5,0.2l-5.2,12.7l5.3-9.8l3.6,3.1l10.2-18.8l3.6,3.1
	l10.2-18.8l3.6,3.1l10.2-18.8l3.6,3.1l10.2-18.8l3.6,3.1l6-11.1v-3.1l-6.4,11.9l-3.6-3.1l-10.2,18.8l-3.6-3.1L368,295.9l-3.6-3.1
	l-10.2,18.8l-3.6-3.1l-10.2,18.8l-4.1-3.5L336.7,323.5l0.5,0.2L336.7,323.5L336.7,323.5z"/>
<path class="st9" d="M352.1,337.7c-12.7,0-23-10.3-23-23c0-12.7,10.3-23,23-23c12.7,0,23,10.3,23,23
	C375.1,327.3,364.8,337.7,352.1,337.7L352.1,337.7z"/>
<g>
	<defs>
		<path id="SVGID_1_" d="M352.1,337.7c-12.7,0-23-10.3-23-23c0-12.7,10.3-23,23-23c12.7,0,23,10.3,23,23
			C375.1,327.3,364.8,337.7,352.1,337.7"/>
	</defs>
	<clipPath id="SVGID_2_">
		<use xlink:href="#SVGID_1_"  style="overflow:visible;"/>
	</clipPath>
	<path class="st10" d="M355.1,326.5l10.2-18.8l3.6,3.1l10.2-18.8l3.6,3.1l10.2-18.8l3.6,3.1l6.1-11.2v5.2l-5.3,9.8l-3.6-3.1
		l-10.2,18.8l-3.6-3.1l-10.2,18.8l-3.6-3.1l-10.2,18.8l-3.6-3.1l-9.5,17.5l8.7-21.4L355.1,326.5L355.1,326.5z M389.4,250.7
		l-10.2,18.8l-3.6-3.1l-10.2,18.8l-3.6-3.1L351.6,301l-3.6-3.1l-9.5,17.5l8.7-21.4l3.6,3.1l10.2-18.8l3.6,3.1l10.2-18.8l3.6,3.1
		l10.2-18.8l3.6,3.1l10.2-19.1v5.2l-9.5,17.8L389.4,250.7L389.4,250.7z M336.7,323.5l3.6,3.1l10.2-18.8l3.6,3.1l10.2-18.8l3.6,3.1
		l10.2-18.8l3.6,3.1l10.2-18.8l3.6,3.1l7.1-13.1v5.2l-6.4,11.8l-3.6-3.1l-10.2,18.8l-3.6-3.1L368.5,299L365,296l-10.2,18.8l-3.6-3.1
		L341,330.5l-3.6-3.1l-9.5,17.5L336.7,323.5L336.7,323.5z"/>
	<path class="st10" d="M355.1,326.5l-0.4-0.2l10.5-19.4l3.6,3.1l10.2-18.8l3.6,3.1l10.2-18.8l3.6,3.1l5.7-10.6l1,0.2v5.3l-5.7,10.5
		l-3.6-3.1l-10.2,18.8l-3.6-3.1l-10.2,18.8l-3.6-3.1l-10.2,18.8l-3.6-3.1l-9.2,16.9l-0.9-0.4l9-22l4.1,3.6L355.1,326.5l-0.4-0.2
		L355.1,326.5l-0.3,0.4l-3.1-2.6l-4.9,12.1l5.3-9.8l3.6,3.1l10.2-18.8l3.6,3.1l10.2-18.8l3.6,3.1l10.2-18.8l3.6,3.1l5-9.2v-3.1
		l-5.4,9.9L393,277l-10.2,18.8l-3.6-3.1L369,311.6l-3.6-3.1l-10.2,18.8l-0.5-0.4L355.1,326.5L355.1,326.5z M389.4,250.7l0.4,0.2
		l-10.5,19.4l-3.6-3.1l-10.2,18.8L362,283l-10.2,18.8l-3.6-3.1l-9.2,16.9l-0.9-0.4l9-22l3.7,3.2l10.2-18.8l3.6,3.1l10.2-18.8
		l3.6,3.1l10.2-18.8l3.6,3.1l9.9-18.6l1,0.2v5.4l-9.9,18.5l-4.1-3.5L389.4,250.7l0.4,0.2L389.4,250.7l0.3-0.4l3.1,2.7l9.2-17.1v-3.1
		l-9.6,17.9l-3.6-3.1l-10.2,18.8l-3.6-3.1l-10.2,18.8l-3.6-3.1L351,297.9l-3.5-3.1l-4.9,12.1l5.3-9.8l3.6,3.1l10.2-18.8l3.6,3.1
		l10.2-18.8l3.6,3.1l10.2-18.8l0.5,0.4L389.4,250.7L389.4,250.7z M336.7,323.5l0.3-0.4l3.1,2.7l10.2-18.8l3.6,3.1l10.2-18.8l3.6,3.1
		l10.2-18.8l3.6,3.1l10.2-18.8l3.6,3.1l6.8-12.5l1,0.2v5.3l-6.7,12.4l-3.6-3.1l-10.2,18.8l-3.6-3.1l-10.2,18.8l-3.6-3.1l-10.2,18.8
		l-3.6-3.1l-10.2,18.8l-3.6-3.1l-9.2,16.9l-0.9-0.4l9-22l0.5,0.5L336.7,323.5l0.5,0.2l-5.2,12.7l5.3-9.8l3.6,3.1l10.2-18.8l3.6,3.1
		l10.2-18.8l3.6,3.1l10.2-18.8l3.6,3.1l10.2-18.8l3.6,3.1l6-11.1v-3.1l-6.4,11.9l-3.6-3.1l-10.2,18.8l-3.6-3.1L368,295.9l-3.6-3.1
		l-10.2,18.8l-3.6-3.1l-10.2,18.8l-4.1-3.5L336.7,323.5l0.5,0.2L336.7,323.5L336.7,323.5z"/>
</g>
<path class="st1" d="M355.1,324.7v2.8v0.5h-0.5h-4H350v-0.5c0-0.8,0-1.6,0-2.4c-2.5-0.5-4.7-1.8-5.9-3.6l-0.2-0.4l0.3-0.3l2.9-2.6
	l0.4-0.3l0.3,0.4c1.2,1.4,2.8,2.1,4.7,2.1c2.8,0,3-0.7,3-1.5c0-0.8-0.2-1.3-4.1-2.2c-3.4-0.8-6.7-1.9-6.7-6.5c0-3,2-5.2,5.2-6
	c0-0.8,0-1.6,0-2.5v-0.5h0.5h4h0.5v0.5v2.5c1.9,0.4,3.6,1.4,5.1,3l0.4,0.4l-0.4,0.4l-2.9,2.8l-0.4,0.4l-0.4-0.4
	c-1.3-1.3-2.6-1.9-4.2-1.9c-1.1,0-2.4,0.2-2.4,1.2c0,0.8,0.3,1.1,3.6,1.9c2.7,0.6,7.1,1.7,7.1,6.7c0,3.7-2.1,6-6.1,6.6"/>
<path class="st9" d="M354.5,324.7v2.8v0.5h0.5v-0.5h-0.5h-4c0-0.8,0-1.6,0-2.4v-0.4l-0.4-0.1c-2.4-0.5-4.4-1.7-5.6-3.4l0,0l0,0
	l2.9-2.6l0,0c1.3,1.5,3.1,2.3,5.1,2.3c1.4,0,2.2-0.2,2.8-0.6c0.3-0.2,0.5-0.5,0.6-0.7c0.1-0.3,0.1-0.5,0.1-0.7c0-0.2,0-0.5-0.1-0.8
	c-0.1-0.2-0.2-0.4-0.5-0.6c-0.6-0.5-1.7-0.9-3.9-1.4l0,0c-1.7-0.4-3.3-0.9-4.4-1.7c-1.1-0.9-1.9-2.1-1.9-4.3c0-1.4,0.5-2.5,1.3-3.5
	c0.8-0.9,2-1.6,3.6-2l0.4-0.1v-0.4c0-0.8,0-1.6,0-2.5v-0.5H350v0.5h0.5h4h0.5v-0.5h-0.5v0.5v2.9l0.4,0.1c1.8,0.4,3.4,1.3,4.9,2.9
	l0.4,0.4l0.4-0.4l-0.4-0.4l-0.4,0.4l-2.9,2.8l0,0c-1.3-1.4-2.8-2.1-4.6-2.1c-0.6,0-1.2,0-1.8,0.2c-0.3,0.1-0.5,0.3-0.8,0.5
	c-0.2,0.2-0.4,0.6-0.3,0.9c0,0.2,0,0.5,0.2,0.8c0.1,0.2,0.3,0.4,0.5,0.5c0.6,0.4,1.5,0.7,3.4,1.1c1.3,0.3,3,0.7,4.4,1.6
	c0.7,0.4,1.2,1,1.7,1.7c0.4,0.7,0.7,1.6,0.7,2.8c0,1.8-0.5,3.1-1.4,4.1C357.9,323.7,356.5,324.4,354.5,324.7l0.2,1
	c2.1-0.3,3.7-1.1,4.8-2.3c1.1-1.2,1.7-2.9,1.7-4.8c0-1.3-0.3-2.4-0.8-3.3c-0.8-1.3-2-2.2-3.2-2.8c-1.2-0.6-2.5-0.9-3.5-1.1
	c-1.7-0.4-2.6-0.7-2.9-0.9c-0.2-0.1-0.2-0.2-0.3-0.2c0,0,0-0.1,0-0.3c0-0.1,0-0.2,0.1-0.2c0.1-0.1,0.3-0.2,0.7-0.3
	c0.3-0.1,0.7-0.1,1.1-0.1c1.5,0,2.6,0.5,3.8,1.8l0.4,0.4l0.4,0.4l0.7-0.7l2.9-2.8l0.4-0.4l0.4-0.4l-0.7-0.7
	c-1.6-1.6-3.3-2.7-5.4-3.2l-0.1,0.5h0.5v-2.5v-0.5v-0.5h-1h-4H350h-0.5v1c0,0.8,0,1.6,0,2.5h0.5l-0.1-0.5c-1.7,0.4-3.1,1.2-4.1,2.3
	c-1,1.1-1.5,2.6-1.5,4.1c0,2.4,0.9,4,2.3,5.1c1.4,1,3.1,1.5,4.8,1.9l0,0h0c1.9,0.4,2.9,0.8,3.3,1.1c0.2,0.1,0.3,0.2,0.3,0.3
	c0,0.1,0,0.2,0,0.4c0,0.2,0,0.3,0,0.4c-0.1,0.1-0.1,0.2-0.5,0.4c-0.3,0.1-1,0.2-2,0.2c-1.8,0-3.2-0.6-4.4-1.9l-0.3-0.4l-0.3-0.4
	l-0.8,0.7l-2.9,2.6l-0.3,0.3l-0.3,0.3l0.5,0.7c1.3,2,3.6,3.3,6.2,3.9l0.1-0.5h-0.5c0,0.8,0,1.6,0,2.4v0.5v0.5h1h4h0.5h0.5v-1v-2.8
	H354.5L354.5,324.7z"/>
<polygon class="st8" points="550.6,280.6 558.7,266 562,268.9 571.5,251.4 574.8,254.2 584.3,236.7 587.7,239.6 596.6,223.1 
	596.6,228 588.3,243.2 585,240.4 575.5,257.9 572.2,255 562.7,272.5 559.4,269.6 551.3,284.2 550.6,280.6 "/>
<polygon class="st8" points="550.6,280.6 550.2,280.4 558.6,265.2 561.9,268.1 571.4,250.6 574.7,253.5 584.2,236 587.5,238.8 
	596.2,222.9 597.1,223.1 597.1,228.1 588.5,244 585.1,241.1 575.6,258.6 572.3,255.8 562.8,273.3 559.5,270.4 551,285.7 
	550.1,280.5 550.2,280.4 550.6,280.6 551.1,280.5 551.5,282.8 559.2,268.9 562.6,271.7 572,254.2 575.4,257.1 584.9,239.6 
	588.2,242.5 596.1,227.8 596.1,225.1 587.8,240.4 584.5,237.5 575,255 571.7,252.2 562.2,269.7 558.9,266.8 551,280.8 550.6,280.6 
	551.1,280.5 550.6,280.6 "/>
<polyline class="st8" points="551.3,284.3 539.7,266 543.8,264.5 533.9,249 547.3,265.7 543.2,267.2 551.8,280.8 "/>
<polygon class="st8" points="550.9,284.6 539,265.8 543,264.2 533.5,249.2 534.3,248.7 548.1,265.9 543.9,267.4 552.2,280.5 
	551.4,281 542.4,266.9 546.5,265.4 539.2,256.4 544.5,264.8 540.4,266.3 551.7,284 550.9,284.6 "/>
<path class="st8" d="M546.1,314.8l3.6,3.1l10.2-18.8l3.6,3.1l10.2-18.8l3.6,3.1l10.2-18.8l3.6,3.1l6.1-11.2v5.2l-5.3,9.8l-3.6-3.1
	l-10.2,18.8l-3.6-3.1l-10.2,18.8l-3.6-3.1l-10.2,18.8l-3.6-3.1 M545.1,299.3l3.6,3.1l10.2-18.8l3.6,3.1l10.2-18.8l3.6,3.1l10.2-18.8
	l3.6,3.1l7.1-13.1v5.2l-6.4,11.8l-3.6-3.1l-10.2,18.8l-3.6-3.1l-10.2,18.8l-3.6-3.1l-10.2,18.8l-3.6-3.1"/>
<path class="st8" d="M546.4,314.5l3.1,2.7l10.2-18.8l3.6,3.1l10.2-18.8l3.6,3.1l10.2-18.8l3.6,3.1l5.7-10.6l1,0.2v5.3l-5.7,10.5
	l-3.6-3.1l-10.2,18.8l-3.6-3.1l-10.2,18.8l-3.6-3.1l-10.2,18.8l-4-3.5l0.7-0.8l3.1,2.7l10.2-18.8l3.6,3.1l10.2-18.8l3.6,3.1
	l10.2-18.8l3.6,3.1l5-9.2v-3.1l-5.4,9.9l-3.6-3.1l-10.2,18.8l-3.6-3.1L563.6,303l-3.6-3.1l-10.2,18.8l-4.1-3.5L546.4,314.5
	L546.4,314.5z M545.4,298.9l3.1,2.7l10.2-18.8l3.6,3.1l10.2-18.8l3.6,3.1l10.2-18.8l3.6,3.1l6.8-12.5l1,0.2v5.3l-6.7,12.4l-3.6-3.1
	L577,275.5l-3.6-3.1l-10.2,18.8l-3.6-3.1L549.5,307l-4-3.5l0.7-0.8l3.1,2.7l10.2-18.8l3.6,3.1l10.2-18.8l3.6,3.1l10.2-18.8l3.6,3.1
	l6-11.1V244l-6.4,11.9l-3.6-3.1l-10.2,18.8l-3.6-3.1l-10.2,18.8l-3.6-3.1l-10.2,18.8l-4-3.5L545.4,298.9L545.4,298.9z"/>
<polygon class="st8" points="571.3,308.1 576.3,298.6 579.5,301.4 588.8,284.4 592,287.2 596.9,278.1 596.9,282.8 592.6,290.7 
	589.4,287.9 580.2,304.9 576.9,302.2 572.8,310.2 571.3,308.1 "/>
<polygon class="st8" points="571.3,308.1 570.9,307.9 576.2,297.9 579.4,300.7 588.6,283.6 591.8,286.4 596.5,277.9 597.4,278.1 
	597.4,282.9 592.8,291.5 589.5,288.7 580.3,305.7 577.1,302.9 572.9,311.1 570.8,308.2 570.9,307.9 571.3,308.1 571.7,307.9 
	572.7,309.2 576.8,301.4 580,304.2 589.3,287.2 592.5,289.9 596.4,282.7 596.4,280.1 592.1,288 588.9,285.2 579.7,302.2 
	576.5,299.4 571.8,308.4 571.3,308.1 571.7,307.9 571.3,308.1 "/>
<polyline class="st8" points="571.4,308.4 590.4,304.3 590.4,308.5 607.9,304.7 588.2,311.4 588.2,307.1 572.9,310.4 "/>
<polygon class="st8" points="571.3,307.9 590.9,303.7 590.9,307.9 607.7,304.2 608,305.1 587.7,312 587.7,307.7 573,310.9 
	572.8,309.9 588.7,306.5 588.7,310.7 599.1,307.1 589.9,309.2 589.9,304.9 571.5,308.9 571.3,307.9 "/>
<path class="st0" d="M543.3,340.9c-13.1,0-23.7-10.6-23.7-23.7c0-13.1,10.6-23.7,23.7-23.7c13.1,0,23.7,10.6,23.7,23.7
	C567,330.3,556.4,340.9,543.3,340.9L543.3,340.9z"/>
<path class="st9" d="M543.3,337.9c-11.4,0-20.7-9.2-20.7-20.7c0-11.4,9.2-20.7,20.7-20.7s20.7,9.2,20.7,20.7
	C564,328.7,554.7,337.9,543.3,337.9L543.3,337.9z"/>
<g>
	<defs>
		<path id="SVGID_3_" d="M543.3,337.9c-11.4,0-20.7-9.2-20.7-20.7c0-11.4,9.2-20.7,20.7-20.7s20.7,9.2,20.7,20.7
			C564,328.7,554.7,337.9,543.3,337.9"/>
	</defs>
	<clipPath id="SVGID_4_">
		<use xlink:href="#SVGID_3_"  style="overflow:visible;"/>
	</clipPath>
	<polygon class="st11" points="559.5,308.3 571.7,285.7 576,289.4 588.2,266.9 592.5,270.6 604.7,248 609,251.7 616.2,238.3 
		616.2,244.6 609.9,256.3 605.6,252.7 593.3,275.2 589.1,271.5 576.8,294.1 572.6,290.4 560.3,312.9 556.1,309.2 544.7,330.2 
		555.2,304.5 559.5,308.3 	"/>
	<polygon class="st11" points="559.5,308.3 559,308 571.6,284.9 575.8,288.6 588.1,266.1 592.3,269.8 604.6,247.2 608.9,250.9 
		615.8,238.1 616.8,238.3 616.8,244.7 610,257.1 605.7,253.5 593.5,276 589.2,272.3 577,294.9 572.7,291.2 560.5,313.7 556.2,310 
		545.2,330.4 544.2,330 555,303.7 559.8,307.9 559.5,308.3 559,308 559.5,308.3 559.1,308.7 555.4,305.4 548.7,321.7 555.9,308.4 
		560.2,312.1 572.4,289.6 576.7,293.3 588.9,270.7 593.2,274.4 605.4,251.9 609.7,255.5 615.7,244.4 615.7,240.3 609.2,252.5 
		604.9,248.8 592.6,271.4 588.4,267.7 576.1,290.2 571.9,286.5 559.6,309.1 559.1,308.7 559.5,308.3 	"/>
	<polygon class="st11" points="560.9,289.2 573.1,266.6 577.4,270.3 589.6,247.7 593.9,251.4 606.1,228.9 610.4,232.6 617.7,219.2 
		617.7,225.4 611.2,237.2 607,233.5 594.7,256.1 590.5,252.4 578.2,275 574,271.3 561.7,293.8 557.5,290.1 546.1,311 556.6,285.4 
		560.9,289.2 	"/>
	<polygon class="st11" points="560.9,289.2 560.4,288.9 573,265.8 577.2,269.5 589.5,246.9 593.7,250.6 606,228.1 610.3,231.8 
		617.2,219 618.2,219.2 618.2,225.6 611.4,238 607.1,234.3 594.9,256.9 590.6,253.2 578.4,275.8 574.1,272.1 561.9,294.6 
		557.6,290.9 546.6,311.3 545.6,310.8 556.4,284.6 561.2,288.8 560.9,289.2 560.4,288.9 560.9,289.2 560.5,289.5 556.8,286.3 
		550.1,302.6 557.3,289.3 561.6,293 573.8,270.5 578.1,274.2 590.3,251.6 594.6,255.3 606.8,232.7 611.1,236.4 617.1,225.3 
		617.1,221.2 610.5,233.4 606.3,229.7 594,252.2 589.8,248.5 577.5,271.1 573.3,267.4 561,290 560.5,289.5 560.9,289.2 	"/>
</g>
<path class="st12" d="M543.3,341.7v2.1c-14.7,0-26.6-11.9-26.6-26.6c0-14.7,11.9-26.6,26.6-26.6c14.7,0,26.6,11.9,26.6,26.6
	c0,14.7-11.9,26.6-26.6,26.6V341.7v-2.1c6.2,0,11.7-2.5,15.8-6.5c4-4,6.5-9.6,6.5-15.8c0-6.2-2.5-11.7-6.5-15.8
	c-4-4-9.6-6.5-15.8-6.5c-6.2,0-11.7,2.5-15.8,6.5c-4,4-6.5,9.6-6.5,15.8c0,6.2,2.5,11.7,6.5,15.8c4,4,9.6,6.5,15.8,6.5V341.7
	L543.3,341.7z"/>
<path class="st1" d="M546.2,327.3v2.8v0.5h-0.5h-4h-0.5v-0.5c0-0.8,0-1.6,0-2.4c-2.5-0.5-4.7-1.8-5.9-3.6l-0.2-0.4l0.3-0.3l2.9-2.6
	l0.4-0.3l0.3,0.4c1.2,1.4,2.8,2.1,4.7,2.1c2.8,0,3-0.7,3-1.5c0-0.8-0.2-1.3-4.1-2.2c-3.4-0.8-6.7-1.9-6.7-6.5c0-3,2-5.2,5.2-6
	c0-0.8,0-1.6,0-2.5v-0.5h0.5h4h0.5v0.5v2.5c1.9,0.4,3.6,1.4,5.1,3l0.4,0.4l-0.4,0.4l-2.9,2.8l-0.4,0.4l-0.4-0.4
	c-1.3-1.3-2.6-1.9-4.2-1.9c-1.1,0-2.4,0.2-2.4,1.2c0,0.8,0.3,1.1,3.6,1.9c2.7,0.6,7.1,1.7,7.1,6.7c0,3.7-2.1,6-6.1,6.6"/>
<path class="st9" d="M545.6,327.3v2.8v0.5h0.5v-0.5h-0.5h-4c0-0.8,0-1.6,0-2.4v-0.4l-0.4-0.1c-2.4-0.5-4.4-1.7-5.6-3.4l0,0l0,0
	l2.9-2.6l0,0c1.3,1.5,3.1,2.3,5.1,2.3c1.4,0,2.2-0.2,2.8-0.6c0.3-0.2,0.5-0.5,0.6-0.7c0.1-0.3,0.1-0.5,0.1-0.7c0-0.2,0-0.5-0.1-0.8
	c-0.1-0.2-0.2-0.4-0.5-0.6c-0.6-0.5-1.7-0.9-3.9-1.4h0c-1.7-0.4-3.3-0.9-4.4-1.7c-1.1-0.9-1.9-2.1-1.9-4.3c0-1.4,0.5-2.5,1.3-3.5
	c0.8-0.9,2-1.6,3.6-2l0.4-0.1v-0.4c0-0.8,0-1.6,0-2.5v-0.5h-0.5v0.5h0.5h4h0.5v-0.5h-0.5v0.5v2.9l0.4,0.1c1.8,0.4,3.4,1.3,4.8,2.9
	l0.4,0.4l0.4-0.4l-0.4-0.4l-0.4,0.4L548,313l0,0c-1.3-1.4-2.8-2.1-4.6-2.1c-0.6,0-1.2,0-1.8,0.3c-0.3,0.1-0.5,0.3-0.8,0.5
	c-0.2,0.2-0.4,0.6-0.3,0.9c0,0.2,0,0.5,0.2,0.8c0.1,0.2,0.3,0.4,0.5,0.5c0.6,0.4,1.5,0.7,3.4,1.1c1.3,0.3,3,0.7,4.4,1.6
	c0.7,0.4,1.2,1,1.7,1.7c0.4,0.7,0.7,1.6,0.7,2.8c0,1.8-0.5,3.1-1.4,4.1C549,326.3,547.6,327,545.6,327.3l0.2,1
	c2.1-0.3,3.7-1.1,4.8-2.3c1.1-1.2,1.7-2.9,1.7-4.8c0-1.3-0.3-2.4-0.8-3.3c-0.8-1.3-2-2.2-3.2-2.8c-1.2-0.6-2.5-0.9-3.5-1.1
	c-1.7-0.4-2.6-0.7-2.9-0.9c-0.2-0.1-0.2-0.2-0.3-0.2c0,0,0-0.1,0-0.3c0-0.1,0-0.2,0.1-0.2c0.1-0.1,0.3-0.2,0.7-0.3
	c0.3-0.1,0.7-0.1,1.1-0.1c1.4,0,2.6,0.5,3.8,1.8l0.4,0.4l0.4,0.4l0.7-0.7l2.9-2.8l0.4-0.4l0.4-0.4l-0.7-0.7
	c-1.6-1.6-3.3-2.7-5.4-3.2l-0.1,0.5h0.5v-2.5v-0.5v-0.5h-1h-4h-0.5h-0.5v1c0,0.8,0,1.6,0,2.5h0.5l-0.1-0.5c-1.7,0.4-3.1,1.2-4.1,2.3
	c-1,1.1-1.5,2.6-1.5,4.1c0,2.4,0.9,4,2.3,5.1c1.4,1,3.1,1.5,4.8,1.9h0l0,0c1.9,0.4,2.9,0.8,3.3,1.1c0.2,0.1,0.3,0.2,0.3,0.3
	c0,0.1,0,0.2,0,0.4c0,0.2,0,0.3,0,0.4c-0.1,0.1-0.1,0.2-0.5,0.4c-0.3,0.1-1,0.2-2,0.2c-1.8,0-3.2-0.6-4.4-1.9l-0.3-0.4l-0.3-0.4
	l-0.8,0.7L535,323l-0.3,0.3l-0.3,0.3l0.5,0.7c1.3,2,3.6,3.3,6.2,3.9l0.1-0.5h-0.5c0,0.8,0,1.6,0,2.4v0.5v0.5h1h4h0.5h0.5v-1v-2.8
	H545.6L545.6,327.3z"/>
</svg>
