<?xml version="1.0" encoding="utf-8"?>
<!-- Generator: Adobe Illustrator 19.0.0, SVG Export Plug-In . SVG Version: 6.00 Build 0)  -->
<svg version="1.1" id="Layer_1" xmlns="http://www.w3.org/2000/svg" xmlns:xlink="http://www.w3.org/1999/xlink" x="0px" y="0px"
	 viewBox="0 0 841.9 595.3" style="enable-background:new 0 0 841.9 595.3;" xml:space="preserve">
<style type="text/css">
	.st0{fill:#333E48;}
	.st1{fill:#FFFFFF;}
	.st2{fill:#7D9F3D;}
	.st3{fill:#FFC425;}
	.st4{fill:#00C1DE;}
	.st5{clip-path:url(#SVGID_2_);fill:#FFC425;}
</style>
<polygon class="st0" points="552.7,386 552.7,209.8 288.9,209.8 288.9,386 552.7,386 "/>
<polygon class="st1" points="427.3,290.3 429.1,290.3 430.3,295.1 430.3,295.1 431.9,290.3 433.4,290.3 435,295.2 435,295.2 
	436.2,290.3 437.9,290.3 435.7,297.8 434.3,297.8 432.6,292.6 432.6,292.6 430.9,297.8 429.5,297.8 427.3,290.3 "/>
<polygon class="st1" points="439.4,290.3 441.1,290.3 441.1,297.8 439.4,297.8 439.4,290.3 "/>
<polygon class="st1" points="444.8,291.7 442.7,291.7 442.7,290.3 448.6,290.3 448.6,291.7 446.5,291.7 446.5,297.8 444.8,297.8 
	444.8,291.7 "/>
<polygon class="st1" points="450.2,290.3 451.9,290.3 451.9,293.1 455.1,293.1 455.1,290.3 456.7,290.3 456.7,297.8 455.1,297.8 
	455.1,294.5 451.9,294.5 451.9,297.8 450.2,297.8 450.2,290.3 "/>
<path class="st1" d="M462.7,290.1c2.3,0,4,1.5,4,3.9c0,2.4-1.7,3.9-4,3.9c-2.3,0-4-1.5-4-3.9C458.6,291.6,460.3,290.1,462.7,290.1
	L462.7,290.1z M462.7,296.4c1.4,0,2.3-1,2.3-2.4c0-1.4-0.9-2.4-2.3-2.4c-1.4,0-2.3,1-2.3,2.4C460.4,295.4,461.3,296.4,462.7,296.4
	L462.7,296.4z"/>
<path class="st1" d="M474.9,294.9c0,1.8-1.1,3.1-3.1,3.1c-2.1,0-3.2-1.3-3.2-3.1v-4.6h1.7v4.5c0,0.9,0.6,1.6,1.5,1.6
	c0.9,0,1.5-0.7,1.5-1.6v-4.5h1.6V294.9L474.9,294.9z"/>
<polygon class="st1" points="478.7,291.7 476.6,291.7 476.6,290.3 482.5,290.3 482.5,291.7 480.4,291.7 480.4,297.8 478.7,297.8 
	478.7,291.7 "/>
<path class="st1" d="M484.2,292.5c0.5,0,1,0.4,1,1c0,0.5-0.4,1-1,1c-0.5,0-1-0.4-1-1C483.2,292.9,483.6,292.5,484.2,292.5
	L484.2,292.5z M484.2,295.9c0.5,0,1,0.4,1,1s-0.4,1-1,1c-0.5,0-1-0.4-1-1S483.6,295.9,484.2,295.9L484.2,295.9z"/>
<polygon class="st1" points="310,290.3 311.8,290.3 313,295.1 313,295.1 314.6,290.3 316.1,290.3 317.7,295.2 317.7,295.2 
	319,290.3 320.6,290.3 318.4,297.8 317,297.8 315.3,292.6 315.3,292.6 313.7,297.8 312.2,297.8 310,290.3 "/>
<polygon class="st1" points="322.2,290.3 323.8,290.3 323.8,297.8 322.2,297.8 322.2,290.3 "/>
<polygon class="st1" points="327.6,291.7 325.4,291.7 325.4,290.3 331.4,290.3 331.4,291.7 329.2,291.7 329.2,297.8 327.6,297.8 
	327.6,291.7 "/>
<polygon class="st1" points="333,290.3 334.7,290.3 334.7,293.1 337.9,293.1 337.9,290.3 339.5,290.3 339.5,297.8 337.9,297.8 
	337.9,294.5 334.7,294.5 334.7,297.8 333,297.8 333,290.3 "/>
<path class="st1" d="M342.6,292.5c0.5,0,1,0.4,1,1c0,0.5-0.4,1-1,1c-0.5,0-1-0.4-1-1C341.6,292.9,342,292.5,342.6,292.5L342.6,292.5
	z M342.6,295.9c0.5,0,1,0.4,1,1s-0.4,1-1,1c-0.5,0-1-0.4-1-1S342,295.9,342.6,295.9L342.6,295.9z"/>
<path class="st2" d="M492.5,355.1c-13.4,0-24.3-10.9-24.3-24.3c0-13.5,10.9-24.4,24.3-24.4c13.4,0,24.3,10.9,24.3,24.4
	C516.8,344.2,505.9,355.1,492.5,355.1L492.5,355.1z"/>
<polygon class="st3" points="492.4,349.3 503.2,329.4 506.9,332.6 517.7,312.7 521.5,316 532.3,296.1 522.2,320.1 518.5,316.8 
	507.7,336.7 503.9,333.5 493.1,353.4 489.3,350.1 479.3,367.1 488.6,346 492.4,349.3 "/>
<polygon class="st3" points="492.4,349.3 491.9,349 503,328.5 506.8,331.8 517.6,311.9 521.3,315.1 531.8,295.8 532.8,296.3 
	522.4,321 518.6,317.7 507.8,337.6 504.1,334.3 493.3,354.2 489.5,350.9 479.8,367.4 478.8,366.9 488.4,345.1 492.7,348.8 
	492.4,349.3 491.9,349 492.4,349.3 492,349.7 488.8,346.9 483.4,359.1 489.2,349.3 493,352.5 503.8,332.6 507.5,335.9 518.3,316 
	522,319.2 527.7,305.8 521.6,316.8 517.9,313.6 507.1,333.5 503.3,330.2 492.5,350.1 492,349.7 492.4,349.3 "/>
<polygon class="st3" points="528.6,269.2 517.8,289.1 514,285.8 503.2,305.7 499.5,302.4 488.7,322.3 484.9,319.1 474.9,337.5 
	484.1,314.9 487.9,318.2 498.7,298.3 502.5,301.6 513.3,281.7 517.1,284.9 528.6,269.2 "/>
<polygon class="st3" points="528.6,269.2 529.1,269.4 518,289.9 514.2,286.6 503.4,306.5 499.6,303.3 488.8,323.2 485.1,319.9 
	475.4,337.8 474.4,337.3 483.9,314 487.8,317.4 498.6,297.5 502.3,300.7 513.1,280.8 517,284.2 528.2,268.8 529.1,269.4 
	528.6,269.2 529,269.5 517.1,285.7 513.4,282.5 502.7,302.4 498.9,299.2 488.1,319.1 484.3,315.8 479.1,328.6 484.8,318.2 
	488.5,321.5 499.3,301.6 503.1,304.8 513.9,284.9 517.7,288.2 528.1,268.9 528.6,269.2 529,269.5 528.6,269.2 "/>
<polygon class="st3" points="472.9,346.1 476.7,349.4 487.5,329.5 491.3,332.8 502.1,312.9 505.8,316.1 516.6,296.2 520.4,299.5 
	531.9,283.7 521.1,303.6 517.4,300.3 506.6,320.2 502.8,317 492,336.9 488.2,333.6 477.4,353.5 473.7,350.2 463.7,368.7 
	472.9,346.1 "/>
<polygon class="st3" points="472.9,346.1 473.3,345.7 476.6,348.5 487.3,328.7 491.1,331.9 501.9,312 505.7,315.3 516.5,295.4 
	520.3,298.7 531.5,283.4 532.4,284 521.3,304.4 517.5,301.2 506.7,321.1 503,317.8 492.2,337.7 488.4,334.4 477.6,354.3 
	473.8,351.1 464.2,368.9 463.2,368.5 472.7,345.2 473.3,345.7 472.9,346.1 473.4,346.3 467.9,359.8 473.5,349.4 477.3,352.7 
	488.1,332.8 491.9,336 502.7,316.1 506.4,319.4 517.2,299.5 521,302.8 527.6,290.5 520.5,300.3 516.8,297.1 506,317 502.2,313.7 
	491.4,333.6 487.7,330.3 476.9,350.2 472.6,346.5 472.9,346.1 473.4,346.3 472.9,346.1 "/>
<path class="st1" d="M495.6,341.4v3v0.5h-0.5h-4.2h-0.5v-0.5v-2.5c-2.7-0.5-4.9-1.9-6.2-3.9l-0.3-0.4l0.4-0.3l3.1-2.7l0.4-0.4
	l0.4,0.4c1.3,1.5,3,2.2,5,2.2c2.9,0,3.2-0.8,3.2-1.6c0-0.9-0.2-1.4-4.3-2.3c-3.6-0.8-7.1-2.1-7.1-6.9c0-3.1,2.1-5.5,5.5-6.3
	c0-0.9,0-1.7,0-2.6v-0.5h0.5h4.2h0.5v0.5c0,0.9,0,1.7,0,2.6c2,0.5,3.8,1.5,5.4,3.2l0.4,0.4l-0.4,0.4l-3.1,3l-0.4,0.4l-0.4-0.4
	c-1.3-1.4-2.7-2-4.4-2c-1.1,0-2.5,0.2-2.5,1.2c0,0.8,0.3,1.2,3.9,2c2.8,0.7,7.5,1.8,7.5,7.1c0,3.9-2.2,6.3-6.4,7"/>
<path class="st2" d="M495.1,341.4v3v0.5h0.5v-0.5h-0.5h-4.2h-0.5v0.5h0.5v-0.5v-3l-0.4-0.1c-2.6-0.5-4.7-1.8-5.9-3.6l3.1-2.7
	l0.4-0.4l-0.4-0.4l-0.4,0.3l0.4,0.4c1.4,1.6,3.2,2.4,5.4,2.4c0.8,0,1.3-0.1,1.8-0.1c0.4-0.1,0.7-0.2,0.9-0.3
	c0.4-0.2,0.7-0.5,0.8-0.8c0.1-0.3,0.2-0.6,0.2-0.9c0-0.2,0-0.5-0.1-0.8c-0.1-0.2-0.3-0.4-0.5-0.6c-0.7-0.5-1.8-0.9-4.1-1.4h0
	c-1.8-0.4-3.5-0.9-4.7-1.8c-0.6-0.5-1.1-1-1.4-1.7c-0.3-0.7-0.6-1.6-0.6-2.8c0-1.4,0.5-2.7,1.3-3.7c0.9-1,2.1-1.7,3.8-2.1l0.4-0.1
	v-0.4c0-0.9,0-1.7,0-2.6h4.2h0.5v-0.5h-0.5v0.5c0,0.9,0,1.7,0,2.6v0.4l0.4,0.1c1.9,0.5,3.6,1.4,5.1,3l0.4,0.4l0.4-0.4L501,323
	l-0.4,0.4l-3.1,3l-0.4,0.4l0.4,0.4l0.4-0.4l-0.4-0.4c-0.7-0.7-1.4-1.3-2.2-1.6c-0.8-0.4-1.7-0.5-2.6-0.5c-0.6,0-1.3,0.1-1.9,0.3
	c-0.3,0.1-0.6,0.3-0.8,0.5c-0.2,0.3-0.4,0.6-0.4,1c0,0.2,0,0.5,0.2,0.8c0.1,0.2,0.3,0.4,0.5,0.5c0.3,0.2,0.7,0.4,1.3,0.6
	c0.6,0.2,1.3,0.4,2.3,0.6c1.4,0.3,3.2,0.8,4.6,1.7c0.7,0.5,1.3,1.1,1.8,1.9c0.4,0.8,0.7,1.7,0.7,3c0,1.9-0.5,3.3-1.5,4.4
	C498.6,340.4,497.1,341.1,495.1,341.4l0.2,1.1c2.2-0.3,3.9-1.1,5.1-2.4c1.2-1.3,1.8-3,1.8-5.1c0-1.4-0.3-2.6-0.8-3.5
	c-0.8-1.4-2.1-2.3-3.4-2.9c-1.3-0.6-2.7-0.9-3.7-1.2c-1.8-0.4-2.7-0.7-3.1-0.9c-0.2-0.1-0.3-0.2-0.3-0.2c0-0.1,0-0.1,0-0.3
	c0-0.1,0-0.2,0.1-0.3c0.1-0.1,0.3-0.2,0.7-0.3c0.3-0.1,0.8-0.1,1.2-0.1c0.8,0,1.5,0.2,2.1,0.4c0.7,0.3,1.3,0.8,1.9,1.4l0.4,0.4
	l0.4,0.4l0.8-0.7l3.1-3l0.4-0.4l0.4-0.4l-0.7-0.8c-1.7-1.7-3.5-2.8-5.7-3.3l-0.1,0.5h0.5c0-0.9,0-1.8,0-2.6v-0.5v-0.5h-1.1h-4.2
	h-0.5h-0.5v1.1c0,0.9,0,1.7,0,2.6h0.5l-0.1-0.5c-1.8,0.4-3.3,1.3-4.3,2.5c-1,1.2-1.6,2.7-1.6,4.4c0,1.3,0.2,2.3,0.7,3.2
	c0.6,1.3,1.7,2.2,2.9,2.8c1.2,0.6,2.6,1,3.9,1.3h0c2,0.5,3.1,0.8,3.5,1.1c0.2,0.1,0.3,0.2,0.3,0.3c0,0.1,0.1,0.2,0.1,0.4
	c0,0.2,0,0.3-0.1,0.4l-0.1,0.2c-0.1,0.1-0.3,0.2-0.7,0.3c-0.4,0.1-1,0.1-1.8,0.1c-1.9,0-3.4-0.7-4.6-2l-0.4-0.4l-0.4-0.4l-0.8,0.7
	l-3.1,2.7l-0.4,0.3l-0.3,0.3l0.5,0.8c1.4,2.1,3.8,3.5,6.6,4.1l0.1-0.5h-0.5v2.5v0.5v0.5h1.1h4.2h0.5h0.5v-1.1v-3H495.1L495.1,341.4z
	"/>
<path class="st0" d="M356.6,358.7c-14.9,0-26.9-12-26.9-26.9s12-26.9,26.9-26.9c14.9,0,26.9,12.1,26.9,26.9S371.4,358.7,356.6,358.7
	L356.6,358.7z"/>
<path class="st4" d="M356.6,358.7v1.5c-15.7,0-28.4-12.7-28.4-28.4c0-15.7,12.7-28.4,28.4-28.4c15.7,0,28.4,12.7,28.4,28.4
	c0,15.7-12.7,28.4-28.4,28.4V358.7v-1.5c7,0,13.4-2.8,18-7.4c4.6-4.6,7.4-11,7.4-18c0-7-2.8-13.4-7.4-18c-4.6-4.6-11-7.5-18-7.5
	s-13.4,2.9-18,7.5c-4.6,4.6-7.4,11-7.4,18c0,7,2.8,13.4,7.4,18c4.6,4.6,11,7.4,18,7.4V358.7L356.6,358.7z"/>
<polygon class="st3" points="356.2,331.7 364.8,312.6 368.6,315.8 379.4,295.9 383.1,299.2 394.7,283.4 383.9,303.3 380.1,300 
	369.3,319.9 365.6,316.7 356.2,331.7 "/>
<polygon class="st3" points="356.2,331.7 355.7,331.5 364.6,311.7 368.4,315 379.2,295.1 383.1,298.4 394.3,283.1 395.2,283.7 
	384,304.2 380.3,300.9 369.5,320.8 365.7,317.5 356.7,332 355.7,331.5 356.2,331.7 355.8,331.4 365.4,315.8 369.2,319.1 380,299.2 
	383.7,302.4 390.4,290.2 383.2,300 379.5,296.8 368.7,316.7 365,313.4 356.7,332 356.2,331.7 355.8,331.4 356.2,331.7 "/>
<path class="st2" d="M356.6,355.2c-12.9,0-23.4-10.5-23.4-23.4c0-12.9,10.5-23.4,23.4-23.4s23.4,10.5,23.4,23.4
	C380,344.7,369.5,355.2,356.6,355.2L356.6,355.2z"/>
<g>
	<defs>
		<path id="SVGID_1_" d="M356.6,355.2c-12.9,0-23.4-10.5-23.4-23.4c0-12.9,10.5-23.4,23.4-23.4c12.9,0,23.4,10.5,23.4,23.4
			C380,344.7,369.5,355.2,356.6,355.2"/>
	</defs>
	<clipPath id="SVGID_2_">
		<use xlink:href="#SVGID_1_"  style="overflow:visible;"/>
	</clipPath>
	<polygon class="st5" points="356.2,331.7 364.8,312.6 368.6,315.8 379.4,295.9 383.1,299.2 394.7,283.4 383.9,303.3 380.1,300 
		369.3,319.9 365.6,316.7 356.2,331.7 	"/>
	<polygon class="st5" points="356.2,331.7 355.7,331.5 364.6,311.7 368.4,315 379.2,295.1 383.1,298.4 394.3,283.1 395.2,283.7 
		384,304.2 380.3,300.9 369.5,320.8 365.7,317.5 356.7,332 355.7,331.5 356.2,331.7 355.8,331.4 365.4,315.8 369.2,319.1 380,299.2 
		383.7,302.4 390.4,290.2 383.2,300 379.5,296.8 368.7,316.7 365,313.4 356.7,332 356.2,331.7 355.8,331.4 356.2,331.7 	"/>
</g>
<path class="st1" d="M359.8,342.4v3v0.5h-0.5H355h-0.5v-0.5v-2.6c-2.7-0.5-4.9-1.9-6.2-3.8l-0.3-0.4l0.4-0.3l3.1-2.7l0.4-0.4
	l0.4,0.4c1.3,1.5,3,2.2,5,2.2c2.9,0,3.2-0.8,3.2-1.6c0-0.9-0.2-1.4-4.3-2.3c-3.6-0.8-7.1-2-7.1-6.9c0-3.1,2.1-5.5,5.5-6.3
	c0-0.9,0-1.7,0-2.6v-0.5h0.5h4.2h0.5v0.5c0,0.9,0,1.7,0,2.6c2,0.5,3.8,1.5,5.4,3.2l0.4,0.4l-0.4,0.4l-3.1,3l-0.4,0.4l-0.4-0.4
	c-1.3-1.4-2.8-2-4.4-2c-1.1,0-2.5,0.2-2.5,1.2c0,0.8,0.3,1.2,3.9,2c2.8,0.7,7.5,1.8,7.5,7.1c0,3.9-2.2,6.3-6.5,7"/>
<path class="st2" d="M359.2,342.4v3v0.5h0.5v-0.5h-0.5H355h-0.5v0.5h0.5v-0.5v-3l-0.4-0.1c-2.6-0.5-4.7-1.8-5.9-3.6l3.1-2.7
	c1.4,1.6,3.2,2.4,5.4,2.4c0.8,0,1.3-0.1,1.8-0.1c0.4-0.1,0.7-0.2,0.9-0.3c0.4-0.2,0.7-0.5,0.8-0.8c0.1-0.3,0.2-0.6,0.2-0.9
	c0-0.2,0-0.5-0.1-0.8c-0.1-0.2-0.3-0.4-0.5-0.6c-0.7-0.5-1.8-0.9-4.1-1.4h0c-1.8-0.4-3.5-0.9-4.7-1.8c-0.6-0.5-1.1-1-1.4-1.7
	c-0.3-0.7-0.5-1.6-0.5-2.8c0-1.4,0.5-2.7,1.3-3.7c0.9-1,2.1-1.7,3.8-2.1l0.4-0.1v-0.4c0-0.9,0-1.7,0-2.6h4.2h0.5v-0.5h-0.5v0.5
	c0,0.9,0,1.7,0,2.6v0.4l0.4,0.1c1.9,0.4,3.6,1.4,5.1,3l0.4,0.4l0.4-0.4l-0.4-0.4l-0.4,0.4l-3.1,3c-0.7-0.7-1.5-1.3-2.3-1.6
	c-0.8-0.4-1.7-0.6-2.6-0.5c-0.6,0-1.3,0-1.9,0.3c-0.3,0.1-0.6,0.3-0.8,0.5c-0.2,0.2-0.4,0.6-0.4,1c0,0.2,0,0.5,0.2,0.8
	c0.1,0.2,0.3,0.4,0.5,0.5c0.3,0.2,0.7,0.4,1.3,0.6c0.6,0.2,1.3,0.4,2.3,0.6c1.4,0.3,3.2,0.8,4.6,1.7c0.7,0.5,1.3,1.1,1.8,1.8
	c0.4,0.8,0.7,1.7,0.7,3c0,1.9-0.5,3.3-1.5,4.4C362.7,341.4,361.2,342.1,359.2,342.4l0.2,1.1c2.2-0.3,3.9-1.1,5.1-2.4
	c1.2-1.3,1.8-3,1.8-5.1c0-1.4-0.3-2.6-0.8-3.5c-0.8-1.4-2.1-2.3-3.4-2.9c-1.3-0.6-2.7-0.9-3.7-1.2c-1.8-0.4-2.7-0.7-3.1-1
	c-0.2-0.1-0.3-0.2-0.3-0.2c0-0.1,0-0.1,0-0.3c0-0.1,0-0.2,0.1-0.2c0.1-0.1,0.3-0.2,0.7-0.3c0.3-0.1,0.8-0.1,1.2-0.1
	c0.8,0,1.5,0.1,2.1,0.5c0.7,0.3,1.3,0.8,1.9,1.4l0.4,0.4l0.4,0.4l0.8-0.8l3.1-3l0.4-0.4l0.4-0.4l-0.7-0.8c-1.7-1.7-3.5-2.8-5.7-3.3
	l-0.1,0.5h0.5c0-0.9,0-1.7,0-2.6v-0.5v-0.5h-1.1H355h-0.5h-0.5v1.1c0,0.9,0,1.7,0,2.6h0.5l-0.1-0.5c-1.8,0.4-3.3,1.3-4.3,2.5
	c-1,1.2-1.6,2.7-1.6,4.4c0,1.3,0.2,2.3,0.7,3.2c0.6,1.3,1.7,2.2,2.9,2.8c1.2,0.6,2.6,1,3.9,1.3l0,0c2,0.5,3.1,0.8,3.5,1.1
	c0.2,0.1,0.3,0.2,0.3,0.3c0,0.1,0.1,0.2,0.1,0.4c0,0.2,0,0.3-0.1,0.4l-0.1,0.2c-0.1,0.1-0.3,0.2-0.7,0.3c-0.4,0.1-1,0.1-1.8,0.1
	c-1.9,0-3.4-0.7-4.6-2l-0.4-0.4l-0.4-0.4l-0.8,0.7l-3.1,2.7l-0.4,0.3l-0.4,0.3l0.5,0.8c1.4,2.1,3.8,3.5,6.6,4.1l0.1-0.5h-0.5v2.6
	v0.5v0.5h1.1h4.2h0.5h0.5v-1.1v-3H359.2L359.2,342.4z"/>
<polygon class="st3" points="391.2,269.2 380.4,289.1 376.7,285.8 365.9,305.7 356.3,296.4 365.1,301.6 375.9,281.7 379.7,284.9 
	391.2,269.2 "/>
<polygon class="st3" points="391.2,269.2 391.7,269.4 380.6,289.9 376.8,286.6 366,306.6 355.9,296.8 356.5,296 364.9,300.8 
	375.8,280.8 379.6,284.2 390.8,268.8 391.7,269.4 391.2,269.2 391.7,269.5 379.8,285.7 376.1,282.5 365.3,302.3 359.9,299.1 
	365.7,304.8 376.5,284.9 380.3,288.2 390.7,268.9 391.2,269.2 391.7,269.5 391.2,269.2 "/>
<polygon class="st3" points="380.4,317.6 384.2,309.8 387.9,313.1 398.7,293.2 388.7,317.2 384.9,313.9 381.3,319.3 380.4,317.6 "/>
<polygon class="st3" points="380.4,317.6 379.9,317.3 384,308.9 387.8,312.2 398.2,292.9 399.2,293.4 388.9,318.1 385,314.7 
	381.3,320.3 379.8,317.6 379.9,317.3 380.4,317.6 380.9,317.3 381.4,318.2 384.8,313.1 388.5,316.3 394.1,302.8 388.1,313.9 
	384.3,310.7 380.9,317.8 380.4,317.6 380.9,317.3 380.4,317.6 "/>
<polygon class="st4" points="312,232 312,232 314,225.1 315,225.1 317,232 317,232 318.9,225.1 319.8,225.1 317.5,233.1 
	316.5,233.1 314.5,226.3 314.5,226.3 312.5,233.1 311.5,233.1 309.1,225.1 310.1,225.1 312,232 "/>
<path class="st4" d="M320.6,224.6h0.7v4.1h0c0.3-0.6,1.1-1,1.8-1c1.3,0,2,0.8,2,2.1v3.4h-0.7v-2.9c0-1.2-0.3-1.8-1.4-1.8
	c-0.2,0-1.6,0.1-1.6,2v2.7h-0.7V224.6L320.6,224.6z"/>
<path class="st4" d="M330.3,229.9v-0.1c0-0.9-0.4-1.4-1.4-1.4c-0.6,0-1.2,0.2-1.6,0.6l-0.5-0.5c0.5-0.5,1.2-0.8,2.2-0.8
	c1,0,1.9,0.6,1.9,1.9v2.4c0,0.4,0,0.9,0.1,1.2h-0.7c0-0.3-0.1-0.6-0.1-0.9h0c-0.4,0.7-1,1-1.9,1c-0.9,0-1.8-0.5-1.8-1.6
	c0-1.7,2-1.8,3.3-1.8H330.3L330.3,229.9z M329.9,230.5c-0.8,0-2.5,0.1-2.5,1.1c0,0.7,0.6,1,1.2,1c1.1,0,1.6-0.8,1.6-1.7v-0.4H329.9
	L329.9,230.5z"/>
<path class="st4" d="M335.5,228.5H334v3.1c0,0.8,0.3,0.9,0.8,0.9c0.3,0,0.5-0.1,0.8-0.2l0,0.7c-0.3,0.1-0.6,0.2-1,0.2
	c-0.6,0-1.3-0.2-1.3-1.4v-3.3h-1.1v-0.7h1.1v-1.5h0.7v1.5h1.5V228.5L335.5,228.5z"/>
<path class="st4" d="M344.9,233.1h-0.7v-0.9h0c-0.5,0.7-1.4,1-2.1,1c-1.6,0-2.8-1.2-2.8-2.8c0-1.6,1.2-2.8,2.8-2.8
	c0.7,0,1.6,0.3,2.1,1h0v-4.1h0.7V233.1L344.9,233.1z M342.1,232.6c1.2,0,2.1-0.9,2.1-2.1c0-1.2-0.9-2.1-2.1-2.1c-1.2,0-2,0.9-2,2.1
	C340.1,231.7,340.9,232.6,342.1,232.6L342.1,232.6z"/>
<path class="st4" d="M349.1,233.3c-1.6,0-2.8-1.2-2.8-2.8c0-1.6,1.2-2.8,2.8-2.8c1.7,0,2.8,1.2,2.8,2.8
	C351.9,232.1,350.7,233.3,349.1,233.3L349.1,233.3z M349.1,228.4c-1.2,0-2,0.9-2,2.1c0,1.2,0.8,2.1,2,2.1c1.2,0,2-0.9,2-2.1
	C351.1,229.3,350.3,228.4,349.1,228.4L349.1,228.4z"/>
<path class="st4" d="M353.8,230.7c0.1,1.1,0.9,1.9,1.9,1.9c0.8,0,1.4-0.4,1.7-0.9l0.6,0.5c-0.6,0.8-1.4,1.1-2.3,1.1
	c-1.6,0-2.7-1.2-2.7-2.8c0-1.6,1.2-2.8,2.7-2.8c1.6,0,2.5,1.2,2.5,2.6v0.3H353.8L353.8,230.7z M357.4,230.1c0-1-0.6-1.7-1.7-1.7
	c-1,0-1.9,0.8-1.9,1.7H357.4L357.4,230.1z"/>
<path class="st4" d="M362.3,229.1c-0.2-0.4-0.6-0.7-1.1-0.7c-0.5,0-1.1,0.2-1.1,0.8c0,0.5,0.4,0.7,1,0.8l0.8,0.2
	c0.7,0.2,1.3,0.7,1.3,1.5c0,1.1-1,1.6-2.1,1.6c-0.8,0-1.5-0.3-2-1l0.6-0.4c0.3,0.5,0.8,0.8,1.4,0.8c0.6,0,1.2-0.3,1.2-0.9
	c0-0.5-0.5-0.7-1-0.8l-0.7-0.2c-0.4-0.1-1.4-0.4-1.4-1.4c0-1.1,1-1.6,2-1.6c0.7,0,1.4,0.3,1.8,0.9L362.3,229.1L362.3,229.1z"/>
<path class="st4" d="M368,226.4c-0.3,0-0.5-0.2-0.5-0.5c0-0.3,0.3-0.5,0.5-0.5s0.5,0.2,0.5,0.5C368.6,226.1,368.3,226.4,368,226.4
	L368,226.4z M368.4,233.1h-0.7v-5.3h0.7V233.1L368.4,233.1z"/>
<path class="st4" d="M372.9,228.5h-1.5v3.1c0,0.8,0.3,0.9,0.8,0.9c0.3,0,0.5-0.1,0.8-0.2l0,0.7c-0.3,0.1-0.6,0.2-1,0.2
	c-0.6,0-1.3-0.2-1.3-1.4v-3.3h-1.1v-0.7h1.1v-1.5h0.7v1.5h1.5V228.5L372.9,228.5z"/>
<polygon class="st4" points="378,233.1 377.3,233.1 377.3,224.6 378,224.6 378,233.1 "/>
<path class="st4" d="M382.3,233.3c-1.6,0-2.8-1.2-2.8-2.8c0-1.6,1.2-2.8,2.8-2.8c1.7,0,2.8,1.2,2.8,2.8
	C385.2,232.1,384,233.3,382.3,233.3L382.3,233.3z M382.3,228.4c-1.2,0-2,0.9-2,2.1c0,1.2,0.8,2.1,2,2.1c1.2,0,2-0.9,2-2.1
	C384.3,229.3,383.6,228.4,382.3,228.4L382.3,228.4z"/>
<path class="st4" d="M389,233.3c-1.6,0-2.8-1.2-2.8-2.8c0-1.6,1.2-2.8,2.8-2.8c1.7,0,2.8,1.2,2.8,2.8
	C391.9,232.1,390.7,233.3,389,233.3L389,233.3z M389,228.4c-1.2,0-2,0.9-2,2.1c0,1.2,0.8,2.1,2,2.1c1.2,0,2-0.9,2-2.1
	C391,229.3,390.3,228.4,389,228.4L389,228.4z"/>
<polygon class="st4" points="394,230.2 396.5,227.9 397.6,227.9 394.9,230.3 397.9,233.1 396.7,233.1 394,230.4 394,233.1 
	393.2,233.1 393.2,224.6 394,224.6 394,230.2 "/>
<polygon class="st4" points="402.7,233.1 402,233.1 402,224.6 402.7,224.6 402.7,233.1 "/>
<path class="st4" d="M405,226.4c-0.3,0-0.5-0.2-0.5-0.5c0-0.3,0.3-0.5,0.5-0.5c0.3,0,0.5,0.2,0.5,0.5
	C405.6,226.1,405.3,226.4,405,226.4L405,226.4z M405.4,233.1h-0.8v-5.3h0.8V233.1L405.4,233.1z"/>
<polygon class="st4" points="408,230.2 410.5,227.9 411.6,227.9 409,230.3 411.9,233.1 410.7,233.1 408,230.4 408,233.1 
	407.2,233.1 407.2,224.6 408,224.6 408,230.2 "/>
<path class="st4" d="M413.2,230.7c0.1,1.1,0.9,1.9,1.9,1.9c0.8,0,1.4-0.4,1.7-0.9l0.6,0.5c-0.6,0.8-1.4,1.1-2.3,1.1
	c-1.6,0-2.7-1.2-2.7-2.8c0-1.6,1.2-2.8,2.7-2.8c1.6,0,2.5,1.2,2.5,2.6v0.3H413.2L413.2,230.7z M416.8,230.1c0-1-0.6-1.7-1.7-1.7
	c-1,0-1.9,0.8-1.9,1.7H416.8L416.8,230.1z"/>
<path class="st4" d="M424.8,228.5h-1.5v3.1c0,0.8,0.3,0.9,0.8,0.9c0.3,0,0.5-0.1,0.8-0.2l0,0.7c-0.3,0.1-0.6,0.2-1,0.2
	c-0.6,0-1.3-0.2-1.3-1.4v-3.3h-1.1v-0.7h1.1v-1.5h0.8v1.5h1.5V228.5L424.8,228.5z"/>
<path class="st4" d="M428.4,233.3c-1.6,0-2.8-1.2-2.8-2.8c0-1.6,1.2-2.8,2.8-2.8c1.6,0,2.8,1.2,2.8,2.8
	C431.2,232.1,430,233.3,428.4,233.3L428.4,233.3z M428.4,228.4c-1.2,0-2,0.9-2,2.1c0,1.2,0.8,2.1,2,2.1c1.2,0,2-0.9,2-2.1
	C430.4,229.3,429.6,228.4,428.4,228.4L428.4,228.4z"/>
<path class="st4" d="M436.4,227.9c0,0.3,0,0.6,0,0.8h0c0.3-0.6,1.1-1,1.8-1c1.3,0,2,0.8,2,2.1v3.4h-0.7v-2.9c0-1.2-0.3-1.8-1.4-1.8
	c-0.2,0-1.6,0.1-1.6,2v2.7h-0.8V229c0-0.3,0-0.8-0.1-1.2H436.4L436.4,227.9z"/>
<path class="st4" d="M444.5,233.3c-1.6,0-2.8-1.2-2.8-2.8c0-1.6,1.2-2.8,2.8-2.8c1.6,0,2.8,1.2,2.8,2.8
	C447.3,232.1,446.1,233.3,444.5,233.3L444.5,233.3z M444.5,228.4c-1.2,0-2,0.9-2,2.1c0,1.2,0.8,2.1,2,2.1c1.2,0,2-0.9,2-2.1
	C446.5,229.3,445.7,228.4,444.5,228.4L444.5,228.4z"/>
<path class="st4" d="M451.4,228.5h-1.5v3.1c0,0.8,0.3,0.9,0.8,0.9c0.3,0,0.5-0.1,0.8-0.2l0,0.7c-0.3,0.1-0.6,0.2-1,0.2
	c-0.6,0-1.3-0.2-1.3-1.4v-3.3H448v-0.7h1.1v-1.5h0.8v1.5h1.5V228.5L451.4,228.5z"/>
<path class="st4" d="M455.6,224.6h0.8v4.1h0c0.3-0.6,1.1-1,1.8-1c1.4,0,2,0.8,2,2.1v3.4h-0.7v-2.9c0-1.2-0.3-1.8-1.4-1.8
	c-0.2,0-1.6,0.1-1.6,2v2.7h-0.8V224.6L455.6,224.6z"/>
<path class="st4" d="M465.2,229.9v-0.1c0-0.9-0.4-1.4-1.3-1.4c-0.6,0-1.2,0.2-1.6,0.6l-0.4-0.5c0.5-0.5,1.2-0.8,2.2-0.8
	c1,0,1.9,0.6,1.9,1.9v2.4c0,0.4,0,0.9,0.1,1.2h-0.7c0-0.3-0.1-0.6-0.1-0.9h0c-0.4,0.7-1,1-1.9,1c-0.9,0-1.8-0.5-1.8-1.6
	c0-1.7,2-1.8,3.3-1.8H465.2L465.2,229.9z M464.8,230.5c-0.8,0-2.5,0.1-2.5,1.1c0,0.7,0.6,1,1.2,1c1.1,0,1.6-0.8,1.6-1.7v-0.4H464.8
	L464.8,230.5z"/>
<polygon class="st4" points="470,233.1 469.2,233.1 467,227.9 467.9,227.9 469.6,232.3 469.6,232.3 471.3,227.9 472.2,227.9 
	470,233.1 "/>
<path class="st4" d="M473.7,230.7c0.1,1.1,0.9,1.9,1.9,1.9c0.8,0,1.4-0.4,1.7-0.9l0.6,0.5c-0.6,0.8-1.4,1.1-2.3,1.1
	c-1.6,0-2.7-1.2-2.7-2.8c0-1.6,1.2-2.8,2.7-2.8c1.6,0,2.5,1.2,2.5,2.6v0.3H473.7L473.7,230.7z M477.3,230.1c0-1-0.7-1.7-1.7-1.7
	c-1,0-1.8,0.8-1.8,1.7H477.3L477.3,230.1z"/>
<path class="st4" d="M486,229.9v-0.1c0-0.9-0.4-1.4-1.4-1.4c-0.6,0-1.2,0.2-1.6,0.6l-0.4-0.5c0.5-0.5,1.2-0.8,2.2-0.8
	c1,0,1.9,0.6,1.9,1.9v2.4c0,0.4,0.1,0.9,0.1,1.2h-0.7c0-0.3-0.1-0.6-0.1-0.9h0c-0.4,0.7-1,1-1.9,1c-0.9,0-1.8-0.5-1.8-1.6
	c0-1.7,2-1.8,3.3-1.8H486L486,229.9z M485.6,230.5c-0.8,0-2.5,0.1-2.5,1.1c0,0.7,0.6,1,1.2,1c1.1,0,1.6-0.8,1.6-1.7v-0.4H485.6
	L485.6,230.5z"/>
<path class="st4" d="M489.1,227.9c0,0.3,0,0.6,0,0.8h0c0.3-0.6,1.1-1,1.8-1c1.3,0,2,0.8,2,2.1v3.4h-0.8v-2.9c0-1.2-0.3-1.8-1.4-1.8
	c-0.2,0-1.6,0.1-1.6,2v2.7h-0.7V229c0-0.3,0-0.8-0.1-1.2H489.1L489.1,227.9z"/>
<path class="st4" d="M496.7,232.2l1.6-4.4h0.9l-2.6,6.7c-0.3,0.8-0.7,1.3-1.7,1.3c-0.2,0-0.5,0-0.7-0.1l0.1-0.7
	c0.2,0.1,0.4,0.1,0.6,0.1c0.5,0,0.8-0.4,1-1l0.4-1l-2.2-5.3h0.9L496.7,232.2L496.7,232.2z"/>
<path class="st4" d="M503.4,229.5c0-0.5,0-0.9,0-1.6h0.7v1h0c0.2-0.6,0.8-1.1,1.7-1.1c0.2,0,0.4,0,0.6,0.1l-0.1,0.7
	c-0.1,0-0.2,0-0.4,0c-1.1,0-1.6,1-1.6,1.7v3h-0.8V229.5L503.4,229.5z"/>
<path class="st4" d="M507.6,226.4c-0.3,0-0.5-0.2-0.5-0.5c0-0.3,0.3-0.5,0.5-0.5s0.5,0.2,0.5,0.5
	C508.1,226.1,507.9,226.4,507.6,226.4L507.6,226.4z M508,233.1h-0.7v-5.3h0.7V233.1L508,233.1z"/>
<path class="st4" d="M512.6,229.1c-0.2-0.4-0.6-0.7-1.1-0.7c-0.5,0-1.1,0.2-1.1,0.8c0,0.5,0.4,0.7,1,0.8l0.8,0.2
	c0.7,0.2,1.3,0.7,1.3,1.5c0,1.1-1,1.6-2.1,1.6c-0.8,0-1.5-0.3-2-1l0.6-0.4c0.3,0.5,0.8,0.8,1.4,0.8c0.6,0,1.2-0.3,1.2-0.9
	c0-0.5-0.4-0.7-1-0.8l-0.7-0.2c-0.4-0.1-1.3-0.4-1.3-1.4c0-1.1,1-1.6,1.9-1.6c0.7,0,1.4,0.3,1.8,0.9L512.6,229.1L512.6,229.1z"/>
<polygon class="st4" points="515.3,230.2 517.8,227.9 518.9,227.9 516.3,230.3 519.2,233.1 518.1,233.1 515.3,230.4 515.3,233.1 
	514.6,233.1 514.6,224.6 515.3,224.6 515.3,230.2 "/>
<path class="st4" d="M310,243.4c0-0.4,0-0.8-0.1-1.2h0.8v0.8h0c0.4-0.6,1.1-0.9,1.7-0.9c0.6,0,1.3,0.2,1.7,1.1
	c0.3-0.7,1-1.1,1.7-1.1c1.3,0,2,0.8,2,2.1v3.4h-0.7v-3.1c0-1.1-0.3-1.7-1.3-1.7c-1.1,0-1.5,1-1.5,1.9v2.8h-0.7v-3.1
	c0-1.1-0.3-1.7-1.3-1.7c-0.2,0-1.5,0.1-1.5,2v2.7H310V243.4L310,243.4z"/>
<path class="st4" d="M320.1,240.7c-0.3,0-0.5-0.2-0.5-0.5c0-0.3,0.3-0.6,0.5-0.6s0.5,0.2,0.5,0.6
	C320.7,240.5,320.4,240.7,320.1,240.7L320.1,240.7z M320.5,247.5h-0.7v-5.3h0.7V247.5L320.5,247.5z"/>
<path class="st4" d="M325,242.9h-1.5v3.1c0,0.8,0.3,1,0.8,1c0.3,0,0.5-0.1,0.8-0.2l0,0.7c-0.3,0.1-0.6,0.2-1,0.2
	c-0.6,0-1.3-0.3-1.3-1.4v-3.3h-1.1v-0.7h1.1v-1.5h0.7v1.5h1.5V242.9L325,242.9z"/>
<path class="st4" d="M326.6,240.7c-0.3,0-0.5-0.2-0.5-0.5c0-0.3,0.3-0.6,0.5-0.6s0.5,0.2,0.5,0.6
	C327.1,240.5,326.9,240.7,326.6,240.7L326.6,240.7z M327,247.5h-0.7v-5.3h0.7V247.5L327,247.5z"/>
<path class="st4" d="M329.2,248.5c0.4,0.6,1.2,1,2,1c1.5,0,2.1-0.9,2.1-2.1v-1h0c-0.5,0.7-1.2,1-2,1c-1.5,0-2.8-1.1-2.8-2.7
	c0-1.5,1.1-2.7,2.7-2.7c0.6,0,1.4,0.2,2,1h0v-0.9h0.7v5.2c0,1.1-0.5,2.8-2.8,2.8c-1.1,0-1.9-0.3-2.5-1.1L329.2,248.5L329.2,248.5z
	 M331.3,246.8c1.1,0,2-0.8,2-2c0-1.1-0.8-2-2-2c-1.1,0-2,0.9-2,2S330.2,246.8,331.3,246.8L331.3,246.8z"/>
<path class="st4" d="M339.1,244.2v-0.1c0-0.9-0.4-1.4-1.4-1.4c-0.6,0-1.2,0.2-1.6,0.6l-0.5-0.5c0.5-0.5,1.2-0.8,2.2-0.8
	c1,0,1.9,0.6,1.9,1.9v2.4c0,0.4,0,0.9,0.1,1.2h-0.7c0-0.3-0.1-0.6-0.1-0.9h0c-0.4,0.7-1,1-1.9,1c-0.9,0-1.8-0.5-1.8-1.6
	c0-1.7,2-1.8,3.3-1.8H339.1L339.1,244.2z M338.7,244.8c-0.8,0-2.5,0.1-2.5,1.1c0,0.7,0.6,1,1.2,1c1.1,0,1.6-0.8,1.6-1.7v-0.4H338.7
	L338.7,244.8z"/>
<path class="st4" d="M344.3,242.9h-1.5v3.1c0,0.8,0.3,1,0.8,1c0.3,0,0.5-0.1,0.8-0.2l0,0.7c-0.3,0.1-0.6,0.2-1,0.2
	c-0.6,0-1.3-0.3-1.3-1.4v-3.3h-1.1v-0.7h1.1v-1.5h0.7v1.5h1.5V242.9L344.3,242.9z"/>
<path class="st4" d="M345.8,240.7c-0.3,0-0.5-0.2-0.5-0.5c0-0.3,0.3-0.6,0.5-0.6c0.3,0,0.5,0.2,0.5,0.6
	C346.4,240.5,346.1,240.7,345.8,240.7L345.8,240.7z M346.2,247.5h-0.7v-5.3h0.7V247.5L346.2,247.5z"/>
<path class="st4" d="M350.5,247.6c-1.6,0-2.8-1.2-2.8-2.8c0-1.6,1.2-2.8,2.8-2.8c1.6,0,2.8,1.2,2.8,2.8
	C353.3,246.4,352.2,247.6,350.5,247.6L350.5,247.6z M350.5,242.7c-1.2,0-2,0.9-2,2.1c0,1.2,0.8,2.1,2,2.1c1.2,0,2-0.9,2-2.1
	C352.5,243.6,351.8,242.7,350.5,242.7L350.5,242.7z"/>
<path class="st4" d="M355.4,242.2c0,0.3,0,0.6,0,0.8h0c0.3-0.6,1.1-1,1.8-1c1.3,0,2,0.8,2,2.1v3.4h-0.7v-2.9c0-1.2-0.3-1.8-1.4-1.8
	c-0.2,0-1.6,0.1-1.6,2v2.7h-0.7v-4.1c0-0.3,0-0.8-0.1-1.2H355.4L355.4,242.2z"/>
<path class="st4" d="M366.6,247.6c-1.6,0-2.8-1.2-2.8-2.8c0-1.6,1.2-2.8,2.8-2.8c1.6,0,2.8,1.2,2.8,2.8
	C369.5,246.4,368.3,247.6,366.6,247.6L366.6,247.6z M366.6,242.7c-1.2,0-2,0.9-2,2.1c0,1.2,0.8,2.1,2,2.1c1.2,0,2-0.9,2-2.1
	C368.6,243.6,367.9,242.7,366.6,242.7L366.6,242.7z"/>
<path class="st4" d="M371.5,242.2c0,0.3,0,0.6,0,0.8h0c0.3-0.6,1.1-1,1.8-1c1.3,0,2,0.8,2,2.1v3.4h-0.7v-2.9c0-1.2-0.3-1.8-1.4-1.8
	c-0.2,0-1.6,0.1-1.6,2v2.7h-0.7v-4.1c0-0.3,0-0.8-0.1-1.2H371.5L371.5,242.2z"/>
<path class="st4" d="M383.6,244.2v-0.1c0-0.9-0.4-1.4-1.4-1.4c-0.6,0-1.2,0.2-1.6,0.6l-0.5-0.5c0.5-0.5,1.2-0.8,2.2-0.8
	c1,0,1.9,0.6,1.9,1.9v2.4c0,0.4,0,0.9,0.1,1.2h-0.7c0-0.3-0.1-0.6-0.1-0.9h0c-0.4,0.7-1,1-1.9,1c-0.9,0-1.8-0.5-1.8-1.6
	c0-1.7,2-1.8,3.3-1.8H383.6L383.6,244.2z M383.2,244.8c-0.8,0-2.5,0.1-2.5,1.1c0,0.7,0.6,1,1.2,1c1.1,0,1.6-0.8,1.6-1.7v-0.4H383.2
	L383.2,244.8z"/>
<path class="st4" d="M389.2,242.2h0.7v0.9h0c0.5-0.7,1.4-1,2.1-1c1.6,0,2.8,1.2,2.8,2.8c0,1.6-1.2,2.8-2.8,2.8c-0.7,0-1.6-0.3-2.1-1
	h0v4.1h-0.7V242.2L389.2,242.2z M392.1,242.7c-1.2,0-2.1,0.9-2.1,2.1c0,1.2,0.9,2.1,2.1,2.1c1.2,0,2-0.9,2-2.1
	C394.1,243.6,393.3,242.7,392.1,242.7L392.1,242.7z"/>
<path class="st4" d="M398.7,247.6c-1.6,0-2.8-1.2-2.8-2.8c0-1.6,1.2-2.8,2.8-2.8c1.7,0,2.8,1.2,2.8,2.8
	C401.5,246.4,400.3,247.6,398.7,247.6L398.7,247.6z M398.7,242.7c-1.2,0-2,0.9-2,2.1c0,1.2,0.8,2.1,2,2.1c1.2,0,2-0.9,2-2.1
	C400.7,243.6,399.9,242.7,398.7,242.7L398.7,242.7z"/>
<path class="st4" d="M402.9,243.8c0-0.5,0-0.9-0.1-1.6h0.7v1h0c0.2-0.6,0.8-1.1,1.7-1.1c0.2,0,0.4,0,0.6,0.1l-0.2,0.7
	c-0.1,0-0.2-0.1-0.4-0.1c-1.1,0-1.6,1-1.6,1.7v3h-0.7V243.8L402.9,243.8z"/>
<path class="st4" d="M409.3,242.9h-1.5v3.1c0,0.8,0.3,1,0.8,1c0.3,0,0.5-0.1,0.8-0.2l0,0.7c-0.3,0.1-0.6,0.2-1,0.2
	c-0.6,0-1.3-0.3-1.3-1.4v-3.3h-1.1v-0.7h1.1v-1.5h0.8v1.5h1.5V242.9L409.3,242.9z"/>
<path class="st4" d="M412.8,242.9h-1.2v4.6h-0.8v-4.6h-1.1v-0.7h1.1v-1.5c0-1.4,0.7-1.9,1.8-1.9c0.2,0,0.4,0,0.6,0.1l-0.1,0.7
	c-0.2-0.1-0.4-0.1-0.6-0.1c-0.8,0-1,0.6-1,1.4v1.4h1.2V242.9L412.8,242.9z"/>
<path class="st4" d="M416.2,247.6c-1.6,0-2.8-1.2-2.8-2.8c0-1.6,1.2-2.8,2.8-2.8c1.7,0,2.8,1.2,2.8,2.8
	C419,246.4,417.9,247.6,416.2,247.6L416.2,247.6z M416.2,242.7c-1.2,0-2,0.9-2,2.1c0,1.2,0.8,2.1,2,2.1c1.2,0,2-0.9,2-2.1
	C418.2,243.6,417.4,242.7,416.2,242.7L416.2,242.7z"/>
<polygon class="st4" points="421.3,247.5 420.6,247.5 420.6,238.9 421.3,238.9 421.3,247.5 "/>
<path class="st4" d="M423.6,240.7c-0.3,0-0.6-0.2-0.6-0.5c0-0.3,0.3-0.6,0.6-0.6c0.3,0,0.5,0.2,0.5,0.6
	C424.2,240.5,423.9,240.7,423.6,240.7L423.6,240.7z M424,247.5h-0.8v-5.3h0.8V247.5L424,247.5z"/>
<path class="st4" d="M428.3,247.6c-1.6,0-2.8-1.2-2.8-2.8c0-1.6,1.2-2.8,2.8-2.8c1.7,0,2.8,1.2,2.8,2.8
	C431.2,246.4,430,247.6,428.3,247.6L428.3,247.6z M428.3,242.7c-1.2,0-2,0.9-2,2.1c0,1.2,0.8,2.1,2,2.1c1.2,0,2-0.9,2-2.1
	C430.3,243.6,429.6,242.7,428.3,242.7L428.3,242.7z"/>
<path class="st4" d="M436.2,240.7c-0.3,0-0.6-0.2-0.6-0.5c0-0.3,0.3-0.6,0.6-0.6c0.3,0,0.5,0.2,0.5,0.6
	C436.7,240.5,436.5,240.7,436.2,240.7L436.2,240.7z M436.6,247.5h-0.8v-5.3h0.8V247.5L436.6,247.5z"/>
<path class="st4" d="M439.1,242.2c0,0.3,0,0.6,0,0.8h0c0.3-0.6,1.1-1,1.8-1c1.3,0,2,0.8,2,2.1v3.4h-0.8v-2.9c0-1.2-0.3-1.8-1.4-1.8
	c-0.2,0-1.6,0.1-1.6,2v2.7h-0.7v-4.1c0-0.3,0-0.8-0.1-1.2H439.1L439.1,242.2z"/>
<path class="st4" d="M450.6,243.4c-0.2-0.4-0.6-0.7-1.1-0.7c-0.5,0-1.1,0.2-1.1,0.8c0,0.5,0.4,0.7,1,0.8l0.8,0.2
	c0.7,0.2,1.3,0.7,1.3,1.4c0,1.2-1,1.6-2.1,1.6c-0.8,0-1.5-0.3-2-1l0.6-0.4c0.3,0.5,0.8,0.8,1.4,0.8c0.6,0,1.2-0.3,1.2-0.9
	c0-0.5-0.5-0.7-1-0.9l-0.7-0.2c-0.4-0.1-1.4-0.4-1.4-1.4c0-1.1,1-1.6,2-1.6c0.7,0,1.4,0.3,1.8,0.9L450.6,243.4L450.6,243.4z"/>
<path class="st4" d="M453.1,245c0.1,1.1,0.9,1.9,1.9,1.9c0.8,0,1.4-0.4,1.7-0.9l0.6,0.5c-0.6,0.8-1.4,1.1-2.3,1.1
	c-1.6,0-2.7-1.2-2.7-2.8c0-1.6,1.2-2.8,2.7-2.8c1.6,0,2.5,1.2,2.5,2.6v0.3H453.1L453.1,245z M456.7,244.4c0-1-0.6-1.7-1.7-1.7
	c-1,0-1.9,0.8-1.9,1.7H456.7L456.7,244.4z"/>
<polygon class="st4" points="461.2,247.5 460.4,247.5 458.2,242.2 459.1,242.2 460.8,246.6 460.8,246.6 462.5,242.2 463.3,242.2 
	461.2,247.5 "/>
<path class="st4" d="M464.8,245c0.1,1.1,0.9,1.9,1.9,1.9c0.8,0,1.4-0.4,1.7-0.9l0.6,0.5c-0.6,0.8-1.4,1.1-2.3,1.1
	c-1.6,0-2.7-1.2-2.7-2.8c0-1.6,1.2-2.8,2.7-2.8c1.6,0,2.5,1.2,2.5,2.6v0.3H464.8L464.8,245z M468.4,244.4c0-1-0.6-1.7-1.7-1.7
	c-1,0-1.8,0.8-1.8,1.7H468.4L468.4,244.4z"/>
<path class="st4" d="M470.7,243.8c0-0.5,0-0.9-0.1-1.6h0.7v1h0c0.2-0.6,0.8-1.1,1.7-1.1c0.2,0,0.4,0,0.6,0.1l-0.2,0.7
	c-0.1,0-0.2-0.1-0.4-0.1c-1.1,0-1.6,1-1.6,1.7v3h-0.8V243.8L470.7,243.8z"/>
<path class="st4" d="M474.7,245c0.1,1.1,0.9,1.9,1.9,1.9c0.8,0,1.4-0.4,1.7-0.9l0.6,0.5c-0.6,0.8-1.4,1.1-2.3,1.1
	c-1.6,0-2.7-1.2-2.7-2.8c0-1.6,1.2-2.8,2.7-2.8c1.6,0,2.5,1.2,2.5,2.6v0.3H474.7L474.7,245z M478.3,244.4c0-1-0.6-1.7-1.7-1.7
	c-1,0-1.8,0.8-1.8,1.7H478.3L478.3,244.4z"/>
<path class="st4" d="M483.7,243.8c0-0.5,0-0.9-0.1-1.6h0.7v1h0c0.2-0.6,0.8-1.1,1.7-1.1c0.2,0,0.4,0,0.6,0.1l-0.2,0.7
	c-0.1,0-0.2-0.1-0.4-0.1c-1.1,0-1.6,1-1.6,1.7v3h-0.7V243.8L483.7,243.8z"/>
<path class="st4" d="M487.9,240.7c-0.3,0-0.5-0.2-0.5-0.5c0-0.3,0.3-0.6,0.5-0.6s0.5,0.2,0.5,0.6
	C488.4,240.5,488.1,240.7,487.9,240.7L487.9,240.7z M488.2,247.5h-0.7v-5.3h0.7V247.5L488.2,247.5z"/>
<path class="st4" d="M492.8,243.4c-0.2-0.4-0.6-0.7-1.1-0.7c-0.5,0-1.1,0.2-1.1,0.8c0,0.5,0.3,0.7,1,0.8l0.8,0.2
	c0.7,0.2,1.3,0.7,1.3,1.4c0,1.2-1,1.6-2.1,1.6c-0.8,0-1.5-0.3-2-1l0.6-0.4c0.3,0.5,0.8,0.8,1.4,0.8c0.6,0,1.2-0.3,1.2-0.9
	c0-0.5-0.5-0.7-1-0.9l-0.7-0.2c-0.4-0.1-1.4-0.4-1.4-1.4c0-1.1,1-1.6,2-1.6c0.7,0,1.4,0.3,1.8,0.9L492.8,243.4L492.8,243.4z"/>
<polygon class="st4" points="495.6,244.6 498.1,242.2 499.2,242.2 496.6,244.6 499.5,247.5 498.3,247.5 495.6,244.7 495.6,247.5 
	494.8,247.5 494.8,238.9 495.6,238.9 495.6,244.6 "/>
<path class="st4" d="M313.8,257.8c-0.2-0.4-0.7-0.7-1.3-0.7c-1.2,0-2,0.9-2,2.1c0,1.2,0.8,2.1,2,2.1c0.6,0,1.1-0.3,1.3-0.7l0.6,0.5
	c-0.5,0.6-1.2,0.9-1.9,0.9c-1.7,0-2.8-1.2-2.8-2.8c0-1.6,1.1-2.8,2.8-2.8c0.7,0,1.4,0.3,1.9,0.9L313.8,257.8L313.8,257.8z"/>
<path class="st4" d="M317.9,261.9c-1.6,0-2.8-1.2-2.8-2.8c0-1.6,1.2-2.8,2.8-2.8c1.7,0,2.8,1.2,2.8,2.8
	C320.8,260.8,319.6,261.9,317.9,261.9L317.9,261.9z M317.9,257.1c-1.2,0-2,0.9-2,2.1c0,1.2,0.8,2.1,2,2.1c1.2,0,2-0.9,2-2.1
	C319.9,258,319.2,257.1,317.9,257.1L317.9,257.1z"/>
<path class="st4" d="M322.8,256.5c0,0.3,0,0.6,0,0.9h0c0.3-0.6,1.1-1,1.8-1c1.3,0,2,0.8,2,2.1v3.4h-0.7v-2.9c0-1.2-0.3-1.8-1.4-1.8
	c-0.2,0-1.6,0.1-1.6,2v2.7h-0.7v-4.1c0-0.3,0-0.8-0.1-1.2H322.8L322.8,256.5z"/>
<path class="st4" d="M333.7,261.8h-0.7v-0.9h0c-0.5,0.7-1.4,1-2.1,1c-1.6,0-2.8-1.2-2.8-2.8c0-1.6,1.2-2.8,2.8-2.8
	c0.7,0,1.6,0.3,2.1,1h0v-4.1h0.7V261.8L333.7,261.8z M330.8,261.3c1.2,0,2.1-0.9,2.1-2.1c0-1.2-0.9-2.1-2.1-2.1c-1.2,0-2,0.9-2,2.1
	C328.8,260.3,329.6,261.3,330.8,261.3L330.8,261.3z"/>
<path class="st4" d="M335.8,255c-0.3,0-0.5-0.2-0.5-0.5c0-0.3,0.3-0.5,0.5-0.5s0.5,0.2,0.5,0.5C336.4,254.8,336.1,255,335.8,255
	L335.8,255z M336.2,261.8h-0.7v-5.3h0.7V261.8L336.2,261.8z"/>
<path class="st4" d="M340.7,257.2h-1.5v3.1c0,0.8,0.3,1,0.8,1c0.3,0,0.5-0.1,0.8-0.2l0,0.7c-0.3,0.1-0.6,0.2-1,0.2
	c-0.6,0-1.3-0.3-1.3-1.4v-3.3h-1.1v-0.7h1.1V255h0.7v1.5h1.5V257.2L340.7,257.2z"/>
<path class="st4" d="M342.3,255c-0.3,0-0.5-0.2-0.5-0.5c0-0.3,0.3-0.5,0.5-0.5c0.3,0,0.5,0.2,0.5,0.5
	C342.8,254.8,342.6,255,342.3,255L342.3,255z M342.7,261.8h-0.7v-5.3h0.7V261.8L342.7,261.8z"/>
<path class="st4" d="M347,261.9c-1.6,0-2.8-1.2-2.8-2.8c0-1.6,1.2-2.8,2.8-2.8c1.7,0,2.8,1.2,2.8,2.8
	C349.8,260.8,348.6,261.9,347,261.9L347,261.9z M347,257.1c-1.2,0-2,0.9-2,2.1c0,1.2,0.8,2.1,2,2.1c1.2,0,2-0.9,2-2.1
	C349,258,348.2,257.1,347,257.1L347,257.1z"/>
<path class="st4" d="M351.9,256.5c0,0.3,0,0.6,0,0.9h0c0.3-0.6,1.1-1,1.8-1c1.3,0,2,0.8,2,2.1v3.4h-0.7v-2.9c0-1.2-0.3-1.8-1.4-1.8
	c-0.2,0-1.6,0.1-1.6,2v2.7h-0.7v-4.1c0-0.3,0-0.8-0.1-1.2H351.9L351.9,256.5z"/>
<path class="st4" d="M360.2,257.8c-0.2-0.4-0.6-0.7-1.1-0.7c-0.5,0-1.1,0.2-1.1,0.8c0,0.5,0.3,0.7,1,0.8l0.8,0.2
	c0.7,0.2,1.3,0.7,1.3,1.5c0,1.1-1,1.6-2.1,1.6c-0.8,0-1.5-0.3-2-1l0.6-0.4c0.3,0.5,0.8,0.8,1.4,0.8c0.6,0,1.2-0.3,1.2-0.9
	c0-0.5-0.5-0.7-1-0.8l-0.7-0.2c-0.4-0.1-1.4-0.4-1.4-1.4c0-1.1,1-1.6,2-1.6c0.7,0,1.4,0.3,1.8,0.9L360.2,257.8L360.2,257.8z"/>
<path class="st4" d="M364.6,259.6h-0.8v-0.9c0-1.2,1.8-1.6,1.8-3c0-0.8-0.5-1.3-1.3-1.3c-0.8,0-1.3,0.5-1.4,1.2l-0.8-0.1
	c0.2-1.2,1.1-1.9,2.3-1.9c1.2,0,2.1,0.7,2.1,2c0,1.9-1.8,1.8-1.8,3.4V259.6L364.6,259.6z M364.2,261.9c-0.4,0-0.6-0.3-0.6-0.6
	c0-0.3,0.2-0.6,0.6-0.6c0.4,0,0.6,0.3,0.6,0.6C364.8,261.6,364.6,261.9,364.2,261.9L364.2,261.9z"/>
</svg>
