<?xml version="1.0" encoding="utf-8"?>
<!-- Generator: Adobe Illustrator 19.0.0, SVG Export Plug-In . SVG Version: 6.00 Build 0)  -->
<svg version="1.1" id="Layer_1" xmlns="http://www.w3.org/2000/svg" xmlns:xlink="http://www.w3.org/1999/xlink" x="0px" y="0px"
	 viewBox="0 0 841.9 595.3" style="enable-background:new 0 0 841.9 595.3;" xml:space="preserve">
<style type="text/css">
	.st0{fill:#333E48;}
	.st1{fill:#78A22F;}
	.st2{font-family:'Avenir-Book';}
	.st3{font-size:19.307px;}
	.st4{fill:#FFFFFF;}
	.st5{font-family:'Avenir-Heavy';}
	.st6{font-size:9px;}
	.st7{font-size:13px;}
	.st8{font-family:'AvenirNextCondensed-Regular';}
	.st9{font-size:8px;}
	.st10{font-family:'Avenir-Light';}
	.st11{font-size:5.247px;}
</style>
<polygon class="st0" points="204.7,423 204.7,172.5 636.7,172.5 636.7,423 204.7,423 "/>
<text transform="matrix(1 0 0 1 237.0743 204.6504)" class="st1 st2 st3">Real Spending Options</text>
<path class="st0" d="M235.1,218.2h54.7v30.3h-54.7V218.2z M289.8,218.2H403v30.3H289.8V218.2z M403,218.2h72v30.3h-72V218.2z
	 M475,218.2h67.7v30.3H475V218.2z"/>
<polyline class="st4" points="235.1,248.8 289.8,248.8 289.8,248.3 235.1,248.3 "/>
<polyline class="st4" points="289.8,248.8 403,248.8 403,248.3 289.8,248.3 "/>
<polyline class="st4" points="403,248.8 475,248.8 475,248.3 403,248.3 "/>
<polyline class="st4" points="475,248.8 542.7,248.8 542.7,248.3 475,248.3 "/>
<polyline class="st4" points="235.1,268.3 289.8,268.3 289.8,267.8 235.1,267.8 "/>
<polyline class="st4" points="289.8,268.3 403,268.3 403,267.8 289.8,267.8 "/>
<polyline class="st4" points="403,268.3 475,268.3 475,267.8 403,267.8 "/>
<polyline class="st4" points="475,268.3 542.7,268.3 542.7,267.8 475,267.8 "/>
<polyline class="st4" points="235.1,287.7 289.8,287.7 289.8,287.2 235.1,287.2 "/>
<polyline class="st4" points="289.8,287.7 403,287.7 403,287.2 289.8,287.2 "/>
<polyline class="st4" points="403,287.7 475,287.7 475,287.2 403,287.2 "/>
<polyline class="st4" points="475,287.7 542.7,287.7 542.7,287.2 475,287.2 "/>
<polyline class="st4" points="235.1,307.1 289.8,307.1 289.8,306.6 235.1,306.6 "/>
<polyline class="st4" points="289.8,307.1 403,307.1 403,306.6 289.8,306.6 "/>
<polyline class="st4" points="403,307.1 475,307.1 475,306.6 403,306.6 "/>
<polyline class="st4" points="475,307.1 542.7,307.1 542.7,306.6 475,306.6 "/>
<polyline class="st4" points="235.1,326.5 289.8,326.5 289.8,326 235.1,326 "/>
<polyline class="st4" points="289.8,326.5 403,326.5 403,326 289.8,326 "/>
<polyline class="st4" points="403,326.5 475,326.5 475,326 403,326 "/>
<polyline class="st4" points="475,326.5 542.7,326.5 542.7,326 475,326 "/>
<polyline class="st4" points="235.1,345.9 289.8,345.9 289.8,345.4 235.1,345.4 "/>
<polyline class="st4" points="289.8,345.9 403,345.9 403,345.4 289.8,345.4 "/>
<polyline class="st4" points="403,345.9 475,345.9 475,345.4 403,345.4 "/>
<polyline class="st4" points="475,345.9 542.7,345.9 542.7,345.4 475,345.4 "/>
<polyline class="st4" points="290,248.3 290,218.2 289.5,218.2 289.5,248.3 "/>
<polyline class="st4" points="290,267.8 290,248.8 289.5,248.8 289.5,267.8 "/>
<polyline class="st4" points="290,287.2 290,268.3 289.5,268.3 289.5,287.2 "/>
<polyline class="st4" points="290,306.6 290,287.7 289.5,287.7 289.5,306.6 "/>
<polyline class="st4" points="290,326 290,307.1 289.5,307.1 289.5,326 "/>
<polyline class="st4" points="290,345.4 290,326.5 289.5,326.5 289.5,345.4 "/>
<polyline class="st4" points="475.2,248.3 475.2,218.2 474.7,218.2 474.7,248.3 "/>
<polyline class="st4" points="475.2,267.8 475.2,248.8 474.7,248.8 474.7,267.8 "/>
<polyline class="st4" points="475.2,287.2 475.2,268.3 474.7,268.3 474.7,287.2 "/>
<polyline class="st4" points="475.2,306.6 475.2,287.7 474.7,287.7 474.7,306.6 "/>
<polyline class="st4" points="475.2,326 475.2,307.1 474.7,307.1 474.7,326 "/>
<polyline class="st4" points="475.2,345.4 475.2,326.5 474.7,326.5 474.7,345.4 "/>
<polyline class="st4" points="403.2,248.3 403.2,218.2 402.7,218.2 402.7,248.3 "/>
<polyline class="st4" points="403.2,267.8 403.2,248.8 402.7,248.8 402.7,267.8 "/>
<polyline class="st4" points="403.2,287.2 403.2,268.3 402.7,268.3 402.7,287.2 "/>
<polyline class="st4" points="403.2,306.6 403.2,287.7 402.7,287.7 402.7,306.6 "/>
<polyline class="st4" points="403.2,326 403.2,307.1 402.7,307.1 402.7,326 "/>
<polyline class="st4" points="403.2,345.4 403.2,326.5 402.7,326.5 402.7,345.4 "/>
<text transform="matrix(1 0 0 1 239.5665 229.5957)" class="st1 st5 st6">SPEND </text>
<text transform="matrix(1 0 0 1 239.5665 239.6035)" class="st1 st5 st6">RA</text>
<text transform="matrix(1 0 0 1 250.9103 239.6035)" class="st1 st5 st6">TE*</text>
<text transform="matrix(1 0 0 1 298.7697 229.5957)" class="st1 st5 st6">T</text>
<text transform="matrix(1 0 0 1 303.1134 229.5957)" class="st1 st5 st6">ARGET CORE</text>
<text transform="matrix(1 0 0 1 298.7697 239.6035)" class="st1 st5 st6">ALLOCA</text>
<text transform="matrix(1 0 0 1 333.9415 239.6035)" class="st1 st5 st6">TION</text>
<text transform="matrix(1 0 0 1 411.9884 229.5957)" class="st1 st5 st6">INFLA</text>
<text transform="matrix(1 0 0 1 437.1603 229.5957)" class="st1 st5 st6">TION </text>
<text transform="matrix(1 0 0 1 411.9884 239.6035)" class="st1 st5 st6">ADJUSTED</text>
<text transform="matrix(1 0 0 1 483.9884 229.5957)" class="st1 st5 st6">SPENDING </text>
<text transform="matrix(1 0 0 1 483.9884 239.6035)" class="st1 st5 st6">RESERVE</text>
<text transform="matrix(1 0 0 1 239.5743 263.2363)" class="st4 st5 st7">3%</text>
<text transform="matrix(1 0 0 1 298.7697 261.7207)" class="st4 st2 st6">60 equity - 40 bond</text>
<text transform="matrix(1 0 0 1 483.9884 261.7207)" class="st4 st2 st6">multi-year</text>
<text transform="matrix(1 0 0 1 239.5743 282.6426)" class="st4 st5 st7">4%</text>
<text transform="matrix(1 0 0 1 298.7697 281.1348)" class="st4 st2 st6">70 equity - 30 bond</text>
<text transform="matrix(1 0 0 1 483.9884 281.1348)" class="st4 st2 st6">multi-year</text>
<text transform="matrix(1 0 0 1 239.5743 302.0488)" class="st4 st5 st7">5%</text>
<text transform="matrix(1 0 0 1 298.7697 300.5488)" class="st4 st2 st6">80 equity - 20 bond</text>
<text transform="matrix(1 0 0 1 483.9884 300.5488)" class="st4 st2 st6">multi-year</text>
<text transform="matrix(1 0 0 1 239.5743 321.4707)" class="st4 st5 st7">6%</text>
<text transform="matrix(1 0 0 1 298.7697 319.9629)" class="st4 st2 st6">90 equity - 10 bond</text>
<text transform="matrix(1 0 0 1 483.9884 319.9629)" class="st4 st2 st6">multi-year</text>
<text transform="matrix(1 0 0 1 239.5743 340.8691)" class="st4 st5 st7">7% </text>
<text transform="matrix(1 0 0 1 262.9103 340.8691)" class="st4 st5 st7"> </text>
<text transform="matrix(1 0 0 1 298.7697 339.3691)" class="st4 st2 st6">100 equity</text>
<text transform="matrix(1 0 0 1 483.9884 339.3691)" class="st4 st2 st6">multi-year</text>
<polygon class="st1" points="430.1,317.2 434.9,322 443.8,313.1 442.3,311.6 434.9,319.1 431.6,315.8 430.1,317.2 "/>
<polygon class="st1" points="430.1,297.8 434.9,302.5 443.8,293.6 442.3,292.2 434.9,299.6 431.6,296.3 430.1,297.8 "/>
<polygon class="st1" points="430.1,278.3 434.9,283.1 443.8,274.2 442.3,272.7 434.9,280.2 431.6,276.9 430.1,278.3 "/>
<polygon class="st1" points="430.1,258.8 434.9,263.6 443.8,254.7 442.3,253.3 434.9,260.7 431.6,257.4 430.1,258.8 "/>
<polygon class="st1" points="430.1,336.7 434.9,341.4 443.8,332.5 442.3,331.1 434.9,338.5 431.6,335.2 430.1,336.7 "/>
<text transform="matrix(1 0 0 1 578.5919 257.6426)" class="st4 st8 st9">Max end </text>
<text transform="matrix(1 0 0 1 578.5919 267.2412)" class="st4 st8 st9">wealth</text>
<text transform="matrix(1 0 0 1 576.6056 331.6426)" class="st4 st8 st9">Max </text>
<text transform="matrix(1 0 0 1 576.6056 341.2334)" class="st4 st8 st9">spending</text>
<polyline class="st1" points="567.4,253.3 567.4,340.1 569,340.1 569,253.3 "/>
<polygon class="st1" points="564.4,258.6 568.2,254.5 572,258.6 573.2,257.4 568.2,252 563.2,257.4 564.4,258.6 "/>
<polygon class="st1" points="572,334.8 568.2,338.8 564.4,334.8 563.2,335.9 568.2,341.3 573.2,335.9 572,334.8 "/>
<polyline class="st4" points="557.5,248.7 602.3,248.7 602.3,248.2 557.5,248.2 "/>
<polyline class="st4" points="557.5,346.7 602.3,346.7 602.3,346.2 557.5,346.2 "/>
<text transform="matrix(1 0 0 1 234.8634 364.6816)" class="st4 st10 st6">*Real </text>
<text transform="matrix(1 0 0 1 258.4337 364.6816)" class="st4 st10 st6">Spen</text>
<text transform="matrix(1 0 0 1 279.4728 364.6816)" class="st4 st10 st6">d</text>
<text transform="matrix(1 0 0 1 285.2072 361.6816)" class="st4 st10 st11">®</text>
<text transform="matrix(1 0 0 1 289.4103 364.6816)" class="st4 st10 st6"> </text>
<text transform="matrix(1 0 0 1 291.7462 364.6816)" class="st4 st10 st6">is</text>
<text transform="matrix(1 0 0 1 297.8556 364.6816)" class="st4 st10 st6"> NO</text>
<text transform="matrix(1 0 0 1 314.5822 364.6816)" class="st4 st10 st6">T A GU</text>
<text transform="matrix(1 0 0 1 343.59 364.6816)" class="st4 st10 st6">AR</text>
<text transform="matrix(1 0 0 1 355.5978 364.6816)" class="st4 st10 st6">ANTE</text>
<text transform="matrix(1 0 0 1 379.4962 364.6816)" class="st4 st10 st6">E ag</text>
<text transform="matrix(1 0 0 1 397.504 364.6816)" class="st4 st10 st6">ains</text>
<text transform="matrix(1 0 0 1 413.6915 364.6816)" class="st4 st10 st6">t ma</text>
<text transform="matrix(1 0 0 1 431.5275 364.6816)" class="st4 st10 st6">rk</text>
<text transform="matrix(1 0 0 1 438.9884 364.6816)" class="st4 st10 st6">et lo</text>
<text transform="matrix(1 0 0 1 457.1368 364.6816)" class="st4 st10 st6">ss</text>
<text transform="matrix(1 0 0 1 465.0509 364.6816)" class="st4 st10 st6"> </text>
<text transform="matrix(1 0 0 1 467.3947 364.6816)" class="st4 st10 st6">an</text>
<text transform="matrix(1 0 0 1 477.2853 364.6816)" class="st4 st10 st6">d </text>
<text transform="matrix(1 0 0 1 485.1134 364.6816)" class="st4 st10 st6">ther</text>
<text transform="matrix(1 0 0 1 501.5197 364.6816)" class="st4 st10 st6">e </text>
<text transform="matrix(1 0 0 1 508.8556 364.6816)" class="st4 st10 st6">is</text>
<text transform="matrix(1 0 0 1 514.965 364.6816)" class="st4 st10 st6"> </text>
<text transform="matrix(1 0 0 1 517.3087 364.6816)" class="st4 st10 st6">no</text>
<text transform="matrix(1 0 0 1 527.7618 364.6816)" class="st4 st10 st6"> </text>
<text transform="matrix(1 0 0 1 530.0978 364.6816)" class="st4 st10 st6">gu</text>
<text transform="matrix(1 0 0 1 540.8087 364.6816)" class="st4 st10 st6">aran</text>
<text transform="matrix(1 0 0 1 558.6212 364.6816)" class="st4 st10 st6">te</text>
<text transform="matrix(1 0 0 1 566.7462 364.6816)" class="st4 st10 st6">e </text>
<text transform="matrix(1 0 0 1 574.09 364.6816)" class="st4 st10 st6">th</text>
<text transform="matrix(1 0 0 1 582.2853 364.6816)" class="st4 st10 st6">at</text>
<text transform="matrix(1 0 0 1 590.0509 364.6816)" class="st4 st10 st6"> </text>
<text transform="matrix(1 0 0 1 234.8634 375.6895)" class="st4 st10 st6">th</text>
<text transform="matrix(1 0 0 1 243.0978 375.6895)" class="st4 st10 st6">e </text>
<text transform="matrix(1 0 0 1 250.4415 375.6895)" class="st4 st10 st6">Spen</text>
<text transform="matrix(1 0 0 1 271.4728 375.6895)" class="st4 st10 st6">d Ra</text>
<text transform="matrix(1 0 0 1 289.4181 375.6895)" class="st4 st10 st6">te </text>
<text transform="matrix(1 0 0 1 299.7697 375.6895)" class="st4 st10 st6">ch</text>
<text transform="matrix(1 0 0 1 309.4025 375.6895)" class="st4 st10 st6">osen</text>
<text transform="matrix(1 0 0 1 328.9728 375.6895)" class="st4 st10 st6"> by </text>
<text transform="matrix(1 0 0 1 343.3322 375.6895)" class="st4 st10 st6">th</text>
<text transform="matrix(1 0 0 1 351.59 375.6895)" class="st4 st10 st6">e inve</text>
<text transform="matrix(1 0 0 1 375.5353 375.6895)" class="st4 st10 st6">st</text>
<text transform="matrix(1 0 0 1 382.6134 375.6895)" class="st4 st10 st6">or</text>
<text transform="matrix(1 0 0 1 391.0587 375.6895)" class="st4 st10 st6"> </text>
<text transform="matrix(1 0 0 1 393.3947 375.6895)" class="st4 st10 st6">wi</text>
<text transform="matrix(1 0 0 1 402.0587 375.6895)" class="st4 st10 st6">ll lead to su</text>
<text transform="matrix(1 0 0 1 448.3165 375.6895)" class="st4 st10 st6">cces</text>
<text transform="matrix(1 0 0 1 466.4806 375.6895)" class="st4 st10 st6">sf</text>
<text transform="matrix(1 0 0 1 473.4025 375.6895)" class="st4 st10 st6">ul inve</text>
<text transform="matrix(1 0 0 1 499.5665 375.6895)" class="st4 st10 st6">st</text>
<text transform="matrix(1 0 0 1 506.7931 375.6895)" class="st4 st10 st6">ment</text>
<text transform="matrix(1 0 0 1 527.7775 375.6895)" class="st4 st10 st6"> </text>
<text transform="matrix(1 0 0 1 530.1212 375.6895)" class="st4 st10 st6">ou</text>
<text transform="matrix(1 0 0 1 540.7697 375.6895)" class="st4 st10 st6">tc</text>
<text transform="matrix(1 0 0 1 548.1993 375.6895)" class="st4 st10 st6">omes</text>
<text transform="matrix(1 0 0 1 570.4415 375.6895)" class="st4 st10 st6"> fo</text>
<text transform="matrix(1 0 0 1 580.9103 375.6895)" class="st4 st10 st6">r </text>
<text transform="matrix(1 0 0 1 586.254 375.6895)" class="st4 st10 st6">th</text>
<text transform="matrix(1 0 0 1 594.504 375.6895)" class="st4 st10 st6">e </text>
<text transform="matrix(1 0 0 1 234.8634 386.6816)" class="st4 st10 st6">entire</text>
<text transform="matrix(1 0 0 1 258.5118 386.6816)" class="st4 st10 st6">ty</text>
<text transform="matrix(1 0 0 1 266.0822 386.6816)" class="st4 st10 st6"> of </text>
<text transform="matrix(1 0 0 1 278.7853 386.6816)" class="st4 st10 st6">an</text>
<text transform="matrix(1 0 0 1 288.5665 386.6816)" class="st4 st10 st6"> inve</text>
<text transform="matrix(1 0 0 1 307.5197 386.6816)" class="st4 st10 st6">st</text>
<text transform="matrix(1 0 0 1 314.5978 386.6816)" class="st4 st10 st6">or</text>
<text transform="matrix(1 0 0 1 323.2853 386.6816)" class="st4 st10 st6">’s</text>
<text transform="matrix(1 0 0 1 329.2228 386.6816)" class="st4 st10 st6"> re</text>
<text transform="matrix(1 0 0 1 339.6837 386.6816)" class="st4 st10 st6">tirement</text>
<text transform="matrix(1 0 0 1 374.2618 386.6816)" class="st4 st10 st6">. </text>
<text transform="matrix(1 0 0 1 378.9415 386.6816)" class="st4 st10 st6">Se</text>
<text transform="matrix(1 0 0 1 389.1837 386.6816)" class="st4 st10 st6">e ad</text>
<text transform="matrix(1 0 0 1 406.9493 386.6816)" class="st4 st10 st6">ditional</text>
<text transform="matrix(1 0 0 1 437.5743 386.6816)" class="st4 st10 st6"> </text>
<text transform="matrix(1 0 0 1 439.9181 386.6816)" class="st4 st10 st6">disclosu</text>
<text transform="matrix(1 0 0 1 473.004 386.6816)" class="st4 st10 st6">re</text>
<text transform="matrix(1 0 0 1 481.2072 386.6816)" class="st4 st10 st6">s </text>
<text transform="matrix(1 0 0 1 487.379 386.6816)" class="st4 st10 st6">at</text>
<text transform="matrix(1 0 0 1 495.1525 386.6816)" class="st4 st10 st6"> </text>
<text transform="matrix(1 0 0 1 497.4884 386.6816)" class="st4 st10 st6">th</text>
<text transform="matrix(1 0 0 1 505.7384 386.6816)" class="st4 st10 st6">e </text>
<text transform="matrix(1 0 0 1 513.0822 386.6816)" class="st4 st10 st6">en</text>
<text transform="matrix(1 0 0 1 523.3087 386.6816)" class="st4 st10 st6">d of </text>
<text transform="matrix(1 0 0 1 541.5197 386.6816)" class="st4 st10 st6">th</text>
<text transform="matrix(1 0 0 1 549.7072 386.6816)" class="st4 st10 st6">is</text>
<text transform="matrix(1 0 0 1 555.8165 386.6816)" class="st4 st10 st6"> </text>
<text transform="matrix(1 0 0 1 558.1603 386.6816)" class="st4 st10 st6">document</text>
<text transform="matrix(1 0 0 1 600.0353 386.6816)" class="st4 st10 st6">.</text>
</svg>
