<?xml version="1.0" encoding="utf-8"?>
<!-- Generator: Adobe Illustrator 19.0.0, SVG Export Plug-In . SVG Version: 6.00 Build 0)  -->
<svg version="1.1" id="Layer_1" xmlns="http://www.w3.org/2000/svg" xmlns:xlink="http://www.w3.org/1999/xlink" x="0px" y="0px"
	 viewBox="0 0 841.9 595.3" style="enable-background:new 0 0 841.9 595.3;" xml:space="preserve">
<style type="text/css">
	.st0{fill:#333E48;}
	.st1{fill:#78A22F;}
	.st2{font-family:'Avenir-Book';}
	.st3{font-size:18.5536px;}
	.st4{fill:#FFFFFF;}
	.st5{font-family:'Avenir-Heavy';}
	.st6{font-size:8.6488px;}
	.st7{font-size:12.4928px;}
	.st8{font-family:'AvenirNextCondensed-Regular';}
	.st9{font-size:7.6878px;}
	.st10{font-family:'Avenir-Light';}
	.st11{font-size:5.0423px;}
</style>
<polygon class="st0" points="213.7,418.4 213.7,177.6 628.8,177.6 628.8,418.4 213.7,418.4 "/>
<text transform="matrix(1 0 0 1 244.754 208.541)" class="st1 st2 st3">Real Spending Options</text>
<path class="st0" d="M242.8,221.6h52.6v29.2h-52.6V221.6z M295.4,221.6h108.8v29.2H295.4V221.6z M404.2,221.6h69.2v29.2h-69.2V221.6
	z M473.4,221.6h65v29.2h-65V221.6z"/>
<polyline class="st4" points="242.8,251 295.4,251 295.4,250.5 242.8,250.5 "/>
<polyline class="st4" points="295.4,251 404.2,251 404.2,250.5 295.4,250.5 "/>
<polyline class="st4" points="404.2,251 473.4,251 473.4,250.5 404.2,250.5 "/>
<polyline class="st4" points="473.4,251 538.4,251 538.4,250.5 473.4,250.5 "/>
<polyline class="st4" points="242.8,269.7 295.4,269.7 295.4,269.2 242.8,269.2 "/>
<polyline class="st4" points="295.4,269.7 404.2,269.7 404.2,269.2 295.4,269.2 "/>
<polyline class="st4" points="404.2,269.7 473.4,269.7 473.4,269.2 404.2,269.2 "/>
<polyline class="st4" points="473.4,269.7 538.4,269.7 538.4,269.2 473.4,269.2 "/>
<polyline class="st4" points="242.8,288.3 295.4,288.3 295.4,287.8 242.8,287.8 "/>
<polyline class="st4" points="295.4,288.3 404.2,288.3 404.2,287.8 295.4,287.8 "/>
<polyline class="st4" points="404.2,288.3 473.4,288.3 473.4,287.8 404.2,287.8 "/>
<polyline class="st4" points="473.4,288.3 538.4,288.3 538.4,287.8 473.4,287.8 "/>
<polyline class="st4" points="242.8,307 295.4,307 295.4,306.5 242.8,306.5 "/>
<polyline class="st4" points="295.4,307 404.2,307 404.2,306.5 295.4,306.5 "/>
<polyline class="st4" points="404.2,307 473.4,307 473.4,306.5 404.2,306.5 "/>
<polyline class="st4" points="473.4,307 538.4,307 538.4,306.5 473.4,306.5 "/>
<polyline class="st4" points="242.8,325.6 295.4,325.6 295.4,325.1 242.8,325.1 "/>
<polyline class="st4" points="295.4,325.6 404.2,325.6 404.2,325.1 295.4,325.1 "/>
<polyline class="st4" points="404.2,325.6 473.4,325.6 473.4,325.1 404.2,325.1 "/>
<polyline class="st4" points="473.4,325.6 538.4,325.6 538.4,325.1 473.4,325.1 "/>
<polyline class="st4" points="242.8,344.3 295.4,344.3 295.4,343.8 242.8,343.8 "/>
<polyline class="st4" points="295.4,344.3 404.2,344.3 404.2,343.8 295.4,343.8 "/>
<polyline class="st4" points="404.2,344.3 473.4,344.3 473.4,343.8 404.2,343.8 "/>
<polyline class="st4" points="473.4,344.3 538.4,344.3 538.4,343.8 473.4,343.8 "/>
<polyline class="st4" points="295.6,250.5 295.6,221.6 295.2,221.6 295.2,250.5 "/>
<polyline class="st4" points="295.6,269.2 295.6,251 295.2,251 295.2,269.2 "/>
<polyline class="st4" points="295.6,287.8 295.6,269.7 295.2,269.7 295.2,287.8 "/>
<polyline class="st4" points="295.6,306.5 295.6,288.3 295.2,288.3 295.2,306.5 "/>
<polyline class="st4" points="295.6,325.1 295.6,307 295.2,307 295.2,325.1 "/>
<polyline class="st4" points="295.6,343.8 295.6,325.6 295.2,325.6 295.2,343.8 "/>
<polyline class="st4" points="473.6,250.5 473.6,221.6 473.2,221.6 473.2,250.5 "/>
<polyline class="st4" points="473.6,269.2 473.6,251 473.2,251 473.2,269.2 "/>
<polyline class="st4" points="473.6,287.8 473.6,269.7 473.2,269.7 473.2,287.8 "/>
<polyline class="st4" points="473.6,306.5 473.6,288.3 473.2,288.3 473.2,306.5 "/>
<polyline class="st4" points="473.6,325.1 473.6,307 473.2,307 473.2,325.1 "/>
<polyline class="st4" points="473.6,343.8 473.6,325.6 473.2,325.6 473.2,343.8 "/>
<polyline class="st4" points="404.5,250.5 404.5,221.6 404,221.6 404,250.5 "/>
<polyline class="st4" points="404.5,269.2 404.5,251 404,251 404,269.2 "/>
<polyline class="st4" points="404.5,287.8 404.5,269.7 404,269.7 404,287.8 "/>
<polyline class="st4" points="404.5,306.5 404.5,288.3 404,288.3 404,306.5 "/>
<polyline class="st4" points="404.5,325.1 404.5,307 404,307 404,325.1 "/>
<polyline class="st4" points="404.5,343.8 404.5,325.6 404,325.6 404,343.8 "/>
<text transform="matrix(1 0 0 1 247.1603 232.4941)" class="st1 st5 st6">SPEND </text>
<text transform="matrix(1 0 0 1 247.1603 242.1006)" class="st1 st5 st6">RA</text>
<text transform="matrix(1 0 0 1 258.0607 242.1006)" class="st1 st5 st6">TE*</text>
<text transform="matrix(1 0 0 1 304.0509 232.4941)" class="st1 st5 st6">T</text>
<text transform="matrix(1 0 0 1 308.215 232.4941)" class="st1 st5 st6">ARGET CORE</text>
<text transform="matrix(1 0 0 1 304.0509 242.1006)" class="st1 st5 st6">ALLOCA</text>
<text transform="matrix(1 0 0 1 337.8478 242.1006)" class="st1 st5 st6">TION</text>
<text transform="matrix(1 0 0 1 412.8556 232.4941)" class="st1 st5 st6">INFLA</text>
<text transform="matrix(1 0 0 1 437.0509 232.4941)" class="st1 st5 st6">TION </text>
<text transform="matrix(1 0 0 1 412.8556 242.1006)" class="st1 st5 st6">ADJUSTED</text>
<text transform="matrix(1 0 0 1 482.0353 232.4941)" class="st1 st5 st6">SPENDING </text>
<text transform="matrix(1 0 0 1 482.0353 242.1006)" class="st1 st5 st6">RESERVE</text>
<text transform="matrix(1 0 0 1 247.1622 264.8379)" class="st4 st5 st7">3%</text>
<text transform="matrix(1 0 0 1 304.0509 263.3848)" class="st4 st2 st6">60 equity - 40 bond</text>
<text transform="matrix(1 0 0 1 482.0353 263.3848)" class="st4 st2 st6">multi-year</text>
<text transform="matrix(1 0 0 1 247.1622 283.4785)" class="st4 st5 st7">4%</text>
<text transform="matrix(1 0 0 1 304.0509 282.0254)" class="st4 st2 st6">70 equity - 30 bond</text>
<text transform="matrix(1 0 0 1 482.0353 282.0254)" class="st4 st2 st6">multi-year</text>
<text transform="matrix(1 0 0 1 247.1622 302.1318)" class="st4 st5 st7">5%</text>
<text transform="matrix(1 0 0 1 304.0509 300.6895)" class="st4 st2 st6">80 equity - 20 bond</text>
<text transform="matrix(1 0 0 1 482.0353 300.6895)" class="st4 st2 st6">multi-year</text>
<text transform="matrix(1 0 0 1 247.1622 320.7832)" class="st4 st5 st7">6%</text>
<text transform="matrix(1 0 0 1 304.0509 319.3301)" class="st4 st2 st6">90 equity - 10 bond</text>
<text transform="matrix(1 0 0 1 482.0353 319.3301)" class="st4 st2 st6">multi-year</text>
<text transform="matrix(1 0 0 1 247.1622 339.4473)" class="st4 st5 st7">7% </text>
<text transform="matrix(1 0 0 1 269.5822 339.4473)" class="st4 st5 st7"> </text>
<text transform="matrix(1 0 0 1 304.0509 337.9863)" class="st4 st2 st6">100 equity</text>
<text transform="matrix(1 0 0 1 482.0353 337.9863)" class="st4 st2 st6">multi-year</text>
<polygon class="st1" points="430.3,316.7 434.9,321.3 443.4,312.7 442,311.3 434.9,318.5 431.7,315.3 430.3,316.7 "/>
<polygon class="st1" points="430.3,298 434.9,302.6 443.4,294 442,292.6 434.9,299.8 431.7,296.6 430.3,298 "/>
<polygon class="st1" points="430.3,279.3 434.9,283.9 443.4,275.3 442,273.9 434.9,281.1 431.7,277.9 430.3,279.3 "/>
<polygon class="st1" points="430.3,260.6 434.9,265.2 443.4,256.6 442,255.3 434.9,262.4 431.7,259.2 430.3,260.6 "/>
<polygon class="st1" points="430.3,335.4 434.9,340 443.4,331.4 442,330 434.9,337.2 431.7,334 430.3,335.4 "/>
<text transform="matrix(1 0 0 1 572.9572 259.4551)" class="st4 st8 st9">Max end </text>
<text transform="matrix(1 0 0 1 572.9572 268.6738)" class="st4 st8 st9">wealth</text>
<text transform="matrix(1 0 0 1 571.0353 330.5645)" class="st4 st8 st9">Max </text>
<text transform="matrix(1 0 0 1 571.0353 339.791)" class="st4 st8 st9">spending</text>
<polyline class="st1" points="562.2,255.2 562.2,338.7 563.8,338.7 563.8,255.2 "/>
<polygon class="st1" points="559.2,260.4 563,256.4 566.7,260.4 567.9,259.3 563,254.1 558.1,259.3 559.2,260.4 "/>
<polygon class="st1" points="566.7,333.4 563,337.5 559.2,333.4 558.1,334.5 563,339.8 567.9,334.5 566.7,333.4 "/>
<polyline class="st4" points="552.7,250.8 595.8,250.8 595.8,250.4 552.7,250.4 "/>
<polyline class="st4" points="552.7,345 595.8,345 595.8,344.5 552.7,344.5 "/>
<text transform="matrix(1 0 0 1 242.629 362.3145)" class="st4 st10 st6">*Real </text>
<text transform="matrix(1 0 0 1 265.3556 362.3145)" class="st4 st10 st6">Spen</text>
<text transform="matrix(1 0 0 1 285.6212 362.3145)" class="st4 st10 st6">d</text>
<text transform="matrix(1 0 0 1 291.1603 359.4238)" class="st4 st10 st11">®</text>
<text transform="matrix(1 0 0 1 295.1837 362.3145)" class="st4 st10 st6"> </text>
<text transform="matrix(1 0 0 1 297.4415 362.3145)" class="st4 st10 st6">is</text>
<text transform="matrix(1 0 0 1 303.3243 362.3145)" class="st4 st10 st6"> NO</text>
<text transform="matrix(1 0 0 1 319.4181 362.3145)" class="st4 st10 st6">T A GU</text>
<text transform="matrix(1 0 0 1 347.3322 362.3145)" class="st4 st10 st6">AR</text>
<text transform="matrix(1 0 0 1 358.9103 362.3145)" class="st4 st10 st6">ANTE</text>
<text transform="matrix(1 0 0 1 381.9259 362.3145)" class="st4 st10 st6">E ag</text>
<text transform="matrix(1 0 0 1 399.256 362.3145)" class="st4 st10 st6">ains</text>
<text transform="matrix(1 0 0 1 414.8868 362.3145)" class="st4 st10 st6">t ma</text>
<text transform="matrix(1 0 0 1 432.0509 362.3145)" class="st4 st10 st6">rk</text>
<text transform="matrix(1 0 0 1 439.254 362.3145)" class="st4 st10 st6">et</text>
<text transform="matrix(1 0 0 1 447.0509 362.3145)" class="st4 st10 st6"> lo</text>
<text transform="matrix(1 0 0 1 456.7306 362.3145)" class="st4 st10 st6">ss</text>
<text transform="matrix(1 0 0 1 464.3556 362.3145)" class="st4 st10 st6"> </text>
<text transform="matrix(1 0 0 1 466.6056 362.3145)" class="st4 st10 st6">an</text>
<text transform="matrix(1 0 0 1 476.1368 362.3145)" class="st4 st10 st6">d </text>
<text transform="matrix(1 0 0 1 483.6622 362.3145)" class="st4 st10 st6">ther</text>
<text transform="matrix(1 0 0 1 499.4806 362.3145)" class="st4 st10 st6">e </text>
<text transform="matrix(1 0 0 1 506.5353 362.3145)" class="st4 st10 st6">is</text>
<text transform="matrix(1 0 0 1 512.4259 362.3145)" class="st4 st10 st6"> </text>
<text transform="matrix(1 0 0 1 514.6603 362.3145)" class="st4 st10 st6">no</text>
<text transform="matrix(1 0 0 1 524.7306 362.3145)" class="st4 st10 st6"> </text>
<text transform="matrix(1 0 0 1 526.9728 362.3145)" class="st4 st10 st6">gu</text>
<text transform="matrix(1 0 0 1 537.2931 362.3145)" class="st4 st10 st6">aran</text>
<text transform="matrix(1 0 0 1 554.4728 362.3145)" class="st4 st10 st6">te</text>
<text transform="matrix(1 0 0 1 562.3165 362.3145)" class="st4 st10 st6">e </text>
<text transform="matrix(1 0 0 1 569.379 362.3145)" class="st4 st10 st6">th</text>
<text transform="matrix(1 0 0 1 577.2853 362.3145)" class="st4 st10 st6">at</text>
<text transform="matrix(1 0 0 1 584.754 362.3145)" class="st4 st10 st6"> </text>
<text transform="matrix(1 0 0 1 242.629 372.8848)" class="st4 st10 st6">th</text>
<text transform="matrix(1 0 0 1 250.5822 372.8848)" class="st4 st10 st6">e </text>
<text transform="matrix(1 0 0 1 257.6447 372.8848)" class="st4 st10 st6">Spen</text>
<text transform="matrix(1 0 0 1 277.9103 372.8848)" class="st4 st10 st6">d Ra</text>
<text transform="matrix(1 0 0 1 295.1837 372.8848)" class="st4 st10 st6">te </text>
<text transform="matrix(1 0 0 1 305.1525 372.8848)" class="st4 st10 st6">chosen</text>
<text transform="matrix(1 0 0 1 333.2853 372.8848)" class="st4 st10 st6"> by </text>
<text transform="matrix(1 0 0 1 347.0978 372.8848)" class="st4 st10 st6">th</text>
<text transform="matrix(1 0 0 1 355.0509 372.8848)" class="st4 st10 st6">e inve</text>
<text transform="matrix(1 0 0 1 378.1447 372.8848)" class="st4 st10 st6">st</text>
<text transform="matrix(1 0 0 1 384.965 372.8848)" class="st4 st10 st6">or</text>
<text transform="matrix(1 0 0 1 393.0978 372.8848)" class="st4 st10 st6"> </text>
<text transform="matrix(1 0 0 1 395.3419 372.8848)" class="st4 st10 st6">wi</text>
<text transform="matrix(1 0 0 1 403.6993 372.8848)" class="st4 st10 st6">ll lead to </text>
<text transform="matrix(1 0 0 1 439.5509 372.8848)" class="st4 st10 st6">succes</text>
<text transform="matrix(1 0 0 1 465.7697 372.8848)" class="st4 st10 st6">sf</text>
<text transform="matrix(1 0 0 1 472.4493 372.8848)" class="st4 st10 st6">ul inve</text>
<text transform="matrix(1 0 0 1 497.67 372.8848)" class="st4 st10 st6">st</text>
<text transform="matrix(1 0 0 1 504.6447 372.8848)" class="st4 st10 st6">ment</text>
<text transform="matrix(1 0 0 1 524.8634 372.8848)" class="st4 st10 st6"> </text>
<text transform="matrix(1 0 0 1 527.1134 372.8848)" class="st4 st10 st6">ou</text>
<text transform="matrix(1 0 0 1 537.3556 372.8848)" class="st4 st10 st6">tc</text>
<text transform="matrix(1 0 0 1 544.5294 372.8848)" class="st4 st10 st6">omes</text>
<text transform="matrix(1 0 0 1 565.9572 372.8848)" class="st4 st10 st6"> fo</text>
<text transform="matrix(1 0 0 1 576.0587 372.8848)" class="st4 st10 st6">r </text>
<text transform="matrix(1 0 0 1 581.1857 372.8848)" class="st4 st10 st6">th</text>
<text transform="matrix(1 0 0 1 589.1368 372.8848)" class="st4 st10 st6">e </text>
<text transform="matrix(1 0 0 1 242.629 383.4629)" class="st4 st10 st6">entire</text>
<text transform="matrix(1 0 0 1 265.4572 383.4629)" class="st4 st10 st6">ty</text>
<text transform="matrix(1 0 0 1 272.7384 383.4629)" class="st4 st10 st6"> of </text>
<text transform="matrix(1 0 0 1 284.9728 383.4629)" class="st4 st10 st6">an</text>
<text transform="matrix(1 0 0 1 294.3868 383.4629)" class="st4 st10 st6"> inve</text>
<text transform="matrix(1 0 0 1 312.6525 383.4629)" class="st4 st10 st6">st</text>
<text transform="matrix(1 0 0 1 319.4806 383.4629)" class="st4 st10 st6">or</text>
<text transform="matrix(1 0 0 1 327.8634 383.4629)" class="st4 st10 st6">’s</text>
<text transform="matrix(1 0 0 1 333.5841 383.4629)" class="st4 st10 st6"> re</text>
<text transform="matrix(1 0 0 1 343.6759 383.4629)" class="st4 st10 st6">tirement</text>
<text transform="matrix(1 0 0 1 377.0197 383.4629)" class="st4 st10 st6">. </text>
<text transform="matrix(1 0 0 1 381.5197 383.4629)" class="st4 st10 st6">Se</text>
<text transform="matrix(1 0 0 1 391.379 383.4629)" class="st4 st10 st6">e </text>
<text transform="matrix(1 0 0 1 398.4435 383.4629)" class="st4 st10 st6">additional</text>
<text transform="matrix(1 0 0 1 438.0197 383.4629)" class="st4 st10 st6"> </text>
<text transform="matrix(1 0 0 1 440.2775 383.4629)" class="st4 st10 st6">disclosu</text>
<text transform="matrix(1 0 0 1 472.1915 383.4629)" class="st4 st10 st6">re</text>
<text transform="matrix(1 0 0 1 480.0978 383.4629)" class="st4 st10 st6">s </text>
<text transform="matrix(1 0 0 1 486.0431 383.4629)" class="st4 st10 st6">at</text>
<text transform="matrix(1 0 0 1 493.5197 383.4629)" class="st4 st10 st6"> </text>
<text transform="matrix(1 0 0 1 495.7618 383.4629)" class="st4 st10 st6">th</text>
<text transform="matrix(1 0 0 1 503.7228 383.4629)" class="st4 st10 st6">e </text>
<text transform="matrix(1 0 0 1 510.7697 383.4629)" class="st4 st10 st6">en</text>
<text transform="matrix(1 0 0 1 520.631 383.4629)" class="st4 st10 st6">d of </text>
<text transform="matrix(1 0 0 1 538.1447 383.4629)" class="st4 st10 st6">th</text>
<text transform="matrix(1 0 0 1 546.0431 383.4629)" class="st4 st10 st6">is</text>
<text transform="matrix(1 0 0 1 551.9337 383.4629)" class="st4 st10 st6"> </text>
<text transform="matrix(1 0 0 1 554.1837 383.4629)" class="st4 st10 st6">document</text>
<text transform="matrix(1 0 0 1 594.5509 383.4629)" class="st4 st10 st6">.</text>
</svg>
