<?xml version="1.0" encoding="utf-8"?>
<!-- Generator: Adobe Illustrator 19.0.0, SVG Export Plug-In . SVG Version: 6.00 Build 0)  -->
<svg version="1.1" id="Layer_1" xmlns="http://www.w3.org/2000/svg" xmlns:xlink="http://www.w3.org/1999/xlink" x="0px" y="0px"
	 viewBox="0 0 841.9 595.3" style="enable-background:new 0 0 841.9 595.3;" xml:space="preserve">
<style type="text/css">
	.st0{fill:#EDF2F0;}
	.st1{fill:#FFFFFF;}
	.st2{fill:#333E48;}
	.st3{font-family:'Gotham-Medium';}
	.st4{font-size:19.2902px;}
	.st5{fill:#EF4037;}
</style>
<polygon class="st0" points="598.7,379 629.9,331.1 598.7,283.2 449.7,283.2 449.7,379.1 598.7,379 "/>
<polygon class="st1" points="473.6,379 504.8,331.1 473.6,283.2 331.8,283.2 331.8,379.1 473.6,379 "/>
<polygon class="st0" points="470.2,379 501.3,331.1 470.2,283.2 308.4,283.2 308.4,379.1 470.2,379 "/>
<polygon class="st1" points="337,379 368.2,331.1 337,283.2 215.1,283.2 215.1,379.1 337,379 "/>
<polygon class="st0" points="333.6,379 364.7,331.1 333.6,283.2 211.6,283.2 211.6,379.1 333.6,379 "/>
<text transform="matrix(1 0 0 1 331.6993 234.2988)" class="st2 st3 st4">Our EQF Appr</text>
<text transform="matrix(1 0 0 1 470.3165 234.2988)" class="st2 st3 st4">oach</text>
<path class="st2" d="M254.3,386.9c-1-1.2-2.2-1.6-3.6-1.6c-3.2,0-5.5,2.2-5.5,5.5c0,3.2,2.3,5.4,5.5,5.4c1.5,0,2.9-0.6,3.9-1.8
	l-1.5-1.1c-0.7,0.9-1.5,1.3-2.3,1.3c-2.1,0-3.6-1.6-3.6-3.9c0-2.1,1.4-3.7,3.6-3.7c0.7,0,1.4,0.2,2.2,1L254.3,386.9L254.3,386.9z
	 M255.2,390.8c0,3.2,2.3,5.4,5.5,5.4c3.2-0.1,5.5-2.2,5.5-5.5c0-3.3-2.3-5.5-5.5-5.4C257.5,385.3,255.2,387.5,255.2,390.8
	L255.2,390.8z M257.2,390.7c0-2.1,1.4-3.7,3.6-3.7c2.2,0,3.6,1.6,3.6,3.7c0,2.2-1.4,3.9-3.6,3.9
	C258.6,394.5,257.2,392.9,257.2,390.7L257.2,390.7z M268.2,395.9h6.2v-1.7H270v-8.7h-1.8V395.9L268.2,395.9z M275.9,395.9h6.2v-1.7
	h-4.4v-8.7h-1.8V395.9L275.9,395.9z M283.7,395.9h7.1v-1.7h-5.3v-2.8h4.8v-1.7h-4.8v-2.5h5v-1.7h-6.9V395.9L283.7,395.9z
	 M301.2,386.9c-1-1.2-2.2-1.6-3.6-1.6c-3.2,0-5.5,2.2-5.5,5.5c0,3.2,2.3,5.4,5.5,5.4c1.5,0,2.9-0.6,3.9-1.8l-1.5-1.1
	c-0.7,0.9-1.5,1.3-2.3,1.3c-2.1,0-3.6-1.6-3.6-3.9c0-2.1,1.4-3.7,3.6-3.7c0.7,0,1.4,0.2,2.2,1L301.2,386.9L301.2,386.9z
	 M305.4,395.9h1.8v-8.7h3.2v-1.7h-8.2v1.7h3.2V395.9L305.4,395.9z"/>
<path class="st2" d="M390.7,395.9h3.9c2.5,0,5.5-1.6,5.5-5.2c0-3.5-2.5-5.2-5.3-5.2h-4.1V395.9L390.7,395.9z M392.5,394.3v-7h1.7
	c2.3,0,3.9,1,3.9,3.5c0,2.5-1.9,3.5-4.2,3.5H392.5L392.5,394.3z M402,395.9h7.1v-1.7h-5.3v-2.8h4.8v-1.7h-4.8v-2.5h5v-1.7H402V395.9
	L402,395.9z M411.1,395.9h3.7c2,0,3.9-0.7,3.9-3c0-1.3-0.9-2.4-2.2-2.5v0c1.1-0.3,1.8-1.1,1.8-2.3c0-1.9-1.6-2.6-3.2-2.6h-4V395.9
	L411.1,395.9z M413,387.1h1.5c1.4,0,2,0.4,2,1.3c0,0.8-0.6,1.3-1.8,1.3H413V387.1L413,387.1z M413,391.4h1.8c1.5,0,2.2,0.4,2.2,1.5
	c0,1.4-1.3,1.5-2.3,1.5H413V391.4L413,391.4z M419.5,395.9h2.1l0.9-2.4h4.5l1,2.4h2.1l-4.5-10.4H424L419.5,395.9L419.5,395.9z
	 M423.1,392l1.6-4.2l1.6,4.2H423.1L423.1,392z M432.6,395.9h1.8v-8.7h3.2v-1.7h-8.2v1.7h3.2V395.9L432.6,395.9z M439,395.9h7.1v-1.7
	h-5.3v-2.8h4.8v-1.7h-4.8v-2.5h5v-1.7H439V395.9L439,395.9z"/>
<path class="st2" d="M527.9,395.9h3.9c2.5,0,5.5-1.6,5.5-5.2c0-3.5-2.5-5.2-5.3-5.2h-4.1V395.9L527.9,395.9z M529.8,394.3v-7h1.7
	c2.3,0,3.9,1,3.9,3.5c0,2.5-1.9,3.5-4.2,3.5H529.8L529.8,394.3z M539.2,395.9h7.1v-1.7h-5.3v-2.8h4.8v-1.7h-4.8v-2.5h5v-1.7h-6.9
	V395.9L539.2,395.9z M556.7,386.9c-1-1.2-2.2-1.6-3.6-1.6c-3.2,0-5.5,2.2-5.5,5.5c0,3.2,2.3,5.4,5.5,5.4c1.5,0,2.9-0.6,3.9-1.8
	l-1.5-1.1c-0.7,0.9-1.5,1.3-2.3,1.3c-2.1,0-3.6-1.6-3.6-3.9c0-2.1,1.4-3.7,3.6-3.7c0.7,0,1.4,0.2,2.2,1L556.7,386.9L556.7,386.9z
	 M558.4,395.9h1.8v-10.4h-1.8V395.9L558.4,395.9z M562.7,395.9h3.9c2.5,0,5.5-1.6,5.5-5.2c0-3.5-2.5-5.2-5.3-5.2h-4.1V395.9
	L562.7,395.9z M564.5,394.3v-7h1.7c2.3,0,3.9,1,3.9,3.5c0,2.5-1.9,3.5-4.2,3.5H564.5L564.5,394.3z M574,395.9h7.1v-1.7h-5.3v-2.8
	h4.8v-1.7h-4.8v-2.5h5v-1.7H574V395.9L574,395.9z"/>
<polygon class="st5" points="549.6,367.4 542.4,361.1 533.9,365.4 540.3,315.7 556,317.7 549.6,367.4 "/>
<polygon class="st5" points="581.9,351.9 572.4,352.4 569.4,361.5 538.9,321.8 551.4,312.2 581.9,351.9 "/>
<path class="st1" d="M567.4,317.1c3.2,10.6-2.7,21.8-13.3,25c-10.6,3.2-21.8-2.7-25-13.3c-3.2-10.6,2.7-21.8,13.3-25
	C552.9,300.5,564.1,306.5,567.4,317.1L567.4,317.1z"/>
<path class="st1" d="M567.4,317.1l-1.1,0.3c0.6,1.8,0.8,3.7,0.8,5.5c0,8.1-5.2,15.6-13.4,18.1c-1.8,0.6-3.7,0.8-5.5,0.8
	c-8.1,0-15.6-5.2-18.1-13.4c-0.6-1.8-0.8-3.7-0.8-5.5c0-8.1,5.2-15.6,13.4-18.1c1.8-0.6,3.7-0.8,5.5-0.8c8.1,0,15.6,5.2,18.1,13.4
	L567.4,317.1l1.1-0.3c-2.8-9.1-11.1-15-20.2-15c-2,0-4.1,0.3-6.2,0.9c-9.1,2.8-15,11.1-15,20.2c0,2,0.3,4.1,0.9,6.2
	c2.8,9.1,11.1,15,20.2,15c2,0,4.1-0.3,6.2-0.9c9.1-2.8,15-11.1,15-20.2c0-2-0.3-4.1-0.9-6.2L567.4,317.1L567.4,317.1z"/>
<path class="st2" d="M566.4,316.6c3.1,10.2-2.6,21-12.9,24.1c-10.2,3.1-21-2.6-24.1-12.9c-3.1-10.2,2.6-21,12.9-24.1
	C552.4,300.6,563.3,306.4,566.4,316.6L566.4,316.6z"/>
<polygon class="st1" points="541.7,318.8 543.7,310.1 550.3,316.2 541.7,318.8 "/>
<path class="st1" d="M550,329.7l-9.1-8.3l12-3.7L550,329.7L550,329.7z M544.4,322.2l4.6,4.2l1.5-6L544.4,322.2L544.4,322.2z"/>
<polygon class="st1" points="537.8,334 540.1,324.2 547.5,331.1 537.8,334 "/>
<polygon class="st1" points="552.8,329.4 555.1,319.6 562.4,326.5 552.8,329.4 "/>
<polygon class="st2" points="404.6,325.6 418.4,301.6 432.3,325.6 404.6,325.6 "/>
<path class="st5" d="M418.4,361.4l-17.2-29.1h34.5L418.4,361.4L418.4,361.4z M409.8,337.2l8.6,14.6l8.6-14.6H409.8L409.8,337.2z"/>
<polygon class="st2" points="383.1,362.9 396.9,338.9 410.8,362.9 383.1,362.9 "/>
<polygon class="st2" points="426,362.9 439.9,338.9 453.8,362.9 426,362.9 "/>
<path class="st1" d="M421.9,321.7l-1-0.9c-0.7,0.5-1.6,0.8-2.6,0.8c-2.6,0-4.4-2-4.4-4.4v0c0-2.4,1.8-4.4,4.4-4.4
	c2.6,0,4.4,2,4.4,4.4v0c0,1-0.3,1.9-0.9,2.6l1,0.8L421.9,321.7L421.9,321.7z M419.8,319.9l-1.5-1.2l1-1.1l1.5,1.4
	c0.3-0.5,0.4-1,0.4-1.6v0c0-1.6-1.2-3-2.9-3c-1.7,0-2.9,1.3-2.9,3v0c0,1.6,1.2,3,2.9,3C418.9,320.2,419.4,320.1,419.8,319.9
	L419.8,319.9z"/>
<polygon class="st1" points="393.9,350.2 400.2,350.2 400.2,351.5 395.4,351.5 395.4,353.7 399.6,353.7 399.6,355 395.4,355 
	395.4,357.3 400.2,357.3 400.2,358.6 393.9,358.6 393.9,350.2 "/>
<polygon class="st1" points="436.9,350.2 443.2,350.2 443.2,351.5 438.4,351.5 438.4,353.8 442.7,353.8 442.7,355.2 438.4,355.2 
	438.4,358.6 436.9,358.6 436.9,350.2 "/>
<path class="st5" d="M277.2,297.7l16.6,28h-33.1L277.2,297.7L277.2,297.7z M285.5,321l-8.3-14l-8.3,14H285.5L285.5,321z"/>
<path class="st5" d="M256.1,334.2l16.5,28h-33.1L256.1,334.2L256.1,334.2z M264.4,357.5l-8.3-14l-8.3,14H264.4L264.4,357.5z"/>
<path class="st5" d="M297.5,334.2l16.6,28H281L297.5,334.2L297.5,334.2z M305.8,357.5l-8.3-14l-8.3,14H305.8L305.8,357.5z"/>
<path class="st0" d="M242.5,344.5L242.5,344.5l0,0.2c0,0.4,0,1.2,0.3,2.2c0.3,1,0.8,2.1,1.6,3c0.4,0.4,1.1,0.8,2.1,1
	c1.4,0.4,3.2,0.7,4.7,0.8c1.5,0.1,2.8,0.1,3.3,0.1c0.1,0,0.2,0,0.2,0l0,1.5c0,0-0.1,0-0.2,0c-0.6,0-2.8,0-5.1-0.3
	c-1.1-0.1-2.3-0.4-3.4-0.7c-1.1-0.3-2-0.7-2.7-1.4c-1.1-1.1-1.7-2.5-2-3.6c-0.3-1.2-0.3-2.2-0.3-2.6c0-0.1,0-0.2,0-0.2L242.5,344.5
	L242.5,344.5z"/>
<path class="st0" d="M311.5,344.5L311.5,344.5l0,0.2c0,0.4,0,1.2-0.3,2.2c-0.3,1-0.8,2.1-1.6,3c-0.4,0.4-1.1,0.8-2.1,1
	c-1.4,0.4-3.2,0.7-4.7,0.8c-1.5,0.1-2.8,0.1-3.3,0.1c-0.1,0-0.2,0-0.2,0l0,1.5c0,0,0.1,0,0.2,0c0.6,0,2.8,0,5.1-0.3
	c1.1-0.1,2.3-0.4,3.4-0.7c1.1-0.3,2-0.7,2.7-1.4c1.1-1.1,1.7-2.5,2-3.6c0.3-1.2,0.3-2.2,0.3-2.6c0-0.1,0-0.2,0-0.2L311.5,344.5
	L311.5,344.5z"/>
<path class="st0" d="M262.9,307.7L262.9,307.7l0,0.2c0,0.4,0,1.2,0.3,2.2c0.3,1,0.8,2.1,1.6,3c0.4,0.4,1.1,0.8,2.1,1
	c1.4,0.4,3.2,0.7,4.7,0.8c1.5,0.1,2.8,0.1,3.3,0.1c0.1,0,0.2,0,0.2,0l0,1.5c0,0-0.1,0-0.2,0c-0.6,0-2.8,0-5.1-0.3
	c-1.1-0.1-2.3-0.4-3.4-0.7c-1.1-0.3-2-0.7-2.7-1.4c-1.1-1.1-1.7-2.5-2-3.6c-0.3-1.2-0.3-2.2-0.3-2.6c0-0.1,0-0.2,0-0.2L262.9,307.7
	L262.9,307.7z"/>
<polygon class="st2" points="290.1,332.3 276.8,355.4 263.5,332.3 290.1,332.3 "/>
<polygon class="st2" points="239.4,333.2 245.5,333.2 245.5,334.4 240.9,334.4 240.9,336.5 245,336.5 245,337.8 240.9,337.8 
	240.9,340 245.5,340 245.5,341.3 239.4,341.3 239.4,333.2 "/>
<path class="st2" d="M242.9,343.9L242.9,343.9l0,0.2c0,0.4,0,1.2,0.3,2.2c0.3,1,0.8,2.1,1.6,3c0.4,0.4,1.1,0.8,2.1,1
	c1.4,0.4,3.2,0.7,4.7,0.8c1.5,0.1,2.8,0.1,3.3,0.1c0.1,0,0.2,0,0.2,0l0,1.5c0,0-0.1,0-0.2,0c-0.6,0-2.8,0-5.1-0.3
	c-1.1-0.1-2.3-0.4-3.4-0.7c-1.1-0.3-2-0.7-2.7-1.4c-1.1-1.1-1.7-2.5-2-3.6c-0.3-1.2-0.3-2.2-0.3-2.6c0-0.1,0-0.2,0-0.2L242.9,343.9
	L242.9,343.9z"/>
<path class="st2" d="M311.1,343.9L311.1,343.9l0,0.2c0,0.4,0,1.2-0.3,2.2c-0.3,1-0.8,2.1-1.6,3c-0.4,0.4-1.1,0.8-2.1,1
	c-1.4,0.4-3.2,0.7-4.7,0.8c-1.5,0.1-2.8,0.1-3.3,0.1c-0.1,0-0.2,0-0.2,0l0,1.5c0,0,0.1,0,0.2,0c0.6,0,2.8,0,5.1-0.3
	c1.1-0.1,2.3-0.4,3.4-0.7c1.1-0.3,2-0.7,2.7-1.4c1.1-1.1,1.7-2.5,2-3.6c0.3-1.2,0.3-2.2,0.3-2.6c0-0.1,0-0.2,0-0.2L311.1,343.9
	L311.1,343.9z"/>
<path class="st2" d="M263.3,307.1L263.3,307.1l0,0.2c0,0.4,0,1.2,0.3,2.2c0.3,1,0.8,2.1,1.6,3c0.4,0.4,1.1,0.8,2.1,1
	c1.4,0.4,3.2,0.7,4.7,0.8c1.5,0.1,2.8,0.1,3.3,0.1c0.1,0,0.2,0,0.2,0l0,1.5c0,0-0.1,0-0.2,0c-0.6,0-2.8,0-5.1-0.3
	c-1.1-0.1-2.3-0.4-3.4-0.7c-1.1-0.3-2-0.7-2.7-1.4c-1.1-1.1-1.7-2.5-2-3.6c-0.3-1.2-0.3-2.2-0.3-2.6c0-0.1,0-0.2,0-0.2L263.3,307.1
	L263.3,307.1z"/>
<path class="st2" d="M265.9,305l-1-0.9c-0.7,0.5-1.5,0.8-2.5,0.8c-2.5,0-4.2-1.9-4.2-4.2v0c0-2.3,1.8-4.2,4.3-4.2
	c2.5,0,4.2,1.9,4.2,4.2v0c0,0.9-0.3,1.8-0.8,2.5l0.9,0.8L265.9,305L265.9,305z M263.8,303.2l-1.4-1.2l0.9-1l1.4,1.3
	c0.3-0.4,0.4-1,0.4-1.5v0c0-1.6-1.1-2.9-2.8-2.9c-1.6,0-2.7,1.3-2.7,2.9v0c0,1.6,1.2,2.9,2.8,2.9C263,303.6,263.4,303.5,263.8,303.2
	L263.8,303.2z"/>
<polygon class="st2" points="310.1,333.2 316.2,333.2 316.2,334.5 311.5,334.5 311.5,336.7 315.6,336.7 315.6,338 311.5,338 
	311.5,341.3 310.1,341.3 310.1,333.2 "/>
<polyline class="st2" points="255,354.5 257.7,351.8 255.1,349.1 "/>
<polyline class="st2" points="275.3,317.7 277.9,315 275.3,312.4 "/>
<polyline class="st2" points="299.5,354.5 296.8,351.8 299.4,349.1 "/>
<path class="st1" d="M295,258.1c16.3,0,29.5-13.2,29.5-29.5c0-16.3-13.2-29.5-29.5-29.5c-16.3,0-29.5,13.2-29.5,29.5
	C265.5,244.9,278.7,258.1,295,258.1L295,258.1z"/>
<path class="st2" d="M294.8,256.4c-15.2,0-27.6-12.4-27.6-27.6c0-15.2,12.4-27.6,27.6-27.6s27.6,12.4,27.6,27.6
	C322.4,244,310,256.4,294.8,256.4L294.8,256.4z M294.8,206.1c-12.5,0-22.6,10.2-22.6,22.6c0,12.5,10.2,22.6,22.6,22.6
	s22.6-10.2,22.6-22.6C317.4,216.3,307.3,206.1,294.8,206.1L294.8,206.1z"/>
<polygon class="st2" points="288.9,222.7 295.2,211.8 301.5,222.7 288.9,222.7 "/>
<path class="st2" d="M295.2,238.9l-7.8-13.2H303L295.2,238.9L295.2,238.9z M291.3,227.9l3.9,6.6l3.9-6.6H291.3L291.3,227.9z"/>
<polygon class="st2" points="279.2,239.5 285.5,228.7 291.7,239.5 279.2,239.5 "/>
<polygon class="st2" points="298.6,239.5 304.9,228.7 311.2,239.5 298.6,239.5 "/>
</svg>
