<?xml version="1.0" encoding="utf-8"?>
<!-- Generator: Adobe Illustrator 19.0.0, SVG Export Plug-In . SVG Version: 6.00 Build 0)  -->
<svg version="1.1" id="Layer_1" xmlns="http://www.w3.org/2000/svg" xmlns:xlink="http://www.w3.org/1999/xlink" x="0px" y="0px"
	 viewBox="0 0 841.9 595.3" style="enable-background:new 0 0 841.9 595.3;" xml:space="preserve">
<style type="text/css">
	.st0{fill:#333E48;}
	.st1{font-family:'Gotham-Medium';}
	.st2{font-size:18px;}
	.st3{fill:#58832F;}
	.st4{fill:#969300;}
	.st5{fill:#646464;}
	.st6{fill:#152557;}
	.st7{fill:#001E61;}
	.st8{fill:#4A7DBB;}
	.st9{fill:#FFFFFF;}
	.st10{font-family:'Gotham-Book';}
	.st11{font-size:14px;}
</style>
<text transform="matrix(0 -1 1 0 189.0822 422.416)" class="st0 st1 st2">EQF Fr</text>
<text transform="matrix(0 -1 1 0 189.0822 359.0625)" class="st0 st1 st2">am</text>
<text transform="matrix(0 -1 1 0 189.0822 331.3984)" class="st0 st1 st2">ew</text>
<text transform="matrix(0 -1 1 0 189.0822 305.9238)" class="st0 st1 st2">ork</text>
<polyline class="st3" points="236.3,371.2 275.8,358.3 280.4,403.2 236.3,371.2 "/>
<polyline class="st4" points="379.8,371.2 236.3,371.2 236.3,431 379.8,431 379.8,371.2 "/>
<g>
	<defs>
		<polyline id="SVGID_1_" points="379.8,431 236.3,431 236.3,408.9 379.8,408.9 379.8,431 		"/>
	</defs>
	<clipPath id="SVGID_2_">
		<use xlink:href="#SVGID_1_"  style="overflow:visible;"/>
	</clipPath>
	<g style="clip-path:url(#SVGID_2_);">
		
			<image style="overflow:visible;" width="301" height="48" xlink:href="8F5835AEF65FE143.jpg"  transform="matrix(-0.481 0 0 0.486 380.504 408.5359)">
		</image>
	</g>
</g>
<polyline class="st0" points="236.4,302.7 275.9,289.8 280.5,343.7 236.4,302.7 "/>
<polyline class="st5" points="379.8,365.2 236.4,365.2 236.4,303.1 379.8,303.1 379.8,365.2 "/>
<g>
	<defs>
		<polyline id="SVGID_3_" points="379.8,365.2 276.5,365.2 254.6,365.2 236.4,365.2 236.4,342.8 379.8,342.8 379.8,365.2 		"/>
	</defs>
	<clipPath id="SVGID_4_">
		<use xlink:href="#SVGID_3_"  style="overflow:visible;"/>
	</clipPath>
	<g style="clip-path:url(#SVGID_4_);">
		
			<image style="overflow:visible;" width="301" height="48" xlink:href="8F5835AEF65FE141.jpg"  transform="matrix(-0.481 0 0 0.486 380.504 342.2959)">
		</image>
	</g>
</g>
<polyline class="st6" points="236.3,237.2 275.8,224.3 280.4,269.2 236.3,237.2 "/>
<polyline class="st7" points="379.8,237.2 236.3,237.2 236.3,297 379.8,297 379.8,237.2 "/>
<g>
	<defs>
		<polyline id="SVGID_5_" points="379.8,297 276.5,297 253.9,297 236.3,297 236.3,270.6 379.8,270.6 379.8,297 		"/>
	</defs>
	<clipPath id="SVGID_6_">
		<use xlink:href="#SVGID_5_"  style="overflow:visible;"/>
	</clipPath>
	<g style="clip-path:url(#SVGID_6_);">
		
			<image style="overflow:visible;" width="301" height="57" xlink:href="8F5835AEF65FE147.jpg"  transform="matrix(-0.481 0 0 0.4851 380.264 270.2959)">
		</image>
	</g>
</g>
<polyline class="st8" points="379.8,230.2 236.5,230.2 236.5,170.4 379.8,170.4 379.8,230.2 "/>
<g>
	<defs>
		<polyline id="SVGID_7_" points="379.8,230.2 276.4,230.2 257.7,230.2 236.5,230.2 236.5,208.8 379.8,208.8 379.8,230.2 		"/>
	</defs>
	<clipPath id="SVGID_8_">
		<use xlink:href="#SVGID_7_"  style="overflow:visible;"/>
	</clipPath>
	<g transform="matrix(1 0 0 1 0 0)" style="clip-path:url(#SVGID_8_);">
		
			<image style="overflow:visible;" width="300" height="46" xlink:href="8F5835AEF65FE140.jpg"  transform="matrix(-0.481 0 0 0.4863 380.504 208.3758)">
		</image>
	</g>
</g>
<polygon class="st8" points="262.6,192.8 260.7,192.8 260.7,243.1 255,243.1 261.6,254.5 268.2,243.1 262.6,243.1 262.6,192.8 "/>
<polygon class="st5" points="262.6,325.5 260.7,325.5 260.7,378.4 255,378.4 261.6,389.9 268.2,378.4 262.6,378.4 262.6,325.5 "/>
<polygon class="st7" points="262.6,255.9 260.7,255.9 260.7,308 255,308 261.6,319.5 268.2,308 262.6,308 262.6,255.9 "/>
<path class="st9" d="M249,204.8h2.6l1.2-3h5.7l1.2,3h2.7l-5.7-13.3h-2L249,204.8L249,204.8z M253.7,199.7l2.1-5.4l2,5.4H253.7
	L253.7,199.7z M264,204.8h2.2v-14.2H264V204.8L264,204.8z M268.8,204.8h2.2v-14.2h-2.2V204.8L268.8,204.8z M273.2,200.3
	c0,2.8,2.2,4.7,4.9,4.7s4.9-1.9,4.9-4.7c0-2.8-2.2-4.7-4.9-4.7S273.2,197.4,273.2,200.3L273.2,200.3z M275.4,200.3
	c0-1.4,1-2.7,2.6-2.7c1.6,0,2.6,1.3,2.6,2.7c0,1.4-1,2.7-2.6,2.7C276.4,203,275.4,201.7,275.4,200.3L275.4,200.3z M292.7,196.9
	c-0.9-1-2.1-1.4-3.3-1.4c-2.7,0-4.9,1.9-4.9,4.7c0,2.8,2.2,4.7,4.9,4.7c0.8,0,2.3-0.3,3.2-1.3l-1.5-1.6c-0.4,0.5-1,0.8-1.7,0.8
	c-1.6,0-2.6-1.3-2.6-2.7c0-1.4,1-2.7,2.6-2.7c0.6,0,1.2,0.4,1.7,0.9L292.7,196.9L292.7,196.9z M299.9,204.8h2v-5.2c0-1.3,0-4-3.8-4
	c-1.4,0-2.8,0.4-3.8,1.4l1.2,1.2c0.6-0.6,1.5-0.9,2.4-0.9c1.2,0,2.1,0.6,2.1,1.7v0.2h-0.6c-2.2,0-5.7,0.2-5.7,3.1
	c0,1.8,1.6,2.7,3.3,2.7c1.2,0,2.2-0.4,2.9-1.5h0.1V204.8L299.9,204.8z M299.8,201.2c0,1.3-0.7,2.1-2.3,2.1c-0.7,0-1.6-0.4-1.6-1.2
	c0-1.3,2.1-1.4,3.4-1.4h0.5V201.2L299.8,201.2z M305.2,197.7v4.1c0,2.1,0.6,3.2,2.9,3.2c0.5,0,1.3-0.1,1.8-0.3v-1.9
	c-0.3,0.2-0.8,0.3-1.2,0.3c-1,0-1.3-0.6-1.3-1.5v-3.9h2.5v-1.9h-2.5v-2.6h-2.2v2.6h-1.9v1.9H305.2L305.2,197.7z M311.7,204.8h2.2v-9
	h-2.2V204.8L311.7,204.8z M311.4,192.7c0,0.7,0.6,1.3,1.4,1.3c0.8,0,1.5-0.6,1.5-1.3c0-0.8-0.6-1.3-1.5-1.3
	C312,191.4,311.4,192,311.4,192.7L311.4,192.7z M316,200.3c0,2.8,2.2,4.7,4.9,4.7c2.7,0,4.9-1.9,4.9-4.7c0-2.8-2.2-4.7-4.9-4.7
	C318.2,195.6,316,197.4,316,200.3L316,200.3z M318.2,200.3c0-1.4,1-2.7,2.6-2.7s2.6,1.3,2.6,2.7c0,1.4-1,2.7-2.6,2.7
	S318.2,201.7,318.2,200.3L318.2,200.3z M327.9,204.8h2.2v-4.9c0-1.2,0.6-2.3,2.1-2.3c1.6,0,1.6,1.6,1.6,2.6v4.6h2.2v-5.7
	c0-1.8-0.9-3.5-3.3-3.5c-1.5,0-2.3,0.8-2.8,1.7h0v-1.4h-2.1V204.8L327.9,204.8z"/>
<path class="st9" d="M258.7,262.1c-1-1-2.4-1.4-3.8-1.4c-2.5,0-4.9,1.3-4.9,4c0,4.7,6.3,3.1,6.3,6c0,1.2-1.2,1.8-2.3,1.8
	c-1,0-2-0.5-2.6-1.4l-1.8,1.7c1.1,1.3,2.7,1.8,4.3,1.8c2.6,0,4.8-1.4,4.8-4.2c0-4.7-6.3-3.2-6.3-5.9c0-1.2,1.1-1.7,2.2-1.7
	c0.9,0,1.8,0.3,2.3,1L258.7,262.1L258.7,262.1z M269.6,270.6V270c0-3.1-1.7-4.9-4.2-4.9c-2.7,0-4.9,1.9-4.9,4.7
	c0,2.8,2.2,4.7,4.9,4.7c1.4,0,2.8-0.5,3.8-1.8l-1.6-1.2c-0.6,0.7-1.3,1.2-2.4,1.2c-1.3,0-2.3-0.8-2.4-2.1H269.6L269.6,270.6z
	 M262.7,268.9c0.2-1.3,1-2.1,2.3-2.1c1.4,0,2.3,0.8,2.3,2.1H262.7L262.7,268.9z M271.7,274.3h2.2v-14.2h-2.2V274.3L271.7,274.3z
	 M285.2,270.6V270c0-3.1-1.7-4.9-4.2-4.9c-2.7,0-4.9,1.9-4.9,4.7c0,2.8,2.2,4.7,4.9,4.7c1.4,0,2.8-0.5,3.8-1.8l-1.6-1.2
	c-0.6,0.7-1.3,1.2-2.4,1.2c-1.3,0-2.3-0.8-2.4-2.1H285.2L285.2,270.6z M278.3,268.9c0.2-1.3,1-2.1,2.3-2.1c1.4,0,2.3,0.8,2.3,2.1
	H278.3L278.3,268.9z M294.9,266.5c-0.9-1-2.1-1.4-3.3-1.4c-2.7,0-4.9,1.9-4.9,4.7c0,2.8,2.2,4.7,4.9,4.7c0.8,0,2.3-0.3,3.2-1.3
	l-1.5-1.6c-0.4,0.5-1,0.8-1.7,0.8c-1.6,0-2.6-1.3-2.6-2.7c0-1.4,1-2.7,2.6-2.7c0.6,0,1.2,0.4,1.7,0.9L294.9,266.5L294.9,266.5z
	 M297.7,267.3v4.1c0,2.1,0.6,3.2,2.9,3.2c0.5,0,1.3-0.1,1.8-0.3v-1.9c-0.3,0.2-0.8,0.3-1.2,0.3c-1,0-1.3-0.6-1.3-1.5v-3.9h2.5v-1.9
	h-2.5v-2.6h-2.2v2.6h-1.9v1.9H297.7L297.7,267.3z M304.2,274.3h2.2v-9h-2.2V274.3L304.2,274.3z M303.9,262.3c0,0.7,0.6,1.3,1.4,1.3
	c0.8,0,1.5-0.6,1.5-1.3c0-0.8-0.6-1.3-1.5-1.3C304.5,261,303.9,261.6,303.9,262.3L303.9,262.3z M308.5,269.8c0,2.8,2.2,4.7,4.9,4.7
	c2.7,0,4.9-1.9,4.9-4.7c0-2.8-2.2-4.7-4.9-4.7C310.6,265.1,308.5,267,308.5,269.8L308.5,269.8z M310.7,269.8c0-1.4,1-2.7,2.6-2.7
	c1.6,0,2.6,1.3,2.6,2.7c0,1.4-1,2.7-2.6,2.7C311.7,272.5,310.7,271.2,310.7,269.8L310.7,269.8z M320.3,274.3h2.2v-4.9
	c0-1.2,0.6-2.3,2.1-2.3c1.6,0,1.6,1.6,1.6,2.6v4.5h2.2v-5.7c0-1.8-0.9-3.5-3.3-3.5c-1.5,0-2.3,0.8-2.8,1.7h0v-1.4h-2.1V274.3
	L320.3,274.3z"/>
<path class="st9" d="M261.5,330.2c-1.3-1.5-2.8-2.1-4.6-2.1c-4.1,0-7,2.8-7,7c0,4.1,2.9,6.9,7,6.9c1.9,0,3.7-0.7,4.9-2.4l-1.9-1.4
	c-0.9,1.1-1.9,1.6-3,1.6c-2.7,0-4.5-2.1-4.5-4.9c0-2.6,1.8-4.7,4.5-4.7c0.9,0,1.8,0.3,2.8,1.3L261.5,330.2L261.5,330.2z
	 M262.7,337.2c0,2.8,2.2,4.7,4.9,4.7s4.9-1.9,4.9-4.7c0-2.8-2.2-4.7-4.9-4.7S262.7,334.4,262.7,337.2L262.7,337.2z M265,337.2
	c0-1.4,1-2.7,2.6-2.7s2.6,1.3,2.6,2.7c0,1.4-1,2.7-2.6,2.7S265,338.6,265,337.2L265,337.2z M274.6,341.7h2.2v-4.9
	c0-1.2,0.6-2.3,2.1-2.3c1.6,0,1.6,1.6,1.6,2.6v4.5h2.2V336c0-1.8-0.9-3.5-3.3-3.5c-1.5,0-2.3,0.8-2.8,1.7h0v-1.4h-2.1V341.7
	L274.6,341.7z M291.7,333.9c-0.7-1-2-1.4-3.2-1.4c-1.8,0-3.6,0.9-3.6,2.9c0,3.4,4.9,2,4.9,3.8c0,0.7-0.8,1-1.5,1
	c-1,0-1.6-0.5-2.1-1.1l-1.5,1.4c0.9,1,2.1,1.4,3.5,1.4c1.8,0,3.9-0.7,3.9-2.9c0-3.5-4.8-2.2-4.8-3.8c0-0.7,0.7-1,1.3-1
	c0.8,0,1.3,0.3,1.8,0.9L291.7,333.9L291.7,333.9z M294.8,334.6v4.1c0,2.1,0.6,3.2,2.9,3.2c0.5,0,1.3-0.1,1.8-0.3v-1.9
	c-0.3,0.2-0.8,0.3-1.2,0.3c-1,0-1.3-0.6-1.3-1.5v-3.9h2.5v-1.9h-2.5v-2.6h-2.2v2.6H293v1.9H294.8L294.8,334.6z M301.4,341.7h2.2
	v-4.8c0-0.5,0.3-2.3,2.4-2.3c0.4,0,0.7,0.1,1.1,0.2v-2.2c-0.3-0.1-0.5-0.1-0.8-0.1c-1.2,0-2.2,0.6-2.7,1.6h0v-1.4h-2.2V341.7
	L301.4,341.7z M316.9,332.7h-2.2v4.9c0,1.2-0.6,2.3-2.1,2.3c-1.6,0-1.6-1.6-1.6-2.6v-4.6h-2.2v5.7c0,1.8,0.9,3.5,3.3,3.5
	c1.5,0,2.3-0.8,2.8-1.7h0v1.4h2.1V332.7L316.9,332.7z M327.2,333.9c-0.9-1-2.1-1.4-3.3-1.4c-2.7,0-4.9,1.9-4.9,4.7
	c0,2.8,2.2,4.7,4.9,4.7c0.8,0,2.3-0.3,3.2-1.3l-1.5-1.6c-0.4,0.5-1,0.8-1.7,0.8c-1.6,0-2.6-1.3-2.6-2.7c0-1.4,1-2.7,2.6-2.7
	c0.6,0,1.2,0.4,1.7,0.9L327.2,333.9L327.2,333.9z M330,334.6v4.1c0,2.1,0.6,3.2,2.9,3.2c0.5,0,1.3-0.1,1.8-0.3v-1.9
	c-0.3,0.2-0.8,0.3-1.2,0.3c-1,0-1.3-0.6-1.3-1.5v-3.9h2.5v-1.9h-2.5v-2.6H330v2.6h-1.9v1.9H330L330,334.6z M336.5,341.7h2.2v-9h-2.2
	V341.7L336.5,341.7z M336.1,329.7c0,0.7,0.6,1.3,1.4,1.3c0.8,0,1.5-0.6,1.5-1.3c0-0.8-0.6-1.3-1.5-1.3
	C336.7,328.3,336.1,329,336.1,329.7L336.1,329.7z M340.8,337.2c0,2.8,2.2,4.7,4.9,4.7c2.7,0,4.9-1.9,4.9-4.7c0-2.8-2.2-4.7-4.9-4.7
	C342.9,332.5,340.8,334.4,340.8,337.2L340.8,337.2z M343,337.2c0-1.4,1-2.7,2.6-2.7c1.6,0,2.6,1.3,2.6,2.7c0,1.4-1,2.7-2.6,2.7
	C344,339.9,343,338.6,343,337.2L343,337.2z M352.6,341.7h2.2v-4.9c0-1.2,0.6-2.3,2.1-2.3c1.6,0,1.6,1.6,1.6,2.6v4.5h2.2V336
	c0-1.8-0.9-3.5-3.3-3.5c-1.5,0-2.3,0.8-2.8,1.7h0v-1.4h-2.1V341.7L352.6,341.7z"/>
<path class="st9" d="M250.6,408.3h2.2v-11h0l4,11h1.6l4-11h0v11h2.2V395h-3.6l-3.6,9.3l-3.5-9.3h-3.6V408.3L250.6,408.3z
	 M267.2,403.8c0,2.8,2.2,4.7,4.9,4.7c2.7,0,4.9-1.9,4.9-4.7c0-2.8-2.2-4.7-4.9-4.7C269.3,399.1,267.2,401,267.2,403.8L267.2,403.8z
	 M269.4,403.8c0-1.4,1-2.7,2.6-2.7s2.6,1.3,2.6,2.7c0,1.4-1,2.7-2.6,2.7S269.4,405.2,269.4,403.8L269.4,403.8z M279,408.3h2.2v-4.9
	c0-1.2,0.6-2.3,2.1-2.3c1.6,0,1.6,1.6,1.6,2.6v4.6h2.2v-5.7c0-1.8-0.9-3.5-3.3-3.5c-1.5,0-2.3,0.8-2.8,1.7h0v-1.4H279V408.3
	L279,408.3z M289.8,408.3h2.2v-9h-2.2V408.3L289.8,408.3z M289.5,396.2c0,0.7,0.6,1.3,1.4,1.3s1.5-0.6,1.5-1.3
	c0-0.8-0.6-1.3-1.5-1.3S289.5,395.5,289.5,396.2L289.5,396.2z M295.4,401.2v4.1c0,2.1,0.6,3.2,2.9,3.2c0.5,0,1.3-0.1,1.8-0.3v-1.9
	c-0.3,0.2-0.8,0.3-1.2,0.3c-1,0-1.3-0.6-1.3-1.5v-3.9h2.5v-1.9h-2.5v-2.6h-2.2v2.6h-1.9v1.9H295.4L295.4,401.2z M301.3,403.8
	c0,2.8,2.2,4.7,4.9,4.7c2.7,0,4.9-1.9,4.9-4.7c0-2.8-2.2-4.7-4.9-4.7C303.4,399.1,301.3,401,301.3,403.8L301.3,403.8z M303.5,403.8
	c0-1.4,1-2.7,2.6-2.7s2.6,1.3,2.6,2.7c0,1.4-1,2.7-2.6,2.7S303.5,405.2,303.5,403.8L303.5,403.8z M313.1,408.3h2.2v-4.8
	c0-0.5,0.3-2.3,2.4-2.3c0.4,0,0.7,0.1,1.1,0.2v-2.2c-0.3-0.1-0.5-0.1-0.8-0.1c-1.2,0-2.2,0.6-2.7,1.6h0v-1.4h-2.2V408.3L313.1,408.3
	z M320.4,408.3h2.2v-9h-2.2V408.3L320.4,408.3z M320.1,396.2c0,0.7,0.6,1.3,1.4,1.3c0.8,0,1.5-0.6,1.5-1.3c0-0.8-0.6-1.3-1.5-1.3
	C320.7,394.9,320.1,395.5,320.1,396.2L320.1,396.2z M325.3,408.3h2.2v-4.9c0-1.2,0.6-2.3,2.1-2.3c1.6,0,1.6,1.6,1.6,2.6v4.6h2.2
	v-5.7c0-1.8-0.9-3.5-3.3-3.5c-1.5,0-2.3,0.8-2.8,1.7h0v-1.4h-2.1V408.3L325.3,408.3z M343.1,399.3v1.3h0c-0.7-1.1-1.8-1.6-3.1-1.6
	c-2.8,0-4.4,2.1-4.4,4.7c0,2.5,1.8,4.6,4.5,4.6c1.1,0,2.3-0.4,2.9-1.3h0v0.7c0,1.8-0.7,3-2.8,3c-1.3,0-2.2-0.5-3.1-1.3l-1.3,1.8
	c1.3,1.1,2.8,1.5,4.5,1.5c3.5,0,5.1-2.1,5.1-5.3v-8.2H343.1L343.1,399.3z M340.5,401.1c1.6,0,2.7,1.1,2.7,2.6c0,1.5-1,2.6-2.7,2.6
	c-1.5,0-2.6-1.2-2.6-2.6C337.8,402.2,338.9,401.1,340.5,401.1L340.5,401.1z"/>
<path class="st0" d="M236.3,142.4v-1.5c-0.1,0-8.2,0-16.4,4.1c-4.1,2.1-8.3,5.2-11.4,9.9c-3.1,4.7-5.2,10.9-5.2,19v249.3
	c0,0.1,0,8.6,4.3,17.3c2.2,4.3,5.5,8.7,10.4,12c4.9,3.3,11.5,5.5,20.1,5.5h177.5V140.9H236.3V142.4v1.5h176.3V455l-174.5,0
	c-8.1,0-14-2-18.4-5c-3.3-2.2-5.8-5-7.7-7.9c-2.8-4.4-4.3-9.2-5-12.8c-0.4-1.8-0.5-3.4-0.6-4.5c0-0.5-0.1-1-0.1-1.3
	c0-0.1,0-0.3,0-0.3l0-0.1v0V173.9c0-7.6,1.9-13.2,4.7-17.4c2.1-3.1,4.7-5.5,7.4-7.2c4.1-2.7,8.6-4,12.1-4.7c1.7-0.3,3.2-0.5,4.2-0.6
	c0.5,0,0.9-0.1,1.2-0.1c0.1,0,0.2,0,0.3,0l0.1,0l0,0V142.4L236.3,142.4z"/>
<path class="st9" d="M186.3,263c14.9,0,27-12.1,27-27c0-14.9-12.1-27-27-27s-27,12.1-27,27C159.3,250.9,171.4,263,186.3,263
	L186.3,263z"/>
<path class="st0" d="M186.1,264.4c-15.5,0-28.2-12.7-28.2-28.2c0-15.5,12.7-28.2,28.2-28.2c15.5,0,28.2,12.7,28.2,28.2
	C214.3,251.7,201.6,264.4,186.1,264.4L186.1,264.4z M186.1,213.1c-12.7,0-23.1,10.4-23.1,23.1c0,12.7,10.4,23.1,23.1,23.1
	c12.7,0,23.1-10.4,23.1-23.1C209.2,223.4,198.8,213.1,186.1,213.1L186.1,213.1z"/>
<polygon class="st0" points="180.1,229.9 186.5,218.8 192.9,229.9 180.1,229.9 "/>
<path class="st0" d="M186.5,246.5l-8-13.5h15.9L186.5,246.5L186.5,246.5z M182.5,235.3l4,6.7l4-6.7H182.5L182.5,235.3z"/>
<polygon class="st0" points="170.2,247.2 176.6,236.1 183,247.2 170.2,247.2 "/>
<polygon class="st0" points="190,247.2 196.4,236.1 202.9,247.2 190,247.2 "/>
<text transform="matrix(1 0 0 1 451.881 150.1582)" class="st10 st11">&lt;this is a gr</text>
<text transform="matrix(1 0 0 1 531.5509 150.1582)" class="st10 st11">aphic illustr</text>
<text transform="matrix(1 0 0 1 610.9181 150.1582)" class="st10 st11">ates our </text>
<text transform="matrix(1 0 0 1 451.881 166.9551)" class="st10 st11">in</text>
<text transform="matrix(1 0 0 1 463.9103 166.9551)" class="st10 st11">ve</text>
<text transform="matrix(1 0 0 1 479.9904 166.9551)" class="st10 st11">stment pr</text>
<text transform="matrix(1 0 0 1 547.215 166.9551)" class="st10 st11">oc</text>
<text transform="matrix(1 0 0 1 564.0509 166.9551)" class="st10 st11">ess; </text>
<text transform="matrix(1 0 0 1 593.9025 166.9551)" class="st10 st11">we</text>
<text transform="matrix(1 0 0 1 613.8947 166.9551)" class="st10 st11"> will be </text>
<text transform="matrix(1 0 0 1 451.881 183.7676)" class="st10 st11">we</text>
<text transform="matrix(1 0 0 1 471.8712 183.7676)" class="st10 st11">a</text>
<text transform="matrix(1 0 0 1 479.6935 183.7676)" class="st10 st11">ving mor</text>
<text transform="matrix(1 0 0 1 541.4357 183.7676)" class="st10 st11">e language about </text>
<text transform="matrix(1 0 0 1 451.881 200.5645)" class="st10 st11">this int</text>
<text transform="matrix(1 0 0 1 498.7618 200.5645)" class="st10 st11">o the EQF section...</text>
<text transform="matrix(1 0 0 1 633.0138 200.5645)" class="st10 st11">w</text>
<text transform="matrix(1 0 0 1 644.7072 200.5645)" class="st10 st11">on’t </text>
<text transform="matrix(1 0 0 1 451.881 217.3584)" class="st10 st11">incr</text>
<text transform="matrix(1 0 0 1 477.5431 217.3584)" class="st10 st11">ease </text>
<text transform="matrix(1 0 0 1 513.3966 217.3584)" class="st10 st11">wo</text>
<text transform="matrix(1 0 0 1 534.131 217.3584)" class="st10 st11">r</text>
<text transform="matrix(1 0 0 1 539.5138 217.3584)" class="st10 st11">ding.&gt;</text>
</svg>
