<?xml version="1.0" encoding="utf-8"?>
<!-- Generator: Adobe Illustrator 19.0.0, SVG Export Plug-In . SVG Version: 6.00 Build 0)  -->
<svg version="1.1" id="Layer_1" xmlns="http://www.w3.org/2000/svg" xmlns:xlink="http://www.w3.org/1999/xlink" x="0px" y="0px"
	 viewBox="0 0 841.9 595.3" style="enable-background:new 0 0 841.9 595.3;" xml:space="preserve">
<style type="text/css">
	.st0{font-family:'Gotham-Medium';}
	.st1{font-size:26px;}
	.st2{fill:#00AEEF;}
	.st3{fill:#ECF1F9;}
	.st4{clip-path:url(#SVGID_2_);fill:#005984;}
	.st5{fill:#F0BC2C;}
	.st6{fill:#005984;}
	.st7{fill:#78A22F;}
	.st8{fill:#FFFFFF;}
	.st9{font-family:'Avenir-Heavy';}
	.st10{font-size:18.2641px;}
	.st11{font-size:14.7141px;}
	.st12{font-family:'Gotham-Book';}
	.st13{font-size:12px;}
	.st14{fill:#BCBEC0;}
</style>
<text transform="matrix(1 0 0 1 252.129 115.7988)" class="st0 st1">[</text>
<text transform="matrix(1 0 0 1 263.5743 115.7988)" class="st0 st1">servic</text>
<text transform="matrix(1 0 0 1 340.4103 115.7988)" class="st0 st1">es - </text>
<text transform="matrix(1 0 0 1 395.3478 115.7988)" class="st2 st0 st1">advisor</text>
<text transform="matrix(1 0 0 1 491.7931 115.7988)" class="st0 st1">]</text>
<text transform="matrix(1 0 0 1 190.0353 146.9941)" class="st0 st1">Asset Management </text>
<text transform="matrix(1 0 0 1 447.9415 146.9941)" class="st0 st1">ov</text>
<text transform="matrix(1 0 0 1 478.9259 146.9941)" class="st0 st1">ervie</text>
<text transform="matrix(1 0 0 1 543.3322 146.9941)" class="st0 st1">w</text>
<polyline class="st3" points="175.2,175.5 175.2,364.8 603.3,364.8 603.3,175.5 175.2,175.5 "/>
<g>
	<defs>
		<polyline id="SVGID_1_" points="175.2,175.5 175.2,364.8 603.3,364.8 603.3,175.5 175.2,175.5 		"/>
	</defs>
	<clipPath id="SVGID_2_">
		<use xlink:href="#SVGID_1_"  style="overflow:visible;"/>
	</clipPath>
	<path class="st4" d="M170,372.7c-0.2,0-0.4,0-0.5,0l-2.2-0.6l-0.7-3.8l1.9-1.2c0.6-0.3,1.2-0.5,1.9-0.6c5-1,139.9-30.3,251-117.8
		l1.1-0.8l1.5,0c59.4-1.8,139.7,14.6,184.8,102.6c0.8,1.6-0.1,3.5-2,4.2c-2,0.7-4.2-0.1-5-1.7c-34.1-66.6-95-100.7-176-98.8
		c-59.3,46.4-124.7,76.1-169.3,92.9C212.7,363.5,175.2,372.7,170,372.7L170,372.7z"/>
</g>
<polyline class="st5" points="603.3,197.8 175.2,197.8 175.2,175.5 603.3,175.5 603.3,197.8 "/>
<polygon class="st6" points="371.6,198.1 371.6,219.1 603.3,219.1 603.3,198.1 371.6,198.1 "/>
<polygon class="st7" points="462.2,219.3 462.2,240 603.3,240 603.3,219.3 462.2,219.3 "/>
<text transform="matrix(1 0 0 1 187.3947 193.2188)" class="st8 st9 st10">GAIN</text>
<text transform="matrix(1 0 0 1 376.5978 215.2285)" class="st8 st9 st10">PROT</text>
<text transform="matrix(1 0 0 1 424.0822 215.2285)" class="st8 st9 st10">EC</text>
<text transform="matrix(1 0 0 1 447.8868 215.2285)" class="st8 st9 st10">T</text>
<text transform="matrix(1 0 0 1 479.3478 236.127)" class="st8 st9 st10">SPEN</text>
<text transform="matrix(1 0 0 1 526.046 236.127)" class="st8 st9 st10">D</text>
<text transform="matrix(1 0 0 1 125.6681 413.502)" class="st6 st0 st11">Ac</text>
<text transform="matrix(1 0 0 1 145.1056 413.502)" class="st6 st0 st11">cumulation</text>
<text transform="matrix(1 0 0 1 125.6681 427.8926)" class="st6 st12 st13">Global equity bias. </text>
<text transform="matrix(1 0 0 1 125.6681 442.2988)" class="st6 st12 st13">T</text>
<text transform="matrix(1 0 0 1 133.254 442.2988)" class="st6 st12 st13">he v</text>
<text transform="matrix(1 0 0 1 158.0353 442.2988)" class="st6 st12 st13">olatility of st</text>
<text transform="matrix(1 0 0 1 231.9572 442.2988)" class="st6 st12 st13">ocks </text>
<text transform="matrix(1 0 0 1 125.6681 456.7051)" class="st6 st12 st13">pr</text>
<text transform="matrix(1 0 0 1 138.2306 456.7051)" class="st6 st12 st13">o</text>
<text transform="matrix(1 0 0 1 145.6232 456.7051)" class="st6 st12 st13">vides the opportunity </text>
<text transform="matrix(1 0 0 1 125.6681 471.085)" class="st6 st12 st13">to</text>
<text transform="matrix(1 0 0 1 138.0822 471.085)" class="st6 st12 st13"> achie</text>
<text transform="matrix(1 0 0 1 172.8322 471.085)" class="st6 st12 st13">ve</text>
<text transform="matrix(1 0 0 1 186.629 471.085)" class="st6 st12 st13"> superior long-</text>
<text transform="matrix(1 0 0 1 125.6681 485.4863)" class="st6 st12 st13">t</text>
<text transform="matrix(1 0 0 1 130.34 485.4863)" class="st6 st12 st13">erm r</text>
<text transform="matrix(1 0 0 1 161.9025 485.4863)" class="st6 st12 st13">eturns. </text>
<text transform="matrix(1 0 0 1 335.3898 413.502)" class="st6 st0 st11">A</text>
<text transform="matrix(1 0 0 1 346.6368 413.502)" class="st6 st0 st11">ctualization</text>
<text transform="matrix(1 0 0 1 335.379 427.8926)" class="st6 st12 st13">Risk mitigation st</text>
<text transform="matrix(1 0 0 1 438.4884 427.8926)" class="st6 st12 st13">ra</text>
<text transform="matrix(1 0 0 1 449.9337 427.8926)" class="st6 st12 st13">t</text>
<text transform="matrix(1 0 0 1 454.6056 427.8926)" class="st6 st12 st13">egy </text>
<text transform="matrix(1 0 0 1 335.379 442.2988)" class="st6 st12 st13">with a goal f</text>
<text transform="matrix(1 0 0 1 408.9572 442.2988)" class="st6 st12 st13">or r</text>
<text transform="matrix(1 0 0 1 429.7618 442.2988)" class="st6 st12 st13">educing </text>
<text transform="matrix(1 0 0 1 335.379 456.7051)" class="st6 st12 st13">do</text>
<text transform="matrix(1 0 0 1 350.7931 456.7051)" class="st6 st12 st13">wnside risk when </text>
<text transform="matrix(1 0 0 1 335.379 471.085)" class="st6 st12 st13">needed most</text>
<text transform="matrix(1 0 0 1 413.4884 471.085)" class="st6 st12 st13"> </text>
<text transform="matrix(1 0 0 1 558.09 413.502)" class="st6 st0 st11">Distribution</text>
<text transform="matrix(1 0 0 1 558.09 427.8926)" class="st6 st12 st13">Spending st</text>
<text transform="matrix(1 0 0 1 629.0197 427.8926)" class="st6 st12 st13">ra</text>
<text transform="matrix(1 0 0 1 640.465 427.8926)" class="st6 st12 st13">t</text>
<text transform="matrix(1 0 0 1 645.131 427.8926)" class="st6 st12 st13">egy </text>
<text transform="matrix(1 0 0 1 558.09 442.2988)" class="st6 st12 st13">designed </text>
<text transform="matrix(1 0 0 1 616.3243 442.2988)" class="st6 st12 st13">to</text>
<text transform="matrix(1 0 0 1 628.7462 442.2988)" class="st6 st12 st13"> incr</text>
<text transform="matrix(1 0 0 1 654.3322 442.2988)" class="st6 st12 st13">ease </text>
<text transform="matrix(1 0 0 1 558.09 456.7051)" class="st6 st12 st13">portfolio ac</text>
<text transform="matrix(1 0 0 1 626.8341 456.7051)" class="st6 st12 st13">cumulation </text>
<text transform="matrix(1 0 0 1 558.09 471.085)" class="st6 st12 st13">and inc</text>
<text transform="matrix(1 0 0 1 601.215 471.085)" class="st6 st12 st13">ome pa</text>
<text transform="matrix(1 0 0 1 645.754 471.085)" class="st6 st12 st13">y</text>
<text transform="matrix(1 0 0 1 652.4884 471.085)" class="st6 st12 st13">out, thus </text>
<text transform="matrix(1 0 0 1 558.09 485.4863)" class="st6 st12 st13">impr</text>
<text transform="matrix(1 0 0 1 585.2228 485.4863)" class="st6 st12 st13">o</text>
<text transform="matrix(1 0 0 1 592.6134 485.4863)" class="st6 st12 st13">ving lik</text>
<text transform="matrix(1 0 0 1 634.6056 485.4863)" class="st6 st12 st13">elihood of </text>
<text transform="matrix(1 0 0 1 558.09 499.8926)" class="st6 st12 st13">achie</text>
<text transform="matrix(1 0 0 1 589.2384 499.8926)" class="st6 st12 st13">ving inc</text>
<text transform="matrix(1 0 0 1 635.6134 499.8926)" class="st6 st12 st13">ome goals</text>
<path class="st6" d="M420,391.7v-74c0-0.5-0.4-1-1-1c-0.6,0-1,0.5-1,1v74c0,0.6,0.4,1,1,1C419.6,392.7,420,392.3,420,391.7"/>
<polyline class="st6" points="419,313.2 413.2,319.5 424.8,319.5 419,313.2 "/>
<path class="st6" d="M159,396.8V391h-0.5l0.5,0v0h-0.5l0.5,0c0,0,0-0.3,0.2-0.7c0.3-0.6,0.8-1.6,2.4-2.5c1.6-0.9,4.2-1.6,8.4-1.6
	h57.9c0.1,0,1.5,0,2.9-0.7c0.7-0.4,1.5-1,2.1-1.8c0.6-0.9,1-2,0.9-3.5v-8c0-0.5-0.4-1-1-1s-1,0.5-1,1v8c0,1.1-0.3,1.8-0.6,2.3
	c-0.5,0.8-1.3,1.2-2.1,1.4c-0.4,0.1-0.7,0.2-0.9,0.2c-0.1,0-0.2,0-0.3,0h-0.1h0l0,0.3v-0.3h0l0,0.3v-0.3H170c-3.1,0-5.4,0.4-7.2,1
	c-2.7,0.9-4.2,2.2-5,3.5c-0.8,1.2-0.8,2.2-0.8,2.4v5.8c0,0.5,0.4,1,1,1S159,397.4,159,396.8L159,396.8z"/>
<polyline class="st6" points="232.8,367.8 227,374.1 238.6,374.1 232.8,367.8 "/>
<path class="st6" d="M587.4,396.8V391h0.5l-0.5,0v0h0.5l-0.5,0c0,0,0-0.3-0.2-0.7c-0.3-0.6-0.8-1.6-2.4-2.5
	c-1.6-0.9-4.2-1.6-8.4-1.6h-57.9c-0.1,0-1.5,0-2.9-0.7c-0.7-0.4-1.5-1-2.1-1.8c-0.6-0.9-1-2-0.9-3.5v-8c0-0.5,0.4-1,1-1
	c0.6,0,1,0.5,1,1v8c0,1.1,0.3,1.8,0.6,2.3c0.5,0.8,1.3,1.2,2.1,1.4c0.4,0.1,0.7,0.2,0.9,0.2c0.1,0,0.2,0,0.3,0h0.1h0l0,0.3v-0.3h0
	l0,0.3v-0.3h57.9c3.1,0,5.4,0.4,7.2,1c2.7,0.9,4.2,2.2,5,3.5c0.8,1.2,0.8,2.2,0.8,2.4v5.8c0,0.5-0.4,1-1,1
	C587.8,397.8,587.4,397.4,587.4,396.8L587.4,396.8z"/>
<polyline class="st6" points="513.5,367.8 519.3,374.1 507.7,374.1 513.5,367.8 "/>
<path class="st14" d="M370.6,166.7v7.9c0,0.6,0.4,1,1,1s1-0.4,1-1v-7.9c0-0.5-0.4-1-1-1S370.6,166.1,370.6,166.7L370.6,166.7z
	 M370.6,182.5v7.9c0,0.6,0.4,1,1,1s1-0.4,1-1v-7.9c0-0.6-0.4-1-1-1S370.6,182,370.6,182.5L370.6,182.5z M370.6,198.4v7.9
	c0,0.5,0.4,1,1,1s1-0.5,1-1v-7.9c0-0.6-0.4-1-1-1S370.6,197.9,370.6,198.4L370.6,198.4z M370.6,214.3v7.9c0,0.6,0.4,1,1,1s1-0.4,1-1
	v-7.9c0-0.5-0.4-1-1-1S370.6,213.7,370.6,214.3L370.6,214.3z M370.6,230.1v7.9c0,0.6,0.4,1,1,1s1-0.4,1-1v-7.9c0-0.6-0.4-1-1-1
	S370.6,229.6,370.6,230.1L370.6,230.1z M370.6,246v7.9c0,0.5,0.4,1,1,1s1-0.5,1-1V246c0-0.6-0.4-1-1-1S370.6,245.4,370.6,246
	L370.6,246z M370.6,261.9v7.9c0,0.5,0.4,1,1,1s1-0.5,1-1v-7.9c0-0.5-0.4-1-1-1S370.6,261.3,370.6,261.9L370.6,261.9z M370.6,277.7
	v7.9c0,0.5,0.4,1,1,1s1-0.4,1-1v-7.9c0-0.5-0.4-1-1-1S370.6,277.2,370.6,277.7L370.6,277.7z M370.6,293.6v7.9c0,0.5,0.4,1,1,1
	s1-0.5,1-1v-7.9c0-0.5-0.4-1-1-1S370.6,293,370.6,293.6L370.6,293.6z M370.6,309.4v7.9c0,0.6,0.4,1,1,1s1-0.4,1-1v-7.9
	c0-0.5-0.4-1-1-1S370.6,308.9,370.6,309.4L370.6,309.4z M370.6,325.3v7.9c0,0.6,0.4,1,1,1s1-0.4,1-1v-7.9c0-0.6-0.4-1-1-1
	S370.6,324.8,370.6,325.3L370.6,325.3z M370.6,341.2v7.9c0,0.5,0.4,1,1,1s1-0.4,1-1v-7.9c0-0.6-0.4-1-1-1S370.6,340.6,370.6,341.2
	L370.6,341.2z M370.6,357v7.9c0,0.6,0.4,1,1,1s1-0.4,1-1V357c0-0.5-0.4-1-1-1S370.6,356.5,370.6,357L370.6,357z M370.6,372.9v7.9
	c0,0.6,0.4,1,1,1s1-0.5,1-1v-7.9c0-0.6-0.4-1-1-1S370.6,372.3,370.6,372.9L370.6,372.9z"/>
<path class="st14" d="M461.2,166.7v7.9c0,0.6,0.4,1,1,1s1-0.4,1-1v-7.9c0-0.5-0.4-1-1-1S461.2,166.1,461.2,166.7L461.2,166.7z
	 M461.2,182.5v7.9c0,0.6,0.4,1,1,1s1-0.4,1-1v-7.9c0-0.6-0.4-1-1-1S461.2,182,461.2,182.5L461.2,182.5z M461.2,198.4v7.9
	c0,0.5,0.4,1,1,1s1-0.5,1-1v-7.9c0-0.6-0.4-1-1-1S461.2,197.9,461.2,198.4L461.2,198.4z M461.2,214.3v7.9c0,0.6,0.4,1,1,1s1-0.4,1-1
	v-7.9c0-0.5-0.4-1-1-1S461.2,213.7,461.2,214.3L461.2,214.3z M461.2,230.1v7.9c0,0.6,0.4,1,1,1s1-0.4,1-1v-7.9c0-0.6-0.4-1-1-1
	S461.2,229.6,461.2,230.1L461.2,230.1z M461.2,246v7.9c0,0.5,0.4,1,1,1s1-0.5,1-1V246c0-0.6-0.4-1-1-1S461.2,245.4,461.2,246
	L461.2,246z M461.2,261.9v7.9c0,0.5,0.4,1,1,1s1-0.5,1-1v-7.9c0-0.5-0.4-1-1-1S461.2,261.3,461.2,261.9L461.2,261.9z M461.2,277.7
	v7.9c0,0.5,0.4,1,1,1s1-0.4,1-1v-7.9c0-0.5-0.4-1-1-1S461.2,277.2,461.2,277.7L461.2,277.7z M461.2,293.6v7.9c0,0.5,0.4,1,1,1
	s1-0.5,1-1v-7.9c0-0.5-0.4-1-1-1S461.2,293,461.2,293.6L461.2,293.6z M461.2,309.4v7.9c0,0.6,0.4,1,1,1s1-0.4,1-1v-7.9
	c0-0.5-0.4-1-1-1S461.2,308.9,461.2,309.4L461.2,309.4z M461.2,325.3v7.9c0,0.6,0.4,1,1,1s1-0.4,1-1v-7.9c0-0.6-0.4-1-1-1
	S461.2,324.8,461.2,325.3L461.2,325.3z M461.2,341.2v7.9c0,0.5,0.4,1,1,1s1-0.4,1-1v-7.9c0-0.6-0.4-1-1-1S461.2,340.6,461.2,341.2
	L461.2,341.2z M461.2,357v7.9c0,0.6,0.4,1,1,1s1-0.4,1-1V357c0-0.5-0.4-1-1-1S461.2,356.5,461.2,357L461.2,357z M461.2,372.9v7.9
	c0,0.6,0.4,1,1,1s1-0.5,1-1v-7.9c0-0.6-0.4-1-1-1S461.2,372.3,461.2,372.9L461.2,372.9z"/>
</svg>
