<?xml version="1.0" encoding="utf-8"?>
<!-- Generator: Adobe Illustrator 19.0.0, SVG Export Plug-In . SVG Version: 6.00 Build 0)  -->
<svg version="1.1" id="Layer_1" xmlns="http://www.w3.org/2000/svg" xmlns:xlink="http://www.w3.org/1999/xlink" x="0px" y="0px"
	 viewBox="0 0 841.9 595.3" style="enable-background:new 0 0 841.9 595.3;" xml:space="preserve">
<style type="text/css">
	.st0{fill:#333E48;}
	.st1{font-family:'Avenir-Heavy';}
	.st2{font-size:23.1949px;}
	.st3{letter-spacing:-1;}
	.st4{fill:#78A22F;}
	.st5{fill:#007DC5;}
	.st6{fill:#FFFFFF;}
	.st7{fill:#414042;}
	.st8{fill:#78A240;}
	.st9{fill:#737070;}
	.st10{font-family:'Avenir-Roman';}
	.st11{font-size:10.3374px;}
	.st12{font-family:'Avenir-Black';}
</style>
<text transform="matrix(1 0 0 1 347.1837 150.3613)" class="st0 st1 st2">INSIDE </text>
<text transform="matrix(1 0 0 1 429.629 150.3613)" class="st0 st1 st2 st3">YO</text>
<text transform="matrix(1 0 0 1 462.3243 150.3613)" class="st0 st1 st2">UR</text>
<text transform="matrix(1 0 0 1 493.5509 150.3613)" class="st0 st1 st2"> </text>
<text transform="matrix(1 0 0 1 363.3009 171.3301)" class="st0 st1 st2">A</text>
<text transform="matrix(1 0 0 1 379.1993 171.3301)" class="st0 st1 st2">CCO</text>
<text transform="matrix(1 0 0 1 429.1759 171.3301)" class="st0 st1 st2">UN</text>
<text transform="matrix(1 0 0 1 464.1212 171.3301)" class="st0 st1 st2">T</text>
<path class="st4" d="M485.6,467c-74.6,0-74.6-270.1,0-270.1s135,60.5,135,135S560.2,467,485.6,467L485.6,467z"/>
<path class="st4" d="M355.9,467c74.6,0,74.6-270.1,0-270.1c-74.6,0-135,60.5-135,135S281.3,467,355.9,467L355.9,467z"/>
<path class="st0" d="M485.6,467c-36.1,0-65.3-60.5-65.3-135s29.2-135,65.3-135s65.3,60.5,65.3,135S521.6,467,485.6,467L485.6,467z"
	/>
<path class="st0" d="M355.9,467c36.1,0,65.3-60.5,65.3-135s-29.2-135-65.3-135c-36,0-65.3,60.5-65.3,135S319.9,467,355.9,467
	L355.9,467z"/>
<path class="st4" d="M353.5,367.6c-25.1,0-45.5-20.3-45.5-45.4c0-25.1,20.4-45.4,45.5-45.4s45.5,20.3,45.5,45.4
	C399,347.3,378.6,367.6,353.5,367.6L353.5,367.6z"/>
<path class="st5" d="M353.5,373v2.5c-14.7,0-28.1-6-37.7-15.6c-9.7-9.6-15.6-23-15.6-37.6c0-14.7,6-28,15.6-37.6
	c9.7-9.6,23-15.6,37.7-15.6c14.7,0,28.1,5.9,37.7,15.6c9.7,9.6,15.6,22.9,15.6,37.6c0,14.7-6,28-15.6,37.6
	c-9.7,9.6-23,15.6-37.7,15.6V373v-2.5c13.4,0,25.4-5.4,34.2-14.1c8.8-8.7,14.2-20.8,14.2-34.1c0-13.3-5.4-25.3-14.2-34.1
	c-8.8-8.7-20.8-14.1-34.2-14.1c-13.4,0-25.4,5.4-34.2,14.1c-8.8,8.7-14.2,20.8-14.2,34.1c0,13.3,5.4,25.3,14.2,34.1
	c8.8,8.7,20.8,14.1,34.2,14.1V373L353.5,373z"/>
<path class="st5" d="M352.2,406.2v1.3c-4.3,0-7.9-3.5-7.9-7.8c0-4.3,3.5-7.8,7.9-7.8c4.3,0,7.9,3.5,7.9,7.8c0,4.3-3.5,7.8-7.9,7.8
	V406.2v-1.3c1.4,0,2.7-0.6,3.7-1.5c0.9-0.9,1.5-2.2,1.5-3.7c0-1.4-0.6-2.7-1.5-3.7c-0.9-0.9-2.2-1.5-3.7-1.5c-1.4,0-2.7,0.6-3.7,1.5
	c-0.9,0.9-1.5,2.2-1.5,3.7c0,1.4,0.6,2.7,1.5,3.7c0.9,0.9,2.2,1.5,3.7,1.5V406.2L352.2,406.2z"/>
<path class="st6" d="M486.4,376.7c-6.5-5.8-6.8-16-0.7-22.8c6.1-6.8,16.3-7.5,22.7-1.7c6.5,5.8,6.8,16,0.7,22.8
	C503,381.8,492.9,382.6,486.4,376.7L486.4,376.7z"/>
<path class="st4" d="M486.4,376.7l-0.5,0.6c-3.4-3.1-5.2-7.3-5.3-11.6c-0.1-4.3,1.4-8.8,4.6-12.3c3.2-3.5,7.4-5.5,11.8-5.8
	c4.3-0.3,8.7,1,12.1,4.1c3.4,3.1,5.2,7.3,5.3,11.6c0.1,4.3-1.4,8.8-4.6,12.3c-3.2,3.5-7.4,5.5-11.8,5.8c-4.3,0.3-8.7-1-12.1-4.1
	L486.4,376.7l0.5-0.6c3.1,2.7,7,3.9,10.9,3.6c3.9-0.3,7.8-2.1,10.7-5.3c2.9-3.2,4.3-7.3,4.2-11.2c-0.1-3.9-1.7-7.7-4.8-10.5
	c-3.1-2.7-7-3.9-10.9-3.7c-3.9,0.3-7.8,2.1-10.7,5.3c-2.9,3.2-4.3,7.3-4.2,11.2c0.1,3.9,1.7,7.7,4.8,10.5L486.4,376.7L486.4,376.7z"
	/>
<path class="st7" d="M507.2,363.2c-0.4-1.8-1.1-3.4-2.4-4.8l1.1-1.2l-1.7-1.5l-1,1.1c-2.7-2-5.6-2.1-7.5,0l0,0
	c-2,2.2-1.6,4.5,0.6,7.8l-3.5,3.9c-1.1-1.4-1.6-2.9-1.9-4.9l-2.9,0.7c0.4,2.3,1.4,4.4,2.9,6.2l-1.8,2l1.7,1.5l1.7-1.9
	c2.7,2,5.7,2.1,7.6,0l0,0c1.9-2.1,1.7-4.5-0.6-7.9l3.4-3.8c0.7,1,1.2,2.3,1.5,3.7L507.2,363.2L507.2,363.2z M497.7,370.1
	L497.7,370.1c-0.9,1-2.1,1-3.5,0l3.2-3.6C498.5,368.3,498.5,369.2,497.7,370.1L497.7,370.1z M498.1,358.8L498.1,358.8
	c0.8-0.9,2-1,3.4,0l-3.1,3.5C497.2,360.5,497.3,359.6,498.1,358.8L498.1,358.8z"/>
<path class="st4" d="M535.1,322.2c0-25.1-20.4-45.4-45.5-45.4S444,297.2,444,322.2c0,13.1,5.6,24.9,14.5,33.2h62.1
	C529.5,347.1,535.1,335.4,535.1,322.2L535.1,322.2z"/>
<path class="st6" d="M476.3,345.6c-8.7,0-15.7-7.4-15.7-16.5s7-16.5,15.7-16.5c8.7,0,15.7,7.4,15.7,16.5S485,345.6,476.3,345.6
	L476.3,345.6z"/>
<path class="st4" d="M476.3,345.6v0.8c-4.6,0-8.7-2-11.7-5.1c-3-3.1-4.8-7.4-4.8-12.2c0-4.8,1.8-9.1,4.8-12.2
	c3-3.1,7.1-5.1,11.7-5.1c4.6,0,8.7,2,11.7,5.1c3,3.1,4.8,7.4,4.8,12.2c0,4.8-1.8,9.1-4.8,12.2c-3,3.1-7.1,5.1-11.7,5.1V345.6v-0.8
	c4.1,0,7.8-1.7,10.5-4.6c2.7-2.8,4.4-6.8,4.4-11.1s-1.7-8.3-4.4-11.1c-2.7-2.8-6.4-4.6-10.5-4.6c-4.1,0-7.8,1.8-10.5,4.6
	c-2.7,2.8-4.4,6.8-4.4,11.1s1.7,8.3,4.4,11.1c2.7,2.8,6.4,4.6,10.5,4.6V345.6L476.3,345.6z"/>
<path class="st8" d="M482.7,321.6c-1.5-1.1-3.1-1.8-5-2V318h-2.3v1.5c-3.3,0.3-5.6,2.2-5.6,5.1v0.1c0,3,1.8,4.4,5.7,5.4v5.2
	c-1.7-0.3-3.2-1.1-4.7-2.3l-1.7,2.4c1.8,1.4,4,2.4,6.3,2.6v2.7h2.3v-2.6c3.4-0.3,5.7-2.3,5.7-5.2v0c0-2.8-1.7-4.4-5.8-5.4v-5.1
	c1.2,0.3,2.4,0.9,3.6,1.7L482.7,321.6L482.7,321.6z M480.3,333.1L480.3,333.1c0,1.3-0.9,2.1-2.6,2.3v-4.8
	C479.7,331.2,480.3,331.9,480.3,333.1L480.3,333.1z M473,324.5L473,324.5c0-1.2,0.8-2.1,2.5-2.2v4.7
	C473.5,326.3,473,325.6,473,324.5L473,324.5z"/>
<path class="st6" d="M488.3,328c-8.7,0-15.7-7.4-15.7-16.5c0-9.1,7-16.5,15.7-16.5s15.7,7.4,15.7,16.5C504,320.7,497,328,488.3,328
	L488.3,328z"/>
<path class="st4" d="M488.3,328v0.8c-4.6,0-8.7-1.9-11.7-5.1c-3-3.1-4.8-7.4-4.8-12.2c0-4.8,1.8-9.1,4.8-12.2
	c3-3.1,7.1-5.1,11.7-5.1c4.6,0,8.7,2,11.7,5.1c3,3.1,4.8,7.5,4.8,12.2c0,4.8-1.8,9.1-4.8,12.2c-3,3.1-7.1,5.1-11.7,5.1V328v-0.8
	c4.1,0,7.8-1.7,10.5-4.6c2.7-2.8,4.4-6.8,4.4-11.1c0-4.3-1.7-8.3-4.4-11.1c-2.7-2.8-6.4-4.6-10.5-4.6c-4.1,0-7.8,1.7-10.5,4.6
	c-2.7,2.8-4.4,6.8-4.4,11.1c0,4.3,1.7,8.2,4.4,11.1c2.7,2.8,6.4,4.6,10.5,4.6V328L488.3,328z"/>
<path class="st8" d="M494.7,304c-1.5-1.1-3.1-1.8-5-2v-1.6h-2.3v1.5c-3.3,0.3-5.6,2.2-5.6,5.1v0.1c0,3,1.8,4.4,5.7,5.4v5.2
	c-1.7-0.3-3.2-1.1-4.7-2.3l-1.7,2.4c1.8,1.4,4,2.4,6.3,2.6v2.7h2.3v-2.6c3.4-0.3,5.7-2.3,5.7-5.2v-0.1c0-2.8-1.7-4.4-5.8-5.4v-5.1
	c1.2,0.3,2.4,0.9,3.6,1.7L494.7,304L494.7,304z M492.2,315.5L492.2,315.5c0,1.3-0.9,2.2-2.6,2.3V313
	C491.6,313.7,492.2,314.4,492.2,315.5L492.2,315.5z M484.9,306.9L484.9,306.9c0-1.2,0.8-2.1,2.5-2.2v4.7
	C485.4,308.7,484.9,308,484.9,306.9L484.9,306.9z"/>
<path class="st6" d="M500.2,345.6c-8.7,0-15.7-7.4-15.7-16.5s7-16.5,15.7-16.5s15.7,7.4,15.7,16.5S508.9,345.6,500.2,345.6
	L500.2,345.6z"/>
<path class="st4" d="M500.2,345.6v0.8c-4.6,0-8.7-2-11.7-5.1c-3-3.1-4.8-7.4-4.8-12.2c0-4.8,1.8-9.1,4.8-12.2
	c3-3.1,7.1-5.1,11.7-5.1c4.6,0,8.7,2,11.7,5.1c3,3.1,4.8,7.4,4.8,12.2c0,4.8-1.8,9.1-4.8,12.2c-3,3.1-7.1,5.1-11.7,5.1V345.6v-0.8
	c4.1,0,7.8-1.7,10.5-4.6c2.7-2.8,4.4-6.8,4.4-11.1s-1.7-8.3-4.4-11.1c-2.7-2.8-6.4-4.6-10.5-4.6c-4.1,0-7.8,1.8-10.5,4.6
	c-2.7,2.8-4.4,6.8-4.4,11.1s1.7,8.3,4.4,11.1c2.7,2.8,6.4,4.6,10.5,4.6V345.6L500.2,345.6z"/>
<path class="st8" d="M506.6,321.6c-1.5-1.1-3.1-1.8-5-2V318h-2.3v1.5c-3.3,0.3-5.6,2.2-5.6,5.1v0.1c0,3,1.8,4.4,5.7,5.4v5.2
	c-1.7-0.3-3.2-1.1-4.7-2.3l-1.7,2.4c1.8,1.4,4,2.4,6.3,2.6v2.7h2.3v-2.6c3.4-0.3,5.7-2.3,5.7-5.2v0c0-2.8-1.7-4.4-5.8-5.4v-5.1
	c1.2,0.3,2.4,0.9,3.6,1.7L506.6,321.6L506.6,321.6z M504.1,333.1L504.1,333.1c0,1.3-0.9,2.1-2.6,2.3v-4.8
	C503.5,331.2,504.1,331.9,504.1,333.1L504.1,333.1z M496.9,324.5L496.9,324.5c0-1.2,0.8-2.1,2.5-2.2v4.7
	C497.4,326.3,496.9,325.6,496.9,324.5L496.9,324.5z"/>
<path class="st6" d="M355.9,287.5c9.9,0,18.4,4,24.4,10.4c6,6.4,9.5,15.2,9.5,24.9c0,16.4-11.3,30.1-26.7,34.1l-0.7-2.6
	c14.2-3.7,24.7-16.4,24.7-31.6c0-9.1-3.3-17.2-8.8-23.1c-5.5-5.9-13.3-9.5-22.5-9.5V287.5L355.9,287.5z"/>
<polygon class="st6" points="362.6,284.4 357.9,288.8 362.6,293.2 360.8,295.2 354,288.8 360.8,282.5 362.6,284.5 "/>
<path class="st6" d="M352.1,357c-9.9,0-18.4-4-24.4-10.4c-6-6.4-9.5-15.2-9.5-24.9c0-8.6,3.1-16.4,8.3-22.5
	c5.2-6.1,12.4-10.5,20.6-12.1l0.5,2.6c-7.6,1.5-14.3,5.5-19.1,11.2c-4.8,5.7-7.6,12.9-7.6,20.8c0,9.1,3.3,17.2,8.8,23.1
	c5.5,5.9,13.3,9.5,22.5,9.5V357L352.1,357z"/>
<polygon class="st6" points="345.4,360.1 350.1,355.7 345.4,351.3 347.2,349.4 354,355.7 347.2,362 345.4,360.1 "/>
<polyline class="st4" points="435.8,324.3 396.7,324.3 396.7,319 435.8,319 "/>
<polygon class="st4" points="425.4,327.7 431.9,321.7 425.4,315.6 429,311.7 439.6,321.7 429,331.6 425.4,327.7 "/>
<path class="st6" d="M364.8,307.8c-2.6-2-5.3-3.3-8.6-3.7v-2.9h-4v2.8c-5.7,0.5-9.6,4.1-9.6,9.3v0.1c0,5.5,3.1,8.1,9.8,10v9.6
	c-3-0.5-5.4-2-8-4.3l-2.9,4.5c3.1,2.6,6.8,4.3,10.8,4.8v4.9h4v-4.8c5.8-0.6,9.7-4.1,9.7-9.4v-0.1c0-5.2-3-8.1-9.9-10v-9.3
	c2.1,0.5,4.2,1.6,6.2,3.2L364.8,307.8L364.8,307.8z M360.6,328.9L360.6,328.9c0,2.4-1.6,3.9-4.5,4.3v-8.8
	C359.6,325.4,360.6,326.7,360.6,328.9L360.6,328.9z M348.1,313L348.1,313c0-2.2,1.5-3.8,4.4-4.1v8.6
	C348.9,316.4,348.1,315.1,348.1,313L348.1,313z"/>
<path class="st4" d="M458.5,355.4c3.3,10.6,10.4,20.1,20.8,26.1c10.4,6,22.2,7.4,33,5L458.5,355.4L458.5,355.4z"/>
<polyline class="st4" points="354.2,426.8 374.8,426.8 374.8,424.2 354.2,424.2 "/>
<text transform="matrix(1 0 0 1 332.0353 420.2285)" class="st9 st10 st11">ON</text>
<text transform="matrix(1 0 0 1 348.7697 420.2285)" class="st6 st10 st11"> </text>
<text transform="matrix(1 0 0 1 353.9415 420.2285)" class="st6 st12 st11">OF</text>
<text transform="matrix(1 0 0 1 368.629 420.2285)" class="st6 st12 st11">F</text>
<path class="st6" d="M524.4,406.7c-2.4,1.7-25.1,15.1-28.3,17c-3.8,2.2-4.7,2.4-10.4,0.6c-3.8-1.2-9.2-3-13-4.8
	c-3.5-1.6-5.9-1.7-8.6,0l-29.5,16.7l-15.2-19.6l31-15.1c0,0,7.7-3.6,12.3-5.4c7.5-2.9,9.8-1.5,14,1.1c1.8,1.1,7.5,5.3,7.5,5.3
	s3.6,3.4,11,3.4c4.5,0,7.4,0.5,7.4,3.3c0,3.1-5.7,3.3-5.7,3.3h-10.7c-4.8,0-11.4-2.7-11.4-2.7s5.6,6.1,11.4,6.1h10.7
	c3.1-0.1,9-1.6,9-6.6c0-6.6-6-6.6-13.5-6.6c-0.6,0-1.1-0.1-1.7-0.2c0.3-0.2,0.6-0.3,0.9-0.5c1.3-0.8,3.2-1.9,5.2-3.1
	c5.4-3.3,8.2-3.8,10.8-0.2c1.9-1.9,4.2-2.4,6.3-2.4c2.3,0,4.2,1.5,3.7,3.9c5.8-3.5,8.7-2.1,10-0.4
	C529.3,401.8,528.1,404.1,524.4,406.7L524.4,406.7z"/>
</svg>
