<svg id="Layer_1" data-name="Layer 1" xmlns="http://www.w3.org/2000/svg" viewBox="0 0 84.8 84.9"><defs><style>.cls-1{fill:#333e48;}.cls-2{fill:#00a7ce;}</style></defs><title>Protect O</title><g id="_grupa_" data-name="&lt;grupa&gt;"><polygon id="_ścieżka_" data-name="&lt;ścieżka&gt;" class="cls-1" points="0 21.6 0 0 21.8 0 21.8 2 2 2 2 21.6 0 21.6"/><polygon id="_ścieżka_2" data-name="&lt;ścieżka&gt;" class="cls-1" points="21.6 84.9 0 84.9 0 63.1 2 63.1 2 82.8 21.6 82.8 21.6 84.9"/><polygon id="_ścieżka_3" data-name="&lt;ścieżka&gt;" class="cls-1" points="84.8 21.6 84.8 0 63.1 0 63.1 2 82.8 2 82.8 21.6 84.8 21.6"/><polygon id="_ścieżka_4" data-name="&lt;ścieżka&gt;" class="cls-1" points="63.2 84.9 84.8 84.9 84.8 63.1 82.8 63.1 82.8 82.8 63.2 82.8 63.2 84.9"/></g><path id="_ścieżka_złożona_" data-name="&lt;ścieżka złożona&gt;" class="cls-2" d="M297.4,395.1a25.5,25.5,0,1,0,25.5,25.5A25.48,25.48,0,0,0,297.4,395.1Zm0,40.6a15.1,15.1,0,1,1,15.1-15.1A15.09,15.09,0,0,1,297.4,435.7Z" transform="translate(-255 -378.2)"/></svg>