<svg id="Layer_1" data-name="Layer 1" xmlns="http://www.w3.org/2000/svg" viewBox="0 0 84.8 84.9"><defs><style>.cls-1{fill:#77bc1f;}.cls-2{fill:#333e48;}</style></defs><title>Spend Arrow</title><path id="_ścieżka_" data-name="&lt;ścieżka&gt;" class="cls-1" d="M315,421.3a2,2,0,0,0-.6-1.5l-24.7-24.7a2.17,2.17,0,0,0-3,0l-4.9,4.9a2.17,2.17,0,0,0,0,3l18.3,18.3-18.3,18.3a2.18,2.18,0,0,0,0,3l4.9,4.9a2.17,2.17,0,0,0,3,0l24.7-24.7a2,2,0,0,0,.6-1.5h0Z" transform="translate(-255.7 -378.9)"/><g id="_grupa_" data-name="&lt;grupa&gt;"><polygon id="_ścieżka_2" data-name="&lt;ścieżka&gt;" class="cls-2" points="0 21.6 0 0 21.8 0 21.8 2 2 2 2 21.6 0 21.6"/><polygon id="_ścieżka_3" data-name="&lt;ścieżka&gt;" class="cls-2" points="21.6 84.9 0 84.9 0 63.1 2 63.1 2 82.8 21.6 82.8 21.6 84.9"/><polygon id="_ścieżka_4" data-name="&lt;ścieżka&gt;" class="cls-2" points="84.8 21.6 84.8 0 63.1 0 63.1 2 82.8 2 82.8 21.6 84.8 21.6"/><polygon id="_ścieżka_5" data-name="&lt;ścieżka&gt;" class="cls-2" points="63.2 84.9 84.8 84.9 84.8 63.1 82.8 63.1 82.8 82.8 63.2 82.8 63.2 84.9"/></g></svg>